G04 Layer_Physical_Order=2*
G04 Layer_Color=16711680*
%FSLAX25Y25*%
%MOIN*%
G70*
G01*
G75*
%ADD15C,0.01000*%
%ADD17C,0.01500*%
%ADD18C,0.45000*%
%ADD19C,0.09842*%
%ADD20C,0.20866*%
%ADD21C,0.02000*%
%ADD22R,0.08268X0.11811*%
%ADD23R,0.03150X0.06299*%
%ADD24R,0.15748X0.07874*%
G36*
X322500Y128435D02*
D01*
Y82435D01*
X61224D01*
Y128435D01*
X188000D01*
Y172201D01*
X192500Y172201D01*
Y128435D01*
X310000D01*
X310000Y268201D01*
X322500Y268201D01*
X322500Y128435D01*
D02*
G37*
G36*
X303000Y191201D02*
X262500D01*
Y202935D01*
X117500D01*
Y195935D01*
D01*
X117500Y172201D01*
X149000D01*
Y165701D01*
Y149701D01*
X182000D01*
Y172201D01*
X186000D01*
Y146201D01*
X145000D01*
Y165701D01*
X39370D01*
X39370Y26935D01*
X239500Y26935D01*
X239500Y15935D01*
Y2500D01*
X84000D01*
Y15646D01*
X84289Y15935D01*
X16224D01*
X16224Y26935D01*
X16224D01*
X16224Y196935D01*
X16224D01*
X16224Y216201D01*
X262500D01*
Y216201D01*
X303000D01*
Y191201D01*
D02*
G37*
G36*
X322500Y268201D02*
X61224D01*
X61224Y314435D01*
X322500D01*
X322500Y268201D01*
D02*
G37*
D15*
X182000Y147201D02*
X184539Y149740D01*
Y169095D01*
X147539Y149661D02*
Y169095D01*
Y149661D02*
X150000Y147201D01*
X182000D01*
X189461Y126661D02*
Y169095D01*
X82724Y171976D02*
Y199350D01*
Y171976D02*
X85606Y169095D01*
X147539D01*
D17*
X133673Y188528D02*
Y190986D01*
X149421Y191132D02*
Y194280D01*
X147500Y196201D02*
X149421Y194280D01*
X127500Y184201D02*
X129500Y182201D01*
X127500Y184201D02*
Y194201D01*
X129500Y196201D01*
X147500D01*
X150000Y177701D02*
X152461Y175240D01*
Y169095D02*
Y175240D01*
X122500Y179701D02*
X124500Y177701D01*
X150000D01*
X250000Y182701D02*
Y196201D01*
Y182701D02*
X252661Y180039D01*
X290354D01*
X247000Y199201D02*
X250000Y196201D01*
X122500Y179701D02*
Y196701D01*
X125000Y199201D01*
X247000D01*
X133673Y188528D02*
X135500Y186701D01*
X129500Y182201D02*
X218000D01*
X221457Y178744D01*
Y169095D02*
Y178744D01*
X135500Y186701D02*
X223000D01*
X226378Y183323D01*
Y169095D02*
Y183323D01*
X192724Y190935D02*
X227266D01*
X231299Y186902D01*
Y169095D02*
Y186902D01*
D18*
X84112Y291463D02*
D03*
X163323D02*
D03*
X242533D02*
D03*
X84114Y105463D02*
D03*
X163323D02*
D03*
X242535D02*
D03*
D19*
X47244Y379921D02*
D03*
X279527D02*
D03*
X59055Y9843D02*
D03*
X267717Y9843D02*
D03*
D20*
X290354Y203661D02*
D03*
D21*
X50224Y199350D02*
D03*
X52724D02*
D03*
X55224D02*
D03*
X57724D02*
D03*
X60224D02*
D03*
X62724D02*
D03*
X72724D02*
D03*
X75224D02*
D03*
X77724D02*
D03*
X80224D02*
D03*
X82724D02*
D03*
X50724Y19935D02*
D03*
X53224D02*
D03*
X55724D02*
D03*
X58224D02*
D03*
X60724D02*
D03*
X63224D02*
D03*
X133673Y190986D02*
D03*
X149421Y191132D02*
D03*
X192724Y190935D02*
D03*
X212224Y206435D02*
D03*
X118500Y13000D02*
D03*
X121000D02*
D03*
X123500D02*
D03*
X126000D02*
D03*
X128500D02*
D03*
X131000D02*
D03*
X70224Y199350D02*
D03*
X206500Y13000D02*
D03*
X204000D02*
D03*
X201500D02*
D03*
X199000D02*
D03*
X196500D02*
D03*
X194000D02*
D03*
X212224Y203935D02*
D03*
Y208935D02*
D03*
X214724Y203935D02*
D03*
Y206435D02*
D03*
Y208935D02*
D03*
X217224Y203935D02*
D03*
Y206435D02*
D03*
Y208935D02*
D03*
D22*
X211417Y157677D02*
D03*
X241338D02*
D03*
X199500D02*
D03*
X174500Y157677D02*
D03*
X162500Y157677D02*
D03*
X137500Y157677D02*
D03*
D23*
X231299Y169095D02*
D03*
X226378D02*
D03*
X221457D02*
D03*
X184539D02*
D03*
X189461D02*
D03*
X147539D02*
D03*
X152461D02*
D03*
D24*
X290354Y180039D02*
D03*
M02*
