G04 Layer_Physical_Order=1*
G04 Layer_Color=255*
%FSLAX25Y25*%
%MOIN*%
G70*
G01*
G75*
%ADD10R,0.06299X0.03937*%
%ADD11R,0.06299X0.03150*%
%ADD12R,0.31496X0.25590*%
%ADD13R,1.96850X0.19685*%
%ADD14R,1.96850X0.27559*%
%ADD15C,0.01000*%
%ADD16C,0.08000*%
%ADD17C,0.01500*%
%ADD18C,0.45000*%
%ADD19C,0.09842*%
%ADD20C,0.20866*%
%ADD21C,0.02000*%
G36*
X320000Y80000D02*
X267500Y27500D01*
X58500D01*
X6000Y80000D01*
Y183500D01*
X320000D01*
Y80000D01*
D02*
G37*
G36*
X320500Y266000D02*
X268000Y213500D01*
X59000D01*
X6500Y266000D01*
Y369500D01*
X320500D01*
Y266000D01*
D02*
G37*
D10*
X192724Y199350D02*
D03*
X133673D02*
D03*
D11*
X176976Y201516D02*
D03*
Y197185D02*
D03*
X149421D02*
D03*
Y201516D02*
D03*
D12*
X224008Y13551D02*
D03*
X101272D02*
D03*
X31095D02*
D03*
X31772Y199551D02*
D03*
X101949D02*
D03*
X224685D02*
D03*
D13*
X161990Y46582D02*
D03*
Y161382D02*
D03*
X162667Y347382D02*
D03*
Y232582D02*
D03*
D14*
X162092Y115882D02*
D03*
X162770Y301882D02*
D03*
D15*
X94687Y19935D02*
X101272Y13350D01*
X31095D02*
X37679Y19935D01*
D16*
X82724Y199350D02*
X101949D01*
X31772D02*
X50224D01*
X52724D01*
X55224D01*
X57724D01*
X60224D01*
X62724D01*
X72724D02*
X75224D01*
X77724D01*
X80224D01*
X82724D01*
X37679Y19935D02*
X50724D01*
X53224D01*
X55724D01*
X58224D01*
X60724D01*
X63224D01*
X94687D01*
X101272Y13350D02*
X101622Y13000D01*
X118500D01*
X121000D01*
X123500D01*
X126000D01*
X128500D01*
X131000D01*
X62724Y199350D02*
X70224D01*
X72724D01*
X223657Y13000D02*
X224008Y13350D01*
X206500Y13000D02*
X223657D01*
X204000D02*
X206500D01*
X201500D02*
X204000D01*
X199000D02*
X201500D01*
X196500D02*
X199000D01*
X131000D02*
X194000D01*
X196500D01*
D17*
X176976Y197185D02*
Y201516D01*
X149421Y197185D02*
Y201516D01*
Y197185D02*
X176976D01*
X133673Y190986D02*
Y199350D01*
X149421Y191132D02*
Y197185D01*
X192724Y190935D02*
Y199350D01*
D18*
X84112Y291463D02*
D03*
X163323D02*
D03*
X242533D02*
D03*
X84114Y105463D02*
D03*
X163323D02*
D03*
X242535D02*
D03*
D19*
X47244Y379921D02*
D03*
X279527D02*
D03*
X59055Y9843D02*
D03*
X267717Y9843D02*
D03*
D20*
X290354Y203661D02*
D03*
D21*
X50224Y199350D02*
D03*
X52724D02*
D03*
X55224D02*
D03*
X57724D02*
D03*
X60224D02*
D03*
X62724D02*
D03*
X72724D02*
D03*
X75224D02*
D03*
X77724D02*
D03*
X80224D02*
D03*
X82724D02*
D03*
X50724Y19935D02*
D03*
X53224D02*
D03*
X55724D02*
D03*
X58224D02*
D03*
X60724D02*
D03*
X63224D02*
D03*
X133673Y190986D02*
D03*
X149421Y191132D02*
D03*
X192724Y190935D02*
D03*
X212224Y206435D02*
D03*
X118500Y13000D02*
D03*
X121000D02*
D03*
X123500D02*
D03*
X126000D02*
D03*
X128500D02*
D03*
X131000D02*
D03*
X70224Y199350D02*
D03*
X206500Y13000D02*
D03*
X204000D02*
D03*
X201500D02*
D03*
X199000D02*
D03*
X196500D02*
D03*
X194000D02*
D03*
X212224Y203935D02*
D03*
Y208935D02*
D03*
X214724Y203935D02*
D03*
Y206435D02*
D03*
Y208935D02*
D03*
X217224Y203935D02*
D03*
Y206435D02*
D03*
Y208935D02*
D03*
M02*
