G04*
G04 #@! TF.GenerationSoftware,Altium Limited,Altium Designer,18.1.9 (240)*
G04*
G04 Layer_Color=32896*
%FSLAX25Y25*%
%MOIN*%
G70*
G01*
G75*
%ADD82C,0.01181*%
D82*
X293110Y428740D02*
G03*
X305315Y428740I6102J139D01*
G01*
X374803Y83662D02*
G03*
X374803Y71457I139J-6102D01*
G01*
X29724Y1969D02*
G03*
X17519Y1969I-6102J-139D01*
G01*
X-51969Y347047D02*
G03*
X-51969Y359252I-139J6102D01*
G01*
X-42126Y376772D02*
X-36417D01*
X-28437D02*
X0D01*
X-28543Y370866D02*
Y376665D01*
X-36417Y370866D02*
X-28543D01*
X-36417D02*
Y376772D01*
X307283Y430709D02*
X322835D01*
Y422835D02*
Y430709D01*
X316929Y405315D02*
X322835D01*
X316929D02*
Y413189D01*
X322835Y376772D02*
Y405315D01*
X316929Y413189D02*
X322835D01*
Y418898D01*
X322941Y54043D02*
X351378D01*
X359252Y53937D02*
X364961D01*
X368898D02*
X376772D01*
X351378Y54043D02*
Y59842D01*
X359252D01*
Y53937D02*
Y59842D01*
X106Y25394D02*
Y53831D01*
X0Y11811D02*
Y17520D01*
X106Y25394D02*
X5906D01*
Y17520D02*
Y25394D01*
X0Y17520D02*
X5906D01*
X-42169Y376362D02*
X-42126Y376772D01*
X-42296Y375971D02*
X-42169Y376362D01*
X-42502Y375615D02*
X-42296Y375971D01*
X-42777Y375309D02*
X-42502Y375615D01*
X-43110Y375067D02*
X-42777Y375309D01*
X-43486Y374900D02*
X-43110Y375067D01*
X-43889Y374814D02*
X-43486Y374900D01*
X-44300Y374814D02*
X-43889D01*
X-44703Y374900D02*
X-44300Y374814D01*
X-45079Y375067D02*
X-44703Y374900D01*
X-45412Y375309D02*
X-45079Y375067D01*
X-45687Y375615D02*
X-45412Y375309D01*
X-45893Y375971D02*
X-45687Y375615D01*
X-46020Y376362D02*
X-45893Y375971D01*
X-46063Y376772D02*
X-46020Y376362D01*
X-53937Y376772D02*
X-46063D01*
X-53937Y361221D02*
Y376772D01*
Y361221D02*
X-51969Y359252D01*
X-53937Y345079D02*
X-51969Y347047D01*
X-53937Y329527D02*
Y345079D01*
Y329527D02*
X-46063D01*
X-46020Y329937D01*
X-45893Y330328D01*
X-45687Y330685D01*
X-45412Y330990D01*
X-45079Y331232D01*
X-44703Y331400D01*
X-44300Y331485D01*
X-43889D01*
X-43486Y331400D01*
X-43110Y331232D01*
X-42777Y330990D01*
X-42502Y330685D01*
X-42296Y330328D01*
X-42169Y329937D01*
X-42126Y329527D01*
X-29528D01*
Y53937D02*
Y329527D01*
Y53937D02*
X0D01*
Y11811D02*
X409Y11768D01*
X801Y11641D01*
X1157Y11435D01*
X1463Y11160D01*
X1705Y10827D01*
X1872Y10451D01*
X1958Y10048D01*
Y9637D02*
Y10048D01*
X1872Y9234D02*
X1958Y9637D01*
X1705Y8858D02*
X1872Y9234D01*
X1463Y8525D02*
X1705Y8858D01*
X1157Y8250D02*
X1463Y8525D01*
X801Y8044D02*
X1157Y8250D01*
X409Y7917D02*
X801Y8044D01*
X0Y7874D02*
X409Y7917D01*
X0Y0D02*
Y7874D01*
Y0D02*
X15551D01*
X17520Y1969D01*
X29724D02*
X31693Y0D01*
X47244D01*
Y7874D01*
X46835Y7917D02*
X47244Y7874D01*
X46443Y8044D02*
X46835Y7917D01*
X46087Y8250D02*
X46443Y8044D01*
X45781Y8525D02*
X46087Y8250D01*
X45539Y8858D02*
X45781Y8525D01*
X45372Y9234D02*
X45539Y8858D01*
X45286Y9637D02*
X45372Y9234D01*
X45286Y9637D02*
Y10048D01*
X45372Y10451D01*
X45539Y10827D01*
X45781Y11160D01*
X46087Y11435D01*
X46443Y11641D01*
X46835Y11768D01*
X47244Y11811D01*
Y18504D01*
X322835D01*
Y53937D01*
X364961D02*
X365004Y54346D01*
X365131Y54738D01*
X365336Y55094D01*
X365612Y55400D01*
X365945Y55642D01*
X366321Y55809D01*
X366723Y55895D01*
X367135D01*
X367537Y55809D01*
X367913Y55642D01*
X368246Y55400D01*
X368522Y55094D01*
X368727Y54738D01*
X368855Y54346D01*
X368898Y53937D01*
X376772D02*
Y69488D01*
X374803Y71457D02*
X376772Y69488D01*
X374803Y83661D02*
X376772Y85630D01*
Y101181D01*
X368898D02*
X376772D01*
X368855Y100772D02*
X368898Y101181D01*
X368727Y100380D02*
X368855Y100772D01*
X368522Y100024D02*
X368727Y100380D01*
X368246Y99718D02*
X368522Y100024D01*
X367913Y99476D02*
X368246Y99718D01*
X367537Y99309D02*
X367913Y99476D01*
X367135Y99223D02*
X367537Y99309D01*
X366723Y99223D02*
X367135D01*
X366321Y99309D02*
X366723Y99223D01*
X365945Y99476D02*
X366321Y99309D01*
X365612Y99718D02*
X365945Y99476D01*
X365336Y100024D02*
X365612Y99718D01*
X365131Y100380D02*
X365336Y100024D01*
X365004Y100772D02*
X365131Y100380D01*
X364961Y101181D02*
X365004Y100772D01*
X352362Y101181D02*
X364961D01*
X352362D02*
Y376772D01*
X322835D02*
X352362D01*
X322425Y418941D02*
X322835Y418898D01*
X322034Y419068D02*
X322425Y418941D01*
X321678Y419274D02*
X322034Y419068D01*
X321372Y419549D02*
X321678Y419274D01*
X321130Y419882D02*
X321372Y419549D01*
X320962Y420258D02*
X321130Y419882D01*
X320877Y420660D02*
X320962Y420258D01*
X320877Y420660D02*
Y421072D01*
X320962Y421474D01*
X321130Y421850D01*
X321372Y422183D01*
X321678Y422459D01*
X322034Y422664D01*
X322425Y422792D01*
X322835Y422835D01*
X305315Y428740D02*
X307283Y430709D01*
X291142D02*
X293110Y428740D01*
X275591Y430709D02*
X291142D01*
X275591Y422835D02*
Y430709D01*
Y422835D02*
X276000Y422792D01*
X276391Y422664D01*
X276747Y422459D01*
X277053Y422183D01*
X277295Y421850D01*
X277463Y421474D01*
X277548Y421072D01*
Y420660D02*
Y421072D01*
X277463Y420258D02*
X277548Y420660D01*
X277295Y419882D02*
X277463Y420258D01*
X277053Y419549D02*
X277295Y419882D01*
X276747Y419274D02*
X277053Y419549D01*
X276391Y419068D02*
X276747Y419274D01*
X276000Y418941D02*
X276391Y419068D01*
X275591Y418898D02*
X276000Y418941D01*
X275591Y412205D02*
Y418898D01*
X0Y412205D02*
X275591D01*
X0Y376772D02*
Y412205D01*
M02*
