G04*
G04 #@! TF.GenerationSoftware,Altium Limited,Altium Designer,18.1.9 (240)*
G04*
G04 Layer_Color=65535*
%FSLAX25Y25*%
%MOIN*%
G70*
G01*
G75*
%ADD10C,0.02362*%
%ADD11C,0.00984*%
%ADD12C,0.00394*%
%ADD13C,0.00591*%
%ADD14C,0.00787*%
%ADD15C,0.01575*%
%ADD16C,0.02000*%
G36*
X183326Y262748D02*
X184172Y262595D01*
X185094Y262287D01*
X186094Y261979D01*
X187094Y261441D01*
X188093Y260749D01*
X188016Y260595D01*
X187863Y260288D01*
X187632Y259826D01*
X187401Y259365D01*
X187094Y258827D01*
X186863Y258366D01*
X186632Y258058D01*
X186478Y257904D01*
X186402Y257981D01*
X186094Y258135D01*
X185633Y258366D01*
X185018Y258673D01*
X184249Y258981D01*
X183403Y259211D01*
X182403Y259365D01*
X181327Y259442D01*
X180942D01*
X180635Y259365D01*
X179866Y259211D01*
X178943Y258904D01*
X178021Y258366D01*
X177021Y257597D01*
X176560Y257135D01*
X176098Y256597D01*
X175714Y255905D01*
X175406Y255136D01*
X175176Y252906D01*
Y252829D01*
Y252676D01*
Y252445D01*
X175253Y252137D01*
X175406Y251368D01*
X175714Y250446D01*
X176175Y249369D01*
X176867Y248447D01*
X177329Y247985D01*
X177867Y247601D01*
X178482Y247293D01*
X179174Y246986D01*
X179251Y246909D01*
X179328D01*
X179481Y246832D01*
X179789Y246755D01*
X180250Y246678D01*
X180789D01*
X181634Y246601D01*
X182019D01*
X182480Y246678D01*
X182942D01*
X183403Y246755D01*
X183864Y246832D01*
X184172Y246986D01*
X184249Y247140D01*
Y251138D01*
X181096D01*
Y253906D01*
X181327Y254137D01*
X187709D01*
X187939Y253906D01*
Y245217D01*
X187863Y245141D01*
X187555Y244910D01*
X187094Y244525D01*
X186402Y244218D01*
X185556Y243833D01*
X184403Y243449D01*
X183172Y243218D01*
X181634Y243141D01*
X181019D01*
X180635Y243218D01*
X180174D01*
X179558Y243295D01*
X178866Y243449D01*
X177406Y243833D01*
X176637Y244141D01*
X175791Y244525D01*
X175022Y244910D01*
X174253Y245448D01*
X173561Y246140D01*
X172869Y246832D01*
X172331Y247678D01*
X171869Y248677D01*
Y248754D01*
X171792Y248985D01*
X171639Y249369D01*
X171562Y249908D01*
X171408Y250523D01*
X171254Y251215D01*
X171177Y252829D01*
Y253214D01*
Y253291D01*
Y253521D01*
X171254Y253906D01*
X171331Y254367D01*
X171408Y254982D01*
X171562Y255674D01*
X171792Y256366D01*
X172100Y257135D01*
X172485Y257904D01*
X173023Y258750D01*
X173638Y259519D01*
X174330Y260288D01*
X175176Y260980D01*
X176175Y261595D01*
X177329Y262133D01*
X178636Y262595D01*
X181096Y262825D01*
X182634D01*
X183326Y262748D01*
D02*
G37*
G36*
X172023Y262518D02*
X172100Y262441D01*
Y262133D01*
X164949Y243449D01*
X161105D01*
Y243526D01*
X161028Y243603D01*
X160951Y243833D01*
X160797Y244141D01*
X160567Y244602D01*
X160336Y245294D01*
X160028Y246063D01*
X159567Y247140D01*
X159106Y248370D01*
X158491Y249908D01*
X158183Y250830D01*
X157799Y251753D01*
X157414Y252753D01*
X156953Y253906D01*
X156568Y255059D01*
X156030Y256366D01*
X155569Y257750D01*
X155031Y259211D01*
X154415Y260749D01*
X153800Y262441D01*
X153954Y262595D01*
X157799D01*
X157875Y262518D01*
X157952Y262364D01*
X158029Y262133D01*
X158183Y261826D01*
X158337Y261364D01*
X158567Y260826D01*
X158875Y260057D01*
X159183Y259057D01*
X159644Y257904D01*
X160105Y256520D01*
X160643Y254906D01*
X161336Y252983D01*
X161643Y251907D01*
X162028Y250753D01*
X162412Y249523D01*
X162873Y248216D01*
X163181D01*
Y248293D01*
X163258Y248370D01*
X163411Y248831D01*
X163642Y249523D01*
X163950Y250446D01*
X164257Y251522D01*
X164719Y252753D01*
X165103Y254060D01*
X165564Y255444D01*
X166026Y256751D01*
X166487Y258058D01*
X166948Y259288D01*
X167333Y260365D01*
X167640Y261287D01*
X167948Y261979D01*
X168102Y262441D01*
X168179Y262518D01*
X168256Y262595D01*
X171946D01*
X172023Y262518D01*
D02*
G37*
G36*
X153108Y262287D02*
Y251138D01*
Y251061D01*
Y250907D01*
Y250600D01*
X153031Y250292D01*
X152878Y249292D01*
X152570Y248139D01*
X152032Y246909D01*
X151724Y246294D01*
X151263Y245679D01*
X150725Y245141D01*
X150186Y244602D01*
X149494Y244064D01*
X148725Y243679D01*
X148649D01*
X148418Y243603D01*
X148033Y243526D01*
X147572Y243449D01*
X146957Y243295D01*
X146342Y243218D01*
X145035Y243141D01*
X144266D01*
X143805Y243218D01*
X143343Y243295D01*
X142728Y243449D01*
X142036Y243603D01*
X141267Y243910D01*
X140575Y244295D01*
X139806Y244756D01*
X139037Y245371D01*
X138345Y246063D01*
X137730Y246909D01*
X137269Y247985D01*
X136884Y249139D01*
X136577Y250523D01*
X136500Y252137D01*
Y262287D01*
X136731Y262595D01*
X140191D01*
X140421Y262287D01*
Y251830D01*
Y251753D01*
Y251599D01*
Y251368D01*
X140498Y250984D01*
X140652Y250215D01*
X141036Y249216D01*
X141575Y248293D01*
X141959Y247832D01*
X142344Y247447D01*
X142882Y247063D01*
X143497Y246832D01*
X144189Y246678D01*
X145035Y246601D01*
X145189D01*
X145496Y246678D01*
X146034Y246755D01*
X146650Y246986D01*
X147342Y247370D01*
X148033Y247832D01*
X148649Y248601D01*
X149110Y249600D01*
X149417Y253906D01*
Y262287D01*
X149648Y262595D01*
X152878D01*
X153108Y262287D01*
D02*
G37*
G36*
X188093Y240143D02*
X187939Y239989D01*
X136731D01*
X136500Y240296D01*
X136577Y240373D01*
X187863D01*
X188093Y240143D01*
D02*
G37*
G36*
X167948Y236759D02*
X168409Y236606D01*
X168563Y236452D01*
X168717Y236298D01*
Y236221D01*
X168640Y236144D01*
X168563Y236067D01*
X168256Y235991D01*
X167410Y236298D01*
X166641D01*
X166256Y236144D01*
X165795Y235914D01*
X165718Y235606D01*
X165641Y235298D01*
Y235145D01*
X165718Y235068D01*
X165795Y234991D01*
X166026Y234837D01*
X166333Y234607D01*
X166872Y234376D01*
X167564Y234068D01*
X168563Y233684D01*
X168948Y232992D01*
Y232454D01*
Y232377D01*
Y232223D01*
X168871Y231992D01*
X168717Y231762D01*
X168409Y231454D01*
X168025Y231223D01*
X167487Y230993D01*
X166795Y230916D01*
X166718D01*
X166487Y230993D01*
X166180Y231070D01*
X165872Y231147D01*
X165564Y231223D01*
X165257Y231377D01*
X165026Y231454D01*
X164949Y231608D01*
X165257Y231992D01*
X165334D01*
X165411Y231915D01*
X165872Y231762D01*
X166333Y231531D01*
X166872Y231454D01*
X166948D01*
X167102Y231531D01*
X167640Y231685D01*
X168179Y231992D01*
X168333Y232223D01*
X168409Y232530D01*
X168333Y232684D01*
X168256Y232838D01*
X168102Y232992D01*
X167717Y233223D01*
X167256Y233530D01*
X166564Y233838D01*
X165641Y234222D01*
X165103Y234914D01*
Y235837D01*
Y235914D01*
X165180Y235991D01*
X165488Y236375D01*
X166026Y236683D01*
X166410Y236759D01*
X166795Y236836D01*
X167564D01*
X167948Y236759D01*
D02*
G37*
G36*
X147034Y236529D02*
Y231300D01*
X146803Y231070D01*
X146650D01*
X146496Y231223D01*
X146342Y231377D01*
X146034Y231762D01*
X145496Y232300D01*
X144881Y233146D01*
X144497Y233607D01*
X144112Y234222D01*
X143574Y234837D01*
X143036Y235606D01*
X142959D01*
Y231300D01*
X142651Y231070D01*
X142420Y231300D01*
Y236529D01*
X142651Y236836D01*
X142805D01*
X146496Y232146D01*
Y236529D01*
X146803Y236836D01*
X147034Y236529D01*
D02*
G37*
G36*
X154800Y236683D02*
X154954D01*
Y236606D01*
X154877Y236452D01*
X154800Y236221D01*
X154646Y235914D01*
X154339Y235068D01*
X153954Y234145D01*
X153493Y233146D01*
X153108Y232223D01*
X152724Y231531D01*
X152570Y231223D01*
X152416Y231070D01*
X152262D01*
X152186Y231147D01*
X152032Y231377D01*
X151878Y231762D01*
X151724Y232069D01*
X151494Y232454D01*
X151340Y232915D01*
X151109Y233453D01*
X150802Y234068D01*
X150494Y234837D01*
X150186Y235683D01*
X149802Y236683D01*
X149956Y236836D01*
X150263D01*
X150340Y236759D01*
X150417Y236606D01*
X150648Y236221D01*
X150878Y235606D01*
X151032Y235222D01*
X151263Y234760D01*
X151417Y234145D01*
X151724Y233453D01*
X151955Y232684D01*
X152262Y231838D01*
X152416D01*
Y231915D01*
X152493Y232069D01*
X152570Y232300D01*
X152724Y232607D01*
X153031Y233453D01*
X153339Y234376D01*
X153723Y235222D01*
X154031Y236067D01*
X154185Y236375D01*
X154339Y236606D01*
X154415Y236759D01*
X154492Y236836D01*
X154646D01*
X154800Y236683D01*
D02*
G37*
G36*
X141113Y236529D02*
Y233069D01*
Y232992D01*
Y232761D01*
X140960Y232454D01*
X140806Y232069D01*
X140575Y231685D01*
X140114Y231300D01*
X139576Y231070D01*
X138807Y230916D01*
X138730D01*
X138422Y230993D01*
X138115Y231070D01*
X137653Y231300D01*
X137269Y231608D01*
X136884Y232069D01*
X136577Y232761D01*
X136500Y233684D01*
Y236529D01*
X136731Y236836D01*
X137038Y236529D01*
Y233761D01*
Y233684D01*
Y233376D01*
X137115Y233069D01*
X137269Y232607D01*
X137500Y232223D01*
X137884Y231838D01*
X138345Y231531D01*
X138961Y231454D01*
X139037D01*
X139191Y231531D01*
X139499Y231608D01*
X139806Y231762D01*
X140037Y231992D01*
X140345Y232377D01*
X140498Y232838D01*
X140575Y233376D01*
Y236529D01*
X140883Y236836D01*
X141113Y236529D01*
D02*
G37*
G36*
X184864Y236683D02*
X185786Y236529D01*
X186632Y236221D01*
X187401Y235837D01*
X187632Y235529D01*
X187863Y235222D01*
X188016Y234837D01*
X188093Y234376D01*
Y233684D01*
Y233607D01*
X188016Y233299D01*
X187939Y232838D01*
X187709Y232377D01*
X187324Y231915D01*
X186709Y231454D01*
X185863Y231147D01*
X185402Y231070D01*
X183249D01*
X183019Y231300D01*
Y236529D01*
X183249Y236836D01*
X184172D01*
X184864Y236683D01*
D02*
G37*
G36*
X179943D02*
X180097Y236375D01*
X180327Y235914D01*
X180635Y235145D01*
X180866Y234683D01*
X181096Y234145D01*
X181327Y233530D01*
X181634Y232838D01*
X181942Y232069D01*
X182326Y231147D01*
X182173Y231070D01*
X181865D01*
X181788Y231147D01*
X181711Y231300D01*
X181558Y231531D01*
X181404Y231915D01*
X181173Y232377D01*
X180942Y232992D01*
X178482D01*
Y232915D01*
X178405Y232684D01*
X178328Y232377D01*
X178174Y232069D01*
X178097Y231685D01*
X177944Y231377D01*
X177790Y231147D01*
X177636Y231070D01*
X177482D01*
X177329Y231147D01*
X177252D01*
Y231223D01*
X177329Y231377D01*
X177406Y231608D01*
X177559Y231915D01*
X177867Y232761D01*
X178251Y233761D01*
X178713Y234760D01*
X179097Y235683D01*
X179481Y236452D01*
X179635Y236683D01*
X179712Y236836D01*
X179866D01*
X179943Y236683D01*
D02*
G37*
G36*
X174022Y236759D02*
X174868Y236529D01*
X175637Y236298D01*
X176252Y235914D01*
X176790Y235375D01*
X176867Y234991D01*
X176944Y234607D01*
Y233223D01*
Y233146D01*
X176867Y232915D01*
X176790Y232607D01*
X176483Y232223D01*
X176098Y231838D01*
X175483Y231531D01*
X174637Y231223D01*
X174099Y231147D01*
X173484Y231070D01*
X172254D01*
X172023Y231300D01*
Y236529D01*
X172254Y236836D01*
X173407D01*
X174022Y236759D01*
D02*
G37*
G36*
X170639Y236529D02*
Y231300D01*
X170332Y231070D01*
X170101Y231300D01*
Y236836D01*
X170332D01*
X170639Y236529D01*
D02*
G37*
G36*
X162104Y236759D02*
X162720Y236606D01*
X163258Y236452D01*
X163796Y236144D01*
X164103Y235683D01*
X164257Y235145D01*
Y235068D01*
Y234914D01*
X164027Y234376D01*
X163642Y233761D01*
X163411Y233607D01*
X163027Y233530D01*
Y233223D01*
X164411Y231147D01*
X164257Y231070D01*
X164027D01*
X162104Y233376D01*
X160874D01*
Y231300D01*
X160567Y231070D01*
X160259Y231300D01*
Y236529D01*
X160567Y236836D01*
X161566D01*
X162104Y236759D01*
D02*
G37*
G36*
X159336Y236529D02*
X159029Y236298D01*
X156414D01*
X156184Y235991D01*
Y234222D01*
X158798D01*
X159029Y233914D01*
X158798Y233684D01*
X156184D01*
Y231838D01*
X156414Y231608D01*
X159029D01*
X159336Y231300D01*
X159029Y231070D01*
X155876D01*
X155569Y231300D01*
Y236529D01*
X155876Y236836D01*
X159029D01*
X159336Y236529D01*
D02*
G37*
G36*
X148956D02*
Y231300D01*
X148725Y231070D01*
X148418Y231300D01*
Y236529D01*
X148725Y236836D01*
X148956Y236529D01*
D02*
G37*
G36*
X187939Y228302D02*
X187863Y228148D01*
Y227994D01*
X187709Y228148D01*
X183941D01*
Y225380D01*
X187401D01*
X187709Y225149D01*
Y224995D01*
X187401Y224688D01*
X183941D01*
Y221920D01*
X187863D01*
X188093Y221689D01*
Y221535D01*
X187863Y221228D01*
X183557D01*
X183249Y221535D01*
Y228686D01*
X187939D01*
Y228302D01*
D02*
G37*
G36*
X164411Y228455D02*
Y228378D01*
X164257Y228148D01*
X164180Y227763D01*
X163950Y227302D01*
X163719Y226764D01*
X163488Y226149D01*
X162950Y224841D01*
X162412Y223534D01*
X162181Y222919D01*
X161951Y222381D01*
X161720Y221920D01*
X161566Y221535D01*
X161489Y221305D01*
X161412Y221228D01*
X160951D01*
X160874Y221381D01*
X160720Y221612D01*
X160567Y221843D01*
X160413Y222150D01*
X160259Y222535D01*
X160028Y223073D01*
X159798Y223688D01*
X159490Y224380D01*
X159183Y225226D01*
X158798Y226225D01*
X158414Y227379D01*
X157952Y228686D01*
X158491D01*
X158567Y228532D01*
X158721Y228302D01*
X158952Y227840D01*
X159106Y227456D01*
X159336Y227071D01*
X159490Y226533D01*
X159721Y225918D01*
X160028Y225149D01*
X160336Y224303D01*
X160720Y223304D01*
X161105Y222227D01*
X161259D01*
Y222304D01*
X161336Y222535D01*
X161489Y222842D01*
X161643Y223227D01*
X162028Y224303D01*
X162489Y225457D01*
X162950Y226610D01*
X163335Y227686D01*
X163488Y228071D01*
X163642Y228378D01*
X163796Y228609D01*
X163873Y228686D01*
X164180D01*
X164411Y228455D01*
D02*
G37*
G36*
X178328D02*
Y221920D01*
X182326D01*
Y221535D01*
X182019Y221228D01*
X177790D01*
X177482Y221535D01*
Y228455D01*
X177790Y228686D01*
X178021D01*
X178328Y228455D01*
D02*
G37*
G36*
X172561D02*
Y221920D01*
X176406D01*
X176637Y221689D01*
Y221535D01*
X176406Y221228D01*
X172100D01*
X171869Y221535D01*
Y228455D01*
X172100Y228686D01*
X172254D01*
X172561Y228455D01*
D02*
G37*
G36*
X167794Y228532D02*
X167948Y228225D01*
X168102Y227994D01*
X168256Y227686D01*
X168409Y227302D01*
X168640Y226841D01*
X168871Y226225D01*
X169178Y225534D01*
X169486Y224688D01*
X169870Y223765D01*
X170255Y222612D01*
X170716Y221381D01*
X170639Y221228D01*
X170178D01*
X170101Y221305D01*
X170024Y221381D01*
X169947Y221535D01*
X169793Y221843D01*
X169563Y222304D01*
X169409Y222996D01*
X169101Y223842D01*
X166103D01*
X164795Y221228D01*
X164257D01*
Y221305D01*
X164334Y221458D01*
X164411Y221766D01*
X164488Y222074D01*
X164642Y222381D01*
X164719Y222765D01*
X164949Y223304D01*
X165180Y223842D01*
X165411Y224534D01*
X165718Y225380D01*
X166103Y226302D01*
X166564Y227379D01*
X167025Y228532D01*
X167179Y228686D01*
X167717D01*
X167794Y228532D01*
D02*
G37*
G36*
X151032Y228455D02*
Y221920D01*
X154954D01*
X155184Y221689D01*
Y221535D01*
X154954Y221228D01*
X150494D01*
X150263Y221535D01*
Y228455D01*
X150494Y228686D01*
X150802D01*
X151032Y228455D01*
D02*
G37*
G36*
X148956Y228148D02*
X145265D01*
X145035Y227840D01*
Y225380D01*
X148418D01*
X148725Y225149D01*
Y224995D01*
X148418Y224688D01*
X145035D01*
Y221920D01*
X148879D01*
X149110Y221689D01*
Y221535D01*
X148879Y221228D01*
X144573D01*
X144343Y221535D01*
Y228686D01*
X148956D01*
Y228148D01*
D02*
G37*
G36*
X139960Y228609D02*
X140498Y228455D01*
X141190Y228148D01*
X141882Y227763D01*
X142497Y227225D01*
X142882Y226456D01*
X142959Y225995D01*
X143036Y225534D01*
Y224995D01*
Y224918D01*
Y224841D01*
X142959Y224380D01*
X142728Y223842D01*
X142420Y223150D01*
X141728Y222458D01*
X141344Y222074D01*
X140806Y221843D01*
X140268Y221612D01*
X139499Y221381D01*
X138730Y221305D01*
X137807Y221228D01*
X136731D01*
X136500Y221535D01*
Y228455D01*
X136731Y228686D01*
X139499D01*
X139960Y228609D01*
D02*
G37*
G36*
X150802Y218921D02*
X151109Y218767D01*
X151263Y218690D01*
X151340Y218536D01*
X151032Y218229D01*
X150878Y218306D01*
X150571Y218460D01*
X150186Y218536D01*
X149648Y218613D01*
X149571D01*
X149341Y218536D01*
X149033Y218460D01*
X148649Y218229D01*
X148264Y217998D01*
X147957Y217691D01*
X147726Y217229D01*
X147649Y216691D01*
Y216614D01*
Y216384D01*
X147726Y215999D01*
X147880Y215615D01*
X148110Y215230D01*
X148495Y214846D01*
X148956Y214615D01*
X149571Y214538D01*
X150110D01*
X150802Y214615D01*
Y216153D01*
X150110D01*
X149802Y216460D01*
X150110Y216691D01*
X151032D01*
X151340Y216460D01*
Y214538D01*
Y214461D01*
X151263Y214385D01*
X151109Y214308D01*
X150955Y214231D01*
X150648Y214154D01*
X150186Y214077D01*
X149648Y214000D01*
X149571D01*
X149264Y214077D01*
X148879Y214154D01*
X148418Y214385D01*
X147957Y214615D01*
X147572Y215000D01*
X147265Y215538D01*
X147188Y216153D01*
Y216845D01*
Y216922D01*
X147265Y217229D01*
X147418Y217537D01*
X147572Y217998D01*
X147880Y218383D01*
X148264Y218767D01*
X148802Y218998D01*
X149417Y219075D01*
X150417D01*
X150802Y218921D01*
D02*
G37*
G36*
X174637Y218767D02*
Y214077D01*
X174484D01*
X174176Y214385D01*
Y217845D01*
X174022D01*
Y217768D01*
X173945Y217691D01*
X173792Y217229D01*
X173561Y216691D01*
X173253Y215999D01*
X172946Y215307D01*
X172561Y214692D01*
X172331Y214231D01*
X172177Y214154D01*
X172100Y214077D01*
X172023D01*
X171946Y214231D01*
X171792Y214385D01*
X171562Y214692D01*
X171331Y215153D01*
X171024Y215845D01*
X170639Y216691D01*
X170178Y217845D01*
X170101D01*
Y214385D01*
X169793Y214077D01*
X169486Y214385D01*
Y218767D01*
X169793Y219075D01*
X169947D01*
X170024Y218998D01*
X170178Y218844D01*
X170332Y218536D01*
X170562Y218075D01*
X170947Y217306D01*
X171177Y216845D01*
X171408Y216307D01*
X171716Y215692D01*
X172023Y214923D01*
X174176Y219075D01*
X174330D01*
X174637Y218767D01*
D02*
G37*
G36*
X156261Y218921D02*
Y215615D01*
Y215538D01*
Y215384D01*
X156184Y215153D01*
X156030Y214846D01*
X155799Y214615D01*
X155415Y214308D01*
X154954Y214154D01*
X154262Y214000D01*
X153954D01*
X153647Y214077D01*
X153262Y214231D01*
X152878Y214461D01*
X152570Y214846D01*
X152339Y215307D01*
X152262Y215922D01*
Y218767D01*
X152570Y219075D01*
X152724Y218921D01*
Y217383D01*
Y217229D01*
Y216922D01*
X152801Y216460D01*
X152878Y215999D01*
X153031Y215461D01*
X153339Y215000D01*
X153647Y214692D01*
X154108Y214538D01*
X154569D01*
X154800Y214692D01*
X155107Y214846D01*
X155415Y215076D01*
X155646Y215461D01*
X155799Y215999D01*
X155876Y216691D01*
Y218767D01*
X156184Y219075D01*
X156261Y218921D01*
D02*
G37*
G36*
X186094Y218998D02*
X186248Y218767D01*
X186402Y218383D01*
X186632Y217845D01*
X186863Y217460D01*
X187017Y216999D01*
X187247Y216384D01*
X187478Y215769D01*
X187786Y215076D01*
X188093Y214231D01*
X187939Y214077D01*
X187786D01*
X187709Y214154D01*
X187632Y214308D01*
X187478Y214461D01*
X187324Y214769D01*
X187171Y215230D01*
X187017Y215769D01*
X185018D01*
X184941Y215692D01*
X184864Y215538D01*
X184787Y215384D01*
X184633Y215076D01*
X184479Y214615D01*
X184249Y214077D01*
X183864D01*
Y214231D01*
Y214308D01*
X183941Y214461D01*
X184018Y214692D01*
X184095Y215000D01*
X184403Y215769D01*
X184710Y216691D01*
X185094Y217537D01*
X185402Y218306D01*
X185556Y218613D01*
X185633Y218844D01*
X185786Y218998D01*
X185863Y219075D01*
X186017D01*
X186094Y218998D01*
D02*
G37*
G36*
X180789Y218921D02*
Y214538D01*
X183249D01*
X183557Y214231D01*
X183403Y214077D01*
X180635D01*
X180404Y214385D01*
Y218767D01*
X180635Y219075D01*
X180789Y218921D01*
D02*
G37*
G36*
X177713Y218998D02*
X177790Y218767D01*
X178021Y218460D01*
X178251Y217845D01*
X178405Y217460D01*
X178636Y216999D01*
X178866Y216460D01*
X179097Y215845D01*
X179405Y215076D01*
X179712Y214231D01*
X179558Y214077D01*
X179328D01*
X179251Y214154D01*
X179174Y214308D01*
X179020Y214461D01*
X178943Y214769D01*
X178789Y215230D01*
X178636Y215769D01*
X176406D01*
Y215692D01*
X176329Y215538D01*
X176252Y215230D01*
X176175Y214923D01*
X176022Y214615D01*
X175868Y214308D01*
X175714Y214154D01*
X175560Y214077D01*
X175406Y214231D01*
X175329D01*
Y214308D01*
X175406Y214461D01*
X175483Y214692D01*
X175637Y214923D01*
X175945Y215692D01*
X176329Y216537D01*
X176637Y217460D01*
X177021Y218229D01*
X177329Y218767D01*
X177406Y218998D01*
X177482Y219075D01*
X177636D01*
X177713Y218998D01*
D02*
G37*
G36*
X168717Y218767D02*
X168409Y218536D01*
X166103D01*
Y216845D01*
X168256D01*
X168563Y216614D01*
X168256Y216307D01*
X166103D01*
Y214538D01*
X168563D01*
X168794Y214231D01*
X168717Y214077D01*
X165795D01*
X165488Y214385D01*
Y218767D01*
X165795Y219075D01*
X168409D01*
X168717Y218767D01*
D02*
G37*
G36*
X165103D02*
X164795Y218536D01*
X163181D01*
Y214385D01*
X162873Y214077D01*
X162643Y214385D01*
Y218536D01*
X160951D01*
X160720Y218767D01*
X160951Y219075D01*
X164795D01*
X165103Y218767D01*
D02*
G37*
G36*
X159106Y218998D02*
X159259Y218767D01*
X159490Y218460D01*
X159721Y217845D01*
X159875Y217383D01*
X160105Y216922D01*
X160336Y216384D01*
X160567Y215692D01*
X160797Y214923D01*
X161105Y214077D01*
X160797D01*
X160720Y214154D01*
X160643Y214308D01*
X160567Y214461D01*
X160413Y214769D01*
X160259Y215230D01*
X160028Y215769D01*
X158029D01*
X157952Y215615D01*
X157799Y215384D01*
X157722Y215076D01*
X157645Y214769D01*
X157106Y214077D01*
X156876Y214385D01*
Y214461D01*
X156953Y214538D01*
X157183Y215076D01*
X157414Y215769D01*
X157799Y216614D01*
X158106Y217460D01*
X158414Y218152D01*
X158721Y218767D01*
X158798Y218998D01*
X158875Y219075D01*
X159029D01*
X159106Y218998D01*
D02*
G37*
G36*
X144727Y218767D02*
Y218536D01*
X142113D01*
Y216845D01*
X144343D01*
X144573Y216614D01*
X144343Y216307D01*
X142113D01*
Y214538D01*
X144573D01*
X144881Y214231D01*
X144727Y214077D01*
X141728D01*
Y218767D01*
X141959Y219075D01*
X144420D01*
X144727Y218767D01*
D02*
G37*
G36*
X138807Y218921D02*
X139345Y218767D01*
X139883Y218460D01*
X140421Y217998D01*
X140729Y217306D01*
X140883Y216460D01*
Y216384D01*
Y216153D01*
X140729Y215769D01*
X140575Y215384D01*
X140268Y215000D01*
X139883Y214615D01*
X139268Y214308D01*
X138422Y214077D01*
X136731D01*
X136500Y214385D01*
Y218767D01*
X136731Y219075D01*
X138268D01*
X138807Y218921D01*
D02*
G37*
%LPC*%
G36*
X184403Y236298D02*
X183711D01*
Y231608D01*
X185171D01*
X185479Y231685D01*
X185863Y231762D01*
X186325Y231915D01*
X186786Y232223D01*
X187171Y232684D01*
X187478Y233376D01*
X187555Y234222D01*
Y234299D01*
X187478Y234530D01*
X187401Y234914D01*
X187171Y235298D01*
X186786Y235606D01*
X186248Y235991D01*
X185479Y236221D01*
X184403Y236298D01*
D02*
G37*
G36*
X179866Y235991D02*
X179712D01*
X178713Y233530D01*
X180635D01*
Y233684D01*
X179866Y235991D01*
D02*
G37*
G36*
X173253Y236298D02*
X172561D01*
Y231608D01*
X174099D01*
X174484Y231762D01*
X175022Y231915D01*
X175560Y232146D01*
X175945Y232530D01*
X176252Y233069D01*
X176406Y233761D01*
Y234376D01*
Y234453D01*
X176329Y234683D01*
X176252Y234991D01*
X176022Y235375D01*
X175637Y235683D01*
X175099Y235991D01*
X174330Y236221D01*
X173253Y236298D01*
D02*
G37*
G36*
X161643D02*
X160874D01*
Y233761D01*
X161643D01*
X162028Y233838D01*
X162489Y233914D01*
X162950Y234068D01*
X163335Y234376D01*
X163642Y234683D01*
X163719Y235145D01*
Y235222D01*
Y235298D01*
X163642Y235529D01*
X163488Y235760D01*
X163181Y235914D01*
X162873Y236144D01*
X162335Y236221D01*
X161643Y236298D01*
D02*
G37*
G36*
X167564Y227840D02*
X167410D01*
X166180Y224534D01*
X168717D01*
Y224688D01*
X167564Y227840D01*
D02*
G37*
G36*
X138576Y228148D02*
X137423D01*
X137115Y227840D01*
Y222227D01*
X137423Y221920D01*
X138268D01*
X138807Y221997D01*
X139499Y222074D01*
X140268Y222304D01*
X141036Y222689D01*
X141728Y223304D01*
X142267Y224073D01*
X142344Y224611D01*
X142420Y225149D01*
Y225303D01*
X142344Y225610D01*
X142190Y226072D01*
X141805Y226687D01*
X141267Y227225D01*
X140883Y227456D01*
X140421Y227686D01*
X139883Y227840D01*
X139268Y227994D01*
X138576Y228148D01*
D02*
G37*
G36*
X186017Y218229D02*
X185786D01*
X185094Y216153D01*
X186709D01*
X186017Y218229D01*
D02*
G37*
G36*
X177636D02*
X177329D01*
X176637Y216153D01*
X176944D01*
X177482Y216307D01*
X178021Y216153D01*
X178328D01*
X177636Y218229D01*
D02*
G37*
G36*
X159029Y218383D02*
X158875D01*
X158183Y216153D01*
X159721D01*
Y216307D01*
X159029Y218383D01*
D02*
G37*
G36*
X138422Y218536D02*
X137038D01*
Y214538D01*
X137884D01*
X138345Y214615D01*
X138884Y214769D01*
X139422Y215076D01*
X139883Y215384D01*
X140191Y215922D01*
X140345Y216614D01*
Y216691D01*
Y216922D01*
X140268Y217229D01*
X140114Y217614D01*
X139883Y217921D01*
X139499Y218229D01*
X139037Y218460D01*
X138422Y218536D01*
D02*
G37*
%LPD*%
D10*
X93557Y137368D02*
G03*
X93557Y137368I-1181J0D01*
G01*
D11*
X84600Y142880D02*
G03*
X84600Y142880I-492J0D01*
G01*
D12*
X28035Y305968D02*
G03*
X28035Y305968I-197J0D01*
G01*
X272795Y322654D02*
G03*
X272795Y322654I-197J0D01*
G01*
X259795Y231445D02*
G03*
X259795Y231445I-197J0D01*
G01*
X54295Y250201D02*
G03*
X54295Y250201I-197J0D01*
G01*
D13*
X-11417Y300984D02*
G03*
X-11417Y300984I-7480J0D01*
G01*
Y129724D02*
G03*
X-11417Y129724I-7480J0D01*
G01*
X349213D02*
G03*
X349213Y129724I-7480J0D01*
G01*
Y300984D02*
G03*
X349213Y300984I-7480J0D01*
G01*
X88439Y110203D02*
X103006D01*
X88439Y141305D02*
X103006D01*
X88439Y110203D02*
Y141305D01*
X103006Y110203D02*
Y141305D01*
X48169Y123185D02*
Y123972D01*
X61555D01*
Y123185D02*
Y123972D01*
X48169Y116886D02*
Y123185D01*
Y116886D02*
X61555D01*
Y123185D01*
X61500Y107386D02*
Y113685D01*
X48114Y107386D02*
X61500D01*
X48114D02*
Y113685D01*
X61500D02*
Y114472D01*
X48114D02*
X61500D01*
X48114Y113685D02*
Y114472D01*
X139622Y99886D02*
Y100673D01*
X126236Y99886D02*
X139622D01*
X126236D02*
Y100673D01*
X139622D02*
Y106972D01*
X126236D02*
X139622D01*
X126236Y100673D02*
Y106972D01*
Y90673D02*
Y96972D01*
X139622D01*
Y90673D02*
Y96972D01*
X126236Y89886D02*
Y90673D01*
Y89886D02*
X139622D01*
Y90673D01*
X64307Y155260D02*
Y156047D01*
X77693D01*
Y155260D02*
Y156047D01*
X64307Y148961D02*
Y155260D01*
Y148961D02*
X77693D01*
Y155260D01*
X48780Y134681D02*
Y140980D01*
X62165D01*
Y134681D02*
Y140980D01*
X48780Y133894D02*
Y134681D01*
Y133894D02*
X62165D01*
Y134681D01*
X61439Y156057D02*
X62226D01*
Y142671D02*
Y156057D01*
X61439Y142671D02*
X62226D01*
X55140Y156057D02*
X61439D01*
X55140Y142671D02*
Y156057D01*
Y142671D02*
X61439D01*
X132179Y139561D02*
X138478D01*
X132179D02*
Y152947D01*
X138478D01*
Y139561D02*
X139266D01*
Y152947D01*
X138478D02*
X139266D01*
X129478D02*
X130266D01*
Y139561D02*
Y152947D01*
X129478Y139561D02*
X130266D01*
X123179Y152947D02*
X129478D01*
X123179Y139561D02*
Y152947D01*
Y139561D02*
X129478D01*
X141457Y122059D02*
X147756D01*
X141457D02*
Y135445D01*
X147756D01*
Y122059D02*
X148543D01*
Y135445D01*
X147756D02*
X148543D01*
X147711Y152949D02*
X148498D01*
Y139563D02*
Y152949D01*
X147711Y139563D02*
X148498D01*
X141411Y152949D02*
X147711D01*
X141411Y139563D02*
Y152949D01*
Y139563D02*
X147711D01*
X11193Y184457D02*
Y190756D01*
X-2193Y184457D02*
X11193D01*
X-2193D02*
Y190756D01*
X11193D02*
Y191543D01*
X-2193D02*
X11193D01*
X-2193Y190756D02*
Y191543D01*
X11193Y175457D02*
Y176244D01*
X-2193Y175457D02*
X11193D01*
X-2193D02*
Y176244D01*
X11193D02*
Y182543D01*
X-2193D02*
X11193D01*
X-2193Y176244D02*
Y182543D01*
X302744Y282193D02*
X309043D01*
Y268807D02*
Y282193D01*
X302744Y268807D02*
X309043D01*
X301957Y282193D02*
X302744D01*
X301957Y268807D02*
Y282193D01*
Y268807D02*
X302744D01*
X301957Y284159D02*
X302744D01*
X301957D02*
Y297545D01*
X302744D01*
Y284159D02*
X309043D01*
Y297545D01*
X302744D02*
X309043D01*
X315929Y189748D02*
X322228D01*
Y176362D02*
Y189748D01*
X315929Y176362D02*
X322228D01*
X315142Y189748D02*
X315929D01*
X315142Y176362D02*
Y189748D01*
Y176362D02*
X315929D01*
X315142Y191862D02*
X315929D01*
X315142D02*
Y205248D01*
X315929D01*
Y191862D02*
X322228D01*
Y205248D01*
X315929D02*
X322228D01*
X4744Y273902D02*
X11043D01*
Y260516D02*
Y273902D01*
X4744Y260516D02*
X11043D01*
X3957Y273902D02*
X4744D01*
X3957Y260516D02*
Y273902D01*
Y260516D02*
X4744D01*
X3957Y275516D02*
X4744D01*
X3957D02*
Y288902D01*
X4744D01*
Y275516D02*
X11043D01*
Y288902D01*
X4744D02*
X11043D01*
X97726Y155711D02*
X110719D01*
X97726D02*
Y162797D01*
X110719D01*
Y155711D02*
Y162797D01*
Y146211D02*
Y153297D01*
X97726D02*
X110719D01*
X97726Y146211D02*
Y153297D01*
Y146211D02*
X110719D01*
X19614Y325134D02*
X32606D01*
X19614D02*
Y332221D01*
X32606D01*
Y325134D02*
Y332221D01*
X48106Y325134D02*
Y332221D01*
X35114D02*
X48106D01*
X35114Y325134D02*
Y332221D01*
Y325134D02*
X48106D01*
X19465Y289665D02*
X32457D01*
X19465D02*
Y296752D01*
X32457D01*
Y289665D02*
Y296752D01*
X292764Y319433D02*
X299850D01*
Y332425D01*
X292764D02*
X299850D01*
X292764Y319433D02*
Y332425D01*
Y303783D02*
Y316776D01*
X299850D01*
Y303783D02*
Y316776D01*
X292764Y303783D02*
X299850D01*
X256764Y318433D02*
X263850D01*
Y331425D01*
X256764D02*
X263850D01*
X256764Y318433D02*
Y331425D01*
X279764Y228209D02*
Y241201D01*
X286850D01*
Y228209D02*
Y241201D01*
X279764Y228209D02*
X286850D01*
X279764Y212709D02*
X286850D01*
Y225701D01*
X279764D02*
X286850D01*
X279764Y212709D02*
Y225701D01*
X244041Y227209D02*
Y240201D01*
X251128D01*
Y227209D02*
Y240201D01*
X244041Y227209D02*
X251128D01*
X73264Y245276D02*
X80350D01*
Y258268D01*
X73264D02*
X80350D01*
X73264Y245276D02*
Y258268D01*
X73264Y229933D02*
Y242925D01*
X80350D01*
Y229933D02*
Y242925D01*
X73264Y229933D02*
X80350D01*
X37795Y245433D02*
X44882D01*
Y258425D01*
X37795D02*
X44882D01*
X37795Y245433D02*
Y258425D01*
X36011Y107716D02*
X49678Y70165D01*
X23247Y103070D02*
X36011Y107716D01*
X36915Y65520D02*
X49678Y70165D01*
X34087Y73289D02*
X36915Y65520D01*
X30942Y72144D02*
X34087Y73289D01*
X29495Y76121D02*
X30942Y72144D01*
X24315Y74236D02*
X29495Y76121D01*
X19165Y88387D02*
X24315Y74236D01*
X19165Y88387D02*
X24344Y90272D01*
X22930Y94157D02*
X24344Y90272D01*
X22930Y94157D02*
X26075Y95301D01*
X23247Y103070D02*
X26075Y95301D01*
X270450Y72092D02*
X298707Y100349D01*
X270450Y72092D02*
X280055Y62488D01*
X298707Y100349D02*
X308311Y90745D01*
X302465Y84898D02*
X308311Y90745D01*
X302465Y84898D02*
X304831Y82532D01*
X301839Y79539D02*
X304831Y82532D01*
X301839Y79539D02*
X305736Y75642D01*
X295088Y64994D02*
X305736Y75642D01*
X291190Y68891D02*
X295088Y64994D01*
X288267Y65968D02*
X291190Y68891D01*
X285901Y68334D02*
X288267Y65968D01*
X280055Y62488D02*
X285901Y68334D01*
X190138Y388520D02*
X210807D01*
X190138Y377890D02*
Y388520D01*
Y377890D02*
X210807D01*
Y388520D01*
X211000Y377890D02*
X231669D01*
Y388520D01*
X211000D02*
X231669D01*
X211000Y377890D02*
Y388520D01*
X96000Y377890D02*
X116669D01*
Y388520D01*
X96000D02*
X116669D01*
X96000Y377890D02*
Y388520D01*
X177208Y104569D02*
Y106800D01*
X178323Y107915D01*
X179438Y106800D01*
Y104569D01*
Y106242D01*
X177208D01*
X183898Y107915D02*
X186128D01*
X185013D01*
Y104569D01*
X188916Y107915D02*
X187801D01*
X187244Y107357D01*
Y105127D01*
X187801Y104569D01*
X188916D01*
X189474Y105127D01*
Y107357D01*
X188916Y107915D01*
X190589D02*
Y104569D01*
X192262D01*
X192819Y105127D01*
Y107357D01*
X192262Y107915D01*
X190589D01*
X195607D02*
X194492D01*
X193934Y107357D01*
Y105127D01*
X194492Y104569D01*
X195607D01*
X196165Y105127D01*
Y107357D01*
X195607Y107915D01*
X199510Y107357D02*
X198952Y107915D01*
X197837D01*
X197280Y107357D01*
Y106800D01*
X197837Y106242D01*
X198952D01*
X199510Y105685D01*
Y105127D01*
X198952Y104569D01*
X197837D01*
X197280Y105127D01*
X203971Y107915D02*
Y104569D01*
X206201D01*
X208989Y107915D02*
X207874D01*
X207316Y107357D01*
Y105127D01*
X207874Y104569D01*
X208989D01*
X209546Y105127D01*
Y107357D01*
X208989Y107915D01*
X212892Y107357D02*
X212334Y107915D01*
X211219D01*
X210661Y107357D01*
Y106800D01*
X211219Y106242D01*
X212334D01*
X212892Y105685D01*
Y105127D01*
X212334Y104569D01*
X211219D01*
X210661Y105127D01*
X217352Y104569D02*
Y107915D01*
X218467Y106800D01*
X219582Y107915D01*
Y104569D01*
X220697Y107915D02*
X221813D01*
X221255D01*
Y104569D01*
X220697D01*
X221813D01*
X225715Y107915D02*
X223485D01*
Y104569D01*
X225715D01*
X223485Y106242D02*
X224600D01*
X226831Y104569D02*
Y107915D01*
X227946Y106800D01*
X229061Y107915D01*
Y104569D01*
X230176Y107915D02*
Y104569D01*
X231849D01*
X232406Y105127D01*
Y105685D01*
X231849Y106242D01*
X230176D01*
X231849D01*
X232406Y106800D01*
Y107357D01*
X231849Y107915D01*
X230176D01*
X233521Y104569D02*
Y107915D01*
X235194D01*
X235752Y107357D01*
Y106242D01*
X235194Y105685D01*
X233521D01*
X234637D02*
X235752Y104569D01*
X238540Y107915D02*
X237424D01*
X236867Y107357D01*
Y105127D01*
X237424Y104569D01*
X238540D01*
X239097Y105127D01*
Y107357D01*
X238540Y107915D01*
X242442Y107357D02*
X241885Y107915D01*
X240770D01*
X240212Y107357D01*
Y106800D01*
X240770Y106242D01*
X241885D01*
X242442Y105685D01*
Y105127D01*
X241885Y104569D01*
X240770D01*
X240212Y105127D01*
X246903Y107915D02*
Y104569D01*
X248576D01*
X249133Y105127D01*
Y107357D01*
X248576Y107915D01*
X246903D01*
X252479D02*
X250248D01*
Y104569D01*
X252479D01*
X250248Y106242D02*
X251363D01*
X256939Y107915D02*
Y104569D01*
X259169D01*
X260284D02*
Y106800D01*
X261400Y107915D01*
X262515Y106800D01*
Y104569D01*
Y106242D01*
X260284D01*
X269205Y107357D02*
X268648Y107915D01*
X267533D01*
X266975Y107357D01*
Y105127D01*
X267533Y104569D01*
X268648D01*
X269205Y105127D01*
X271993Y107915D02*
X270878D01*
X270321Y107357D01*
Y105127D01*
X270878Y104569D01*
X271993D01*
X272551Y105127D01*
Y107357D01*
X271993Y107915D01*
X273666Y104569D02*
Y107915D01*
X274781Y106800D01*
X275896Y107915D01*
Y104569D01*
X277011Y107915D02*
Y105127D01*
X277569Y104569D01*
X278684D01*
X279242Y105127D01*
Y107915D01*
X280357Y104569D02*
Y107915D01*
X282587Y104569D01*
Y107915D01*
X283702D02*
X284817D01*
X284260D01*
Y104569D01*
X283702D01*
X284817D01*
X286490Y107915D02*
Y104569D01*
X288163D01*
X288720Y105127D01*
Y107357D01*
X288163Y107915D01*
X286490D01*
X289835Y104569D02*
Y106800D01*
X290950Y107915D01*
X292066Y106800D01*
Y104569D01*
Y106242D01*
X289835D01*
X293181Y107915D02*
Y104569D01*
X294853D01*
X295411Y105127D01*
Y107357D01*
X294853Y107915D01*
X293181D01*
X299871D02*
Y105127D01*
X300429Y104569D01*
X301544D01*
X302102Y105127D01*
Y107915D01*
X303217D02*
Y105685D01*
X304332Y104569D01*
X305447Y105685D01*
Y107915D01*
X308792Y107357D02*
X308235Y107915D01*
X307120D01*
X306562Y107357D01*
Y105127D01*
X307120Y104569D01*
X308235D01*
X308792Y105127D01*
Y106242D01*
X307677D01*
X235752Y187919D02*
Y185787D01*
X236178Y185360D01*
X237031D01*
X237457Y185787D01*
Y187919D01*
X238310Y185360D02*
Y187919D01*
X240015Y185360D01*
Y187919D01*
X242147D02*
X241295D01*
X240868Y187492D01*
Y185787D01*
X241295Y185360D01*
X242147D01*
X242574Y185787D01*
Y187492D01*
X242147Y187919D01*
X244706D02*
X243853D01*
X243426Y187492D01*
Y185787D01*
X243853Y185360D01*
X244706D01*
X245132Y185787D01*
Y187492D01*
X244706Y187919D01*
X247690Y187492D02*
X247264Y187919D01*
X246411D01*
X245985Y187492D01*
Y187066D01*
X246411Y186640D01*
X247264D01*
X247690Y186213D01*
Y185787D01*
X247264Y185360D01*
X246411D01*
X245985Y185787D01*
X248543Y185360D02*
Y187066D01*
X249396Y187919D01*
X250248Y187066D01*
Y185360D01*
Y186640D01*
X248543D01*
X240015Y183431D02*
X239163D01*
X239589D01*
Y181300D01*
X239163Y180873D01*
X238736D01*
X238310Y181300D01*
X240868Y180873D02*
Y182579D01*
X241721Y183431D01*
X242574Y182579D01*
Y180873D01*
Y182152D01*
X240868D01*
X243426Y183431D02*
X245132Y180873D01*
Y183431D02*
X243426Y180873D01*
X245985D02*
Y182579D01*
X246837Y183431D01*
X247690Y182579D01*
Y180873D01*
Y182152D01*
X245985D01*
X224240Y178944D02*
Y176813D01*
X224666Y176386D01*
X225519D01*
X225945Y176813D01*
Y178944D01*
X226798D02*
Y176386D01*
Y177239D01*
X228503Y178944D01*
X227224Y177665D01*
X228503Y176386D01*
X233620Y178518D02*
X233193Y178944D01*
X232341D01*
X231914Y178518D01*
Y178092D01*
X232341Y177665D01*
X233193D01*
X233620Y177239D01*
Y176813D01*
X233193Y176386D01*
X232341D01*
X231914Y176813D01*
X234473Y176386D02*
Y178944D01*
X235752D01*
X236178Y178518D01*
Y177665D01*
X235752Y177239D01*
X234473D01*
X237031Y176386D02*
Y178092D01*
X237883Y178944D01*
X238736Y178092D01*
Y176386D01*
Y177665D01*
X237031D01*
X241295Y178518D02*
X240868Y178944D01*
X240015D01*
X239589Y178518D01*
Y176813D01*
X240015Y176386D01*
X240868D01*
X241295Y176813D01*
X243853Y178944D02*
X242147D01*
Y176386D01*
X243853D01*
X242147Y177665D02*
X243000D01*
X247264Y176386D02*
Y178092D01*
X248116Y178944D01*
X248969Y178092D01*
Y176386D01*
Y177665D01*
X247264D01*
X251527Y178518D02*
X251101Y178944D01*
X250248D01*
X249822Y178518D01*
Y176813D01*
X250248Y176386D01*
X251101D01*
X251527Y176813D01*
Y177665D01*
X250675D01*
X254086Y178944D02*
X252380D01*
Y176386D01*
X254086D01*
X252380Y177665D02*
X253233D01*
X254938Y176386D02*
Y178944D01*
X256644Y176386D01*
Y178944D01*
X259202Y178518D02*
X258776Y178944D01*
X257923D01*
X257497Y178518D01*
Y176813D01*
X257923Y176386D01*
X258776D01*
X259202Y176813D01*
X260055Y178944D02*
Y178518D01*
X260908Y177665D01*
X261760Y178518D01*
Y178944D01*
X260908Y177665D02*
Y176386D01*
X233193Y171899D02*
Y173604D01*
X234046Y174457D01*
X234899Y173604D01*
Y171899D01*
Y173178D01*
X233193D01*
X237457Y174031D02*
X237031Y174457D01*
X236178D01*
X235752Y174031D01*
Y173604D01*
X236178Y173178D01*
X237031D01*
X237457Y172752D01*
Y172325D01*
X237031Y171899D01*
X236178D01*
X235752Y172325D01*
X238310Y174457D02*
X240015D01*
X239163D01*
Y171899D01*
X240868D02*
Y174457D01*
X242147D01*
X242574Y174031D01*
Y173178D01*
X242147Y172752D01*
X240868D01*
X241721D02*
X242574Y171899D01*
X244706Y174457D02*
X243853D01*
X243426Y174031D01*
Y172325D01*
X243853Y171899D01*
X244706D01*
X245132Y172325D01*
Y174031D01*
X244706Y174457D01*
X247690Y174031D02*
X247264Y174457D01*
X246411D01*
X245985Y174031D01*
Y173604D01*
X246411Y173178D01*
X247264D01*
X247690Y172752D01*
Y172325D01*
X247264Y171899D01*
X246411D01*
X245985Y172325D01*
X248543Y171899D02*
Y173604D01*
X249396Y174457D01*
X250248Y173604D01*
Y171899D01*
Y173178D01*
X248543D01*
X251101Y174457D02*
X252807D01*
X251954D01*
Y171899D01*
X215499Y169544D02*
X215073Y169970D01*
X214220D01*
X213793Y169544D01*
Y169117D01*
X214220Y168691D01*
X215073D01*
X215499Y168264D01*
Y167838D01*
X215073Y167412D01*
X214220D01*
X213793Y167838D01*
X218057Y169970D02*
X216352D01*
Y167412D01*
X218057D01*
X216352Y168691D02*
X217204D01*
X220616Y169544D02*
X220189Y169970D01*
X219336D01*
X218910Y169544D01*
Y167838D01*
X219336Y167412D01*
X220189D01*
X220616Y167838D01*
Y168691D01*
X219763D01*
X221468Y169970D02*
Y167838D01*
X221895Y167412D01*
X222747D01*
X223174Y167838D01*
Y169970D01*
X224026Y167412D02*
Y169970D01*
X225306D01*
X225732Y169544D01*
Y168691D01*
X225306Y168264D01*
X224026D01*
X224879D02*
X225732Y167412D01*
X227864Y169970D02*
X227011D01*
X226585Y169544D01*
Y167838D01*
X227011Y167412D01*
X227864D01*
X228290Y167838D01*
Y169544D01*
X227864Y169970D01*
X230848Y169544D02*
X230422Y169970D01*
X229569D01*
X229143Y169544D01*
Y169117D01*
X229569Y168691D01*
X230422D01*
X230848Y168264D01*
Y167838D01*
X230422Y167412D01*
X229569D01*
X229143Y167838D01*
X234259Y169970D02*
Y167838D01*
X234686Y167412D01*
X235539D01*
X235965Y167838D01*
Y169970D01*
X236818Y167412D02*
Y169970D01*
X238523Y167412D01*
Y169970D01*
X239376D02*
X240229D01*
X239802D01*
Y167412D01*
X239376D01*
X240229D01*
X241508Y169970D02*
Y168264D01*
X242360Y167412D01*
X243213Y168264D01*
Y169970D01*
X245771D02*
X244066D01*
Y167412D01*
X245771D01*
X244066Y168691D02*
X244919D01*
X246624Y167412D02*
Y169970D01*
X247903D01*
X248330Y169544D01*
Y168691D01*
X247903Y168264D01*
X246624D01*
X247477D02*
X248330Y167412D01*
X250888Y169544D02*
X250462Y169970D01*
X249609D01*
X249182Y169544D01*
Y169117D01*
X249609Y168691D01*
X250462D01*
X250888Y168264D01*
Y167838D01*
X250462Y167412D01*
X249609D01*
X249182Y167838D01*
X251741Y167412D02*
Y169117D01*
X252593Y169970D01*
X253446Y169117D01*
Y167412D01*
Y168691D01*
X251741D01*
X254299Y169970D02*
Y167412D01*
X256004D01*
X258563Y169970D02*
X256857D01*
Y167412D01*
X258563D01*
X256857Y168691D02*
X257710D01*
X261121Y169544D02*
X260694Y169970D01*
X259842D01*
X259415Y169544D01*
Y169117D01*
X259842Y168691D01*
X260694D01*
X261121Y168264D01*
Y167838D01*
X260694Y167412D01*
X259842D01*
X259415Y167838D01*
X266237Y169544D02*
X265811Y169970D01*
X264958D01*
X264532Y169544D01*
Y169117D01*
X264958Y168691D01*
X265811D01*
X266237Y168264D01*
Y167838D01*
X265811Y167412D01*
X264958D01*
X264532Y167838D01*
X267090Y167412D02*
Y167838D01*
X267516D01*
Y167412D01*
X267090D01*
X269222D02*
Y169117D01*
X270075Y169970D01*
X270927Y169117D01*
Y167412D01*
Y168691D01*
X269222D01*
X271780Y167412D02*
Y167838D01*
X272206D01*
Y167412D01*
X271780D01*
X187998Y165483D02*
X188851D01*
X188424D01*
Y162925D01*
X187998D01*
X188851D01*
X190130D02*
Y165483D01*
X191835Y162925D01*
Y165483D01*
X192688D02*
X194394D01*
X193541D01*
Y162925D01*
X196952Y165483D02*
X195246D01*
Y162925D01*
X196952D01*
X195246Y164204D02*
X196099D01*
X197805Y162925D02*
Y165483D01*
X199084D01*
X199510Y165057D01*
Y164204D01*
X199084Y163777D01*
X197805D01*
X198657D02*
X199510Y162925D01*
X200363D02*
Y165483D01*
X202068Y162925D01*
Y165483D01*
X202921Y162925D02*
Y164630D01*
X203774Y165483D01*
X204626Y164630D01*
Y162925D01*
Y164204D01*
X202921D01*
X205479Y165483D02*
X207185D01*
X206332D01*
Y162925D01*
X208037Y165483D02*
X208890D01*
X208464D01*
Y162925D01*
X208037D01*
X208890D01*
X211449Y165483D02*
X210596D01*
X210169Y165057D01*
Y163351D01*
X210596Y162925D01*
X211449D01*
X211875Y163351D01*
Y165057D01*
X211449Y165483D01*
X212728Y162925D02*
Y165483D01*
X214433Y162925D01*
Y165483D01*
X215286Y162925D02*
Y164630D01*
X216139Y165483D01*
X216991Y164630D01*
Y162925D01*
Y164204D01*
X215286D01*
X217844Y165483D02*
Y162925D01*
X219550D01*
X224666Y165057D02*
X224240Y165483D01*
X223387D01*
X222960Y165057D01*
Y163351D01*
X223387Y162925D01*
X224240D01*
X224666Y163351D01*
X227224Y165483D02*
X225519D01*
Y162925D01*
X227224D01*
X225519Y164204D02*
X226372D01*
X228077Y162925D02*
Y165483D01*
X229783Y162925D01*
Y165483D01*
X230635D02*
X232341D01*
X231488D01*
Y162925D01*
X233193D02*
Y165483D01*
X234473D01*
X234899Y165057D01*
Y164204D01*
X234473Y163777D01*
X233193D01*
X234046D02*
X234899Y162925D01*
X237457Y165483D02*
X235752D01*
Y162925D01*
X237457D01*
X235752Y164204D02*
X236604D01*
X242574Y165483D02*
X240868D01*
Y164204D01*
X241721D01*
X240868D01*
Y162925D01*
X244706Y165483D02*
X243853D01*
X243426Y165057D01*
Y163351D01*
X243853Y162925D01*
X244706D01*
X245132Y163351D01*
Y165057D01*
X244706Y165483D01*
X245985Y162925D02*
Y165483D01*
X247264D01*
X247690Y165057D01*
Y164204D01*
X247264Y163777D01*
X245985D01*
X246837D02*
X247690Y162925D01*
X251101Y165483D02*
X252807D01*
X251954D01*
Y162925D01*
X253659Y165483D02*
Y162925D01*
Y164204D01*
X255365D01*
Y165483D01*
Y162925D01*
X257923Y165483D02*
X256218D01*
Y162925D01*
X257923D01*
X256218Y164204D02*
X257070D01*
X260055Y165483D02*
X259202D01*
X258776Y165057D01*
Y163351D01*
X259202Y162925D01*
X260055D01*
X260481Y163351D01*
Y165057D01*
X260055Y165483D01*
X261334Y162925D02*
Y165483D01*
X262613D01*
X263039Y165057D01*
Y164204D01*
X262613Y163777D01*
X261334D01*
X262187D02*
X263039Y162925D01*
X265598Y165483D02*
X263892D01*
Y162925D01*
X265598D01*
X263892Y164204D02*
X264745D01*
X266450Y165483D02*
X268156D01*
X267303D01*
Y162925D01*
X269009Y165483D02*
X269861D01*
X269435D01*
Y162925D01*
X269009D01*
X269861D01*
X272846Y165057D02*
X272420Y165483D01*
X271567D01*
X271141Y165057D01*
Y163351D01*
X271567Y162925D01*
X272420D01*
X272846Y163351D01*
X273699Y162925D02*
Y164630D01*
X274552Y165483D01*
X275404Y164630D01*
Y162925D01*
Y164204D01*
X273699D01*
X276257Y165483D02*
Y162925D01*
X277962D01*
X281374D02*
Y165483D01*
X282653D01*
X283079Y165057D01*
Y164204D01*
X282653Y163777D01*
X281374D01*
X283932Y165483D02*
Y162925D01*
Y164204D01*
X285637D01*
Y165483D01*
Y162925D01*
X286490Y165483D02*
Y165057D01*
X287343Y164204D01*
X288195Y165057D01*
Y165483D01*
X287343Y164204D02*
Y162925D01*
X290754Y165057D02*
X290327Y165483D01*
X289475D01*
X289048Y165057D01*
Y164630D01*
X289475Y164204D01*
X290327D01*
X290754Y163777D01*
Y163351D01*
X290327Y162925D01*
X289475D01*
X289048Y163351D01*
X291606Y165483D02*
X292459D01*
X292033D01*
Y162925D01*
X291606D01*
X292459D01*
X295444Y165057D02*
X295017Y165483D01*
X294165D01*
X293738Y165057D01*
Y163351D01*
X294165Y162925D01*
X295017D01*
X295444Y163351D01*
X298002Y165057D02*
X297576Y165483D01*
X296723D01*
X296297Y165057D01*
Y164630D01*
X296723Y164204D01*
X297576D01*
X298002Y163777D01*
Y163351D01*
X297576Y162925D01*
X296723D01*
X296297Y163351D01*
X228290Y158437D02*
Y160996D01*
X229569D01*
X229996Y160569D01*
Y159717D01*
X229569Y159290D01*
X228290D01*
X230848Y158437D02*
Y160996D01*
X232127D01*
X232554Y160569D01*
Y159717D01*
X232127Y159290D01*
X230848D01*
X231701D02*
X232554Y158437D01*
X235112Y160996D02*
X233407D01*
Y158437D01*
X235112D01*
X233407Y159717D02*
X234259D01*
X235965Y158437D02*
Y160996D01*
X237670Y158437D01*
Y160996D01*
X240229Y160569D02*
X239802Y160996D01*
X238949D01*
X238523Y160569D01*
Y160143D01*
X238949Y159717D01*
X239802D01*
X240229Y159290D01*
Y158864D01*
X239802Y158437D01*
X238949D01*
X238523Y158864D01*
X241081Y158437D02*
Y160143D01*
X241934Y160996D01*
X242787Y160143D01*
Y158437D01*
Y159717D01*
X241081D01*
X246198Y160996D02*
Y158437D01*
X247903D01*
X248756Y160996D02*
X249609D01*
X249182D01*
Y158437D01*
X248756D01*
X249609D01*
X250888Y160996D02*
Y158437D01*
X252167D01*
X252593Y158864D01*
Y159290D01*
X252167Y159717D01*
X250888D01*
X252167D01*
X252593Y160143D01*
Y160569D01*
X252167Y160996D01*
X250888D01*
X253446Y158437D02*
Y160996D01*
X254725D01*
X255152Y160569D01*
Y159717D01*
X254725Y159290D01*
X253446D01*
X254299D02*
X255152Y158437D01*
X257710Y160996D02*
X256004D01*
Y158437D01*
X257710D01*
X256004Y159717D02*
X256857D01*
X238310Y153950D02*
Y155656D01*
X239163Y156509D01*
X240015Y155656D01*
Y153950D01*
Y155229D01*
X238310D01*
X240868Y156509D02*
Y154377D01*
X241295Y153950D01*
X242147D01*
X242574Y154377D01*
Y156509D01*
X243426D02*
Y153950D01*
X245132D01*
X245985D02*
Y155656D01*
X246837Y156509D01*
X247690Y155656D01*
Y153950D01*
Y155229D01*
X245985D01*
X233620Y151595D02*
X233193Y152021D01*
X232341D01*
X231914Y151595D01*
Y149890D01*
X232341Y149463D01*
X233193D01*
X233620Y149890D01*
Y150742D01*
X232767D01*
X234473Y149463D02*
Y152021D01*
X235752D01*
X236178Y151595D01*
Y150742D01*
X235752Y150316D01*
X234473D01*
X235325D02*
X236178Y149463D01*
X237031Y152021D02*
Y149890D01*
X237457Y149463D01*
X238310D01*
X238736Y149890D01*
Y152021D01*
X239589Y149463D02*
Y152021D01*
X240868D01*
X241295Y151595D01*
Y150742D01*
X240868Y150316D01*
X239589D01*
X243426Y152021D02*
X242574D01*
X242147Y151595D01*
Y149890D01*
X242574Y149463D01*
X243426D01*
X243853Y149890D01*
Y151595D01*
X243426Y152021D01*
X248969Y151595D02*
X248543Y152021D01*
X247690D01*
X247264Y151595D01*
Y151169D01*
X247690Y150742D01*
X248543D01*
X248969Y150316D01*
Y149890D01*
X248543Y149463D01*
X247690D01*
X247264Y149890D01*
X251527Y151595D02*
X251101Y152021D01*
X250248D01*
X249822Y151595D01*
Y151169D01*
X250248Y150742D01*
X251101D01*
X251527Y150316D01*
Y149890D01*
X251101Y149463D01*
X250248D01*
X249822Y149890D01*
X254086Y151595D02*
X253659Y152021D01*
X252807D01*
X252380Y151595D01*
Y149890D01*
X252807Y149463D01*
X253659D01*
X254086Y149890D01*
X237031Y144976D02*
Y146681D01*
X237883Y147534D01*
X238736Y146681D01*
Y144976D01*
Y146255D01*
X237031D01*
X239589Y144976D02*
Y147534D01*
X241295Y144976D01*
Y147534D01*
X243853Y147108D02*
X243426Y147534D01*
X242574D01*
X242147Y147108D01*
Y146681D01*
X242574Y146255D01*
X243426D01*
X243853Y145829D01*
Y145402D01*
X243426Y144976D01*
X242574D01*
X242147Y145402D01*
X244706Y147534D02*
Y147108D01*
X245558Y146255D01*
X246411Y147108D01*
Y147534D01*
X245558Y146255D02*
Y144976D01*
X248969Y147108D02*
X248543Y147534D01*
X247690D01*
X247264Y147108D01*
Y146681D01*
X247690Y146255D01*
X248543D01*
X248969Y145829D01*
Y145402D01*
X248543Y144976D01*
X247690D01*
X247264Y145402D01*
X228717Y142621D02*
X228290Y143047D01*
X227437D01*
X227011Y142621D01*
Y142194D01*
X227437Y141768D01*
X228290D01*
X228717Y141341D01*
Y140915D01*
X228290Y140489D01*
X227437D01*
X227011Y140915D01*
X229569Y143047D02*
X230422D01*
X229996D01*
Y140489D01*
X229569D01*
X230422D01*
X231701Y143047D02*
X233407D01*
X232554D01*
Y140489D01*
X238523Y142621D02*
X238097Y143047D01*
X237244D01*
X236818Y142621D01*
Y140915D01*
X237244Y140489D01*
X238097D01*
X238523Y140915D01*
Y141768D01*
X237670D01*
X239376Y143047D02*
Y140915D01*
X239802Y140489D01*
X240655D01*
X241081Y140915D01*
Y143047D01*
X241934Y140489D02*
Y142194D01*
X242787Y143047D01*
X243640Y142194D01*
Y140489D01*
Y141768D01*
X241934D01*
X244492Y143047D02*
X246198D01*
X245345D01*
Y140489D01*
X248756Y143047D02*
X247050D01*
Y140489D01*
X248756D01*
X247050Y141768D02*
X247903D01*
X249609Y140489D02*
Y143047D01*
X250462Y142194D01*
X251314Y143047D01*
Y140489D01*
X252167D02*
Y142194D01*
X253020Y143047D01*
X253872Y142194D01*
Y140489D01*
Y141768D01*
X252167D01*
X254725Y143047D02*
Y140489D01*
X256431D01*
X257283D02*
Y142194D01*
X258136Y143047D01*
X258989Y142194D01*
Y140489D01*
Y141768D01*
X257283D01*
X227224Y138133D02*
X226798Y138560D01*
X225945D01*
X225519Y138133D01*
Y136428D01*
X225945Y136002D01*
X226798D01*
X227224Y136428D01*
X228077Y136002D02*
Y138560D01*
X229356D01*
X229783Y138133D01*
Y137281D01*
X229356Y136854D01*
X228077D01*
X228930D02*
X229783Y136002D01*
X230635D02*
Y137707D01*
X231488Y138560D01*
X232341Y137707D01*
Y136002D01*
Y137281D01*
X230635D01*
X234899Y138133D02*
X234473Y138560D01*
X233620D01*
X233193Y138133D01*
Y136428D01*
X233620Y136002D01*
X234473D01*
X234899Y136428D01*
Y137281D01*
X234046D01*
X240015Y138133D02*
X239589Y138560D01*
X238736D01*
X238310Y138133D01*
Y136428D01*
X238736Y136002D01*
X239589D01*
X240015Y136428D01*
Y137281D01*
X239163D01*
X240868Y138560D02*
Y136428D01*
X241295Y136002D01*
X242147D01*
X242574Y136428D01*
Y138560D01*
X243426Y136002D02*
Y137707D01*
X244279Y138560D01*
X245132Y137707D01*
Y136002D01*
Y137281D01*
X243426D01*
X245985Y138560D02*
X247690D01*
X246837D01*
Y136002D01*
X250248Y138560D02*
X248543D01*
Y136002D01*
X250248D01*
X248543Y137281D02*
X249396D01*
X251101Y136002D02*
Y138560D01*
X251954Y137707D01*
X252807Y138560D01*
Y136002D01*
X253659D02*
Y137707D01*
X254512Y138560D01*
X255365Y137707D01*
Y136002D01*
Y137281D01*
X253659D01*
X256218Y138560D02*
Y136002D01*
X257923D01*
X258776D02*
Y137707D01*
X259629Y138560D01*
X260481Y137707D01*
Y136002D01*
Y137281D01*
X258776D01*
X225945Y133646D02*
X225519Y134073D01*
X224666D01*
X224240Y133646D01*
Y131941D01*
X224666Y131514D01*
X225519D01*
X225945Y131941D01*
X226798Y134073D02*
Y131514D01*
X228503D01*
X229356D02*
Y133220D01*
X230209Y134073D01*
X231062Y133220D01*
Y131514D01*
Y132793D01*
X229356D01*
X231914Y131514D02*
Y134073D01*
X233193D01*
X233620Y133646D01*
Y132793D01*
X233193Y132367D01*
X231914D01*
X232767D02*
X233620Y131514D01*
X235752Y134073D02*
X234899D01*
X234473Y133646D01*
Y131941D01*
X234899Y131514D01*
X235752D01*
X236178Y131941D01*
Y133646D01*
X235752Y134073D01*
X241295Y133646D02*
X240868Y134073D01*
X240015D01*
X239589Y133646D01*
Y131941D01*
X240015Y131514D01*
X240868D01*
X241295Y131941D01*
Y132793D01*
X240442D01*
X242147Y134073D02*
Y131941D01*
X242574Y131514D01*
X243426D01*
X243853Y131941D01*
Y134073D01*
X244706Y131514D02*
Y133220D01*
X245558Y134073D01*
X246411Y133220D01*
Y131514D01*
Y132793D01*
X244706D01*
X247264Y134073D02*
X248969D01*
X248116D01*
Y131514D01*
X251527Y134073D02*
X249822D01*
Y131514D01*
X251527D01*
X249822Y132793D02*
X250675D01*
X252380Y131514D02*
Y134073D01*
X253233Y133220D01*
X254086Y134073D01*
Y131514D01*
X254938D02*
Y133220D01*
X255791Y134073D01*
X256644Y133220D01*
Y131514D01*
Y132793D01*
X254938D01*
X257497Y134073D02*
Y131514D01*
X259202D01*
X260055D02*
Y133220D01*
X260908Y134073D01*
X261760Y133220D01*
Y131514D01*
Y132793D01*
X260055D01*
X241295Y129159D02*
X240868Y129586D01*
X240015D01*
X239589Y129159D01*
Y128733D01*
X240015Y128306D01*
X240868D01*
X241295Y127880D01*
Y127454D01*
X240868Y127027D01*
X240015D01*
X239589Y127454D01*
X242147Y127027D02*
Y129586D01*
X243426D01*
X243853Y129159D01*
Y128306D01*
X243426Y127880D01*
X242147D01*
X246411Y129159D02*
X245985Y129586D01*
X245132D01*
X244706Y129159D01*
Y127454D01*
X245132Y127027D01*
X245985D01*
X246411Y127454D01*
Y128306D01*
X245558D01*
X233620Y125098D02*
X231914D01*
Y122540D01*
X233620D01*
X231914Y123819D02*
X232767D01*
X234473Y122540D02*
Y125098D01*
X235752D01*
X236178Y124672D01*
Y123819D01*
X235752Y123393D01*
X234473D01*
X235325D02*
X236178Y122540D01*
X237031D02*
Y124246D01*
X237883Y125098D01*
X238736Y124246D01*
Y122540D01*
Y123819D01*
X237031D01*
X241295Y122540D02*
X240868Y122966D01*
X240442Y122540D01*
X240015D01*
X239589Y122966D01*
Y123393D01*
X240015Y123819D01*
X239589Y124246D01*
Y124672D01*
X240015Y125098D01*
X240442D01*
X240868Y124672D01*
Y124246D01*
X240442Y123819D01*
X240868Y123393D01*
Y122966D01*
X241295Y123819D02*
X240868Y123393D01*
X240015Y123819D02*
X240442D01*
X242147Y122540D02*
Y125098D01*
X243426D01*
X243853Y124672D01*
Y123819D01*
X243426Y123393D01*
X242147D01*
X243000D02*
X243853Y122540D01*
X246411Y125098D02*
X244706D01*
Y122540D01*
X246411D01*
X244706Y123819D02*
X245558D01*
X247264Y125098D02*
Y122540D01*
X248969D01*
X249822D02*
Y125098D01*
X250675Y124246D01*
X251527Y125098D01*
Y122540D01*
X253659Y125098D02*
X252807D01*
X252380Y124672D01*
Y122966D01*
X252807Y122540D01*
X253659D01*
X254086Y122966D01*
Y124672D01*
X253659Y125098D01*
X235752Y118053D02*
Y120611D01*
X236604Y119758D01*
X237457Y120611D01*
Y118053D01*
X239589Y120611D02*
X238736D01*
X238310Y120185D01*
Y118479D01*
X238736Y118053D01*
X239589D01*
X240015Y118479D01*
Y120185D01*
X239589Y120611D01*
X240868D02*
Y118479D01*
X241295Y118053D01*
X242147D01*
X242574Y118479D01*
Y120611D01*
X243426Y118053D02*
Y120611D01*
X245132Y118053D01*
Y120611D01*
X245985D02*
X247690D01*
X246837D01*
Y118053D01*
X248543Y120611D02*
X250248D01*
Y120185D01*
X248543Y118479D01*
Y118053D01*
X250248D01*
X216139Y116124D02*
X214433D01*
Y114845D01*
X215286D01*
X214433D01*
Y113566D01*
X216991D02*
Y115271D01*
X217844Y116124D01*
X218697Y115271D01*
Y113566D01*
Y114845D01*
X216991D01*
X219550Y116124D02*
Y113566D01*
X220829D01*
X221255Y113992D01*
Y114418D01*
X220829Y114845D01*
X219550D01*
X220829D01*
X221255Y115271D01*
Y115698D01*
X220829Y116124D01*
X219550D01*
X222108D02*
X222960D01*
X222534D01*
Y113566D01*
X222108D01*
X222960D01*
X225519Y116124D02*
X224666D01*
X224240Y115698D01*
Y113992D01*
X224666Y113566D01*
X225519D01*
X225945Y113992D01*
Y115698D01*
X225519Y116124D01*
X226798D02*
Y113566D01*
X228503D01*
X229356D02*
Y115271D01*
X230209Y116124D01*
X231062Y115271D01*
Y113566D01*
Y114845D01*
X229356D01*
X234473Y113566D02*
Y116124D01*
X235325Y115271D01*
X236178Y116124D01*
Y113566D01*
X238310Y116124D02*
X237457D01*
X237031Y115698D01*
Y113992D01*
X237457Y113566D01*
X238310D01*
X238736Y113992D01*
Y115698D01*
X238310Y116124D01*
X239589Y113566D02*
Y116124D01*
X240868D01*
X241295Y115698D01*
Y114845D01*
X240868Y114418D01*
X239589D01*
X240442D02*
X241295Y113566D01*
X242147D02*
Y115271D01*
X243000Y116124D01*
X243853Y115271D01*
Y113566D01*
Y114845D01*
X242147D01*
X244706Y116124D02*
Y113566D01*
X246411D01*
X248969Y116124D02*
X247264D01*
Y113566D01*
X248969D01*
X247264Y114845D02*
X248116D01*
X251527Y115698D02*
X251101Y116124D01*
X250248D01*
X249822Y115698D01*
Y115271D01*
X250248Y114845D01*
X251101D01*
X251527Y114418D01*
Y113992D01*
X251101Y113566D01*
X250248D01*
X249822Y113992D01*
X254938Y116124D02*
Y113566D01*
X256218D01*
X256644Y113992D01*
Y115698D01*
X256218Y116124D01*
X254938D01*
X259202D02*
X257497D01*
Y113566D01*
X259202D01*
X257497Y114845D02*
X258349D01*
X262613Y113566D02*
Y116124D01*
X263892D01*
X264319Y115698D01*
Y114845D01*
X263892Y114418D01*
X262613D01*
X263466D02*
X264319Y113566D01*
X265171Y116124D02*
X266024D01*
X265598D01*
Y113566D01*
X265171D01*
X266024D01*
X268582Y116124D02*
X267730D01*
X267303Y115698D01*
Y113992D01*
X267730Y113566D01*
X268582D01*
X269009Y113992D01*
Y115698D01*
X268582Y116124D01*
X271567Y115698D02*
X271141Y116124D01*
X270288D01*
X269861Y115698D01*
Y115271D01*
X270288Y114845D01*
X271141D01*
X271567Y114418D01*
Y113992D01*
X271141Y113566D01*
X270288D01*
X269861Y113992D01*
X182226Y203017D02*
Y199672D01*
X184456D01*
X185571D02*
Y201902D01*
X186686Y203017D01*
X187801Y201902D01*
Y199672D01*
Y201344D01*
X185571D01*
X192262Y203017D02*
Y200229D01*
X192819Y199672D01*
X193934D01*
X194492Y200229D01*
Y203017D01*
X195607Y199672D02*
Y203017D01*
X197837Y199672D01*
Y203017D01*
X198952D02*
X200068D01*
X199510D01*
Y199672D01*
X198952D01*
X200068D01*
X201740Y203017D02*
Y200787D01*
X202855Y199672D01*
X203971Y200787D01*
Y203017D01*
X207316D02*
X205086D01*
Y199672D01*
X207316D01*
X205086Y201344D02*
X206201D01*
X208431Y199672D02*
Y203017D01*
X210104D01*
X210661Y202460D01*
Y201344D01*
X210104Y200787D01*
X208431D01*
X209546D02*
X210661Y199672D01*
X214007Y202460D02*
X213449Y203017D01*
X212334D01*
X211776Y202460D01*
Y201902D01*
X212334Y201344D01*
X213449D01*
X214007Y200787D01*
Y200229D01*
X213449Y199672D01*
X212334D01*
X211776Y200229D01*
X215122Y203017D02*
X216237D01*
X215679D01*
Y199672D01*
X215122D01*
X216237D01*
X217910Y203017D02*
Y199672D01*
X219582D01*
X220140Y200229D01*
Y202460D01*
X219582Y203017D01*
X217910D01*
X221255Y199672D02*
Y201902D01*
X222370Y203017D01*
X223485Y201902D01*
Y199672D01*
Y201344D01*
X221255D01*
X224600Y203017D02*
Y199672D01*
X226273D01*
X226831Y200229D01*
Y202460D01*
X226273Y203017D01*
X224600D01*
X231291D02*
Y199672D01*
X232964D01*
X233521Y200229D01*
Y202460D01*
X232964Y203017D01*
X231291D01*
X236867D02*
X234637D01*
Y199672D01*
X236867D01*
X234637Y201344D02*
X235752D01*
X237982Y203017D02*
Y199672D01*
X240212D01*
X244673Y203017D02*
Y200787D01*
X245788Y199672D01*
X246903Y200787D01*
Y203017D01*
X248018Y199672D02*
Y201902D01*
X249133Y203017D01*
X250248Y201902D01*
Y199672D01*
Y201344D01*
X248018D01*
X251363Y203017D02*
Y199672D01*
X253594D01*
X254709Y203017D02*
Y199672D01*
X256939D01*
X260284Y203017D02*
X258054D01*
Y199672D01*
X260284D01*
X258054Y201344D02*
X259169D01*
X264745Y203017D02*
Y199672D01*
X266418D01*
X266975Y200229D01*
Y202460D01*
X266418Y203017D01*
X264745D01*
X270321D02*
X268090D01*
Y199672D01*
X270321D01*
X268090Y201344D02*
X269205D01*
X277011Y202460D02*
X276454Y203017D01*
X275339D01*
X274781Y202460D01*
Y200229D01*
X275339Y199672D01*
X276454D01*
X277011Y200229D01*
Y201344D01*
X275896D01*
X278127Y203017D02*
Y200229D01*
X278684Y199672D01*
X279799D01*
X280357Y200229D01*
Y203017D01*
X281472Y199672D02*
Y201902D01*
X282587Y203017D01*
X283702Y201902D01*
Y199672D01*
Y201344D01*
X281472D01*
X284817Y203017D02*
X287048D01*
X285932D01*
Y199672D01*
X290393Y203017D02*
X288163D01*
Y199672D01*
X290393D01*
X288163Y201344D02*
X289278D01*
X291508Y199672D02*
Y203017D01*
X292623Y201902D01*
X293738Y203017D01*
Y199672D01*
X294853D02*
Y201902D01*
X295969Y203017D01*
X297084Y201902D01*
Y199672D01*
Y201344D01*
X294853D01*
X298199Y203017D02*
Y199672D01*
X300429D01*
X301544D02*
Y201902D01*
X302659Y203017D01*
X303774Y201902D01*
Y199672D01*
Y201344D01*
X301544D01*
X202855Y194240D02*
Y196470D01*
X203971Y197585D01*
X205086Y196470D01*
Y194240D01*
Y195913D01*
X202855D01*
X208431Y197028D02*
X207874Y197585D01*
X206758D01*
X206201Y197028D01*
Y194798D01*
X206758Y194240D01*
X207874D01*
X208431Y194798D01*
Y195913D01*
X207316D01*
X209546Y194240D02*
Y197585D01*
X211219D01*
X211776Y197028D01*
Y195913D01*
X211219Y195355D01*
X209546D01*
X210661D02*
X211776Y194240D01*
X212892D02*
Y196470D01*
X214007Y197585D01*
X215122Y196470D01*
Y194240D01*
Y195913D01*
X212892D01*
X216237Y197585D02*
Y194240D01*
X217910D01*
X218467Y194798D01*
Y197028D01*
X217910Y197585D01*
X216237D01*
X221813D02*
X219582D01*
Y194240D01*
X221813D01*
X219582Y195913D02*
X220697D01*
X225158Y197028D02*
X224600Y197585D01*
X223485D01*
X222928Y197028D01*
Y194798D01*
X223485Y194240D01*
X224600D01*
X225158Y194798D01*
X228503Y197585D02*
X226273D01*
Y194240D01*
X228503D01*
X226273Y195913D02*
X227388D01*
X235194Y197585D02*
X232964D01*
Y194240D01*
X235194D01*
X232964Y195913D02*
X234079D01*
X238540Y197028D02*
X237982Y197585D01*
X236867D01*
X236309Y197028D01*
Y196470D01*
X236867Y195913D01*
X237982D01*
X238540Y195355D01*
Y194798D01*
X237982Y194240D01*
X236867D01*
X236309Y194798D01*
X239655Y194240D02*
Y197585D01*
X241327D01*
X241885Y197028D01*
Y195913D01*
X241327Y195355D01*
X239655D01*
X245230Y197585D02*
X243000D01*
Y194240D01*
X245230D01*
X243000Y195913D02*
X244115D01*
X248576Y197028D02*
X248018Y197585D01*
X246903D01*
X246345Y197028D01*
Y194798D01*
X246903Y194240D01*
X248018D01*
X248576Y194798D01*
X249691Y197585D02*
X250806D01*
X250248D01*
Y194240D01*
X249691D01*
X250806D01*
X252479D02*
Y196470D01*
X253594Y197585D01*
X254709Y196470D01*
Y194240D01*
Y195913D01*
X252479D01*
X255824Y197585D02*
Y194240D01*
X258054D01*
X259169D02*
Y197585D01*
X260284Y196470D01*
X261400Y197585D01*
Y194240D01*
X264745Y197585D02*
X262515D01*
Y194240D01*
X264745D01*
X262515Y195913D02*
X263630D01*
X265860Y194240D02*
Y197585D01*
X268090Y194240D01*
Y197585D01*
X269205D02*
X271436D01*
X270321D01*
Y194240D01*
X274781Y197585D02*
X272551D01*
Y194240D01*
X274781D01*
X272551Y195913D02*
X273666D01*
X279242Y194240D02*
Y196470D01*
X280357Y197585D01*
X281472Y196470D01*
Y194240D01*
Y195913D01*
X279242D01*
X282587Y196470D02*
X283145D01*
Y195913D01*
X282587D01*
Y196470D01*
Y194798D02*
X283145D01*
Y194240D01*
X282587D01*
Y194798D01*
X248624Y354280D02*
X247968Y354936D01*
X246656D01*
X246000Y354280D01*
Y351656D01*
X246656Y351000D01*
X247968D01*
X248624Y351656D01*
Y352968D01*
X247312D01*
X249936Y351000D02*
Y354936D01*
X252560Y351000D01*
Y354936D01*
X253871D02*
Y351000D01*
X255839D01*
X256495Y351656D01*
Y354280D01*
X255839Y354936D01*
X253871D01*
X-3876Y178780D02*
X-4532Y179436D01*
X-5844D01*
X-6500Y178780D01*
Y178124D01*
X-5844Y177468D01*
X-4532D01*
X-3876Y176812D01*
Y176156D01*
X-4532Y175500D01*
X-5844D01*
X-6500Y176156D01*
X37795Y242936D02*
X39107D01*
X38451D01*
Y239000D01*
X37795D01*
X39107D01*
X287000Y307522D02*
Y303587D01*
Y304899D01*
X289624Y307522D01*
X287656Y305555D01*
X289624Y303587D01*
X153500Y84000D02*
Y86624D01*
X154812Y87936D01*
X156124Y86624D01*
Y84000D01*
Y85968D01*
X153500D01*
X51000Y320500D02*
Y324436D01*
X52968D01*
X53624Y323780D01*
Y322468D01*
X52968Y321812D01*
X51000D01*
X52312D02*
X53624Y320500D01*
X114468Y74101D02*
X113156D01*
X112500Y73445D01*
Y70821D01*
X113156Y70165D01*
X114468D01*
X115124Y70821D01*
Y73445D01*
X114468Y74101D01*
X116436Y70165D02*
Y74101D01*
X119060Y70165D01*
Y74101D01*
X122339Y70165D02*
Y74101D01*
X120371Y72133D01*
X122995D01*
X114468Y81436D02*
X113156D01*
X112500Y80780D01*
Y78156D01*
X113156Y77500D01*
X114468D01*
X115124Y78156D01*
Y80780D01*
X114468Y81436D01*
X116436Y77500D02*
Y81436D01*
X119060Y77500D01*
Y81436D01*
X120371Y80780D02*
X121027Y81436D01*
X122339D01*
X122995Y80780D01*
Y80124D01*
X122339Y79468D01*
X121683D01*
X122339D01*
X122995Y78812D01*
Y78156D01*
X122339Y77500D01*
X121027D01*
X120371Y78156D01*
X25968Y131936D02*
X24656D01*
X24000Y131280D01*
Y128656D01*
X24656Y128000D01*
X25968D01*
X26624Y128656D01*
Y131280D01*
X25968Y131936D01*
X27936Y128000D02*
Y131936D01*
X30560Y128000D01*
Y131936D01*
X34495Y128000D02*
X31872D01*
X34495Y130624D01*
Y131280D01*
X33839Y131936D01*
X32527D01*
X31872Y131280D01*
X38468Y148436D02*
X37156D01*
X36500Y147780D01*
Y145156D01*
X37156Y144500D01*
X38468D01*
X39124Y145156D01*
Y147780D01*
X38468Y148436D01*
X40436Y144500D02*
Y148436D01*
X43060Y144500D01*
Y148436D01*
X44372Y144500D02*
X45683D01*
X45027D01*
Y148436D01*
X44372Y147780D01*
X25500Y173436D02*
Y170812D01*
X26812Y169500D01*
X28124Y170812D01*
Y173436D01*
X29436Y169500D02*
Y173436D01*
X31404D01*
X32060Y172780D01*
Y171468D01*
X31404Y170812D01*
X29436D01*
X30748D02*
X32060Y169500D01*
X33371D02*
X34683D01*
X34027D01*
Y173436D01*
X33371Y172780D01*
X309000Y233609D02*
Y230985D01*
X310312Y229673D01*
X311624Y230985D01*
Y233609D01*
X312936Y229673D02*
Y233609D01*
X314904D01*
X315560Y232953D01*
Y231641D01*
X314904Y230985D01*
X312936D01*
X314248D02*
X315560Y229673D01*
X319495D02*
X316872D01*
X319495Y232297D01*
Y232953D01*
X318839Y233609D01*
X317527D01*
X316872Y232953D01*
X311000Y324936D02*
Y322312D01*
X312312Y321000D01*
X313624Y322312D01*
Y324936D01*
X314936Y321000D02*
Y324936D01*
X316904D01*
X317560Y324280D01*
Y322968D01*
X316904Y322312D01*
X314936D01*
X316248D02*
X317560Y321000D01*
X318871Y324280D02*
X319527Y324936D01*
X320839D01*
X321495Y324280D01*
Y323624D01*
X320839Y322968D01*
X320183D01*
X320839D01*
X321495Y322312D01*
Y321656D01*
X320839Y321000D01*
X319527D01*
X318871Y321656D01*
X2000Y342436D02*
Y339812D01*
X3312Y338500D01*
X4624Y339812D01*
Y342436D01*
X5936Y338500D02*
Y342436D01*
X7904D01*
X8560Y341780D01*
Y340468D01*
X7904Y339812D01*
X5936D01*
X7248D02*
X8560Y338500D01*
X11839D02*
Y342436D01*
X9871Y340468D01*
X12495D01*
X71000Y273436D02*
Y270812D01*
X72312Y269500D01*
X73624Y270812D01*
Y273436D01*
X74936D02*
Y269500D01*
X76904D01*
X77560Y270156D01*
Y270812D01*
X76904Y271468D01*
X74936D01*
X76904D01*
X77560Y272124D01*
Y272780D01*
X76904Y273436D01*
X74936D01*
X78872Y269500D02*
Y272124D01*
X80183Y273436D01*
X81495Y272124D01*
Y269500D01*
Y271468D01*
X78872D01*
X82807Y273436D02*
X85431D01*
X84119D01*
Y269500D01*
X227687Y75551D02*
X227031Y76207D01*
X225719D01*
X225063Y75551D01*
Y74896D01*
X225719Y74239D01*
X227031D01*
X227687Y73584D01*
Y72928D01*
X227031Y72272D01*
X225719D01*
X225063Y72928D01*
X228999Y76207D02*
Y72928D01*
X229655Y72272D01*
X230967D01*
X231623Y72928D01*
Y76207D01*
X232934Y72272D02*
Y76207D01*
X235558Y72272D01*
Y76207D01*
X243430Y75551D02*
X242774Y76207D01*
X241462D01*
X240806Y75551D01*
Y74896D01*
X241462Y74239D01*
X242774D01*
X243430Y73584D01*
Y72928D01*
X242774Y72272D01*
X241462D01*
X240806Y72928D01*
X247365Y76207D02*
X244742D01*
Y72272D01*
X247365D01*
X244742Y74239D02*
X246054D01*
X248677Y72272D02*
Y76207D01*
X251301Y72272D01*
Y76207D01*
X255237Y75551D02*
X254581Y76207D01*
X253269D01*
X252613Y75551D01*
Y74896D01*
X253269Y74239D01*
X254581D01*
X255237Y73584D01*
Y72928D01*
X254581Y72272D01*
X253269D01*
X252613Y72928D01*
X258517Y76207D02*
X257205D01*
X256549Y75551D01*
Y72928D01*
X257205Y72272D01*
X258517D01*
X259173Y72928D01*
Y75551D01*
X258517Y76207D01*
X260485Y72272D02*
Y76207D01*
X262453D01*
X263108Y75551D01*
Y74239D01*
X262453Y73584D01*
X260485D01*
X261796D02*
X263108Y72272D01*
X267044Y75551D02*
X266388Y76207D01*
X265076D01*
X264420Y75551D01*
Y74896D01*
X265076Y74239D01*
X266388D01*
X267044Y73584D01*
Y72928D01*
X266388Y72272D01*
X265076D01*
X264420Y72928D01*
X52563Y74101D02*
X53875D01*
X53219D01*
Y70165D01*
X52563D01*
X53875D01*
X58467D02*
X55843D01*
X58467Y72789D01*
Y73445D01*
X57811Y74101D01*
X56499D01*
X55843Y73445D01*
X62402D02*
X61746Y74101D01*
X60434D01*
X59778Y73445D01*
Y70821D01*
X60434Y70165D01*
X61746D01*
X62402Y70821D01*
X99972Y394873D02*
Y392249D01*
X101284Y390937D01*
X102596Y392249D01*
Y394873D01*
X103908D02*
Y390937D01*
X105876D01*
X106532Y391593D01*
Y392249D01*
X105876Y392905D01*
X103908D01*
X105876D01*
X106532Y393561D01*
Y394217D01*
X105876Y394873D01*
X103908D01*
X107844Y390937D02*
Y393561D01*
X109156Y394873D01*
X110468Y393561D01*
Y390937D01*
Y392905D01*
X107844D01*
X111780Y394873D02*
X114403D01*
X113092D01*
Y390937D01*
X195335Y394217D02*
X195991Y394873D01*
X197302D01*
X197958Y394217D01*
Y393561D01*
X197302Y392905D01*
X196646D01*
X197302D01*
X197958Y392249D01*
Y391593D01*
X197302Y390937D01*
X195991D01*
X195335Y391593D01*
X199270Y394873D02*
Y392249D01*
X200582Y390937D01*
X201894Y392249D01*
Y394873D01*
X203206Y394217D02*
X203862Y394873D01*
X205174D01*
X205830Y394217D01*
Y393561D01*
X205174Y392905D01*
X204518D01*
X205174D01*
X205830Y392249D01*
Y391593D01*
X205174Y390937D01*
X203862D01*
X203206Y391593D01*
X214596Y394217D02*
X213940Y394873D01*
X212628D01*
X211972Y394217D01*
Y393561D01*
X212628Y392905D01*
X213940D01*
X214596Y392249D01*
Y391593D01*
X213940Y390937D01*
X212628D01*
X211972Y391593D01*
X217876Y394873D02*
X216564D01*
X215908Y394217D01*
Y391593D01*
X216564Y390937D01*
X217876D01*
X218532Y391593D01*
Y394217D01*
X217876Y394873D01*
X219844D02*
Y390937D01*
X222468D01*
X223780D02*
Y393561D01*
X225092Y394873D01*
X226403Y393561D01*
Y390937D01*
Y392905D01*
X223780D01*
X227715Y390937D02*
Y394873D01*
X229683D01*
X230339Y394217D01*
Y392905D01*
X229683Y392249D01*
X227715D01*
X229027D02*
X230339Y390937D01*
X13000Y275500D02*
Y279436D01*
X14968D01*
X15624Y278780D01*
Y277468D01*
X14968Y276812D01*
X13000D01*
X14312D02*
X15624Y275500D01*
X19560D02*
X16936D01*
X19560Y278124D01*
Y278780D01*
X18904Y279436D01*
X17592D01*
X16936Y278780D01*
X22839Y275500D02*
Y279436D01*
X20872Y277468D01*
X23495D01*
X13000Y260500D02*
Y264436D01*
X14968D01*
X15624Y263780D01*
Y262468D01*
X14968Y261812D01*
X13000D01*
X14312D02*
X15624Y260500D01*
X19560D02*
X16936D01*
X19560Y263124D01*
Y263780D01*
X18904Y264436D01*
X17592D01*
X16936Y263780D01*
X20872D02*
X21527Y264436D01*
X22839D01*
X23495Y263780D01*
Y263124D01*
X22839Y262468D01*
X22183D01*
X22839D01*
X23495Y261812D01*
Y261156D01*
X22839Y260500D01*
X21527D01*
X20872Y261156D01*
X324500Y191862D02*
Y195798D01*
X326468D01*
X327124Y195142D01*
Y193830D01*
X326468Y193174D01*
X324500D01*
X325812D02*
X327124Y191862D01*
X331060D02*
X328436D01*
X331060Y194486D01*
Y195142D01*
X330404Y195798D01*
X329092D01*
X328436Y195142D01*
X332371Y191862D02*
X333683D01*
X333027D01*
Y195798D01*
X332371Y195142D01*
X324500Y176362D02*
Y180298D01*
X326468D01*
X327124Y179642D01*
Y178330D01*
X326468Y177674D01*
X324500D01*
X325812D02*
X327124Y176362D01*
X331060D02*
X328436D01*
X331060Y178986D01*
Y179642D01*
X330404Y180298D01*
X329092D01*
X328436Y179642D01*
X332371D02*
X333027Y180298D01*
X334339D01*
X334995Y179642D01*
Y177018D01*
X334339Y176362D01*
X333027D01*
X332371Y177018D01*
Y179642D01*
X311000Y284159D02*
Y288095D01*
X312968D01*
X313624Y287439D01*
Y286127D01*
X312968Y285471D01*
X311000D01*
X312312D02*
X313624Y284159D01*
X314936D02*
X316248D01*
X315592D01*
Y288095D01*
X314936Y287439D01*
X318215Y284815D02*
X318871Y284159D01*
X320183D01*
X320839Y284815D01*
Y287439D01*
X320183Y288095D01*
X318871D01*
X318215Y287439D01*
Y286783D01*
X318871Y286127D01*
X320839D01*
X311000Y268807D02*
Y272743D01*
X312968D01*
X313624Y272087D01*
Y270775D01*
X312968Y270119D01*
X311000D01*
X312312D02*
X313624Y268807D01*
X314936D02*
X316248D01*
X315592D01*
Y272743D01*
X314936Y272087D01*
X318215D02*
X318871Y272743D01*
X320183D01*
X320839Y272087D01*
Y271431D01*
X320183Y270775D01*
X320839Y270119D01*
Y269463D01*
X320183Y268807D01*
X318871D01*
X318215Y269463D01*
Y270119D01*
X318871Y270775D01*
X318215Y271431D01*
Y272087D01*
X318871Y270775D02*
X320183D01*
X13500Y175500D02*
Y179436D01*
X15468D01*
X16124Y178780D01*
Y177468D01*
X15468Y176812D01*
X13500D01*
X14812D02*
X16124Y175500D01*
X17436D02*
X18748D01*
X18092D01*
Y179436D01*
X17436Y178780D01*
X20716Y179436D02*
X23339D01*
Y178780D01*
X20716Y176156D01*
Y175500D01*
X13500Y184500D02*
Y188436D01*
X15468D01*
X16124Y187780D01*
Y186468D01*
X15468Y185812D01*
X13500D01*
X14812D02*
X16124Y184500D01*
X17436D02*
X18748D01*
X18092D01*
Y188436D01*
X17436Y187780D01*
X23339Y188436D02*
X22027Y187780D01*
X20716Y186468D01*
Y185156D01*
X21372Y184500D01*
X22683D01*
X23339Y185156D01*
Y185812D01*
X22683Y186468D01*
X20716D01*
X53960Y257257D02*
Y253977D01*
X54616Y253321D01*
X55928D01*
X56584Y253977D01*
Y257257D01*
X60520Y253321D02*
X57896D01*
X60520Y255945D01*
Y256601D01*
X59864Y257257D01*
X58552D01*
X57896Y256601D01*
X88439Y147690D02*
Y144410D01*
X89095Y143754D01*
X90407D01*
X91063Y144410D01*
Y147690D01*
X92375Y143754D02*
X93687D01*
X93031D01*
Y147690D01*
X92375Y147034D01*
X40419Y264217D02*
X39763Y264873D01*
X38451D01*
X37795Y264217D01*
Y261593D01*
X38451Y260937D01*
X39763D01*
X40419Y261593D01*
X41731Y264217D02*
X42387Y264873D01*
X43699D01*
X44355Y264217D01*
Y263561D01*
X43699Y262905D01*
X43043D01*
X43699D01*
X44355Y262249D01*
Y261593D01*
X43699Y260937D01*
X42387D01*
X41731Y261593D01*
X85096Y233016D02*
X84440Y233672D01*
X83128D01*
X82472Y233016D01*
Y230392D01*
X83128Y229736D01*
X84440D01*
X85096Y230392D01*
X88376Y229736D02*
Y233672D01*
X86408Y231704D01*
X89032D01*
X85096Y248359D02*
X84440Y249014D01*
X83128D01*
X82472Y248359D01*
Y245735D01*
X83128Y245079D01*
X84440D01*
X85096Y245735D01*
X89032Y249014D02*
X86408D01*
Y247047D01*
X87720Y247703D01*
X88376D01*
X89032Y247047D01*
Y245735D01*
X88376Y245079D01*
X87064D01*
X86408Y245735D01*
X246458Y245985D02*
X245802Y246640D01*
X244491D01*
X243835Y245985D01*
Y243361D01*
X244491Y242705D01*
X245802D01*
X246458Y243361D01*
X250394Y246640D02*
X249082Y245985D01*
X247770Y244673D01*
Y243361D01*
X248426Y242705D01*
X249738D01*
X250394Y243361D01*
Y244017D01*
X249738Y244673D01*
X247770D01*
X291958Y215985D02*
X291302Y216640D01*
X289990D01*
X289335Y215985D01*
Y213361D01*
X289990Y212705D01*
X291302D01*
X291958Y213361D01*
X293270Y216640D02*
X295894D01*
Y215985D01*
X293270Y213361D01*
Y212705D01*
X291958Y231485D02*
X291302Y232140D01*
X289990D01*
X289335Y231485D01*
Y228861D01*
X289990Y228205D01*
X291302D01*
X291958Y228861D01*
X293270Y231485D02*
X293926Y232140D01*
X295238D01*
X295894Y231485D01*
Y230828D01*
X295238Y230173D01*
X295894Y229517D01*
Y228861D01*
X295238Y228205D01*
X293926D01*
X293270Y228861D01*
Y229517D01*
X293926Y230173D01*
X293270Y230828D01*
Y231485D01*
X293926Y230173D02*
X295238D01*
X259458Y337485D02*
X258802Y338141D01*
X257490D01*
X256835Y337485D01*
Y334861D01*
X257490Y334205D01*
X258802D01*
X259458Y334861D01*
X260770D02*
X261426Y334205D01*
X262738D01*
X263394Y334861D01*
Y337485D01*
X262738Y338141D01*
X261426D01*
X260770Y337485D01*
Y336828D01*
X261426Y336173D01*
X263394D01*
X304958Y306866D02*
X304302Y307522D01*
X302991D01*
X302335Y306866D01*
Y304243D01*
X302991Y303587D01*
X304302D01*
X304958Y304243D01*
X306270Y303587D02*
X307582D01*
X306926D01*
Y307522D01*
X306270Y306866D01*
X309550D02*
X310206Y307522D01*
X311518D01*
X312174Y306866D01*
Y304243D01*
X311518Y303587D01*
X310206D01*
X309550Y304243D01*
Y306866D01*
X295388Y338280D02*
X294732Y338936D01*
X293420D01*
X292764Y338280D01*
Y335656D01*
X293420Y335000D01*
X294732D01*
X295388Y335656D01*
X296700Y335000D02*
X298011D01*
X297355D01*
Y338936D01*
X296700Y338280D01*
X299979Y335000D02*
X301291D01*
X300635D01*
Y338936D01*
X299979Y338280D01*
X37596Y293217D02*
X36940Y293873D01*
X35628D01*
X34973Y293217D01*
Y290593D01*
X35628Y289937D01*
X36940D01*
X37596Y290593D01*
X38908Y289937D02*
X40220D01*
X39564D01*
Y293873D01*
X38908Y293217D01*
X44812Y289937D02*
X42188D01*
X44812Y292561D01*
Y293217D01*
X44156Y293873D01*
X42844D01*
X42188Y293217D01*
X41624Y338217D02*
X40968Y338873D01*
X39656D01*
X39000Y338217D01*
Y335593D01*
X39656Y334937D01*
X40968D01*
X41624Y335593D01*
X42936Y334937D02*
X44248D01*
X43592D01*
Y338873D01*
X42936Y338217D01*
X46216D02*
X46872Y338873D01*
X48183D01*
X48839Y338217D01*
Y337561D01*
X48183Y336905D01*
X47527D01*
X48183D01*
X48839Y336249D01*
Y335593D01*
X48183Y334937D01*
X46872D01*
X46216Y335593D01*
X25624Y338217D02*
X24968Y338873D01*
X23656D01*
X23000Y338217D01*
Y335593D01*
X23656Y334937D01*
X24968D01*
X25624Y335593D01*
X26936Y334937D02*
X28248D01*
X27592D01*
Y338873D01*
X26936Y338217D01*
X32183Y334937D02*
Y338873D01*
X30215Y336905D01*
X32839D01*
X150972Y139563D02*
Y143499D01*
X152940D01*
X153596Y142843D01*
Y141531D01*
X152940Y140875D01*
X150972D01*
X152284D02*
X153596Y139563D01*
X154908D02*
X156220D01*
X155564D01*
Y143499D01*
X154908Y142843D01*
X150972Y122059D02*
Y125995D01*
X152940D01*
X153596Y125339D01*
Y124027D01*
X152940Y123371D01*
X150972D01*
X152284D02*
X153596Y122059D01*
X157532D02*
X154908D01*
X157532Y124683D01*
Y125339D01*
X156876Y125995D01*
X155564D01*
X154908Y125339D01*
X123222Y154754D02*
Y158690D01*
X125190D01*
X125846Y158034D01*
Y156722D01*
X125190Y156066D01*
X123222D01*
X124534D02*
X125846Y154754D01*
X127158Y158034D02*
X127814Y158690D01*
X129126D01*
X129782Y158034D01*
Y157378D01*
X129126Y156722D01*
X128470D01*
X129126D01*
X129782Y156066D01*
Y155410D01*
X129126Y154754D01*
X127814D01*
X127158Y155410D01*
X132222Y154754D02*
Y158690D01*
X134190D01*
X134846Y158034D01*
Y156722D01*
X134190Y156066D01*
X132222D01*
X133534D02*
X134846Y154754D01*
X138126D02*
Y158690D01*
X136158Y156722D01*
X138782D01*
X63973Y142671D02*
Y146607D01*
X65940D01*
X66596Y145951D01*
Y144639D01*
X65940Y143983D01*
X63973D01*
X65284D02*
X66596Y142671D01*
X70532Y146607D02*
X67908D01*
Y144639D01*
X69220Y145295D01*
X69876D01*
X70532Y144639D01*
Y143327D01*
X69876Y142671D01*
X68564D01*
X67908Y143327D01*
X63973Y133937D02*
Y137873D01*
X65940D01*
X66596Y137217D01*
Y135905D01*
X65940Y135249D01*
X63973D01*
X65284D02*
X66596Y133937D01*
X70532Y137873D02*
X69220Y137217D01*
X67908Y135905D01*
Y134593D01*
X68564Y133937D01*
X69876D01*
X70532Y134593D01*
Y135249D01*
X69876Y135905D01*
X67908D01*
X79500Y149004D02*
Y152940D01*
X81468D01*
X82124Y152284D01*
Y150972D01*
X81468Y150316D01*
X79500D01*
X80812D02*
X82124Y149004D01*
X83436Y152940D02*
X86060D01*
Y152284D01*
X83436Y149660D01*
Y149004D01*
X259460Y238640D02*
Y235361D01*
X260116Y234705D01*
X261428D01*
X262084Y235361D01*
Y238640D01*
X263396Y237984D02*
X264052Y238640D01*
X265364D01*
X266020Y237984D01*
Y237329D01*
X265364Y236673D01*
X264708D01*
X265364D01*
X266020Y236017D01*
Y235361D01*
X265364Y234705D01*
X264052D01*
X263396Y235361D01*
X272460Y329657D02*
Y326377D01*
X273116Y325721D01*
X274428D01*
X275084Y326377D01*
Y329657D01*
X278364Y325721D02*
Y329657D01*
X276396Y327689D01*
X279020D01*
X39972Y311373D02*
Y308093D01*
X40628Y307437D01*
X41940D01*
X42596Y308093D01*
Y311373D01*
X46532D02*
X43908D01*
Y309405D01*
X45220Y310061D01*
X45876D01*
X46532Y309405D01*
Y308093D01*
X45876Y307437D01*
X44564D01*
X43908Y308093D01*
X115846Y149534D02*
X115190Y150190D01*
X113878D01*
X113222Y149534D01*
Y146910D01*
X113878Y146254D01*
X115190D01*
X115846Y146910D01*
X117158Y146254D02*
X118470D01*
X117814D01*
Y150190D01*
X117158Y149534D01*
X115846Y159034D02*
X115190Y159690D01*
X113878D01*
X113222Y159034D01*
Y156410D01*
X113878Y155754D01*
X115190D01*
X115846Y156410D01*
X119782Y155754D02*
X117158D01*
X119782Y158378D01*
Y159034D01*
X119126Y159690D01*
X117814D01*
X117158Y159034D01*
X141972Y89937D02*
Y93873D01*
X143940D01*
X144596Y93217D01*
Y91905D01*
X143940Y91249D01*
X141972D01*
X143284D02*
X144596Y89937D01*
X145908D02*
X147220D01*
X146564D01*
Y93873D01*
X145908Y93217D01*
X151812Y93873D02*
X149188D01*
Y91905D01*
X150500Y92561D01*
X151156D01*
X151812Y91905D01*
Y90593D01*
X151156Y89937D01*
X149844D01*
X149188Y90593D01*
X141972Y99886D02*
Y103822D01*
X143940D01*
X144596Y103166D01*
Y101854D01*
X143940Y101198D01*
X141972D01*
X143284D02*
X144596Y99886D01*
X145908D02*
X147220D01*
X146564D01*
Y103822D01*
X145908Y103166D01*
X151156Y99886D02*
Y103822D01*
X149188Y101854D01*
X151812D01*
X63973Y107386D02*
Y111322D01*
X65940D01*
X66596Y110666D01*
Y109354D01*
X65940Y108698D01*
X63973D01*
X65284D02*
X66596Y107386D01*
X67908D02*
X69220D01*
X68564D01*
Y111322D01*
X67908Y110666D01*
X71188D02*
X71844Y111322D01*
X73156D01*
X73812Y110666D01*
Y110010D01*
X73156Y109354D01*
X72500D01*
X73156D01*
X73812Y108698D01*
Y108042D01*
X73156Y107386D01*
X71844D01*
X71188Y108042D01*
X63973Y116886D02*
Y120822D01*
X65940D01*
X66596Y120166D01*
Y118854D01*
X65940Y118198D01*
X63973D01*
X65284D02*
X66596Y116886D01*
X67908D02*
X69220D01*
X68564D01*
Y120822D01*
X67908Y120166D01*
X73812Y116886D02*
X71188D01*
X73812Y119510D01*
Y120166D01*
X73156Y120822D01*
X71844D01*
X71188Y120166D01*
X288267Y56937D02*
Y60873D01*
X290235D01*
X290891Y60217D01*
Y58905D01*
X290235Y58249D01*
X288267D01*
X294827Y60873D02*
X292203D01*
Y58905D01*
X293515Y59561D01*
X294171D01*
X294827Y58905D01*
Y57593D01*
X294171Y56937D01*
X292859D01*
X292203Y57593D01*
X23472Y63937D02*
Y67873D01*
X25440D01*
X26096Y67217D01*
Y65905D01*
X25440Y65249D01*
X23472D01*
X29376Y63937D02*
Y67873D01*
X27408Y65905D01*
X30032D01*
D14*
X27839Y307543D02*
Y309138D01*
Y314217D02*
Y315811D01*
X37287Y307543D02*
Y309138D01*
Y314217D02*
Y315811D01*
X280846Y313205D02*
X282441D01*
X274173D02*
X275768D01*
X280846Y322654D02*
X282441D01*
X274173D02*
X275768D01*
X261173Y231445D02*
X262768D01*
X267846D02*
X269441D01*
X261173Y221996D02*
X262768D01*
X267846D02*
X269441D01*
X62346Y240752D02*
X63941D01*
X55673D02*
X57268D01*
X62346Y250201D02*
X63941D01*
X55673D02*
X57268D01*
D15*
X197500Y79807D02*
X205371D01*
Y77839D01*
X197500Y69968D01*
Y68000D01*
X205371D01*
X209307Y73904D02*
X217179D01*
D16*
X128500Y29453D02*
Y39450D01*
X133498D01*
X135164Y37783D01*
Y34451D01*
X133498Y32785D01*
X128500D01*
X138497Y29453D02*
X145161Y36117D01*
X148494Y29453D02*
Y39450D01*
X155158Y29453D01*
Y39450D01*
X158490Y36117D02*
X160156D01*
Y34451D01*
X158490D01*
Y36117D01*
Y31119D02*
X160156D01*
Y29453D01*
X158490D01*
Y31119D01*
X176818Y29453D02*
Y39450D01*
X181816D01*
X183482Y37783D01*
Y34451D01*
X181816Y32785D01*
X176818D01*
X186814Y39450D02*
X193479D01*
X190147D01*
Y29453D01*
X196811Y34451D02*
X203476D01*
X206808Y29453D02*
Y39450D01*
X210140Y36117D01*
X213473Y39450D01*
Y29453D01*
X216805Y39450D02*
X220137D01*
X218471D01*
Y29453D01*
X216805D01*
X220137D01*
X231800Y37783D02*
X230134Y39450D01*
X226802D01*
X225135Y37783D01*
Y36117D01*
X226802Y34451D01*
X230134D01*
X231800Y32785D01*
Y31119D01*
X230134Y29453D01*
X226802D01*
X225135Y31119D01*
X235132Y34451D02*
X241797D01*
X245129Y29453D02*
Y39450D01*
X250127D01*
X251794Y37783D01*
Y34451D01*
X250127Y32785D01*
X245129D01*
X261790Y37783D02*
X260124Y39450D01*
X256792D01*
X255126Y37783D01*
Y31119D01*
X256792Y29453D01*
X260124D01*
X261790Y31119D01*
X265123Y39450D02*
Y29453D01*
X270121D01*
X271787Y31119D01*
Y32785D01*
X270121Y34451D01*
X265123D01*
X270121D01*
X271787Y36117D01*
Y37783D01*
X270121Y39450D01*
X265123D01*
X275119Y34451D02*
X281784D01*
X285116Y37783D02*
X286782Y39450D01*
X290114D01*
X291781Y37783D01*
Y31119D01*
X290114Y29453D01*
X286782D01*
X285116Y31119D01*
Y37783D01*
X295113D02*
X296779Y39450D01*
X300111D01*
X301777Y37783D01*
Y31119D01*
X300111Y29453D01*
X296779D01*
X295113Y31119D01*
Y37783D01*
X310108Y29453D02*
Y39450D01*
X305110Y34451D01*
X311774D01*
M02*
