G04*
G04 #@! TF.GenerationSoftware,Altium Limited,Altium Designer,18.1.9 (240)*
G04*
G04 Layer_Color=8388736*
%FSLAX25Y25*%
%MOIN*%
G70*
G01*
G75*
%ADD31O,0.06312X0.02572*%
%ADD32R,0.05328X0.06115*%
%ADD33R,0.06115X0.05328*%
%ADD34R,0.05918X0.06312*%
%ADD35R,0.06312X0.05918*%
%ADD36C,0.06000*%
%ADD37R,0.01784X0.03950*%
%ADD38R,0.07099X0.03517*%
%ADD39R,0.03517X0.07099*%
%ADD40R,0.03950X0.01784*%
G04:AMPARAMS|DCode=41|XSize=90.68mil|YSize=126.11mil|CornerRadius=0mil|HoleSize=0mil|Usage=FLASHONLY|Rotation=110.000|XOffset=0mil|YOffset=0mil|HoleType=Round|Shape=Rectangle|*
%AMROTATEDRECTD41*
4,1,4,0.07476,-0.02104,-0.04375,-0.06417,-0.07476,0.02104,0.04375,0.06417,0.07476,-0.02104,0.0*
%
%ADD41ROTATEDRECTD41*%

G04:AMPARAMS|DCode=42|XSize=39.5mil|YSize=70.99mil|CornerRadius=0mil|HoleSize=0mil|Usage=FLASHONLY|Rotation=110.000|XOffset=0mil|YOffset=0mil|HoleType=Round|Shape=Rectangle|*
%AMROTATEDRECTD42*
4,1,4,0.04011,-0.00642,-0.02660,-0.03070,-0.04011,0.00642,0.02660,0.03070,0.04011,-0.00642,0.0*
%
%ADD42ROTATEDRECTD42*%

G04:AMPARAMS|DCode=43|XSize=90.68mil|YSize=126.11mil|CornerRadius=0mil|HoleSize=0mil|Usage=FLASHONLY|Rotation=225.000|XOffset=0mil|YOffset=0mil|HoleType=Round|Shape=Rectangle|*
%AMROTATEDRECTD43*
4,1,4,-0.01253,0.07665,0.07665,-0.01253,0.01253,-0.07665,-0.07665,0.01253,-0.01253,0.07665,0.0*
%
%ADD43ROTATEDRECTD43*%

G04:AMPARAMS|DCode=44|XSize=39.5mil|YSize=70.99mil|CornerRadius=0mil|HoleSize=0mil|Usage=FLASHONLY|Rotation=225.000|XOffset=0mil|YOffset=0mil|HoleType=Round|Shape=Rectangle|*
%AMROTATEDRECTD44*
4,1,4,-0.01114,0.03906,0.03906,-0.01114,0.01114,-0.03906,-0.03906,0.01114,-0.01114,0.03906,0.0*
%
%ADD44ROTATEDRECTD44*%

%ADD45C,0.35800*%
%ADD46C,0.20485*%
%ADD47C,0.99225*%
%ADD48C,0.05800*%
%ADD49C,0.10642*%
%ADD50C,0.08300*%
%ADD51C,0.06800*%
D31*
X107337Y111679D02*
D03*
Y114238D02*
D03*
Y116797D02*
D03*
Y119356D02*
D03*
Y121915D02*
D03*
Y124475D02*
D03*
Y127034D02*
D03*
Y129593D02*
D03*
Y132152D02*
D03*
Y134711D02*
D03*
Y137270D02*
D03*
Y139829D02*
D03*
X84108Y111679D02*
D03*
Y114238D02*
D03*
Y116797D02*
D03*
Y119356D02*
D03*
Y121915D02*
D03*
Y124475D02*
D03*
Y127034D02*
D03*
Y129593D02*
D03*
Y132152D02*
D03*
Y134711D02*
D03*
Y137270D02*
D03*
Y139829D02*
D03*
D32*
X51417Y120429D02*
D03*
X58307D02*
D03*
X58252Y110929D02*
D03*
X51362D02*
D03*
X136374Y103429D02*
D03*
X129484D02*
D03*
Y93429D02*
D03*
X136374D02*
D03*
X67555Y152504D02*
D03*
X74445D02*
D03*
X52028Y137437D02*
D03*
X58917D02*
D03*
X7945Y188000D02*
D03*
X1055D02*
D03*
X7945Y179000D02*
D03*
X1055D02*
D03*
D33*
X58683Y152809D02*
D03*
Y145919D02*
D03*
X135722Y142809D02*
D03*
Y149699D02*
D03*
X126722D02*
D03*
Y142809D02*
D03*
X145000Y125307D02*
D03*
Y132197D02*
D03*
X144955Y149701D02*
D03*
Y142811D02*
D03*
X305500Y278945D02*
D03*
Y272055D02*
D03*
Y287407D02*
D03*
Y294297D02*
D03*
X318685Y186500D02*
D03*
Y179610D02*
D03*
Y195110D02*
D03*
Y202000D02*
D03*
X7500Y270654D02*
D03*
Y263764D02*
D03*
Y278764D02*
D03*
Y285654D02*
D03*
D34*
X107372Y159254D02*
D03*
X101073D02*
D03*
Y149754D02*
D03*
X107372D02*
D03*
X29260Y328677D02*
D03*
X22961D02*
D03*
X38461D02*
D03*
X44760D02*
D03*
X29110Y293209D02*
D03*
X22811D02*
D03*
D35*
X296307Y329079D02*
D03*
Y322779D02*
D03*
Y307130D02*
D03*
Y313429D02*
D03*
X260307Y328079D02*
D03*
Y321779D02*
D03*
X283307Y231555D02*
D03*
Y237854D02*
D03*
Y222354D02*
D03*
Y216055D02*
D03*
X247585Y230555D02*
D03*
Y236854D02*
D03*
X76807Y254921D02*
D03*
Y248622D02*
D03*
X76807Y233279D02*
D03*
Y239579D02*
D03*
X41339Y255079D02*
D03*
Y248780D02*
D03*
D36*
X260678Y353000D02*
D03*
X324000Y231500D02*
D03*
X108063Y72000D02*
D03*
X108063Y79500D02*
D03*
X38500Y129724D02*
D03*
X50472Y146437D02*
D03*
X66000Y271500D02*
D03*
X306000Y323000D02*
D03*
X39000Y171500D02*
D03*
X18000Y340500D02*
D03*
D37*
X29610Y307957D02*
D03*
X31579D02*
D03*
X33547D02*
D03*
X35516D02*
D03*
X29610Y315398D02*
D03*
X31579D02*
D03*
X33547D02*
D03*
X35516D02*
D03*
D38*
X32563Y311677D02*
D03*
D39*
X278307Y317929D02*
D03*
X265307Y226720D02*
D03*
X59807Y245476D02*
D03*
D40*
X282028Y314976D02*
D03*
Y316945D02*
D03*
Y318913D02*
D03*
Y320882D02*
D03*
X274587Y314976D02*
D03*
Y316945D02*
D03*
Y318913D02*
D03*
Y320882D02*
D03*
X261587Y229673D02*
D03*
Y227705D02*
D03*
Y225736D02*
D03*
Y223768D02*
D03*
X269027Y229673D02*
D03*
Y227705D02*
D03*
Y225736D02*
D03*
Y223768D02*
D03*
X63528Y242524D02*
D03*
Y244492D02*
D03*
Y246461D02*
D03*
Y248429D02*
D03*
X56087Y242524D02*
D03*
Y244492D02*
D03*
Y246461D02*
D03*
Y248429D02*
D03*
D41*
X31346Y100676D02*
D03*
X41580Y72559D02*
D03*
D42*
X27417Y78088D02*
D03*
X25734Y82713D02*
D03*
X24051Y87337D02*
D03*
D43*
X278802Y70840D02*
D03*
X299959Y91997D02*
D03*
D44*
X300934Y76825D02*
D03*
X297454Y73345D02*
D03*
X293974Y69865D02*
D03*
D45*
X144000Y183000D02*
D03*
X193000Y139500D02*
D03*
D46*
X293307Y353150D02*
D03*
X29528D02*
D03*
D47*
X161417Y325591D02*
D03*
D48*
X366929Y91339D02*
D03*
X312992Y420866D02*
D03*
X-44095Y366929D02*
D03*
X37402Y9843D02*
D03*
X9842D02*
D03*
X-44095Y339370D02*
D03*
X285433Y420866D02*
D03*
X366929Y63779D02*
D03*
D49*
X-18898Y129724D02*
D03*
X341732D02*
D03*
X-18898Y300984D02*
D03*
X341732D02*
D03*
D50*
X205472Y383205D02*
D03*
X195473D02*
D03*
X216335D02*
D03*
X226335D02*
D03*
X101335D02*
D03*
X111335D02*
D03*
D51*
X329527Y63779D02*
D03*
Y95276D02*
D03*
X281496Y383465D02*
D03*
X312992D02*
D03*
X-6693Y335433D02*
D03*
Y366929D02*
D03*
X9843Y47244D02*
D03*
X41339D02*
D03*
M02*
