G04*
G04 #@! TF.GenerationSoftware,Altium Limited,Altium Designer,18.1.9 (240)*
G04*
G04 Layer_Color=8421504*
%FSLAX25Y25*%
%MOIN*%
G70*
G01*
G75*
%ADD17O,0.05512X0.01772*%
%ADD18R,0.04528X0.05315*%
%ADD19R,0.05315X0.04528*%
%ADD20R,0.05118X0.05512*%
%ADD21R,0.05512X0.05118*%
%ADD22C,0.05200*%
%ADD23R,0.00984X0.03150*%
%ADD24R,0.06299X0.02717*%
%ADD25R,0.02717X0.06299*%
%ADD26R,0.03150X0.00984*%
G04:AMPARAMS|DCode=27|XSize=82.68mil|YSize=118.11mil|CornerRadius=0mil|HoleSize=0mil|Usage=FLASHONLY|Rotation=110.000|XOffset=0mil|YOffset=0mil|HoleType=Round|Shape=Rectangle|*
%AMROTATEDRECTD27*
4,1,4,0.06963,-0.01865,-0.04135,-0.05904,-0.06963,0.01865,0.04135,0.05904,0.06963,-0.01865,0.0*
%
%ADD27ROTATEDRECTD27*%

G04:AMPARAMS|DCode=28|XSize=31.5mil|YSize=62.99mil|CornerRadius=0mil|HoleSize=0mil|Usage=FLASHONLY|Rotation=110.000|XOffset=0mil|YOffset=0mil|HoleType=Round|Shape=Rectangle|*
%AMROTATEDRECTD28*
4,1,4,0.03498,-0.00403,-0.02421,-0.02557,-0.03498,0.00403,0.02421,0.02557,0.03498,-0.00403,0.0*
%
%ADD28ROTATEDRECTD28*%

G04:AMPARAMS|DCode=29|XSize=82.68mil|YSize=118.11mil|CornerRadius=0mil|HoleSize=0mil|Usage=FLASHONLY|Rotation=225.000|XOffset=0mil|YOffset=0mil|HoleType=Round|Shape=Rectangle|*
%AMROTATEDRECTD29*
4,1,4,-0.01253,0.07099,0.07099,-0.01253,0.01253,-0.07099,-0.07099,0.01253,-0.01253,0.07099,0.0*
%
%ADD29ROTATEDRECTD29*%

G04:AMPARAMS|DCode=30|XSize=31.5mil|YSize=62.99mil|CornerRadius=0mil|HoleSize=0mil|Usage=FLASHONLY|Rotation=225.000|XOffset=0mil|YOffset=0mil|HoleType=Round|Shape=Rectangle|*
%AMROTATEDRECTD30*
4,1,4,-0.01114,0.03341,0.03341,-0.01114,0.01114,-0.03341,-0.03341,0.01114,-0.01114,0.03341,0.0*
%
%ADD30ROTATEDRECTD30*%

D17*
X107337Y111679D02*
D03*
Y114238D02*
D03*
Y116797D02*
D03*
Y119356D02*
D03*
Y121915D02*
D03*
Y124475D02*
D03*
Y127034D02*
D03*
Y129593D02*
D03*
Y132152D02*
D03*
Y134711D02*
D03*
Y137270D02*
D03*
Y139829D02*
D03*
X84108Y111679D02*
D03*
Y114238D02*
D03*
Y116797D02*
D03*
Y119356D02*
D03*
Y121915D02*
D03*
Y124475D02*
D03*
Y127034D02*
D03*
Y129593D02*
D03*
Y132152D02*
D03*
Y134711D02*
D03*
Y137270D02*
D03*
Y139829D02*
D03*
D18*
X51417Y120429D02*
D03*
X58307D02*
D03*
X58252Y110929D02*
D03*
X51362D02*
D03*
X136374Y103429D02*
D03*
X129484D02*
D03*
Y93429D02*
D03*
X136374D02*
D03*
X67555Y152504D02*
D03*
X74445D02*
D03*
X52028Y137437D02*
D03*
X58917D02*
D03*
X7945Y188000D02*
D03*
X1055D02*
D03*
X7945Y179000D02*
D03*
X1055D02*
D03*
D19*
X58683Y152809D02*
D03*
Y145919D02*
D03*
X135722Y142809D02*
D03*
Y149699D02*
D03*
X126722D02*
D03*
Y142809D02*
D03*
X145000Y125307D02*
D03*
Y132197D02*
D03*
X144955Y149701D02*
D03*
Y142811D02*
D03*
X305500Y278945D02*
D03*
Y272055D02*
D03*
Y287407D02*
D03*
Y294297D02*
D03*
X318685Y186500D02*
D03*
Y179610D02*
D03*
Y195110D02*
D03*
Y202000D02*
D03*
X7500Y270654D02*
D03*
Y263764D02*
D03*
Y278764D02*
D03*
Y285654D02*
D03*
D20*
X107372Y159254D02*
D03*
X101073D02*
D03*
Y149754D02*
D03*
X107372D02*
D03*
X29260Y328677D02*
D03*
X22961D02*
D03*
X38461D02*
D03*
X44760D02*
D03*
X29110Y293209D02*
D03*
X22811D02*
D03*
D21*
X296307Y329079D02*
D03*
Y322779D02*
D03*
Y307130D02*
D03*
Y313429D02*
D03*
X260307Y328079D02*
D03*
Y321779D02*
D03*
X283307Y231555D02*
D03*
Y237854D02*
D03*
Y222354D02*
D03*
Y216055D02*
D03*
X247585Y230555D02*
D03*
Y236854D02*
D03*
X76807Y254921D02*
D03*
Y248622D02*
D03*
X76807Y233279D02*
D03*
Y239579D02*
D03*
X41339Y255079D02*
D03*
Y248780D02*
D03*
D22*
X260678Y353000D02*
D03*
X324000Y231500D02*
D03*
X108063Y72000D02*
D03*
X108063Y79500D02*
D03*
X38500Y129724D02*
D03*
X50472Y146437D02*
D03*
X66000Y271500D02*
D03*
X306000Y323000D02*
D03*
X39000Y171500D02*
D03*
X18000Y340500D02*
D03*
D23*
X29610Y307957D02*
D03*
X31579D02*
D03*
X33547D02*
D03*
X35516D02*
D03*
X29610Y315398D02*
D03*
X31579D02*
D03*
X33547D02*
D03*
X35516D02*
D03*
D24*
X32563Y311677D02*
D03*
D25*
X278307Y317929D02*
D03*
X265307Y226720D02*
D03*
X59807Y245476D02*
D03*
D26*
X282028Y314976D02*
D03*
Y316945D02*
D03*
Y318913D02*
D03*
Y320882D02*
D03*
X274587Y314976D02*
D03*
Y316945D02*
D03*
Y318913D02*
D03*
Y320882D02*
D03*
X261587Y229673D02*
D03*
Y227705D02*
D03*
Y225736D02*
D03*
Y223768D02*
D03*
X269027Y229673D02*
D03*
Y227705D02*
D03*
Y225736D02*
D03*
Y223768D02*
D03*
X63528Y242524D02*
D03*
Y244492D02*
D03*
Y246461D02*
D03*
Y248429D02*
D03*
X56087Y242524D02*
D03*
Y244492D02*
D03*
Y246461D02*
D03*
Y248429D02*
D03*
D27*
X31346Y100676D02*
D03*
X41580Y72559D02*
D03*
D28*
X27417Y78088D02*
D03*
X25734Y82713D02*
D03*
X24051Y87337D02*
D03*
D29*
X278802Y70840D02*
D03*
X299959Y91997D02*
D03*
D30*
X300934Y76825D02*
D03*
X297454Y73345D02*
D03*
X293974Y69865D02*
D03*
M02*
