G04*
G04 #@! TF.GenerationSoftware,Altium Limited,Altium Designer,18.1.9 (240)*
G04*
G04 Layer_Physical_Order=2*
G04 Layer_Color=16711680*
%FSLAX25Y25*%
%MOIN*%
G70*
G01*
G75*
%ADD36C,0.06000*%
%ADD52C,0.03000*%
%ADD53C,0.01500*%
%ADD56C,0.35000*%
%ADD57C,0.19685*%
%ADD58C,0.98425*%
%ADD59C,0.05000*%
%ADD60C,0.09843*%
%ADD61C,0.07500*%
%ADD62C,0.02000*%
%ADD63R,0.31496X0.27559*%
%ADD64R,1.96850X0.27559*%
%ADD65R,1.96850X0.19685*%
%ADD66R,0.06299X0.03150*%
%ADD67R,0.06299X0.03937*%
%ADD68R,0.07087X0.04331*%
%ADD69R,0.04331X0.03543*%
%ADD70R,0.04331X0.07087*%
%ADD71R,0.03543X0.04331*%
%ADD72C,0.10000*%
G36*
X115472Y371437D02*
X90473D01*
Y303937D01*
X40472D01*
Y371437D01*
Y396437D01*
X115472D01*
Y371437D01*
D02*
G37*
G36*
X230085Y257772D02*
X215063D01*
Y265272D01*
X222585D01*
Y388772D01*
X230085D01*
Y257772D01*
D02*
G37*
G36*
X253060Y209465D02*
X251445Y207849D01*
X53294Y207849D01*
X53103Y208311D01*
X58063Y213272D01*
X84348D01*
Y213189D01*
X116844D01*
Y213272D01*
X207085D01*
Y213187D01*
X239581D01*
Y213272D01*
X253060D01*
Y209465D01*
D02*
G37*
G36*
X262198Y162937D02*
X262198Y162937D01*
Y107465D01*
X259437Y104704D01*
X145935D01*
X145784Y105204D01*
X146081Y105403D01*
X146413Y105899D01*
X146529Y106484D01*
X146413Y107069D01*
X146081Y107565D01*
X145585Y107897D01*
X145000Y108013D01*
X144415Y107897D01*
X144208Y107758D01*
X118275D01*
X117788Y107661D01*
X117374Y107385D01*
X108035Y98046D01*
X65855D01*
X65648Y98185D01*
X65063Y98301D01*
X64478Y98185D01*
X64270Y98046D01*
X61563D01*
X61075Y97949D01*
X60662Y97673D01*
X58071Y95082D01*
X57795Y94669D01*
X57698Y94181D01*
Y55772D01*
X55338D01*
Y125645D01*
X55476Y125852D01*
X55592Y126437D01*
X55476Y127022D01*
X55144Y127518D01*
X54648Y127850D01*
X54063Y127966D01*
X53478Y127850D01*
X52982Y127518D01*
X52650Y127022D01*
X52534Y126437D01*
X52650Y125852D01*
X52789Y125645D01*
Y55772D01*
X51747D01*
Y60937D01*
X51650Y61425D01*
X51374Y61838D01*
X48374Y64838D01*
X47960Y65114D01*
X47473Y65211D01*
X4563D01*
Y159772D01*
X6236Y161445D01*
X6698Y161253D01*
Y148807D01*
X6795Y148319D01*
X7071Y147906D01*
X9441Y145536D01*
X9855Y145259D01*
X10342Y145162D01*
X43680D01*
X43887Y145024D01*
X44473Y144908D01*
X45058Y145024D01*
X45554Y145356D01*
X45885Y145852D01*
X46002Y146437D01*
X45885Y147022D01*
X45554Y147518D01*
X45058Y147850D01*
X44473Y147966D01*
X43887Y147850D01*
X43680Y147712D01*
X10870D01*
X9247Y149335D01*
Y164456D01*
X46236Y201445D01*
X46698Y201253D01*
Y133621D01*
X44132Y131054D01*
X43887Y131006D01*
X43391Y130674D01*
X43060Y130178D01*
X42943Y129593D01*
X43060Y129007D01*
X43391Y128511D01*
X43887Y128180D01*
X44473Y128063D01*
X45058Y128180D01*
X45554Y128511D01*
X45885Y129007D01*
X45934Y129252D01*
X48874Y132191D01*
X49150Y132605D01*
X49247Y133093D01*
Y203409D01*
X51138Y205300D01*
X251973Y205300D01*
X252460Y205397D01*
X252874Y205674D01*
X255236Y208036D01*
X255512Y208449D01*
X255609Y208937D01*
Y213272D01*
X262198D01*
Y162937D01*
D02*
G37*
G36*
X266060Y102327D02*
X256779Y93046D01*
X108855D01*
X108648Y93185D01*
X108063Y93301D01*
X107478Y93185D01*
X106982Y92853D01*
X106650Y92357D01*
X106534Y91772D01*
X106650Y91186D01*
X106982Y90690D01*
X107478Y90359D01*
X108063Y90242D01*
X108648Y90359D01*
X108855Y90497D01*
X257307D01*
X257795Y90594D01*
X258208Y90870D01*
X268236Y100898D01*
X268512Y101311D01*
X268609Y101799D01*
X268609Y210572D01*
X269071Y210764D01*
X288646Y191189D01*
Y89224D01*
X288801Y88444D01*
X289243Y87783D01*
X292964Y84062D01*
X293625Y83620D01*
X294406Y83465D01*
X319563D01*
Y75330D01*
X317071Y72838D01*
X316795Y72425D01*
X316698Y71937D01*
Y55772D01*
X60247D01*
Y93653D01*
X62091Y95497D01*
X64270D01*
X64478Y95359D01*
X65063Y95242D01*
X65648Y95359D01*
X65855Y95497D01*
X108563D01*
X109051Y95594D01*
X109464Y95871D01*
X118803Y105210D01*
X119545D01*
X119697Y104709D01*
X119399Y104511D01*
X119067Y104014D01*
X118951Y103429D01*
X119067Y102844D01*
X119399Y102348D01*
X119895Y102016D01*
X120480Y101900D01*
X121066Y102016D01*
X121273Y102155D01*
X259965D01*
X260452Y102252D01*
X260866Y102528D01*
X264374Y106036D01*
X264650Y106449D01*
X264747Y106937D01*
Y162937D01*
X264747Y162937D01*
Y213272D01*
X266060D01*
X266060Y102327D01*
D02*
G37*
G36*
X319563Y160272D02*
Y87543D01*
X295250D01*
X292724Y90069D01*
Y186457D01*
X293186Y186649D01*
X319563Y160272D01*
D02*
G37*
G36*
X49198Y60409D02*
Y55772D01*
X11882D01*
Y56067D01*
X11727Y56847D01*
X11284Y57509D01*
X8414Y60379D01*
X7753Y60821D01*
X6972Y60976D01*
X4563D01*
Y62663D01*
X46945D01*
X49198Y60409D01*
D02*
G37*
%LPC*%
G36*
X101335Y387491D02*
X100225Y387345D01*
X99191Y386917D01*
X98303Y386236D01*
X97622Y385348D01*
X97194Y384314D01*
X97048Y383205D01*
X97194Y382095D01*
X97622Y381061D01*
X98303Y380174D01*
X99191Y379492D01*
X100225Y379064D01*
X101335Y378918D01*
X102444Y379064D01*
X103478Y379492D01*
X104366Y380174D01*
X105047Y381061D01*
X105475Y382095D01*
X105621Y383205D01*
X105475Y384314D01*
X105047Y385348D01*
X104366Y386236D01*
X103478Y386917D01*
X102444Y387345D01*
X101335Y387491D01*
D02*
G37*
G36*
X76027Y178301D02*
X75441Y178185D01*
X74945Y177853D01*
X74614Y177357D01*
X74497Y176772D01*
X74614Y176186D01*
X74752Y175979D01*
Y161808D01*
X74849Y161320D01*
X75125Y160907D01*
X77679Y158353D01*
X78093Y158077D01*
X78581Y157980D01*
X100280D01*
X100487Y157841D01*
X101073Y157725D01*
X101658Y157841D01*
X102154Y158173D01*
X102486Y158669D01*
X102602Y159254D01*
X102486Y159839D01*
X102154Y160336D01*
X101658Y160667D01*
X101073Y160783D01*
X100487Y160667D01*
X100280Y160529D01*
X79109D01*
X77301Y162336D01*
Y175979D01*
X77440Y176186D01*
X77556Y176772D01*
X77440Y177357D01*
X77108Y177853D01*
X76612Y178185D01*
X76027Y178301D01*
D02*
G37*
G36*
X52028Y201911D02*
X51442Y201795D01*
X50946Y201463D01*
X50615Y200967D01*
X50498Y200382D01*
X50615Y199797D01*
X50753Y199589D01*
Y138230D01*
X50615Y138022D01*
X50498Y137437D01*
X50615Y136852D01*
X50946Y136356D01*
X51442Y136024D01*
X52028Y135908D01*
X52613Y136024D01*
X53109Y136356D01*
X53441Y136852D01*
X53557Y137437D01*
X53441Y138022D01*
X53302Y138230D01*
Y199589D01*
X53441Y199797D01*
X53557Y200382D01*
X53441Y200967D01*
X53109Y201463D01*
X52613Y201795D01*
X52028Y201911D01*
D02*
G37*
G36*
X58563Y195466D02*
X57978Y195350D01*
X57481Y195018D01*
X57150Y194522D01*
X57034Y193937D01*
X57150Y193352D01*
X57288Y193145D01*
Y105429D01*
X57385Y104941D01*
X57662Y104528D01*
X60654Y101536D01*
X61067Y101260D01*
X61555Y101163D01*
X107180D01*
X107387Y101024D01*
X107973Y100908D01*
X108558Y101024D01*
X109054Y101356D01*
X109385Y101852D01*
X109502Y102437D01*
X109385Y103022D01*
X109054Y103518D01*
X108558Y103850D01*
X107973Y103966D01*
X107387Y103850D01*
X107180Y103711D01*
X62083D01*
X59838Y105957D01*
Y193145D01*
X59976Y193352D01*
X60092Y193937D01*
X59976Y194522D01*
X59644Y195018D01*
X59148Y195350D01*
X58563Y195466D01*
D02*
G37*
%LPD*%
D36*
X329527Y63779D02*
D03*
Y95276D02*
D03*
X281496Y383465D02*
D03*
X312992D02*
D03*
X-6693Y335433D02*
D03*
Y366929D02*
D03*
X9843Y47244D02*
D03*
X41339D02*
D03*
D52*
X-7028Y61937D02*
Y335099D01*
X193835Y383205D02*
X194653Y382386D01*
X14921Y255079D02*
X41339D01*
X12500Y257500D02*
X14921Y255079D01*
X12500Y257500D02*
Y328500D01*
Y374500D01*
X14937Y376937D02*
X22973D01*
X12500Y374500D02*
X14937Y376937D01*
X205472Y383205D02*
X216335D01*
X292437Y307437D02*
X303850D01*
X290835Y305835D02*
X292437Y307437D01*
X290835Y237854D02*
Y305835D01*
X97973Y266561D02*
X100724Y263809D01*
X107500D01*
X124740Y383205D02*
X193835Y383205D01*
X120473Y378937D02*
X124740Y383205D01*
X232720Y236854D02*
X247585D01*
X9843Y47244D02*
Y56067D01*
X6972Y58937D02*
X9843Y56067D01*
X-4028Y58937D02*
X6972D01*
X-7028Y61937D02*
X-4028Y58937D01*
X-7028Y335099D02*
X-6693Y335433D01*
X9843Y23567D02*
Y47244D01*
X12472Y20937D02*
X29473D01*
X9843Y23567D02*
X12472Y20937D01*
X29473D02*
X31472Y22937D01*
Y27724D01*
X120473Y363937D02*
Y378937D01*
X117973Y361437D02*
X120473Y363937D01*
X100472Y361437D02*
X117973D01*
X97973Y358937D02*
X100472Y361437D01*
X97973Y266561D02*
Y358937D01*
X45472Y307937D02*
X82973D01*
X303850Y307437D02*
Y330315D01*
X290685Y216055D02*
Y237705D01*
X294406Y85504D02*
X341134D01*
X290685Y89224D02*
X294406Y85504D01*
X290685Y89224D02*
Y216055D01*
X341134Y85504D02*
X349252D01*
X85972Y310937D02*
Y388937D01*
X82973Y307937D02*
X85972Y310937D01*
X88472Y391437D02*
X107973D01*
X85972Y388937D02*
X88472Y391437D01*
X107973D02*
X111335Y388075D01*
Y381705D02*
Y388075D01*
X-26307Y337488D02*
Y345504D01*
Y337488D02*
X-24252Y335433D01*
X-6693D01*
X283913Y403283D02*
X291472D01*
X281496Y400866D02*
X283913Y403283D01*
X281496Y383465D02*
Y400866D01*
D53*
X7972Y148807D02*
Y241937D01*
X130500Y217500D02*
Y228398D01*
X177835Y217500D02*
Y226264D01*
X165000Y217500D02*
Y228000D01*
X162406Y230594D02*
X165000Y228000D01*
X146280Y230594D02*
X162406D01*
X177835Y226264D02*
Y230594D01*
X130500Y228398D02*
X130531Y228429D01*
X193583Y228429D02*
Y235000D01*
X191146Y237437D02*
X193583Y235000D01*
X133000Y237437D02*
X191146D01*
X130531Y234969D02*
X133000Y237437D01*
X130531Y228429D02*
Y234969D01*
X267000Y337500D02*
X305000D01*
X263473Y333973D02*
X267000Y337500D01*
X263473Y162937D02*
X263473Y333973D01*
X307500Y340000D02*
Y398256D01*
X305000Y337500D02*
X307500Y340000D01*
X302472Y403283D02*
X307500Y398256D01*
X318685Y179610D02*
X337500D01*
X254335Y217437D02*
Y225705D01*
Y208937D02*
Y217437D01*
X320000Y272000D02*
Y337500D01*
X198445Y402500D02*
X272500D01*
X195473Y399528D02*
X198445Y402500D01*
X7500Y255079D02*
X7500Y400000D01*
X10000Y402500D01*
X195473Y383205D02*
Y399528D01*
X192500Y402500D02*
X195473Y399528D01*
X10000Y402500D02*
X192500Y402500D01*
X54063Y38772D02*
Y126437D01*
X51728Y36437D02*
X54063Y38772D01*
X22973Y36437D02*
X51728D01*
X218563Y261772D02*
X223333D01*
X226335Y264774D01*
X226335Y383205D01*
X78581Y159254D02*
X101073D01*
X76027Y161808D02*
X78581Y159254D01*
X76027Y161808D02*
Y176772D01*
X58563Y105429D02*
Y193937D01*
X61555Y102437D02*
X107973D01*
X58563Y105429D02*
X61555Y102437D01*
X118275Y106484D02*
X145000D01*
X108563Y96772D02*
X118275Y106484D01*
X65063Y96772D02*
X108563D01*
X61563D02*
X65063D01*
X58973Y94181D02*
X61563Y96772D01*
X58973Y30437D02*
Y94181D01*
X257307Y91772D02*
X267335Y101799D01*
X108063Y91772D02*
X257307D01*
X52028Y137437D02*
Y200382D01*
X47973Y203937D02*
X50610Y206575D01*
X47973Y133093D02*
Y203937D01*
X50610Y206575D02*
X251973Y206575D01*
X44473Y129593D02*
X47973Y133093D01*
X56260Y27724D02*
X58973Y30437D01*
X31472Y27724D02*
X56260D01*
X5472Y248937D02*
X47973D01*
X50472Y251437D01*
Y258937D01*
X47973Y261437D02*
X50472Y258937D01*
X36472Y261437D02*
X47973D01*
X33547Y264362D02*
X36472Y261437D01*
X223333Y227467D02*
X232720Y236854D01*
X263473Y106937D02*
Y162937D01*
X259965Y103429D02*
X263473Y106937D01*
X120480Y103429D02*
X259965D01*
X267335Y101799D02*
X267335Y316945D01*
X10342Y146437D02*
X44473D01*
X50472Y41437D02*
Y60937D01*
X47473Y63937D02*
X50472Y60937D01*
X3472Y63937D02*
X47473D01*
X972Y66437D02*
X3472Y63937D01*
X972Y66437D02*
Y353937D01*
X-1595Y356504D02*
X972Y353937D01*
X-26307Y356504D02*
X-1595D01*
X317972Y51437D02*
Y71937D01*
X315473Y48937D02*
X317972Y51437D01*
X64973Y48937D02*
X315473D01*
X320539Y74504D02*
X349252D01*
X317972Y71937D02*
X320539Y74504D01*
X20472Y33937D02*
X22973Y36437D01*
X20472Y27724D02*
Y33937D01*
X251973Y206575D02*
X254335Y208937D01*
X7972Y148807D02*
X10342Y146437D01*
X7972Y241937D02*
X10528Y244492D01*
X48528D01*
X146280Y226264D02*
Y230594D01*
X33547Y264362D02*
Y302705D01*
D56*
X144000Y183000D02*
D03*
X193000Y139500D02*
D03*
D57*
X293307Y353150D02*
D03*
X29528D02*
D03*
D58*
X161417Y325591D02*
D03*
D59*
X366929Y91339D02*
D03*
X312992Y420866D02*
D03*
X-44095Y366929D02*
D03*
X37402Y9843D02*
D03*
X9842D02*
D03*
X-44095Y339370D02*
D03*
X285433Y420866D02*
D03*
X366929Y63779D02*
D03*
D60*
X-18898Y129724D02*
D03*
X341732D02*
D03*
X-18898Y300984D02*
D03*
X341732D02*
D03*
D61*
X205472Y383205D02*
D03*
X195473D02*
D03*
X216335D02*
D03*
X226335D02*
D03*
X101335D02*
D03*
X111335D02*
D03*
D62*
X130500Y217500D02*
D03*
X177835D02*
D03*
X165000D02*
D03*
X12500Y328500D02*
D03*
X7945Y179000D02*
D03*
X318685Y179610D02*
D03*
X337500D02*
D03*
X254335Y217437D02*
D03*
X267358Y287407D02*
D03*
X320000Y272000D02*
D03*
Y337500D02*
D03*
X272500Y402500D02*
D03*
X-7000Y167055D02*
D03*
X7500Y255079D02*
D03*
X107500Y263809D02*
D03*
X64063Y225437D02*
D03*
X66563D02*
D03*
X69063D02*
D03*
X71563D02*
D03*
X74063D02*
D03*
X216335Y196272D02*
D03*
X218563D02*
D03*
X220948D02*
D03*
Y193937D02*
D03*
X218563Y193937D02*
D03*
X216335Y193937D02*
D03*
Y191772D02*
D03*
X220948D02*
D03*
X216335Y259272D02*
D03*
Y261772D02*
D03*
X218563Y259272D02*
D03*
X220948D02*
D03*
Y261772D02*
D03*
X54063Y126437D02*
D03*
X28063Y217437D02*
D03*
Y219937D02*
D03*
Y222437D02*
D03*
X32644Y224937D02*
D03*
X28063D02*
D03*
Y227461D02*
D03*
X32563Y217437D02*
D03*
X32644Y219937D02*
D03*
Y222437D02*
D03*
Y227461D02*
D03*
X168563Y76772D02*
D03*
Y124272D02*
D03*
X218563Y191772D02*
D03*
Y261772D02*
D03*
X76027Y176772D02*
D03*
X58563Y193937D02*
D03*
X65063Y96772D02*
D03*
X108063Y91772D02*
D03*
X101073Y159254D02*
D03*
X30419Y217437D02*
D03*
Y219937D02*
D03*
Y222437D02*
D03*
Y224937D02*
D03*
Y227461D02*
D03*
X52028Y200382D02*
D03*
Y137437D02*
D03*
X145000Y106484D02*
D03*
X5472Y248937D02*
D03*
X76473Y225437D02*
D03*
X41339Y255079D02*
D03*
X22973Y376937D02*
D03*
X247585Y236854D02*
D03*
X120480Y103429D02*
D03*
X44473Y146437D02*
D03*
X64973Y48937D02*
D03*
X107973Y102437D02*
D03*
X50472Y41437D02*
D03*
X48528Y244492D02*
D03*
X44473Y129593D02*
D03*
X303850Y307437D02*
D03*
X290835Y237854D02*
D03*
X303850Y330315D02*
D03*
X45472Y307957D02*
D03*
X33547Y302705D02*
D03*
X254335Y225705D02*
D03*
X267335Y316945D02*
D03*
X341134Y85504D02*
D03*
X290685Y216055D02*
D03*
D63*
X30419Y227468D02*
D03*
X100596D02*
D03*
X223333Y227467D02*
D03*
D64*
X161417Y123937D02*
D03*
D65*
Y78437D02*
D03*
Y193237D02*
D03*
D66*
X177835Y230594D02*
D03*
Y226264D02*
D03*
X146280Y226264D02*
D03*
Y230594D02*
D03*
D67*
X193583Y228429D02*
D03*
X130531Y228429D02*
D03*
D68*
X20472Y27724D02*
D03*
X31472Y27724D02*
D03*
X302472Y403283D02*
D03*
X291472Y403283D02*
D03*
D69*
X17972Y16504D02*
D03*
X33972D02*
D03*
X304972Y414504D02*
D03*
X288972D02*
D03*
D70*
X349252Y74504D02*
D03*
X349252Y85504D02*
D03*
X-26307Y356504D02*
D03*
X-26307Y345504D02*
D03*
D71*
X360472Y72004D02*
D03*
Y88004D02*
D03*
X-37528Y359004D02*
D03*
Y343004D02*
D03*
D72*
X30419Y227461D02*
X100596D01*
Y227468D02*
Y245061D01*
Y227461D02*
Y227468D01*
X223333Y227467D02*
Y245077D01*
X105973Y250437D02*
X217972D01*
X100596Y245061D02*
X105973Y250437D01*
X217972D02*
X223333Y245077D01*
M02*
