G04*
G04 #@! TF.GenerationSoftware,Altium Limited,Altium Designer,18.1.9 (240)*
G04*
G04 Layer_Color=32896*
%FSLAX25Y25*%
%MOIN*%
G70*
G01*
G75*
%ADD13C,0.00591*%
%ADD82C,0.01181*%
%ADD83C,0.01000*%
%ADD84C,0.01968*%
G36*
X289612Y329936D02*
X288689Y327398D01*
X287766Y325092D01*
X286959Y322900D01*
X286267Y320824D01*
X285459Y318863D01*
X284882Y317133D01*
X284191Y315403D01*
X283614Y313904D01*
X283037Y312520D01*
X282576Y311136D01*
X281653Y308829D01*
X280961Y306983D01*
X280269Y305368D01*
X279808Y304215D01*
X279462Y303177D01*
X279116Y302485D01*
X278885Y302024D01*
X278769Y301678D01*
X278654Y301562D01*
Y301447D01*
X272887D01*
X262160Y329474D01*
Y329936D01*
X262276Y330051D01*
X262391Y330167D01*
X267928D01*
X268043Y330051D01*
X268158Y329936D01*
X268389Y329244D01*
X268850Y328206D01*
X269312Y326822D01*
X269888Y325207D01*
X270580Y323361D01*
X271272Y321401D01*
X271964Y319440D01*
X272656Y317364D01*
X273233Y315403D01*
X273925Y313558D01*
X274387Y311943D01*
X274848Y310559D01*
X275194Y309521D01*
X275425Y308829D01*
X275540Y308713D01*
Y308598D01*
X276001D01*
X276693Y310559D01*
X277270Y312404D01*
X277847Y314134D01*
X278308Y315749D01*
X279346Y318633D01*
X280154Y321055D01*
X280846Y323131D01*
X281538Y324861D01*
X281999Y326360D01*
X282460Y327514D01*
X282806Y328321D01*
X283037Y329013D01*
X283268Y329474D01*
X283383Y329820D01*
X283498Y330051D01*
X283614Y330167D01*
X289381D01*
X289612Y329936D01*
D02*
G37*
G36*
X315563Y329705D02*
Y314480D01*
X315448Y312058D01*
X314986Y309982D01*
X314410Y308252D01*
X313718Y306637D01*
X312795Y305368D01*
X311757Y304330D01*
X310603Y303408D01*
X309450Y302716D01*
X308412Y302139D01*
X307259Y301678D01*
X306220Y301447D01*
X305298Y301216D01*
X304606Y301101D01*
X303914Y300986D01*
X302760D01*
X300799Y301101D01*
X299877Y301216D01*
X298954Y301447D01*
X298262Y301562D01*
X297685Y301678D01*
X297339Y301793D01*
X297224D01*
X296071Y302370D01*
X295032Y303177D01*
X294225Y303984D01*
X293418Y304792D01*
X292726Y305715D01*
X292264Y306637D01*
X291457Y308483D01*
X290996Y310213D01*
X290765Y311712D01*
X290650Y312174D01*
Y312635D01*
Y312866D01*
Y312981D01*
Y329705D01*
X290996Y330167D01*
X295840D01*
X296186Y329705D01*
Y317133D01*
X296647Y310674D01*
X297339Y309175D01*
X298262Y308021D01*
X299300Y307329D01*
X300338Y306752D01*
X301261Y306406D01*
X302068Y306291D01*
X302530Y306176D01*
X302760D01*
X304029Y306291D01*
X305067Y306522D01*
X305990Y306868D01*
X306797Y307445D01*
X307374Y308021D01*
X307950Y308713D01*
X308758Y310097D01*
X309335Y311597D01*
X309565Y312750D01*
X309681Y313327D01*
Y313673D01*
Y313904D01*
Y314019D01*
Y329705D01*
X310027Y330167D01*
X315217D01*
X315563Y329705D01*
D02*
G37*
G36*
X252357Y330167D02*
X254317Y329474D01*
X256048Y328667D01*
X257547Y327744D01*
X258816Y326706D01*
X259854Y325553D01*
X260776Y324400D01*
X261584Y323131D01*
X262160Y321977D01*
X262622Y320824D01*
X262968Y319786D01*
X263199Y318748D01*
X263314Y317825D01*
X263429Y317133D01*
X263545Y316556D01*
Y316210D01*
Y316095D01*
Y315518D01*
X263429Y313096D01*
X263199Y312058D01*
X262968Y311136D01*
X262853Y310328D01*
X262622Y309751D01*
X262507Y309405D01*
Y309290D01*
X261814Y307791D01*
X261007Y306522D01*
X259969Y305484D01*
X258931Y304446D01*
X257778Y303638D01*
X256624Y303062D01*
X255356Y302485D01*
X254202Y302024D01*
X252011Y301447D01*
X250973Y301216D01*
X250050Y301101D01*
X249358D01*
X248781Y300986D01*
X247858D01*
X245552Y301101D01*
X243706Y301447D01*
X241976Y302024D01*
X240707Y302600D01*
X239669Y303062D01*
X238977Y303638D01*
X238516Y303984D01*
X238401Y304100D01*
Y317133D01*
X238747Y317479D01*
X248320D01*
X248666Y317133D01*
Y312981D01*
X243937D01*
Y306983D01*
X244052Y306752D01*
X244514Y306522D01*
X245206Y306406D01*
X245898Y306291D01*
X246590D01*
X247282Y306176D01*
X247858D01*
X249127Y306291D01*
X249935D01*
X250626Y306406D01*
X251088Y306522D01*
X251319Y306637D01*
X251434D01*
X251549Y306752D01*
X252587Y307214D01*
X253510Y307675D01*
X254317Y308252D01*
X255010Y308944D01*
X256048Y310328D01*
X256740Y311943D01*
X257201Y313327D01*
X257432Y314480D01*
X257547Y314942D01*
Y315288D01*
Y315518D01*
Y315634D01*
X257201Y318979D01*
X256740Y320132D01*
X256163Y321170D01*
X255471Y321977D01*
X254779Y322670D01*
X253279Y323823D01*
X251895Y324630D01*
X250511Y325092D01*
X249358Y325322D01*
X248896Y325438D01*
X248320D01*
X246705Y325322D01*
X245206Y325092D01*
X243937Y324746D01*
X242783Y324284D01*
X241861Y323823D01*
X241169Y323477D01*
X240707Y323246D01*
X240592Y323131D01*
X240361Y323361D01*
X240015Y323823D01*
X239669Y324515D01*
X239208Y325322D01*
X238862Y326014D01*
X238516Y326706D01*
X238285Y327168D01*
X238170Y327398D01*
X239669Y328436D01*
X241169Y329244D01*
X242668Y329705D01*
X244052Y330167D01*
X245321Y330397D01*
X246359Y330513D01*
X248666D01*
X252357Y330167D01*
D02*
G37*
G36*
X315563Y296718D02*
X315217Y296257D01*
X238401D01*
X238170Y296487D01*
X238516Y296833D01*
X315448D01*
X315563Y296718D01*
D02*
G37*
G36*
X306682Y291066D02*
Y283223D01*
X306336Y282877D01*
X305874Y283223D01*
Y289682D01*
X305759D01*
X304952Y288529D01*
X304144Y287606D01*
X303568Y286683D01*
X302991Y285991D01*
X302068Y284723D01*
X301261Y283915D01*
X300799Y283338D01*
X300569Y283108D01*
X300338Y282877D01*
X300107D01*
X299761Y283223D01*
Y291066D01*
X300107Y291528D01*
X300569Y291066D01*
Y284492D01*
X306105Y291528D01*
X306336D01*
X306682Y291066D01*
D02*
G37*
G36*
X295609Y291297D02*
X295032Y289798D01*
X294571Y288529D01*
X294110Y287375D01*
X293648Y286453D01*
X293302Y285645D01*
X293072Y284953D01*
X292726Y284377D01*
X292495Y283915D01*
X292264Y283338D01*
X292034Y282993D01*
X291918Y282877D01*
X291688D01*
X291457Y283108D01*
X291226Y283569D01*
X290650Y284607D01*
X290073Y285991D01*
X289381Y287491D01*
X288804Y288875D01*
X288343Y290144D01*
X288112Y290605D01*
X287997Y290951D01*
X287881Y291182D01*
Y291297D01*
X288112D01*
X288343Y291528D01*
X288573D01*
X288689Y291412D01*
X288804Y291182D01*
X289035Y290836D01*
X289265Y290374D01*
X289727Y289106D01*
X290303Y287837D01*
X290765Y286453D01*
X291226Y285184D01*
X291457Y284723D01*
X291572Y284377D01*
X291688Y284146D01*
Y284031D01*
X291918D01*
X292380Y285299D01*
X292726Y286453D01*
X293187Y287491D01*
X293418Y288414D01*
X293764Y289106D01*
X293994Y289682D01*
X294340Y290605D01*
X294686Y291182D01*
X294802Y291412D01*
X294917Y291528D01*
X295378D01*
X295609Y291297D01*
D02*
G37*
G36*
X315563Y291066D02*
Y286799D01*
X315448Y285415D01*
X314986Y284377D01*
X314410Y283684D01*
X313833Y283223D01*
X313141Y282877D01*
X312680Y282762D01*
X312218Y282646D01*
X312103D01*
X310949Y282877D01*
X310142Y283223D01*
X309450Y283800D01*
X309104Y284377D01*
X308873Y284953D01*
X308643Y285415D01*
Y285761D01*
Y285876D01*
Y291066D01*
X308989Y291528D01*
X309450Y291066D01*
Y286337D01*
X309565Y285530D01*
X309796Y284838D01*
X310257Y284261D01*
X310603Y283915D01*
X311065Y283684D01*
X311526Y283569D01*
X311757Y283454D01*
X311872D01*
X312795Y283569D01*
X313487Y284031D01*
X314064Y284607D01*
X314410Y285184D01*
X314640Y285876D01*
X314756Y286337D01*
Y286799D01*
Y286914D01*
Y291066D01*
X315217Y291528D01*
X315563Y291066D01*
D02*
G37*
G36*
X297685D02*
Y283223D01*
X297224Y282877D01*
X296878Y283223D01*
Y291066D01*
X297224Y291528D01*
X297685Y291066D01*
D02*
G37*
G36*
X286959D02*
Y283223D01*
X286497Y282877D01*
X281768D01*
X281307Y283223D01*
X281768Y283684D01*
X285690D01*
X286036Y284031D01*
Y286799D01*
X282114D01*
X281768Y287145D01*
X282114Y287606D01*
X286036D01*
Y290259D01*
X285690Y290720D01*
X281768D01*
X281307Y291066D01*
X281768Y291528D01*
X286497D01*
X286959Y291066D01*
D02*
G37*
G36*
X279923D02*
Y283223D01*
X279462Y282877D01*
X279000Y283223D01*
Y286337D01*
X277155D01*
X274271Y282877D01*
X273925D01*
X273694Y282993D01*
X275771Y286107D01*
Y286568D01*
X275194Y286683D01*
X274848Y286914D01*
X274271Y287837D01*
X273925Y288644D01*
Y288875D01*
Y288990D01*
X274156Y289798D01*
X274617Y290490D01*
X275425Y290951D01*
X276232Y291182D01*
X277155Y291412D01*
X277962Y291528D01*
X279462D01*
X279923Y291066D01*
D02*
G37*
G36*
X265159Y283223D02*
X264813Y282877D01*
X264352Y283223D01*
Y291066D01*
X264813Y291528D01*
X265159D01*
Y283223D01*
D02*
G37*
G36*
X262276Y291066D02*
Y283223D01*
X261930Y282877D01*
X260084D01*
X259162Y282993D01*
X258354Y283108D01*
X257086Y283569D01*
X256163Y284031D01*
X255586Y284607D01*
X255125Y285184D01*
X255010Y285645D01*
X254894Y285991D01*
Y286107D01*
Y288183D01*
X255010Y288759D01*
X255125Y289336D01*
X255932Y290144D01*
X256855Y290720D01*
X258008Y291066D01*
X259277Y291412D01*
X260200Y291528D01*
X261930D01*
X262276Y291066D01*
D02*
G37*
G36*
X250857Y291297D02*
X251088Y290951D01*
X251665Y289798D01*
X252241Y288414D01*
X252933Y286914D01*
X253510Y285415D01*
X253971Y284146D01*
X254202Y283684D01*
X254317Y283338D01*
X254433Y283108D01*
Y282993D01*
X254317D01*
X254087Y282877D01*
X253856D01*
X253625Y282993D01*
X253395Y283338D01*
X253164Y283800D01*
X253049Y284377D01*
X252818Y284838D01*
X252703Y285299D01*
X252587Y285645D01*
Y285761D01*
X248896D01*
X248550Y284838D01*
X248204Y284146D01*
X247974Y283569D01*
X247743Y283223D01*
X247628Y282993D01*
X247512Y282877D01*
X247051D01*
X246820Y282993D01*
X247397Y284377D01*
X247858Y285530D01*
X248320Y286568D01*
X248666Y287491D01*
X249012Y288298D01*
X249358Y288990D01*
X249819Y290144D01*
X250165Y290836D01*
X250396Y291297D01*
X250511Y291528D01*
X250742D01*
X250857Y291297D01*
D02*
G37*
G36*
X245782Y291066D02*
Y283223D01*
X245436Y282877D01*
X242207D01*
X241515Y282993D01*
X240246Y283454D01*
X239323Y284146D01*
X238747Y284838D01*
X238401Y285530D01*
X238285Y286222D01*
X238170Y286683D01*
Y286799D01*
Y287837D01*
X238285Y288529D01*
X238516Y289106D01*
X238862Y289567D01*
X239208Y290028D01*
X240361Y290605D01*
X241630Y291066D01*
X243014Y291297D01*
X244052Y291528D01*
X245436D01*
X245782Y291066D01*
D02*
G37*
G36*
X270696Y291412D02*
X271272Y291297D01*
X272080Y290836D01*
X272541Y290259D01*
X272656Y290144D01*
Y290028D01*
Y288644D01*
X271849Y287606D01*
X270465Y287029D01*
X269427Y286568D01*
X268735Y286107D01*
X268158Y285761D01*
X267928Y285530D01*
X267812Y285299D01*
X267697Y285069D01*
X267812Y284607D01*
X268043Y284261D01*
X268850Y283800D01*
X269658Y283569D01*
X269888Y283454D01*
X270004D01*
X270811Y283569D01*
X271503Y283915D01*
X272195Y284146D01*
X272310Y284261D01*
X272426D01*
X272887Y283684D01*
X272772Y283454D01*
X272426Y283338D01*
X271964Y283108D01*
X271503Y282993D01*
X271042Y282877D01*
X270580Y282762D01*
X270234Y282646D01*
X270119D01*
X269081Y282762D01*
X268274Y283108D01*
X267697Y283454D01*
X267235Y283915D01*
X267005Y284261D01*
X266890Y284607D01*
Y284838D01*
Y284953D01*
Y285761D01*
X267466Y286799D01*
X268966Y287375D01*
X270004Y287837D01*
X270811Y288183D01*
X271272Y288529D01*
X271618Y288759D01*
X271734Y288875D01*
X271849Y288990D01*
Y289221D01*
X271734Y289682D01*
X271618Y290144D01*
X270926Y290490D01*
X270350Y290720D01*
X269196D01*
X267928Y290259D01*
X267466Y290374D01*
X267351Y290490D01*
X267235Y290605D01*
Y290720D01*
X267466Y290951D01*
X267697Y291182D01*
X268389Y291412D01*
X268966Y291528D01*
X270119D01*
X270696Y291412D01*
D02*
G37*
G36*
X282691Y277341D02*
X282114Y275611D01*
X281538Y274111D01*
X281076Y272843D01*
X280615Y271804D01*
X280269Y270882D01*
X279923Y270074D01*
X279692Y269498D01*
X279462Y269036D01*
X279231Y268690D01*
X279000Y268344D01*
X278885Y268114D01*
X278193D01*
X278078Y268229D01*
X277962Y268575D01*
X277731Y269152D01*
X277385Y269844D01*
X277039Y270651D01*
X276693Y271574D01*
X275886Y273535D01*
X275079Y275495D01*
X274733Y276418D01*
X274387Y277225D01*
X274041Y277918D01*
X273925Y278494D01*
X273694Y278840D01*
Y278956D01*
X274041Y279302D01*
X274502D01*
X274617Y279186D01*
X274848Y278840D01*
X275079Y278379D01*
X275309Y277802D01*
X275886Y276187D01*
X276578Y274457D01*
X277270Y272727D01*
X277847Y271112D01*
X278078Y270536D01*
X278308Y270074D01*
X278424Y269728D01*
Y269613D01*
X278654D01*
X279231Y271228D01*
X279808Y272727D01*
X280269Y273996D01*
X280730Y275149D01*
X281076Y276072D01*
X281307Y276880D01*
X281653Y277456D01*
X281884Y278033D01*
X282230Y278725D01*
X282460Y279071D01*
X282576Y279302D01*
X283383D01*
X282691Y277341D01*
D02*
G37*
G36*
X315563Y278956D02*
Y268575D01*
X315217Y268114D01*
X313602D01*
X312218Y268229D01*
X311065Y268344D01*
X309911Y268690D01*
X309104Y269036D01*
X308296Y269382D01*
X307720Y269959D01*
X306682Y270997D01*
X306220Y272035D01*
X305874Y272843D01*
X305759Y273535D01*
Y273650D01*
Y273765D01*
Y274573D01*
X305874Y275265D01*
X305990Y275957D01*
X306566Y277110D01*
X307489Y277918D01*
X308527Y278494D01*
X309565Y278956D01*
X310373Y279186D01*
X311065Y279302D01*
X315217D01*
X315563Y278956D01*
D02*
G37*
G36*
X303798Y268575D02*
X303452Y268114D01*
X296993D01*
X296647Y268575D01*
Y268806D01*
X296993Y269152D01*
X302760D01*
Y273304D01*
X297685D01*
X297224Y273765D01*
Y273996D01*
X297685Y274342D01*
X302760D01*
Y278033D01*
X302414Y278494D01*
X296878D01*
Y279302D01*
X303798D01*
Y268575D01*
D02*
G37*
G36*
X294917Y278956D02*
Y268575D01*
X294571Y268114D01*
X287881D01*
X287535Y268575D01*
Y268806D01*
X287881Y269152D01*
X293764D01*
Y278956D01*
X294110Y279302D01*
X294571D01*
X294917Y278956D01*
D02*
G37*
G36*
X269773Y279071D02*
X270465Y277341D01*
X271157Y275726D01*
X271734Y274342D01*
X272195Y273073D01*
X272541Y272035D01*
X272887Y271228D01*
X273233Y270420D01*
X273348Y269844D01*
X273579Y269382D01*
X273694Y268921D01*
X273810Y268460D01*
X273925Y268229D01*
Y268114D01*
X273118D01*
X271157Y272035D01*
X266659D01*
X266197Y270766D01*
X265967Y269728D01*
X265621Y269036D01*
X265390Y268575D01*
X265275Y268344D01*
X265159Y268229D01*
X265044Y268114D01*
X264352D01*
X264237Y268344D01*
X264929Y270190D01*
X265505Y271920D01*
X266082Y273304D01*
X266544Y274573D01*
X267005Y275611D01*
X267351Y276534D01*
X267697Y277225D01*
X267928Y277802D01*
X268158Y278264D01*
X268389Y278610D01*
X268620Y279071D01*
X268735Y279302D01*
X269542D01*
X269773Y279071D01*
D02*
G37*
G36*
X262507Y278956D02*
Y268575D01*
X262160Y268114D01*
X255701D01*
X255356Y268575D01*
Y268806D01*
X255701Y269152D01*
X261469D01*
Y278956D01*
X261930Y279302D01*
X262160D01*
X262507Y278956D01*
D02*
G37*
G36*
X254087D02*
Y268575D01*
X253625Y268114D01*
X247282D01*
X246820Y268575D01*
Y269152D01*
X252818D01*
Y278956D01*
X253279Y279302D01*
X253625D01*
X254087Y278956D01*
D02*
G37*
G36*
X245436Y268575D02*
X244975Y268114D01*
X238516D01*
X238170Y268575D01*
Y268806D01*
X238516Y269152D01*
X244398D01*
Y273304D01*
X239208D01*
X238747Y273765D01*
Y273996D01*
X239208Y274342D01*
X244398D01*
Y278494D01*
X238747D01*
X238516Y278264D01*
Y278494D01*
X238401Y278725D01*
Y279302D01*
X245436D01*
Y268575D01*
D02*
G37*
G36*
X266082Y264423D02*
Y257848D01*
X265621Y257387D01*
X265159Y257848D01*
Y263039D01*
X265044D01*
X264352Y261309D01*
X263775Y260040D01*
X263314Y259002D01*
X262968Y258310D01*
X262622Y257848D01*
X262391Y257618D01*
X262276Y257387D01*
X262160D01*
X262045Y257502D01*
X261814Y257618D01*
X261469Y258310D01*
X260892Y259232D01*
X260430Y260271D01*
X259969Y261309D01*
X259623Y262116D01*
X259392Y262808D01*
X259277Y262923D01*
Y263039D01*
X259046D01*
Y257848D01*
X258585Y257387D01*
X258354D01*
Y264423D01*
X258816Y264884D01*
X259046D01*
X262276Y258656D01*
X262737Y259809D01*
X263199Y260732D01*
X263545Y261539D01*
X263891Y262231D01*
X264467Y263385D01*
X264813Y264077D01*
X265044Y264538D01*
X265275Y264769D01*
X265390Y264884D01*
X265621D01*
X266082Y264423D01*
D02*
G37*
G36*
X297109Y264769D02*
X297916Y264423D01*
X298493Y263846D01*
X298954Y263269D01*
X299185Y262577D01*
X299415Y262116D01*
X299531Y261655D01*
Y261539D01*
Y260501D01*
X299415Y259578D01*
X298954Y258771D01*
X298377Y258194D01*
X297685Y257848D01*
X296993Y257502D01*
X296416Y257387D01*
X295955Y257272D01*
X295840D01*
X295032Y257387D01*
X294340Y257502D01*
X293879Y257618D01*
X293648Y257733D01*
X293418Y257848D01*
X293302Y257964D01*
Y258079D01*
Y260963D01*
X293764Y261309D01*
X295148D01*
X295609Y260963D01*
X295148Y260501D01*
X294110D01*
Y258194D01*
X295148Y258079D01*
X295955D01*
X296878Y258194D01*
X297570Y258540D01*
X298147Y259117D01*
X298493Y259694D01*
X298723Y260271D01*
X298839Y260847D01*
Y261193D01*
Y261309D01*
X298723Y262116D01*
X298377Y262808D01*
X297916Y263269D01*
X297339Y263615D01*
X296762Y263961D01*
X296301Y264077D01*
X295955Y264192D01*
X295840D01*
X295032Y264077D01*
X294456Y263961D01*
X293994Y263731D01*
X293764Y263615D01*
X293302Y264077D01*
X293418Y264307D01*
X293648Y264423D01*
X294110Y264653D01*
X294686Y264884D01*
X296186D01*
X297109Y264769D01*
D02*
G37*
G36*
X291918Y264423D02*
Y260155D01*
X291803Y259232D01*
X291457Y258540D01*
X290996Y257964D01*
X290419Y257618D01*
X289842Y257387D01*
X289381Y257272D01*
X288919D01*
X287881Y257502D01*
X287189Y257733D01*
X286613Y258194D01*
X286267Y258540D01*
X286036Y259002D01*
X285921Y259348D01*
Y259578D01*
Y259694D01*
Y264653D01*
X286036Y264884D01*
X286497Y264423D01*
Y261309D01*
X286613Y260271D01*
X286843Y259463D01*
X287189Y258886D01*
X287651Y258540D01*
X288112Y258310D01*
X288458Y258079D01*
X289150D01*
X289842Y258310D01*
X290303Y258771D01*
X290765Y259463D01*
X290996Y260271D01*
X291111Y260963D01*
X291226Y261655D01*
Y262116D01*
Y262347D01*
Y264653D01*
X291457Y264884D01*
X291918Y264423D01*
D02*
G37*
G36*
X315563D02*
Y257848D01*
X315217Y257387D01*
X312680D01*
X311411Y257733D01*
X310488Y258194D01*
X309911Y258771D01*
X309450Y259348D01*
X309219Y259925D01*
X308989Y260501D01*
Y260847D01*
Y260963D01*
X309219Y262231D01*
X309681Y263269D01*
X310488Y263961D01*
X311295Y264423D01*
X312103Y264653D01*
X312910Y264884D01*
X315217D01*
X315563Y264423D01*
D02*
G37*
G36*
X307720D02*
Y257387D01*
X303222D01*
X302991Y257618D01*
X303452Y258079D01*
X307143D01*
Y260732D01*
X303798D01*
X303452Y261193D01*
X303798Y261539D01*
X307143D01*
Y264077D01*
X303222D01*
Y264423D01*
X303683Y264884D01*
X307374D01*
X307720Y264423D01*
D02*
G37*
G36*
X282114Y264769D02*
X282230Y264423D01*
X282691Y263500D01*
X283152Y262462D01*
X283614Y261193D01*
X284191Y259925D01*
X284537Y258886D01*
X284882Y258079D01*
X284998Y257964D01*
Y257848D01*
X284652Y257387D01*
X283844Y258425D01*
X283729Y258886D01*
X283614Y259348D01*
X283383Y259694D01*
X283268Y259925D01*
X280269D01*
X279923Y259117D01*
X279692Y258425D01*
X279462Y257964D01*
X279346Y257733D01*
X279231Y257502D01*
X279116Y257387D01*
X278654D01*
X279116Y258656D01*
X279462Y259809D01*
X279808Y260847D01*
X280154Y261655D01*
X280500Y262347D01*
X280730Y263039D01*
X281076Y263961D01*
X281422Y264423D01*
X281653Y264769D01*
X281768Y264884D01*
X281999D01*
X282114Y264769D01*
D02*
G37*
G36*
X279231Y264423D02*
X278885Y264077D01*
X276347D01*
Y257848D01*
X276001Y257387D01*
X275540Y257848D01*
Y264077D01*
X273118D01*
X272656Y264423D01*
X273118Y264884D01*
X278885D01*
X279231Y264423D01*
D02*
G37*
G36*
X272080D02*
Y257848D01*
X271618Y257387D01*
X267235D01*
X267120Y257618D01*
X267466Y258079D01*
X271157D01*
Y260732D01*
X267928D01*
X267466Y261193D01*
X267928Y261539D01*
X271157D01*
Y264077D01*
X267697D01*
X267235Y264423D01*
X267697Y264884D01*
X271618D01*
X272080Y264423D01*
D02*
G37*
G36*
X254202Y264769D02*
X254317Y264423D01*
X254779Y263615D01*
X255356Y262462D01*
X255817Y261078D01*
X256394Y259809D01*
X256855Y258656D01*
X257086Y258310D01*
X257201Y257964D01*
X257316Y257733D01*
Y257618D01*
X257201D01*
X256970Y257387D01*
X256740Y257502D01*
X256509Y257733D01*
X256278Y258194D01*
X256048Y258656D01*
X255932Y259117D01*
X255817Y259578D01*
X255701Y259809D01*
Y259925D01*
X252357D01*
X252126Y259117D01*
X251895Y258425D01*
X251780Y257964D01*
X251549Y257733D01*
X251434Y257502D01*
X251319Y257387D01*
X250973D01*
X250742Y257618D01*
X251203Y258886D01*
X251665Y260040D01*
X252011Y260963D01*
X252357Y261770D01*
X252703Y262462D01*
X252933Y263039D01*
X253279Y263961D01*
X253625Y264423D01*
X253741Y264769D01*
X253856Y264884D01*
X254087D01*
X254202Y264769D01*
D02*
G37*
G36*
X249704Y264423D02*
Y257848D01*
X249358Y257387D01*
X245206D01*
X244975Y257618D01*
X245436Y258079D01*
X249127D01*
Y264653D01*
X249358Y264884D01*
X249704Y264423D01*
D02*
G37*
G36*
X241630Y264769D02*
X241861Y264538D01*
X241976Y264192D01*
X242207Y263731D01*
X242668Y262577D01*
X243245Y261309D01*
X243706Y259925D01*
X244167Y258771D01*
X244283Y258310D01*
X244398Y257964D01*
X244514Y257733D01*
Y257618D01*
Y257387D01*
X243937D01*
X243591Y258194D01*
X243360Y258886D01*
X243129Y259348D01*
X243014Y259578D01*
X242899Y259809D01*
X242783Y259925D01*
X239785D01*
X239554Y259117D01*
X239323Y258425D01*
X239092Y257964D01*
X238862Y257733D01*
X238747Y257502D01*
X238631Y257387D01*
X238401D01*
X238170Y257618D01*
X238631Y258886D01*
X239092Y259925D01*
X239439Y260847D01*
X239785Y261770D01*
X240015Y262462D01*
X240361Y263039D01*
X240707Y263846D01*
X240938Y264423D01*
X241169Y264769D01*
X241284Y264884D01*
X241515D01*
X241630Y264769D01*
D02*
G37*
%LPC*%
G36*
X279000Y290720D02*
X277847D01*
X276809Y290605D01*
X276001Y290490D01*
X275540Y290144D01*
X275079Y289913D01*
X274848Y289567D01*
X274733Y289221D01*
Y289106D01*
Y288990D01*
X274848Y288298D01*
X275309Y287837D01*
X275886Y287375D01*
X276578Y287145D01*
X277270Y287029D01*
X277847Y286914D01*
X279000D01*
Y290720D01*
D02*
G37*
G36*
X261469D02*
X260430D01*
X258816Y290605D01*
X257662Y290259D01*
X256855Y289798D01*
X256278Y289336D01*
X255932Y288759D01*
X255817Y288298D01*
X255701Y287952D01*
Y287837D01*
Y286914D01*
X255932Y285876D01*
X256394Y285069D01*
X256970Y284492D01*
X257778Y284146D01*
X258585Y283915D01*
X259162Y283684D01*
X261469D01*
Y290720D01*
D02*
G37*
G36*
X250742Y290259D02*
X250511D01*
X249358Y286799D01*
Y286568D01*
X252241D01*
X250742Y290259D01*
D02*
G37*
G36*
X244744Y290720D02*
X243706D01*
X242091Y290605D01*
X240938Y290259D01*
X240131Y289682D01*
X239554Y289221D01*
X239208Y288644D01*
X239092Y288068D01*
X238977Y287721D01*
Y287606D01*
X239092Y286337D01*
X239554Y285299D01*
X240131Y284607D01*
X240823Y284146D01*
X241515Y283915D01*
X242091Y283800D01*
X242553Y283684D01*
X244744D01*
Y290720D01*
D02*
G37*
G36*
X314179Y278494D02*
X312449D01*
X311411Y278264D01*
X310488Y278033D01*
X309681Y277802D01*
X308989Y277456D01*
X308412Y277110D01*
X307605Y276303D01*
X307028Y275380D01*
X306797Y274688D01*
X306682Y274227D01*
Y273996D01*
X306797Y273189D01*
X306912Y272381D01*
X307720Y271228D01*
X308758Y270305D01*
X309911Y269728D01*
X311065Y269382D01*
X312103Y269267D01*
X312910Y269152D01*
X314179D01*
X314640Y269613D01*
Y278033D01*
X314179Y278494D01*
D02*
G37*
G36*
X269196Y278033D02*
X268966D01*
X267235Y273304D01*
Y273073D01*
X271042D01*
X269196Y278033D01*
D02*
G37*
G36*
X314756Y264077D02*
X312680D01*
X311757Y263961D01*
X311065Y263615D01*
X310488Y263154D01*
X310142Y262693D01*
X309911Y262116D01*
X309796Y261655D01*
Y261309D01*
Y261193D01*
X310027Y260155D01*
X310488Y259348D01*
X311180Y258886D01*
X311987Y258425D01*
X312795Y258194D01*
X313487Y258079D01*
X314756D01*
Y264077D01*
D02*
G37*
G36*
X281999Y263846D02*
X281768D01*
X280730Y260732D01*
Y260501D01*
X283037D01*
X281999Y263846D01*
D02*
G37*
G36*
X254317Y263615D02*
X253856D01*
X252818Y260501D01*
X253279D01*
X254087Y260732D01*
X254894Y260501D01*
X255356D01*
X254317Y263615D01*
D02*
G37*
G36*
X241630D02*
X241284D01*
X240246Y260501D01*
X242668D01*
X241630Y263615D01*
D02*
G37*
%LPD*%
D13*
X173799Y223803D02*
Y233055D01*
Y223803D02*
X197618D01*
X173799Y233055D02*
X197618D01*
Y223803D02*
Y233055D01*
X150315Y223803D02*
Y233055D01*
X126496D02*
X150315D01*
X126496Y223803D02*
X150315D01*
X126496D02*
Y233055D01*
X34472Y19114D02*
Y24614D01*
X24972Y27614D02*
X26972D01*
X17472Y10114D02*
Y13724D01*
Y10114D02*
X34472D01*
X17472Y19114D02*
Y24614D01*
X34472Y10114D02*
Y13614D01*
X352362Y88504D02*
X357862D01*
X349362Y79004D02*
Y81004D01*
X363252Y71504D02*
X366862D01*
Y88504D01*
X352362Y71504D02*
X357862D01*
X363362Y88504D02*
X366862D01*
X288472Y406394D02*
Y411894D01*
X295972Y403394D02*
X297972D01*
X305472Y417283D02*
Y420894D01*
X288472D02*
X305472D01*
Y406394D02*
Y411894D01*
X288472Y417394D02*
Y420894D01*
X-34917Y342504D02*
X-29417D01*
X-26417Y350004D02*
Y352004D01*
X-43917Y359504D02*
X-40307D01*
X-43917Y342504D02*
Y359504D01*
X-34917D02*
X-29417D01*
X-43917Y342504D02*
X-40417D01*
D82*
X3549Y54829D02*
X258476D01*
X3549Y159884D02*
X57526Y213863D01*
X3549Y213884D02*
X13687D01*
X47152D02*
X83864D01*
X117329D02*
X200104D01*
X206600D01*
X240065D02*
X266935D01*
X320394Y160425D01*
Y54829D02*
Y160425D01*
X3549Y54829D02*
Y213884D01*
X258476Y54829D02*
X320394D01*
D83*
X3549Y213884D02*
X8947D01*
X3549Y55784D02*
Y213884D01*
X324528Y63779D02*
X325528D01*
X324528D02*
Y95276D01*
X325528D01*
X333527Y63779D02*
X334527D01*
Y95473D01*
X333527D02*
X334527D01*
X281496Y387465D02*
Y388465D01*
X312992D01*
Y387465D02*
Y388465D01*
X281496Y378465D02*
Y379465D01*
Y378465D02*
X313189D01*
Y379465D01*
X-11693Y335433D02*
X-10693D01*
X-11693D02*
Y366929D01*
X-10693D01*
X-2693Y335433D02*
X-1693D01*
Y367126D01*
X-2693D02*
X-1693D01*
X9843Y51244D02*
Y52244D01*
X41339D01*
Y51244D02*
Y52244D01*
X9843Y42244D02*
Y43244D01*
Y42244D02*
X41535D01*
Y43244D01*
D84*
X188225Y395312D02*
Y400560D01*
X189537Y401871D01*
X192161D01*
X193473Y400560D01*
Y395312D01*
X192161Y394000D01*
X189537D01*
X190849Y396624D02*
X188225Y394000D01*
X189537D02*
X188225Y395312D01*
X185601Y401871D02*
Y395312D01*
X184289Y394000D01*
X181665D01*
X180353Y395312D01*
Y401871D01*
X172482D02*
X177729D01*
Y394000D01*
X172482D01*
X177729Y397936D02*
X175106D01*
X169858Y401871D02*
X164610D01*
X167234D01*
Y394000D01*
X161987Y401871D02*
X156739D01*
Y400560D01*
X161987Y395312D01*
Y394000D01*
X156739D01*
X154115D02*
Y399248D01*
X151491Y401871D01*
X148867Y399248D01*
Y394000D01*
Y397936D01*
X154115D01*
X146244Y401871D02*
Y394000D01*
X140996D01*
X138372Y397936D02*
X133124D01*
X130501Y394000D02*
X127877D01*
X129189D01*
Y401871D01*
X130501Y400560D01*
X230500Y35372D02*
Y27500D01*
Y31436D01*
X225252D01*
Y35372D01*
Y27500D01*
X217381Y35372D02*
X222628D01*
Y27500D01*
X217381D01*
X222628Y31436D02*
X220005D01*
X209509Y34060D02*
X210821Y35372D01*
X213445D01*
X214757Y34060D01*
Y28812D01*
X213445Y27500D01*
X210821D01*
X209509Y28812D01*
X206886Y35372D02*
Y27500D01*
Y31436D01*
X201638D01*
Y35372D01*
Y27500D01*
X195078Y35372D02*
X197702D01*
X199014Y34060D01*
Y28812D01*
X197702Y27500D01*
X195078D01*
X193766Y28812D01*
Y34060D01*
X195078Y35372D01*
X178024D02*
X183271D01*
Y27500D01*
X178024D01*
X183271Y31436D02*
X180647D01*
X175400Y27500D02*
Y35372D01*
X170152Y27500D01*
Y35372D01*
X154409Y34060D02*
X155721Y35372D01*
X158345D01*
X159657Y34060D01*
Y28812D01*
X158345Y27500D01*
X155721D01*
X154409Y28812D01*
Y31436D01*
X157033D01*
X151785Y35372D02*
Y28812D01*
X150473Y27500D01*
X147850D01*
X146538Y28812D01*
Y35372D01*
X143914Y27500D02*
Y32748D01*
X141290Y35372D01*
X138666Y32748D01*
Y27500D01*
Y31436D01*
X143914D01*
X136042Y35372D02*
X130795D01*
X133418D01*
Y27500D01*
X122923Y35372D02*
X128171D01*
Y27500D01*
X122923D01*
X128171Y31436D02*
X125547D01*
X120299Y27500D02*
Y35372D01*
X117675Y32748D01*
X115052Y35372D01*
Y27500D01*
X112428D02*
Y32748D01*
X109804Y35372D01*
X107180Y32748D01*
Y27500D01*
Y31436D01*
X112428D01*
X104556Y35372D02*
Y27500D01*
X99309D01*
X96685D02*
Y32748D01*
X94061Y35372D01*
X91437Y32748D01*
Y27500D01*
Y31436D01*
X96685D01*
M02*
