G04*
G04 #@! TF.GenerationSoftware,Altium Limited,Altium Designer,19.0.15 (446)*
G04*
G04 Layer_Physical_Order=4*
G04 Layer_Color=16711680*
%FSLAX25Y25*%
%MOIN*%
G70*
G01*
G75*
%ADD21R,0.03937X0.03543*%
%ADD22R,0.03740X0.03347*%
%ADD39C,0.06000*%
%ADD46C,0.01200*%
%ADD47C,0.03000*%
%ADD48C,0.02000*%
%ADD49C,0.05200*%
%ADD50C,0.03543*%
%ADD51C,0.05906*%
%ADD52R,0.05906X0.05906*%
%ADD53C,0.02000*%
%ADD54C,0.07500*%
%ADD55C,0.23622*%
%ADD56C,0.19685*%
%ADD57C,0.01378*%
%ADD64R,0.02362X0.03937*%
%ADD65R,0.03937X0.02362*%
%ADD66R,0.03347X0.03740*%
%ADD67R,0.03543X0.03937*%
%ADD68R,0.05118X0.05512*%
%ADD69R,0.03150X0.03150*%
%ADD70R,0.03543X0.03937*%
%ADD71R,0.05512X0.05118*%
%ADD72R,0.10236X0.07480*%
%ADD73O,0.05315X0.02165*%
%ADD74O,0.02165X0.05315*%
%ADD75R,0.05315X0.04528*%
%ADD76R,0.03150X0.03150*%
%ADD77R,0.04724X0.04724*%
%ADD78R,0.04724X0.04724*%
%ADD79R,0.05600X0.01800*%
%ADD80O,0.06299X0.01378*%
%ADD81R,0.06496X0.09449*%
%ADD82R,0.03347X0.01378*%
%ADD83R,0.04528X0.05315*%
%ADD84R,0.00945X0.02362*%
%ADD85R,0.03347X0.02756*%
%ADD86R,0.05709X0.01378*%
%ADD87R,0.07087X0.01378*%
%ADD88R,0.02362X0.00945*%
%ADD89R,0.13386X0.03858*%
%ADD90R,0.03346X0.00787*%
%ADD91R,0.09646X0.07677*%
%ADD92R,0.09843X0.05512*%
%ADD93R,0.05402X0.02795*%
%ADD94R,0.06900X0.11600*%
%ADD95R,0.05500X0.01700*%
%ADD96O,0.01378X0.06299*%
%ADD97O,0.01772X0.06299*%
%ADD98R,0.12205X0.06299*%
%ADD99R,0.15748X0.27559*%
%ADD100R,0.10000X0.10512*%
%ADD101R,0.05000X0.02992*%
%ADD102C,0.00800*%
G36*
X175000Y317500D02*
X158000D01*
Y330500D01*
X175000D01*
Y317500D01*
D02*
G37*
G36*
X162500Y305197D02*
X148500D01*
Y315000D01*
X154500D01*
X154800Y315300D01*
X154856D01*
Y315356D01*
X155500Y316000D01*
X162500D01*
Y305197D01*
D02*
G37*
G36*
X206343Y301795D02*
X207941Y300197D01*
X225441D01*
Y296697D01*
X193441D01*
X190941Y299197D01*
Y305197D01*
X206343D01*
Y301795D01*
D02*
G37*
G36*
X188000Y321500D02*
X185500Y319000D01*
Y290000D01*
X179000D01*
Y318500D01*
X184000Y323500D01*
X188000D01*
Y321500D01*
D02*
G37*
G36*
X154441Y316000D02*
X148000D01*
X147500Y315500D01*
Y303618D01*
X148618Y302500D01*
X162282Y302500D01*
X165250Y299532D01*
X165250Y290000D01*
X142500D01*
Y316200D01*
X144147Y317846D01*
X154441D01*
Y316000D01*
D02*
G37*
G36*
X226000Y269598D02*
X222598D01*
X221000Y268000D01*
Y257000D01*
X217500D01*
Y282500D01*
X220000Y285000D01*
X226000D01*
Y269598D01*
D02*
G37*
G36*
X261606Y262500D02*
X273500D01*
X273500Y255500D01*
X261500Y255500D01*
X257500Y259500D01*
X234500D01*
Y263500D01*
X260606D01*
X261606Y262500D01*
D02*
G37*
G36*
X169000Y239941D02*
Y234500D01*
X154783D01*
X153126Y236157D01*
X144158D01*
X142500Y234500D01*
Y222000D01*
Y207500D01*
X153000D01*
Y203108D01*
X153000Y203108D01*
Y203000D01*
X117000D01*
Y222000D01*
X137500D01*
Y240000D01*
X168941D01*
X169000Y239941D01*
D02*
G37*
G36*
X191941Y233000D02*
X191941Y214000D01*
X187000D01*
Y228000D01*
X168500D01*
Y227463D01*
Y222311D01*
X167000Y220811D01*
Y207500D01*
X171500D01*
Y203000D01*
X160555D01*
Y207500D01*
X165000D01*
Y220777D01*
X163500Y222277D01*
Y227463D01*
X163500Y233000D01*
X191941Y233000D01*
D02*
G37*
G36*
X284846Y218927D02*
X279419Y213500D01*
X268500D01*
Y235842D01*
X284846D01*
Y218927D01*
D02*
G37*
G36*
X232122Y212626D02*
X231138D01*
Y215283D01*
X232122D01*
Y212626D01*
D02*
G37*
G36*
X223460D02*
X222476D01*
Y215283D01*
X223460D01*
Y212626D01*
D02*
G37*
G36*
X300000Y228500D02*
X293000D01*
X291500Y227000D01*
Y217000D01*
X289161Y214661D01*
X285500D01*
X281839Y211000D01*
Y207500D01*
X278000Y207500D01*
X269000D01*
X269000Y207500D01*
Y212831D01*
X276169D01*
X278000Y211000D01*
X285500Y218500D01*
Y237500D01*
X282500Y240500D01*
Y262382D01*
Y262500D01*
X300000D01*
Y228500D01*
D02*
G37*
G36*
X212252Y205248D02*
X221500D01*
Y202000D01*
X187500D01*
X186500Y203000D01*
X179055Y203000D01*
Y207500D01*
X186500Y207500D01*
X187500Y208500D01*
X209000D01*
X212252Y205248D01*
D02*
G37*
G36*
X209000Y232494D02*
X209000Y213063D01*
X215063Y207000D01*
X221500D01*
Y206000D01*
X213941D01*
X199000Y220941D01*
X199000Y232503D01*
X209000Y232494D01*
D02*
G37*
G36*
X232122Y202291D02*
X231138D01*
Y204949D01*
X232122D01*
Y202291D01*
D02*
G37*
G36*
X223460D02*
X222476D01*
Y204949D01*
X223460D01*
Y202291D01*
D02*
G37*
G36*
X86500Y216500D02*
X95000D01*
X97000Y218500D01*
X103500D01*
X105000Y217000D01*
X114000D01*
Y203500D01*
X86500D01*
Y195547D01*
X79500D01*
Y203500D01*
Y216500D01*
Y223500D01*
X86500D01*
Y216500D01*
D02*
G37*
G36*
X160098Y210032D02*
Y207704D01*
X160014Y207500D01*
Y203000D01*
X160098Y202796D01*
Y194000D01*
X149000D01*
Y202291D01*
X153500D01*
Y202901D01*
X153541Y203000D01*
Y207500D01*
X153500Y207599D01*
Y210063D01*
X160067D01*
X160098Y210032D01*
D02*
G37*
G36*
X300000Y190000D02*
X292500D01*
Y199000D01*
X300000D01*
Y190000D01*
D02*
G37*
G36*
X142500Y187500D02*
X117000D01*
Y202000D01*
X142500D01*
Y187500D01*
D02*
G37*
G36*
X172008Y216500D02*
X183000D01*
Y208500D01*
X178500D01*
Y185500D01*
X172000D01*
Y202901D01*
X172041Y203000D01*
Y207500D01*
X172000Y207599D01*
Y216508D01*
X172008Y216500D01*
D02*
G37*
G36*
X267000Y210878D02*
X267000Y210878D01*
X266965Y210842D01*
X251000D01*
Y205500D01*
X274059D01*
X275500Y204059D01*
X283500D01*
Y203468D01*
Y202878D01*
X275500D01*
X274059Y201437D01*
X251000D01*
Y195677D01*
X266441D01*
Y193500D01*
X279669D01*
X284959Y188210D01*
Y187000D01*
Y173500D01*
X278941D01*
X275000Y177441D01*
Y187000D01*
X245941D01*
Y195677D01*
Y210032D01*
X251409Y215500D01*
X267000D01*
Y210878D01*
D02*
G37*
G36*
X86500Y176000D02*
X93500D01*
Y173000D01*
X79500D01*
Y173500D01*
Y190000D01*
X86500D01*
Y176000D01*
D02*
G37*
G36*
X281839Y195937D02*
X285500Y192276D01*
X289161D01*
X291500Y189937D01*
Y179937D01*
X293000Y178437D01*
X302000D01*
Y167937D01*
X285500D01*
Y169437D01*
Y188437D01*
X278094Y195844D01*
X276419Y194169D01*
X269250D01*
X269250Y199437D01*
X278000D01*
X281839Y199437D01*
Y195937D01*
D02*
G37*
G36*
X191941Y125000D02*
X177941D01*
Y155500D01*
X191941D01*
Y125000D01*
D02*
G37*
G36*
X85500D02*
X71500D01*
Y155500D01*
X85500D01*
Y125000D01*
D02*
G37*
G36*
X280441Y157350D02*
Y93350D01*
X278941D01*
X278941Y102409D01*
X269000Y112350D01*
X245941Y112350D01*
X242941Y115350D01*
X242941Y166500D01*
X271291D01*
X280441Y157350D01*
D02*
G37*
G36*
X173941D02*
Y93350D01*
X172441D01*
X172441Y102409D01*
X162500Y112350D01*
X139441Y112350D01*
X136441Y115350D01*
X136441Y167350D01*
X163941D01*
X173941Y157350D01*
D02*
G37*
G36*
X67500D02*
Y93350D01*
X66000D01*
X66000Y102409D01*
X56059Y112350D01*
X33000Y112350D01*
X30000Y115350D01*
X30000Y167350D01*
X57500D01*
X67500Y157350D01*
D02*
G37*
G36*
X298441Y103000D02*
X293941Y98500D01*
Y86221D01*
X284004D01*
X281441Y88784D01*
Y109000D01*
X298441D01*
Y103000D01*
D02*
G37*
G36*
X191941D02*
X187441Y98500D01*
Y86221D01*
X177504D01*
X174941Y88784D01*
Y109000D01*
X191941D01*
Y103000D01*
D02*
G37*
G36*
X85500D02*
X81000Y98500D01*
Y86221D01*
X71063D01*
X68500Y88784D01*
Y109000D01*
X85500D01*
Y103000D01*
D02*
G37*
G36*
X228441Y115500D02*
X228441Y81500D01*
X208520Y81500D01*
X208520Y115500D01*
X208520Y167500D01*
X228441D01*
X228441Y115500D01*
D02*
G37*
G36*
X121941D02*
X121941Y81500D01*
X102020Y81500D01*
X102020Y115500D01*
X102020Y167500D01*
X121941D01*
X121941Y115500D01*
D02*
G37*
G36*
X15500D02*
X15500Y81500D01*
X-4421Y81500D01*
X-4421Y115500D01*
X-4421Y167500D01*
X15500D01*
X15500Y115500D01*
D02*
G37*
G36*
X217000Y52500D02*
X192500D01*
Y57000D01*
X217000D01*
Y52500D01*
D02*
G37*
G36*
X118496D02*
X93996D01*
Y57000D01*
X118496D01*
Y52500D01*
D02*
G37*
G36*
X209500Y45500D02*
X208500Y44500D01*
X208520Y40000D01*
X190941D01*
X190941Y49850D01*
X192591Y51500D01*
X209500D01*
Y45500D01*
D02*
G37*
G36*
X110996D02*
X109996Y44500D01*
X110016Y40000D01*
X92437D01*
X92437Y49850D01*
X94087Y51500D01*
X110996D01*
Y45500D01*
D02*
G37*
G36*
X313000Y35000D02*
X313000Y17967D01*
X288524Y17967D01*
X288524Y30681D01*
X292843Y35000D01*
X313000Y35000D01*
D02*
G37*
G36*
X244000Y26484D02*
Y17426D01*
X236000D01*
Y26500D01*
X243984D01*
X244000Y26484D01*
D02*
G37*
G36*
X313000Y2500D02*
X294000D01*
Y14000D01*
X293500Y14500D01*
X288524D01*
Y17426D01*
X313000Y17426D01*
X313000D01*
Y2500D01*
D02*
G37*
G36*
X175500Y-3000D02*
X170000Y-3000D01*
Y2500D01*
X175500Y2500D01*
Y-3000D01*
D02*
G37*
G36*
X101500D02*
X96000Y-3000D01*
Y2500D01*
X101500Y2500D01*
Y-3000D01*
D02*
G37*
G36*
X212500Y-3000D02*
X207000Y-3000D01*
Y2500D01*
X212500Y2500D01*
Y-3000D01*
D02*
G37*
G36*
X138500D02*
X133000Y-3000D01*
Y2500D01*
X138500Y2500D01*
Y-3000D01*
D02*
G37*
G36*
X64500D02*
X59000Y-3000D01*
Y2500D01*
X64500Y2500D01*
Y-3000D01*
D02*
G37*
G36*
X74000Y3000D02*
X77500Y-500D01*
Y-4898D01*
X69000D01*
Y7043D01*
X67407Y8636D01*
X54500D01*
X53500Y7636D01*
Y3500D01*
X50500D01*
Y8029D01*
X50463Y8066D01*
X53398Y11000D01*
X74000D01*
Y3000D01*
D02*
G37*
D21*
X142500Y2839D02*
D03*
Y-2476D02*
D03*
X18000Y285102D02*
D03*
Y279787D02*
D03*
X108658Y49343D02*
D03*
Y54658D02*
D03*
X116138Y49343D02*
D03*
Y54658D02*
D03*
X35496Y40799D02*
D03*
Y35484D02*
D03*
X134000Y40799D02*
D03*
Y35484D02*
D03*
X207161Y49343D02*
D03*
Y54658D02*
D03*
X214642Y49343D02*
D03*
Y54658D02*
D03*
X241500Y29658D02*
D03*
Y24342D02*
D03*
X298500Y20315D02*
D03*
Y15000D02*
D03*
X160000Y319357D02*
D03*
Y314042D02*
D03*
X126500Y314457D02*
D03*
Y309142D02*
D03*
X153244Y271063D02*
D03*
Y265748D02*
D03*
X193441Y303559D02*
D03*
Y308874D02*
D03*
X297500Y202500D02*
D03*
Y197185D02*
D03*
X272250Y196158D02*
D03*
Y190842D02*
D03*
X272000Y210842D02*
D03*
Y216158D02*
D03*
X295500Y281343D02*
D03*
Y286658D02*
D03*
X238650Y271630D02*
D03*
Y276945D02*
D03*
X189500Y230842D02*
D03*
Y236157D02*
D03*
X151000Y222843D02*
D03*
Y228157D02*
D03*
X140098Y205000D02*
D03*
Y199685D02*
D03*
X266441Y78535D02*
D03*
Y73220D02*
D03*
X159941D02*
D03*
Y78535D02*
D03*
X53500Y73220D02*
D03*
Y78535D02*
D03*
D22*
X91000Y-8059D02*
D03*
Y-2941D02*
D03*
X119000Y292707D02*
D03*
Y297825D02*
D03*
X126500D02*
D03*
Y292707D02*
D03*
X24000Y204559D02*
D03*
Y199441D02*
D03*
X94996Y31941D02*
D03*
Y37059D02*
D03*
X101996Y31941D02*
D03*
Y37059D02*
D03*
X59996Y40701D02*
D03*
Y35583D02*
D03*
X200500Y31941D02*
D03*
Y37059D02*
D03*
X158500Y40701D02*
D03*
Y35583D02*
D03*
X193500Y31941D02*
D03*
Y37059D02*
D03*
X272500Y24441D02*
D03*
Y29559D02*
D03*
X265500Y29559D02*
D03*
Y24441D02*
D03*
X120000Y314189D02*
D03*
Y309071D02*
D03*
X167244Y265846D02*
D03*
Y270965D02*
D03*
X160221Y265787D02*
D03*
Y270905D02*
D03*
X230441Y303618D02*
D03*
Y298500D02*
D03*
X223500Y303618D02*
D03*
Y298500D02*
D03*
X237441Y303618D02*
D03*
Y298500D02*
D03*
X272250Y178441D02*
D03*
Y183559D02*
D03*
X288524Y286618D02*
D03*
Y281500D02*
D03*
X281500Y286559D02*
D03*
Y281441D02*
D03*
X251691Y222956D02*
D03*
Y217838D02*
D03*
X244500Y223059D02*
D03*
Y217941D02*
D03*
X242000Y206618D02*
D03*
Y201500D02*
D03*
X158000Y222311D02*
D03*
Y227429D02*
D03*
X290941Y82819D02*
D03*
Y87937D02*
D03*
X184441D02*
D03*
Y82819D02*
D03*
X78000Y87937D02*
D03*
Y82819D02*
D03*
D39*
X270500Y41500D02*
D03*
X260500D02*
D03*
X27000Y325598D02*
D03*
X17000D02*
D03*
X37000Y325402D02*
D03*
X296283Y-12500D02*
D03*
X286283D02*
D03*
X306283Y-12697D02*
D03*
D46*
X303500Y165636D02*
Y185500D01*
X301500Y187500D02*
X303500Y185500D01*
X294500Y187500D02*
X301500D01*
X301616Y163752D02*
X303500Y165636D01*
X285097Y163752D02*
X301616D01*
X212000Y179500D02*
X213100Y178400D01*
X266476D01*
X297000Y50500D02*
Y55343D01*
X290843Y61500D02*
X297000Y55343D01*
X290843Y61500D02*
Y65173D01*
X292169Y66500D02*
X299000D01*
X290843Y65173D02*
X292169Y66500D01*
X299000D02*
X302000Y69500D01*
X292559Y118500D02*
X300000D01*
X302000Y116500D01*
Y69500D02*
Y116500D01*
X295000Y48500D02*
X297000Y50500D01*
X289441Y48500D02*
X295000D01*
X274744Y33803D02*
X289441Y48500D01*
X237622Y33803D02*
X274744D01*
X233500Y29681D02*
X237622Y33803D01*
X255784Y55378D02*
X261283D01*
X255441Y62878D02*
X261283D01*
X179500Y-14500D02*
Y20000D01*
X178000Y21500D02*
X179500Y20000D01*
X172500Y21500D02*
X178000D01*
X130000Y17000D02*
X139000D01*
X139003Y17003D01*
X150449Y30949D02*
Y33260D01*
X177500Y-16500D02*
X179500Y-14500D01*
X166500Y-16500D02*
X177500D01*
X166497Y-16503D02*
X166500Y-16500D01*
X165503Y-16503D02*
X166497D01*
X163941Y-14941D02*
X165503Y-16503D01*
X163941Y-14941D02*
Y-11599D01*
X89000Y67500D02*
X97378D01*
X87500Y69000D02*
X89000Y67500D01*
X87500Y69000D02*
Y77500D01*
X60559Y167500D02*
X87500D01*
X58059Y170000D02*
X60559Y167500D01*
X39500Y170000D02*
X58059D01*
X37500Y172000D02*
X39500Y170000D01*
X154500Y5000D02*
X163500D01*
X153000Y3500D02*
X154500Y5000D01*
X153000Y250D02*
Y3500D01*
X37500Y172000D02*
Y206421D01*
X35811Y208110D02*
X37500Y206421D01*
X15000Y208110D02*
X35811D01*
X29323Y220323D02*
Y274976D01*
X24339Y270000D02*
X26600Y267739D01*
Y221600D02*
Y267739D01*
X25060Y220060D02*
X26600Y221600D01*
X20000Y220060D02*
X25060D01*
X12000Y270000D02*
X24339D01*
X24500Y229500D02*
Y262500D01*
X22000Y265000D02*
X24500Y262500D01*
X4500Y265000D02*
X22000D01*
X9500Y272500D02*
X12000Y270000D01*
X9500Y272500D02*
Y299500D01*
X18874Y308874D01*
X34000D01*
X36626Y306248D01*
Y302839D02*
Y306248D01*
X2500Y267000D02*
Y282750D01*
X380Y284870D02*
X2500Y282750D01*
X-4941Y284870D02*
X380D01*
X2500Y267000D02*
X4500Y265000D01*
X20200Y314200D02*
X33968D01*
X6500Y300500D02*
X20200Y314200D01*
X-12000Y300500D02*
X6500D01*
X171620Y222620D02*
X175941D01*
X169500Y220500D02*
X171620Y222620D01*
X169500Y209177D02*
Y220500D01*
X322500Y-7500D02*
Y17500D01*
X215500Y-10500D02*
X217500Y-12500D01*
X215500Y-10500D02*
Y16000D01*
X217500Y-12500D02*
X286283D01*
X85441Y-8059D02*
X91000D01*
X83642Y-9858D02*
X85441Y-8059D01*
X83642Y-13118D02*
Y-9858D01*
X157581Y-6419D02*
Y-4898D01*
X91500Y58500D02*
X119000D01*
X90500Y57500D02*
X91500Y58500D01*
X90500Y32644D02*
Y57500D01*
X120000Y43500D02*
Y57500D01*
X119000Y58500D02*
X120000Y57500D01*
X116138Y27466D02*
Y31882D01*
X106471Y27466D02*
X109000D01*
X101996Y31941D02*
X106471Y27466D01*
X116138Y42118D02*
X118618D01*
X116138D02*
X116138D01*
X91203Y31941D02*
X94996D01*
X90500Y32644D02*
X91203Y31941D01*
X118618Y42118D02*
X120000Y43500D01*
X130000Y52617D02*
Y63100D01*
X51945Y30949D02*
Y33260D01*
X200303Y31941D02*
X200947Y32585D01*
X192835Y21000D02*
X212500D01*
X191466Y22368D02*
X192835Y21000D01*
X191466Y22368D02*
Y27466D01*
X192966Y28967D02*
X197329D01*
X191466Y27466D02*
X192966Y28967D01*
X197329D02*
X200303Y31941D01*
X200947Y32585D02*
X201915D01*
X200303Y31941D02*
X200500D01*
X212500Y21000D02*
X214642Y23142D01*
Y31882D01*
X220500Y51000D02*
Y57000D01*
X218843Y49343D02*
X220500Y51000D01*
X214642Y49343D02*
X218843D01*
X219000Y58500D02*
X220500Y57000D01*
X191191Y58500D02*
X219000D01*
X190740Y31941D02*
X193500D01*
X189000Y33681D02*
X190740Y31941D01*
X189000Y33681D02*
Y56309D01*
X191191Y58500D01*
X200500Y37059D02*
X201441Y38000D01*
X214642Y41142D02*
Y42118D01*
X270083Y12358D02*
X280382D01*
X268500Y13941D02*
X270083Y12358D01*
X268500Y13941D02*
Y20000D01*
X274402Y16098D02*
X280382D01*
X272500Y18000D02*
X274402Y16098D01*
X233500Y11000D02*
X236500Y8000D01*
X256000D01*
X276000Y29362D02*
X280441Y33803D01*
X276000Y20000D02*
Y29362D01*
X214500Y315000D02*
X214547Y314953D01*
Y311039D02*
Y314953D01*
X-9059Y261910D02*
Y263500D01*
X192000Y245000D02*
X193500Y243500D01*
Y212415D02*
Y243500D01*
X191793Y210709D02*
X193500Y212415D01*
X197441Y252441D02*
X219303D01*
X195500Y250500D02*
X197441Y252441D01*
X195500Y214500D02*
Y250500D01*
Y214500D02*
X197500Y212500D01*
X202000D01*
X172500Y245000D02*
X192000D01*
X186000Y210709D02*
X191793D01*
X148000Y190819D02*
X157000D01*
X231842Y245500D02*
Y261394D01*
X219303Y247126D02*
X224421Y252244D01*
X219303Y245500D02*
Y247126D01*
X224421Y252244D02*
Y252441D01*
X146843Y183559D02*
X156941D01*
X144992Y185410D02*
X146843Y183559D01*
X144992Y185410D02*
Y205240D01*
X145000Y205248D01*
X157000Y190819D02*
X157382D01*
X157441Y190878D01*
X162559D02*
Y201445D01*
X162059Y183559D02*
X162059Y183559D01*
X162059Y183559D02*
Y190878D01*
X245122Y83000D02*
X261882D01*
Y88378D01*
X275661Y101500D02*
X277161Y100000D01*
Y95402D02*
Y100000D01*
X267000Y95402D02*
Y100108D01*
X213500Y220000D02*
Y237000D01*
X211000Y218000D02*
Y233500D01*
X233500Y11000D02*
Y29681D01*
X79059Y17500D02*
X120000D01*
X75559Y21000D02*
X79059Y17500D01*
X29000Y21000D02*
X75559D01*
X17500Y32500D02*
X29000Y21000D01*
X66421Y62980D02*
X69339D01*
X58819Y55378D02*
X66421Y62980D01*
X53658Y55378D02*
X58819D01*
X305795Y311500D02*
X312000D01*
X298295Y304000D02*
X305795Y311500D01*
X292500Y304000D02*
X298295D01*
X265799Y233299D02*
Y246500D01*
X262500Y230000D02*
X265799Y233299D01*
X262500Y217500D02*
Y230000D01*
X277000Y250811D02*
Y259500D01*
X272689Y246500D02*
X277000Y250811D01*
X282547Y319953D02*
X295000Y307500D01*
X222106Y319953D02*
X282547Y319953D01*
X275800Y314200D02*
X285000Y305000D01*
X226200Y314200D02*
X275800D01*
X223000Y311000D02*
X226200Y314200D01*
X276977Y317023D02*
X287000Y307000D01*
X224523Y317023D02*
X276977D01*
X223000Y315500D02*
X224523Y317023D01*
X220000Y317846D02*
X222106Y319953D01*
X291000Y322500D02*
X296000Y317500D01*
X220000Y322500D02*
X291000Y322500D01*
X258591Y291861D02*
Y299085D01*
X256427Y289697D02*
X258591Y291861D01*
X249158Y289697D02*
X256427D01*
X-4941Y290059D02*
X-1250Y293750D01*
X-4941Y284870D02*
Y290059D01*
X100098Y230300D02*
Y232902D01*
X98197Y234803D02*
X100098Y232902D01*
X92500Y234803D02*
X98197D01*
X277815Y239815D02*
X280500Y242500D01*
Y253961D01*
X272579Y269339D02*
X274118Y270878D01*
X273917Y268000D02*
X274000D01*
X288465Y286559D02*
X295402D01*
X244441Y223059D02*
X244544Y222956D01*
X290799Y19658D02*
X298500D01*
X153342Y265846D02*
X160280D01*
X296659Y271898D02*
X300762Y276000D01*
X288524Y271898D02*
X296659D01*
X279177Y272000D02*
X281839Y269339D01*
X278457Y274457D02*
X281500Y277500D01*
X266476Y274457D02*
X278457D01*
X142500Y-7500D02*
Y-2476D01*
X140000Y-10000D02*
X142500Y-7500D01*
X114000Y-10000D02*
X140000D01*
X196500Y187500D02*
X232500D01*
X193500Y190000D02*
X236441D01*
X185825Y160020D02*
Y163752D01*
X184941Y159136D02*
X185825Y160020D01*
X20221Y260000D02*
X21721Y258500D01*
X-7150Y260000D02*
X20221D01*
X248701Y39201D02*
Y53500D01*
X246000Y36500D02*
X248701Y39201D01*
X236000Y36500D02*
X246000D01*
X281345Y27904D02*
Y28967D01*
X280441Y27000D02*
X281345Y27904D01*
Y28967D02*
X285559Y33181D01*
X242000Y196500D02*
Y201500D01*
X-9059Y261910D02*
X-7150Y260000D01*
X-10059Y263500D02*
Y264000D01*
X-4941Y271421D02*
X-4343Y270823D01*
X-4941Y271421D02*
Y277894D01*
X-4343Y264402D02*
X-3941Y264000D01*
X-4343Y264402D02*
Y270823D01*
X166000Y-4398D02*
Y2500D01*
Y-4398D02*
X169059Y-7457D01*
Y-11599D02*
Y-7457D01*
X75803Y12358D02*
X78339Y9823D01*
X50858Y12358D02*
X75803D01*
X48000Y9500D02*
X50858Y12358D01*
X47929Y5223D02*
X48000Y5294D01*
Y9500D01*
X78339Y5000D02*
Y9823D01*
X139003Y17003D02*
X139997D01*
X142500Y14500D01*
Y2839D02*
Y14500D01*
X154408Y-1158D02*
X157968D01*
X153000Y250D02*
X154408Y-1158D01*
X163941Y-11599D02*
Y559D01*
X161917Y2583D02*
X163941Y559D01*
X157968Y2583D02*
X161917D01*
X155488Y-8512D02*
X157581Y-6419D01*
X155488Y-11470D02*
Y-8512D01*
X157581Y-4898D02*
X157968D01*
X155303Y-11655D02*
X155488Y-11470D01*
X148617Y-7176D02*
Y-4995D01*
X148520Y-4898D02*
X148617Y-4995D01*
Y-7176D02*
X150129Y-8688D01*
Y-11599D02*
Y-8688D01*
Y-11599D02*
X150185Y-11655D01*
X142500Y2839D02*
X142756Y2583D01*
X148520D01*
X52374Y265626D02*
Y270161D01*
X64882D02*
X67543Y267500D01*
X55524Y270161D02*
X64882D01*
X60839Y294374D02*
X68126D01*
X70000Y287595D02*
Y292500D01*
X60839Y297524D02*
X72421D01*
X285559Y33181D02*
Y34000D01*
X199559Y37059D02*
X200500D01*
X195344Y32844D02*
X199559Y37059D01*
X194404Y32844D02*
X195344D01*
X193500Y31941D02*
X194404Y32844D01*
X101053Y37059D02*
X101996D01*
X96839Y32844D02*
X101053Y37059D01*
X95900Y32844D02*
X96839D01*
X94996Y31941D02*
X95900Y32844D01*
X108598Y31941D02*
X108658Y31882D01*
X200500Y31941D02*
X200559Y31882D01*
X83061Y-4439D02*
Y-3463D01*
X80500Y-7000D02*
X83061Y-4439D01*
X57059Y-7000D02*
X80500D01*
X56059Y-6000D02*
X57059Y-7000D01*
X83061Y-3463D02*
X83642Y-2882D01*
X280441Y33803D02*
Y34000D01*
X48000Y313000D02*
Y321779D01*
X47929Y321850D02*
X48000Y321779D01*
X46075Y311075D02*
X48000Y313000D01*
X46075Y302839D02*
Y311075D01*
X40500Y288075D02*
X43520D01*
X46669Y291224D01*
X60839D01*
X37500Y288075D02*
X40500D01*
X64071Y321850D02*
X69906D01*
X47929D02*
X64071D01*
X41619D02*
X47929D01*
Y328150D02*
X70000D01*
X22494Y47500D02*
X50500D01*
X54000Y264000D02*
X80500D01*
X52374Y265626D02*
X54000Y264000D01*
X56177Y5055D02*
X56232Y5000D01*
X65842D01*
X51945Y5000D02*
X52000Y5055D01*
Y8000D01*
X54000Y10000D01*
X69000D01*
X70934Y8066D01*
Y5223D02*
Y8066D01*
Y5223D02*
X71157Y5000D01*
X44937Y-6000D02*
X50941D01*
X71157Y-1158D02*
Y5000D01*
Y-1158D02*
X72882Y-2882D01*
X76161D01*
X56059Y-13000D02*
X56177Y-13118D01*
X71118D01*
X78350Y1500D02*
Y4988D01*
X78339Y5000D02*
X78350Y4988D01*
Y1500D02*
X79669Y181D01*
Y-2650D02*
Y181D01*
Y-2650D02*
X79902Y-2882D01*
X83642Y4988D02*
X83654Y5000D01*
X83642Y-2882D02*
Y4988D01*
Y-2882D02*
X83701Y-2941D01*
X91000D01*
X91044Y-2897D01*
X88799Y259150D02*
X89000Y259350D01*
X153150Y271158D02*
X153244Y271063D01*
X234500Y138000D02*
X241000D01*
X231000Y142000D02*
X231000Y142000D01*
X241000D01*
X238650Y182500D02*
Y187791D01*
X236441Y190000D02*
X238650Y187791D01*
X235098Y180500D02*
Y184902D01*
X232500Y187500D02*
X235098Y184902D01*
X37500Y309616D02*
X39776Y307341D01*
Y302839D02*
Y307341D01*
X42925Y302839D02*
Y309500D01*
X67400Y252400D02*
X67500Y252500D01*
X44547Y249921D02*
X72421D01*
X40541Y252400D02*
X67400D01*
X72421Y249921D02*
X74500Y252000D01*
X46250Y254500D02*
X62000D01*
X42925Y257825D02*
X46250Y254500D01*
X42925Y257825D02*
Y270161D01*
X62130Y261394D02*
X74500D01*
X77421Y258472D01*
X72720Y257500D02*
X74500Y255720D01*
X49500Y257500D02*
X72720D01*
X74500Y252000D02*
Y255720D01*
X46075Y260925D02*
Y270161D01*
Y260925D02*
X49500Y257500D01*
X42500Y247874D02*
X44547Y249921D01*
X42500Y194500D02*
Y247874D01*
Y194500D02*
X44500Y192500D01*
X57059D01*
X60559Y189000D01*
X53374Y247500D02*
X75000D01*
X51000Y245126D02*
X53374Y247500D01*
X51000Y219622D02*
Y245126D01*
Y219622D02*
X60559Y210063D01*
X77421Y249921D02*
Y258472D01*
X75000Y247500D02*
X77421Y249921D01*
X60559Y204024D02*
Y210063D01*
X156807Y204148D02*
Y205339D01*
X154159Y201500D02*
X156807Y204148D01*
X151000Y201500D02*
X154159D01*
X175307Y205339D02*
Y206529D01*
X177955Y209177D01*
X181114D01*
X107944Y223900D02*
X115500D01*
X106664Y222620D02*
X107944Y223900D01*
X100098Y222620D02*
X106664D01*
X100098Y225180D02*
X105500D01*
X230399Y210337D02*
X230615D01*
X231378Y209575D01*
X238650Y281213D02*
X243843Y286405D01*
Y289697D01*
X237441Y291283D02*
Y298500D01*
Y291283D02*
X239028Y289697D01*
X243843D01*
X29953Y181917D02*
Y189500D01*
X151000Y228157D02*
X151728Y227429D01*
X158000D01*
X174559Y204591D02*
X175307Y205339D01*
X175807Y186000D02*
X185000D01*
X174559Y187248D02*
X175807Y186000D01*
X174559Y187248D02*
Y190878D01*
X185000Y186000D02*
X186658Y187657D01*
Y190878D01*
X74559Y55378D02*
X80000D01*
X234901Y234803D02*
X235000D01*
X230941Y230842D02*
X234901Y234803D01*
X224559Y230842D02*
X230941D01*
X215303Y242500D02*
X219303Y238500D01*
X201500Y242500D02*
X215303D01*
X198843Y236000D02*
Y239843D01*
X201500Y242500D01*
X60000D02*
X64984D01*
X184500Y212209D02*
X186000Y210709D01*
X184500Y212209D02*
Y219179D01*
X181059Y222620D02*
X184500Y219179D01*
X-10059Y277894D02*
Y284870D01*
X18000Y284925D02*
X28161D01*
X35337Y315568D02*
X41619Y321850D01*
X35140Y315568D02*
X35337D01*
X33968Y314397D02*
X35140Y315568D01*
X33968Y314200D02*
Y314397D01*
X156941Y190878D02*
X157000Y190819D01*
X294908Y15000D02*
X298500D01*
X241500Y29658D02*
X248693D01*
X40500Y278626D02*
X43126D01*
X37500D02*
X40500D01*
X28161D02*
X37500D01*
X177000Y315000D02*
Y324500D01*
X257500Y219927D02*
Y230500D01*
X255411Y217838D02*
X257500Y219927D01*
X251691Y217838D02*
X255411D01*
X305343Y292000D02*
X306842Y293500D01*
X302500Y292000D02*
X305343D01*
X300500Y290000D02*
X302500Y292000D01*
X306842Y293500D02*
Y297825D01*
X312000Y297982D02*
X312158Y297825D01*
X312000Y297982D02*
Y311500D01*
X119000Y274000D02*
Y279492D01*
X175000Y313000D02*
X177000Y315000D01*
X172500Y313000D02*
X175000D01*
X320400Y288400D02*
X323000Y291000D01*
X311600Y288400D02*
X320400D01*
X316500Y290500D02*
X318150Y292150D01*
Y313500D01*
X323000Y291000D02*
Y316500D01*
X144992Y279492D02*
X145000Y279500D01*
X126500Y279492D02*
X144992D01*
X248701Y299085D02*
X252291D01*
X244717D02*
X248701D01*
X243843Y298211D02*
X244717Y299085D01*
X204311Y311039D02*
Y317846D01*
X174626Y281528D02*
X176165Y283067D01*
X170287Y277949D02*
X182268D01*
X167244Y274905D02*
X170287Y277949D01*
X249158Y283750D02*
Y289697D01*
X119000Y297825D02*
X126500D01*
X119000Y285398D02*
Y292707D01*
X126500Y285398D02*
Y292707D01*
X243843Y289697D02*
Y298211D01*
X258591Y299085D02*
X265500D01*
X67500Y315000D02*
X67500Y315000D01*
X54126Y315000D02*
X67500D01*
X49224Y310098D02*
X54126Y315000D01*
X54874Y312500D02*
X64886D01*
X52374Y310000D02*
X54874Y312500D01*
X49224Y302839D02*
Y310098D01*
X52374Y302839D02*
Y310000D01*
X88799Y275555D02*
X89000Y275354D01*
X77000Y275555D02*
X88799D01*
X300500Y282945D02*
Y290000D01*
X298500Y292000D02*
X300500Y290000D01*
X276559Y292000D02*
X298500D01*
X298898Y281343D02*
X300500Y282945D01*
X295500Y281343D02*
X298898D01*
X275329Y290770D02*
X276559Y292000D01*
X275132Y290770D02*
X275329D01*
X274059Y289697D02*
X275132Y290770D01*
X274059Y289500D02*
Y289697D01*
X17500Y19500D02*
Y25000D01*
Y19500D02*
X19500Y17500D01*
X55000D01*
X130000Y52617D02*
X132617Y50000D01*
X156000D01*
X158500Y47500D01*
Y40701D02*
Y47500D01*
X21000Y302500D02*
X26000D01*
X28161Y300339D01*
Y297524D02*
Y300339D01*
X33476Y294524D02*
X36000Y292000D01*
X33476Y294524D02*
Y302839D01*
X36000Y292000D02*
X42500D01*
X50500Y47500D02*
X52496Y45504D01*
Y40740D02*
Y45504D01*
X20000Y294374D02*
X28161D01*
X68126D02*
X70000Y292500D01*
X28161Y288075D02*
X37500D01*
X118200Y319300D02*
X120000Y317500D01*
X84800Y319300D02*
X118200D01*
X68339Y302839D02*
X84800Y319300D01*
X55524Y302839D02*
X68339D01*
X119803Y314189D02*
X120000D01*
X24000Y198555D02*
X24047Y198508D01*
Y189500D02*
Y198508D01*
X23894Y205339D02*
X24000Y205445D01*
X7500Y205339D02*
X23894D01*
X69906Y321850D02*
X70055Y322000D01*
X-15000Y297500D02*
X-12000Y300500D01*
X-15000Y190000D02*
Y297500D01*
Y190000D02*
X-12500Y187500D01*
X5000D01*
X7500Y190000D01*
Y195339D01*
X-8115Y224785D02*
X20000D01*
X-10215Y222685D02*
X-8115Y224785D01*
X-10215Y207215D02*
Y222685D01*
Y207215D02*
X-8339Y205339D01*
X-2500D01*
X36500Y224785D02*
Y270035D01*
X36626Y270161D01*
X30339Y215339D02*
X33476Y218476D01*
Y270161D01*
X7500Y215339D02*
X30339D01*
X70937Y282445D02*
X77000D01*
X67118Y278626D02*
X70937Y282445D01*
X60839Y278626D02*
X67118D01*
X60839Y281776D02*
X66000D01*
X67500Y283276D01*
Y286658D01*
X66083Y288075D02*
X67500Y286658D01*
X60839Y288075D02*
X66083D01*
X43520D02*
X46669Y284925D01*
X60839D01*
X46276Y281776D02*
X60839D01*
X43126Y278626D02*
X46276Y281776D01*
X89000Y284925D02*
Y294646D01*
X86520Y282445D02*
X89000Y284925D01*
X77000Y282445D02*
X86520D01*
X89000Y294646D02*
Y304850D01*
Y265650D02*
Y275354D01*
X76921Y275476D02*
X77000Y275555D01*
X60839Y275476D02*
X76921D01*
X108658Y42118D02*
Y49343D01*
X116138Y42118D02*
Y49343D01*
X108658Y54658D02*
X116138D01*
X95055Y47559D02*
X96839Y49343D01*
X108658D01*
X102496Y25000D02*
X110746D01*
X112398Y26652D01*
Y31882D01*
Y50917D02*
X116138Y54658D01*
X112398Y42118D02*
Y50917D01*
X52496Y40740D02*
X59957D01*
X59996Y40701D01*
X52496Y37000D02*
X55878D01*
X57295Y35583D01*
X59996D01*
X44529Y26908D02*
X44937Y26500D01*
X44529Y26908D02*
Y29467D01*
X43047Y30949D02*
Y33260D01*
Y30949D02*
X44529Y29467D01*
X50463D02*
X51945Y30949D01*
X50463Y26908D02*
Y29467D01*
X42988Y40799D02*
X43047Y40740D01*
X35496Y40799D02*
X42988D01*
X134000D02*
X141492D01*
X141551Y40740D01*
X148967Y26908D02*
Y29467D01*
X150449Y30949D01*
X141551D02*
X143033Y29467D01*
X141551Y30949D02*
Y33260D01*
X143033Y26908D02*
Y29467D01*
Y26908D02*
X143441Y26500D01*
X155799Y35583D02*
X158500D01*
X154382Y37000D02*
X155799Y35583D01*
X151000Y37000D02*
X154382D01*
X158461Y40740D02*
X158500Y40701D01*
X151000Y40740D02*
X158461D01*
X210902Y42118D02*
Y50917D01*
X214642Y54658D01*
X210902Y26652D02*
Y31882D01*
X209250Y25000D02*
X210902Y26652D01*
X201000Y25000D02*
X209250D01*
X195343Y49343D02*
X207161D01*
X193559Y47559D02*
X195343Y49343D01*
X207161Y54658D02*
X214642D01*
Y42118D02*
Y49343D01*
X207161Y42118D02*
Y49343D01*
X317500Y0D02*
Y21500D01*
X315000Y-2500D02*
X317500Y0D01*
X293500Y-2500D02*
X315000D01*
X290843Y158D02*
X293500Y-2500D01*
X290843Y158D02*
Y5000D01*
X293810Y16098D02*
X294908Y15000D01*
X290618Y16098D02*
X293810D01*
X262559Y24441D02*
X265500D01*
X261000Y26000D02*
X262559Y24441D01*
X258224Y26000D02*
X261000D01*
X256467Y15408D02*
Y17967D01*
X258224Y19724D02*
Y22260D01*
X256467Y17967D02*
X258224Y19724D01*
X248776D02*
X250533Y17967D01*
X248776Y19724D02*
Y22260D01*
X250533Y15408D02*
Y17967D01*
Y15408D02*
X250941Y15000D01*
X248693Y29658D02*
X248776Y29740D01*
X258224D02*
X258405Y29559D01*
X265500D01*
X272500Y18000D02*
Y24441D01*
X290618Y19839D02*
X290799Y19658D01*
X290618Y12358D02*
X290843Y12134D01*
Y5000D02*
Y12134D01*
X134956Y321800D02*
Y326456D01*
X136430Y327930D01*
X151556D01*
X126500Y309142D02*
X132783D01*
X134956Y311314D01*
Y314200D01*
X126500Y314457D02*
X126697D01*
X127868Y315628D01*
Y315825D01*
X128743Y316700D01*
X134956D01*
X120000Y314189D02*
Y317500D01*
X121800Y319300D01*
X134956D01*
X151556Y321800D02*
Y327930D01*
X159942Y319300D02*
X160000Y319357D01*
X151556Y319300D02*
X159942D01*
X174744Y290744D02*
X179500D01*
X169626Y285626D02*
X174744Y290744D01*
X160221Y285626D02*
X169626D01*
X179803Y262906D02*
X189500D01*
X189471Y277949D02*
Y283750D01*
X187594Y285626D02*
X189471Y283750D01*
X182268Y285626D02*
X187594D01*
X192500Y272709D02*
Y285591D01*
X189922Y288168D02*
X192500Y285591D01*
X182284Y288168D02*
X189922D01*
X190197Y270406D02*
X192500Y272709D01*
X179744Y270406D02*
X190197D01*
X182268Y288185D02*
X182284Y288168D01*
X153244Y265748D02*
X153342Y265846D01*
X160280D02*
X167244D01*
X295402Y286559D02*
X295500Y286658D01*
X152744Y280508D02*
X160221D01*
Y270905D02*
Y277949D01*
X167244Y270965D02*
Y274905D01*
X174626Y270209D02*
Y270406D01*
X173553Y269135D02*
X174626Y270209D01*
X173356Y269135D02*
X173553D01*
X170211Y265991D02*
X173356Y269135D01*
X167388Y265991D02*
X170211D01*
X167244Y265846D02*
X167388Y265991D01*
X176165Y283067D02*
X182268D01*
X174827Y284405D02*
X176165Y283067D01*
X174744Y284405D02*
X174827D01*
X160221Y283067D02*
X166905D01*
X168244Y281728D01*
Y281405D02*
Y281728D01*
X194728Y317846D02*
X198996D01*
X214547Y303559D02*
X214606Y303618D01*
X193441Y308874D02*
Y316559D01*
X194728Y317846D01*
X214547Y307299D02*
X233760D01*
X237244Y303618D02*
X237441D01*
X236171Y304691D02*
X237244Y303618D01*
X236171Y304691D02*
Y304888D01*
X233760Y307299D02*
X236171Y304888D01*
X223500Y303618D02*
X230441D01*
X206343Y298500D02*
X223500D01*
X204311Y300532D02*
X206343Y298500D01*
X204311Y300532D02*
Y303559D01*
X278897Y168500D02*
X286500D01*
X272250Y175147D02*
X278897Y168500D01*
X272250Y175147D02*
Y178441D01*
X264500Y183559D02*
X272250D01*
X279161Y261661D02*
X288524D01*
X277000Y259500D02*
X279161Y261661D01*
X277780Y266779D02*
X288524D01*
X272250Y261250D02*
X277780Y266779D01*
X281839Y269339D02*
X288524D01*
X260000Y289500D02*
X268941D01*
X257500Y287000D02*
X260000Y289500D01*
X257500Y268500D02*
Y287000D01*
Y268500D02*
X261779Y264220D01*
X266476D01*
X272579Y269339D02*
X273917Y268000D01*
X266476Y269339D02*
X272579D01*
X262287Y282000D02*
X269000D01*
X260000Y279713D02*
X262287Y282000D01*
X260000Y269000D02*
Y279713D01*
X262221Y266779D02*
X266476D01*
X260000Y269000D02*
X262221Y266779D01*
X281356Y286415D02*
X281500Y286559D01*
X278533Y286415D02*
X281356D01*
X275388Y283270D02*
X278533Y286415D01*
X275191Y283270D02*
X275388D01*
X274118Y282197D02*
X275191Y283270D01*
X274118Y282000D02*
Y282197D01*
X281500Y286559D02*
X288465D01*
X281500Y277500D02*
Y281441D01*
X288524Y274457D02*
Y281500D01*
X238650Y276945D02*
Y281213D01*
X221335Y271630D02*
X224362D01*
X219303Y269598D02*
X221335Y271630D01*
X225691Y239770D02*
X228102Y242181D01*
X225495Y239770D02*
X225691D01*
X224421Y238697D02*
X225495Y239770D01*
X224421Y238500D02*
Y238697D01*
X228102Y242181D02*
Y261394D01*
X237362Y282500D02*
X238650Y281213D01*
X229677Y282500D02*
X237362D01*
X231842Y271630D02*
X238650D01*
X106500Y196158D02*
Y200878D01*
X181114Y191106D02*
X181342Y190878D01*
X181114Y191106D02*
Y201500D01*
X224618Y223059D02*
X244441D01*
X224559Y223000D02*
X224618Y223059D01*
X244544Y222956D02*
X251691D01*
X169441Y190878D02*
X169500Y190937D01*
Y201500D01*
X198685Y236000D02*
X198843D01*
X198528Y236157D02*
X198685Y236000D01*
X204000Y235842D02*
X204157Y236000D01*
X204000Y205100D02*
X204250Y204850D01*
X162614Y209177D02*
Y211886D01*
X158000Y216500D02*
X162614Y211886D01*
X158000Y216500D02*
Y222311D01*
X146000Y209266D02*
X150911D01*
X151000Y209177D01*
X162559Y201445D02*
X162614Y201500D01*
X151000Y228157D02*
Y234500D01*
Y209177D02*
Y222843D01*
Y195677D02*
Y201500D01*
X181114Y209177D02*
Y215000D01*
X132405Y230300D02*
Y236000D01*
X129845Y227740D02*
X132405Y230300D01*
X129760Y227740D02*
X129845D01*
X140098Y205000D02*
X140441Y204658D01*
X132405Y205000D02*
X140098D01*
X106342Y196000D02*
X106500Y196158D01*
X110594Y205000D02*
X110860D01*
X111658Y204202D01*
Y196000D02*
Y204202D01*
X132405Y220000D02*
Y225095D01*
X129760Y227740D02*
X132405Y225095D01*
X100098Y227740D02*
X129760D01*
X100098Y220060D02*
X100158Y220000D01*
X110594D01*
X74559Y227000D02*
X76379Y225180D01*
X82898D01*
X60000Y235000D02*
X64941D01*
X82898Y230300D02*
Y240602D01*
X81000Y242500D02*
X82898Y240602D01*
X70102Y242500D02*
X81000D01*
X77319Y227740D02*
X82898D01*
X71329Y233730D02*
X77319Y227740D01*
X71132Y233730D02*
X71329D01*
X70059Y234803D02*
X71132Y233730D01*
X70059Y234803D02*
Y235000D01*
X60000Y227740D02*
X64886D01*
X71569Y226372D02*
X75321Y222620D01*
X71372Y226372D02*
X71569D01*
X70201Y227543D02*
X71372Y226372D01*
X70201Y227543D02*
Y227740D01*
X75321Y222620D02*
X82898D01*
X75221Y204024D02*
Y211500D01*
X34000Y105150D02*
X46350D01*
X30000D02*
X34000D01*
X-10122Y150878D02*
X5693D01*
X-12500Y148500D02*
X-10122Y150878D01*
X-12500Y139500D02*
Y148500D01*
X246941Y105150D02*
X259291D01*
X242941D02*
X246941D01*
X204000Y151000D02*
X218756D01*
X200000Y147000D02*
X204000Y151000D01*
X200000Y139500D02*
Y147000D01*
X93500Y147500D02*
X97000Y151000D01*
X112256D01*
X93500Y139500D02*
Y147500D01*
X242500Y80378D02*
X245122Y83000D01*
X242500Y44000D02*
Y80378D01*
X5693Y150878D02*
X5815Y151000D01*
X70000Y215701D02*
Y222000D01*
Y215701D02*
X70201Y215500D01*
X72661Y197839D02*
X76000Y194500D01*
X72661Y197839D02*
Y204024D01*
X60559Y172500D02*
Y181917D01*
X60500Y181976D02*
X60559Y181917D01*
Y172500D02*
X63059Y170000D01*
X72720D01*
X75221Y172500D01*
Y181976D01*
X47500Y189000D02*
X55441D01*
X47500Y204000D02*
X47524Y204024D01*
X55441D01*
X47500Y181976D02*
X55382D01*
X47500Y196500D02*
X55441D01*
X77780Y181976D02*
Y187721D01*
X69000Y196500D02*
X77780Y187721D01*
X60559Y196500D02*
X69000D01*
X70500Y189000D02*
X72661Y186839D01*
Y181976D02*
Y186839D01*
X65500Y189000D02*
X67543Y186957D01*
X60559Y189000D02*
X65500D01*
X67543Y181976D02*
Y186957D01*
X60559Y204024D02*
X67543D01*
X70102Y215402D02*
X70201Y215500D01*
X70102Y204024D02*
Y215402D01*
X72661Y175000D02*
Y181976D01*
X297441Y88784D02*
X297590Y88933D01*
Y95378D01*
X291291Y88287D02*
Y95378D01*
X290941Y87937D02*
X291291Y88287D01*
X287500Y62878D02*
Y70000D01*
X261882Y88378D02*
X261882Y88378D01*
X257075Y73220D02*
X266441D01*
X290941Y77500D02*
Y82819D01*
X291441Y95528D02*
Y105500D01*
X291291Y95378D02*
X291441Y95528D01*
X284004Y87937D02*
X290941D01*
X282279Y89661D02*
X284004Y87937D01*
X282279Y89661D02*
Y95402D01*
X279720Y73354D02*
Y86221D01*
X277563Y88378D02*
X279720Y86221D01*
X267000Y88378D02*
X277563D01*
X278250Y62980D02*
X282279D01*
X270647Y55378D02*
X278250Y62980D01*
X266598Y55378D02*
X270647D01*
X279720Y67329D02*
Y73354D01*
X275269Y62878D02*
X279720Y67329D01*
X266598Y62878D02*
X275269D01*
X287500Y55378D02*
X293000D01*
X266441Y73220D02*
X266575Y73354D01*
X274602D01*
X262941Y67000D02*
X275441D01*
X261283Y65342D02*
X262941Y67000D01*
X261283Y62878D02*
Y65342D01*
X275441Y67000D02*
X277161Y68721D01*
Y73354D01*
X282382Y55378D02*
X282382Y55378D01*
X282382Y55378D02*
Y62878D01*
X282279Y62980D02*
X282382Y62878D01*
X282279Y62980D02*
Y73354D01*
X261882Y95402D02*
Y102559D01*
X259291Y105150D02*
X261882Y102559D01*
X267000Y95402D02*
X274602D01*
X246941Y92500D02*
Y98850D01*
X218941Y105126D02*
X218965Y105150D01*
X218756Y105311D02*
X218941Y105126D01*
X112256Y105311D02*
X112441Y105126D01*
X112465Y105150D01*
X140441Y92500D02*
Y98850D01*
X160500Y95402D02*
X168102D01*
X136441Y105150D02*
X152791D01*
X155382Y102559D01*
Y95402D02*
Y102559D01*
X175779Y62980D02*
Y73354D01*
Y62980D02*
X175882Y62878D01*
Y55378D02*
Y62878D01*
Y55378D02*
X175882Y55378D01*
X170661Y68721D02*
Y73354D01*
X168941Y67000D02*
X170661Y68721D01*
X154783Y62878D02*
Y65342D01*
X156441Y67000D01*
X168941D01*
X160075Y73354D02*
X168102D01*
X159941Y73220D02*
X160075Y73354D01*
X154441Y78535D02*
X159941D01*
X149284Y55378D02*
X154783D01*
X181000D02*
X186500D01*
X160098Y62878D02*
X168769D01*
X173221Y67329D01*
Y73354D01*
X160098Y55378D02*
X164147D01*
X171750Y62980D01*
X175779D01*
X160500Y88378D02*
X171063D01*
X173221Y86221D01*
Y73354D02*
Y86221D01*
X175779Y89661D02*
Y95402D01*
Y89661D02*
X177504Y87937D01*
X184441D01*
X184791Y95378D02*
X184941Y95528D01*
Y105500D01*
X148941Y62878D02*
X154783D01*
X184441Y77500D02*
Y82819D01*
X170661Y95402D02*
Y100000D01*
X168161Y102500D02*
X170661Y100000D01*
X150575Y73220D02*
X159941D01*
X160500Y95402D02*
Y102500D01*
X155382Y88378D02*
X155382Y88378D01*
X181000Y62878D02*
Y70000D01*
X155382Y83000D02*
Y88378D01*
X184441Y87937D02*
X184791Y88287D01*
Y95378D01*
X191091Y88933D02*
Y95378D01*
X190941Y88784D02*
X191091Y88933D01*
X84500Y88784D02*
X84650Y88933D01*
Y95378D01*
X78350Y88287D02*
Y95378D01*
X78000Y87937D02*
X78350Y88287D01*
X48941Y83000D02*
Y88378D01*
X74559Y62878D02*
Y70000D01*
X48941Y88378D02*
X48941Y88378D01*
X54059Y95402D02*
Y102500D01*
X44134Y73220D02*
X53500D01*
X61721Y102500D02*
X64220Y100000D01*
Y95402D02*
Y100000D01*
X78000Y77500D02*
Y82819D01*
X42500Y62878D02*
X48342D01*
X78500Y159136D02*
Y164636D01*
Y95528D02*
Y105500D01*
X78350Y95378D02*
X78500Y95528D01*
X71063Y87937D02*
X78000D01*
X69339Y89661D02*
X71063Y87937D01*
X69339Y89661D02*
Y95402D01*
X66780Y73354D02*
Y86221D01*
X64622Y88378D02*
X66780Y86221D01*
X54059Y88378D02*
X64622D01*
X66780Y67329D02*
Y73354D01*
X62328Y62878D02*
X66780Y67329D01*
X53658Y62878D02*
X62328D01*
X42843Y55378D02*
X48342D01*
X48000Y78535D02*
X53500D01*
Y73220D02*
X53634Y73354D01*
X61661D01*
X50000Y67000D02*
X62500D01*
X48342Y65342D02*
X50000Y67000D01*
X48342Y62878D02*
Y65342D01*
X62500Y67000D02*
X64220Y68721D01*
Y73354D01*
X69441Y55378D02*
X69441Y55378D01*
X69441Y55378D02*
Y62878D01*
X69339Y62980D02*
X69441Y62878D01*
X69339Y62980D02*
Y73354D01*
X48941Y95402D02*
Y102559D01*
X46350Y105150D02*
X48941Y102559D01*
X54059Y95402D02*
X61661D01*
X34000Y92500D02*
Y98850D01*
X6000Y105126D02*
X6024Y105150D01*
X5815Y105311D02*
X6000Y105126D01*
D47*
X300762Y39000D02*
Y59738D01*
X297539Y62961D02*
X300762Y59738D01*
X294098Y62961D02*
X297539D01*
X347500Y191106D02*
Y215000D01*
X230299Y169000D02*
X250846D01*
X227299Y172000D02*
X230299Y169000D01*
X204000Y224785D02*
Y235842D01*
D48*
X268000Y175000D02*
X290000Y153000D01*
X200000Y175000D02*
X268000D01*
X290000Y150500D02*
Y153000D01*
X187760Y18500D02*
X216000D01*
X179760Y26500D02*
X187760Y18500D01*
X148559Y26500D02*
X179760D01*
X-1000Y73354D02*
X0Y72354D01*
X25500Y1000D02*
X60500D01*
X0Y26500D02*
X25500Y1000D01*
X0Y26500D02*
Y72354D01*
X16500Y15000D02*
X94471D01*
X11500Y20000D02*
X16500Y15000D01*
X11500Y20000D02*
Y73370D01*
X137500Y26500D02*
X143441D01*
X129000D02*
X137500D01*
X76161Y-16161D02*
Y-13118D01*
Y-16161D02*
X77500Y-17500D01*
X105441Y61000D02*
Y72565D01*
X106246Y73370D01*
X119500Y23000D02*
Y35500D01*
X117000Y20500D02*
X119500Y23000D01*
X80496Y20500D02*
X117000D01*
X108658Y31882D02*
Y35583D01*
X110134Y37059D01*
X117941D01*
X119500Y35500D01*
X125500Y20000D02*
X168500D01*
X122547Y22953D02*
X125500Y20000D01*
X122547Y22953D02*
Y68323D01*
X117500Y73370D02*
X122547Y68323D01*
X219000Y21500D02*
Y34083D01*
X216000Y18500D02*
X219000Y21500D01*
X207161Y31882D02*
Y35583D01*
X208638Y37059D01*
X216024D01*
X219000Y34083D01*
X271000Y7500D02*
X284097D01*
X263500Y15000D02*
X271000Y7500D01*
X256059Y15000D02*
X263500D01*
X286000Y9403D02*
Y18000D01*
X284097Y7500D02*
X286000Y9403D01*
X280382Y19839D02*
X284161D01*
X286000Y18000D01*
X211079Y303618D02*
X214606D01*
X207300Y322500D02*
X209441Y320359D01*
Y305256D02*
Y320359D01*
Y305256D02*
X211079Y303618D01*
X185500Y322500D02*
X207300D01*
X232405Y266500D02*
X236000Y262906D01*
X226000Y266500D02*
X232405D01*
X224362Y264862D02*
X226000Y266500D01*
X224362Y261394D02*
Y264862D01*
X223500Y282500D02*
Y298500D01*
X169000Y258000D02*
X219000D01*
X166000Y255000D02*
X169000Y258000D01*
X166000Y237130D02*
Y255000D01*
X291441Y131091D02*
Y149864D01*
X201500Y184000D02*
X222980D01*
X74496Y26500D02*
X80496Y20500D01*
X322500Y17500D02*
Y21824D01*
X319024Y25300D02*
X322500Y21824D01*
X319024Y25300D02*
Y30878D01*
X145000Y-11655D02*
X150185D01*
X208500Y1000D02*
Y14000D01*
X224047Y13953D02*
X226500Y11500D01*
X224047Y13953D02*
Y73354D01*
X77500Y-17500D02*
X153500Y-17500D01*
X155303Y-15697D01*
X240000Y15000D02*
X250941D01*
X92500Y175000D02*
X200000D01*
X92500Y152500D02*
Y175000D01*
X200000Y152500D02*
Y175000D01*
X171500Y1000D02*
Y17000D01*
X168500Y20000D02*
X171500Y17000D01*
X155303Y-15697D02*
Y-11655D01*
X208500Y61500D02*
Y68870D01*
X5815Y105311D02*
Y151000D01*
X174559Y190878D02*
Y204591D01*
X173221Y327500D02*
X338000Y327500D01*
X170280Y328000D02*
X171500D01*
X50055Y26500D02*
X74496D01*
X38996D02*
X44937D01*
X105441Y2559D02*
Y15000D01*
X208500Y68870D02*
X213000Y73370D01*
X109500Y-1500D02*
X134500D01*
X105441Y2559D02*
X109500Y-1500D01*
X97500Y1000D02*
Y11971D01*
X94471Y15000D02*
X97500Y11971D01*
X348378Y220878D02*
X353000Y225500D01*
X339024Y220878D02*
X348378D01*
X329024D02*
X339024D01*
X319024D02*
X329024D01*
X309024D02*
X319024D01*
X338000Y327500D02*
X353000Y312500D01*
Y225500D02*
Y312500D01*
X182268Y295862D02*
Y319268D01*
Y293303D02*
Y295862D01*
Y319268D02*
X185500Y322500D01*
X198441Y307299D02*
X204311D01*
X193441Y303559D02*
X204311D01*
X236171Y261500D02*
X265935D01*
X224362Y271630D02*
Y282500D01*
X228102Y271630D02*
Y277500D01*
X6024Y105150D02*
X30000D01*
X218965D02*
X242941D01*
X184941Y149864D02*
X197364D01*
X200000Y152500D01*
X89864Y149864D02*
X92500Y152500D01*
X78500Y149864D02*
X89864D01*
X218756Y105311D02*
Y151000D01*
X112256Y105311D02*
Y151000D01*
X112465Y105150D02*
X140441D01*
D49*
X129000Y26500D02*
D03*
X233480Y194500D02*
D03*
X322500Y-7500D02*
D03*
X171500Y327500D02*
D03*
X294000Y44000D02*
D03*
X132405Y236000D02*
D03*
X200000Y139500D02*
D03*
X93500D02*
D03*
X242500Y44000D02*
D03*
X-12500Y139500D02*
D03*
D50*
X263661Y309616D02*
D03*
X246339D02*
D03*
D51*
X-2500Y195339D02*
D03*
X7500D02*
D03*
X-2500Y205339D02*
D03*
X7500D02*
D03*
X-2500Y215339D02*
D03*
D52*
X7500D02*
D03*
D53*
X230399Y207237D02*
D03*
Y210337D02*
D03*
X227299Y207237D02*
D03*
Y210337D02*
D03*
X224199Y207237D02*
D03*
Y210337D02*
D03*
X294000Y32000D02*
D03*
X285097Y163752D02*
D03*
X294500Y187500D02*
D03*
X266476Y178400D02*
D03*
X212000Y179500D02*
D03*
X292559Y118500D02*
D03*
X294461Y139461D02*
D03*
X255784Y55378D02*
D03*
X255441Y62878D02*
D03*
X172500Y21500D02*
D03*
X130000Y17000D02*
D03*
X97378Y67500D02*
D03*
X87500Y77500D02*
D03*
Y167500D02*
D03*
X29953Y181917D02*
D03*
X15000Y208110D02*
D03*
X20000Y220060D02*
D03*
X29323Y220323D02*
D03*
X24500Y229500D02*
D03*
X50941Y-13000D02*
D03*
X116138Y27466D02*
D03*
X109000D02*
D03*
X130000Y63100D02*
D03*
X105441Y61000D02*
D03*
X268500Y20000D02*
D03*
X256000Y8000D02*
D03*
X276000Y20000D02*
D03*
X214547Y314953D02*
D03*
X223500Y303618D02*
D03*
X202000Y212500D02*
D03*
X231842Y245500D02*
D03*
X224421D02*
D03*
X148000Y190819D02*
D03*
X261882Y83000D02*
D03*
X266441Y78535D02*
D03*
X275661Y101500D02*
D03*
X267000Y100108D02*
D03*
X294098Y62961D02*
D03*
X213500Y220000D02*
D03*
X211000Y218000D02*
D03*
X222980Y184000D02*
D03*
X201500D02*
D03*
X223000Y315500D02*
D03*
X173221Y212500D02*
D03*
Y215000D02*
D03*
X173356Y196500D02*
D03*
X156000Y195677D02*
D03*
X153541D02*
D03*
X295500Y169437D02*
D03*
X259000Y108000D02*
D03*
Y110500D02*
D03*
X235098Y201248D02*
D03*
X277815Y239815D02*
D03*
X280500Y253961D02*
D03*
X271500Y239000D02*
D03*
X274118Y270878D02*
D03*
X274000Y268000D02*
D03*
X300762Y276000D02*
D03*
X279177Y272000D02*
D03*
X273500Y4791D02*
D03*
X276000D02*
D03*
X273500Y2291D02*
D03*
X276000D02*
D03*
X145000Y-11655D02*
D03*
X226500Y11500D02*
D03*
X208500Y1000D02*
D03*
X114000Y-10000D02*
D03*
X347500Y215000D02*
D03*
Y191106D02*
D03*
X322500Y17500D02*
D03*
X300762Y39000D02*
D03*
X120000Y17500D02*
D03*
X17500Y32500D02*
D03*
X196500Y187500D02*
D03*
X193500Y190000D02*
D03*
X185825Y163752D02*
D03*
X215500Y16000D02*
D03*
X21721Y258500D02*
D03*
X-1250Y293750D02*
D03*
X236000Y36500D02*
D03*
X248701Y53500D02*
D03*
X242000Y196500D02*
D03*
X207500Y214500D02*
D03*
X227299Y172000D02*
D03*
X250846Y169000D02*
D03*
X208500Y14000D02*
D03*
X291441Y159136D02*
D03*
X261606Y110500D02*
D03*
Y108000D02*
D03*
X47929Y5223D02*
D03*
X126500Y5000D02*
D03*
X129000D02*
D03*
X193500Y37059D02*
D03*
X94996D02*
D03*
X280441Y27000D02*
D03*
X70000Y287595D02*
D03*
X72421Y297524D02*
D03*
X285559Y27000D02*
D03*
X208500Y61500D02*
D03*
X70000Y328150D02*
D03*
X80500Y264000D02*
D03*
X22494Y47500D02*
D03*
X56177Y5055D02*
D03*
X52000D02*
D03*
X44937Y-6000D02*
D03*
X71118Y-13118D02*
D03*
X79902D02*
D03*
X92500Y234803D02*
D03*
X231000Y142000D02*
D03*
X234500Y138000D02*
D03*
X238650Y182500D02*
D03*
X235098Y180500D02*
D03*
X213500Y237000D02*
D03*
X211000Y233500D02*
D03*
X37500Y309616D02*
D03*
X42925Y309500D02*
D03*
X241000Y138000D02*
D03*
Y142000D02*
D03*
X67500Y252500D02*
D03*
X62130Y261394D02*
D03*
X40541Y252400D02*
D03*
X62000Y254500D02*
D03*
X105500Y225180D02*
D03*
X115500Y223900D02*
D03*
X219500Y223000D02*
D03*
X251691Y217838D02*
D03*
X286283Y194500D02*
D03*
X158500Y309500D02*
D03*
X161000D02*
D03*
X158500Y307000D02*
D03*
X161000D02*
D03*
X193441Y308874D02*
D03*
X186658Y190878D02*
D03*
X80000Y55378D02*
D03*
X235000Y234803D02*
D03*
X198843Y236000D02*
D03*
X-9657Y270823D02*
D03*
X35496Y35484D02*
D03*
X59996Y35583D02*
D03*
X158500D02*
D03*
X134000Y35484D02*
D03*
X-10059Y284870D02*
D03*
X60000Y242500D02*
D03*
X172500Y245000D02*
D03*
X39283Y314200D02*
D03*
X298500Y15000D02*
D03*
X240000D02*
D03*
X241500Y29658D02*
D03*
X177000Y324500D02*
D03*
X244500Y217941D02*
D03*
X257500Y230500D02*
D03*
X119000Y274000D02*
D03*
X172500Y313000D02*
D03*
X312000Y311500D02*
D03*
X292500Y304000D02*
D03*
X311600Y288400D02*
D03*
X318150Y313500D02*
D03*
X323000Y316500D02*
D03*
X316500Y290500D02*
D03*
X145000Y279500D02*
D03*
X248701Y299085D02*
D03*
X204311Y317846D02*
D03*
X126500Y297825D02*
D03*
X174626Y281528D02*
D03*
X249158Y283750D02*
D03*
X220000Y322500D02*
D03*
Y317846D02*
D03*
X223000Y311000D02*
D03*
X296000Y317500D02*
D03*
X285000Y305000D02*
D03*
X287000Y307000D02*
D03*
X295000Y307500D02*
D03*
X64886Y312500D02*
D03*
X67500Y315000D02*
D03*
X290500Y317500D02*
D03*
X302795Y316000D02*
D03*
X313032Y318000D02*
D03*
X305500Y306500D02*
D03*
X265500Y299085D02*
D03*
X17500Y25000D02*
D03*
X55000Y17500D02*
D03*
X21000Y302500D02*
D03*
X67543Y267500D02*
D03*
X64886Y215500D02*
D03*
X42500Y292000D02*
D03*
X20000Y294374D02*
D03*
X265500Y29559D02*
D03*
X76945Y322000D02*
D03*
X3650Y232000D02*
D03*
X-2650D02*
D03*
X36500Y224785D02*
D03*
X20000D02*
D03*
X37500Y288075D02*
D03*
X40500D02*
D03*
X37500Y278626D02*
D03*
X40500D02*
D03*
X18000Y279295D02*
D03*
X89000Y311150D02*
D03*
Y259350D02*
D03*
X116138Y54658D02*
D03*
X100996Y43500D02*
D03*
Y46000D02*
D03*
X97378Y25000D02*
D03*
X100996Y54658D02*
D03*
X38996Y26500D02*
D03*
X35496Y40799D02*
D03*
X105441Y15000D02*
D03*
X134000Y40799D02*
D03*
X137500Y26500D02*
D03*
X199500Y54658D02*
D03*
X202000D02*
D03*
X195882Y25000D02*
D03*
X199500Y46000D02*
D03*
X202000D02*
D03*
X199500Y43500D02*
D03*
X202000D02*
D03*
X214642Y54658D02*
D03*
X171500Y-1500D02*
D03*
X174000D02*
D03*
Y1000D02*
D03*
X171500D02*
D03*
X97500Y-1500D02*
D03*
X100000D02*
D03*
Y1000D02*
D03*
X97500D02*
D03*
X317500Y21500D02*
D03*
X241500Y24342D02*
D03*
X309000Y7000D02*
D03*
X311500D02*
D03*
X309000Y4500D02*
D03*
X311500D02*
D03*
X265500Y24441D02*
D03*
X272500Y29559D02*
D03*
X120000Y309071D02*
D03*
X151556Y327930D02*
D03*
X189500Y263000D02*
D03*
X189471Y277949D02*
D03*
X153244Y271063D02*
D03*
X295500Y281343D02*
D03*
X152744Y280508D02*
D03*
X160280Y265846D02*
D03*
X174685Y262906D02*
D03*
X174744Y284405D02*
D03*
X168244Y281405D02*
D03*
X160221Y270905D02*
D03*
X167244Y270965D02*
D03*
X198441Y307299D02*
D03*
X230441Y298500D02*
D03*
X276971Y181000D02*
D03*
X277000Y178500D02*
D03*
X263500Y191106D02*
D03*
Y188500D02*
D03*
X266000Y191106D02*
D03*
Y188500D02*
D03*
X295500Y174500D02*
D03*
X298000D02*
D03*
X300500D02*
D03*
X295500Y172000D02*
D03*
X298000D02*
D03*
X300500D02*
D03*
X298000Y169437D02*
D03*
X300500Y169500D02*
D03*
X272250Y183559D02*
D03*
X290000Y196437D02*
D03*
X259941Y183000D02*
D03*
X262500Y217500D02*
D03*
X290000Y206425D02*
D03*
Y210500D02*
D03*
X296000Y191500D02*
D03*
X298441D02*
D03*
X272689Y223059D02*
D03*
Y225870D02*
D03*
X270000Y223059D02*
D03*
Y225870D02*
D03*
X264000Y198779D02*
D03*
X261500D02*
D03*
X254000D02*
D03*
X256500D02*
D03*
X259000D02*
D03*
X264106Y208110D02*
D03*
X254000Y208110D02*
D03*
X261606D02*
D03*
X256500Y208110D02*
D03*
X259000Y208110D02*
D03*
X60559Y189000D02*
D03*
Y204024D02*
D03*
X281500Y281441D02*
D03*
X288524Y281500D02*
D03*
X288465Y286559D02*
D03*
X219303Y245500D02*
D03*
X238650Y271630D02*
D03*
Y276945D02*
D03*
X228102Y277500D02*
D03*
X106500Y200878D02*
D03*
X181059Y222620D02*
D03*
X181342Y190878D02*
D03*
X251691Y222956D02*
D03*
X121000Y198000D02*
D03*
X118500D02*
D03*
X121000Y200500D02*
D03*
X118500D02*
D03*
X189500Y236157D02*
D03*
X146000Y209266D02*
D03*
X151000Y234500D02*
D03*
Y195677D02*
D03*
X181114Y215000D02*
D03*
X74559Y227000D02*
D03*
X60000Y235000D02*
D03*
Y227740D02*
D03*
X211000Y1000D02*
D03*
Y-1500D02*
D03*
X208500D02*
D03*
X240000Y2500D02*
D03*
X237500D02*
D03*
X240000Y5000D02*
D03*
X237500D02*
D03*
X203000Y2500D02*
D03*
X200500D02*
D03*
X203000Y5000D02*
D03*
X200500D02*
D03*
X166000Y2500D02*
D03*
Y5000D02*
D03*
X163500D02*
D03*
X126500Y2500D02*
D03*
X129000D02*
D03*
X92000Y2500D02*
D03*
X89500D02*
D03*
X92000Y5000D02*
D03*
X89500D02*
D03*
X70000Y222000D02*
D03*
X75221Y211500D02*
D03*
X76000Y194500D02*
D03*
X47500Y189000D02*
D03*
X47524Y204024D02*
D03*
X47500Y181976D02*
D03*
Y196500D02*
D03*
X72661Y175000D02*
D03*
X70500Y189000D02*
D03*
X134500Y-1500D02*
D03*
X137000D02*
D03*
X297590Y88933D02*
D03*
X287500Y130878D02*
D03*
Y70000D02*
D03*
X257075Y73220D02*
D03*
X290941Y77500D02*
D03*
X293000Y55378D02*
D03*
X246941Y92500D02*
D03*
X137000Y1000D02*
D03*
X134500D02*
D03*
X150575Y73220D02*
D03*
X140441Y92500D02*
D03*
X154441Y78535D02*
D03*
X149284Y55378D02*
D03*
X186500D02*
D03*
X148941Y62878D02*
D03*
X184441Y77500D02*
D03*
X168161Y102500D02*
D03*
X160500D02*
D03*
X155382Y83000D02*
D03*
X181000Y70000D02*
D03*
Y130878D02*
D03*
X191091Y88933D02*
D03*
X84650D02*
D03*
X74559Y130878D02*
D03*
X60500Y1000D02*
D03*
X74559Y70000D02*
D03*
X48941Y83000D02*
D03*
X54059Y102500D02*
D03*
X44134Y73220D02*
D03*
X61721Y102500D02*
D03*
X78000Y77500D02*
D03*
X42500Y62878D02*
D03*
X78500Y164636D02*
D03*
X42843Y55378D02*
D03*
X48000Y78535D02*
D03*
X34000Y92500D02*
D03*
X63000Y1000D02*
D03*
Y-1500D02*
D03*
X60500D02*
D03*
D54*
X339024Y40878D02*
D03*
X329024D02*
D03*
X339024Y30878D02*
D03*
X329024D02*
D03*
X339024Y60878D02*
D03*
X329024D02*
D03*
X339024Y50878D02*
D03*
X329024D02*
D03*
Y130878D02*
D03*
X339024D02*
D03*
Y160878D02*
D03*
X329024D02*
D03*
X339024Y170878D02*
D03*
X329024D02*
D03*
X339024Y180878D02*
D03*
X329024D02*
D03*
X339024Y230878D02*
D03*
X329024D02*
D03*
X339024Y240878D02*
D03*
X329024D02*
D03*
X339024Y250878D02*
D03*
X329024D02*
D03*
Y280878D02*
D03*
X339024D02*
D03*
X329024Y270878D02*
D03*
X339024D02*
D03*
X329024Y260878D02*
D03*
X339024D02*
D03*
X329024Y220878D02*
D03*
X339024D02*
D03*
X329024Y210878D02*
D03*
X339024D02*
D03*
X329024Y200878D02*
D03*
X339024D02*
D03*
X329024Y190878D02*
D03*
X339024D02*
D03*
X329024Y150878D02*
D03*
X339024D02*
D03*
Y140878D02*
D03*
X329024D02*
D03*
X339024Y120878D02*
D03*
X329024D02*
D03*
X339024Y110878D02*
D03*
X329024D02*
D03*
X339024Y100878D02*
D03*
X329024D02*
D03*
X339024Y90878D02*
D03*
X329024D02*
D03*
Y70878D02*
D03*
X339024D02*
D03*
X329024Y80878D02*
D03*
X339024D02*
D03*
X319024Y40878D02*
D03*
X309024D02*
D03*
X319024Y30878D02*
D03*
X309024D02*
D03*
X319024Y60878D02*
D03*
X309024D02*
D03*
X319024Y50878D02*
D03*
X309024D02*
D03*
Y130878D02*
D03*
X319024D02*
D03*
Y160878D02*
D03*
X309024D02*
D03*
X319024Y170878D02*
D03*
X309024D02*
D03*
X319024Y180878D02*
D03*
X309024D02*
D03*
X319024Y230878D02*
D03*
X309024D02*
D03*
X319024Y240878D02*
D03*
X309024D02*
D03*
X319024Y250878D02*
D03*
X309024D02*
D03*
Y280878D02*
D03*
X319024D02*
D03*
X309024Y270878D02*
D03*
X319024D02*
D03*
X309024Y260878D02*
D03*
X319024D02*
D03*
X309024Y220878D02*
D03*
X319024D02*
D03*
X309024Y210878D02*
D03*
X319024D02*
D03*
X309024Y200878D02*
D03*
X319024D02*
D03*
X309024Y190878D02*
D03*
X319024D02*
D03*
X309024Y150878D02*
D03*
X319024D02*
D03*
Y140878D02*
D03*
X309024D02*
D03*
X319024Y120878D02*
D03*
X309024D02*
D03*
X319024Y110878D02*
D03*
X309024D02*
D03*
X319024Y100878D02*
D03*
X309024D02*
D03*
X319024Y90878D02*
D03*
X309024D02*
D03*
Y70878D02*
D03*
X319024D02*
D03*
X309024Y80878D02*
D03*
X319024D02*
D03*
D55*
X-0Y315000D02*
D03*
X337500Y300000D02*
D03*
X0Y0D02*
D03*
X337500Y10000D02*
D03*
D56*
X250846Y248543D02*
D03*
X2579Y248543D02*
D03*
X175925Y40787D02*
D03*
X77421D02*
D03*
D57*
X279720Y201500D02*
D03*
X277000D02*
D03*
X279720Y205500D02*
D03*
X277000Y205437D02*
D03*
D64*
X214642Y42118D02*
D03*
X210902D02*
D03*
X207161D02*
D03*
X214642Y31882D02*
D03*
X210902D02*
D03*
X207161D02*
D03*
X83642Y-2882D02*
D03*
X79902D02*
D03*
X76161D02*
D03*
X83642Y-13118D02*
D03*
X79902D02*
D03*
X76161D02*
D03*
X116138Y42118D02*
D03*
X112398D02*
D03*
X108658D02*
D03*
X116138Y31882D02*
D03*
X112398D02*
D03*
X108658D02*
D03*
X231842Y271630D02*
D03*
X228102D02*
D03*
X224362D02*
D03*
X231842Y261394D02*
D03*
X228102D02*
D03*
X224362D02*
D03*
D65*
X290618Y12358D02*
D03*
Y16098D02*
D03*
Y19839D02*
D03*
X280382Y12358D02*
D03*
Y16098D02*
D03*
Y19839D02*
D03*
X204311Y311039D02*
D03*
Y307299D02*
D03*
Y303559D02*
D03*
X214547Y311039D02*
D03*
Y307299D02*
D03*
Y303559D02*
D03*
X157968Y2583D02*
D03*
Y-1158D02*
D03*
Y-4898D02*
D03*
X148520D02*
D03*
Y2583D02*
D03*
X52496Y40740D02*
D03*
Y37000D02*
D03*
Y33260D02*
D03*
X43047D02*
D03*
Y40740D02*
D03*
X151000D02*
D03*
Y37000D02*
D03*
Y33260D02*
D03*
X141551D02*
D03*
Y40740D02*
D03*
X258224Y29740D02*
D03*
Y26000D02*
D03*
Y22260D02*
D03*
X248776D02*
D03*
Y29740D02*
D03*
D66*
X156941Y183559D02*
D03*
X162059D02*
D03*
X-10059Y263500D02*
D03*
X-4941D02*
D03*
X163941Y-11599D02*
D03*
X169059D02*
D03*
X150185Y-11655D02*
D03*
X155303D02*
D03*
X56059Y-6000D02*
D03*
X50941D02*
D03*
X56059Y-13000D02*
D03*
X50941D02*
D03*
X-10059Y284870D02*
D03*
X-4941D02*
D03*
X-10059Y277894D02*
D03*
X-4941D02*
D03*
X76059Y322000D02*
D03*
X70941D02*
D03*
X102496Y25000D02*
D03*
X97378D02*
D03*
X44937Y26500D02*
D03*
X50055D02*
D03*
X143441D02*
D03*
X148559D02*
D03*
X201000Y25000D02*
D03*
X195882D02*
D03*
X280441Y34000D02*
D03*
X285559D02*
D03*
X250941Y15000D02*
D03*
X256059D02*
D03*
X280441Y27000D02*
D03*
X285559D02*
D03*
X179803Y262906D02*
D03*
X174685D02*
D03*
X174626Y270406D02*
D03*
X179744D02*
D03*
X265059Y183000D02*
D03*
X259941D02*
D03*
X268941Y289500D02*
D03*
X274059D02*
D03*
X274118Y282000D02*
D03*
X269000D02*
D03*
X224421Y238500D02*
D03*
X219303D02*
D03*
X224421Y245500D02*
D03*
X219303D02*
D03*
X224421Y252441D02*
D03*
X219303D02*
D03*
X219441Y230842D02*
D03*
X224559D02*
D03*
X162059Y190878D02*
D03*
X156941D02*
D03*
X175941Y222620D02*
D03*
X181059D02*
D03*
X224559Y223000D02*
D03*
X219441D02*
D03*
X169441Y190878D02*
D03*
X174559D02*
D03*
X70059Y235000D02*
D03*
X64941D02*
D03*
X70102Y242500D02*
D03*
X64984D02*
D03*
X60559Y196500D02*
D03*
X55441D02*
D03*
X55441Y189000D02*
D03*
X60559D02*
D03*
X55441Y204024D02*
D03*
X60559D02*
D03*
X60500Y181976D02*
D03*
X55382D02*
D03*
X282382Y62878D02*
D03*
X287500D02*
D03*
X267000Y88378D02*
D03*
X261882D02*
D03*
X261882Y95402D02*
D03*
X267000D02*
D03*
X287500Y55378D02*
D03*
X282382D02*
D03*
X175882D02*
D03*
X181000D02*
D03*
X160500Y95402D02*
D03*
X155382D02*
D03*
X155382Y88378D02*
D03*
X160500D02*
D03*
X181000Y62878D02*
D03*
X175882D02*
D03*
X48941Y88378D02*
D03*
X54059D02*
D03*
X54059Y95402D02*
D03*
X48941D02*
D03*
X74559Y62878D02*
D03*
X69441D02*
D03*
X69441Y55378D02*
D03*
X74559D02*
D03*
D67*
X71157Y5000D02*
D03*
X65842D02*
D03*
X83654D02*
D03*
X78339D02*
D03*
X-9657Y270823D02*
D03*
X-4343D02*
D03*
X306842Y297825D02*
D03*
X312158D02*
D03*
X243843Y289697D02*
D03*
X249158D02*
D03*
X33968Y314200D02*
D03*
X39283D02*
D03*
X290843Y5000D02*
D03*
X296158D02*
D03*
X145343Y307500D02*
D03*
X150657D02*
D03*
X204311Y317846D02*
D03*
X198996D02*
D03*
X224362Y282500D02*
D03*
X229677D02*
D03*
X204157Y236000D02*
D03*
X198843D02*
D03*
X181342Y190878D02*
D03*
X186658D02*
D03*
X70201Y227740D02*
D03*
X64886D02*
D03*
X111815Y196158D02*
D03*
X106500D02*
D03*
X64886Y215500D02*
D03*
X70201D02*
D03*
X261283Y55378D02*
D03*
X266598D02*
D03*
Y62878D02*
D03*
X261283D02*
D03*
X154783D02*
D03*
X160098D02*
D03*
Y55378D02*
D03*
X154783D02*
D03*
X48342Y62878D02*
D03*
X53658D02*
D03*
Y55378D02*
D03*
X48342D02*
D03*
D68*
X252291Y299085D02*
D03*
X258591D02*
D03*
X-2650Y232000D02*
D03*
X3650D02*
D03*
X288299Y185000D02*
D03*
X282000D02*
D03*
X288150Y176500D02*
D03*
X281850D02*
D03*
X288299Y231083D02*
D03*
X282000D02*
D03*
X288299Y222240D02*
D03*
X282000D02*
D03*
X291291Y95378D02*
D03*
X297590D02*
D03*
X191091D02*
D03*
X184791D02*
D03*
X84650D02*
D03*
X78350D02*
D03*
D69*
X119000Y279492D02*
D03*
Y285398D02*
D03*
X126500D02*
D03*
Y279492D02*
D03*
D70*
X64071Y321850D02*
D03*
X47929D02*
D03*
Y328150D02*
D03*
X64071D02*
D03*
D71*
X89000Y311150D02*
D03*
Y304850D02*
D03*
Y259350D02*
D03*
Y265650D02*
D03*
X246941Y98850D02*
D03*
Y105150D02*
D03*
X140441D02*
D03*
Y98850D02*
D03*
X34000Y105150D02*
D03*
Y98850D02*
D03*
D72*
X89000Y294646D02*
D03*
Y275354D02*
D03*
D73*
X60839Y297524D02*
D03*
Y294374D02*
D03*
Y291224D02*
D03*
Y288075D02*
D03*
Y284925D02*
D03*
Y281776D02*
D03*
Y278626D02*
D03*
Y275476D02*
D03*
X28161D02*
D03*
Y278626D02*
D03*
Y281776D02*
D03*
Y284925D02*
D03*
Y288075D02*
D03*
Y291224D02*
D03*
Y294374D02*
D03*
Y297524D02*
D03*
D74*
X55524Y270161D02*
D03*
X52374D02*
D03*
X49224D02*
D03*
X46075D02*
D03*
X42925D02*
D03*
X39776D02*
D03*
X36626D02*
D03*
X33476D02*
D03*
Y302839D02*
D03*
X36626D02*
D03*
X39776D02*
D03*
X42925D02*
D03*
X46075D02*
D03*
X49224D02*
D03*
X52374D02*
D03*
X55524D02*
D03*
D75*
X77000Y282445D02*
D03*
Y275555D02*
D03*
X297000Y224610D02*
D03*
Y231500D02*
D03*
D76*
X29953Y189500D02*
D03*
X24047D02*
D03*
D77*
X224047Y73354D02*
D03*
X117500Y73370D02*
D03*
X11500D02*
D03*
X213000D02*
D03*
X106246D02*
D03*
X0D02*
D03*
X166000Y225870D02*
D03*
X189500Y216508D02*
D03*
D78*
X224047Y84614D02*
D03*
X117500Y84630D02*
D03*
X11500D02*
D03*
X213000D02*
D03*
X106246D02*
D03*
X0D02*
D03*
X166000Y237130D02*
D03*
X189500Y205248D02*
D03*
D79*
X134956Y321800D02*
D03*
Y319300D02*
D03*
Y316700D02*
D03*
Y314200D02*
D03*
X151556D02*
D03*
Y316700D02*
D03*
Y319300D02*
D03*
Y321800D02*
D03*
D80*
X160221Y277949D02*
D03*
Y280508D02*
D03*
Y283067D02*
D03*
Y285626D02*
D03*
Y288185D02*
D03*
Y290744D02*
D03*
Y293303D02*
D03*
Y295862D02*
D03*
X182268Y277949D02*
D03*
Y280508D02*
D03*
Y283067D02*
D03*
Y285626D02*
D03*
Y288185D02*
D03*
Y290744D02*
D03*
Y293303D02*
D03*
Y295862D02*
D03*
X288524Y274457D02*
D03*
Y271898D02*
D03*
Y269339D02*
D03*
Y266779D02*
D03*
Y264220D02*
D03*
Y261661D02*
D03*
Y259102D02*
D03*
Y256543D02*
D03*
X266476Y274457D02*
D03*
Y271898D02*
D03*
Y269339D02*
D03*
Y266779D02*
D03*
Y264220D02*
D03*
Y261661D02*
D03*
Y259102D02*
D03*
Y256543D02*
D03*
D81*
X175307Y205339D02*
D03*
X156807D02*
D03*
D82*
X169500Y209177D02*
D03*
Y206618D02*
D03*
Y204059D02*
D03*
Y201500D02*
D03*
X181114D02*
D03*
Y204059D02*
D03*
Y206618D02*
D03*
Y209177D02*
D03*
X151000Y201500D02*
D03*
Y204059D02*
D03*
Y206618D02*
D03*
Y209177D02*
D03*
X162614D02*
D03*
Y206618D02*
D03*
Y204059D02*
D03*
Y201500D02*
D03*
D83*
X265799Y246500D02*
D03*
X272689D02*
D03*
D84*
X284846Y208980D02*
D03*
X282878D02*
D03*
Y197957D02*
D03*
X284846D02*
D03*
D85*
X279925Y208980D02*
D03*
D03*
Y197957D02*
D03*
D03*
D86*
X278941Y205437D02*
D03*
Y201500D02*
D03*
D87*
X279630Y203468D02*
D03*
D88*
X286520Y200516D02*
D03*
Y202484D02*
D03*
Y204453D02*
D03*
Y206421D02*
D03*
D89*
X259000Y208110D02*
D03*
Y198779D02*
D03*
D90*
X235098Y212724D02*
D03*
Y211150D02*
D03*
Y209575D02*
D03*
Y208000D02*
D03*
Y206425D02*
D03*
Y204850D02*
D03*
X219500D02*
D03*
Y206425D02*
D03*
Y208000D02*
D03*
Y209575D02*
D03*
Y211150D02*
D03*
Y212724D02*
D03*
D91*
X227299Y208787D02*
D03*
D92*
X204000Y205100D02*
D03*
Y224785D02*
D03*
D93*
X110594Y220000D02*
D03*
Y215000D02*
D03*
Y210000D02*
D03*
Y205000D02*
D03*
X132405D02*
D03*
Y210000D02*
D03*
Y215000D02*
D03*
Y220000D02*
D03*
D94*
X91498Y223900D02*
D03*
D95*
X100098Y217500D02*
D03*
Y220060D02*
D03*
Y222620D02*
D03*
Y225180D02*
D03*
Y227740D02*
D03*
Y230300D02*
D03*
X82898D02*
D03*
Y227740D02*
D03*
Y225180D02*
D03*
Y222620D02*
D03*
Y220060D02*
D03*
Y217500D02*
D03*
D96*
X67543Y204024D02*
D03*
X70102D02*
D03*
X72661D02*
D03*
X75221D02*
D03*
X77780D02*
D03*
X80339D02*
D03*
X82898D02*
D03*
X85457D02*
D03*
X67543Y181976D02*
D03*
X70102D02*
D03*
X72661D02*
D03*
X75221D02*
D03*
X77780D02*
D03*
X80339D02*
D03*
X82898D02*
D03*
X85457D02*
D03*
D97*
X274602Y95402D02*
D03*
X277161D02*
D03*
X279720D02*
D03*
X282279D02*
D03*
X274602Y73354D02*
D03*
X277161D02*
D03*
X279720D02*
D03*
X282279D02*
D03*
X168102Y95402D02*
D03*
X170661D02*
D03*
X173221D02*
D03*
X175779D02*
D03*
X168102Y73354D02*
D03*
X170661D02*
D03*
X173221D02*
D03*
X175779D02*
D03*
X61661Y95402D02*
D03*
X64220D02*
D03*
X66780D02*
D03*
X69339D02*
D03*
X61661Y73354D02*
D03*
X64220D02*
D03*
X66780D02*
D03*
X69339D02*
D03*
D98*
X291441Y131091D02*
D03*
Y105500D02*
D03*
X184941D02*
D03*
Y131091D02*
D03*
X78500Y105500D02*
D03*
Y131091D02*
D03*
D99*
X258126Y151000D02*
D03*
X218756D02*
D03*
X112256D02*
D03*
X151626D02*
D03*
X5815D02*
D03*
X45185D02*
D03*
D100*
X291441Y149864D02*
D03*
X184941D02*
D03*
X78500D02*
D03*
D101*
X291441Y159136D02*
D03*
X184941D02*
D03*
X78500D02*
D03*
D102*
X204000Y217000D02*
X214575Y206425D01*
X250691Y216838D02*
X251691D01*
X219500Y212724D02*
Y223000D01*
X236441Y216941D02*
X244500D01*
X235098Y201248D02*
Y204850D01*
X215500Y211165D02*
Y229500D01*
X217091Y209575D02*
X219500D01*
X215500Y211165D02*
X217091Y209575D01*
X215500Y229500D02*
X216843Y230842D01*
X231378Y209575D02*
X235098D01*
X284585Y194500D02*
X286283D01*
X282878Y196207D02*
X284585Y194500D01*
X282878Y196207D02*
Y197957D01*
X284846D02*
X288480D01*
X290000Y196437D01*
X290671Y200516D02*
X293500Y197687D01*
X286520Y200516D02*
X290671D01*
X286520Y206421D02*
X289996D01*
X288480Y208980D02*
X290000Y210500D01*
X284846Y208980D02*
X288480D01*
X286535Y202500D02*
X297500D01*
X297000Y214563D02*
Y224610D01*
X295063Y212626D02*
X297000Y214563D01*
X284795Y212626D02*
X295063D01*
X282878Y210709D02*
X284795Y212626D01*
X282878Y208980D02*
Y210709D01*
X245002Y211150D02*
X250691Y216838D01*
X235098Y211150D02*
X245002D01*
X235098Y206425D02*
X242000D01*
X242693D02*
X243000Y206118D01*
X235098Y212724D02*
Y215598D01*
X236441Y216941D01*
X204250Y204850D02*
X219500D01*
X204000Y217000D02*
Y224785D01*
X214575Y206425D02*
X219500D01*
X216843Y230842D02*
X219441D01*
M02*
