G04*
G04 #@! TF.GenerationSoftware,Altium Limited,Altium Designer,19.0.15 (446)*
G04*
G04 Layer_Color=8388736*
%FSLAX25Y25*%
%MOIN*%
G70*
G01*
G75*
%ADD26R,0.02200X0.04800*%
%ADD27R,0.12611X0.09068*%
%ADD28R,0.07099X0.03950*%
%ADD29R,0.09068X0.12611*%
%ADD30R,0.03950X0.07099*%
%ADD31R,0.04737X0.18910*%
%ADD32R,0.07099X0.14186*%
%ADD33R,0.04737X0.04343*%
%ADD34R,0.04540X0.04147*%
G04:AMPARAMS|DCode=35|XSize=86.74mil|YSize=106.42mil|CornerRadius=23.68mil|HoleSize=0mil|Usage=FLASHONLY|Rotation=180.000|XOffset=0mil|YOffset=0mil|HoleType=Round|Shape=RoundedRectangle|*
%AMROUNDEDRECTD35*
21,1,0.08674,0.05906,0,0,180.0*
21,1,0.03937,0.10642,0,0,180.0*
1,1,0.04737,-0.01968,0.02953*
1,1,0.04737,0.01968,0.02953*
1,1,0.04737,0.01968,-0.02953*
1,1,0.04737,-0.01968,-0.02953*
%
%ADD35ROUNDEDRECTD35*%
%ADD36R,0.02769X0.09658*%
%ADD37O,0.02769X0.07296*%
%ADD38C,0.06800*%
%ADD39C,0.06000*%
%ADD40C,0.04343*%
%ADD41C,0.06706*%
%ADD42R,0.06706X0.06706*%
%ADD43C,0.08300*%
%ADD44C,0.24422*%
%ADD45C,0.20485*%
D26*
X282800Y147461D02*
D03*
X288000D02*
D03*
Y139461D02*
D03*
X285400D02*
D03*
X282800D02*
D03*
D27*
X260209Y132500D02*
D03*
X260209Y157500D02*
D03*
X290709Y234079D02*
D03*
Y268921D02*
D03*
D28*
X248791Y147461D02*
D03*
Y142539D02*
D03*
X279291Y253961D02*
D03*
Y249039D02*
D03*
Y244118D02*
D03*
X279291Y258882D02*
D03*
D29*
X212000Y-10500D02*
D03*
X237000Y-10500D02*
D03*
X248000Y-10709D02*
D03*
X273000Y-10709D02*
D03*
X175000Y-10500D02*
D03*
X200000Y-10500D02*
D03*
X138000D02*
D03*
X163000Y-10500D02*
D03*
X101000Y-10500D02*
D03*
X126000Y-10500D02*
D03*
X64000D02*
D03*
X89000Y-10500D02*
D03*
D30*
X226961Y917D02*
D03*
X222039D02*
D03*
X262961Y709D02*
D03*
X258039D02*
D03*
X189961Y917D02*
D03*
X185039D02*
D03*
X152961Y917D02*
D03*
X148039D02*
D03*
X115961Y917D02*
D03*
X111039D02*
D03*
X78961Y917D02*
D03*
X74039D02*
D03*
D31*
X269437Y113236D02*
D03*
X261563D02*
D03*
D32*
X278886Y92764D02*
D03*
X252114D02*
D03*
D33*
X300500Y-2657D02*
D03*
Y2657D02*
D03*
D34*
X293500Y-3059D02*
D03*
Y2059D02*
D03*
X286520Y2059D02*
D03*
Y-3059D02*
D03*
D35*
X272520Y299459D02*
D03*
Y320915D02*
D03*
X237480D02*
D03*
Y299459D02*
D03*
D36*
X255000Y299085D02*
D03*
X258150D02*
D03*
X261299D02*
D03*
X251850D02*
D03*
X248701D02*
D03*
D37*
X287441Y297524D02*
D03*
X290000D02*
D03*
X292559D02*
D03*
X295118D02*
D03*
X297677D02*
D03*
X300236D02*
D03*
X302795D02*
D03*
X305354D02*
D03*
X307913D02*
D03*
X310472D02*
D03*
X313032D02*
D03*
X315591D02*
D03*
X318150D02*
D03*
X320709D02*
D03*
X287441Y326067D02*
D03*
X290000D02*
D03*
X292559D02*
D03*
X295118D02*
D03*
X297677D02*
D03*
X300236D02*
D03*
X302795D02*
D03*
X305354D02*
D03*
X307913D02*
D03*
X310472D02*
D03*
X313032D02*
D03*
X315591D02*
D03*
X318150D02*
D03*
X320709D02*
D03*
D38*
X270500Y41500D02*
D03*
X260500D02*
D03*
X27000Y325598D02*
D03*
X17000D02*
D03*
X37000Y325402D02*
D03*
X296283Y-12500D02*
D03*
X286283D02*
D03*
X306283Y-12697D02*
D03*
D39*
X129000Y26500D02*
D03*
X233480Y194500D02*
D03*
X322500Y-7500D02*
D03*
X171500Y327500D02*
D03*
X294000Y44000D02*
D03*
X132405Y236000D02*
D03*
X200000Y139500D02*
D03*
X93500D02*
D03*
X242500Y44000D02*
D03*
X-12500Y139500D02*
D03*
D40*
X263661Y309616D02*
D03*
X246339D02*
D03*
D41*
X-2500Y195339D02*
D03*
X7500D02*
D03*
X-2500Y205339D02*
D03*
X7500D02*
D03*
X-2500Y215339D02*
D03*
D42*
X7500D02*
D03*
D43*
X339024Y40878D02*
D03*
X329024D02*
D03*
X339024Y30878D02*
D03*
X329024D02*
D03*
X339024Y60878D02*
D03*
X329024D02*
D03*
X339024Y50878D02*
D03*
X329024D02*
D03*
Y130878D02*
D03*
X339024D02*
D03*
Y160878D02*
D03*
X329024D02*
D03*
X339024Y170878D02*
D03*
X329024D02*
D03*
X339024Y180878D02*
D03*
X329024D02*
D03*
X339024Y230878D02*
D03*
X329024D02*
D03*
X339024Y240878D02*
D03*
X329024D02*
D03*
X339024Y250878D02*
D03*
X329024D02*
D03*
Y280878D02*
D03*
X339024D02*
D03*
X329024Y270878D02*
D03*
X339024D02*
D03*
X329024Y260878D02*
D03*
X339024D02*
D03*
X329024Y220878D02*
D03*
X339024D02*
D03*
X329024Y210878D02*
D03*
X339024D02*
D03*
X329024Y200878D02*
D03*
X339024D02*
D03*
X329024Y190878D02*
D03*
X339024D02*
D03*
X329024Y150878D02*
D03*
X339024D02*
D03*
Y140878D02*
D03*
X329024D02*
D03*
X339024Y120878D02*
D03*
X329024D02*
D03*
X339024Y110878D02*
D03*
X329024D02*
D03*
X339024Y100878D02*
D03*
X329024D02*
D03*
X339024Y90878D02*
D03*
X329024D02*
D03*
Y70878D02*
D03*
X339024D02*
D03*
X329024Y80878D02*
D03*
X339024D02*
D03*
X319024Y40878D02*
D03*
X309024D02*
D03*
X319024Y30878D02*
D03*
X309024D02*
D03*
X319024Y60878D02*
D03*
X309024D02*
D03*
X319024Y50878D02*
D03*
X309024D02*
D03*
Y130878D02*
D03*
X319024D02*
D03*
Y160878D02*
D03*
X309024D02*
D03*
X319024Y170878D02*
D03*
X309024D02*
D03*
X319024Y180878D02*
D03*
X309024D02*
D03*
X319024Y230878D02*
D03*
X309024D02*
D03*
X319024Y240878D02*
D03*
X309024D02*
D03*
X319024Y250878D02*
D03*
X309024D02*
D03*
Y280878D02*
D03*
X319024D02*
D03*
X309024Y270878D02*
D03*
X319024D02*
D03*
X309024Y260878D02*
D03*
X319024D02*
D03*
X309024Y220878D02*
D03*
X319024D02*
D03*
X309024Y210878D02*
D03*
X319024D02*
D03*
X309024Y200878D02*
D03*
X319024D02*
D03*
X309024Y190878D02*
D03*
X319024D02*
D03*
X309024Y150878D02*
D03*
X319024D02*
D03*
Y140878D02*
D03*
X309024D02*
D03*
X319024Y120878D02*
D03*
X309024D02*
D03*
X319024Y110878D02*
D03*
X309024D02*
D03*
X319024Y100878D02*
D03*
X309024D02*
D03*
X319024Y90878D02*
D03*
X309024D02*
D03*
Y70878D02*
D03*
X319024D02*
D03*
X309024Y80878D02*
D03*
X319024D02*
D03*
D44*
X-0Y315000D02*
D03*
X337500Y300000D02*
D03*
X0Y0D02*
D03*
X337500Y10000D02*
D03*
D45*
X250846Y248543D02*
D03*
X2579Y248543D02*
D03*
X175925Y40787D02*
D03*
X77421D02*
D03*
M02*
