G04*
G04 #@! TF.GenerationSoftware,Altium Limited,Altium Designer,19.0.15 (446)*
G04*
G04 Layer_Physical_Order=3*
G04 Layer_Color=128*
%FSLAX25Y25*%
%MOIN*%
G70*
G01*
G75*
%ADD58C,0.04000*%
%ADD59C,0.08000*%
%ADD60C,0.07543*%
%ADD61C,0.05181*%
%ADD62C,0.15811*%
%ADD63C,0.13449*%
D58*
X-19154Y306535D02*
X-19154Y6654D01*
X-19154Y306535D02*
X-18953Y309857D01*
X-18353Y313131D01*
X-17363Y316308D01*
X-15997Y319343D01*
X-14275Y322191D01*
X-12223Y324811D01*
X-9870Y327164D01*
X-7250Y329216D01*
X-4402Y330938D01*
X-1367Y332304D01*
X1810Y333294D01*
X5084Y333893D01*
X8405Y334095D01*
X330787D01*
X334109Y333893D01*
X337383Y333294D01*
X340560Y332304D01*
X343595Y330938D01*
X346443Y329216D01*
X349062Y327164D01*
X351416Y324811D01*
X353468Y322191D01*
X355190Y319343D01*
X356556Y316308D01*
X357546Y313131D01*
X358145Y309857D01*
X358346Y306536D01*
Y6654D02*
Y306536D01*
X358145Y3332D02*
X358346Y6654D01*
X357546Y58D02*
X358145Y3332D01*
X356556Y-3119D02*
X357546Y58D01*
X355190Y-6154D02*
X356556Y-3119D01*
X353468Y-9002D02*
X355190Y-6154D01*
X351416Y-11621D02*
X353468Y-9002D01*
X349062Y-13975D02*
X351416Y-11621D01*
X346443Y-16027D02*
X349062Y-13975D01*
X343595Y-17749D02*
X346443Y-16027D01*
X340560Y-19115D02*
X343595Y-17749D01*
X337383Y-20105D02*
X340560Y-19115D01*
X334109Y-20705D02*
X337383Y-20105D01*
X330787Y-20906D02*
X334109Y-20705D01*
X8405Y-20906D02*
X330787Y-20906D01*
X5084Y-20705D02*
X8405Y-20906D01*
X1810Y-20105D02*
X5084Y-20705D01*
X-1367Y-19115D02*
X1810Y-20105D01*
X-4402Y-17749D02*
X-1367Y-19115D01*
X-7250Y-16027D02*
X-4402Y-17749D01*
X-9870Y-13975D02*
X-7250Y-16027D01*
X-12223Y-11621D02*
X-9870Y-13975D01*
X-14275Y-9002D02*
X-12223Y-11621D01*
X-15997Y-6154D02*
X-14275Y-9002D01*
X-17363Y-3119D02*
X-15997Y-6154D01*
X-18353Y58D02*
X-17363Y-3119D01*
X-18953Y3332D02*
X-18353Y58D01*
X-19154Y6654D02*
X-18953Y3332D01*
D59*
X270500Y41500D02*
D03*
X260500D02*
D03*
X129000Y26500D02*
D03*
X233480Y194500D02*
D03*
X322500Y-7500D02*
D03*
X27000Y325598D02*
D03*
X17000D02*
D03*
X37000Y325402D02*
D03*
X296283Y-12500D02*
D03*
X286283D02*
D03*
X306283Y-12697D02*
D03*
X171500Y327500D02*
D03*
X132405Y236000D02*
D03*
X200000Y139500D02*
D03*
X93500D02*
D03*
X242500Y44000D02*
D03*
X-12500Y139500D02*
D03*
X339024Y40878D02*
D03*
X329024D02*
D03*
X339024Y30878D02*
D03*
X329024D02*
D03*
X339024Y60878D02*
D03*
X329024D02*
D03*
X339024Y50878D02*
D03*
X329024D02*
D03*
Y130878D02*
D03*
X339024D02*
D03*
Y160878D02*
D03*
X329024D02*
D03*
X339024Y170878D02*
D03*
X329024D02*
D03*
X339024Y180878D02*
D03*
X329024D02*
D03*
X339024Y230878D02*
D03*
X329024D02*
D03*
X339024Y240878D02*
D03*
X329024D02*
D03*
X339024Y250878D02*
D03*
X329024D02*
D03*
Y280878D02*
D03*
X339024D02*
D03*
X329024Y270878D02*
D03*
X339024D02*
D03*
X329024Y260878D02*
D03*
X339024D02*
D03*
X329024Y220878D02*
D03*
X339024D02*
D03*
X329024Y210878D02*
D03*
X339024D02*
D03*
X329024Y200878D02*
D03*
X339024D02*
D03*
X329024Y190878D02*
D03*
X339024D02*
D03*
X329024Y150878D02*
D03*
X339024D02*
D03*
Y140878D02*
D03*
X329024D02*
D03*
X339024Y120878D02*
D03*
X329024D02*
D03*
X339024Y110878D02*
D03*
X329024D02*
D03*
X339024Y100878D02*
D03*
X329024D02*
D03*
X339024Y90878D02*
D03*
X329024D02*
D03*
Y70878D02*
D03*
X339024D02*
D03*
X329024Y80878D02*
D03*
X339024D02*
D03*
X319024Y40878D02*
D03*
X309024D02*
D03*
X319024Y30878D02*
D03*
Y60878D02*
D03*
X309024D02*
D03*
X319024Y50878D02*
D03*
X309024D02*
D03*
Y130878D02*
D03*
X319024D02*
D03*
Y160878D02*
D03*
X309024D02*
D03*
X319024Y170878D02*
D03*
X309024D02*
D03*
X319024Y180878D02*
D03*
X309024D02*
D03*
X319024Y230878D02*
D03*
X309024D02*
D03*
X319024Y240878D02*
D03*
X309024D02*
D03*
X319024Y250878D02*
D03*
X309024D02*
D03*
Y280878D02*
D03*
X319024D02*
D03*
X309024Y270878D02*
D03*
X319024D02*
D03*
X309024Y260878D02*
D03*
X319024D02*
D03*
X309024Y220878D02*
D03*
X319024D02*
D03*
X309024Y210878D02*
D03*
X319024D02*
D03*
X309024Y200878D02*
D03*
X319024D02*
D03*
X309024Y190878D02*
D03*
X319024D02*
D03*
X309024Y150878D02*
D03*
X319024D02*
D03*
Y140878D02*
D03*
X309024D02*
D03*
X319024Y120878D02*
D03*
X309024D02*
D03*
X319024Y110878D02*
D03*
X309024D02*
D03*
X319024Y100878D02*
D03*
X309024D02*
D03*
X319024Y90878D02*
D03*
X309024D02*
D03*
Y70878D02*
D03*
X319024D02*
D03*
X309024Y80878D02*
D03*
X319024D02*
D03*
D60*
X263661Y309616D02*
D03*
X246339D02*
D03*
X-2500Y195339D02*
D03*
X7500D02*
D03*
X-2500Y205339D02*
D03*
X7500D02*
D03*
Y215339D02*
D03*
D61*
X230399Y207237D02*
D03*
Y210337D02*
D03*
X227299Y207237D02*
D03*
Y210337D02*
D03*
X224199Y207237D02*
D03*
Y210337D02*
D03*
X285097Y163752D02*
D03*
X294500Y187500D02*
D03*
X266476Y178400D02*
D03*
X212000Y179500D02*
D03*
X292559Y118500D02*
D03*
X294461Y139461D02*
D03*
X255784Y55378D02*
D03*
X255441Y62878D02*
D03*
X172500Y21500D02*
D03*
X97378Y67500D02*
D03*
X87500Y77500D02*
D03*
Y167500D02*
D03*
X29953Y181917D02*
D03*
X15000Y208110D02*
D03*
X20000Y220060D02*
D03*
X29323Y220323D02*
D03*
X24500Y229500D02*
D03*
X50941Y-13000D02*
D03*
X116138Y27466D02*
D03*
X109000D02*
D03*
X130000Y63100D02*
D03*
X105441Y61000D02*
D03*
X268500Y20000D02*
D03*
X256000Y8000D02*
D03*
X276000Y20000D02*
D03*
X214547Y314953D02*
D03*
X223500Y303618D02*
D03*
X202000Y212500D02*
D03*
X231842Y245500D02*
D03*
X224421D02*
D03*
X148000Y190819D02*
D03*
X261882Y83000D02*
D03*
X266441Y78535D02*
D03*
X275661Y101500D02*
D03*
X267000Y100108D02*
D03*
X294098Y62961D02*
D03*
X213500Y220000D02*
D03*
X211000Y218000D02*
D03*
X222980Y184000D02*
D03*
X201500D02*
D03*
X223000Y315500D02*
D03*
X173221Y212500D02*
D03*
Y215000D02*
D03*
X173356Y196500D02*
D03*
X156000Y195677D02*
D03*
X153541D02*
D03*
X259000Y108000D02*
D03*
Y110500D02*
D03*
X235098Y201248D02*
D03*
X277815Y239815D02*
D03*
X280500Y253961D02*
D03*
X271500Y239000D02*
D03*
X274118Y270878D02*
D03*
X274000Y268000D02*
D03*
X279177Y272000D02*
D03*
X273500Y4791D02*
D03*
X276000D02*
D03*
X273500Y2291D02*
D03*
X276000D02*
D03*
X145000Y-11655D02*
D03*
X226500Y11500D02*
D03*
X208500Y1000D02*
D03*
X114000Y-10000D02*
D03*
X347500Y215000D02*
D03*
Y191106D02*
D03*
X322500Y17500D02*
D03*
X300762Y39000D02*
D03*
X120000Y17500D02*
D03*
X17500Y32500D02*
D03*
X196500Y187500D02*
D03*
X193500Y190000D02*
D03*
X185825Y163752D02*
D03*
X215500Y16000D02*
D03*
X21721Y258500D02*
D03*
X-1250Y293750D02*
D03*
X236000Y36500D02*
D03*
X248701Y53500D02*
D03*
X242000Y196500D02*
D03*
X207500Y214500D02*
D03*
X227299Y172000D02*
D03*
X250846Y169000D02*
D03*
X208500Y14000D02*
D03*
X291441Y159136D02*
D03*
X261606Y110500D02*
D03*
Y108000D02*
D03*
X47929Y5223D02*
D03*
X126500Y5000D02*
D03*
X129000D02*
D03*
X193500Y37059D02*
D03*
X94996D02*
D03*
X280441Y27000D02*
D03*
X70000Y287595D02*
D03*
X72421Y297524D02*
D03*
X285559Y27000D02*
D03*
X208500Y61500D02*
D03*
X70000Y328150D02*
D03*
X80500Y264000D02*
D03*
X22494Y47500D02*
D03*
X56177Y5055D02*
D03*
X44937Y-6000D02*
D03*
X71118Y-13118D02*
D03*
X79902D02*
D03*
X92500Y234803D02*
D03*
X231000Y142000D02*
D03*
X234500Y138000D02*
D03*
X238650Y182500D02*
D03*
X235098Y180500D02*
D03*
X213500Y237000D02*
D03*
X211000Y233500D02*
D03*
X37500Y309616D02*
D03*
X42925Y309500D02*
D03*
X241000Y138000D02*
D03*
Y142000D02*
D03*
X67500Y252500D02*
D03*
X62130Y261394D02*
D03*
X40541Y252400D02*
D03*
X62000Y254500D02*
D03*
X105500Y225180D02*
D03*
X115500Y223900D02*
D03*
X219500Y223000D02*
D03*
X251691Y217838D02*
D03*
X286283Y194500D02*
D03*
X158500Y309500D02*
D03*
X161000D02*
D03*
X158500Y307000D02*
D03*
X161000D02*
D03*
X193441Y308874D02*
D03*
X186658Y190878D02*
D03*
X80000Y55378D02*
D03*
X235000Y234803D02*
D03*
X198843Y236000D02*
D03*
X-9657Y270823D02*
D03*
X35496Y35484D02*
D03*
X59996Y35583D02*
D03*
X158500D02*
D03*
X134000Y35484D02*
D03*
X-10059Y284870D02*
D03*
X60000Y242500D02*
D03*
X172500Y245000D02*
D03*
X39283Y314200D02*
D03*
X298500Y15000D02*
D03*
X240000D02*
D03*
X177000Y324500D02*
D03*
X244500Y217941D02*
D03*
X257500Y230500D02*
D03*
X119000Y274000D02*
D03*
X172500Y313000D02*
D03*
X312000Y311500D02*
D03*
X292500Y304000D02*
D03*
X311600Y288400D02*
D03*
X318150Y313500D02*
D03*
X323000Y316500D02*
D03*
X316500Y290500D02*
D03*
X145000Y279500D02*
D03*
X248701Y299085D02*
D03*
X204311Y317846D02*
D03*
X126500Y297825D02*
D03*
X174626Y281528D02*
D03*
X249158Y283750D02*
D03*
X220000Y322500D02*
D03*
Y317846D02*
D03*
X223000Y311000D02*
D03*
X296000Y317500D02*
D03*
X285000Y305000D02*
D03*
X287000Y307000D02*
D03*
X295000Y307500D02*
D03*
X64886Y312500D02*
D03*
X67500Y315000D02*
D03*
X290500Y317500D02*
D03*
X302795Y316000D02*
D03*
X313032Y318000D02*
D03*
X305500Y306500D02*
D03*
X265500Y299085D02*
D03*
X17500Y25000D02*
D03*
X55000Y17500D02*
D03*
X21000Y302500D02*
D03*
X67543Y267500D02*
D03*
X64886Y215500D02*
D03*
X42500Y292000D02*
D03*
X20000Y294374D02*
D03*
X265500Y29559D02*
D03*
X3650Y232000D02*
D03*
X36500Y224785D02*
D03*
X20000D02*
D03*
X37500Y288075D02*
D03*
X40500D02*
D03*
X18000Y279295D02*
D03*
X89000Y311150D02*
D03*
Y259350D02*
D03*
X116138Y54658D02*
D03*
X97378Y25000D02*
D03*
X100996Y54658D02*
D03*
X38996Y26500D02*
D03*
X105441Y15000D02*
D03*
X137500Y26500D02*
D03*
X199500Y54658D02*
D03*
X202000D02*
D03*
X195882Y25000D02*
D03*
X214642Y54658D02*
D03*
X171500Y-1500D02*
D03*
X174000D02*
D03*
Y1000D02*
D03*
X171500D02*
D03*
X97500Y-1500D02*
D03*
X100000D02*
D03*
Y1000D02*
D03*
X97500D02*
D03*
X317500Y21500D02*
D03*
X241500Y24342D02*
D03*
X309000Y7000D02*
D03*
X311500D02*
D03*
X309000Y4500D02*
D03*
X311500D02*
D03*
X265500Y24441D02*
D03*
X272500Y29559D02*
D03*
X120000Y309071D02*
D03*
X151556Y327930D02*
D03*
X189500Y263000D02*
D03*
X189471Y277949D02*
D03*
X153244Y271063D02*
D03*
X295500Y281343D02*
D03*
X174685Y262906D02*
D03*
X174744Y284405D02*
D03*
X168244Y281405D02*
D03*
X160221Y270905D02*
D03*
X167244Y270965D02*
D03*
X198441Y307299D02*
D03*
X230441Y298500D02*
D03*
X276971Y181000D02*
D03*
X277000Y178500D02*
D03*
X263500Y191106D02*
D03*
Y188500D02*
D03*
X266000Y191106D02*
D03*
Y188500D02*
D03*
X272250Y183559D02*
D03*
X290000Y196437D02*
D03*
X259941Y183000D02*
D03*
X262500Y217500D02*
D03*
X290000Y206425D02*
D03*
Y210500D02*
D03*
X296000Y191500D02*
D03*
X298441D02*
D03*
X272689Y223059D02*
D03*
Y225870D02*
D03*
X270000Y223059D02*
D03*
Y225870D02*
D03*
X279720Y201500D02*
D03*
X277000D02*
D03*
X264000Y198779D02*
D03*
X261500D02*
D03*
X254000D02*
D03*
X256500D02*
D03*
X259000D02*
D03*
X264106Y208110D02*
D03*
X254000Y208110D02*
D03*
X261606D02*
D03*
X256500Y208110D02*
D03*
X259000Y208110D02*
D03*
X279720Y205500D02*
D03*
X277000Y205437D02*
D03*
X60559Y189000D02*
D03*
Y204024D02*
D03*
X281500Y281441D02*
D03*
X288524Y281500D02*
D03*
X219303Y245500D02*
D03*
X238650Y271630D02*
D03*
Y276945D02*
D03*
X228102Y277500D02*
D03*
X106500Y200878D02*
D03*
X181059Y222620D02*
D03*
X181342Y190878D02*
D03*
X121000Y198000D02*
D03*
X118500D02*
D03*
X121000Y200500D02*
D03*
X118500D02*
D03*
X189500Y236157D02*
D03*
X146000Y209266D02*
D03*
X151000Y234500D02*
D03*
Y195677D02*
D03*
X181114Y215000D02*
D03*
X74559Y227000D02*
D03*
X60000Y235000D02*
D03*
Y227740D02*
D03*
X211000Y1000D02*
D03*
Y-1500D02*
D03*
X208500D02*
D03*
X240000Y2500D02*
D03*
X237500D02*
D03*
X240000Y5000D02*
D03*
X237500D02*
D03*
X203000Y2500D02*
D03*
X200500D02*
D03*
X203000Y5000D02*
D03*
X200500D02*
D03*
X166000Y2500D02*
D03*
Y5000D02*
D03*
X163500D02*
D03*
X126500Y2500D02*
D03*
X129000D02*
D03*
X92000Y2500D02*
D03*
X89500D02*
D03*
X92000Y5000D02*
D03*
X89500D02*
D03*
X75221Y211500D02*
D03*
X76000Y194500D02*
D03*
X47500Y181976D02*
D03*
Y196500D02*
D03*
X72661Y175000D02*
D03*
X70500Y189000D02*
D03*
X134500Y-1500D02*
D03*
X137000D02*
D03*
X297590Y88933D02*
D03*
X287500Y130878D02*
D03*
Y70000D02*
D03*
X257075Y73220D02*
D03*
X290941Y77500D02*
D03*
X293000Y55378D02*
D03*
X246941Y92500D02*
D03*
X137000Y1000D02*
D03*
X134500D02*
D03*
X150575Y73220D02*
D03*
X140441Y92500D02*
D03*
X154441Y78535D02*
D03*
X149284Y55378D02*
D03*
X186500D02*
D03*
X148941Y62878D02*
D03*
X184441Y77500D02*
D03*
X168161Y102500D02*
D03*
X160500D02*
D03*
X155382Y83000D02*
D03*
X181000Y70000D02*
D03*
Y130878D02*
D03*
X191091Y88933D02*
D03*
X84650D02*
D03*
X74559Y130878D02*
D03*
X60500Y1000D02*
D03*
X74559Y70000D02*
D03*
X48941Y83000D02*
D03*
X54059Y102500D02*
D03*
X44134Y73220D02*
D03*
X61721Y102500D02*
D03*
X78000Y77500D02*
D03*
X42500Y62878D02*
D03*
X78500Y164636D02*
D03*
X42843Y55378D02*
D03*
X48000Y78535D02*
D03*
X34000Y92500D02*
D03*
X63000Y1000D02*
D03*
Y-1500D02*
D03*
X60500D02*
D03*
D62*
X-0Y315000D02*
D03*
X337500Y300000D02*
D03*
X0Y0D02*
D03*
X337500Y10000D02*
D03*
D63*
X250846Y248543D02*
D03*
X2579Y248543D02*
D03*
X175925Y40787D02*
D03*
X77421D02*
D03*
M02*
