G04*
G04 #@! TF.GenerationSoftware,Altium Limited,Altium Designer,19.0.15 (446)*
G04*
G04 Layer_Color=16711935*
%FSLAX25Y25*%
%MOIN*%
G70*
G01*
G75*
%ADD33R,0.04737X0.04343*%
%ADD34R,0.04540X0.04147*%
%ADD38C,0.06800*%
%ADD39C,0.06000*%
%ADD40C,0.04343*%
%ADD41C,0.06706*%
%ADD42R,0.06706X0.06706*%
%ADD43C,0.08300*%
%ADD44C,0.24422*%
%ADD45C,0.20485*%
%ADD103R,0.03162X0.04737*%
%ADD104R,0.04737X0.03162*%
%ADD105R,0.04147X0.04540*%
%ADD106R,0.04343X0.04737*%
%ADD107R,0.05918X0.06312*%
%ADD108R,0.03950X0.03950*%
%ADD109R,0.04343X0.04737*%
%ADD110R,0.06312X0.05918*%
%ADD111R,0.11036X0.08280*%
%ADD112O,0.06115X0.02965*%
%ADD113O,0.02965X0.06115*%
%ADD114R,0.06115X0.05328*%
%ADD115R,0.03950X0.03950*%
%ADD116R,0.05524X0.05524*%
%ADD117R,0.05524X0.05524*%
%ADD118R,0.06400X0.02600*%
%ADD119O,0.07099X0.02178*%
%ADD120R,0.04147X0.02178*%
%ADD121R,0.05328X0.06115*%
%ADD122R,0.01745X0.03162*%
%ADD123R,0.04147X0.03556*%
%ADD124R,0.06509X0.02178*%
%ADD125R,0.07887X0.02178*%
%ADD126R,0.03162X0.01745*%
%ADD127R,0.14186X0.04658*%
%ADD128R,0.04146X0.01587*%
%ADD129R,0.10642X0.06312*%
%ADD130R,0.06202X0.03595*%
%ADD131R,0.07700X0.12400*%
%ADD132R,0.06300X0.02500*%
%ADD133O,0.02178X0.07099*%
%ADD134O,0.02572X0.07099*%
%ADD135R,0.13005X0.07099*%
%ADD136R,0.16548X0.28359*%
%ADD137R,0.10800X0.11312*%
%ADD138R,0.05800X0.03792*%
%ADD139C,0.02800*%
G36*
X232122Y212876D02*
X232372D01*
Y211125D01*
Y209550D01*
Y208025D01*
Y204699D01*
X232122D01*
Y202291D01*
X231138D01*
Y204699D01*
X223460D01*
Y202291D01*
X222476D01*
Y204699D01*
X222226D01*
Y206450D01*
Y208025D01*
Y209550D01*
Y211125D01*
Y212876D01*
X222476D01*
Y215283D01*
X223460D01*
Y212876D01*
X231138D01*
Y215283D01*
X232122D01*
Y212876D01*
D02*
G37*
G36*
X237047Y212055D02*
X233149D01*
Y213393D01*
X237047D01*
Y212055D01*
D02*
G37*
G36*
X221449D02*
X217551D01*
Y213393D01*
X221449D01*
Y212055D01*
D02*
G37*
G36*
X237047Y210480D02*
X233149D01*
Y211819D01*
X237047D01*
Y210480D01*
D02*
G37*
G36*
X221449D02*
X217551D01*
Y211819D01*
X221449D01*
Y210480D01*
D02*
G37*
G36*
X237047Y208906D02*
X233149D01*
Y210244D01*
X237047D01*
Y208906D01*
D02*
G37*
G36*
X221449D02*
X217551D01*
Y210244D01*
X221449D01*
Y208906D01*
D02*
G37*
G36*
X183063Y208213D02*
X179165D01*
Y210142D01*
X183063D01*
Y208213D01*
D02*
G37*
G36*
X171449D02*
X167551D01*
Y210142D01*
X171449D01*
Y208213D01*
D02*
G37*
G36*
X164563D02*
X160665D01*
Y210142D01*
X164563D01*
Y208213D01*
D02*
G37*
G36*
X152949D02*
X149051D01*
Y210142D01*
X152949D01*
Y208213D01*
D02*
G37*
G36*
X237047Y207331D02*
X233149D01*
Y208669D01*
X237047D01*
Y207331D01*
D02*
G37*
G36*
X221449D02*
X217551D01*
Y208669D01*
X221449D01*
Y207331D01*
D02*
G37*
G36*
X237047Y205756D02*
X233149D01*
Y207094D01*
X237047D01*
Y205756D01*
D02*
G37*
G36*
X221449Y205756D02*
X217551D01*
Y207094D01*
X221449D01*
Y205756D01*
D02*
G37*
G36*
X183063Y205654D02*
X179165D01*
Y207583D01*
X183063D01*
Y205654D01*
D02*
G37*
G36*
X171449D02*
X167551D01*
Y207583D01*
X171449D01*
Y205654D01*
D02*
G37*
G36*
X164563D02*
X160665D01*
Y207583D01*
X164563D01*
Y205654D01*
D02*
G37*
G36*
X152949D02*
X149051D01*
Y207583D01*
X152949D01*
Y205654D01*
D02*
G37*
G36*
X237047Y204181D02*
X233149D01*
Y205520D01*
X237047D01*
Y204181D01*
D02*
G37*
G36*
X221449D02*
X217551D01*
Y205520D01*
X221449D01*
Y204181D01*
D02*
G37*
G36*
X135539Y218209D02*
X133177D01*
Y216791D01*
X135500D01*
Y213209D01*
X133177D01*
Y211791D01*
X135500D01*
Y208209D01*
X133177D01*
Y206791D01*
X135500D01*
Y203209D01*
X117232D01*
Y221791D01*
X135539D01*
Y218209D01*
D02*
G37*
G36*
X183063Y203095D02*
X179165D01*
Y205024D01*
X183063D01*
Y203095D01*
D02*
G37*
G36*
X171449D02*
X167551D01*
Y205024D01*
X171449D01*
Y203095D01*
D02*
G37*
G36*
X164563D02*
X160665D01*
Y205024D01*
X164563D01*
Y203095D01*
D02*
G37*
G36*
X152949D02*
X149051D01*
Y205024D01*
X152949D01*
Y203095D01*
D02*
G37*
G36*
X183063Y200535D02*
X179165D01*
Y202465D01*
X183063D01*
Y200535D01*
D02*
G37*
G36*
X171449D02*
X167551D01*
Y202465D01*
X171449D01*
Y200535D01*
D02*
G37*
G36*
X164563D02*
X160665D01*
Y202465D01*
X164563D01*
Y200535D01*
D02*
G37*
G36*
X152949D02*
X149051D01*
Y202465D01*
X152949D01*
Y200535D01*
D02*
G37*
G36*
X178805Y209226D02*
Y207651D01*
Y206126D01*
Y204551D01*
Y203026D01*
Y200364D01*
X171809D01*
Y201451D01*
Y203026D01*
Y204551D01*
Y206126D01*
Y207651D01*
Y209226D01*
Y210313D01*
X178805D01*
Y209226D01*
D02*
G37*
G36*
X160305D02*
Y207651D01*
Y206126D01*
Y204551D01*
Y203026D01*
Y200364D01*
X153309D01*
Y201451D01*
Y203026D01*
Y204551D01*
Y206126D01*
Y207651D01*
Y209226D01*
Y210313D01*
X160305D01*
Y209226D01*
D02*
G37*
%LPC*%
G36*
X231186Y211125D02*
X229612D01*
Y209550D01*
X231186D01*
Y211125D01*
D02*
G37*
G36*
X228086D02*
X226512D01*
Y209550D01*
X228086D01*
Y211125D01*
D02*
G37*
G36*
X224986D02*
X223412D01*
Y209550D01*
X224986D01*
Y211125D01*
D02*
G37*
G36*
X231186Y208025D02*
X229612D01*
Y206450D01*
X231186D01*
Y208025D01*
D02*
G37*
G36*
X228086D02*
X226512D01*
Y206450D01*
X228086D01*
Y208025D01*
D02*
G37*
G36*
X224986D02*
X223412D01*
Y206450D01*
X224986D01*
Y208025D01*
D02*
G37*
G36*
X177645Y209226D02*
X176070D01*
Y207651D01*
X177645D01*
Y209226D01*
D02*
G37*
G36*
X174545D02*
X172970D01*
Y207651D01*
X174545D01*
Y209226D01*
D02*
G37*
G36*
X177645Y206126D02*
X176070D01*
Y204551D01*
X177645D01*
Y206126D01*
D02*
G37*
G36*
X174545D02*
X172970D01*
Y204551D01*
X174545D01*
Y206126D01*
D02*
G37*
G36*
X177645Y203026D02*
X176070D01*
Y201451D01*
X177645D01*
Y203026D01*
D02*
G37*
G36*
X174545D02*
X172970D01*
Y201451D01*
X174545D01*
Y203026D01*
D02*
G37*
G36*
X159144Y209226D02*
X157570D01*
Y207651D01*
X159144D01*
Y209226D01*
D02*
G37*
G36*
X156044D02*
X154470D01*
Y207651D01*
X156044D01*
Y209226D01*
D02*
G37*
G36*
X159144Y206126D02*
X157570D01*
Y204551D01*
X159144D01*
Y206126D01*
D02*
G37*
G36*
X156044D02*
X154470D01*
Y204551D01*
X156044D01*
Y206126D01*
D02*
G37*
G36*
X159144Y203026D02*
X157570D01*
Y201451D01*
X159144D01*
Y203026D01*
D02*
G37*
G36*
X156044D02*
X154470D01*
Y201451D01*
X156044D01*
Y203026D01*
D02*
G37*
%LPD*%
D33*
X142500Y2839D02*
D03*
Y-2476D02*
D03*
X18000Y285102D02*
D03*
Y279787D02*
D03*
X108658Y49343D02*
D03*
Y54658D02*
D03*
X116138Y49343D02*
D03*
Y54658D02*
D03*
X35496Y40799D02*
D03*
Y35484D02*
D03*
X134000Y40799D02*
D03*
Y35484D02*
D03*
X207161Y49343D02*
D03*
Y54658D02*
D03*
X214642Y49343D02*
D03*
Y54658D02*
D03*
X241500Y29658D02*
D03*
Y24342D02*
D03*
X298500Y20315D02*
D03*
Y15000D02*
D03*
X160000Y319357D02*
D03*
Y314042D02*
D03*
X126500Y314457D02*
D03*
Y309142D02*
D03*
X153244Y271063D02*
D03*
Y265748D02*
D03*
X193441Y303559D02*
D03*
Y308874D02*
D03*
X297500Y202500D02*
D03*
Y197185D02*
D03*
X272250Y196158D02*
D03*
Y190842D02*
D03*
X272000Y210842D02*
D03*
Y216158D02*
D03*
X295500Y281343D02*
D03*
Y286658D02*
D03*
X238650Y271630D02*
D03*
Y276945D02*
D03*
X189500Y230842D02*
D03*
Y236157D02*
D03*
X151000Y222843D02*
D03*
Y228157D02*
D03*
X140098Y205000D02*
D03*
Y199685D02*
D03*
X266441Y78535D02*
D03*
Y73220D02*
D03*
X159941D02*
D03*
Y78535D02*
D03*
X53500Y73220D02*
D03*
Y78535D02*
D03*
D34*
X91000Y-8059D02*
D03*
Y-2941D02*
D03*
X119000Y292707D02*
D03*
Y297825D02*
D03*
X126500D02*
D03*
Y292707D02*
D03*
X24000Y204559D02*
D03*
Y199441D02*
D03*
X94996Y31941D02*
D03*
Y37059D02*
D03*
X101996Y31941D02*
D03*
Y37059D02*
D03*
X59996Y40701D02*
D03*
Y35583D02*
D03*
X200500Y31941D02*
D03*
Y37059D02*
D03*
X158500Y40701D02*
D03*
Y35583D02*
D03*
X193500Y31941D02*
D03*
Y37059D02*
D03*
X272500Y24441D02*
D03*
Y29559D02*
D03*
X265500Y29559D02*
D03*
Y24441D02*
D03*
X120000Y314189D02*
D03*
Y309071D02*
D03*
X167244Y265846D02*
D03*
Y270965D02*
D03*
X160221Y265787D02*
D03*
Y270905D02*
D03*
X230441Y303618D02*
D03*
Y298500D02*
D03*
X223500Y303618D02*
D03*
Y298500D02*
D03*
X237441Y303618D02*
D03*
Y298500D02*
D03*
X272250Y178441D02*
D03*
Y183559D02*
D03*
X288524Y286618D02*
D03*
Y281500D02*
D03*
X281500Y286559D02*
D03*
Y281441D02*
D03*
X251691Y222956D02*
D03*
Y217838D02*
D03*
X244500Y223059D02*
D03*
Y217941D02*
D03*
X242000Y206618D02*
D03*
Y201500D02*
D03*
X158000Y222311D02*
D03*
Y227429D02*
D03*
X290941Y82819D02*
D03*
Y87937D02*
D03*
X184441D02*
D03*
Y82819D02*
D03*
X78000Y87937D02*
D03*
Y82819D02*
D03*
D38*
X270500Y41500D02*
D03*
X260500D02*
D03*
X27000Y325598D02*
D03*
X17000D02*
D03*
X37000Y325402D02*
D03*
X296283Y-12500D02*
D03*
X286283D02*
D03*
X306283Y-12697D02*
D03*
D39*
X129000Y26500D02*
D03*
X233480Y194500D02*
D03*
X322500Y-7500D02*
D03*
X171500Y327500D02*
D03*
X294000Y44000D02*
D03*
X132405Y236000D02*
D03*
X200000Y139500D02*
D03*
X93500D02*
D03*
X242500Y44000D02*
D03*
X-12500Y139500D02*
D03*
D40*
X263661Y309616D02*
D03*
X246339D02*
D03*
D41*
X-2500Y195339D02*
D03*
X7500D02*
D03*
X-2500Y205339D02*
D03*
X7500D02*
D03*
X-2500Y215339D02*
D03*
D42*
X7500D02*
D03*
D43*
X339024Y40878D02*
D03*
X329024D02*
D03*
X339024Y30878D02*
D03*
X329024D02*
D03*
X339024Y60878D02*
D03*
X329024D02*
D03*
X339024Y50878D02*
D03*
X329024D02*
D03*
Y130878D02*
D03*
X339024D02*
D03*
Y160878D02*
D03*
X329024D02*
D03*
X339024Y170878D02*
D03*
X329024D02*
D03*
X339024Y180878D02*
D03*
X329024D02*
D03*
X339024Y230878D02*
D03*
X329024D02*
D03*
X339024Y240878D02*
D03*
X329024D02*
D03*
X339024Y250878D02*
D03*
X329024D02*
D03*
Y280878D02*
D03*
X339024D02*
D03*
X329024Y270878D02*
D03*
X339024D02*
D03*
X329024Y260878D02*
D03*
X339024D02*
D03*
X329024Y220878D02*
D03*
X339024D02*
D03*
X329024Y210878D02*
D03*
X339024D02*
D03*
X329024Y200878D02*
D03*
X339024D02*
D03*
X329024Y190878D02*
D03*
X339024D02*
D03*
X329024Y150878D02*
D03*
X339024D02*
D03*
Y140878D02*
D03*
X329024D02*
D03*
X339024Y120878D02*
D03*
X329024D02*
D03*
X339024Y110878D02*
D03*
X329024D02*
D03*
X339024Y100878D02*
D03*
X329024D02*
D03*
X339024Y90878D02*
D03*
X329024D02*
D03*
Y70878D02*
D03*
X339024D02*
D03*
X329024Y80878D02*
D03*
X339024D02*
D03*
X319024Y40878D02*
D03*
X309024D02*
D03*
X319024Y30878D02*
D03*
X309024D02*
D03*
X319024Y60878D02*
D03*
X309024D02*
D03*
X319024Y50878D02*
D03*
X309024D02*
D03*
Y130878D02*
D03*
X319024D02*
D03*
Y160878D02*
D03*
X309024D02*
D03*
X319024Y170878D02*
D03*
X309024D02*
D03*
X319024Y180878D02*
D03*
X309024D02*
D03*
X319024Y230878D02*
D03*
X309024D02*
D03*
X319024Y240878D02*
D03*
X309024D02*
D03*
X319024Y250878D02*
D03*
X309024D02*
D03*
Y280878D02*
D03*
X319024D02*
D03*
X309024Y270878D02*
D03*
X319024D02*
D03*
X309024Y260878D02*
D03*
X319024D02*
D03*
X309024Y220878D02*
D03*
X319024D02*
D03*
X309024Y210878D02*
D03*
X319024D02*
D03*
X309024Y200878D02*
D03*
X319024D02*
D03*
X309024Y190878D02*
D03*
X319024D02*
D03*
X309024Y150878D02*
D03*
X319024D02*
D03*
Y140878D02*
D03*
X309024D02*
D03*
X319024Y120878D02*
D03*
X309024D02*
D03*
X319024Y110878D02*
D03*
X309024D02*
D03*
X319024Y100878D02*
D03*
X309024D02*
D03*
X319024Y90878D02*
D03*
X309024D02*
D03*
Y70878D02*
D03*
X319024D02*
D03*
X309024Y80878D02*
D03*
X319024D02*
D03*
D44*
X-0Y315000D02*
D03*
X337500Y300000D02*
D03*
X0Y0D02*
D03*
X337500Y10000D02*
D03*
D45*
X250846Y248543D02*
D03*
X2579Y248543D02*
D03*
X175925Y40787D02*
D03*
X77421D02*
D03*
D103*
X214642Y42118D02*
D03*
X210902D02*
D03*
X207161D02*
D03*
X214642Y31882D02*
D03*
X210902D02*
D03*
X207161D02*
D03*
X83642Y-2882D02*
D03*
X79902D02*
D03*
X76161D02*
D03*
X83642Y-13118D02*
D03*
X79902D02*
D03*
X76161D02*
D03*
X116138Y42118D02*
D03*
X112398D02*
D03*
X108658D02*
D03*
X116138Y31882D02*
D03*
X112398D02*
D03*
X108658D02*
D03*
X231842Y271630D02*
D03*
X228102D02*
D03*
X224362D02*
D03*
X231842Y261394D02*
D03*
X228102D02*
D03*
X224362D02*
D03*
D104*
X290618Y12358D02*
D03*
Y16098D02*
D03*
Y19839D02*
D03*
X280382Y12358D02*
D03*
Y16098D02*
D03*
Y19839D02*
D03*
X204311Y311039D02*
D03*
Y307299D02*
D03*
Y303559D02*
D03*
X214547Y311039D02*
D03*
Y307299D02*
D03*
Y303559D02*
D03*
X157968Y2583D02*
D03*
Y-1158D02*
D03*
Y-4898D02*
D03*
X148520D02*
D03*
Y2583D02*
D03*
X52496Y40740D02*
D03*
Y37000D02*
D03*
Y33260D02*
D03*
X43047D02*
D03*
Y40740D02*
D03*
X151000D02*
D03*
Y37000D02*
D03*
Y33260D02*
D03*
X141551D02*
D03*
Y40740D02*
D03*
X258224Y29740D02*
D03*
Y26000D02*
D03*
Y22260D02*
D03*
X248776D02*
D03*
Y29740D02*
D03*
D105*
X156941Y183559D02*
D03*
X162059D02*
D03*
X-10059Y263500D02*
D03*
X-4941D02*
D03*
X163941Y-11599D02*
D03*
X169059D02*
D03*
X150185Y-11655D02*
D03*
X155303D02*
D03*
X56059Y-6000D02*
D03*
X50941D02*
D03*
X56059Y-13000D02*
D03*
X50941D02*
D03*
X-10059Y284870D02*
D03*
X-4941D02*
D03*
X-10059Y277894D02*
D03*
X-4941D02*
D03*
X76059Y322000D02*
D03*
X70941D02*
D03*
X102496Y25000D02*
D03*
X97378D02*
D03*
X44937Y26500D02*
D03*
X50055D02*
D03*
X143441D02*
D03*
X148559D02*
D03*
X201000Y25000D02*
D03*
X195882D02*
D03*
X280441Y34000D02*
D03*
X285559D02*
D03*
X250941Y15000D02*
D03*
X256059D02*
D03*
X280441Y27000D02*
D03*
X285559D02*
D03*
X179803Y262906D02*
D03*
X174685D02*
D03*
X174626Y270406D02*
D03*
X179744D02*
D03*
X265059Y183000D02*
D03*
X259941D02*
D03*
X268941Y289500D02*
D03*
X274059D02*
D03*
X274118Y282000D02*
D03*
X269000D02*
D03*
X224421Y238500D02*
D03*
X219303D02*
D03*
X224421Y245500D02*
D03*
X219303D02*
D03*
X224421Y252441D02*
D03*
X219303D02*
D03*
X219441Y230842D02*
D03*
X224559D02*
D03*
X162059Y190878D02*
D03*
X156941D02*
D03*
X175941Y222620D02*
D03*
X181059D02*
D03*
X224559Y223000D02*
D03*
X219441D02*
D03*
X169441Y190878D02*
D03*
X174559D02*
D03*
X70059Y235000D02*
D03*
X64941D02*
D03*
X70102Y242500D02*
D03*
X64984D02*
D03*
X60559Y196500D02*
D03*
X55441D02*
D03*
X55441Y189000D02*
D03*
X60559D02*
D03*
X55441Y204024D02*
D03*
X60559D02*
D03*
X60500Y181976D02*
D03*
X55382D02*
D03*
X282382Y62878D02*
D03*
X287500D02*
D03*
X267000Y88378D02*
D03*
X261882D02*
D03*
X261882Y95402D02*
D03*
X267000D02*
D03*
X287500Y55378D02*
D03*
X282382D02*
D03*
X175882D02*
D03*
X181000D02*
D03*
X160500Y95402D02*
D03*
X155382D02*
D03*
X155382Y88378D02*
D03*
X160500D02*
D03*
X181000Y62878D02*
D03*
X175882D02*
D03*
X48941Y88378D02*
D03*
X54059D02*
D03*
X54059Y95402D02*
D03*
X48941D02*
D03*
X74559Y62878D02*
D03*
X69441D02*
D03*
X69441Y55378D02*
D03*
X74559D02*
D03*
D106*
X71157Y5000D02*
D03*
X65842D02*
D03*
X83654D02*
D03*
X78339D02*
D03*
X-9657Y270823D02*
D03*
X-4343D02*
D03*
X306842Y297825D02*
D03*
X312158D02*
D03*
X243843Y289697D02*
D03*
X249158D02*
D03*
X33968Y314200D02*
D03*
X39283D02*
D03*
X290843Y5000D02*
D03*
X296158D02*
D03*
X145343Y307500D02*
D03*
X150657D02*
D03*
X204311Y317846D02*
D03*
X198996D02*
D03*
X224362Y282500D02*
D03*
X229677D02*
D03*
X204157Y236000D02*
D03*
X198843D02*
D03*
X181342Y190878D02*
D03*
X186658D02*
D03*
X70201Y227740D02*
D03*
X64886D02*
D03*
X111815Y196158D02*
D03*
X106500D02*
D03*
X64886Y215500D02*
D03*
X70201D02*
D03*
X261283Y55378D02*
D03*
X266598D02*
D03*
Y62878D02*
D03*
X261283D02*
D03*
X154783D02*
D03*
X160098D02*
D03*
Y55378D02*
D03*
X154783D02*
D03*
X48342Y62878D02*
D03*
X53658D02*
D03*
Y55378D02*
D03*
X48342D02*
D03*
D107*
X252291Y299085D02*
D03*
X258591D02*
D03*
X-2650Y232000D02*
D03*
X3650D02*
D03*
X288299Y185000D02*
D03*
X282000D02*
D03*
X288150Y176500D02*
D03*
X281850D02*
D03*
X288299Y231083D02*
D03*
X282000D02*
D03*
X288299Y222240D02*
D03*
X282000D02*
D03*
X291291Y95378D02*
D03*
X297590D02*
D03*
X191091D02*
D03*
X184791D02*
D03*
X84650D02*
D03*
X78350D02*
D03*
D108*
X119000Y279492D02*
D03*
Y285398D02*
D03*
X126500D02*
D03*
Y279492D02*
D03*
D109*
X64071Y321850D02*
D03*
X47929D02*
D03*
Y328150D02*
D03*
X64071D02*
D03*
D110*
X89000Y311150D02*
D03*
Y304850D02*
D03*
Y259350D02*
D03*
Y265650D02*
D03*
X246941Y98850D02*
D03*
Y105150D02*
D03*
X140441D02*
D03*
Y98850D02*
D03*
X34000Y105150D02*
D03*
Y98850D02*
D03*
D111*
X89000Y294646D02*
D03*
Y275354D02*
D03*
D112*
X60839Y297524D02*
D03*
Y294374D02*
D03*
Y291224D02*
D03*
Y288075D02*
D03*
Y284925D02*
D03*
Y281776D02*
D03*
Y278626D02*
D03*
Y275476D02*
D03*
X28161D02*
D03*
Y278626D02*
D03*
Y281776D02*
D03*
Y284925D02*
D03*
Y288075D02*
D03*
Y291224D02*
D03*
Y294374D02*
D03*
Y297524D02*
D03*
D113*
X55524Y270161D02*
D03*
X52374D02*
D03*
X49224D02*
D03*
X46075D02*
D03*
X42925D02*
D03*
X39776D02*
D03*
X36626D02*
D03*
X33476D02*
D03*
Y302839D02*
D03*
X36626D02*
D03*
X39776D02*
D03*
X42925D02*
D03*
X46075D02*
D03*
X49224D02*
D03*
X52374D02*
D03*
X55524D02*
D03*
D114*
X77000Y282445D02*
D03*
Y275555D02*
D03*
X297000Y224610D02*
D03*
Y231500D02*
D03*
D115*
X29953Y189500D02*
D03*
X24047D02*
D03*
D116*
X224047Y73354D02*
D03*
X117500Y73370D02*
D03*
X11500D02*
D03*
X213000D02*
D03*
X106246D02*
D03*
X0D02*
D03*
X166000Y225870D02*
D03*
X189500Y216508D02*
D03*
D117*
X224047Y84614D02*
D03*
X117500Y84630D02*
D03*
X11500D02*
D03*
X213000D02*
D03*
X106246D02*
D03*
X0D02*
D03*
X166000Y237130D02*
D03*
X189500Y205248D02*
D03*
D118*
X134956Y321800D02*
D03*
Y319300D02*
D03*
Y316700D02*
D03*
Y314200D02*
D03*
X151556D02*
D03*
Y316700D02*
D03*
Y319300D02*
D03*
Y321800D02*
D03*
D119*
X160221Y277949D02*
D03*
Y280508D02*
D03*
Y283067D02*
D03*
Y285626D02*
D03*
Y288185D02*
D03*
Y290744D02*
D03*
Y293303D02*
D03*
Y295862D02*
D03*
X182268Y277949D02*
D03*
Y280508D02*
D03*
Y283067D02*
D03*
Y285626D02*
D03*
Y288185D02*
D03*
Y290744D02*
D03*
Y293303D02*
D03*
Y295862D02*
D03*
X288524Y274457D02*
D03*
Y271898D02*
D03*
Y269339D02*
D03*
Y266779D02*
D03*
Y264220D02*
D03*
Y261661D02*
D03*
Y259102D02*
D03*
Y256543D02*
D03*
X266476Y274457D02*
D03*
Y271898D02*
D03*
Y269339D02*
D03*
Y266779D02*
D03*
Y264220D02*
D03*
Y261661D02*
D03*
Y259102D02*
D03*
Y256543D02*
D03*
D120*
X169500Y209177D02*
D03*
Y206618D02*
D03*
Y204059D02*
D03*
Y201500D02*
D03*
X181114D02*
D03*
Y204059D02*
D03*
Y206618D02*
D03*
Y209177D02*
D03*
X151000Y201500D02*
D03*
Y204059D02*
D03*
Y206618D02*
D03*
Y209177D02*
D03*
X162614D02*
D03*
Y206618D02*
D03*
Y204059D02*
D03*
Y201500D02*
D03*
D121*
X265799Y246500D02*
D03*
X272689D02*
D03*
D122*
X284846Y208980D02*
D03*
X282878D02*
D03*
Y197957D02*
D03*
X284846D02*
D03*
D123*
X279925Y208980D02*
D03*
D03*
Y197957D02*
D03*
D03*
D124*
X278941Y205437D02*
D03*
Y201500D02*
D03*
D125*
X279630Y203468D02*
D03*
D126*
X286520Y200516D02*
D03*
Y202484D02*
D03*
Y204453D02*
D03*
Y206421D02*
D03*
D127*
X259000Y208110D02*
D03*
Y198779D02*
D03*
D128*
X235098Y212724D02*
D03*
Y211150D02*
D03*
Y209575D02*
D03*
Y208000D02*
D03*
Y206425D02*
D03*
Y204850D02*
D03*
X219500D02*
D03*
Y206425D02*
D03*
Y208000D02*
D03*
Y209575D02*
D03*
Y211150D02*
D03*
Y212724D02*
D03*
D129*
X204000Y205100D02*
D03*
Y224785D02*
D03*
D130*
X110594Y220000D02*
D03*
Y215000D02*
D03*
Y210000D02*
D03*
Y205000D02*
D03*
X132405D02*
D03*
Y210000D02*
D03*
Y215000D02*
D03*
Y220000D02*
D03*
D131*
X91498Y223900D02*
D03*
D132*
X100098Y217500D02*
D03*
Y220060D02*
D03*
Y222620D02*
D03*
Y225180D02*
D03*
Y227740D02*
D03*
Y230300D02*
D03*
X82898D02*
D03*
Y227740D02*
D03*
Y225180D02*
D03*
Y222620D02*
D03*
Y220060D02*
D03*
Y217500D02*
D03*
D133*
X67543Y204024D02*
D03*
X70102D02*
D03*
X72661D02*
D03*
X75221D02*
D03*
X77780D02*
D03*
X80339D02*
D03*
X82898D02*
D03*
X85457D02*
D03*
X67543Y181976D02*
D03*
X70102D02*
D03*
X72661D02*
D03*
X75221D02*
D03*
X77780D02*
D03*
X80339D02*
D03*
X82898D02*
D03*
X85457D02*
D03*
D134*
X274602Y95402D02*
D03*
X277161D02*
D03*
X279720D02*
D03*
X282279D02*
D03*
X274602Y73354D02*
D03*
X277161D02*
D03*
X279720D02*
D03*
X282279D02*
D03*
X168102Y95402D02*
D03*
X170661D02*
D03*
X173221D02*
D03*
X175779D02*
D03*
X168102Y73354D02*
D03*
X170661D02*
D03*
X173221D02*
D03*
X175779D02*
D03*
X61661Y95402D02*
D03*
X64220D02*
D03*
X66780D02*
D03*
X69339D02*
D03*
X61661Y73354D02*
D03*
X64220D02*
D03*
X66780D02*
D03*
X69339D02*
D03*
D135*
X291441Y131091D02*
D03*
Y105500D02*
D03*
X184941D02*
D03*
Y131091D02*
D03*
X78500Y105500D02*
D03*
Y131091D02*
D03*
D136*
X258126Y151000D02*
D03*
X218756D02*
D03*
X112256D02*
D03*
X151626D02*
D03*
X5815D02*
D03*
X45185D02*
D03*
D137*
X291441Y149864D02*
D03*
X184941D02*
D03*
X78500D02*
D03*
D138*
X291441Y159136D02*
D03*
X184941D02*
D03*
X78500D02*
D03*
D139*
X230399Y207237D02*
D03*
Y210337D02*
D03*
X227299Y207237D02*
D03*
Y210337D02*
D03*
X224199Y207237D02*
D03*
Y210337D02*
D03*
M02*
