G04 Layer_Physical_Order=1*
G04 Layer_Color=255*
%FSLAX25Y25*%
%MOIN*%
G70*
G01*
G75*
%ADD10R,0.06299X0.03150*%
%ADD11R,0.06299X0.03937*%
%ADD12R,0.31496X0.27559*%
%ADD13R,1.96850X0.19685*%
%ADD14R,1.96850X0.27559*%
%ADD15C,0.08000*%
%ADD16C,0.01000*%
%ADD17C,0.01500*%
%ADD18C,0.45000*%
%ADD19C,0.09842*%
%ADD20C,0.02000*%
G36*
X319917Y8850D02*
X4417D01*
Y112685D01*
X57083Y165350D01*
X319917Y165350D01*
Y8850D01*
D02*
G37*
G36*
X319163Y199705D02*
X318810Y199350D01*
X3917D01*
X3917Y303350D01*
X56417Y355850D01*
X318669Y355850D01*
X319163Y199705D01*
D02*
G37*
D10*
X177445Y180285D02*
D03*
Y184616D02*
D03*
X146378D02*
D03*
Y180285D02*
D03*
D11*
X193193Y182450D02*
D03*
X130630D02*
D03*
D12*
X100585Y180529D02*
D03*
X223321Y180532D02*
D03*
X293498D02*
D03*
X99935Y370998D02*
D03*
X222671Y371000D02*
D03*
X292848D02*
D03*
D13*
X162602Y146300D02*
D03*
Y31500D02*
D03*
X161953Y336769D02*
D03*
Y221969D02*
D03*
D14*
X162500Y77000D02*
D03*
X161850Y267469D02*
D03*
D15*
X71000Y370998D02*
X73500D01*
X56065D02*
X71000D01*
X78500D02*
X81000D01*
X99935D01*
X70500Y180529D02*
X73000D01*
X738D02*
X70500D01*
X73000D02*
X75500D01*
X80500D02*
X100585D01*
X193917Y370998D02*
X196417D01*
X99935D02*
X193917D01*
X196417D02*
X198917D01*
X201417D01*
X203917D01*
X263417D02*
X265917D01*
X268417D01*
X270917D01*
X273417D01*
X292846D01*
X273417Y180532D02*
X293498D01*
X270917D02*
X273417D01*
X268417D02*
X270917D01*
X265917D02*
X268417D01*
X263417D02*
X265917D01*
X260917D02*
X263417D01*
X258417D02*
X260917D01*
X255917D02*
X258417D01*
X253417D02*
X255917D01*
X250917D02*
X253417D01*
X248417D02*
X250917D01*
X245917D02*
X248417D01*
X243417D02*
X245917D01*
X240917D02*
X243417D01*
X223321D02*
X240917D01*
X-7083Y188350D02*
X738Y180529D01*
X-7083Y307850D02*
X56065Y370998D01*
X-7083Y188350D02*
Y200059D01*
Y205059D02*
Y307850D01*
Y200059D02*
Y205059D01*
X75500Y180529D02*
X80500D01*
X73500Y370998D02*
X78500D01*
X203917D02*
X263417D01*
D16*
X292846D02*
X292848Y371000D01*
X145441Y180285D02*
X146378Y179348D01*
X145441Y180285D02*
X146378Y181222D01*
X177445Y181269D02*
X178429Y180285D01*
D17*
X121917Y182450D02*
X130630D01*
X131417D01*
X146378Y181222D02*
Y183632D01*
X145394Y180285D02*
X145441D01*
X146378Y175000D02*
Y179348D01*
X177445Y181269D02*
Y183632D01*
X135417Y169950D02*
X190450D01*
X193193Y172693D01*
Y181663D01*
X145441Y180285D02*
X178429D01*
X145394Y184616D02*
X146378Y183632D01*
X177445Y183632D02*
X178429Y184616D01*
X192405Y182450D02*
X193193Y181663D01*
D18*
X82117Y87500D02*
D03*
X161317D02*
D03*
X240517D02*
D03*
X82117Y277850D02*
D03*
X161317D02*
D03*
X240517D02*
D03*
D19*
X-18898Y294094D02*
D03*
Y99606D02*
D03*
X341732Y294094D02*
D03*
Y99606D02*
D03*
D20*
X71000Y370998D02*
D03*
X73500D02*
D03*
X76000Y371000D02*
D03*
X78500Y370998D02*
D03*
X81000D02*
D03*
X70500Y180529D02*
D03*
X73000D02*
D03*
X75500D02*
D03*
X78000Y180500D02*
D03*
X80500Y180529D02*
D03*
X193917Y370998D02*
D03*
X196417D02*
D03*
X198917D02*
D03*
X201417D02*
D03*
X203917D02*
D03*
X263417D02*
D03*
X265917D02*
D03*
X268417D02*
D03*
X270917D02*
D03*
X273417D02*
D03*
Y180532D02*
D03*
X270917D02*
D03*
X268417D02*
D03*
X265917D02*
D03*
X-7391Y195059D02*
D03*
Y197559D02*
D03*
Y200059D02*
D03*
Y205059D02*
D03*
X263417Y180532D02*
D03*
X260917D02*
D03*
X258417D02*
D03*
X255917D02*
D03*
X253417D02*
D03*
X250917D02*
D03*
X248417D02*
D03*
X245917D02*
D03*
X243417D02*
D03*
X240917D02*
D03*
X135417Y169950D02*
D03*
X121917Y182450D02*
D03*
X-7391Y202559D02*
D03*
X146378Y175000D02*
D03*
M02*
