G04 Layer_Color=65535*
%FSLAX25Y25*%
%MOIN*%
G70*
G01*
G75*
%ADD25C,0.00591*%
%ADD26C,0.01181*%
%ADD27C,0.01378*%
%ADD28C,0.01968*%
G36*
X-10627Y157098D02*
X-14317D01*
X-14548Y156791D01*
Y154330D01*
X-11165D01*
X-10857Y154099D01*
Y153946D01*
X-11165Y153638D01*
X-14548D01*
Y150870D01*
X-10703D01*
X-10473Y150639D01*
Y150486D01*
X-10703Y150178D01*
X-15009D01*
X-15240Y150486D01*
Y157636D01*
X-10627D01*
Y157098D01*
D02*
G37*
G36*
X-8551Y157406D02*
Y150870D01*
X-4629D01*
X-4398Y150639D01*
Y150486D01*
X-4629Y150178D01*
X-9089D01*
X-9319Y150486D01*
Y157406D01*
X-9089Y157636D01*
X-8781D01*
X-8551Y157406D01*
D02*
G37*
G36*
X-8781Y147871D02*
X-8474Y147718D01*
X-8320Y147641D01*
X-8243Y147487D01*
X-8551Y147179D01*
X-8704Y147256D01*
X-9012Y147410D01*
X-9396Y147487D01*
X-9934Y147564D01*
X-10011D01*
X-10242Y147487D01*
X-10550Y147410D01*
X-10934Y147179D01*
X-11319Y146949D01*
X-11626Y146641D01*
X-11857Y146180D01*
X-11934Y145642D01*
Y145565D01*
Y145334D01*
X-11857Y144949D01*
X-11703Y144565D01*
X-11472Y144181D01*
X-11088Y143796D01*
X-10627Y143565D01*
X-10011Y143489D01*
X-9473D01*
X-8781Y143565D01*
Y145103D01*
X-9473D01*
X-9781Y145411D01*
X-9473Y145642D01*
X-8551D01*
X-8243Y145411D01*
Y143489D01*
Y143412D01*
X-8320Y143335D01*
X-8474Y143258D01*
X-8627Y143181D01*
X-8935Y143104D01*
X-9396Y143027D01*
X-9934Y142950D01*
X-10011D01*
X-10319Y143027D01*
X-10703Y143104D01*
X-11165Y143335D01*
X-11626Y143565D01*
X-12011Y143950D01*
X-12318Y144488D01*
X-12395Y145103D01*
Y145795D01*
Y145872D01*
X-12318Y146180D01*
X-12164Y146487D01*
X-12011Y146949D01*
X-11703Y147333D01*
X-11319Y147718D01*
X-10780Y147948D01*
X-10165Y148025D01*
X-9166D01*
X-8781Y147871D01*
D02*
G37*
G36*
X-19623Y157560D02*
X-19084Y157406D01*
X-18392Y157098D01*
X-17700Y156714D01*
X-17085Y156175D01*
X-16701Y155407D01*
X-16624Y154945D01*
X-16547Y154484D01*
Y153946D01*
Y153869D01*
Y153792D01*
X-16624Y153331D01*
X-16855Y152792D01*
X-17162Y152100D01*
X-17854Y151408D01*
X-18239Y151024D01*
X-18777Y150793D01*
X-19315Y150563D01*
X-20084Y150332D01*
X-20853Y150255D01*
X-21776Y150178D01*
X-22852D01*
X-23083Y150486D01*
Y157406D01*
X-22852Y157636D01*
X-20084D01*
X-19623Y157560D01*
D02*
G37*
G36*
X8212Y157483D02*
X8365Y157175D01*
X8519Y156944D01*
X8673Y156637D01*
X8827Y156252D01*
X9057Y155791D01*
X9288Y155176D01*
X9595Y154484D01*
X9903Y153638D01*
X10288Y152715D01*
X10672Y151562D01*
X11133Y150332D01*
X11056Y150178D01*
X10595D01*
X10518Y150255D01*
X10441Y150332D01*
X10364Y150486D01*
X10211Y150793D01*
X9980Y151254D01*
X9826Y151946D01*
X9519Y152792D01*
X6520D01*
X5213Y150178D01*
X4675D01*
Y150255D01*
X4752Y150409D01*
X4828Y150716D01*
X4905Y151024D01*
X5059Y151331D01*
X5136Y151716D01*
X5367Y152254D01*
X5597Y152792D01*
X5828Y153484D01*
X6135Y154330D01*
X6520Y155253D01*
X6981Y156329D01*
X7443Y157483D01*
X7596Y157636D01*
X8135D01*
X8212Y157483D01*
D02*
G37*
G36*
X4828Y157406D02*
Y157329D01*
X4675Y157098D01*
X4598Y156714D01*
X4367Y156252D01*
X4136Y155714D01*
X3906Y155099D01*
X3367Y153792D01*
X2829Y152485D01*
X2599Y151870D01*
X2368Y151331D01*
X2137Y150870D01*
X1983Y150486D01*
X1907Y150255D01*
X1830Y150178D01*
X1368D01*
X1291Y150332D01*
X1138Y150563D01*
X984Y150793D01*
X830Y151101D01*
X676Y151485D01*
X446Y152023D01*
X215Y152638D01*
X-93Y153331D01*
X-400Y154176D01*
X-785Y155176D01*
X-1169Y156329D01*
X-1630Y157636D01*
X-1092D01*
X-1015Y157483D01*
X-862Y157252D01*
X-631Y156791D01*
X-477Y156406D01*
X-246Y156022D01*
X-93Y155483D01*
X138Y154868D01*
X446Y154099D01*
X753Y153254D01*
X1138Y152254D01*
X1522Y151178D01*
X1676D01*
Y151254D01*
X1753Y151485D01*
X1907Y151793D01*
X2060Y152177D01*
X2445Y153254D01*
X2906Y154407D01*
X3367Y155560D01*
X3752Y156637D01*
X3906Y157021D01*
X4059Y157329D01*
X4213Y157560D01*
X4290Y157636D01*
X4598D01*
X4828Y157406D01*
D02*
G37*
G36*
X28357Y157252D02*
X28280Y157098D01*
Y156944D01*
X28126Y157098D01*
X24358D01*
Y154330D01*
X27819D01*
X28126Y154099D01*
Y153946D01*
X27819Y153638D01*
X24358D01*
Y150870D01*
X28280D01*
X28510Y150639D01*
Y150486D01*
X28280Y150178D01*
X23974D01*
X23666Y150486D01*
Y157636D01*
X28357D01*
Y157252D01*
D02*
G37*
G36*
X12979Y157406D02*
Y150870D01*
X16823D01*
X17054Y150639D01*
Y150486D01*
X16823Y150178D01*
X12517D01*
X12287Y150486D01*
Y157406D01*
X12517Y157636D01*
X12671D01*
X12979Y157406D01*
D02*
G37*
G36*
X18745D02*
Y150870D01*
X22744D01*
Y150486D01*
X22436Y150178D01*
X18207D01*
X17900Y150486D01*
Y157406D01*
X18207Y157636D01*
X18438D01*
X18745Y157406D01*
D02*
G37*
G36*
X15055Y147718D02*
Y143027D01*
X14901D01*
X14593Y143335D01*
Y146795D01*
X14440D01*
Y146718D01*
X14363Y146641D01*
X14209Y146180D01*
X13978Y145642D01*
X13671Y144949D01*
X13363Y144257D01*
X12979Y143642D01*
X12748Y143181D01*
X12594Y143104D01*
X12517Y143027D01*
X12440D01*
X12364Y143181D01*
X12210Y143335D01*
X11979Y143642D01*
X11748Y144104D01*
X11441Y144796D01*
X11056Y145642D01*
X10595Y146795D01*
X10518D01*
Y143335D01*
X10211Y143027D01*
X9903Y143335D01*
Y147718D01*
X10211Y148025D01*
X10364D01*
X10441Y147948D01*
X10595Y147794D01*
X10749Y147487D01*
X10980Y147026D01*
X11364Y146257D01*
X11595Y145795D01*
X11825Y145257D01*
X12133Y144642D01*
X12440Y143873D01*
X14593Y148025D01*
X14747D01*
X15055Y147718D01*
D02*
G37*
G36*
X-477Y147948D02*
X-323Y147718D01*
X-93Y147410D01*
X138Y146795D01*
X292Y146334D01*
X522Y145872D01*
X753Y145334D01*
X984Y144642D01*
X1214Y143873D01*
X1522Y143027D01*
X1214D01*
X1138Y143104D01*
X1061Y143258D01*
X984Y143412D01*
X830Y143719D01*
X676Y144181D01*
X446Y144719D01*
X-1553D01*
X-1630Y144565D01*
X-1784Y144334D01*
X-1861Y144027D01*
X-1938Y143719D01*
X-2476Y143027D01*
X-2707Y143335D01*
Y143412D01*
X-2630Y143489D01*
X-2399Y144027D01*
X-2169Y144719D01*
X-1784Y145565D01*
X-1477Y146410D01*
X-1169Y147102D01*
X-862Y147718D01*
X-785Y147948D01*
X-708Y148025D01*
X-554D01*
X-477Y147948D01*
D02*
G37*
G36*
X5520Y147718D02*
X5213Y147487D01*
X3598D01*
Y143335D01*
X3291Y143027D01*
X3060Y143335D01*
Y147487D01*
X1368D01*
X1138Y147718D01*
X1368Y148025D01*
X5213D01*
X5520Y147718D01*
D02*
G37*
G36*
X-20776Y147871D02*
X-20238Y147718D01*
X-19700Y147410D01*
X-19161Y146949D01*
X-18854Y146257D01*
X-18700Y145411D01*
Y145334D01*
Y145103D01*
X-18854Y144719D01*
X-19008Y144334D01*
X-19315Y143950D01*
X-19700Y143565D01*
X-20315Y143258D01*
X-21160Y143027D01*
X-22852D01*
X-23083Y143335D01*
Y147718D01*
X-22852Y148025D01*
X-21314D01*
X-20776Y147871D01*
D02*
G37*
G36*
X-14855Y147718D02*
Y147487D01*
X-17470D01*
Y145795D01*
X-15240D01*
X-15009Y145565D01*
X-15240Y145257D01*
X-17470D01*
Y143489D01*
X-15009D01*
X-14702Y143181D01*
X-14855Y143027D01*
X-17854D01*
Y147718D01*
X-17624Y148025D01*
X-15163D01*
X-14855Y147718D01*
D02*
G37*
G36*
X9134D02*
X8827Y147487D01*
X6520D01*
Y145795D01*
X8673D01*
X8980Y145565D01*
X8673Y145257D01*
X6520D01*
Y143489D01*
X8980D01*
X9211Y143181D01*
X9134Y143027D01*
X6212D01*
X5905Y143335D01*
Y147718D01*
X6212Y148025D01*
X8827D01*
X9134Y147718D01*
D02*
G37*
G36*
X26511Y147948D02*
X26665Y147718D01*
X26819Y147333D01*
X27050Y146795D01*
X27280Y146410D01*
X27434Y145949D01*
X27665Y145334D01*
X27895Y144719D01*
X28203Y144027D01*
X28510Y143181D01*
X28357Y143027D01*
X28203D01*
X28126Y143104D01*
X28049Y143258D01*
X27895Y143412D01*
X27742Y143719D01*
X27588Y144181D01*
X27434Y144719D01*
X25435D01*
X25358Y144642D01*
X25281Y144488D01*
X25204Y144334D01*
X25050Y144027D01*
X24897Y143565D01*
X24666Y143027D01*
X24282D01*
Y143181D01*
Y143258D01*
X24358Y143412D01*
X24435Y143642D01*
X24512Y143950D01*
X24820Y144719D01*
X25127Y145642D01*
X25512Y146487D01*
X25819Y147256D01*
X25973Y147564D01*
X26050Y147794D01*
X26204Y147948D01*
X26281Y148025D01*
X26434D01*
X26511Y147948D01*
D02*
G37*
G36*
X-3322Y147871D02*
Y144565D01*
Y144488D01*
Y144334D01*
X-3399Y144104D01*
X-3553Y143796D01*
X-3783Y143565D01*
X-4168Y143258D01*
X-4629Y143104D01*
X-5321Y142950D01*
X-5629D01*
X-5936Y143027D01*
X-6321Y143181D01*
X-6705Y143412D01*
X-7013Y143796D01*
X-7243Y144257D01*
X-7320Y144873D01*
Y147718D01*
X-7013Y148025D01*
X-6859Y147871D01*
Y146334D01*
Y146180D01*
Y145872D01*
X-6782Y145411D01*
X-6705Y144949D01*
X-6551Y144411D01*
X-6244Y143950D01*
X-5936Y143642D01*
X-5475Y143489D01*
X-5014D01*
X-4783Y143642D01*
X-4475Y143796D01*
X-4168Y144027D01*
X-3937Y144411D01*
X-3783Y144949D01*
X-3706Y145642D01*
Y147718D01*
X-3399Y148025D01*
X-3322Y147871D01*
D02*
G37*
G36*
X18130Y147948D02*
X18207Y147718D01*
X18438Y147410D01*
X18668Y146795D01*
X18822Y146410D01*
X19053Y145949D01*
X19284Y145411D01*
X19514Y144796D01*
X19822Y144027D01*
X20130Y143181D01*
X19976Y143027D01*
X19745D01*
X19668Y143104D01*
X19591Y143258D01*
X19437Y143412D01*
X19361Y143719D01*
X19207Y144181D01*
X19053Y144719D01*
X16823D01*
Y144642D01*
X16746Y144488D01*
X16669Y144181D01*
X16592Y143873D01*
X16439Y143565D01*
X16285Y143258D01*
X16131Y143104D01*
X15977Y143027D01*
X15824Y143181D01*
X15747D01*
Y143258D01*
X15824Y143412D01*
X15901Y143642D01*
X16054Y143873D01*
X16362Y144642D01*
X16746Y145488D01*
X17054Y146410D01*
X17438Y147179D01*
X17746Y147718D01*
X17823Y147948D01*
X17900Y148025D01*
X18053D01*
X18130Y147948D01*
D02*
G37*
G36*
X21206Y147871D02*
Y143489D01*
X23666D01*
X23974Y143181D01*
X23820Y143027D01*
X21052D01*
X20821Y143335D01*
Y147718D01*
X21052Y148025D01*
X21206Y147871D01*
D02*
G37*
G36*
X-6475Y191237D02*
Y180088D01*
Y180011D01*
Y179858D01*
Y179550D01*
X-6551Y179243D01*
X-6705Y178243D01*
X-7013Y177090D01*
X-7551Y175859D01*
X-7858Y175244D01*
X-8320Y174629D01*
X-8858Y174091D01*
X-9396Y173553D01*
X-10088Y173014D01*
X-10857Y172630D01*
X-10934D01*
X-11165Y172553D01*
X-11549Y172476D01*
X-12011Y172399D01*
X-12626Y172246D01*
X-13241Y172169D01*
X-14548Y172092D01*
X-15317D01*
X-15778Y172169D01*
X-16240Y172246D01*
X-16855Y172399D01*
X-17547Y172553D01*
X-18316Y172861D01*
X-19008Y173245D01*
X-19776Y173706D01*
X-20545Y174321D01*
X-21237Y175013D01*
X-21853Y175859D01*
X-22314Y176936D01*
X-22698Y178089D01*
X-23006Y179473D01*
X-23083Y181088D01*
Y191237D01*
X-22852Y191545D01*
X-19392D01*
X-19161Y191237D01*
Y180780D01*
Y180703D01*
Y180550D01*
Y180319D01*
X-19084Y179935D01*
X-18931Y179166D01*
X-18546Y178166D01*
X-18008Y177243D01*
X-17624Y176782D01*
X-17239Y176398D01*
X-16701Y176013D01*
X-16086Y175782D01*
X-15394Y175629D01*
X-14548Y175552D01*
X-14394D01*
X-14087Y175629D01*
X-13548Y175706D01*
X-12933Y175936D01*
X-12241Y176321D01*
X-11549Y176782D01*
X-10934Y177551D01*
X-10473Y178551D01*
X-10165Y182856D01*
Y191237D01*
X-9934Y191545D01*
X-6705D01*
X-6475Y191237D01*
D02*
G37*
G36*
X-18469Y165479D02*
Y162019D01*
Y161942D01*
Y161712D01*
X-18623Y161404D01*
X-18777Y161020D01*
X-19008Y160635D01*
X-19469Y160251D01*
X-20007Y160020D01*
X-20776Y159866D01*
X-20853D01*
X-21160Y159943D01*
X-21468Y160020D01*
X-21929Y160251D01*
X-22314Y160558D01*
X-22698Y161020D01*
X-23006Y161712D01*
X-23083Y162634D01*
Y165479D01*
X-22852Y165787D01*
X-22545Y165479D01*
Y162711D01*
Y162634D01*
Y162327D01*
X-22468Y162019D01*
X-22314Y161558D01*
X-22083Y161173D01*
X-21699Y160789D01*
X-21237Y160481D01*
X-20622Y160404D01*
X-20545D01*
X-20392Y160481D01*
X-20084Y160558D01*
X-19776Y160712D01*
X-19546Y160943D01*
X-19238Y161327D01*
X-19084Y161788D01*
X-19008Y162327D01*
Y165479D01*
X-18700Y165787D01*
X-18469Y165479D01*
D02*
G37*
G36*
X25281Y165633D02*
X26204Y165479D01*
X27050Y165172D01*
X27819Y164787D01*
X28049Y164480D01*
X28280Y164172D01*
X28434Y163788D01*
X28510Y163326D01*
Y162634D01*
Y162557D01*
X28434Y162250D01*
X28357Y161788D01*
X28126Y161327D01*
X27742Y160866D01*
X27126Y160404D01*
X26281Y160097D01*
X25819Y160020D01*
X23666D01*
X23436Y160251D01*
Y165479D01*
X23666Y165787D01*
X24589D01*
X25281Y165633D01*
D02*
G37*
G36*
X28510Y169093D02*
X28357Y168939D01*
X-22852D01*
X-23083Y169247D01*
X-23006Y169324D01*
X28280D01*
X28510Y169093D01*
D02*
G37*
G36*
X-12549Y165479D02*
Y160251D01*
X-12779Y160020D01*
X-12933D01*
X-13087Y160174D01*
X-13241Y160327D01*
X-13548Y160712D01*
X-14087Y161250D01*
X-14702Y162096D01*
X-15086Y162557D01*
X-15471Y163172D01*
X-16009Y163788D01*
X-16547Y164557D01*
X-16624D01*
Y160251D01*
X-16931Y160020D01*
X-17162Y160251D01*
Y165479D01*
X-16931Y165787D01*
X-16778D01*
X-13087Y161096D01*
Y165479D01*
X-12779Y165787D01*
X-12549Y165479D01*
D02*
G37*
G36*
X-4783Y165633D02*
X-4629D01*
Y165556D01*
X-4706Y165402D01*
X-4783Y165172D01*
X-4937Y164864D01*
X-5244Y164018D01*
X-5629Y163096D01*
X-6090Y162096D01*
X-6475Y161173D01*
X-6859Y160481D01*
X-7013Y160174D01*
X-7166Y160020D01*
X-7320D01*
X-7397Y160097D01*
X-7551Y160327D01*
X-7705Y160712D01*
X-7858Y161020D01*
X-8089Y161404D01*
X-8243Y161865D01*
X-8474Y162404D01*
X-8781Y163019D01*
X-9089Y163788D01*
X-9396Y164633D01*
X-9781Y165633D01*
X-9627Y165787D01*
X-9319D01*
X-9243Y165710D01*
X-9166Y165556D01*
X-8935Y165172D01*
X-8704Y164557D01*
X-8551Y164172D01*
X-8320Y163711D01*
X-8166Y163096D01*
X-7858Y162404D01*
X-7628Y161635D01*
X-7320Y160789D01*
X-7166D01*
Y160866D01*
X-7090Y161020D01*
X-7013Y161250D01*
X-6859Y161558D01*
X-6551Y162404D01*
X-6244Y163326D01*
X-5859Y164172D01*
X-5552Y165018D01*
X-5398Y165325D01*
X-5244Y165556D01*
X-5167Y165710D01*
X-5091Y165787D01*
X-4937D01*
X-4783Y165633D01*
D02*
G37*
G36*
X8365Y165710D02*
X8827Y165556D01*
X8980Y165402D01*
X9134Y165249D01*
Y165172D01*
X9057Y165095D01*
X8980Y165018D01*
X8673Y164941D01*
X7827Y165249D01*
X7058D01*
X6674Y165095D01*
X6212Y164864D01*
X6135Y164557D01*
X6059Y164249D01*
Y164095D01*
X6135Y164018D01*
X6212Y163941D01*
X6443Y163788D01*
X6751Y163557D01*
X7289Y163326D01*
X7981Y163019D01*
X8980Y162634D01*
X9365Y161942D01*
Y161404D01*
Y161327D01*
Y161173D01*
X9288Y160943D01*
X9134Y160712D01*
X8827Y160404D01*
X8442Y160174D01*
X7904Y159943D01*
X7212Y159866D01*
X7135D01*
X6904Y159943D01*
X6597Y160020D01*
X6289Y160097D01*
X5982Y160174D01*
X5674Y160327D01*
X5443Y160404D01*
X5367Y160558D01*
X5674Y160943D01*
X5751D01*
X5828Y160866D01*
X6289Y160712D01*
X6751Y160481D01*
X7289Y160404D01*
X7366D01*
X7519Y160481D01*
X8058Y160635D01*
X8596Y160943D01*
X8750Y161173D01*
X8827Y161481D01*
X8750Y161635D01*
X8673Y161788D01*
X8519Y161942D01*
X8135Y162173D01*
X7673Y162480D01*
X6981Y162788D01*
X6059Y163172D01*
X5520Y163865D01*
Y164787D01*
Y164864D01*
X5597Y164941D01*
X5905Y165325D01*
X6443Y165633D01*
X6827Y165710D01*
X7212Y165787D01*
X7981D01*
X8365Y165710D01*
D02*
G37*
G36*
X20360Y165633D02*
X20514Y165325D01*
X20745Y164864D01*
X21052Y164095D01*
X21283Y163634D01*
X21513Y163096D01*
X21744Y162480D01*
X22052Y161788D01*
X22359Y161020D01*
X22744Y160097D01*
X22590Y160020D01*
X22282D01*
X22206Y160097D01*
X22129Y160251D01*
X21975Y160481D01*
X21821Y160866D01*
X21590Y161327D01*
X21360Y161942D01*
X18899D01*
Y161865D01*
X18822Y161635D01*
X18745Y161327D01*
X18592Y161020D01*
X18515Y160635D01*
X18361Y160327D01*
X18207Y160097D01*
X18053Y160020D01*
X17900D01*
X17746Y160097D01*
X17669D01*
Y160174D01*
X17746Y160327D01*
X17823Y160558D01*
X17977Y160866D01*
X18284Y161712D01*
X18668Y162711D01*
X19130Y163711D01*
X19514Y164633D01*
X19899Y165402D01*
X20053Y165633D01*
X20130Y165787D01*
X20283D01*
X20360Y165633D01*
D02*
G37*
G36*
X-246Y165479D02*
X-554Y165249D01*
X-3168D01*
X-3399Y164941D01*
Y163172D01*
X-785D01*
X-554Y162865D01*
X-785Y162634D01*
X-3399D01*
Y160789D01*
X-3168Y160558D01*
X-554D01*
X-246Y160251D01*
X-554Y160020D01*
X-3706D01*
X-4014Y160251D01*
Y165479D01*
X-3706Y165787D01*
X-554D01*
X-246Y165479D01*
D02*
G37*
G36*
X23743Y191699D02*
X24589Y191545D01*
X25512Y191237D01*
X26511Y190930D01*
X27511Y190392D01*
X28510Y189699D01*
X28434Y189546D01*
X28280Y189238D01*
X28049Y188777D01*
X27819Y188315D01*
X27511Y187777D01*
X27280Y187316D01*
X27050Y187008D01*
X26896Y186855D01*
X26819Y186932D01*
X26511Y187085D01*
X26050Y187316D01*
X25435Y187624D01*
X24666Y187931D01*
X23820Y188162D01*
X22821Y188315D01*
X21744Y188392D01*
X21360D01*
X21052Y188315D01*
X20283Y188162D01*
X19361Y187854D01*
X18438Y187316D01*
X17438Y186547D01*
X16977Y186086D01*
X16516Y185547D01*
X16131Y184855D01*
X15824Y184087D01*
X15593Y181857D01*
Y181780D01*
Y181626D01*
Y181395D01*
X15670Y181088D01*
X15824Y180319D01*
X16131Y179396D01*
X16592Y178320D01*
X17285Y177397D01*
X17746Y176936D01*
X18284Y176551D01*
X18899Y176244D01*
X19591Y175936D01*
X19668Y175859D01*
X19745D01*
X19899Y175782D01*
X20206Y175706D01*
X20668Y175629D01*
X21206D01*
X22052Y175552D01*
X22436D01*
X22897Y175629D01*
X23359D01*
X23820Y175706D01*
X24282Y175782D01*
X24589Y175936D01*
X24666Y176090D01*
Y180088D01*
X21513D01*
Y182856D01*
X21744Y183087D01*
X28126D01*
X28357Y182856D01*
Y174168D01*
X28280Y174091D01*
X27972Y173860D01*
X27511Y173476D01*
X26819Y173168D01*
X25973Y172784D01*
X24820Y172399D01*
X23589Y172169D01*
X22052Y172092D01*
X21437D01*
X21052Y172169D01*
X20591D01*
X19976Y172246D01*
X19284Y172399D01*
X17823Y172784D01*
X17054Y173091D01*
X16208Y173476D01*
X15439Y173860D01*
X14670Y174398D01*
X13978Y175090D01*
X13286Y175782D01*
X12748Y176628D01*
X12287Y177628D01*
Y177705D01*
X12210Y177935D01*
X12056Y178320D01*
X11979Y178858D01*
X11825Y179473D01*
X11672Y180165D01*
X11595Y181780D01*
Y182164D01*
Y182241D01*
Y182472D01*
X11672Y182856D01*
X11748Y183318D01*
X11825Y183933D01*
X11979Y184625D01*
X12210Y185317D01*
X12517Y186086D01*
X12902Y186855D01*
X13440Y187700D01*
X14055Y188469D01*
X14747Y189238D01*
X15593Y189930D01*
X16592Y190545D01*
X17746Y191084D01*
X19053Y191545D01*
X21513Y191776D01*
X23051D01*
X23743Y191699D01*
D02*
G37*
G36*
X-10627Y165479D02*
Y160251D01*
X-10857Y160020D01*
X-11165Y160251D01*
Y165479D01*
X-10857Y165787D01*
X-10627Y165479D01*
D02*
G37*
G36*
X12440Y191468D02*
X12517Y191391D01*
Y191084D01*
X5367Y172399D01*
X1522D01*
Y172476D01*
X1445Y172553D01*
X1368Y172784D01*
X1214Y173091D01*
X984Y173553D01*
X753Y174245D01*
X446Y175013D01*
X-16Y176090D01*
X-477Y177320D01*
X-1092Y178858D01*
X-1400Y179781D01*
X-1784Y180703D01*
X-2169Y181703D01*
X-2630Y182856D01*
X-3014Y184010D01*
X-3553Y185317D01*
X-4014Y186701D01*
X-4552Y188162D01*
X-5167Y189699D01*
X-5782Y191391D01*
X-5629Y191545D01*
X-1784D01*
X-1707Y191468D01*
X-1630Y191314D01*
X-1553Y191084D01*
X-1400Y190776D01*
X-1246Y190315D01*
X-1015Y189776D01*
X-708Y189007D01*
X-400Y188008D01*
X61Y186855D01*
X522Y185471D01*
X1061Y183856D01*
X1753Y181934D01*
X2060Y180857D01*
X2445Y179704D01*
X2829Y178474D01*
X3291Y177166D01*
X3598D01*
Y177243D01*
X3675Y177320D01*
X3829Y177782D01*
X4059Y178474D01*
X4367Y179396D01*
X4675Y180473D01*
X5136Y181703D01*
X5520Y183010D01*
X5982Y184394D01*
X6443Y185701D01*
X6904Y187008D01*
X7366Y188239D01*
X7750Y189315D01*
X8058Y190238D01*
X8365Y190930D01*
X8519Y191391D01*
X8596Y191468D01*
X8673Y191545D01*
X12364D01*
X12440Y191468D01*
D02*
G37*
G36*
X11056Y165479D02*
Y160251D01*
X10749Y160020D01*
X10518Y160251D01*
Y165787D01*
X10749D01*
X11056Y165479D01*
D02*
G37*
G36*
X14440Y165710D02*
X15285Y165479D01*
X16054Y165249D01*
X16669Y164864D01*
X17208Y164326D01*
X17285Y163941D01*
X17361Y163557D01*
Y162173D01*
Y162096D01*
X17285Y161865D01*
X17208Y161558D01*
X16900Y161173D01*
X16516Y160789D01*
X15901Y160481D01*
X15055Y160174D01*
X14516Y160097D01*
X13901Y160020D01*
X12671D01*
X12440Y160251D01*
Y165479D01*
X12671Y165787D01*
X13825D01*
X14440Y165710D01*
D02*
G37*
G36*
X2522D02*
X3137Y165556D01*
X3675Y165402D01*
X4213Y165095D01*
X4521Y164633D01*
X4675Y164095D01*
Y164018D01*
Y163865D01*
X4444Y163326D01*
X4059Y162711D01*
X3829Y162557D01*
X3444Y162480D01*
Y162173D01*
X4828Y160097D01*
X4675Y160020D01*
X4444D01*
X2522Y162327D01*
X1291D01*
Y160251D01*
X984Y160020D01*
X676Y160251D01*
Y165479D01*
X984Y165787D01*
X1983D01*
X2522Y165710D01*
D02*
G37*
%LPC*%
G36*
X-21007Y157098D02*
X-22160D01*
X-22468Y156791D01*
Y151178D01*
X-22160Y150870D01*
X-21314D01*
X-20776Y150947D01*
X-20084Y151024D01*
X-19315Y151254D01*
X-18546Y151639D01*
X-17854Y152254D01*
X-17316Y153023D01*
X-17239Y153561D01*
X-17162Y154099D01*
Y154253D01*
X-17239Y154561D01*
X-17393Y155022D01*
X-17777Y155637D01*
X-18316Y156175D01*
X-18700Y156406D01*
X-19161Y156637D01*
X-19700Y156791D01*
X-20315Y156944D01*
X-21007Y157098D01*
D02*
G37*
G36*
X7981Y156791D02*
X7827D01*
X6597Y153484D01*
X9134D01*
Y153638D01*
X7981Y156791D01*
D02*
G37*
G36*
X-554Y147333D02*
X-708D01*
X-1400Y145103D01*
X138D01*
Y145257D01*
X-554Y147333D01*
D02*
G37*
G36*
X-21160Y147487D02*
X-22545D01*
Y143489D01*
X-21699D01*
X-21237Y143565D01*
X-20699Y143719D01*
X-20161Y144027D01*
X-19700Y144334D01*
X-19392Y144873D01*
X-19238Y145565D01*
Y145642D01*
Y145872D01*
X-19315Y146180D01*
X-19469Y146564D01*
X-19700Y146872D01*
X-20084Y147179D01*
X-20545Y147410D01*
X-21160Y147487D01*
D02*
G37*
G36*
X26434Y147179D02*
X26204D01*
X25512Y145103D01*
X27126D01*
X26434Y147179D01*
D02*
G37*
G36*
X18053D02*
X17746D01*
X17054Y145103D01*
X17361D01*
X17900Y145257D01*
X18438Y145103D01*
X18745D01*
X18053Y147179D01*
D02*
G37*
G36*
X24820Y165249D02*
X24128D01*
Y160558D01*
X25589D01*
X25896Y160635D01*
X26281Y160712D01*
X26742Y160866D01*
X27203Y161173D01*
X27588Y161635D01*
X27895Y162327D01*
X27972Y163172D01*
Y163249D01*
X27895Y163480D01*
X27819Y163865D01*
X27588Y164249D01*
X27203Y164557D01*
X26665Y164941D01*
X25896Y165172D01*
X24820Y165249D01*
D02*
G37*
G36*
X20283Y164941D02*
X20130D01*
X19130Y162480D01*
X21052D01*
Y162634D01*
X20283Y164941D01*
D02*
G37*
G36*
X13671Y165249D02*
X12979D01*
Y160558D01*
X14516D01*
X14901Y160712D01*
X15439Y160866D01*
X15977Y161096D01*
X16362Y161481D01*
X16669Y162019D01*
X16823Y162711D01*
Y163326D01*
Y163403D01*
X16746Y163634D01*
X16669Y163941D01*
X16439Y164326D01*
X16054Y164633D01*
X15516Y164941D01*
X14747Y165172D01*
X13671Y165249D01*
D02*
G37*
G36*
X2060D02*
X1291D01*
Y162711D01*
X2060D01*
X2445Y162788D01*
X2906Y162865D01*
X3367Y163019D01*
X3752Y163326D01*
X4059Y163634D01*
X4136Y164095D01*
Y164172D01*
Y164249D01*
X4059Y164480D01*
X3906Y164710D01*
X3598Y164864D01*
X3291Y165095D01*
X2752Y165172D01*
X2060Y165249D01*
D02*
G37*
%LPD*%
D25*
X-11417Y294094D02*
G03*
X-11417Y294094I-7480J0D01*
G01*
Y99606D02*
G03*
X-11417Y99606I-7480J0D01*
G01*
X349213Y294094D02*
G03*
X349213Y294094I-7480J0D01*
G01*
Y99606D02*
G03*
X349213Y99606I-7480J0D01*
G01*
X173409Y177824D02*
Y187076D01*
X197228D01*
X173409Y177824D02*
X197228D01*
Y187076D01*
X150413Y177824D02*
Y187076D01*
X126594Y177824D02*
X150413D01*
X126594Y187076D02*
X150413D01*
X126594Y177824D02*
Y187076D01*
D26*
X3524Y7892D02*
X65441D01*
X320368D01*
Y166947D01*
X3524Y7892D02*
Y113488D01*
X56982Y166947D01*
X83852D01*
X117317D02*
X123813D01*
X206589D01*
X240053D02*
X276766D01*
X310230D02*
X320368D01*
X2874Y198360D02*
X64792D01*
X319719D01*
Y357415D01*
X2874Y198360D02*
Y303957D01*
X56333Y357415D01*
X83203D01*
X116667D02*
X123163D01*
X205939D01*
X239404D02*
X276116D01*
X309581D02*
X319719D01*
D27*
X135771Y368664D02*
Y373518D01*
X134558Y374731D01*
X132131D01*
X130917Y373518D01*
Y368664D01*
X132131Y367450D01*
X134558D01*
X133344Y369877D02*
X135771Y367450D01*
X134558D02*
X135771Y368664D01*
X138198Y374731D02*
Y368664D01*
X139412Y367450D01*
X141839D01*
X143052Y368664D01*
Y374731D01*
X150334D02*
X145480D01*
Y367450D01*
X150334D01*
X145480Y371091D02*
X147906D01*
X152761Y374731D02*
X157615D01*
X155188D01*
Y367450D01*
X160042Y374731D02*
X164896D01*
Y373518D01*
X160042Y368664D01*
Y367450D01*
X164896D01*
X167323D02*
Y372305D01*
X169750Y374731D01*
X172177Y372305D01*
Y367450D01*
Y371091D01*
X167323D01*
X174604Y374731D02*
Y367450D01*
X179458D01*
X181885Y371091D02*
X186739D01*
X189166Y367450D02*
X191593D01*
X190380D01*
Y374731D01*
X189166Y373518D01*
D28*
X336629Y126500D02*
X344500D01*
X340564D01*
Y131748D01*
X336629D01*
X344500D01*
X336629Y139619D02*
Y134371D01*
X344500D01*
Y139619D01*
X340564Y134371D02*
Y136995D01*
X337940Y147491D02*
X336629Y146179D01*
Y143555D01*
X337940Y142243D01*
X343188D01*
X344500Y143555D01*
Y146179D01*
X343188Y147491D01*
X336629Y150114D02*
X344500D01*
X340564D01*
Y155362D01*
X336629D01*
X344500D01*
X336629Y161922D02*
Y159298D01*
X337940Y157986D01*
X343188D01*
X344500Y159298D01*
Y161922D01*
X343188Y163234D01*
X337940D01*
X336629Y161922D01*
Y178977D02*
Y173729D01*
X344500D01*
Y178977D01*
X340564Y173729D02*
Y176353D01*
X344500Y181600D02*
X336629D01*
X344500Y186848D01*
X336629D01*
X337940Y202591D02*
X336629Y201279D01*
Y198655D01*
X337940Y197343D01*
X343188D01*
X344500Y198655D01*
Y201279D01*
X343188Y202591D01*
X340564D01*
Y199967D01*
X336629Y205215D02*
X343188D01*
X344500Y206527D01*
Y209151D01*
X343188Y210462D01*
X336629D01*
X344500Y213086D02*
X339252D01*
X336629Y215710D01*
X339252Y218334D01*
X344500D01*
X340564D01*
Y213086D01*
X336629Y220958D02*
Y226205D01*
Y223582D01*
X344500D01*
X336629Y234077D02*
Y228829D01*
X344500D01*
Y234077D01*
X340564Y228829D02*
Y231453D01*
X344500Y236701D02*
X336629D01*
X339252Y239324D01*
X336629Y241948D01*
X344500D01*
Y244572D02*
X339252D01*
X336629Y247196D01*
X339252Y249820D01*
X344500D01*
X340564D01*
Y244572D01*
X336629Y252444D02*
X344500D01*
Y257691D01*
Y260315D02*
X339252D01*
X336629Y262939D01*
X339252Y265563D01*
X344500D01*
X340564D01*
Y260315D01*
M02*
