G04 Layer_Physical_Order=2*
G04 Layer_Color=16711680*
%FSLAX25Y25*%
%MOIN*%
G70*
G01*
G75*
%ADD16C,0.01000*%
%ADD17C,0.01500*%
%ADD18C,0.45000*%
%ADD19C,0.09842*%
%ADD20C,0.02000*%
%ADD21R,0.08268X0.11811*%
%ADD22R,0.03150X0.06299*%
%ADD23C,0.03000*%
%ADD24C,0.10000*%
G36*
X83500Y173000D02*
X6000D01*
X5462Y172462D01*
X5000Y172653D01*
Y187500D01*
X83500D01*
Y173000D01*
D02*
G37*
G36*
X291417Y300950D02*
X291417Y64450D01*
X58917Y64450D01*
Y110450D01*
X277417Y110450D01*
Y254450D01*
X246417D01*
Y199450D01*
X162417D01*
Y210450D01*
X234917D01*
Y254450D01*
X58917D01*
Y300950D01*
X291417Y300950D01*
D02*
G37*
G36*
X309917Y356450D02*
X57500D01*
Y386450D01*
X309917D01*
Y356450D01*
D02*
G37*
G36*
X160500Y183500D02*
X275000D01*
Y177500D01*
X155500D01*
Y207500D01*
X-3500D01*
Y191000D01*
X-11000D01*
Y212000D01*
X160500D01*
Y183500D01*
D02*
G37*
D16*
X121917Y182450D02*
X121957Y182490D01*
D17*
Y202561D01*
X126878Y172490D02*
Y202561D01*
X117035Y168069D02*
Y202561D01*
Y168069D02*
X119653Y165450D01*
X129417Y169950D02*
X135417D01*
X126878Y172490D02*
X129417Y169950D01*
X119653Y165450D02*
X144450D01*
X146378Y167378D01*
Y175000D01*
D18*
X82117Y87500D02*
D03*
X161317D02*
D03*
X240517D02*
D03*
X82117Y277850D02*
D03*
X161317D02*
D03*
X240517D02*
D03*
D19*
X-18898Y294094D02*
D03*
Y99606D02*
D03*
X341732Y294094D02*
D03*
Y99606D02*
D03*
D20*
X71000Y370998D02*
D03*
X73500D02*
D03*
X76000Y371000D02*
D03*
X78500Y370998D02*
D03*
X81000D02*
D03*
X70500Y180529D02*
D03*
X73000D02*
D03*
X75500D02*
D03*
X78000Y180500D02*
D03*
X80500Y180529D02*
D03*
X193917Y370998D02*
D03*
X196417D02*
D03*
X198917D02*
D03*
X201417D02*
D03*
X203917D02*
D03*
X263417D02*
D03*
X265917D02*
D03*
X268417D02*
D03*
X270917D02*
D03*
X273417D02*
D03*
Y180532D02*
D03*
X270917D02*
D03*
X268417D02*
D03*
X265917D02*
D03*
X-7391Y195059D02*
D03*
Y197559D02*
D03*
Y200059D02*
D03*
Y205059D02*
D03*
X263417Y180532D02*
D03*
X260917D02*
D03*
X258417D02*
D03*
X255917D02*
D03*
X253417D02*
D03*
X250917D02*
D03*
X248417D02*
D03*
X245917D02*
D03*
X243417D02*
D03*
X240917D02*
D03*
X135417Y169950D02*
D03*
X121917Y182450D02*
D03*
X-7391Y202559D02*
D03*
X146378Y175000D02*
D03*
D21*
X173917Y191142D02*
D03*
X148917Y191142D02*
D03*
X106996Y191143D02*
D03*
X136917D02*
D03*
D22*
X158957Y202559D02*
D03*
X163878D02*
D03*
X126878Y202561D02*
D03*
X121957D02*
D03*
X117035D02*
D03*
D23*
X270917Y180532D02*
X273417D01*
X268417D02*
X270917D01*
X265917D02*
X268417D01*
X263417D02*
X265917D01*
X260917D02*
X263417D01*
X-7391Y192559D02*
Y195059D01*
Y197559D01*
Y200059D01*
Y202559D01*
Y205059D02*
Y207642D01*
Y202559D02*
Y205059D01*
X158957Y202559D02*
Y208411D01*
X156917Y210450D02*
X158957Y208411D01*
X-4583Y210450D02*
X156917D01*
X-7391Y207642D02*
X-4583Y210450D01*
X258417Y180532D02*
X260917D01*
X255917D02*
X258417D01*
X253417D02*
X255917D01*
X250917D02*
X253417D01*
X248417D02*
X250917D01*
X245917D02*
X248417D01*
X243417D02*
X245917D01*
X240917D02*
X243417D01*
X158957Y183111D02*
X161536Y180532D01*
X240917D01*
X240517Y206050D02*
Y277850D01*
X237026Y202559D02*
X240517Y206050D01*
X163878Y202559D02*
X237026D01*
X158957Y183111D02*
Y202559D01*
D24*
X283017Y94550D02*
Y268450D01*
X275967Y87500D02*
X283017Y94550D01*
X240517Y87500D02*
X275967D01*
X273617Y277850D02*
X283017Y268450D01*
X240517Y277850D02*
X273617D01*
X161317Y87500D02*
X240517D01*
X161317Y277850D02*
X240517D01*
X82117Y87500D02*
X161317D01*
X82117Y277850D02*
X161317D01*
M02*
