M48
;Layer_Color=9474304
;FILE_FORMAT=2:5
INCH,LZ
;TYPE=PLATED
T2F00S00C0.01000
T3F00S00C0.30000
;TYPE=NON_PLATED
T1F00S00C0.09843
%
T02
X0240917Y0180532
X0243417
X0245917
X0248417
X0250917
X0253417
X0255917
X0258417
X0260917
X0263417
X0265917
X0268417
X0270917
X0273417
X0146378Y0175
X0135417Y016995
X0121917Y018245
X00805Y0180529
X0078Y01805
X00755Y0180529
X0073
X00705
X-0007391Y0195059
Y0197559
Y0200059
Y0202559
Y0205059
X0263417Y0370998
X0265917
X0268417
X0270917
X0273417
X0203917
X0201417
X0198917
X0196417
X0193917
X0081
X00785
X0076Y0371
X00735Y0370998
X0071
T03
X0240517Y00875
X0161317
X0082117
Y027785
X0161317
X0240517
T01
X0341732Y0099606
X-0018898Y0099606
Y0294094
X0341732
M30
