G04 Layer_Physical_Order=1*
G04 Layer_Color=255*
%FSLAX25Y25*%
%MOIN*%
G70*
G01*
G75*
%ADD10R,0.31496X0.25590*%
%ADD11R,1.96850X0.27559*%
%ADD12R,1.96850X0.19685*%
%ADD13R,0.06299X0.03150*%
%ADD14R,0.06299X0.03937*%
%ADD15C,0.08000*%
%ADD16C,0.01500*%
%ADD17C,0.01000*%
%ADD18C,0.09842*%
%ADD19C,0.45000*%
%ADD20C,0.02000*%
G36*
X320000Y80201D02*
X267000Y27201D01*
X240277D01*
X240146Y27288D01*
X239756Y27366D01*
X208260D01*
X207870Y27288D01*
X207738Y27201D01*
X117541D01*
X117410Y27288D01*
X117020Y27366D01*
X85524D01*
X85133Y27288D01*
X85002Y27201D01*
X47364D01*
X47233Y27288D01*
X46843Y27366D01*
X15346D01*
X14956Y27288D01*
X14825Y27201D01*
X5500D01*
Y184201D01*
X320000D01*
Y80201D01*
D02*
G37*
G36*
X320500Y266201D02*
X267500Y213201D01*
X240954D01*
X240823Y213288D01*
X240433Y213366D01*
X208937D01*
X208547Y213288D01*
X208416Y213201D01*
X118218D01*
X118087Y213288D01*
X117697Y213366D01*
X86201D01*
X85811Y213288D01*
X85679Y213201D01*
X48041D01*
X47910Y213288D01*
X47520Y213366D01*
X16024D01*
X15633Y213288D01*
X15502Y213201D01*
X6000D01*
Y370201D01*
X320500D01*
Y266201D01*
D02*
G37*
D10*
X31772Y199551D02*
D03*
X101949D02*
D03*
X224685D02*
D03*
X31094Y13551D02*
D03*
X101272D02*
D03*
X224008D02*
D03*
D11*
X162770Y302083D02*
D03*
X162092Y116083D02*
D03*
D12*
X162667Y347583D02*
D03*
Y232783D02*
D03*
X142000Y160201D02*
D03*
X161990Y46783D02*
D03*
D13*
X149421Y201716D02*
D03*
Y197386D02*
D03*
X176976D02*
D03*
Y201716D02*
D03*
D14*
X133673Y199551D02*
D03*
X192724D02*
D03*
D15*
X194000Y13201D02*
X196500D01*
X131000D02*
X194000D01*
X196500D02*
X199000D01*
X201500D01*
X204000D01*
X206500D01*
X223657D01*
X224008Y13551D01*
X70224Y199551D02*
X72724D01*
X62724D02*
X70224D01*
X128500Y13201D02*
X131000D01*
X126000D02*
X128500D01*
X123500D02*
X126000D01*
X121000D02*
X123500D01*
X118500D02*
X121000D01*
X101622D02*
X118500D01*
X101272Y13551D02*
X101622Y13201D01*
X63224Y20136D02*
X94687D01*
X60724D02*
X63224D01*
X58224D02*
X60724D01*
X55724D02*
X58224D01*
X53224D02*
X55724D01*
X50724D02*
X53224D01*
X37679D02*
X50724D01*
X82724Y199551D02*
X101949D01*
X80224D02*
X82724D01*
X77724D02*
X80224D01*
X75224D02*
X77724D01*
X72724D02*
X75224D01*
X60224D02*
X62724D01*
X57724D02*
X60224D01*
X55224D02*
X57724D01*
X52724D02*
X55224D01*
X50224D02*
X52724D01*
X31772D02*
X50224D01*
D16*
X192724Y191136D02*
Y199551D01*
X149421Y191333D02*
Y197386D01*
X133673Y191187D02*
Y199551D01*
X149421Y197386D02*
X176976D01*
X149421D02*
Y201716D01*
X176976Y197386D02*
Y201716D01*
D17*
X94687Y20136D02*
X101272Y13551D01*
X31094D02*
X37679Y20136D01*
D18*
X267717Y10043D02*
D03*
X59055Y10043D02*
D03*
X279527Y380122D02*
D03*
X47244D02*
D03*
D19*
X242535Y105663D02*
D03*
X163323D02*
D03*
X84114D02*
D03*
X242533Y291663D02*
D03*
X163323D02*
D03*
X84112D02*
D03*
D20*
X217224Y209136D02*
D03*
Y206636D02*
D03*
Y204136D02*
D03*
X214724Y209136D02*
D03*
Y206636D02*
D03*
Y204136D02*
D03*
X212224Y209136D02*
D03*
Y204136D02*
D03*
X194000Y13201D02*
D03*
X196500D02*
D03*
X199000D02*
D03*
X201500D02*
D03*
X204000D02*
D03*
X206500D02*
D03*
X70224Y199551D02*
D03*
X131000Y13201D02*
D03*
X128500D02*
D03*
X126000D02*
D03*
X123500D02*
D03*
X121000D02*
D03*
X118500D02*
D03*
X212224Y206636D02*
D03*
X192724Y191136D02*
D03*
X149421Y191333D02*
D03*
X133673Y191187D02*
D03*
X63224Y20136D02*
D03*
X60724D02*
D03*
X58224D02*
D03*
X55724D02*
D03*
X53224D02*
D03*
X50724D02*
D03*
X82724Y199551D02*
D03*
X80224D02*
D03*
X77724D02*
D03*
X75224D02*
D03*
X72724D02*
D03*
X62724D02*
D03*
X60224D02*
D03*
X57724D02*
D03*
X55224D02*
D03*
X52724D02*
D03*
X50224D02*
D03*
M02*
