G04 Layer_Physical_Order=2*
G04 Layer_Color=16711680*
%FSLAX25Y25*%
%MOIN*%
G70*
G01*
G75*
%ADD16C,0.01500*%
%ADD17C,0.01000*%
%ADD18C,0.09842*%
%ADD19C,0.45000*%
%ADD20C,0.02000*%
%ADD21R,0.08268X0.11811*%
%ADD22R,0.03150X0.06299*%
G36*
X322224Y268636D02*
X322224D01*
Y128636D01*
X322224D01*
Y82636D01*
X61224D01*
Y128636D01*
X294224D01*
Y268636D01*
X250500D01*
Y203636D01*
X231224D01*
Y210136D01*
Y268636D01*
X61224D01*
Y314636D01*
X322224D01*
Y268636D01*
D02*
G37*
G36*
X229224Y203136D02*
X117500D01*
Y196136D01*
X39370D01*
X39370Y27136D01*
X239500Y27136D01*
X239500Y16136D01*
Y2701D01*
X84000D01*
Y15847D01*
X84289Y16136D01*
X16224D01*
X16224Y27136D01*
X16224D01*
X16224Y197136D01*
X16224D01*
Y210136D01*
X229224D01*
Y203136D01*
D02*
G37*
D16*
X192724Y191136D02*
Y194136D01*
X190724Y196136D02*
X192724Y194136D01*
X129224Y196136D02*
X190724D01*
X127224Y194136D02*
X129224Y196136D01*
X127224Y179136D02*
Y194136D01*
X129224Y177136D02*
X272224D01*
X127224Y179136D02*
X129224Y177136D01*
X264539Y183951D02*
Y206760D01*
X262724Y182136D02*
X264539Y183951D01*
X151224Y182136D02*
X262724D01*
X269461Y181372D02*
Y206760D01*
X267724Y179636D02*
X269461Y181372D01*
X135724Y179636D02*
X267724D01*
X133673Y181687D02*
X135724Y179636D01*
X274382Y179293D02*
Y206760D01*
X272224Y177136D02*
X274382Y179293D01*
X149421Y183939D02*
X151224Y182136D01*
X149421Y183939D02*
Y191333D01*
X133673Y181687D02*
Y191187D01*
D17*
X242533Y209445D02*
Y291663D01*
X239848Y206760D02*
X242533Y209445D01*
X232846Y206760D02*
X239848D01*
D18*
X267717Y10043D02*
D03*
X59055Y10043D02*
D03*
X279527Y380122D02*
D03*
X47244D02*
D03*
D19*
X242535Y105663D02*
D03*
X163323D02*
D03*
X84114D02*
D03*
X242533Y291663D02*
D03*
X163323D02*
D03*
X84112D02*
D03*
D20*
X217224Y209136D02*
D03*
Y206636D02*
D03*
Y204136D02*
D03*
X214724Y209136D02*
D03*
Y206636D02*
D03*
Y204136D02*
D03*
X212224Y209136D02*
D03*
Y204136D02*
D03*
X194000Y13201D02*
D03*
X196500D02*
D03*
X199000D02*
D03*
X201500D02*
D03*
X204000D02*
D03*
X206500D02*
D03*
X70224Y199551D02*
D03*
X131000Y13201D02*
D03*
X128500D02*
D03*
X126000D02*
D03*
X123500D02*
D03*
X121000D02*
D03*
X118500D02*
D03*
X212224Y206636D02*
D03*
X192724Y191136D02*
D03*
X149421Y191333D02*
D03*
X133673Y191187D02*
D03*
X63224Y20136D02*
D03*
X60724D02*
D03*
X58224D02*
D03*
X55724D02*
D03*
X53224D02*
D03*
X50724D02*
D03*
X82724Y199551D02*
D03*
X80224D02*
D03*
X77724D02*
D03*
X75224D02*
D03*
X72724D02*
D03*
X62724D02*
D03*
X60224D02*
D03*
X57724D02*
D03*
X55224D02*
D03*
X52724D02*
D03*
X50224D02*
D03*
D21*
X242886Y195343D02*
D03*
X217886Y195343D02*
D03*
X254500Y195343D02*
D03*
X284421D02*
D03*
D22*
X227925Y206760D02*
D03*
X232846D02*
D03*
X274382D02*
D03*
X269461D02*
D03*
X264539D02*
D03*
M02*
