G04*
G04 #@! TF.GenerationSoftware,Altium Limited,Altium Designer,18.1.7 (191)*
G04*
G04 Layer_Physical_Order=2*
G04 Layer_Color=16711680*
%FSLAX25Y25*%
%MOIN*%
G70*
G01*
G75*
%ADD10C,0.01000*%
%ADD26C,0.01500*%
%ADD27C,0.45000*%
%ADD28C,0.09843*%
%ADD29C,0.02000*%
%ADD30R,0.08268X0.11811*%
%ADD31R,0.03150X0.06299*%
G36*
X229224Y202935D02*
X117500D01*
Y195935D01*
X68272D01*
Y109000D01*
X39370D01*
X39370Y26935D01*
X239500Y26935D01*
X239500Y15935D01*
Y2500D01*
X84000D01*
Y15646D01*
X84289Y15935D01*
X16224D01*
X16224Y26935D01*
X16224D01*
X16224Y196935D01*
X16224D01*
Y209935D01*
X229224D01*
Y202935D01*
D02*
G37*
G36*
X322224Y268435D02*
X322224D01*
Y127935D01*
Y82435D01*
X70272D01*
Y115000D01*
X73272D01*
Y92000D01*
X139272D01*
Y128435D01*
X294224D01*
Y268435D01*
X250500D01*
Y203435D01*
X231224D01*
Y209935D01*
Y268435D01*
X61224D01*
Y314435D01*
X322224D01*
Y268435D01*
D02*
G37*
D10*
X71732Y87039D02*
Y111917D01*
Y87039D02*
X73732Y85039D01*
X142900D01*
X163323Y105463D01*
X66811Y111917D02*
Y199039D01*
X232846Y206559D02*
X239848D01*
X242533Y209244D01*
Y291463D01*
D26*
X192724Y142453D02*
Y190935D01*
X189272Y139000D02*
X192724Y142453D01*
X116272Y139000D02*
X189272D01*
X146921Y192500D02*
X149421Y190000D01*
X105272Y192500D02*
X146921D01*
X103350Y190579D02*
X105272Y192500D01*
X103350Y111917D02*
Y190579D01*
X133673Y147402D02*
Y188902D01*
X130772Y144500D02*
X133673Y147402D01*
X110772Y144500D02*
X130772D01*
X108272Y142000D02*
X110772Y144500D01*
X108272Y111917D02*
Y142000D01*
X113193Y135921D02*
X116272Y139000D01*
X113193Y111917D02*
Y135921D01*
D27*
X242531Y105461D02*
D03*
X84112Y291463D02*
D03*
X163323D02*
D03*
X242533D02*
D03*
X163323Y105463D02*
D03*
D28*
X47244Y379921D02*
D03*
X279527D02*
D03*
X59055Y9843D02*
D03*
X267717Y9843D02*
D03*
D29*
X149421Y190000D02*
D03*
X133673Y188902D02*
D03*
X50224Y199350D02*
D03*
X52724D02*
D03*
X55224D02*
D03*
X57724D02*
D03*
X60224D02*
D03*
X62724D02*
D03*
X72724D02*
D03*
X75224D02*
D03*
X77724D02*
D03*
X80224D02*
D03*
X82724D02*
D03*
X50724Y19935D02*
D03*
X53224D02*
D03*
X55724D02*
D03*
X58224D02*
D03*
X60724D02*
D03*
X63224D02*
D03*
X192724Y190935D02*
D03*
X212224Y206435D02*
D03*
X118500Y13000D02*
D03*
X121000D02*
D03*
X123500D02*
D03*
X126000D02*
D03*
X128500D02*
D03*
X131000D02*
D03*
X70224Y199350D02*
D03*
X206500Y13000D02*
D03*
X204000D02*
D03*
X201500D02*
D03*
X199000D02*
D03*
X196500D02*
D03*
X194000D02*
D03*
X212224Y203935D02*
D03*
Y208935D02*
D03*
X214724Y203935D02*
D03*
Y206435D02*
D03*
Y208935D02*
D03*
X217224Y203935D02*
D03*
Y206435D02*
D03*
Y208935D02*
D03*
D30*
X123232Y100500D02*
D03*
X93311D02*
D03*
X56772Y100500D02*
D03*
X81772Y100500D02*
D03*
D31*
X103350Y111917D02*
D03*
X108272D02*
D03*
X113193D02*
D03*
X71732Y111917D02*
D03*
X66811D02*
D03*
M02*
