G04*
G04 #@! TF.GenerationSoftware,Altium Limited,Altium Designer,18.1.7 (191)*
G04*
G04 Layer_Color=65535*
%FSLAX25Y25*%
%MOIN*%
G70*
G01*
G75*
%ADD10C,0.01000*%
%ADD11C,0.00591*%
%ADD12C,0.01181*%
D10*
X54724Y379921D02*
G03*
X54724Y379921I-7480J0D01*
G01*
X4902Y211935D02*
X10299D01*
X4902D02*
Y370035D01*
X4224Y25935D02*
Y184035D01*
Y25935D02*
X9622D01*
D11*
X54724Y379921D02*
G03*
X54724Y379921I-7480J0D01*
G01*
X287008D02*
G03*
X287008Y379921I-7480J0D01*
G01*
X66535Y9843D02*
G03*
X66535Y9843I-7480J0D01*
G01*
X275197Y9843D02*
G03*
X275197Y9843I-7480J0D01*
G01*
X196760Y194724D02*
Y203976D01*
X172941Y194724D02*
X196760D01*
X172941Y203976D02*
X196760D01*
X172941Y194724D02*
Y203976D01*
X129638Y194724D02*
Y203976D01*
X153457D01*
X129638Y194724D02*
X153457D01*
Y203976D01*
D12*
X4902Y370990D02*
X259828D01*
X4902Y265935D02*
X58878Y211956D01*
X4902Y211935D02*
X15039D01*
X48504D02*
X85216D01*
X118681D02*
X201457D01*
X207953D01*
X241417D02*
X268287D01*
X321746Y265394D01*
Y370990D01*
X4902Y211935D02*
Y370990D01*
X259828D02*
X321746D01*
X259151Y184990D02*
X321069D01*
X4224Y25935D02*
Y184990D01*
X321069Y79394D02*
Y184990D01*
X267610Y25935D02*
X321069Y79394D01*
X240740Y25935D02*
X267610D01*
X200780D02*
X207276D01*
X118004D02*
X200780D01*
X47827D02*
X84539D01*
X4224D02*
X14362D01*
X4224Y79935D02*
X58201Y25956D01*
X4224Y184990D02*
X259151D01*
M02*
