G04*
G04 #@! TF.GenerationSoftware,Altium Limited,Altium Designer,18.1.7 (191)*
G04*
G04 Layer_Color=32896*
%FSLAX25Y25*%
%MOIN*%
G70*
G01*
G75*
%ADD10C,0.01000*%
%ADD11C,0.00591*%
%ADD34C,0.00800*%
%ADD35C,0.01575*%
%ADD36C,0.02000*%
D10*
X53000Y130500D02*
X56000D01*
X54500Y127500D02*
Y131500D01*
X135272Y206500D02*
X136772D01*
D11*
X105772Y252000D02*
X106272Y251500D01*
X173272Y252000D02*
X173772Y251500D01*
X223272Y146500D02*
X225272D01*
X88291Y107291D02*
X96559D01*
Y110638D01*
X100693D01*
Y116150D01*
X115752D01*
Y110638D02*
Y116150D01*
Y110638D02*
X119984D01*
Y107291D02*
Y110638D01*
Y107291D02*
X128252D01*
Y93709D02*
Y107291D01*
X88291Y93709D02*
Y107291D01*
Y93709D02*
X128252D01*
X51752D02*
X86791D01*
X51752D02*
Y107291D01*
X86791D02*
X86791Y93709D01*
X78524Y107291D02*
X86791D01*
X78524D02*
Y110638D01*
X74193D02*
X78524D01*
X74193Y115953D02*
X74193Y110638D01*
X64350Y115953D02*
X74193Y115953D01*
X64350Y110638D02*
Y115953D01*
X60020Y110638D02*
X64350D01*
X60020Y107291D02*
Y110638D01*
X51752Y107291D02*
X60020D01*
X49628Y131436D02*
Y127500D01*
X47661D01*
X47005Y128156D01*
Y130780D01*
X47661Y131436D01*
X49628D01*
X45693Y127500D02*
Y128156D01*
X45037D01*
Y127500D01*
X45693D01*
X35853Y131436D02*
X38477D01*
Y127500D01*
X35853D01*
X38477Y129468D02*
X37165D01*
X34541Y127500D02*
X32574D01*
X31918Y128156D01*
X32574Y128812D01*
X33886D01*
X34541Y129468D01*
X33886Y130124D01*
X31918D01*
X27982D02*
X29950D01*
X30606Y129468D01*
Y128156D01*
X29950Y127500D01*
X27982D01*
X26014D02*
X24702D01*
X24046Y128156D01*
Y129468D01*
X24702Y130124D01*
X26014D01*
X26670Y129468D01*
Y128156D01*
X26014Y127500D01*
X22734Y131436D02*
Y127500D01*
X20766D01*
X20110Y128156D01*
Y128812D01*
Y129468D01*
X20766Y130124D01*
X22734D01*
X18143D02*
X16831D01*
X16175Y129468D01*
Y127500D01*
X18143D01*
X18799Y128156D01*
X18143Y128812D01*
X16175D01*
X14863Y130124D02*
Y127500D01*
Y128812D01*
X14207Y129468D01*
X13551Y130124D01*
X12895D01*
X53148Y138936D02*
X55772D01*
Y135000D01*
X53148D01*
X55772Y136968D02*
X54460D01*
X51836Y135000D02*
Y135656D01*
X51180D01*
Y135000D01*
X51836D01*
X41996Y138280D02*
X42652Y138936D01*
X43964D01*
X44620Y138280D01*
Y135656D01*
X43964Y135000D01*
X42652D01*
X41996Y135656D01*
X40029Y137624D02*
X38717D01*
X38061Y136968D01*
Y135000D01*
X40029D01*
X40685Y135656D01*
X40029Y136312D01*
X38061D01*
X36749Y135000D02*
X34781D01*
X34125Y135656D01*
X34781Y136312D01*
X36093D01*
X36749Y136968D01*
X36093Y137624D01*
X34125D01*
X32157Y138280D02*
Y137624D01*
X32813D01*
X31501D01*
X32157D01*
Y135656D01*
X31501Y135000D01*
X29533D02*
X28221D01*
X28877D01*
Y137624D01*
X29533D01*
X26254Y135000D02*
X24942D01*
X25598D01*
Y138936D01*
X26254D01*
X22974Y135000D02*
X21662D01*
X22318D01*
Y138936D01*
X22974D01*
X19038Y135000D02*
X17726D01*
X17070Y135656D01*
Y136968D01*
X17726Y137624D01*
X19038D01*
X19694Y136968D01*
Y135656D01*
X19038Y135000D01*
X53148Y145780D02*
X53804Y146436D01*
X55116D01*
X55772Y145780D01*
Y143156D01*
X55116Y142500D01*
X53804D01*
X53148Y143156D01*
Y144468D01*
X54460D01*
X51836Y142500D02*
Y143156D01*
X51180D01*
Y142500D01*
X51836D01*
X44620D02*
Y146436D01*
X42652D01*
X41996Y145780D01*
Y144468D01*
X42652Y143812D01*
X44620D01*
X40685Y142500D02*
X39373D01*
X40029D01*
Y145124D01*
X40685D01*
X37405Y142500D02*
Y145124D01*
X35437D01*
X34781Y144468D01*
Y142500D01*
X31501D02*
X32813D01*
X33469Y143156D01*
Y144468D01*
X32813Y145124D01*
X31501D01*
X30845Y144468D01*
Y143812D01*
X33469D01*
X26910Y146436D02*
Y142500D01*
X28877D01*
X29533Y143156D01*
Y144468D01*
X28877Y145124D01*
X26910D01*
X24942D02*
X23630D01*
X22974Y144468D01*
Y142500D01*
X24942D01*
X25598Y143156D01*
X24942Y143812D01*
X22974D01*
X53148Y153280D02*
X53804Y153936D01*
X55116D01*
X55772Y153280D01*
Y150656D01*
X55116Y150000D01*
X53804D01*
X53148Y150656D01*
X51836Y150000D02*
Y150656D01*
X51180D01*
Y150000D01*
X51836D01*
X44620D02*
Y153936D01*
X43308Y152624D01*
X41997Y153936D01*
Y150000D01*
X40029D02*
X38717D01*
X38061Y150656D01*
Y151968D01*
X38717Y152624D01*
X40029D01*
X40685Y151968D01*
Y150656D01*
X40029Y150000D01*
X36749Y152624D02*
Y150000D01*
Y151312D01*
X36093Y151968D01*
X35437Y152624D01*
X34781D01*
X32157D02*
X30845D01*
X30189Y151968D01*
Y150000D01*
X32157D01*
X32813Y150656D01*
X32157Y151312D01*
X30189D01*
X28877Y150000D02*
X27566D01*
X28221D01*
Y153936D01*
X28877D01*
X23630Y150000D02*
X24942D01*
X25598Y150656D01*
Y151968D01*
X24942Y152624D01*
X23630D01*
X22974Y151968D01*
Y151312D01*
X25598D01*
X21662Y150000D02*
X19694D01*
X19038Y150656D01*
X19694Y151312D01*
X21006D01*
X21662Y151968D01*
X21006Y152624D01*
X19038D01*
X315272Y202500D02*
Y205124D01*
X313960Y206436D01*
X312648Y205124D01*
Y202500D01*
Y204468D01*
X315272D01*
X311336Y202500D02*
Y203156D01*
X310680D01*
Y202500D01*
X311336D01*
X304120D02*
Y206436D01*
X302152D01*
X301497Y205780D01*
Y204468D01*
X302152Y203812D01*
X304120D01*
X302808D02*
X301497Y202500D01*
X298217D02*
X299529D01*
X300185Y203156D01*
Y204468D01*
X299529Y205124D01*
X298217D01*
X297561Y204468D01*
Y203812D01*
X300185D01*
X293625Y205124D02*
X295593D01*
X296249Y204468D01*
Y203156D01*
X295593Y202500D01*
X293625D01*
X291657Y205124D02*
X290345D01*
X289689Y204468D01*
Y202500D01*
X291657D01*
X292313Y203156D01*
X291657Y203812D01*
X289689D01*
X288377Y202500D02*
Y205124D01*
X286409D01*
X285754Y204468D01*
Y202500D01*
X281818Y205124D02*
X283786D01*
X284442Y204468D01*
Y203156D01*
X283786Y202500D01*
X281818D01*
X279850D02*
X278538D01*
X277882Y203156D01*
Y204468D01*
X278538Y205124D01*
X279850D01*
X280506Y204468D01*
Y203156D01*
X279850Y202500D01*
X276570Y201188D02*
X275914D01*
X275258Y201844D01*
Y205124D01*
X315272Y210000D02*
Y212624D01*
X313960Y213936D01*
X312648Y212624D01*
Y210000D01*
Y211968D01*
X315272D01*
X311336Y210000D02*
Y210656D01*
X310680D01*
Y210000D01*
X311336D01*
X304120D02*
Y213936D01*
X302808Y212624D01*
X301497Y213936D01*
Y210000D01*
X298217D02*
X299529D01*
X300185Y210656D01*
Y211968D01*
X299529Y212624D01*
X298217D01*
X297561Y211968D01*
Y211312D01*
X300185D01*
X296249Y210000D02*
Y212624D01*
X294281D01*
X293625Y211968D01*
Y210000D01*
X290345D02*
X291657D01*
X292313Y210656D01*
Y211968D01*
X291657Y212624D01*
X290345D01*
X289689Y211968D01*
Y211312D01*
X292313D01*
X288377Y210000D02*
Y212624D01*
X286409D01*
X285754Y211968D01*
Y210000D01*
X281818Y213936D02*
Y210000D01*
X283786D01*
X284442Y210656D01*
Y211968D01*
X283786Y212624D01*
X281818D01*
X278538Y210000D02*
X279850D01*
X280506Y210656D01*
Y211968D01*
X279850Y212624D01*
X278538D01*
X277882Y211968D01*
Y211312D01*
X280506D01*
X276570Y212624D02*
X273946D01*
X276570Y210000D01*
X273946D01*
X315272Y217500D02*
Y220124D01*
X313960Y221436D01*
X312648Y220124D01*
Y217500D01*
Y219468D01*
X315272D01*
X311336Y217500D02*
Y218156D01*
X310680D01*
Y217500D01*
X311336D01*
X304120Y221436D02*
X302808D01*
X303464D01*
Y217500D01*
X304120D01*
X302808D01*
X300841Y220124D02*
X298217Y217500D01*
X299529Y218812D01*
X298217Y220124D01*
X300841Y217500D01*
X296249Y220780D02*
Y220124D01*
X296905D01*
X295593D01*
X296249D01*
Y218156D01*
X295593Y217500D01*
X291657D02*
X292969D01*
X293625Y218156D01*
Y219468D01*
X292969Y220124D01*
X291657D01*
X291001Y219468D01*
Y218812D01*
X293625D01*
X287066Y220124D02*
X289033D01*
X289689Y219468D01*
Y218156D01*
X289033Y217500D01*
X287066D01*
X285098D02*
X283786D01*
X283130Y218156D01*
Y219468D01*
X283786Y220124D01*
X285098D01*
X285754Y219468D01*
Y218156D01*
X285098Y217500D01*
X279194Y220124D02*
X281162D01*
X281818Y219468D01*
Y218156D01*
X281162Y217500D01*
X279194D01*
X315272Y225000D02*
Y227624D01*
X313960Y228936D01*
X312648Y227624D01*
Y225000D01*
Y226968D01*
X315272D01*
X311336Y225000D02*
Y225656D01*
X310680D01*
Y225000D01*
X311336D01*
X301497Y228280D02*
X302152Y228936D01*
X303464D01*
X304120Y228280D01*
Y225656D01*
X303464Y225000D01*
X302152D01*
X301497Y225656D01*
Y226968D01*
X302808D01*
X299529Y227624D02*
X298217D01*
X297561Y226968D01*
Y225000D01*
X299529D01*
X300185Y225656D01*
X299529Y226312D01*
X297561D01*
X296249Y227624D02*
Y225000D01*
Y226312D01*
X295593Y226968D01*
X294937Y227624D01*
X294281D01*
X289689D02*
X291657D01*
X292313Y226968D01*
Y225656D01*
X291657Y225000D01*
X289689D01*
X288377D02*
X287066D01*
X287721D01*
Y227624D01*
X288377D01*
X284442D02*
X283130D01*
X282474Y226968D01*
Y225000D01*
X284442D01*
X285098Y225656D01*
X284442Y226312D01*
X282474D01*
X315272Y232500D02*
Y235124D01*
X313960Y236436D01*
X312648Y235124D01*
Y232500D01*
Y234468D01*
X315272D01*
X311336Y232500D02*
Y233156D01*
X310680D01*
Y232500D01*
X311336D01*
X304120D02*
Y235124D01*
X302808Y236436D01*
X301497Y235124D01*
Y232500D01*
Y234468D01*
X304120D01*
X298873Y231188D02*
X298217D01*
X297561Y231844D01*
Y235124D01*
X299529D01*
X300185Y234468D01*
Y233156D01*
X299529Y232500D01*
X297561D01*
X296249Y235124D02*
Y233156D01*
X295593Y232500D01*
X293625D01*
Y235124D01*
X292313Y232500D02*
X291001D01*
X291657D01*
Y235124D01*
X292313D01*
X289033Y232500D02*
X287721D01*
X288377D01*
Y236436D01*
X289033D01*
X285098Y235124D02*
X283786D01*
X283130Y234468D01*
Y232500D01*
X285098D01*
X285754Y233156D01*
X285098Y233812D01*
X283130D01*
X281818Y235124D02*
Y232500D01*
Y233812D01*
X281162Y234468D01*
X280506Y235124D01*
X279850D01*
X312648Y168280D02*
X313304Y168936D01*
X314616D01*
X315272Y168280D01*
Y165656D01*
X314616Y165000D01*
X313304D01*
X312648Y165656D01*
X311336Y165000D02*
Y165656D01*
X310680D01*
Y165000D01*
X311336D01*
X304120D02*
Y168936D01*
X302808Y167624D01*
X301497Y168936D01*
Y165000D01*
X299529Y167624D02*
X298217D01*
X297561Y166968D01*
Y165000D01*
X299529D01*
X300185Y165656D01*
X299529Y166312D01*
X297561D01*
X296249Y167624D02*
Y165000D01*
Y166312D01*
X295593Y166968D01*
X294937Y167624D01*
X294281D01*
X292313Y165000D02*
X290345D01*
X289689Y165656D01*
X290345Y166312D01*
X291657D01*
X292313Y166968D01*
X291657Y167624D01*
X289689D01*
X288377Y165000D02*
X287066D01*
X287721D01*
Y167624D01*
X288377D01*
X282474D02*
X284442D01*
X285098Y166968D01*
Y165656D01*
X284442Y165000D01*
X282474D01*
X280506D02*
X279194D01*
X278538Y165656D01*
Y166968D01*
X279194Y167624D01*
X280506D01*
X281162Y166968D01*
Y165656D01*
X280506Y165000D01*
X277226Y167624D02*
X275914Y165000D01*
X274602Y167624D01*
X271323Y165000D02*
X272635D01*
X273290Y165656D01*
Y166968D01*
X272635Y167624D01*
X271323D01*
X270667Y166968D01*
Y166312D01*
X273290D01*
X268699Y168280D02*
Y167624D01*
X269355D01*
X268043D01*
X268699D01*
Y165656D01*
X268043Y165000D01*
X264107D02*
X265419D01*
X266075Y165656D01*
Y166968D01*
X265419Y167624D01*
X264107D01*
X263451Y166968D01*
Y166312D01*
X266075D01*
X262139Y167624D02*
Y165000D01*
Y166312D01*
X261483Y166968D01*
X260827Y167624D01*
X260171D01*
X256236Y165000D02*
X257547D01*
X258203Y165656D01*
Y166968D01*
X257547Y167624D01*
X256236D01*
X255580Y166968D01*
Y166312D01*
X258203D01*
X312648Y175780D02*
X313304Y176436D01*
X314616D01*
X315272Y175780D01*
Y173156D01*
X314616Y172500D01*
X313304D01*
X312648Y173156D01*
X311336Y172500D02*
Y173156D01*
X310680D01*
Y172500D01*
X311336D01*
X304120Y176436D02*
Y172500D01*
X301497D01*
X300185Y175124D02*
Y173156D01*
X299529Y172500D01*
X297561D01*
Y175124D01*
X295593Y175780D02*
Y175124D01*
X296249D01*
X294937D01*
X295593D01*
Y173156D01*
X294937Y172500D01*
X292313Y175780D02*
Y175124D01*
X292969D01*
X291657D01*
X292313D01*
Y173156D01*
X291657Y172500D01*
X289689D02*
Y175124D01*
X289033D01*
X288377Y174468D01*
Y172500D01*
Y174468D01*
X287721Y175124D01*
X287066Y174468D01*
Y172500D01*
X285098Y175124D02*
X283786D01*
X283130Y174468D01*
Y172500D01*
X285098D01*
X285754Y173156D01*
X285098Y173812D01*
X283130D01*
X281818Y172500D02*
Y175124D01*
X279850D01*
X279194Y174468D01*
Y172500D01*
X277882D02*
Y175124D01*
X275914D01*
X275258Y174468D01*
Y172500D01*
X312648Y183280D02*
X313304Y183936D01*
X314616D01*
X315272Y183280D01*
Y180656D01*
X314616Y180000D01*
X313304D01*
X312648Y180656D01*
X311336Y180000D02*
Y180656D01*
X310680D01*
Y180000D01*
X311336D01*
X301497Y183936D02*
X304120D01*
Y180000D01*
X301497D01*
X304120Y181968D02*
X302808D01*
X300185Y180000D02*
X298217D01*
X297561Y180656D01*
X298217Y181312D01*
X299529D01*
X300185Y181968D01*
X299529Y182624D01*
X297561D01*
X293625Y178688D02*
Y182624D01*
X295593D01*
X296249Y181968D01*
Y180656D01*
X295593Y180000D01*
X293625D01*
X292313Y182624D02*
Y180656D01*
X291657Y180000D01*
X289689D01*
Y182624D01*
X288377Y180000D02*
X287066D01*
X287721D01*
Y182624D01*
X288377D01*
X284442Y183280D02*
Y182624D01*
X285098D01*
X283786D01*
X284442D01*
Y180656D01*
X283786Y180000D01*
X315272Y191436D02*
Y187500D01*
X313304D01*
X312648Y188156D01*
Y188812D01*
X313304Y189468D01*
X315272D01*
X313304D01*
X312648Y190124D01*
Y190780D01*
X313304Y191436D01*
X315272D01*
X311336Y187500D02*
Y188156D01*
X310680D01*
Y187500D01*
X311336D01*
X301497Y190780D02*
X302152Y191436D01*
X303464D01*
X304120Y190780D01*
Y188156D01*
X303464Y187500D01*
X302152D01*
X301497Y188156D01*
Y189468D01*
X302808D01*
X299529Y190124D02*
X298217D01*
X297561Y189468D01*
Y187500D01*
X299529D01*
X300185Y188156D01*
X299529Y188812D01*
X297561D01*
X296249Y190124D02*
Y187500D01*
Y188812D01*
X295593Y189468D01*
X294937Y190124D01*
X294281D01*
X289689D02*
X291657D01*
X292313Y189468D01*
Y188156D01*
X291657Y187500D01*
X289689D01*
X288377D02*
X287066D01*
X287721D01*
Y190124D01*
X288377D01*
X284442D02*
X283130D01*
X282474Y189468D01*
Y187500D01*
X284442D01*
X285098Y188156D01*
X284442Y188812D01*
X282474D01*
X315272Y195000D02*
Y197624D01*
X313960Y198936D01*
X312648Y197624D01*
Y195000D01*
Y196968D01*
X315272D01*
X311336Y195000D02*
Y195656D01*
X310680D01*
Y195000D01*
X311336D01*
X304120Y198936D02*
Y196312D01*
X302808Y195000D01*
X301497Y196312D01*
Y198936D01*
X298217Y195000D02*
X299529D01*
X300185Y195656D01*
Y196968D01*
X299529Y197624D01*
X298217D01*
X297561Y196968D01*
Y196312D01*
X300185D01*
X296249Y195000D02*
X294937D01*
X295593D01*
Y198936D01*
X296249D01*
X292313Y197624D02*
X291001D01*
X290345Y196968D01*
Y195000D01*
X292313D01*
X292969Y195656D01*
X292313Y196312D01*
X290345D01*
X289033Y195000D02*
X287066D01*
X286410Y195656D01*
X287066Y196312D01*
X288377D01*
X289033Y196968D01*
X288377Y197624D01*
X286410D01*
X282474Y193688D02*
Y197624D01*
X284442D01*
X285098Y196968D01*
Y195656D01*
X284442Y195000D01*
X282474D01*
X281162Y197624D02*
Y195656D01*
X280506Y195000D01*
X278538D01*
Y197624D01*
X275258Y195000D02*
X276570D01*
X277226Y195656D01*
Y196968D01*
X276570Y197624D01*
X275258D01*
X274602Y196968D01*
Y196312D01*
X277226D01*
X273290Y197624D02*
X270667D01*
X273290Y195000D01*
X270667D01*
X312648Y160780D02*
X313304Y161436D01*
X314616D01*
X315272Y160780D01*
Y158156D01*
X314616Y157500D01*
X313304D01*
X312648Y158156D01*
X311336Y157500D02*
Y158156D01*
X310680D01*
Y157500D01*
X311336D01*
X301497Y160780D02*
X302152Y161436D01*
X303464D01*
X304120Y160780D01*
Y160124D01*
X303464Y159468D01*
X302152D01*
X301497Y158812D01*
Y158156D01*
X302152Y157500D01*
X303464D01*
X304120Y158156D01*
X299529Y160124D02*
X298217D01*
X297561Y159468D01*
Y157500D01*
X299529D01*
X300185Y158156D01*
X299529Y158812D01*
X297561D01*
X295593Y160124D02*
X294281D01*
X293625Y159468D01*
Y157500D01*
X295593D01*
X296249Y158156D01*
X295593Y158812D01*
X293625D01*
X292313Y160124D02*
X291001Y157500D01*
X289689Y160124D01*
X286409Y157500D02*
X287721D01*
X288377Y158156D01*
Y159468D01*
X287721Y160124D01*
X286409D01*
X285754Y159468D01*
Y158812D01*
X288377D01*
X281818Y161436D02*
Y157500D01*
X283786D01*
X284442Y158156D01*
Y159468D01*
X283786Y160124D01*
X281818D01*
X280506D02*
Y157500D01*
Y158812D01*
X279850Y159468D01*
X279194Y160124D01*
X278538D01*
X275914D02*
X274602D01*
X273946Y159468D01*
Y157500D01*
X275914D01*
X276570Y158156D01*
X275914Y158812D01*
X273946D01*
X315272Y153936D02*
Y150000D01*
X313304D01*
X312648Y150656D01*
Y153280D01*
X313304Y153936D01*
X315272D01*
X311336Y150000D02*
Y150656D01*
X310680D01*
Y150000D01*
X311336D01*
X304120D02*
Y152624D01*
X302808Y153936D01*
X301497Y152624D01*
Y150000D01*
Y151968D01*
X304120D01*
X300185Y150000D02*
X298873D01*
X299529D01*
Y153936D01*
X300185D01*
X296905Y152624D02*
X295593Y150000D01*
X294281Y152624D01*
X292313D02*
X291001D01*
X290345Y151968D01*
Y150000D01*
X292313D01*
X292969Y150656D01*
X292313Y151312D01*
X290345D01*
X289033Y152624D02*
Y150000D01*
Y151312D01*
X288377Y151968D01*
X287721Y152624D01*
X287066D01*
X283130Y150000D02*
X284442D01*
X285098Y150656D01*
Y151968D01*
X284442Y152624D01*
X283130D01*
X282474Y151968D01*
Y151312D01*
X285098D01*
X281162Y152624D02*
X278538D01*
X281162Y150000D01*
X278538D01*
X315272Y146436D02*
Y142500D01*
X313304D01*
X312648Y143156D01*
Y145780D01*
X313304Y146436D01*
X315272D01*
X311336Y142500D02*
Y143156D01*
X310680D01*
Y142500D01*
X311336D01*
X301497Y145780D02*
X302152Y146436D01*
X303464D01*
X304120Y145780D01*
Y143156D01*
X303464Y142500D01*
X302152D01*
X301497Y143156D01*
X299529Y145124D02*
X298217D01*
X297561Y144468D01*
Y142500D01*
X299529D01*
X300185Y143156D01*
X299529Y143812D01*
X297561D01*
X296249Y142500D02*
X294281D01*
X293625Y143156D01*
X294281Y143812D01*
X295593D01*
X296249Y144468D01*
X295593Y145124D01*
X293625D01*
X291657Y145780D02*
Y145124D01*
X292313D01*
X291001D01*
X291657D01*
Y143156D01*
X291001Y142500D01*
X289033Y145124D02*
Y142500D01*
Y143812D01*
X288377Y144468D01*
X287721Y145124D01*
X287066D01*
X284442Y142500D02*
X283130D01*
X282474Y143156D01*
Y144468D01*
X283130Y145124D01*
X284442D01*
X285098Y144468D01*
Y143156D01*
X284442Y142500D01*
X315272Y138936D02*
Y135000D01*
X313304D01*
X312648Y135656D01*
Y138280D01*
X313304Y138936D01*
X315272D01*
X311336Y135000D02*
Y135656D01*
X310680D01*
Y135000D01*
X311336D01*
X301497Y138280D02*
X302152Y138936D01*
X303464D01*
X304120Y138280D01*
Y135656D01*
X303464Y135000D01*
X302152D01*
X301497Y135656D01*
X300185Y138936D02*
Y135000D01*
Y136968D01*
X299529Y137624D01*
X298217D01*
X297561Y136968D01*
Y135000D01*
X296249D02*
X294937D01*
X295593D01*
Y137624D01*
X296249D01*
X290345D02*
X292313D01*
X292969Y136968D01*
Y135656D01*
X292313Y135000D01*
X290345D01*
X288377Y137624D02*
X287066D01*
X286410Y136968D01*
Y135000D01*
X288377D01*
X289033Y135656D01*
X288377Y136312D01*
X286410D01*
X285098Y135000D02*
X283130D01*
X282474Y135656D01*
X283130Y136312D01*
X284442D01*
X285098Y136968D01*
X284442Y137624D01*
X282474D01*
X252272Y236436D02*
Y232500D01*
X250304D01*
X249648Y233156D01*
Y235780D01*
X250304Y236436D01*
X252272D01*
X248336Y232500D02*
Y233156D01*
X247680D01*
Y232500D01*
X248336D01*
X238497Y235780D02*
X239153Y236436D01*
X240464D01*
X241120Y235780D01*
Y233156D01*
X240464Y232500D01*
X239153D01*
X238497Y233156D01*
Y234468D01*
X239809D01*
X236529Y235124D02*
X235217D01*
X234561Y234468D01*
Y232500D01*
X236529D01*
X237185Y233156D01*
X236529Y233812D01*
X234561D01*
X233249Y235124D02*
Y232500D01*
Y233812D01*
X232593Y234468D01*
X231937Y235124D01*
X231281D01*
X226689D02*
X228657D01*
X229313Y234468D01*
Y233156D01*
X228657Y232500D01*
X226689D01*
X225377D02*
X224065D01*
X224722D01*
Y235124D01*
X225377D01*
X221442D02*
X220130D01*
X219474Y234468D01*
Y232500D01*
X221442D01*
X222098Y233156D01*
X221442Y233812D01*
X219474D01*
X252272Y198936D02*
Y195000D01*
X250304D01*
X249648Y195656D01*
Y198280D01*
X250304Y198936D01*
X252272D01*
X248336Y195000D02*
Y195656D01*
X247680D01*
Y195000D01*
X248336D01*
X241120D02*
Y198936D01*
X239153D01*
X238497Y198280D01*
Y196968D01*
X239153Y196312D01*
X241120D01*
X239809D02*
X238497Y195000D01*
X236529D02*
X235217D01*
X234561Y195656D01*
Y196968D01*
X235217Y197624D01*
X236529D01*
X237185Y196968D01*
Y195656D01*
X236529Y195000D01*
X230625Y198936D02*
Y195000D01*
X232593D01*
X233249Y195656D01*
Y196968D01*
X232593Y197624D01*
X230625D01*
X229313D02*
Y195000D01*
Y196312D01*
X228657Y196968D01*
X228001Y197624D01*
X227345D01*
X225377Y195000D02*
X224065D01*
X224722D01*
Y197624D01*
X225377D01*
X220786Y193688D02*
X220130D01*
X219474Y194344D01*
Y197624D01*
X221442D01*
X222098Y196968D01*
Y195656D01*
X221442Y195000D01*
X219474D01*
X218162Y197624D02*
Y195656D01*
X217506Y195000D01*
X215538D01*
Y197624D01*
X212258Y195000D02*
X213570D01*
X214226Y195656D01*
Y196968D01*
X213570Y197624D01*
X212258D01*
X211602Y196968D01*
Y196312D01*
X214226D01*
X210290Y197624D02*
X207667D01*
X210290Y195000D01*
X207667D01*
X252272Y206436D02*
Y202500D01*
X250304D01*
X249648Y203156D01*
Y205780D01*
X250304Y206436D01*
X252272D01*
X248336Y202500D02*
Y203156D01*
X247680D01*
Y202500D01*
X248336D01*
X239153Y206436D02*
X240464D01*
X241120Y205780D01*
Y203156D01*
X240464Y202500D01*
X239153D01*
X238497Y203156D01*
Y205780D01*
X239153Y206436D01*
X237185Y205124D02*
Y202500D01*
Y203812D01*
X236529Y204468D01*
X235873Y205124D01*
X235217D01*
X232593Y202500D02*
X231281D01*
X230625Y203156D01*
Y204468D01*
X231281Y205124D01*
X232593D01*
X233249Y204468D01*
Y203156D01*
X232593Y202500D01*
X229313Y205124D02*
X226689D01*
X229313Y202500D01*
X226689D01*
X222754Y205124D02*
X224722D01*
X225377Y204468D01*
Y203156D01*
X224722Y202500D01*
X222754D01*
X220786D02*
X219474D01*
X218818Y203156D01*
Y204468D01*
X219474Y205124D01*
X220786D01*
X221442Y204468D01*
Y203156D01*
X220786Y202500D01*
X252272Y213936D02*
Y210000D01*
X250304D01*
X249648Y210656D01*
Y213280D01*
X250304Y213936D01*
X252272D01*
X248336Y210000D02*
Y210656D01*
X247680D01*
Y210000D01*
X248336D01*
X241120D02*
Y213936D01*
X239809Y212624D01*
X238497Y213936D01*
Y210000D01*
X236529Y212624D02*
X235217D01*
X234561Y211968D01*
Y210000D01*
X236529D01*
X237185Y210656D01*
X236529Y211312D01*
X234561D01*
X233249Y212624D02*
Y210000D01*
Y211312D01*
X232593Y211968D01*
X231937Y212624D01*
X231281D01*
X228657Y213280D02*
Y212624D01*
X229313D01*
X228001D01*
X228657D01*
Y210656D01*
X228001Y210000D01*
X226033D02*
X224722D01*
X225377D01*
Y212624D01*
X226033D01*
X222754Y210000D02*
Y212624D01*
X220786D01*
X220130Y211968D01*
Y210000D01*
X216850D02*
X218162D01*
X218818Y210656D01*
Y211968D01*
X218162Y212624D01*
X216850D01*
X216194Y211968D01*
Y211312D01*
X218818D01*
X214882Y212624D02*
X212258D01*
X214882Y210000D01*
X212258D01*
X252272Y221436D02*
Y217500D01*
X250304D01*
X249648Y218156D01*
Y220780D01*
X250304Y221436D01*
X252272D01*
X248336Y217500D02*
Y218156D01*
X247680D01*
Y217500D01*
X248336D01*
X238497Y220780D02*
X239153Y221436D01*
X240464D01*
X241120Y220780D01*
Y218156D01*
X240464Y217500D01*
X239153D01*
X238497Y218156D01*
Y219468D01*
X239809D01*
X236529Y217500D02*
X235217D01*
X234561Y218156D01*
Y219468D01*
X235217Y220124D01*
X236529D01*
X237185Y219468D01*
Y218156D01*
X236529Y217500D01*
X233249D02*
Y220124D01*
X231281D01*
X230625Y219468D01*
Y217500D01*
X229313Y220124D02*
X226689D01*
X229313Y217500D01*
X226689D01*
X224722Y220124D02*
X223410D01*
X222754Y219468D01*
Y217500D01*
X224722D01*
X225377Y218156D01*
X224722Y218812D01*
X222754D01*
X221442Y217500D02*
X220130D01*
X220786D01*
Y221436D01*
X221442D01*
X216194Y217500D02*
X217506D01*
X218162Y218156D01*
Y219468D01*
X217506Y220124D01*
X216194D01*
X215538Y219468D01*
Y218812D01*
X218162D01*
X214226Y220124D02*
X211602D01*
X214226Y217500D01*
X211602D01*
X252272Y228936D02*
Y225000D01*
X250304D01*
X249648Y225656D01*
Y228280D01*
X250304Y228936D01*
X252272D01*
X248336Y225000D02*
Y225656D01*
X247680D01*
Y225000D01*
X248336D01*
X238497Y228280D02*
X239153Y228936D01*
X240464D01*
X241120Y228280D01*
Y225656D01*
X240464Y225000D01*
X239153D01*
X238497Y225656D01*
Y226968D01*
X239809D01*
X235217Y225000D02*
X236529D01*
X237185Y225656D01*
Y226968D01*
X236529Y227624D01*
X235217D01*
X234561Y226968D01*
Y226312D01*
X237185D01*
X233249Y227624D02*
Y225000D01*
Y226312D01*
X232593Y226968D01*
X231937Y227624D01*
X231281D01*
X227345Y225000D02*
X228657D01*
X229313Y225656D01*
Y226968D01*
X228657Y227624D01*
X227345D01*
X226689Y226968D01*
Y226312D01*
X229313D01*
X225377Y225000D02*
Y227624D01*
X223410D01*
X222754Y226968D01*
Y225000D01*
X218818Y228936D02*
Y225000D01*
X220786D01*
X221442Y225656D01*
Y226968D01*
X220786Y227624D01*
X218818D01*
X216850D02*
X215538D01*
X214882Y226968D01*
Y225000D01*
X216850D01*
X217506Y225656D01*
X216850Y226312D01*
X214882D01*
X213570Y225000D02*
X211602D01*
X210946Y225656D01*
X211602Y226312D01*
X212914D01*
X213570Y226968D01*
X212914Y227624D01*
X210946D01*
X252272Y191436D02*
Y187500D01*
X250304D01*
X249648Y188156D01*
Y190780D01*
X250304Y191436D01*
X252272D01*
X248336Y187500D02*
Y188156D01*
X247680D01*
Y187500D01*
X248336D01*
X241120Y191436D02*
Y188812D01*
X239809Y187500D01*
X238497Y188812D01*
Y191436D01*
X235217Y187500D02*
X236529D01*
X237185Y188156D01*
Y189468D01*
X236529Y190124D01*
X235217D01*
X234561Y189468D01*
Y188812D01*
X237185D01*
X233249Y187500D02*
X231937D01*
X232593D01*
Y191436D01*
X233249D01*
X229313Y190124D02*
X228001D01*
X227345Y189468D01*
Y187500D01*
X229313D01*
X229969Y188156D01*
X229313Y188812D01*
X227345D01*
X249648Y183936D02*
X252272D01*
Y180000D01*
X249648D01*
X252272Y181968D02*
X250960D01*
X248336Y180000D02*
Y180656D01*
X247680D01*
Y180000D01*
X248336D01*
X241120D02*
Y182624D01*
X239809Y183936D01*
X238497Y182624D01*
Y180000D01*
Y181968D01*
X241120D01*
X237185Y180000D02*
X235873D01*
X236529D01*
Y183936D01*
X237185D01*
X233905Y182624D02*
X232593Y180000D01*
X231281Y182624D01*
X229313D02*
X228001D01*
X227345Y181968D01*
Y180000D01*
X229313D01*
X229969Y180656D01*
X229313Y181312D01*
X227345D01*
X226033Y182624D02*
Y180000D01*
Y181312D01*
X225377Y181968D01*
X224722Y182624D01*
X224065D01*
X220130Y180000D02*
X221442D01*
X222098Y180656D01*
Y181968D01*
X221442Y182624D01*
X220130D01*
X219474Y181968D01*
Y181312D01*
X222098D01*
X218162Y182624D02*
X215538D01*
X218162Y180000D01*
X215538D01*
X249648Y176436D02*
X252272D01*
Y172500D01*
X249648D01*
X252272Y174468D02*
X250960D01*
X248336Y172500D02*
Y173156D01*
X247680D01*
Y172500D01*
X248336D01*
X241120Y176436D02*
Y172500D01*
X238497D01*
X236529Y175124D02*
X235217D01*
X234561Y174468D01*
Y172500D01*
X236529D01*
X237185Y173156D01*
X236529Y173812D01*
X234561D01*
X232593Y172500D02*
Y175780D01*
Y174468D01*
X233249D01*
X231937D01*
X232593D01*
Y175780D01*
X231937Y176436D01*
X229969Y175124D02*
Y173156D01*
X229313Y172500D01*
X227345D01*
Y175124D01*
X224065Y172500D02*
X225377D01*
X226033Y173156D01*
Y174468D01*
X225377Y175124D01*
X224065D01*
X223410Y174468D01*
Y173812D01*
X226033D01*
X222098Y172500D02*
Y175124D01*
X220130D01*
X219474Y174468D01*
Y172500D01*
X217506Y175780D02*
Y175124D01*
X218162D01*
X216850D01*
X217506D01*
Y173156D01*
X216850Y172500D01*
X212914D02*
X214226D01*
X214882Y173156D01*
Y174468D01*
X214226Y175124D01*
X212914D01*
X212258Y174468D01*
Y173812D01*
X214882D01*
X249648Y168936D02*
X252272D01*
Y165000D01*
X249648D01*
X252272Y166968D02*
X250960D01*
X248336Y165000D02*
Y165656D01*
X247680D01*
Y165000D01*
X248336D01*
X241120D02*
Y168936D01*
X239809Y167624D01*
X238497Y168936D01*
Y165000D01*
X237185D02*
X235873D01*
X236529D01*
Y167624D01*
X237185D01*
X233905D02*
Y165000D01*
Y166312D01*
X233249Y166968D01*
X232593Y167624D01*
X231937D01*
X229313D02*
X228001D01*
X227345Y166968D01*
Y165000D01*
X229313D01*
X229969Y165656D01*
X229313Y166312D01*
X227345D01*
X226033Y165000D02*
Y167624D01*
X224065D01*
X223410Y166968D01*
Y165000D01*
X219474Y168936D02*
Y165000D01*
X221442D01*
X222098Y165656D01*
Y166968D01*
X221442Y167624D01*
X219474D01*
X217506D02*
X216194D01*
X215538Y166968D01*
Y165000D01*
X217506D01*
X218162Y165656D01*
X217506Y166312D01*
X215538D01*
X249648Y161436D02*
X252272D01*
Y157500D01*
X249648D01*
X252272Y159468D02*
X250960D01*
X248336Y157500D02*
Y158156D01*
X247680D01*
Y157500D01*
X248336D01*
X241120D02*
Y161436D01*
X239153D01*
X238497Y160780D01*
Y159468D01*
X239153Y158812D01*
X241120D01*
X239809D02*
X238497Y157500D01*
X236529D02*
X235217D01*
X234561Y158156D01*
Y159468D01*
X235217Y160124D01*
X236529D01*
X237185Y159468D01*
Y158156D01*
X236529Y157500D01*
X230625Y161436D02*
Y157500D01*
X232593D01*
X233249Y158156D01*
Y159468D01*
X232593Y160124D01*
X230625D01*
X228657D02*
X227345D01*
X226689Y159468D01*
Y157500D01*
X228657D01*
X229313Y158156D01*
X228657Y158812D01*
X226689D01*
X225377Y157500D02*
X223410D01*
X222754Y158156D01*
X223410Y158812D01*
X224722D01*
X225377Y159468D01*
X224722Y160124D01*
X222754D01*
X249648Y138936D02*
X252272D01*
Y136968D01*
X250960D01*
X252272D01*
Y135000D01*
X248336D02*
Y135656D01*
X247680D01*
Y135000D01*
X248336D01*
X241120D02*
Y138936D01*
X239809Y137624D01*
X238497Y138936D01*
Y135000D01*
X235217D02*
X236529D01*
X237185Y135656D01*
Y136968D01*
X236529Y137624D01*
X235217D01*
X234561Y136968D01*
Y136312D01*
X237185D01*
X230625Y138936D02*
Y135000D01*
X232593D01*
X233249Y135656D01*
Y136968D01*
X232593Y137624D01*
X230625D01*
X229313D02*
Y135000D01*
Y136312D01*
X228657Y136968D01*
X228001Y137624D01*
X227345D01*
X224722D02*
X223410D01*
X222754Y136968D01*
Y135000D01*
X224722D01*
X225377Y135656D01*
X224722Y136312D01*
X222754D01*
X221442Y135000D02*
Y137624D01*
X219474D01*
X218818Y136968D01*
Y135000D01*
X216850D02*
X215538D01*
X214882Y135656D01*
Y136968D01*
X215538Y137624D01*
X216850D01*
X217506Y136968D01*
Y135656D01*
X216850Y135000D01*
X249648Y146436D02*
X252272D01*
Y144468D01*
X250960D01*
X252272D01*
Y142500D01*
X248336D02*
Y143156D01*
X247680D01*
Y142500D01*
X248336D01*
X238497Y146436D02*
X241120D01*
Y142500D01*
X238497D01*
X241120Y144468D02*
X239809D01*
X237185Y142500D02*
X235217D01*
X234561Y143156D01*
X235217Y143812D01*
X236529D01*
X237185Y144468D01*
X236529Y145124D01*
X234561D01*
X233249Y141188D02*
Y145124D01*
X231281D01*
X230625Y144468D01*
Y143156D01*
X231281Y142500D01*
X233249D01*
X228657Y145124D02*
X227345D01*
X226689Y144468D01*
Y142500D01*
X228657D01*
X229313Y143156D01*
X228657Y143812D01*
X226689D01*
X225377Y142500D02*
Y145124D01*
X223410D01*
X222754Y144468D01*
Y142500D01*
X220786Y145124D02*
X219474D01*
X218818Y144468D01*
Y142500D01*
X220786D01*
X221442Y143156D01*
X220786Y143812D01*
X218818D01*
X249648Y153936D02*
X252272D01*
Y150000D01*
X249648D01*
X252272Y151968D02*
X250960D01*
X248336Y150000D02*
Y150656D01*
X247680D01*
Y150000D01*
X248336D01*
X238497Y153280D02*
X239153Y153936D01*
X240464D01*
X241120Y153280D01*
Y152624D01*
X240464Y151968D01*
X239153D01*
X238497Y151312D01*
Y150656D01*
X239153Y150000D01*
X240464D01*
X241120Y150656D01*
X236529Y152624D02*
X235217D01*
X234561Y151968D01*
Y150000D01*
X236529D01*
X237185Y150656D01*
X236529Y151312D01*
X234561D01*
X233249Y150000D02*
Y152624D01*
X231281D01*
X230625Y151968D01*
Y150000D01*
X226689Y152624D02*
X228657D01*
X229313Y151968D01*
Y150656D01*
X228657Y150000D01*
X226689D01*
X225377Y153936D02*
Y150000D01*
Y151968D01*
X224722Y152624D01*
X223410D01*
X222754Y151968D01*
Y150000D01*
X219474D02*
X220786D01*
X221442Y150656D01*
Y151968D01*
X220786Y152624D01*
X219474D01*
X218818Y151968D01*
Y151312D01*
X221442D01*
X217506Y152624D02*
X214882D01*
X217506Y150000D01*
X214882D01*
X201648Y236436D02*
X204272D01*
Y234468D01*
X202960D01*
X204272D01*
Y232500D01*
X200336D02*
Y233156D01*
X199680D01*
Y232500D01*
X200336D01*
X190497Y235780D02*
X191153Y236436D01*
X192464D01*
X193120Y235780D01*
Y235124D01*
X192464Y234468D01*
X191153D01*
X190497Y233812D01*
Y233156D01*
X191153Y232500D01*
X192464D01*
X193120Y233156D01*
X188529Y232500D02*
X187217D01*
X186561Y233156D01*
Y234468D01*
X187217Y235124D01*
X188529D01*
X189185Y234468D01*
Y233156D01*
X188529Y232500D01*
X185249D02*
X183937D01*
X184593D01*
Y236436D01*
X185249D01*
X181313Y232500D02*
X180001D01*
X179345Y233156D01*
Y234468D01*
X180001Y235124D01*
X181313D01*
X181969Y234468D01*
Y233156D01*
X181313Y232500D01*
X178033Y235124D02*
Y232500D01*
Y233812D01*
X177377Y234468D01*
X176722Y235124D01*
X176066D01*
X174098D02*
X171474D01*
X174098Y232500D01*
X171474D01*
X169506Y235124D02*
X168194D01*
X167538Y234468D01*
Y232500D01*
X169506D01*
X170162Y233156D01*
X169506Y233812D01*
X167538D01*
X166226Y232500D02*
Y235124D01*
X164258D01*
X163602Y234468D01*
Y232500D01*
X161635D02*
X160323D01*
X159667Y233156D01*
Y234468D01*
X160323Y235124D01*
X161635D01*
X162290Y234468D01*
Y233156D01*
X161635Y232500D01*
X204272Y228936D02*
Y225000D01*
Y226968D01*
X201648D01*
Y228936D01*
Y225000D01*
X200336D02*
Y225656D01*
X199680D01*
Y225000D01*
X200336D01*
X190497Y228936D02*
X193120D01*
Y225000D01*
X190497D01*
X193120Y226968D02*
X191808D01*
X189185Y225000D02*
X187873D01*
X188529D01*
Y228936D01*
X189185D01*
X185905Y227624D02*
X184593Y225000D01*
X183281Y227624D01*
X181969Y225000D02*
X180657D01*
X181313D01*
Y227624D01*
X181969D01*
X178689D02*
Y225000D01*
Y226312D01*
X178033Y226968D01*
X177377Y227624D01*
X176722D01*
X174098D02*
X172786D01*
X172130Y226968D01*
Y225000D01*
X174098D01*
X174754Y225656D01*
X174098Y226312D01*
X172130D01*
X204272Y221436D02*
Y217500D01*
Y219468D01*
X201648D01*
Y221436D01*
Y217500D01*
X200336D02*
Y218156D01*
X199680D01*
Y217500D01*
X200336D01*
X190497Y220780D02*
X191153Y221436D01*
X192464D01*
X193120Y220780D01*
Y218156D01*
X192464Y217500D01*
X191153D01*
X190497Y218156D01*
Y219468D01*
X191808D01*
X188529Y217500D02*
X187217D01*
X186561Y218156D01*
Y219468D01*
X187217Y220124D01*
X188529D01*
X189185Y219468D01*
Y218156D01*
X188529Y217500D01*
X185249D02*
Y220124D01*
X184593D01*
X183937Y219468D01*
Y217500D01*
Y219468D01*
X183281Y220124D01*
X182625Y219468D01*
Y217500D01*
X179345D02*
X180657D01*
X181313Y218156D01*
Y219468D01*
X180657Y220124D01*
X179345D01*
X178689Y219468D01*
Y218812D01*
X181313D01*
X177377Y220124D02*
X174754D01*
X177377Y217500D01*
X174754D01*
X204272Y213936D02*
X202960D01*
X203616D01*
Y210000D01*
X204272D01*
X202960D01*
X200992D02*
Y210656D01*
X200336D01*
Y210000D01*
X200992D01*
X193776D02*
Y213936D01*
X192464Y212624D01*
X191153Y213936D01*
Y210000D01*
X189185Y212624D02*
X187873D01*
X187217Y211968D01*
Y210000D01*
X189185D01*
X189841Y210656D01*
X189185Y211312D01*
X187217D01*
X185905Y210000D02*
X184593D01*
X185249D01*
Y213936D01*
X185905D01*
X180001D02*
Y210000D01*
X181969D01*
X182625Y210656D01*
Y211968D01*
X181969Y212624D01*
X180001D01*
X178033Y210000D02*
X176722D01*
X176066Y210656D01*
Y211968D01*
X176722Y212624D01*
X178033D01*
X178689Y211968D01*
Y210656D01*
X178033Y210000D01*
X174754D02*
Y212624D01*
X172786D01*
X172130Y211968D01*
Y210000D01*
X170162Y212624D02*
X168850D01*
X168194Y211968D01*
Y210000D01*
X170162D01*
X170818Y210656D01*
X170162Y211312D01*
X168194D01*
X164258Y213936D02*
Y210000D01*
X166226D01*
X166882Y210656D01*
Y211968D01*
X166226Y212624D01*
X164258D01*
X162290Y210000D02*
X160978D01*
X160323Y210656D01*
Y211968D01*
X160978Y212624D01*
X162290D01*
X162946Y211968D01*
Y210656D01*
X162290Y210000D01*
X201648Y206436D02*
X202960D01*
X202304D01*
Y203156D01*
X202960Y202500D01*
X203616D01*
X204272Y203156D01*
X200336Y202500D02*
Y203156D01*
X199680D01*
Y202500D01*
X200336D01*
X193120D02*
Y205124D01*
X191808Y206436D01*
X190497Y205124D01*
Y202500D01*
Y204468D01*
X193120D01*
X189185Y202500D02*
X187873D01*
X188529D01*
Y206436D01*
X189185D01*
X185249Y205124D02*
X183937D01*
X183281Y204468D01*
Y202500D01*
X185249D01*
X185905Y203156D01*
X185249Y203812D01*
X183281D01*
X181969Y205124D02*
Y203156D01*
X181313Y202500D01*
X179345D01*
Y201844D01*
X180001Y201188D01*
X180657D01*
X179345Y202500D02*
Y205124D01*
X201648Y198936D02*
X202960D01*
X202304D01*
Y195656D01*
X202960Y195000D01*
X203616D01*
X204272Y195656D01*
X200336Y195000D02*
Y195656D01*
X199680D01*
Y195000D01*
X200336D01*
X193120Y198936D02*
Y195000D01*
X191153D01*
X190497Y195656D01*
Y196312D01*
X191153Y196968D01*
X193120D01*
X191153D01*
X190497Y197624D01*
Y198280D01*
X191153Y198936D01*
X193120D01*
X188529Y197624D02*
X187217D01*
X186561Y196968D01*
Y195000D01*
X188529D01*
X189185Y195656D01*
X188529Y196312D01*
X186561D01*
X183937Y193688D02*
X183281D01*
X182625Y194344D01*
Y197624D01*
X184593D01*
X185249Y196968D01*
Y195656D01*
X184593Y195000D01*
X182625D01*
X181313Y197624D02*
Y195656D01*
X180657Y195000D01*
X178689D01*
Y197624D01*
X177377D02*
Y195000D01*
Y196312D01*
X176722Y196968D01*
X176066Y197624D01*
X175409D01*
X201648Y191436D02*
X202960D01*
X202304D01*
Y188156D01*
X202960Y187500D01*
X203616D01*
X204272Y188156D01*
X200336Y187500D02*
Y188156D01*
X199680D01*
Y187500D01*
X200336D01*
X193120Y191436D02*
Y187500D01*
X191153D01*
X190497Y188156D01*
Y188812D01*
X191153Y189468D01*
X193120D01*
X191153D01*
X190497Y190124D01*
Y190780D01*
X191153Y191436D01*
X193120D01*
X188529Y190124D02*
X187217D01*
X186561Y189468D01*
Y187500D01*
X188529D01*
X189185Y188156D01*
X188529Y188812D01*
X186561D01*
X185249Y190124D02*
Y187500D01*
Y188812D01*
X184593Y189468D01*
X183937Y190124D01*
X183281D01*
X181313D02*
Y187500D01*
Y188812D01*
X180657Y189468D01*
X180001Y190124D01*
X179345D01*
X177377Y187500D02*
X176066D01*
X176722D01*
Y190124D01*
X177377D01*
X173442Y187500D02*
X172130D01*
X171474Y188156D01*
Y189468D01*
X172130Y190124D01*
X173442D01*
X174098Y189468D01*
Y188156D01*
X173442Y187500D01*
X170162D02*
X168194D01*
X167538Y188156D01*
X168194Y188812D01*
X169506D01*
X170162Y189468D01*
X169506Y190124D01*
X167538D01*
X201648Y183936D02*
X202960D01*
X202304D01*
Y180656D01*
X202960Y180000D01*
X203616D01*
X204272Y180656D01*
X200336Y180000D02*
Y180656D01*
X199680D01*
Y180000D01*
X200336D01*
X193120Y183936D02*
Y180000D01*
X191153D01*
X190497Y180656D01*
Y181312D01*
X191153Y181968D01*
X193120D01*
X191153D01*
X190497Y182624D01*
Y183280D01*
X191153Y183936D01*
X193120D01*
X189185Y180000D02*
X187873D01*
X188529D01*
Y182624D01*
X189185D01*
X185905D02*
Y180000D01*
Y181312D01*
X185249Y181968D01*
X184593Y182624D01*
X183937D01*
X181969Y180000D02*
Y182624D01*
X180001D01*
X179345Y181968D01*
Y180000D01*
X178033D02*
X176722D01*
X177377D01*
Y182624D01*
X178033D01*
X172786Y180000D02*
X174098D01*
X174754Y180656D01*
Y181968D01*
X174098Y182624D01*
X172786D01*
X172130Y181968D01*
Y181312D01*
X174754D01*
X201648Y176436D02*
X202960D01*
X202304D01*
Y173156D01*
X202960Y172500D01*
X203616D01*
X204272Y173156D01*
X200336Y172500D02*
Y173156D01*
X199680D01*
Y172500D01*
X200336D01*
X190497Y175780D02*
X191153Y176436D01*
X192464D01*
X193120Y175780D01*
Y173156D01*
X192464Y172500D01*
X191153D01*
X190497Y173156D01*
X188529Y175124D02*
X187217D01*
X186561Y174468D01*
Y172500D01*
X188529D01*
X189185Y173156D01*
X188529Y173812D01*
X186561D01*
X185249Y176436D02*
Y172500D01*
Y174468D01*
X184593Y175124D01*
X183281D01*
X182625Y174468D01*
Y172500D01*
X181313Y175124D02*
Y173156D01*
X180657Y172500D01*
X178689D01*
Y175124D01*
X175409Y172500D02*
X176722D01*
X177377Y173156D01*
Y174468D01*
X176722Y175124D01*
X175409D01*
X174754Y174468D01*
Y173812D01*
X177377D01*
X170818Y171188D02*
Y175124D01*
X172786D01*
X173442Y174468D01*
Y173156D01*
X172786Y172500D01*
X170818D01*
X169506Y175124D02*
Y173156D01*
X168850Y172500D01*
X166882D01*
Y175124D01*
X163602Y172500D02*
X164914D01*
X165570Y173156D01*
Y174468D01*
X164914Y175124D01*
X163602D01*
X162946Y174468D01*
Y173812D01*
X165570D01*
X201648Y168936D02*
X202960D01*
X202304D01*
Y165656D01*
X202960Y165000D01*
X203616D01*
X204272Y165656D01*
X200336Y165000D02*
Y165656D01*
X199680D01*
Y165000D01*
X200336D01*
X190497Y168936D02*
X193120D01*
Y165000D01*
X190497D01*
X193120Y166968D02*
X191808D01*
X189185Y165000D02*
X187217D01*
X186561Y165656D01*
X187217Y166312D01*
X188529D01*
X189185Y166968D01*
X188529Y167624D01*
X186561D01*
X182625D02*
X184593D01*
X185249Y166968D01*
Y165656D01*
X184593Y165000D01*
X182625D01*
X180657D02*
X179345D01*
X178689Y165656D01*
Y166968D01*
X179345Y167624D01*
X180657D01*
X181313Y166968D01*
Y165656D01*
X180657Y165000D01*
X177377Y168936D02*
Y165000D01*
X175409D01*
X174754Y165656D01*
Y166312D01*
Y166968D01*
X175409Y167624D01*
X177377D01*
X172786D02*
X171474D01*
X170818Y166968D01*
Y165000D01*
X172786D01*
X173442Y165656D01*
X172786Y166312D01*
X170818D01*
X169506Y167624D02*
Y165000D01*
Y166312D01*
X168850Y166968D01*
X168194Y167624D01*
X167538D01*
X201648Y161436D02*
X202960D01*
X202304D01*
Y158156D01*
X202960Y157500D01*
X203616D01*
X204272Y158156D01*
X200336Y157500D02*
Y158156D01*
X199680D01*
Y157500D01*
X200336D01*
X190497Y161436D02*
X193120D01*
Y159468D01*
X191808D01*
X193120D01*
Y157500D01*
X189185D02*
X187873D01*
X188529D01*
Y161436D01*
X189185D01*
X185249Y157500D02*
X183937D01*
X183281Y158156D01*
Y159468D01*
X183937Y160124D01*
X185249D01*
X185905Y159468D01*
Y158156D01*
X185249Y157500D01*
X181969Y160124D02*
Y157500D01*
Y158812D01*
X181313Y159468D01*
X180657Y160124D01*
X180001D01*
X176066Y157500D02*
X177377D01*
X178033Y158156D01*
Y159468D01*
X177377Y160124D01*
X176066D01*
X175410Y159468D01*
Y158812D01*
X178033D01*
X174098Y157500D02*
X172130D01*
X171474Y158156D01*
X172130Y158812D01*
X173442D01*
X174098Y159468D01*
X173442Y160124D01*
X171474D01*
X201648Y153936D02*
X202960D01*
X202304D01*
Y150656D01*
X202960Y150000D01*
X203616D01*
X204272Y150656D01*
X200336Y150000D02*
Y150656D01*
X199680D01*
Y150000D01*
X200336D01*
X190497Y153280D02*
X191153Y153936D01*
X192464D01*
X193120Y153280D01*
Y150656D01*
X192464Y150000D01*
X191153D01*
X190497Y150656D01*
Y151968D01*
X191808D01*
X188529Y152624D02*
X187217D01*
X186561Y151968D01*
Y150000D01*
X188529D01*
X189185Y150656D01*
X188529Y151312D01*
X186561D01*
X185249Y150000D02*
X183937D01*
X184593D01*
Y153936D01*
X185249D01*
X181969Y150000D02*
X180657D01*
X181313D01*
Y153936D01*
X181969D01*
X176722Y150000D02*
X178033D01*
X178689Y150656D01*
Y151968D01*
X178033Y152624D01*
X176722D01*
X176066Y151968D01*
Y151312D01*
X178689D01*
X173442Y148688D02*
X172786D01*
X172130Y149344D01*
Y152624D01*
X174098D01*
X174754Y151968D01*
Y150656D01*
X174098Y150000D01*
X172130D01*
X170162D02*
X168850D01*
X168194Y150656D01*
Y151968D01*
X168850Y152624D01*
X170162D01*
X170818Y151968D01*
Y150656D01*
X170162Y150000D01*
X166882D02*
X164914D01*
X164258Y150656D01*
X164914Y151312D01*
X166226D01*
X166882Y151968D01*
X166226Y152624D01*
X164258D01*
X201648Y146436D02*
X202960D01*
X202304D01*
Y143156D01*
X202960Y142500D01*
X203616D01*
X204272Y143156D01*
X200336Y142500D02*
Y143156D01*
X199680D01*
Y142500D01*
X200336D01*
X190497Y145780D02*
X191153Y146436D01*
X192464D01*
X193120Y145780D01*
Y143156D01*
X192464Y142500D01*
X191153D01*
X190497Y143156D01*
Y144468D01*
X191808D01*
X188529Y142500D02*
X187217D01*
X186561Y143156D01*
Y144468D01*
X187217Y145124D01*
X188529D01*
X189185Y144468D01*
Y143156D01*
X188529Y142500D01*
X185249D02*
Y145124D01*
X183281D01*
X182625Y144468D01*
Y142500D01*
X181313Y145124D02*
X178689D01*
X181313Y142500D01*
X178689D01*
X176722Y145124D02*
X175409D01*
X174754Y144468D01*
Y142500D01*
X176722D01*
X177377Y143156D01*
X176722Y143812D01*
X174754D01*
X173442Y142500D02*
X172130D01*
X172786D01*
Y146436D01*
X173442D01*
X168194Y142500D02*
X169506D01*
X170162Y143156D01*
Y144468D01*
X169506Y145124D01*
X168194D01*
X167538Y144468D01*
Y143812D01*
X170162D01*
X166226Y145124D02*
X163602D01*
X166226Y142500D01*
X163602D01*
X201648Y138936D02*
X202960D01*
X202304D01*
Y135656D01*
X202960Y135000D01*
X203616D01*
X204272Y135656D01*
X200336Y135000D02*
Y135656D01*
X199680D01*
Y135000D01*
X200336D01*
X193120Y138936D02*
Y135000D01*
Y136312D01*
X190497Y138936D01*
X192464Y136968D01*
X190497Y135000D01*
X188529D02*
X187217D01*
X186561Y135656D01*
Y136968D01*
X187217Y137624D01*
X188529D01*
X189185Y136968D01*
Y135656D01*
X188529Y135000D01*
X185249Y138936D02*
Y135000D01*
Y136968D01*
X184593Y137624D01*
X183281D01*
X182625Y136968D01*
Y135000D01*
X181313D02*
X180001D01*
X180657D01*
Y138936D01*
X181313D01*
X176066Y135000D02*
X177377D01*
X178033Y135656D01*
Y136968D01*
X177377Y137624D01*
X176066D01*
X175410Y136968D01*
Y136312D01*
X178033D01*
X174098Y137624D02*
Y135000D01*
Y136312D01*
X173442Y136968D01*
X172786Y137624D01*
X172130D01*
X153648Y236436D02*
X154960D01*
X154304D01*
Y233156D01*
X154960Y232500D01*
X155616D01*
X156272Y233156D01*
X152336Y232500D02*
Y233156D01*
X151680D01*
Y232500D01*
X152336D01*
X145120Y236436D02*
Y232500D01*
X142497D01*
X140529Y235124D02*
X139217D01*
X138561Y234468D01*
Y232500D01*
X140529D01*
X141185Y233156D01*
X140529Y233812D01*
X138561D01*
X137249Y235124D02*
Y232500D01*
Y233812D01*
X136593Y234468D01*
X135937Y235124D01*
X135281D01*
X132657D02*
X131345D01*
X130689Y234468D01*
Y232500D01*
X132657D01*
X133313Y233156D01*
X132657Y233812D01*
X130689D01*
X153648Y228936D02*
X154960D01*
X154304D01*
Y225656D01*
X154960Y225000D01*
X155616D01*
X156272Y225656D01*
X152336Y225000D02*
Y225656D01*
X151680D01*
Y225000D01*
X152336D01*
X145120Y228936D02*
Y225000D01*
X142497D01*
X140529D02*
X139217D01*
X138561Y225656D01*
Y226968D01*
X139217Y227624D01*
X140529D01*
X141185Y226968D01*
Y225656D01*
X140529Y225000D01*
X137249Y227624D02*
Y225000D01*
Y226312D01*
X136593Y226968D01*
X135937Y227624D01*
X135281D01*
X131345Y225000D02*
X132657D01*
X133313Y225656D01*
Y226968D01*
X132657Y227624D01*
X131345D01*
X130689Y226968D01*
Y226312D01*
X133313D01*
X129377Y225000D02*
Y227624D01*
X127410D01*
X126754Y226968D01*
Y225000D01*
X125442Y227624D02*
X122818D01*
X125442Y225000D01*
X122818D01*
X120850Y227624D02*
X119538D01*
X118882Y226968D01*
Y225000D01*
X120850D01*
X121506Y225656D01*
X120850Y226312D01*
X118882D01*
X117570Y225000D02*
Y227624D01*
X115602D01*
X114946Y226968D01*
Y225000D01*
X112978Y227624D02*
X111667D01*
X111011Y226968D01*
Y225000D01*
X112978D01*
X113635Y225656D01*
X112978Y226312D01*
X111011D01*
X156272Y146436D02*
Y142500D01*
X153648D01*
X152336D02*
Y143156D01*
X151680D01*
Y142500D01*
X152336D01*
X145120Y146436D02*
Y142500D01*
X143152D01*
X142497Y143156D01*
Y145780D01*
X143152Y146436D01*
X145120D01*
X141185Y145124D02*
Y143156D01*
X140529Y142500D01*
X138561D01*
Y145124D01*
X136593D02*
X135281D01*
X134625Y144468D01*
Y142500D01*
X136593D01*
X137249Y143156D01*
X136593Y143812D01*
X134625D01*
X133313Y145124D02*
Y142500D01*
Y143812D01*
X132657Y144468D01*
X132001Y145124D01*
X131345D01*
X128721Y145780D02*
Y145124D01*
X129377D01*
X128066D01*
X128721D01*
Y143156D01*
X128066Y142500D01*
X124130D02*
X125442D01*
X126098Y143156D01*
Y144468D01*
X125442Y145124D01*
X124130D01*
X123474Y144468D01*
Y143812D01*
X126098D01*
X153648Y221436D02*
X154960D01*
X154304D01*
Y218156D01*
X154960Y217500D01*
X155616D01*
X156272Y218156D01*
X152336Y217500D02*
Y218156D01*
X151680D01*
Y217500D01*
X152336D01*
X146432Y220780D02*
X147088Y221436D01*
X148400D01*
X149056Y220780D01*
Y218156D01*
X148400Y217500D01*
X147088D01*
X146432Y218156D01*
X145120Y217500D02*
Y218156D01*
X144464D01*
Y217500D01*
X145120D01*
X137905D02*
Y221436D01*
X136593Y220124D01*
X135281Y221436D01*
Y217500D01*
X133313D02*
X132001D01*
X131345Y218156D01*
Y219468D01*
X132001Y220124D01*
X133313D01*
X133969Y219468D01*
Y218156D01*
X133313Y217500D01*
X130033D02*
X128721D01*
X129377D01*
Y221436D01*
X130033D01*
X126754Y217500D02*
X125442D01*
X126098D01*
Y220124D01*
X126754D01*
X123474Y217500D02*
Y220124D01*
X121506D01*
X120850Y219468D01*
Y217500D01*
X118882Y220124D02*
X117570D01*
X116914Y219468D01*
Y217500D01*
X118882D01*
X119538Y218156D01*
X118882Y218812D01*
X116914D01*
X153648Y213936D02*
X154960D01*
X154304D01*
Y210656D01*
X154960Y210000D01*
X155616D01*
X156272Y210656D01*
X152336Y210000D02*
Y210656D01*
X151680D01*
Y210000D01*
X152336D01*
X146432Y213280D02*
X147088Y213936D01*
X148400D01*
X149056Y213280D01*
Y210656D01*
X148400Y210000D01*
X147088D01*
X146432Y210656D01*
Y211968D01*
X147744D01*
X145120Y210000D02*
Y210656D01*
X144464D01*
Y210000D01*
X145120D01*
X137905D02*
Y213936D01*
X136593Y212624D01*
X135281Y213936D01*
Y210000D01*
X133313D02*
X132001D01*
X131345Y210656D01*
Y211968D01*
X132001Y212624D01*
X133313D01*
X133969Y211968D01*
Y210656D01*
X133313Y210000D01*
X130033D02*
X128721D01*
X129377D01*
Y213936D01*
X130033D01*
X126754Y210000D02*
X125442D01*
X126098D01*
Y212624D01*
X126754D01*
X123474Y210000D02*
Y212624D01*
X121506D01*
X120850Y211968D01*
Y210000D01*
X118882Y212624D02*
X117570D01*
X116914Y211968D01*
Y210000D01*
X118882D01*
X119538Y210656D01*
X118882Y211312D01*
X116914D01*
X153648Y206436D02*
X154960D01*
X154304D01*
Y203156D01*
X154960Y202500D01*
X155616D01*
X156272Y203156D01*
X152336Y202500D02*
Y203156D01*
X151680D01*
Y202500D01*
X152336D01*
X145120D02*
Y206436D01*
X143808Y205124D01*
X142497Y206436D01*
Y202500D01*
X141185Y205124D02*
Y203156D01*
X140529Y202500D01*
X138561D01*
Y205124D01*
X137249Y202500D02*
Y205124D01*
X135281D01*
X134625Y204468D01*
Y202500D01*
X132657D02*
X131345D01*
X130689Y203156D01*
Y204468D01*
X131345Y205124D01*
X132657D01*
X133313Y204468D01*
Y203156D01*
X132657Y202500D01*
X129377Y205124D02*
X126754D01*
X129377Y202500D01*
X126754D01*
X153648Y198936D02*
X154960D01*
X154304D01*
Y195656D01*
X154960Y195000D01*
X155616D01*
X156272Y195656D01*
X152336Y195000D02*
Y195656D01*
X151680D01*
Y195000D01*
X152336D01*
X145120D02*
Y198936D01*
X143152D01*
X142497Y198280D01*
Y196968D01*
X143152Y196312D01*
X145120D01*
X139217Y195000D02*
X140529D01*
X141185Y195656D01*
Y196968D01*
X140529Y197624D01*
X139217D01*
X138561Y196968D01*
Y196312D01*
X141185D01*
X137249Y197624D02*
Y195000D01*
Y196312D01*
X136593Y196968D01*
X135937Y197624D01*
X135281D01*
X131345Y195000D02*
X132657D01*
X133313Y195656D01*
Y196968D01*
X132657Y197624D01*
X131345D01*
X130689Y196968D01*
Y196312D01*
X133313D01*
X129377Y197624D02*
X126754D01*
X129377Y195000D01*
X126754D01*
X153648Y191436D02*
X154960D01*
X154304D01*
Y188156D01*
X154960Y187500D01*
X155616D01*
X156272Y188156D01*
X152336Y187500D02*
Y188156D01*
X151680D01*
Y187500D01*
X152336D01*
X145120D02*
Y191436D01*
X143152D01*
X142497Y190780D01*
Y189468D01*
X143152Y188812D01*
X145120D01*
X143808D02*
X142497Y187500D01*
X140529Y190124D02*
X139217D01*
X138561Y189468D01*
Y187500D01*
X140529D01*
X141185Y188156D01*
X140529Y188812D01*
X138561D01*
X137249Y187500D02*
Y190124D01*
X136593D01*
X135937Y189468D01*
Y187500D01*
Y189468D01*
X135281Y190124D01*
X134625Y189468D01*
Y187500D01*
X133313D02*
X132001D01*
X132657D01*
Y190124D01*
X133313D01*
X130033D02*
Y187500D01*
Y188812D01*
X129377Y189468D01*
X128721Y190124D01*
X128066D01*
X124130Y187500D02*
X125442D01*
X126098Y188156D01*
Y189468D01*
X125442Y190124D01*
X124130D01*
X123474Y189468D01*
Y188812D01*
X126098D01*
X122162Y190124D02*
X119538D01*
X122162Y187500D01*
X119538D01*
X153648Y183936D02*
X154960D01*
X154304D01*
Y180656D01*
X154960Y180000D01*
X155616D01*
X156272Y180656D01*
X152336Y180000D02*
Y180656D01*
X151680D01*
Y180000D01*
X152336D01*
X145120D02*
Y183936D01*
X143152D01*
X142497Y183280D01*
Y181968D01*
X143152Y181312D01*
X145120D01*
X143808D02*
X142497Y180000D01*
X140529D02*
X139217D01*
X138561Y180656D01*
Y181968D01*
X139217Y182624D01*
X140529D01*
X141185Y181968D01*
Y180656D01*
X140529Y180000D01*
X134625Y183936D02*
Y180000D01*
X136593D01*
X137249Y180656D01*
Y181968D01*
X136593Y182624D01*
X134625D01*
X133313D02*
Y180000D01*
Y181312D01*
X132657Y181968D01*
X132001Y182624D01*
X131345D01*
X129377Y180000D02*
X128066D01*
X128721D01*
Y182624D01*
X129377D01*
X124786Y178688D02*
X124130D01*
X123474Y179344D01*
Y182624D01*
X125442D01*
X126098Y181968D01*
Y180656D01*
X125442Y180000D01*
X123474D01*
X122162Y182624D02*
Y180656D01*
X121506Y180000D01*
X119538D01*
Y182624D01*
X116258Y180000D02*
X117570D01*
X118226Y180656D01*
Y181968D01*
X117570Y182624D01*
X116258D01*
X115602Y181968D01*
Y181312D01*
X118226D01*
X114290Y182624D02*
X111667D01*
X114290Y180000D01*
X111667D01*
X153648Y176436D02*
X154960D01*
X154304D01*
Y173156D01*
X154960Y172500D01*
X155616D01*
X156272Y173156D01*
X152336Y172500D02*
Y173156D01*
X151680D01*
Y172500D01*
X152336D01*
X145120Y176436D02*
X142497D01*
X143808D01*
Y172500D01*
X139217D02*
X140529D01*
X141185Y173156D01*
Y174468D01*
X140529Y175124D01*
X139217D01*
X138561Y174468D01*
Y173812D01*
X141185D01*
X137249Y175124D02*
X134625D01*
X137249Y172500D01*
X134625D01*
X131345D02*
X132657D01*
X133313Y173156D01*
Y174468D01*
X132657Y175124D01*
X131345D01*
X130689Y174468D01*
Y173812D01*
X133313D01*
X129377Y172500D02*
Y175124D01*
X127410D01*
X126754Y174468D01*
Y172500D01*
X156272Y168936D02*
Y165000D01*
Y166312D01*
X153648Y168936D01*
X155616Y166968D01*
X153648Y165000D01*
X152336D02*
Y165656D01*
X151680D01*
Y165000D01*
X152336D01*
X142497Y168280D02*
X143152Y168936D01*
X144464D01*
X145120Y168280D01*
Y165656D01*
X144464Y165000D01*
X143152D01*
X142497Y165656D01*
X141185Y168936D02*
Y165000D01*
Y166968D01*
X140529Y167624D01*
X139217D01*
X138561Y166968D01*
Y165000D01*
X137249Y167624D02*
Y165656D01*
X136593Y165000D01*
X134625D01*
Y167624D01*
X133313Y165000D02*
Y167624D01*
X131345D01*
X130689Y166968D01*
Y165000D01*
X128066Y163688D02*
X127410D01*
X126754Y164344D01*
Y167624D01*
X128721D01*
X129377Y166968D01*
Y165656D01*
X128721Y165000D01*
X126754D01*
X156272Y161436D02*
Y157500D01*
Y158812D01*
X153648Y161436D01*
X155616Y159468D01*
X153648Y157500D01*
X152336D02*
Y158156D01*
X151680D01*
Y157500D01*
X152336D01*
X142497Y160780D02*
X143152Y161436D01*
X144464D01*
X145120Y160780D01*
Y158156D01*
X144464Y157500D01*
X143152D01*
X142497Y158156D01*
Y159468D01*
X143808D01*
X140529Y157500D02*
X139217D01*
X138561Y158156D01*
Y159468D01*
X139217Y160124D01*
X140529D01*
X141185Y159468D01*
Y158156D01*
X140529Y157500D01*
X137249D02*
Y160124D01*
X135281D01*
X134625Y159468D01*
Y157500D01*
X133313Y160124D02*
X130689D01*
X133313Y157500D01*
X130689D01*
X128721Y160124D02*
X127410D01*
X126754Y159468D01*
Y157500D01*
X128721D01*
X129377Y158156D01*
X128721Y158812D01*
X126754D01*
X125442Y157500D02*
X124130D01*
X124786D01*
Y161436D01*
X125442D01*
X120194Y157500D02*
X121506D01*
X122162Y158156D01*
Y159468D01*
X121506Y160124D01*
X120194D01*
X119538Y159468D01*
Y158812D01*
X122162D01*
X118226Y160124D02*
X115602D01*
X118226Y157500D01*
X115602D01*
X156272Y153936D02*
Y150000D01*
X153648D01*
X152336D02*
Y150656D01*
X151680D01*
Y150000D01*
X152336D01*
X145120Y153936D02*
Y150000D01*
X143152D01*
X142497Y150656D01*
Y153280D01*
X143152Y153936D01*
X145120D01*
X140529Y150000D02*
X139217D01*
X138561Y150656D01*
Y151968D01*
X139217Y152624D01*
X140529D01*
X141185Y151968D01*
Y150656D01*
X140529Y150000D01*
X137249D02*
Y152624D01*
X135281D01*
X134625Y151968D01*
Y150000D01*
X133313D02*
X132001D01*
X132657D01*
Y152624D01*
X133313D01*
X130033Y150000D02*
X128066D01*
X127410Y150656D01*
X128066Y151312D01*
X129377D01*
X130033Y151968D01*
X129377Y152624D01*
X127410D01*
X107772Y202500D02*
Y206436D01*
X106460Y205124D01*
X105148Y206436D01*
Y202500D01*
X103836D02*
Y203156D01*
X103180D01*
Y202500D01*
X103836D01*
X96620D02*
Y206436D01*
X94652D01*
X93997Y205780D01*
Y204468D01*
X94652Y203812D01*
X96620D01*
X95309D02*
X93997Y202500D01*
X92029Y205124D02*
X90717D01*
X90061Y204468D01*
Y202500D01*
X92029D01*
X92685Y203156D01*
X92029Y203812D01*
X90061D01*
X88749Y202500D02*
Y205124D01*
X88093D01*
X87437Y204468D01*
Y202500D01*
Y204468D01*
X86781Y205124D01*
X86125Y204468D01*
Y202500D01*
X84813D02*
X83501D01*
X84157D01*
Y205124D01*
X84813D01*
X81533D02*
Y202500D01*
Y203812D01*
X80877Y204468D01*
X80221Y205124D01*
X79566D01*
X75630Y202500D02*
X76942D01*
X77598Y203156D01*
Y204468D01*
X76942Y205124D01*
X75630D01*
X74974Y204468D01*
Y203812D01*
X77598D01*
X73662Y205124D02*
X71038D01*
X73662Y202500D01*
X71038D01*
X156272Y138936D02*
Y135000D01*
X153648D01*
X152336D02*
Y135656D01*
X151680D01*
Y135000D01*
X152336D01*
X145120Y138936D02*
Y135000D01*
X142497D01*
X140529Y137624D02*
X139217D01*
X138561Y136968D01*
Y135000D01*
X140529D01*
X141185Y135656D01*
X140529Y136312D01*
X138561D01*
X137249Y137624D02*
Y135000D01*
Y136312D01*
X136593Y136968D01*
X135937Y137624D01*
X135281D01*
X132657D02*
X131345D01*
X130689Y136968D01*
Y135000D01*
X132657D01*
X133313Y135656D01*
X132657Y136312D01*
X130689D01*
X107772Y236436D02*
Y232500D01*
X105148D01*
X103836D02*
Y233156D01*
X103180D01*
Y232500D01*
X103836D01*
X96620Y236436D02*
X93997D01*
Y235780D01*
X96620Y233156D01*
Y232500D01*
X93997D01*
X90717D02*
X92029D01*
X92685Y233156D01*
Y234468D01*
X92029Y235124D01*
X90717D01*
X90061Y234468D01*
Y233812D01*
X92685D01*
X88093Y235124D02*
X86781D01*
X86125Y234468D01*
Y232500D01*
X88093D01*
X88749Y233156D01*
X88093Y233812D01*
X86125D01*
X107772Y225000D02*
Y228936D01*
X106460Y227624D01*
X105148Y228936D01*
Y225000D01*
X103836D02*
Y225656D01*
X103180D01*
Y225000D01*
X103836D01*
X96620D02*
Y227624D01*
X95309Y228936D01*
X93997Y227624D01*
Y225000D01*
Y226968D01*
X96620D01*
X92685Y225000D02*
Y227624D01*
X90717D01*
X90061Y226968D01*
Y225000D01*
X87437Y223688D02*
X86781D01*
X86125Y224344D01*
Y227624D01*
X88093D01*
X88749Y226968D01*
Y225656D01*
X88093Y225000D01*
X86125D01*
X84813Y227624D02*
Y225656D01*
X84157Y225000D01*
X82189D01*
Y227624D01*
X80877Y225000D02*
X79566D01*
X80221D01*
Y228936D01*
X80877D01*
X76942Y225000D02*
X75630D01*
X74974Y225656D01*
Y226968D01*
X75630Y227624D01*
X76942D01*
X77598Y226968D01*
Y225656D01*
X76942Y225000D01*
X107772Y217500D02*
Y221436D01*
X106460Y220124D01*
X105148Y221436D01*
Y217500D01*
X103836D02*
Y218156D01*
X103180D01*
Y217500D01*
X103836D01*
X96620D02*
Y221436D01*
X95309Y220124D01*
X93997Y221436D01*
Y217500D01*
X92029Y220124D02*
X90717D01*
X90061Y219468D01*
Y217500D01*
X92029D01*
X92685Y218156D01*
X92029Y218812D01*
X90061D01*
X88749Y220124D02*
Y217500D01*
Y218812D01*
X88093Y219468D01*
X87437Y220124D01*
X86781D01*
X84157Y220780D02*
Y220124D01*
X84813D01*
X83501D01*
X84157D01*
Y218156D01*
X83501Y217500D01*
X81533D02*
X80221D01*
X80877D01*
Y220124D01*
X81533D01*
X78254Y217500D02*
Y220124D01*
X76286D01*
X75630Y219468D01*
Y217500D01*
X72350D02*
X73662D01*
X74318Y218156D01*
Y219468D01*
X73662Y220124D01*
X72350D01*
X71694Y219468D01*
Y218812D01*
X74318D01*
X70382Y220124D02*
X67758D01*
X70382Y217500D01*
X67758D01*
X107772Y210000D02*
Y213936D01*
X106460Y212624D01*
X105148Y213936D01*
Y210000D01*
X103836D02*
Y210656D01*
X103180D01*
Y210000D01*
X103836D01*
X96620D02*
Y213936D01*
X94652D01*
X93997Y213280D01*
Y211968D01*
X94652Y211312D01*
X96620D01*
X92029Y210000D02*
X90717D01*
X90061Y210656D01*
Y211968D01*
X90717Y212624D01*
X92029D01*
X92685Y211968D01*
Y210656D01*
X92029Y210000D01*
X88749D02*
X87437D01*
X88093D01*
Y213936D01*
X88749D01*
X84813Y212624D02*
X83501D01*
X82845Y211968D01*
Y210000D01*
X84813D01*
X85469Y210656D01*
X84813Y211312D01*
X82845D01*
X81533Y210000D02*
Y212624D01*
X79566D01*
X78910Y211968D01*
Y210000D01*
X74974Y212624D02*
X76942D01*
X77598Y211968D01*
Y210656D01*
X76942Y210000D01*
X74974D01*
X73006D02*
X71694D01*
X71038Y210656D01*
Y211968D01*
X71694Y212624D01*
X73006D01*
X73662Y211968D01*
Y210656D01*
X73006Y210000D01*
X107772Y195000D02*
Y198936D01*
X106460Y197624D01*
X105148Y198936D01*
Y195000D01*
X103836D02*
Y195656D01*
X103180D01*
Y195000D01*
X103836D01*
X93997Y198280D02*
X94652Y198936D01*
X95964D01*
X96620Y198280D01*
Y197624D01*
X95964Y196968D01*
X94652D01*
X93997Y196312D01*
Y195656D01*
X94652Y195000D01*
X95964D01*
X96620Y195656D01*
X92685Y195000D02*
X91373D01*
X92029D01*
Y197624D01*
X92685D01*
X89405Y195000D02*
X88093D01*
X88749D01*
Y198936D01*
X89405D01*
X86125Y197624D02*
X84813Y195000D01*
X83501Y197624D01*
X81533D02*
X80221D01*
X79566Y196968D01*
Y195000D01*
X81533D01*
X82189Y195656D01*
X81533Y196312D01*
X79566D01*
X107772Y187500D02*
Y191436D01*
X106460Y190124D01*
X105148Y191436D01*
Y187500D01*
X103836D02*
Y188156D01*
X103180D01*
Y187500D01*
X103836D01*
X96620Y191436D02*
X93997D01*
Y190780D01*
X96620Y188156D01*
Y187500D01*
X93997D01*
X90717D02*
X92029D01*
X92685Y188156D01*
Y189468D01*
X92029Y190124D01*
X90717D01*
X90061Y189468D01*
Y188812D01*
X92685D01*
X88093Y190124D02*
X86781D01*
X86125Y189468D01*
Y187500D01*
X88093D01*
X88749Y188156D01*
X88093Y188812D01*
X86125D01*
X107772Y180000D02*
Y183936D01*
X106460Y182624D01*
X105148Y183936D01*
Y180000D01*
X103836D02*
Y180656D01*
X103180D01*
Y180000D01*
X103836D01*
X96620Y183936D02*
Y180000D01*
X93997D01*
X90717D02*
X92029D01*
X92685Y180656D01*
Y181968D01*
X92029Y182624D01*
X90717D01*
X90061Y181968D01*
Y181312D01*
X92685D01*
X86781Y180000D02*
X88093D01*
X88749Y180656D01*
Y181968D01*
X88093Y182624D01*
X86781D01*
X86125Y181968D01*
Y181312D01*
X88749D01*
X107772Y172500D02*
Y176436D01*
X106460Y175124D01*
X105148Y176436D01*
Y172500D01*
X103836D02*
Y173156D01*
X103180D01*
Y172500D01*
X103836D01*
X96620D02*
Y176436D01*
X94652D01*
X93997Y175780D01*
Y174468D01*
X94652Y173812D01*
X96620D01*
X92685Y172500D02*
X91373D01*
X92029D01*
Y175124D01*
X92685D01*
X89405Y172500D02*
Y175124D01*
X87437D01*
X86781Y174468D01*
Y172500D01*
X83501D02*
X84813D01*
X85469Y173156D01*
Y174468D01*
X84813Y175124D01*
X83501D01*
X82845Y174468D01*
Y173812D01*
X85469D01*
X78910Y176436D02*
Y172500D01*
X80877D01*
X81533Y173156D01*
Y174468D01*
X80877Y175124D01*
X78910D01*
X76942D02*
X75630D01*
X74974Y174468D01*
Y172500D01*
X76942D01*
X77598Y173156D01*
X76942Y173812D01*
X74974D01*
X107772Y165000D02*
Y168936D01*
X105148Y165000D01*
Y168936D01*
X103836Y165000D02*
Y165656D01*
X103180D01*
Y165000D01*
X103836D01*
X96620D02*
Y168936D01*
X95309Y167624D01*
X93997Y168936D01*
Y165000D01*
X92029Y167624D02*
X90717D01*
X90061Y166968D01*
Y165000D01*
X92029D01*
X92685Y165656D01*
X92029Y166312D01*
X90061D01*
X88749Y167624D02*
X86125D01*
X88749Y165000D01*
X86125D01*
X84157Y167624D02*
X82845D01*
X82189Y166968D01*
Y165000D01*
X84157D01*
X84813Y165656D01*
X84157Y166312D01*
X82189D01*
X80877Y167624D02*
Y165000D01*
Y166312D01*
X80221Y166968D01*
X79566Y167624D01*
X78910D01*
X76942Y165000D02*
X75630D01*
X76286D01*
Y167624D01*
X76942D01*
X71694Y165000D02*
X73006D01*
X73662Y165656D01*
Y166968D01*
X73006Y167624D01*
X71694D01*
X71038Y166968D01*
Y166312D01*
X73662D01*
X68414Y163688D02*
X67758D01*
X67102Y164344D01*
Y167624D01*
X69070D01*
X69726Y166968D01*
Y165656D01*
X69070Y165000D01*
X67102D01*
X65135D02*
X63823D01*
X63167Y165656D01*
Y166968D01*
X63823Y167624D01*
X65135D01*
X65790Y166968D01*
Y165656D01*
X65135Y165000D01*
X61855D02*
X59887D01*
X59231Y165656D01*
X59887Y166312D01*
X61199D01*
X61855Y166968D01*
X61199Y167624D01*
X59231D01*
X55772Y187500D02*
Y191436D01*
X53804D01*
X53148Y190780D01*
Y189468D01*
X53804Y188812D01*
X55772D01*
X54460D02*
X53148Y187500D01*
X51836D02*
Y188156D01*
X51180D01*
Y187500D01*
X51836D01*
X44620D02*
Y191436D01*
X42652D01*
X41997Y190780D01*
Y189468D01*
X42652Y188812D01*
X44620D01*
X40029Y190124D02*
X38717D01*
X38061Y189468D01*
Y187500D01*
X40029D01*
X40685Y188156D01*
X40029Y188812D01*
X38061D01*
X36749Y190124D02*
X34125D01*
X36749Y187500D01*
X34125D01*
X105804Y161436D02*
X107116D01*
X107772Y160780D01*
Y158156D01*
X107116Y157500D01*
X105804D01*
X105148Y158156D01*
Y160780D01*
X105804Y161436D01*
X103836Y157500D02*
Y158156D01*
X103180D01*
Y157500D01*
X103836D01*
X96620D02*
Y161436D01*
X94652D01*
X93997Y160780D01*
Y159468D01*
X94652Y158812D01*
X96620D01*
X95309D02*
X93997Y157500D01*
X90717D02*
X92029D01*
X92685Y158156D01*
Y159468D01*
X92029Y160124D01*
X90717D01*
X90061Y159468D01*
Y158812D01*
X92685D01*
X88749Y160124D02*
Y158156D01*
X88093Y157500D01*
X86125D01*
Y156844D01*
X86781Y156188D01*
X87437D01*
X86125Y157500D02*
Y160124D01*
X82845Y157500D02*
X84157D01*
X84813Y158156D01*
Y159468D01*
X84157Y160124D01*
X82845D01*
X82189Y159468D01*
Y158812D01*
X84813D01*
X80877Y157500D02*
X78910D01*
X78254Y158156D01*
X78910Y158812D01*
X80221D01*
X80877Y159468D01*
X80221Y160124D01*
X78254D01*
X107772Y150000D02*
Y153936D01*
X105804D01*
X105148Y153280D01*
Y151968D01*
X105804Y151312D01*
X107772D01*
X103836Y150000D02*
Y150656D01*
X103180D01*
Y150000D01*
X103836D01*
X96620D02*
Y152624D01*
X95309Y153936D01*
X93997Y152624D01*
Y150000D01*
Y151968D01*
X96620D01*
X92685Y152624D02*
Y150000D01*
Y151312D01*
X92029Y151968D01*
X91373Y152624D01*
X90717D01*
X86781Y150000D02*
X88093D01*
X88749Y150656D01*
Y151968D01*
X88093Y152624D01*
X86781D01*
X86125Y151968D01*
Y151312D01*
X88749D01*
X84813Y150000D02*
X83501D01*
X84157D01*
Y153936D01*
X84813D01*
X81533Y150000D02*
X80221D01*
X80877D01*
Y153936D01*
X81533D01*
X77598Y152624D02*
X76286D01*
X75630Y151968D01*
Y150000D01*
X77598D01*
X78254Y150656D01*
X77598Y151312D01*
X75630D01*
X74318Y150000D02*
Y152624D01*
X72350D01*
X71694Y151968D01*
Y150000D01*
X69726D02*
X68414D01*
X67758Y150656D01*
Y151968D01*
X68414Y152624D01*
X69726D01*
X70382Y151968D01*
Y150656D01*
X69726Y150000D01*
X107772Y142500D02*
Y146436D01*
X105804D01*
X105148Y145780D01*
Y144468D01*
X105804Y143812D01*
X107772D01*
X103836Y142500D02*
Y143156D01*
X103180D01*
Y142500D01*
X103836D01*
X94652Y146436D02*
X95964D01*
X96620Y145780D01*
Y143156D01*
X95964Y142500D01*
X94652D01*
X93997Y143156D01*
Y145780D01*
X94652Y146436D01*
X92685Y142500D02*
X91373D01*
X92029D01*
Y146436D01*
X92685D01*
X89405Y142500D02*
X88093D01*
X88749D01*
Y145124D01*
X89405D01*
X86125D02*
X84813Y142500D01*
X83501Y145124D01*
X81533D02*
X80221D01*
X79566Y144468D01*
Y142500D01*
X81533D01*
X82189Y143156D01*
X81533Y143812D01*
X79566D01*
X107772Y135000D02*
Y138936D01*
X105804D01*
X105148Y138280D01*
Y136968D01*
X105804Y136312D01*
X107772D01*
X103836Y135000D02*
Y135656D01*
X103180D01*
Y135000D01*
X103836D01*
X96620Y138936D02*
Y136312D01*
X95309Y135000D01*
X93997Y136312D01*
Y138936D01*
X92685Y135000D02*
X91373D01*
X92029D01*
Y137624D01*
X92685D01*
X87437Y135000D02*
X88749D01*
X89405Y135656D01*
Y136968D01*
X88749Y137624D01*
X87437D01*
X86781Y136968D01*
Y136312D01*
X89405D01*
X85469Y135000D02*
X84157D01*
X84813D01*
Y138936D01*
X85469D01*
X82189Y135000D02*
Y137624D01*
X81533D01*
X80877Y136968D01*
Y135000D01*
Y136968D01*
X80221Y137624D01*
X79566Y136968D01*
Y135000D01*
X77598Y137624D02*
X76286D01*
X75630Y136968D01*
Y135000D01*
X77598D01*
X78254Y135656D01*
X77598Y136312D01*
X75630D01*
X74318Y135000D02*
Y137624D01*
X72350D01*
X71694Y136968D01*
Y135000D01*
X55772Y232500D02*
Y236436D01*
X53804D01*
X53148Y235780D01*
Y234468D01*
X53804Y233812D01*
X55772D01*
X54460D02*
X53148Y232500D01*
X51836D02*
Y233156D01*
X51180D01*
Y232500D01*
X51836D01*
X44620D02*
Y235124D01*
X43308Y236436D01*
X41997Y235124D01*
Y232500D01*
Y234468D01*
X44620D01*
X40685Y235124D02*
Y232500D01*
Y233812D01*
X40029Y234468D01*
X39373Y235124D01*
X38717D01*
X36093D02*
X34781D01*
X34125Y234468D01*
Y232500D01*
X36093D01*
X36749Y233156D01*
X36093Y233812D01*
X34125D01*
X31501Y231188D02*
X30845D01*
X30189Y231844D01*
Y235124D01*
X32157D01*
X32813Y234468D01*
Y233156D01*
X32157Y232500D01*
X30189D01*
X28221D02*
X26910D01*
X26254Y233156D01*
Y234468D01*
X26910Y235124D01*
X28221D01*
X28877Y234468D01*
Y233156D01*
X28221Y232500D01*
X24942D02*
Y235124D01*
X22974D01*
X22318Y234468D01*
Y232500D01*
X55772Y225000D02*
Y228936D01*
X53804D01*
X53148Y228280D01*
Y226968D01*
X53804Y226312D01*
X55772D01*
X54460D02*
X53148Y225000D01*
X51836D02*
Y225656D01*
X51180D01*
Y225000D01*
X51836D01*
X44620D02*
Y227624D01*
X43308Y228936D01*
X41997Y227624D01*
Y225000D01*
Y226968D01*
X44620D01*
X40685Y227624D02*
Y225000D01*
Y226312D01*
X40029Y226968D01*
X39373Y227624D01*
X38717D01*
X36749D02*
Y225000D01*
Y226312D01*
X36093Y226968D01*
X35437Y227624D01*
X34781D01*
X32813Y225000D02*
X31501D01*
X32157D01*
Y227624D01*
X32813D01*
X28877D02*
X27566D01*
X26910Y226968D01*
Y225000D01*
X28877D01*
X29533Y225656D01*
X28877Y226312D01*
X26910D01*
X25598Y227624D02*
X22974D01*
X25598Y225000D01*
X22974D01*
X21006Y227624D02*
X19694D01*
X19038Y226968D01*
Y225000D01*
X21006D01*
X21662Y225656D01*
X21006Y226312D01*
X19038D01*
X55772Y217500D02*
Y221436D01*
X53804D01*
X53148Y220780D01*
Y219468D01*
X53804Y218812D01*
X55772D01*
X54460D02*
X53148Y217500D01*
X51836D02*
Y218156D01*
X51180D01*
Y217500D01*
X51836D01*
X44620D02*
Y220124D01*
X43308Y221436D01*
X41997Y220124D01*
Y217500D01*
Y219468D01*
X44620D01*
X40685Y220124D02*
X39373Y217500D01*
X38061Y220124D01*
X34781Y217500D02*
X36093D01*
X36749Y218156D01*
Y219468D01*
X36093Y220124D01*
X34781D01*
X34125Y219468D01*
Y218812D01*
X36749D01*
X32813Y217500D02*
X31501D01*
X32157D01*
Y221436D01*
X32813D01*
X28877Y220124D02*
X27566D01*
X26910Y219468D01*
Y217500D01*
X28877D01*
X29533Y218156D01*
X28877Y218812D01*
X26910D01*
X25598Y220124D02*
Y217500D01*
Y218812D01*
X24942Y219468D01*
X24286Y220124D01*
X23630D01*
X55772Y210000D02*
Y213936D01*
X53804D01*
X53148Y213280D01*
Y211968D01*
X53804Y211312D01*
X55772D01*
X54460D02*
X53148Y210000D01*
X51836D02*
Y210656D01*
X51180D01*
Y210000D01*
X51836D01*
X41997Y213280D02*
X42652Y213936D01*
X43964D01*
X44620Y213280D01*
Y210656D01*
X43964Y210000D01*
X42652D01*
X41997Y210656D01*
Y211968D01*
X43308D01*
X40685Y210000D02*
X39373D01*
X40029D01*
Y212624D01*
X40685D01*
X37405D02*
Y210000D01*
Y211312D01*
X36749Y211968D01*
X36093Y212624D01*
X35437D01*
X32813Y210000D02*
X31501D01*
X30845Y210656D01*
Y211968D01*
X31501Y212624D01*
X32813D01*
X33469Y211968D01*
Y210656D01*
X32813Y210000D01*
X29533D02*
Y212624D01*
X27566D01*
X26910Y211968D01*
Y210000D01*
X55772Y202500D02*
Y206436D01*
X53804D01*
X53148Y205780D01*
Y204468D01*
X53804Y203812D01*
X55772D01*
X54460D02*
X53148Y202500D01*
X51836D02*
Y203156D01*
X51180D01*
Y202500D01*
X51836D01*
X44620Y206436D02*
Y202500D01*
Y204468D01*
X41997D01*
Y206436D01*
Y202500D01*
X38717D02*
X40029D01*
X40685Y203156D01*
Y204468D01*
X40029Y205124D01*
X38717D01*
X38061Y204468D01*
Y203812D01*
X40685D01*
X36749Y205124D02*
Y202500D01*
Y203812D01*
X36093Y204468D01*
X35437Y205124D01*
X34781D01*
X32813D02*
Y202500D01*
Y203812D01*
X32157Y204468D01*
X31501Y205124D01*
X30845D01*
X28221D02*
X26910D01*
X26254Y204468D01*
Y202500D01*
X28221D01*
X28877Y203156D01*
X28221Y203812D01*
X26254D01*
X24942Y205124D02*
Y202500D01*
Y203812D01*
X24286Y204468D01*
X23630Y205124D01*
X22974D01*
X20350Y205780D02*
Y205124D01*
X21006D01*
X19694D01*
X20350D01*
Y203156D01*
X19694Y202500D01*
X15758D02*
X17070D01*
X17726Y203156D01*
Y204468D01*
X17070Y205124D01*
X15758D01*
X15102Y204468D01*
Y203812D01*
X17726D01*
X55772Y195000D02*
Y198936D01*
X53804D01*
X53148Y198280D01*
Y196968D01*
X53804Y196312D01*
X55772D01*
X54460D02*
X53148Y195000D01*
X51836D02*
Y195656D01*
X51180D01*
Y195000D01*
X51836D01*
X44620D02*
Y198936D01*
X43308Y197624D01*
X41997Y198936D01*
Y195000D01*
X40029Y197624D02*
X38717D01*
X38061Y196968D01*
Y195000D01*
X40029D01*
X40685Y195656D01*
X40029Y196312D01*
X38061D01*
X34125Y197624D02*
X36093D01*
X36749Y196968D01*
Y195656D01*
X36093Y195000D01*
X34125D01*
X32813Y197624D02*
X30189D01*
X32813Y195000D01*
X30189D01*
X55772Y180000D02*
Y183936D01*
X53804D01*
X53148Y183280D01*
Y181968D01*
X53804Y181312D01*
X55772D01*
X54460D02*
X53148Y180000D01*
X51836D02*
Y180656D01*
X51180D01*
Y180000D01*
X51836D01*
X44620D02*
Y183936D01*
X42652D01*
X41997Y183280D01*
Y181968D01*
X42652Y181312D01*
X44620D01*
X43308D02*
X41997Y180000D01*
X40029D02*
X38717D01*
X38061Y180656D01*
Y181968D01*
X38717Y182624D01*
X40029D01*
X40685Y181968D01*
Y180656D01*
X40029Y180000D01*
X36749D02*
X34781D01*
X34125Y180656D01*
X34781Y181312D01*
X36093D01*
X36749Y181968D01*
X36093Y182624D01*
X34125D01*
X32813Y180000D02*
X30845D01*
X30189Y180656D01*
X30845Y181312D01*
X32157D01*
X32813Y181968D01*
X32157Y182624D01*
X30189D01*
X28877Y180000D02*
X27566D01*
X28221D01*
Y182624D01*
X28877D01*
X25598Y180000D02*
Y182624D01*
X23630D01*
X22974Y181968D01*
Y180000D01*
X21006D02*
X19694D01*
X19038Y180656D01*
Y181968D01*
X19694Y182624D01*
X21006D01*
X21662Y181968D01*
Y180656D01*
X21006Y180000D01*
X53148Y175780D02*
X53804Y176436D01*
X55116D01*
X55772Y175780D01*
Y175124D01*
X55116Y174468D01*
X53804D01*
X53148Y173812D01*
Y173156D01*
X53804Y172500D01*
X55116D01*
X55772Y173156D01*
X51836Y172500D02*
Y173156D01*
X51180D01*
Y172500D01*
X51836D01*
X44620D02*
Y175124D01*
X43308Y176436D01*
X41997Y175124D01*
Y172500D01*
Y174468D01*
X44620D01*
X40685Y175124D02*
Y172500D01*
Y173812D01*
X40029Y174468D01*
X39373Y175124D01*
X38717D01*
X35437Y171188D02*
X34781D01*
X34125Y171844D01*
Y175124D01*
X36093D01*
X36749Y174468D01*
Y173156D01*
X36093Y172500D01*
X34125D01*
X32813Y175124D02*
Y173156D01*
X32157Y172500D01*
X30189D01*
Y175124D01*
X26910Y172500D02*
X28221D01*
X28877Y173156D01*
Y174468D01*
X28221Y175124D01*
X26910D01*
X26254Y174468D01*
Y173812D01*
X28877D01*
X24286Y175780D02*
Y175124D01*
X24942D01*
X23630D01*
X24286D01*
Y173156D01*
X23630Y172500D01*
X21006Y175124D02*
X19694D01*
X19038Y174468D01*
Y172500D01*
X21006D01*
X21662Y173156D01*
X21006Y173812D01*
X19038D01*
X53148Y168280D02*
X53804Y168936D01*
X55116D01*
X55772Y168280D01*
Y167624D01*
X55116Y166968D01*
X53804D01*
X53148Y166312D01*
Y165656D01*
X53804Y165000D01*
X55116D01*
X55772Y165656D01*
X51836Y165000D02*
Y165656D01*
X51180D01*
Y165000D01*
X51836D01*
X41997Y168280D02*
X42652Y168936D01*
X43964D01*
X44620Y168280D01*
Y167624D01*
X43964Y166968D01*
X42652D01*
X41997Y166312D01*
Y165656D01*
X42652Y165000D01*
X43964D01*
X44620Y165656D01*
X40029Y165000D02*
X38717D01*
X38061Y165656D01*
Y166968D01*
X38717Y167624D01*
X40029D01*
X40685Y166968D01*
Y165656D01*
X40029Y165000D01*
X36749D02*
X35437D01*
X36093D01*
Y168936D01*
X36749D01*
X32813Y165000D02*
X31501D01*
X30845Y165656D01*
Y166968D01*
X31501Y167624D01*
X32813D01*
X33469Y166968D01*
Y165656D01*
X32813Y165000D01*
X29533Y167624D02*
Y165000D01*
Y166312D01*
X28877Y166968D01*
X28221Y167624D01*
X27566D01*
X25598D02*
X22974D01*
X25598Y165000D01*
X22974D01*
X21006Y167624D02*
X19694D01*
X19038Y166968D01*
Y165000D01*
X21006D01*
X21662Y165656D01*
X21006Y166312D01*
X19038D01*
X17726Y165000D02*
Y167624D01*
X15758D01*
X15102Y166968D01*
Y165000D01*
X13135D02*
X11823D01*
X11167Y165656D01*
Y166968D01*
X11823Y167624D01*
X13135D01*
X13790Y166968D01*
Y165656D01*
X13135Y165000D01*
X55772Y161436D02*
Y158812D01*
X54460Y157500D01*
X53148Y158812D01*
Y161436D01*
X51836Y157500D02*
Y158156D01*
X51180D01*
Y157500D01*
X51836D01*
X44620D02*
Y160124D01*
X43308Y161436D01*
X41997Y160124D01*
Y157500D01*
Y159468D01*
X44620D01*
X40685Y160124D02*
Y158156D01*
X40029Y157500D01*
X38061D01*
Y156844D01*
X38717Y156188D01*
X39373D01*
X38061Y157500D02*
Y160124D01*
X34781Y157500D02*
X36093D01*
X36749Y158156D01*
Y159468D01*
X36093Y160124D01*
X34781D01*
X34125Y159468D01*
Y158812D01*
X36749D01*
X32813Y160124D02*
Y157500D01*
Y158812D01*
X32157Y159468D01*
X31501Y160124D01*
X30845D01*
X26254Y161436D02*
Y157500D01*
X28221D01*
X28877Y158156D01*
Y159468D01*
X28221Y160124D01*
X26254D01*
X24942Y157500D02*
X23630D01*
X24286D01*
Y160124D01*
X24942D01*
X75648Y91280D02*
X76304Y91936D01*
X77616D01*
X78272Y91280D01*
Y90624D01*
X77616Y89968D01*
X76304D01*
X75648Y89312D01*
Y88656D01*
X76304Y88000D01*
X77616D01*
X78272Y88656D01*
X72368Y91936D02*
X73680D01*
X74336Y91280D01*
Y88656D01*
X73680Y88000D01*
X72368D01*
X71712Y88656D01*
Y91280D01*
X72368Y91936D01*
X70400D02*
Y88000D01*
X67776D01*
X66464D02*
Y90624D01*
X65153Y91936D01*
X63841Y90624D01*
Y88000D01*
Y89968D01*
X66464D01*
X62529Y88000D02*
Y91936D01*
X60561D01*
X59905Y91280D01*
Y89968D01*
X60561Y89312D01*
X62529D01*
X61217D02*
X59905Y88000D01*
X126648Y91280D02*
X127304Y91936D01*
X128616D01*
X129272Y91280D01*
Y90624D01*
X128616Y89968D01*
X127304D01*
X126648Y89312D01*
Y88656D01*
X127304Y88000D01*
X128616D01*
X129272Y88656D01*
X125336Y91936D02*
Y88656D01*
X124680Y88000D01*
X123368D01*
X122712Y88656D01*
Y91936D01*
X121400Y88000D02*
Y91936D01*
X118776Y88000D01*
Y91936D01*
X110905Y91280D02*
X111561Y91936D01*
X112873D01*
X113529Y91280D01*
Y90624D01*
X112873Y89968D01*
X111561D01*
X110905Y89312D01*
Y88656D01*
X111561Y88000D01*
X112873D01*
X113529Y88656D01*
X106969Y91936D02*
X109593D01*
Y88000D01*
X106969D01*
X109593Y89968D02*
X108281D01*
X105657Y88000D02*
Y91936D01*
X103033Y88000D01*
Y91936D01*
X99098Y91280D02*
X99754Y91936D01*
X101066D01*
X101722Y91280D01*
Y90624D01*
X101066Y89968D01*
X99754D01*
X99098Y89312D01*
Y88656D01*
X99754Y88000D01*
X101066D01*
X101722Y88656D01*
X95818Y91936D02*
X97130D01*
X97786Y91280D01*
Y88656D01*
X97130Y88000D01*
X95818D01*
X95162Y88656D01*
Y91280D01*
X95818Y91936D01*
X93850Y88000D02*
Y91936D01*
X91882D01*
X91226Y91280D01*
Y89968D01*
X91882Y89312D01*
X93850D01*
X92538D02*
X91226Y88000D01*
X87290Y91280D02*
X87946Y91936D01*
X89258D01*
X89914Y91280D01*
Y90624D01*
X89258Y89968D01*
X87946D01*
X87290Y89312D01*
Y88656D01*
X87946Y88000D01*
X89258D01*
X89914Y88656D01*
X128535Y109293D02*
Y113229D01*
X126567D01*
X125912Y112573D01*
Y111261D01*
X126567Y110605D01*
X128535D01*
X121976Y109293D02*
X124600D01*
X121976Y111917D01*
Y112573D01*
X122632Y113229D01*
X123944D01*
X124600Y112573D01*
X87110Y109293D02*
Y113229D01*
X85142D01*
X84486Y112573D01*
Y111261D01*
X85142Y110605D01*
X87110D01*
X83175Y109293D02*
X81863D01*
X82519D01*
Y113229D01*
X83175Y112573D01*
D34*
X290316Y257156D02*
X292982D01*
Y253158D01*
X290316D01*
X292982Y255157D02*
X291649D01*
X286317Y256490D02*
X286984Y257156D01*
X288316D01*
X288983Y256490D01*
Y255823D01*
X288316Y255157D01*
X286984D01*
X286317Y254490D01*
Y253824D01*
X286984Y253158D01*
X288316D01*
X288983Y253824D01*
X284984Y257156D02*
X282318D01*
X283651D01*
Y253158D01*
X280985Y257156D02*
Y253824D01*
X280319Y253158D01*
X278986D01*
X278320Y253824D01*
Y257156D01*
X276987D02*
Y253158D01*
X274988D01*
X274321Y253824D01*
Y256490D01*
X274988Y257156D01*
X276987D01*
X272988D02*
X271655D01*
X272322D01*
Y253158D01*
X272988D01*
X271655D01*
X269656D02*
Y255823D01*
X268323Y257156D01*
X266990Y255823D01*
Y253158D01*
Y255157D01*
X269656D01*
X265657Y253158D02*
Y257156D01*
X262991Y253158D01*
Y257156D01*
X261658D02*
X258993D01*
X260326D01*
Y253158D01*
X254994Y257156D02*
X257660D01*
Y253158D01*
X254994D01*
X257660Y255157D02*
X256327D01*
X250995Y256490D02*
X251662Y257156D01*
X252994D01*
X253661Y256490D01*
Y255823D01*
X252994Y255157D01*
X251662D01*
X250995Y254490D01*
Y253824D01*
X251662Y253158D01*
X252994D01*
X253661Y253824D01*
X248996Y252491D02*
X248329Y253158D01*
Y253824D01*
X248996D01*
Y253158D01*
X248329D01*
X248996Y252491D01*
X249662Y251825D01*
X241665Y253158D02*
Y257156D01*
X239666D01*
X238999Y256490D01*
Y255157D01*
X239666Y254490D01*
X241665D01*
X237666Y253158D02*
Y257156D01*
X235667D01*
X235000Y256490D01*
Y255157D01*
X235667Y254490D01*
X237666D01*
X236333D02*
X235000Y253158D01*
X231668Y257156D02*
X233001D01*
X233667Y256490D01*
Y253824D01*
X233001Y253158D01*
X231668D01*
X231002Y253824D01*
Y256490D01*
X231668Y257156D01*
X227003D02*
X229669D01*
Y255157D01*
X228336D01*
X229669D01*
Y253158D01*
X223004Y257156D02*
X225670D01*
Y253158D01*
X223004D01*
X225670Y255157D02*
X224337D01*
X219005Y256490D02*
X219672Y257156D01*
X221005D01*
X221671Y256490D01*
Y255823D01*
X221005Y255157D01*
X219672D01*
X219005Y254490D01*
Y253824D01*
X219672Y253158D01*
X221005D01*
X221671Y253824D01*
X215673Y257156D02*
X217006D01*
X217673Y256490D01*
Y253824D01*
X217006Y253158D01*
X215673D01*
X215007Y253824D01*
Y256490D01*
X215673Y257156D01*
X213674Y253158D02*
Y257156D01*
X211674D01*
X211008Y256490D01*
Y255157D01*
X211674Y254490D01*
X213674D01*
X212341D02*
X211008Y253158D01*
X207009Y257156D02*
X209675D01*
Y253158D01*
X207009D01*
X209675Y255157D02*
X208342D01*
X203011Y256490D02*
X203677Y257156D01*
X205010D01*
X205677Y256490D01*
Y255823D01*
X205010Y255157D01*
X203677D01*
X203011Y254490D01*
Y253824D01*
X203677Y253158D01*
X205010D01*
X205677Y253824D01*
X201011Y252491D02*
X200345Y253158D01*
Y253824D01*
X201011D01*
Y253158D01*
X200345D01*
X201011Y252491D01*
X201678Y251825D01*
X193680Y257156D02*
X192348D01*
X193014D01*
Y253158D01*
X193680D01*
X192348D01*
X190348D02*
Y257156D01*
X187682Y253158D01*
Y257156D01*
X186349D02*
Y254490D01*
X185017Y253158D01*
X183684Y254490D01*
Y257156D01*
X179685D02*
X182351D01*
Y253158D01*
X179685D01*
X182351Y255157D02*
X181018D01*
X175686Y256490D02*
X176353Y257156D01*
X177685D01*
X178352Y256490D01*
Y255823D01*
X177685Y255157D01*
X176353D01*
X175686Y254490D01*
Y253824D01*
X176353Y253158D01*
X177685D01*
X178352Y253824D01*
X174353Y257156D02*
X171687D01*
X173020D01*
Y253158D01*
X170354Y257156D02*
X169022D01*
X169688D01*
Y253158D01*
X170354D01*
X169022D01*
X164357Y256490D02*
X165023Y257156D01*
X166356D01*
X167022Y256490D01*
Y253824D01*
X166356Y253158D01*
X165023D01*
X164357Y253824D01*
Y255157D01*
X165689D01*
X163024Y253158D02*
Y255823D01*
X161691Y257156D01*
X160358Y255823D01*
Y253158D01*
Y255157D01*
X163024D01*
X159025Y257156D02*
Y253158D01*
X157026D01*
X156359Y253824D01*
Y256490D01*
X157026Y257156D01*
X159025D01*
X153027D02*
X154360D01*
X155026Y256490D01*
Y253824D01*
X154360Y253158D01*
X153027D01*
X152360Y253824D01*
Y256490D01*
X153027Y257156D01*
X151027Y253158D02*
Y257156D01*
X149028D01*
X148362Y256490D01*
Y255157D01*
X149028Y254490D01*
X151027D01*
X149695D02*
X148362Y253158D01*
X144363Y257156D02*
X147029D01*
Y253158D01*
X144363D01*
X147029Y255157D02*
X145696D01*
X140364Y256490D02*
X141031Y257156D01*
X142364D01*
X143030Y256490D01*
Y255823D01*
X142364Y255157D01*
X141031D01*
X140364Y254490D01*
Y253824D01*
X141031Y253158D01*
X142364D01*
X143030Y253824D01*
X135033Y257156D02*
Y256490D01*
X133700Y255157D01*
X132367Y256490D01*
Y257156D01*
X133700Y255157D02*
Y253158D01*
X127035Y257156D02*
Y254490D01*
X125702Y253158D01*
X124369Y254490D01*
Y257156D01*
X121037D02*
X122370D01*
X123037Y256490D01*
Y253824D01*
X122370Y253158D01*
X121037D01*
X120371Y253824D01*
Y256490D01*
X121037Y257156D01*
X119038D02*
Y253158D01*
X116372D01*
X115039Y257156D02*
Y253824D01*
X114373Y253158D01*
X113040D01*
X112373Y253824D01*
Y257156D01*
X111040Y253158D02*
Y257156D01*
X108375Y253158D01*
Y257156D01*
X107042D02*
X104376D01*
X105709D01*
Y253158D01*
X103043D02*
Y255823D01*
X101710Y257156D01*
X100377Y255823D01*
Y253158D01*
Y255157D01*
X103043D01*
X99044Y253158D02*
Y257156D01*
X97045D01*
X96378Y256490D01*
Y255157D01*
X97045Y254490D01*
X99044D01*
X97711D02*
X96378Y253158D01*
X95046Y257156D02*
X93713D01*
X94379D01*
Y253158D01*
X95046D01*
X93713D01*
X89714Y257156D02*
X91047D01*
X91713Y256490D01*
Y253824D01*
X91047Y253158D01*
X89714D01*
X89047Y253824D01*
Y256490D01*
X89714Y257156D01*
X85049Y256490D02*
X85715Y257156D01*
X87048D01*
X87714Y256490D01*
Y255823D01*
X87048Y255157D01*
X85715D01*
X85049Y254490D01*
Y253824D01*
X85715Y253158D01*
X87048D01*
X87714Y253824D01*
X79717Y257156D02*
Y253158D01*
X77718D01*
X77051Y253824D01*
Y256490D01*
X77718Y257156D01*
X79717D01*
X73053D02*
X75718D01*
Y253158D01*
X73053D01*
X75718Y255157D02*
X74385D01*
X67721Y257156D02*
Y253158D01*
X65055D01*
X63722D02*
Y255823D01*
X62389Y257156D01*
X61057Y255823D01*
Y253158D01*
Y255157D01*
X63722D01*
X55725Y257156D02*
Y253824D01*
X55058Y253158D01*
X53725D01*
X53059Y253824D01*
Y257156D01*
X51726D02*
Y254490D01*
X50393Y253158D01*
X49060Y254490D01*
Y257156D01*
X45062Y256490D02*
X45728Y257156D01*
X47061D01*
X47727Y256490D01*
Y253824D01*
X47061Y253158D01*
X45728D01*
X45062Y253824D01*
Y255157D01*
X46395D01*
X295648Y247106D02*
Y249771D01*
X296314Y250438D01*
X297647D01*
X298313Y249771D01*
Y247106D01*
X297647Y246439D01*
X296314D01*
X296980Y247772D02*
X295648Y246439D01*
X296314D02*
X295648Y247106D01*
X294315Y250438D02*
Y247106D01*
X293648Y246439D01*
X292315D01*
X291649Y247106D01*
Y250438D01*
X287650D02*
X290316D01*
Y246439D01*
X287650D01*
X290316Y248439D02*
X288983D01*
X282318Y250438D02*
X279653D01*
X280985D01*
Y246439D01*
X278320D02*
Y250438D01*
X276320D01*
X275654Y249771D01*
Y248439D01*
X276320Y247772D01*
X278320D01*
X276987D02*
X275654Y246439D01*
X274321D02*
Y249105D01*
X272988Y250438D01*
X271655Y249105D01*
Y246439D01*
Y248439D01*
X274321D01*
X270322Y250438D02*
Y246439D01*
X268323D01*
X267656Y247106D01*
Y247772D01*
X268323Y248439D01*
X270322D01*
X268323D01*
X267656Y249105D01*
Y249771D01*
X268323Y250438D01*
X270322D01*
X266324Y246439D02*
Y249105D01*
X264991Y250438D01*
X263658Y249105D01*
Y246439D01*
Y248439D01*
X266324D01*
X259659Y250438D02*
X260992D01*
X260326D01*
Y247106D01*
X260992Y246439D01*
X261658D01*
X262325Y247106D01*
X258326Y246439D02*
Y249105D01*
X256993Y250438D01*
X255660Y249105D01*
Y246439D01*
Y248439D01*
X258326D01*
X254327Y246439D02*
Y250438D01*
X252328D01*
X251662Y249771D01*
Y248439D01*
X252328Y247772D01*
X254327D01*
X252994D02*
X251662Y246439D01*
X248329Y250438D02*
X249662D01*
X250329Y249771D01*
Y247106D01*
X249662Y246439D01*
X248329D01*
X247663Y247106D01*
Y249771D01*
X248329Y250438D01*
X246330Y246439D02*
Y250438D01*
X243664Y246439D01*
Y250438D01*
X235667D02*
X238333D01*
Y246439D01*
X235667D01*
X238333Y248439D02*
X237000D01*
X234334Y246439D02*
Y250438D01*
X231668Y246439D01*
Y250438D01*
X226337D02*
Y246439D01*
X223671D01*
X222338D02*
Y249105D01*
X221005Y250438D01*
X219672Y249105D01*
Y246439D01*
Y248439D01*
X222338D01*
X211674Y249771D02*
X212341Y250438D01*
X213674D01*
X214340Y249771D01*
Y247106D01*
X213674Y246439D01*
X212341D01*
X211674Y247106D01*
X208342Y250438D02*
X209675D01*
X210342Y249771D01*
Y247106D01*
X209675Y246439D01*
X208342D01*
X207676Y247106D01*
Y249771D01*
X208342Y250438D01*
X206343Y246439D02*
Y250438D01*
X203677Y246439D01*
Y250438D01*
X199678Y249771D02*
X200345Y250438D01*
X201678D01*
X202344Y249771D01*
Y249105D01*
X201678Y248439D01*
X200345D01*
X199678Y247772D01*
Y247106D01*
X200345Y246439D01*
X201678D01*
X202344Y247106D01*
X198345Y250438D02*
X195680D01*
X197013D01*
Y246439D01*
X194347D02*
Y250438D01*
X192348D01*
X191681Y249771D01*
Y248439D01*
X192348Y247772D01*
X194347D01*
X193014D02*
X191681Y246439D01*
X190348Y250438D02*
Y247106D01*
X189682Y246439D01*
X188349D01*
X187682Y247106D01*
Y250438D01*
X183684Y249771D02*
X184350Y250438D01*
X185683D01*
X186349Y249771D01*
Y247106D01*
X185683Y246439D01*
X184350D01*
X183684Y247106D01*
X179685Y249771D02*
X180351Y250438D01*
X181684D01*
X182351Y249771D01*
Y247106D01*
X181684Y246439D01*
X180351D01*
X179685Y247106D01*
X178352Y250438D02*
X177019D01*
X177685D01*
Y246439D01*
X178352D01*
X177019D01*
X173020Y250438D02*
X174353D01*
X175020Y249771D01*
Y247106D01*
X174353Y246439D01*
X173020D01*
X172354Y247106D01*
Y249771D01*
X173020Y250438D01*
X171021Y246439D02*
Y250438D01*
X168355Y246439D01*
Y250438D01*
X163024D02*
Y246439D01*
X161024D01*
X160358Y247106D01*
Y249771D01*
X161024Y250438D01*
X163024D01*
X156359D02*
X159025D01*
Y246439D01*
X156359D01*
X159025Y248439D02*
X157692D01*
X155026Y250438D02*
Y246439D01*
X152360D01*
X147029D02*
Y250438D01*
X145029D01*
X144363Y249771D01*
Y248439D01*
X145029Y247772D01*
X147029D01*
X143030Y246439D02*
Y250438D01*
X141031D01*
X140364Y249771D01*
Y248439D01*
X141031Y247772D01*
X143030D01*
X141697D02*
X140364Y246439D01*
X139031Y250438D02*
X137698D01*
X138365D01*
Y246439D01*
X139031D01*
X137698D01*
X135699D02*
Y250438D01*
X134366Y249105D01*
X133033Y250438D01*
Y246439D01*
X129034Y250438D02*
X131700D01*
Y246439D01*
X129034D01*
X131700Y248439D02*
X130367D01*
X127702Y246439D02*
Y250438D01*
X125702D01*
X125036Y249771D01*
Y248439D01*
X125702Y247772D01*
X127702D01*
X126369D02*
X125036Y246439D01*
X117038Y249771D02*
X117705Y250438D01*
X119038D01*
X119704Y249771D01*
Y249105D01*
X119038Y248439D01*
X117705D01*
X117038Y247772D01*
Y247106D01*
X117705Y246439D01*
X119038D01*
X119704Y247106D01*
X115706Y246439D02*
Y249105D01*
X114373Y250438D01*
X113040Y249105D01*
Y246439D01*
Y248439D01*
X115706D01*
X111707Y250438D02*
X109041D01*
X110374D01*
Y246439D01*
X105042Y250438D02*
X107708D01*
Y246439D01*
X105042D01*
X107708Y248439D02*
X106375D01*
X103709Y250438D02*
Y246439D01*
X101044D01*
X99711Y250438D02*
X98378D01*
X99044D01*
Y246439D01*
X99711D01*
X98378D01*
X96378Y250438D02*
X93713D01*
X95046D01*
Y246439D01*
X89714Y250438D02*
X92380D01*
Y246439D01*
X89714D01*
X92380Y248439D02*
X91047D01*
X81717Y249771D02*
X82383Y250438D01*
X83716D01*
X84382Y249771D01*
Y247106D01*
X83716Y246439D01*
X82383D01*
X81717Y247106D01*
Y248439D01*
X83049D01*
X80384Y250438D02*
Y247106D01*
X79717Y246439D01*
X78384D01*
X77718Y247106D01*
Y250438D01*
X76385Y246439D02*
Y249105D01*
X75052Y250438D01*
X73719Y249105D01*
Y246439D01*
Y248439D01*
X76385D01*
X72386Y250438D02*
X69720D01*
X71053D01*
Y246439D01*
X65722Y250438D02*
X68387D01*
Y246439D01*
X65722D01*
X68387Y248439D02*
X67054D01*
X64389Y246439D02*
Y250438D01*
X63056Y249105D01*
X61723Y250438D01*
Y246439D01*
X60390D02*
Y249105D01*
X59057Y250438D01*
X57724Y249105D01*
Y246439D01*
Y248439D01*
X60390D01*
X56391Y250438D02*
Y246439D01*
X53725D01*
X52393Y250438D02*
X49727D01*
X51060D01*
Y246439D01*
X45728Y250438D02*
X48394D01*
Y246439D01*
X45728D01*
X48394Y248439D02*
X47061D01*
X41729Y249771D02*
X42396Y250438D01*
X43729D01*
X44395Y249771D01*
Y247106D01*
X43729Y246439D01*
X42396D01*
X41729Y247106D01*
X38397Y250438D02*
X39730D01*
X40396Y249771D01*
Y247106D01*
X39730Y246439D01*
X38397D01*
X37731Y247106D01*
Y249771D01*
X38397Y250438D01*
X36398Y249105D02*
X35731D01*
Y248439D01*
X36398D01*
Y249105D01*
Y247106D02*
X35731D01*
Y246439D01*
X36398D01*
Y247106D01*
D35*
X48772Y106307D02*
X40900Y94500D01*
Y106307D02*
X48772Y94500D01*
X36964Y100404D02*
X29093D01*
D36*
X193917Y23950D02*
Y33947D01*
X188919D01*
X187253Y32281D01*
Y28949D01*
X188919Y27283D01*
X193917D01*
X183921Y23950D02*
X177256Y30615D01*
X173924Y23950D02*
Y33947D01*
X167259Y23950D01*
Y33947D01*
X163927Y30615D02*
X162261D01*
Y28949D01*
X163927D01*
Y30615D01*
Y25616D02*
X162261D01*
Y23950D01*
X163927D01*
Y25616D01*
X145600Y23950D02*
Y33947D01*
X140601D01*
X138935Y32281D01*
Y28949D01*
X140601Y27283D01*
X145600D01*
X135603Y33947D02*
X128938D01*
X132271D01*
Y23950D01*
X125606Y28949D02*
X118941D01*
X115609Y23950D02*
Y33947D01*
X112277Y30615D01*
X108945Y33947D01*
Y23950D01*
X105613Y33947D02*
X102280D01*
X103946D01*
Y23950D01*
X105613D01*
X102280D01*
X90617Y32281D02*
X92283Y33947D01*
X95616D01*
X97282Y32281D01*
Y30615D01*
X95616Y28949D01*
X92283D01*
X90617Y27283D01*
Y25616D01*
X92283Y23950D01*
X95616D01*
X97282Y25616D01*
X87285Y28949D02*
X80621D01*
X77288Y23950D02*
Y33947D01*
X72290D01*
X70624Y32281D01*
Y28949D01*
X72290Y27283D01*
X77288D01*
X60627Y32281D02*
X62293Y33947D01*
X65625D01*
X67291Y32281D01*
Y25616D01*
X65625Y23950D01*
X62293D01*
X60627Y25616D01*
X57295Y33947D02*
Y23950D01*
X52296D01*
X50630Y25616D01*
Y27283D01*
X52296Y28949D01*
X57295D01*
X52296D01*
X50630Y30615D01*
Y32281D01*
X52296Y33947D01*
X57295D01*
X47298Y28949D02*
X40633D01*
X37301Y32281D02*
X35635Y33947D01*
X32303D01*
X30637Y32281D01*
Y25616D01*
X32303Y23950D01*
X35635D01*
X37301Y25616D01*
Y32281D01*
X27305D02*
X25638Y33947D01*
X22306D01*
X20640Y32281D01*
Y25616D01*
X22306Y23950D01*
X25638D01*
X27305Y25616D01*
Y32281D01*
X17308D02*
X15642Y33947D01*
X12309D01*
X10643Y32281D01*
Y30615D01*
X12309Y28949D01*
X10643Y27283D01*
Y25616D01*
X12309Y23950D01*
X15642D01*
X17308Y25616D01*
Y27283D01*
X15642Y28949D01*
X17308Y30615D01*
Y32281D01*
X15642Y28949D02*
X12309D01*
M02*
