M48
;Layer_Color=9474304
;FILE_FORMAT=2:5
INCH,LZ
;TYPE=PLATED
T2F00S00C0.01000
T3F00S00C0.30000
;TYPE=NON_PLATED
T1F00S00C0.09843
%
T02
X0050724Y0020136
X0053224
X0055724
X0058224
X0060724
X0063224
X01185Y0013201
X0121
X01235
X0126
X01285
X0131
X0194
X01965
X0199
X02015
X0204
X02065
X0192724Y0191136
X0212224Y0204136
X0214724
X0217224
Y0206636
Y0209136
X0214724
Y0206636
X0212224
Y0209136
X0149421Y0191333
X0133673Y0191187
X0082724Y0199551
X0080224
X0077724
X0075224
X0072724
X0070224
X0062724
X0060224
X0057724
X0055224
X0052724
X0050224
T03
X0163323Y0105663
X0242535
X0084114
X0084112Y0291663
X0163323
X0242533
T01
X0059055Y0010043
X0267717Y0010043
X0279527Y0380122
X0047244
M30
