M48
;Layer_Color=9474304
;FILE_FORMAT=2:5
INCH,LZ
;TYPE=PLATED
T1F00S00C0.01000
T2F00S00C0.30000
;TYPE=NON_PLATED
T3F00S00C0.09843
%
T01
X0050724Y0020136
X0053224
X0055724
X0058224
X0060724
X0063224
X01185Y0013201
X0121
X01235
X0126
X01285
X0131
X0194
X01965
X0199
X02015
X0204
X02065
X03195Y01895
X03165Y0201
X0314961Y0205961
X02825Y0196118
X0272303Y0191197
X0269961Y0205961
X0254Y0195
Y01925
Y019
X0217224Y0204136
Y0206636
Y0209136
X0214724
Y0206636
Y0204136
X0212224
Y0206636
Y0209136
X0192724Y0191136
X0149421Y0191333
X0133673Y0191187
X0082724Y0199551
X0080224
X0077724
X0075224
X0072724
X0070224
X0062724
X0060224
X0057724
X0055224
X0052724
X0050224
X0274882Y0210882
X0282303Y0215803
X02825Y0220724
X0314Y022115
Y0219
Y02235
X03135Y023
X0311
X03085
X0314961Y0210882
T02
X0163323Y0105663
X0242535
X0084114
X0084112Y0291663
X0163323
X0242533
T03
X0059055Y0010043
X0267717Y0010043
X0279527Y0380122
X0047244
M30
