G04*
G04 #@! TF.GenerationSoftware,Altium Limited,Altium Designer,19.0.15 (446)*
G04*
G04 Layer_Color=32896*
%FSLAX25Y25*%
%MOIN*%
G70*
G01*
G75*
%ADD11C,0.00591*%
%ADD12C,0.00984*%
%ADD13C,0.01000*%
%ADD14C,0.00787*%
%ADD115C,0.00500*%
%ADD116C,0.02362*%
%ADD117C,0.00075*%
%ADD118C,0.00394*%
%ADD119C,0.01181*%
%ADD120R,0.96513X0.10500*%
G36*
X11394Y37602D02*
X12575D01*
Y36421D01*
X12772Y36224D01*
X12181D01*
X11787Y36618D01*
X11394Y37602D01*
D02*
G37*
G36*
X82875Y275549D02*
X82106Y273435D01*
X81337Y271513D01*
X80665Y269687D01*
X80088Y267957D01*
X79415Y266323D01*
X78935Y264881D01*
X78358Y263439D01*
X77877Y262190D01*
X77397Y261037D01*
X77012Y259883D01*
X76244Y257961D01*
X75667Y256423D01*
X75090Y255078D01*
X74706Y254117D01*
X74418Y253252D01*
X74129Y252675D01*
X73937Y252291D01*
X73841Y252002D01*
X73745Y251906D01*
Y251810D01*
X68939D01*
X60001Y275165D01*
Y275549D01*
X60097Y275645D01*
X60193Y275742D01*
X64807D01*
X64903Y275645D01*
X64999Y275549D01*
X65191Y274973D01*
X65575Y274108D01*
X65960Y272954D01*
X66440Y271609D01*
X67017Y270071D01*
X67594Y268437D01*
X68170Y266803D01*
X68747Y265073D01*
X69228Y263439D01*
X69804Y261902D01*
X70189Y260556D01*
X70573Y259403D01*
X70862Y258538D01*
X71054Y257961D01*
X71150Y257865D01*
Y257769D01*
X71534D01*
X72111Y259403D01*
X72592Y260941D01*
X73072Y262382D01*
X73457Y263728D01*
X74322Y266130D01*
X74994Y268149D01*
X75571Y269879D01*
X76148Y271321D01*
X76532Y272570D01*
X76916Y273531D01*
X77205Y274204D01*
X77397Y274780D01*
X77589Y275165D01*
X77685Y275453D01*
X77781Y275645D01*
X77877Y275742D01*
X82683D01*
X82875Y275549D01*
D02*
G37*
G36*
X104500Y275357D02*
Y262671D01*
X104404Y260652D01*
X104019Y258922D01*
X103539Y257481D01*
X102962Y256135D01*
X102193Y255078D01*
X101328Y254213D01*
X100367Y253444D01*
X99406Y252867D01*
X98541Y252387D01*
X97580Y252002D01*
X96715Y251810D01*
X95946Y251618D01*
X95370Y251522D01*
X94793Y251426D01*
X93832D01*
X92198Y251522D01*
X91429Y251618D01*
X90660Y251810D01*
X90083Y251906D01*
X89603Y252002D01*
X89315Y252098D01*
X89218D01*
X88257Y252579D01*
X87392Y253252D01*
X86720Y253924D01*
X86047Y254597D01*
X85470Y255366D01*
X85086Y256135D01*
X84413Y257673D01*
X84029Y259115D01*
X83836Y260364D01*
X83740Y260748D01*
Y261133D01*
Y261325D01*
Y261421D01*
Y275357D01*
X84029Y275742D01*
X88065D01*
X88354Y275357D01*
Y264881D01*
X88738Y259499D01*
X89315Y258249D01*
X90083Y257288D01*
X90948Y256712D01*
X91813Y256231D01*
X92582Y255943D01*
X93255Y255847D01*
X93640Y255751D01*
X93832D01*
X94889Y255847D01*
X95754Y256039D01*
X96523Y256327D01*
X97196Y256808D01*
X97676Y257288D01*
X98157Y257865D01*
X98830Y259018D01*
X99310Y260268D01*
X99502Y261229D01*
X99598Y261709D01*
Y261998D01*
Y262190D01*
Y262286D01*
Y275357D01*
X99887Y275742D01*
X104212D01*
X104500Y275357D01*
D02*
G37*
G36*
X51832Y275742D02*
X53466Y275165D01*
X54907Y274492D01*
X56157Y273723D01*
X57214Y272858D01*
X58079Y271897D01*
X58848Y270936D01*
X59521Y269879D01*
X60001Y268918D01*
X60386Y267957D01*
X60674Y267092D01*
X60866Y266227D01*
X60962Y265458D01*
X61058Y264881D01*
X61154Y264401D01*
Y264112D01*
Y264016D01*
Y263536D01*
X61058Y261517D01*
X60866Y260652D01*
X60674Y259883D01*
X60578Y259211D01*
X60386Y258730D01*
X60289Y258442D01*
Y258346D01*
X59713Y257096D01*
X59040Y256039D01*
X58175Y255174D01*
X57310Y254309D01*
X56349Y253636D01*
X55388Y253156D01*
X54331Y252675D01*
X53369Y252291D01*
X51543Y251810D01*
X50678Y251618D01*
X49909Y251522D01*
X49333D01*
X48852Y251426D01*
X48083D01*
X46161Y251522D01*
X44624Y251810D01*
X43182Y252291D01*
X42125Y252771D01*
X41260Y253156D01*
X40683Y253636D01*
X40299Y253924D01*
X40202Y254021D01*
Y264881D01*
X40491Y265169D01*
X48468D01*
X48756Y264881D01*
Y261421D01*
X44816D01*
Y256423D01*
X44912Y256231D01*
X45296Y256039D01*
X45873Y255943D01*
X46450Y255847D01*
X47026D01*
X47603Y255751D01*
X48083D01*
X49141Y255847D01*
X49813D01*
X50390Y255943D01*
X50775Y256039D01*
X50967Y256135D01*
X51063D01*
X51159Y256231D01*
X52024Y256616D01*
X52793Y257000D01*
X53466Y257481D01*
X54042Y258057D01*
X54907Y259211D01*
X55484Y260556D01*
X55868Y261709D01*
X56061Y262671D01*
X56157Y263055D01*
Y263343D01*
Y263536D01*
Y263632D01*
X55868Y266419D01*
X55484Y267380D01*
X55003Y268245D01*
X54427Y268918D01*
X53850Y269494D01*
X52601Y270456D01*
X51447Y271128D01*
X50294Y271513D01*
X49333Y271705D01*
X48948Y271801D01*
X48468D01*
X47122Y271705D01*
X45873Y271513D01*
X44816Y271224D01*
X43855Y270840D01*
X43086Y270456D01*
X42509Y270167D01*
X42125Y269975D01*
X42028Y269879D01*
X41836Y270071D01*
X41548Y270456D01*
X41260Y271032D01*
X40875Y271705D01*
X40587Y272282D01*
X40299Y272858D01*
X40106Y273243D01*
X40010Y273435D01*
X41260Y274300D01*
X42509Y274973D01*
X43758Y275357D01*
X44912Y275742D01*
X45969Y275934D01*
X46834Y276030D01*
X48756D01*
X51832Y275742D01*
D02*
G37*
G36*
X104500Y247870D02*
X104212Y247485D01*
X40202D01*
X40010Y247677D01*
X40299Y247966D01*
X104404D01*
X104500Y247870D01*
D02*
G37*
G36*
X97100Y243160D02*
Y236625D01*
X96811Y236336D01*
X96427Y236625D01*
Y242007D01*
X96331D01*
X95658Y241046D01*
X94985Y240277D01*
X94505Y239508D01*
X94024Y238931D01*
X93255Y237874D01*
X92582Y237201D01*
X92198Y236721D01*
X92006Y236529D01*
X91813Y236336D01*
X91621D01*
X91333Y236625D01*
Y243160D01*
X91621Y243545D01*
X92006Y243160D01*
Y237682D01*
X96619Y243545D01*
X96811D01*
X97100Y243160D01*
D02*
G37*
G36*
X87873Y243352D02*
X87392Y242103D01*
X87008Y241046D01*
X86624Y240085D01*
X86239Y239316D01*
X85951Y238643D01*
X85759Y238066D01*
X85470Y237586D01*
X85278Y237201D01*
X85086Y236721D01*
X84894Y236433D01*
X84798Y236336D01*
X84605D01*
X84413Y236529D01*
X84221Y236913D01*
X83740Y237778D01*
X83260Y238931D01*
X82683Y240181D01*
X82203Y241334D01*
X81818Y242391D01*
X81626Y242776D01*
X81530Y243064D01*
X81434Y243256D01*
Y243352D01*
X81626D01*
X81818Y243545D01*
X82010D01*
X82106Y243449D01*
X82203Y243256D01*
X82395Y242968D01*
X82587Y242584D01*
X82971Y241526D01*
X83452Y240469D01*
X83836Y239316D01*
X84221Y238259D01*
X84413Y237874D01*
X84509Y237586D01*
X84605Y237394D01*
Y237298D01*
X84798D01*
X85182Y238355D01*
X85470Y239316D01*
X85855Y240181D01*
X86047Y240950D01*
X86335Y241526D01*
X86527Y242007D01*
X86816Y242776D01*
X87104Y243256D01*
X87200Y243449D01*
X87296Y243545D01*
X87681D01*
X87873Y243352D01*
D02*
G37*
G36*
X104500Y243160D02*
Y239604D01*
X104404Y238451D01*
X104019Y237586D01*
X103539Y237009D01*
X103058Y236625D01*
X102482Y236336D01*
X102097Y236240D01*
X101713Y236144D01*
X101617D01*
X100656Y236336D01*
X99983Y236625D01*
X99406Y237105D01*
X99118Y237586D01*
X98926Y238066D01*
X98733Y238451D01*
Y238739D01*
Y238835D01*
Y243160D01*
X99022Y243545D01*
X99406Y243160D01*
Y239220D01*
X99502Y238547D01*
X99695Y237970D01*
X100079Y237490D01*
X100367Y237201D01*
X100752Y237009D01*
X101136Y236913D01*
X101328Y236817D01*
X101425D01*
X102193Y236913D01*
X102770Y237298D01*
X103251Y237778D01*
X103539Y238259D01*
X103731Y238835D01*
X103827Y239220D01*
Y239604D01*
Y239700D01*
Y243160D01*
X104212Y243545D01*
X104500Y243160D01*
D02*
G37*
G36*
X89603D02*
Y236625D01*
X89218Y236336D01*
X88930Y236625D01*
Y243160D01*
X89218Y243545D01*
X89603Y243160D01*
D02*
G37*
G36*
X80665D02*
Y236625D01*
X80280Y236336D01*
X76340D01*
X75955Y236625D01*
X76340Y237009D01*
X79607D01*
X79896Y237298D01*
Y239604D01*
X76628D01*
X76340Y239893D01*
X76628Y240277D01*
X79896D01*
Y242488D01*
X79607Y242872D01*
X76340D01*
X75955Y243160D01*
X76340Y243545D01*
X80280D01*
X80665Y243160D01*
D02*
G37*
G36*
X74802D02*
Y236625D01*
X74418Y236336D01*
X74033Y236625D01*
Y239220D01*
X72495D01*
X70093Y236336D01*
X69804D01*
X69612Y236433D01*
X71342Y239028D01*
Y239412D01*
X70862Y239508D01*
X70573Y239700D01*
X70093Y240469D01*
X69804Y241142D01*
Y241334D01*
Y241430D01*
X69997Y242103D01*
X70381Y242680D01*
X71054Y243064D01*
X71727Y243256D01*
X72495Y243449D01*
X73168Y243545D01*
X74418D01*
X74802Y243160D01*
D02*
G37*
G36*
X62500Y236625D02*
X62212Y236336D01*
X61827Y236625D01*
Y243160D01*
X62212Y243545D01*
X62500D01*
Y236625D01*
D02*
G37*
G36*
X60097Y243160D02*
Y236625D01*
X59809Y236336D01*
X58271D01*
X57502Y236433D01*
X56829Y236529D01*
X55772Y236913D01*
X55003Y237298D01*
X54523Y237778D01*
X54138Y238259D01*
X54042Y238643D01*
X53946Y238931D01*
Y239028D01*
Y240757D01*
X54042Y241238D01*
X54138Y241719D01*
X54811Y242391D01*
X55580Y242872D01*
X56541Y243160D01*
X57598Y243449D01*
X58367Y243545D01*
X59809D01*
X60097Y243160D01*
D02*
G37*
G36*
X50582Y243352D02*
X50775Y243064D01*
X51255Y242103D01*
X51736Y240950D01*
X52312Y239700D01*
X52793Y238451D01*
X53177Y237394D01*
X53369Y237009D01*
X53466Y236721D01*
X53562Y236529D01*
Y236433D01*
X53466D01*
X53273Y236336D01*
X53081D01*
X52889Y236433D01*
X52697Y236721D01*
X52504Y237105D01*
X52408Y237586D01*
X52216Y237970D01*
X52120Y238355D01*
X52024Y238643D01*
Y238739D01*
X48948D01*
X48660Y237970D01*
X48372Y237394D01*
X48180Y236913D01*
X47987Y236625D01*
X47891Y236433D01*
X47795Y236336D01*
X47411D01*
X47218Y236433D01*
X47699Y237586D01*
X48083Y238547D01*
X48468Y239412D01*
X48756Y240181D01*
X49044Y240854D01*
X49333Y241430D01*
X49717Y242391D01*
X50006Y242968D01*
X50198Y243352D01*
X50294Y243545D01*
X50486D01*
X50582Y243352D01*
D02*
G37*
G36*
X46353Y243160D02*
Y236625D01*
X46065Y236336D01*
X43374D01*
X42797Y236433D01*
X41740Y236817D01*
X40971Y237394D01*
X40491Y237970D01*
X40202Y238547D01*
X40106Y239124D01*
X40010Y239508D01*
Y239604D01*
Y240469D01*
X40106Y241046D01*
X40299Y241526D01*
X40587Y241911D01*
X40875Y242295D01*
X41836Y242776D01*
X42893Y243160D01*
X44047Y243352D01*
X44912Y243545D01*
X46065D01*
X46353Y243160D01*
D02*
G37*
G36*
X67113Y243449D02*
X67594Y243352D01*
X68266Y242968D01*
X68651Y242488D01*
X68747Y242391D01*
Y242295D01*
Y241142D01*
X68074Y240277D01*
X66921Y239796D01*
X66056Y239412D01*
X65479Y239028D01*
X64999Y238739D01*
X64807Y238547D01*
X64710Y238355D01*
X64614Y238162D01*
X64710Y237778D01*
X64903Y237490D01*
X65575Y237105D01*
X66248Y236913D01*
X66440Y236817D01*
X66536D01*
X67209Y236913D01*
X67786Y237201D01*
X68363Y237394D01*
X68459Y237490D01*
X68555D01*
X68939Y237009D01*
X68843Y236817D01*
X68555Y236721D01*
X68170Y236529D01*
X67786Y236433D01*
X67401Y236336D01*
X67017Y236240D01*
X66729Y236144D01*
X66633D01*
X65768Y236240D01*
X65095Y236529D01*
X64614Y236817D01*
X64230Y237201D01*
X64038Y237490D01*
X63942Y237778D01*
Y237970D01*
Y238066D01*
Y238739D01*
X64422Y239604D01*
X65672Y240085D01*
X66536Y240469D01*
X67209Y240757D01*
X67594Y241046D01*
X67882Y241238D01*
X67978Y241334D01*
X68074Y241430D01*
Y241622D01*
X67978Y242007D01*
X67882Y242391D01*
X67305Y242680D01*
X66825Y242872D01*
X65864D01*
X64807Y242488D01*
X64422Y242584D01*
X64326Y242680D01*
X64230Y242776D01*
Y242872D01*
X64422Y243064D01*
X64614Y243256D01*
X65191Y243449D01*
X65672Y243545D01*
X66633D01*
X67113Y243449D01*
D02*
G37*
G36*
X77109Y231723D02*
X76628Y230281D01*
X76148Y229032D01*
X75763Y227975D01*
X75379Y227110D01*
X75090Y226341D01*
X74802Y225668D01*
X74610Y225188D01*
X74418Y224803D01*
X74225Y224515D01*
X74033Y224227D01*
X73937Y224034D01*
X73360D01*
X73264Y224131D01*
X73168Y224419D01*
X72976Y224899D01*
X72688Y225476D01*
X72399Y226149D01*
X72111Y226918D01*
X71438Y228552D01*
X70765Y230185D01*
X70477Y230954D01*
X70189Y231627D01*
X69900Y232204D01*
X69804Y232684D01*
X69612Y232973D01*
Y233069D01*
X69900Y233357D01*
X70285D01*
X70381Y233261D01*
X70573Y232973D01*
X70765Y232588D01*
X70958Y232108D01*
X71438Y230762D01*
X72015Y229320D01*
X72592Y227879D01*
X73072Y226533D01*
X73264Y226053D01*
X73457Y225668D01*
X73553Y225380D01*
Y225284D01*
X73745D01*
X74225Y226629D01*
X74706Y227879D01*
X75090Y228936D01*
X75475Y229897D01*
X75763Y230666D01*
X75955Y231339D01*
X76244Y231819D01*
X76436Y232300D01*
X76724Y232876D01*
X76916Y233165D01*
X77012Y233357D01*
X77685D01*
X77109Y231723D01*
D02*
G37*
G36*
X104500Y233069D02*
Y224419D01*
X104212Y224034D01*
X102866D01*
X101713Y224131D01*
X100752Y224227D01*
X99791Y224515D01*
X99118Y224803D01*
X98445Y225092D01*
X97965Y225572D01*
X97100Y226437D01*
X96715Y227302D01*
X96427Y227975D01*
X96331Y228552D01*
Y228648D01*
Y228744D01*
Y229416D01*
X96427Y229993D01*
X96523Y230570D01*
X97003Y231531D01*
X97772Y232204D01*
X98637Y232684D01*
X99502Y233069D01*
X100175Y233261D01*
X100752Y233357D01*
X104212D01*
X104500Y233069D01*
D02*
G37*
G36*
X94697Y224419D02*
X94409Y224034D01*
X89026D01*
X88738Y224419D01*
Y224611D01*
X89026Y224899D01*
X93832D01*
Y228359D01*
X89603D01*
X89218Y228744D01*
Y228936D01*
X89603Y229224D01*
X93832D01*
Y232300D01*
X93543Y232684D01*
X88930D01*
Y233357D01*
X94697D01*
Y224419D01*
D02*
G37*
G36*
X87296Y233069D02*
Y224419D01*
X87008Y224034D01*
X81434D01*
X81145Y224419D01*
Y224611D01*
X81434Y224899D01*
X86335D01*
Y233069D01*
X86624Y233357D01*
X87008D01*
X87296Y233069D01*
D02*
G37*
G36*
X66344Y233165D02*
X66921Y231723D01*
X67498Y230378D01*
X67978Y229224D01*
X68363Y228167D01*
X68651Y227302D01*
X68939Y226629D01*
X69228Y225957D01*
X69324Y225476D01*
X69516Y225092D01*
X69612Y224707D01*
X69708Y224323D01*
X69804Y224131D01*
Y224034D01*
X69131D01*
X67498Y227302D01*
X63749D01*
X63365Y226245D01*
X63173Y225380D01*
X62884Y224803D01*
X62692Y224419D01*
X62596Y224227D01*
X62500Y224131D01*
X62404Y224034D01*
X61827D01*
X61731Y224227D01*
X62308Y225764D01*
X62788Y227206D01*
X63269Y228359D01*
X63653Y229416D01*
X64038Y230281D01*
X64326Y231050D01*
X64614Y231627D01*
X64807Y232108D01*
X64999Y232492D01*
X65191Y232780D01*
X65383Y233165D01*
X65479Y233357D01*
X66152D01*
X66344Y233165D01*
D02*
G37*
G36*
X60289Y233069D02*
Y224419D01*
X60001Y224034D01*
X54619D01*
X54331Y224419D01*
Y224611D01*
X54619Y224899D01*
X59424D01*
Y233069D01*
X59809Y233357D01*
X60001D01*
X60289Y233069D01*
D02*
G37*
G36*
X53273D02*
Y224419D01*
X52889Y224034D01*
X47603D01*
X47218Y224419D01*
Y224899D01*
X52216D01*
Y233069D01*
X52601Y233357D01*
X52889D01*
X53273Y233069D01*
D02*
G37*
G36*
X46065Y224419D02*
X45681Y224034D01*
X40299D01*
X40010Y224419D01*
Y224611D01*
X40299Y224899D01*
X45200D01*
Y228359D01*
X40875D01*
X40491Y228744D01*
Y228936D01*
X40875Y229224D01*
X45200D01*
Y232684D01*
X40491D01*
X40299Y232492D01*
Y232684D01*
X40202Y232876D01*
Y233357D01*
X46065D01*
Y224419D01*
D02*
G37*
G36*
X63269Y220959D02*
Y215480D01*
X62884Y215096D01*
X62500Y215480D01*
Y219806D01*
X62404D01*
X61827Y218364D01*
X61347Y217307D01*
X60962Y216442D01*
X60674Y215865D01*
X60386Y215480D01*
X60193Y215288D01*
X60097Y215096D01*
X60001D01*
X59905Y215192D01*
X59713Y215288D01*
X59424Y215865D01*
X58944Y216634D01*
X58559Y217499D01*
X58175Y218364D01*
X57887Y219037D01*
X57694Y219613D01*
X57598Y219709D01*
Y219806D01*
X57406D01*
Y215480D01*
X57022Y215096D01*
X56829D01*
Y220959D01*
X57214Y221343D01*
X57406D01*
X60097Y216153D01*
X60482Y217114D01*
X60866Y217883D01*
X61154Y218556D01*
X61443Y219133D01*
X61923Y220094D01*
X62212Y220671D01*
X62404Y221055D01*
X62596Y221247D01*
X62692Y221343D01*
X62884D01*
X63269Y220959D01*
D02*
G37*
G36*
X89122Y221247D02*
X89795Y220959D01*
X90276Y220478D01*
X90660Y219998D01*
X90852Y219421D01*
X91045Y219037D01*
X91141Y218652D01*
Y218556D01*
Y217691D01*
X91045Y216922D01*
X90660Y216249D01*
X90180Y215769D01*
X89603Y215480D01*
X89026Y215192D01*
X88546Y215096D01*
X88161Y215000D01*
X88065D01*
X87392Y215096D01*
X86816Y215192D01*
X86431Y215288D01*
X86239Y215384D01*
X86047Y215480D01*
X85951Y215577D01*
Y215673D01*
Y218075D01*
X86335Y218364D01*
X87489D01*
X87873Y218075D01*
X87489Y217691D01*
X86624D01*
Y215769D01*
X87489Y215673D01*
X88161D01*
X88930Y215769D01*
X89507Y216057D01*
X89987Y216538D01*
X90276Y217018D01*
X90468Y217499D01*
X90564Y217979D01*
Y218268D01*
Y218364D01*
X90468Y219037D01*
X90180Y219613D01*
X89795Y219998D01*
X89315Y220286D01*
X88834Y220574D01*
X88450Y220671D01*
X88161Y220767D01*
X88065D01*
X87392Y220671D01*
X86912Y220574D01*
X86527Y220382D01*
X86335Y220286D01*
X85951Y220671D01*
X86047Y220863D01*
X86239Y220959D01*
X86624Y221151D01*
X87104Y221343D01*
X88354D01*
X89122Y221247D01*
D02*
G37*
G36*
X84798Y220959D02*
Y217403D01*
X84701Y216634D01*
X84413Y216057D01*
X84029Y215577D01*
X83548Y215288D01*
X83068Y215096D01*
X82683Y215000D01*
X82299D01*
X81434Y215192D01*
X80857Y215384D01*
X80376Y215769D01*
X80088Y216057D01*
X79896Y216442D01*
X79800Y216730D01*
Y216922D01*
Y217018D01*
Y221151D01*
X79896Y221343D01*
X80280Y220959D01*
Y218364D01*
X80376Y217499D01*
X80569Y216826D01*
X80857Y216346D01*
X81241Y216057D01*
X81626Y215865D01*
X81914Y215673D01*
X82491D01*
X83068Y215865D01*
X83452Y216249D01*
X83836Y216826D01*
X84029Y217499D01*
X84125Y218075D01*
X84221Y218652D01*
Y219037D01*
Y219229D01*
Y221151D01*
X84413Y221343D01*
X84798Y220959D01*
D02*
G37*
G36*
X104500D02*
Y215480D01*
X104212Y215096D01*
X102097D01*
X101040Y215384D01*
X100271Y215769D01*
X99791Y216249D01*
X99406Y216730D01*
X99214Y217211D01*
X99022Y217691D01*
Y217979D01*
Y218075D01*
X99214Y219133D01*
X99598Y219998D01*
X100271Y220574D01*
X100944Y220959D01*
X101617Y221151D01*
X102289Y221343D01*
X104212D01*
X104500Y220959D01*
D02*
G37*
G36*
X97965D02*
Y215096D01*
X94216D01*
X94024Y215288D01*
X94409Y215673D01*
X97484D01*
Y217883D01*
X94697D01*
X94409Y218268D01*
X94697Y218556D01*
X97484D01*
Y220671D01*
X94216D01*
Y220959D01*
X94601Y221343D01*
X97676D01*
X97965Y220959D01*
D02*
G37*
G36*
X76628Y221247D02*
X76724Y220959D01*
X77109Y220190D01*
X77493Y219325D01*
X77877Y218268D01*
X78358Y217211D01*
X78646Y216346D01*
X78935Y215673D01*
X79031Y215577D01*
Y215480D01*
X78742Y215096D01*
X78070Y215961D01*
X77974Y216346D01*
X77877Y216730D01*
X77685Y217018D01*
X77589Y217211D01*
X75090D01*
X74802Y216538D01*
X74610Y215961D01*
X74418Y215577D01*
X74322Y215384D01*
X74225Y215192D01*
X74129Y215096D01*
X73745D01*
X74129Y216153D01*
X74418Y217114D01*
X74706Y217979D01*
X74994Y218652D01*
X75283Y219229D01*
X75475Y219806D01*
X75763Y220574D01*
X76051Y220959D01*
X76244Y221247D01*
X76340Y221343D01*
X76532D01*
X76628Y221247D01*
D02*
G37*
G36*
X74225Y220959D02*
X73937Y220671D01*
X71823D01*
Y215480D01*
X71534Y215096D01*
X71150Y215480D01*
Y220671D01*
X69131D01*
X68747Y220959D01*
X69131Y221343D01*
X73937D01*
X74225Y220959D01*
D02*
G37*
G36*
X68266D02*
Y215480D01*
X67882Y215096D01*
X64230D01*
X64134Y215288D01*
X64422Y215673D01*
X67498D01*
Y217883D01*
X64807D01*
X64422Y218268D01*
X64807Y218556D01*
X67498D01*
Y220671D01*
X64614D01*
X64230Y220959D01*
X64614Y221343D01*
X67882D01*
X68266Y220959D01*
D02*
G37*
G36*
X53369Y221247D02*
X53466Y220959D01*
X53850Y220286D01*
X54331Y219325D01*
X54715Y218172D01*
X55196Y217114D01*
X55580Y216153D01*
X55772Y215865D01*
X55868Y215577D01*
X55964Y215384D01*
Y215288D01*
X55868D01*
X55676Y215096D01*
X55484Y215192D01*
X55292Y215384D01*
X55099Y215769D01*
X54907Y216153D01*
X54811Y216538D01*
X54715Y216922D01*
X54619Y217114D01*
Y217211D01*
X51832D01*
X51639Y216538D01*
X51447Y215961D01*
X51351Y215577D01*
X51159Y215384D01*
X51063Y215192D01*
X50967Y215096D01*
X50678D01*
X50486Y215288D01*
X50871Y216346D01*
X51255Y217307D01*
X51543Y218075D01*
X51832Y218748D01*
X52120Y219325D01*
X52312Y219806D01*
X52601Y220574D01*
X52889Y220959D01*
X52985Y221247D01*
X53081Y221343D01*
X53273D01*
X53369Y221247D01*
D02*
G37*
G36*
X49621Y220959D02*
Y215480D01*
X49333Y215096D01*
X45873D01*
X45681Y215288D01*
X46065Y215673D01*
X49141D01*
Y221151D01*
X49333Y221343D01*
X49621Y220959D01*
D02*
G37*
G36*
X42893Y221247D02*
X43086Y221055D01*
X43182Y220767D01*
X43374Y220382D01*
X43758Y219421D01*
X44239Y218364D01*
X44624Y217211D01*
X45008Y216249D01*
X45104Y215865D01*
X45200Y215577D01*
X45296Y215384D01*
Y215288D01*
Y215096D01*
X44816D01*
X44527Y215769D01*
X44335Y216346D01*
X44143Y216730D01*
X44047Y216922D01*
X43951Y217114D01*
X43855Y217211D01*
X41356D01*
X41164Y216538D01*
X40971Y215961D01*
X40779Y215577D01*
X40587Y215384D01*
X40491Y215192D01*
X40395Y215096D01*
X40202D01*
X40010Y215288D01*
X40395Y216346D01*
X40779Y217211D01*
X41067Y217979D01*
X41356Y218748D01*
X41548Y219325D01*
X41836Y219806D01*
X42125Y220478D01*
X42317Y220959D01*
X42509Y221247D01*
X42605Y221343D01*
X42797D01*
X42893Y221247D01*
D02*
G37*
%LPC*%
G36*
X74033Y242872D02*
X73072D01*
X72207Y242776D01*
X71534Y242680D01*
X71150Y242391D01*
X70765Y242199D01*
X70573Y241911D01*
X70477Y241622D01*
Y241526D01*
Y241430D01*
X70573Y240854D01*
X70958Y240469D01*
X71438Y240085D01*
X72015Y239893D01*
X72592Y239796D01*
X73072Y239700D01*
X74033D01*
Y242872D01*
D02*
G37*
G36*
X59424D02*
X58559D01*
X57214Y242776D01*
X56253Y242488D01*
X55580Y242103D01*
X55099Y241719D01*
X54811Y241238D01*
X54715Y240854D01*
X54619Y240565D01*
Y240469D01*
Y239700D01*
X54811Y238835D01*
X55196Y238162D01*
X55676Y237682D01*
X56349Y237394D01*
X57022Y237201D01*
X57502Y237009D01*
X59424D01*
Y242872D01*
D02*
G37*
G36*
X50486Y242488D02*
X50294D01*
X49333Y239604D01*
Y239412D01*
X51736D01*
X50486Y242488D01*
D02*
G37*
G36*
X45489Y242872D02*
X44624D01*
X43278Y242776D01*
X42317Y242488D01*
X41644Y242007D01*
X41164Y241622D01*
X40875Y241142D01*
X40779Y240661D01*
X40683Y240373D01*
Y240277D01*
X40779Y239220D01*
X41164Y238355D01*
X41644Y237778D01*
X42221Y237394D01*
X42797Y237201D01*
X43278Y237105D01*
X43662Y237009D01*
X45489D01*
Y242872D01*
D02*
G37*
G36*
X103347Y232684D02*
X101905D01*
X101040Y232492D01*
X100271Y232300D01*
X99598Y232108D01*
X99022Y231819D01*
X98541Y231531D01*
X97868Y230858D01*
X97388Y230089D01*
X97196Y229513D01*
X97100Y229128D01*
Y228936D01*
X97196Y228263D01*
X97292Y227590D01*
X97965Y226629D01*
X98830Y225860D01*
X99791Y225380D01*
X100752Y225092D01*
X101617Y224995D01*
X102289Y224899D01*
X103347D01*
X103731Y225284D01*
Y232300D01*
X103347Y232684D01*
D02*
G37*
G36*
X65864Y232300D02*
X65672D01*
X64230Y228359D01*
Y228167D01*
X67401D01*
X65864Y232300D01*
D02*
G37*
G36*
X103827Y220671D02*
X102097D01*
X101328Y220574D01*
X100752Y220286D01*
X100271Y219902D01*
X99983Y219517D01*
X99791Y219037D01*
X99695Y218652D01*
Y218364D01*
Y218268D01*
X99887Y217403D01*
X100271Y216730D01*
X100848Y216346D01*
X101521Y215961D01*
X102193Y215769D01*
X102770Y215673D01*
X103827D01*
Y220671D01*
D02*
G37*
G36*
X76532Y220478D02*
X76340D01*
X75475Y217883D01*
Y217691D01*
X77397D01*
X76532Y220478D01*
D02*
G37*
G36*
X53466Y220286D02*
X53081D01*
X52216Y217691D01*
X52601D01*
X53273Y217883D01*
X53946Y217691D01*
X54331D01*
X53466Y220286D01*
D02*
G37*
G36*
X42893D02*
X42605D01*
X41740Y217691D01*
X43758D01*
X42893Y220286D01*
D02*
G37*
%LPD*%
D11*
X23043Y234504D02*
Y247496D01*
X15957D02*
X23043D01*
X15957Y234504D02*
Y247496D01*
Y234504D02*
X23043D01*
X14294Y234400D02*
X14299Y224579D01*
X1701D02*
X1706Y234400D01*
X7193Y257244D02*
Y263543D01*
X-6193D02*
X7193D01*
X-6193Y257244D02*
Y263543D01*
X7193Y256457D02*
Y257244D01*
X-6193Y256457D02*
X7193D01*
X-6193D02*
Y257244D01*
X10893Y206744D02*
Y213043D01*
X-2493D02*
X10893D01*
X-2493Y206744D02*
Y213043D01*
X10893Y205957D02*
Y206744D01*
X-2493Y205957D02*
X10893D01*
X-2493D02*
Y206744D01*
X7193Y248244D02*
Y254543D01*
X-6193D02*
X7193D01*
X-6193Y248244D02*
Y254543D01*
X7193Y247457D02*
Y248244D01*
X-6193Y247457D02*
X7193D01*
X-6193D02*
Y248244D01*
X10893Y197744D02*
Y204043D01*
X-2493D02*
X10893D01*
X-2493Y197744D02*
Y204043D01*
X10893Y196957D02*
Y197744D01*
X-2493Y196957D02*
X10893D01*
X-2493D02*
Y197744D01*
X81488Y-3000D02*
Y15500D01*
X104488D02*
X114488D01*
Y-3500D02*
Y15500D01*
X87988Y-17500D02*
X106988D01*
X81488Y15500D02*
X90487D01*
X51807Y12520D02*
Y13307D01*
Y12520D02*
X65193D01*
Y13307D01*
X51807D02*
Y19606D01*
X65193D01*
Y13307D02*
Y19606D01*
X228693Y53256D02*
Y54043D01*
X215307D02*
X228693D01*
X215307Y53256D02*
Y54043D01*
X228693Y46957D02*
Y53256D01*
X215307Y46957D02*
X228693D01*
X215307D02*
Y53256D01*
X228693Y63256D02*
Y64043D01*
X215307D02*
X228693D01*
X215307Y63256D02*
Y64043D01*
X228693Y56957D02*
Y63256D01*
X215307Y56957D02*
X228693D01*
X215307D02*
Y63256D01*
X310807Y89457D02*
Y90244D01*
Y89457D02*
X324193D01*
Y90244D01*
X310807D02*
Y96543D01*
X324193D01*
Y90244D02*
Y96543D01*
X256256Y130547D02*
X257043D01*
Y143933D01*
X256256D02*
X257043D01*
X249957Y130547D02*
X256256D01*
X249957D02*
Y143933D01*
X256256D01*
X297315Y163693D02*
X298102D01*
X297315Y150307D02*
Y163693D01*
Y150307D02*
X298102D01*
Y163693D02*
X304402D01*
Y150307D02*
Y163693D01*
X298102Y150307D02*
X304402D01*
X97681Y65693D02*
X98469D01*
X97681Y52307D02*
Y65693D01*
Y52307D02*
X98469D01*
Y65693D02*
X104768D01*
Y52307D02*
Y65693D01*
X98469Y52307D02*
X104768D01*
X81307Y50457D02*
Y51244D01*
Y50457D02*
X94693D01*
Y51244D01*
X81307D02*
Y57543D01*
X94693D01*
Y51244D02*
Y57543D01*
X31457Y71327D02*
X32244D01*
X31457Y57941D02*
Y71327D01*
Y57941D02*
X32244D01*
Y71327D02*
X38543D01*
Y57941D02*
Y71327D01*
X32244Y57941D02*
X38543D01*
X28256Y42350D02*
X29043D01*
Y55736D01*
X28256D02*
X29043D01*
X21957Y42350D02*
X28256D01*
X21957D02*
Y55736D01*
X28256D01*
X51807Y3457D02*
Y4244D01*
Y3457D02*
X65193D01*
Y4244D01*
X51807D02*
Y10543D01*
X65193D01*
Y4244D02*
Y10543D01*
X295374Y245957D02*
Y246744D01*
Y245957D02*
X308760D01*
Y246744D01*
X295374D02*
Y253043D01*
X308760D01*
Y246744D02*
Y253043D01*
X325693Y252256D02*
Y253043D01*
X312307D02*
X325693D01*
X312307Y252256D02*
Y253043D01*
X325693Y245957D02*
Y252256D01*
X312307Y245957D02*
X325693D01*
X312307D02*
Y252256D01*
X301756Y195807D02*
X302543D01*
Y209193D01*
X301756D02*
X302543D01*
X295457Y195807D02*
X301756D01*
X295457D02*
Y209193D01*
X301756D01*
X304382D02*
X305169D01*
X304382Y195807D02*
Y209193D01*
Y195807D02*
X305169D01*
Y209193D02*
X311469D01*
Y195807D02*
Y209193D01*
X305169Y195807D02*
X311469D01*
X329256Y209295D02*
X330043D01*
Y222680D01*
X329256D02*
X330043D01*
X322957Y209295D02*
X329256D01*
X322957D02*
Y222680D01*
X329256D01*
X331957Y222693D02*
X332744D01*
X331957Y209307D02*
Y222693D01*
Y209307D02*
X332744D01*
Y222693D02*
X339043D01*
Y209307D02*
Y222693D01*
X332744Y209307D02*
X339043D01*
X33913Y188996D02*
X41000D01*
Y176004D02*
Y188996D01*
X33913Y176004D02*
X41000D01*
X33913D02*
Y188996D01*
X28957Y139496D02*
X36043D01*
Y126504D02*
Y139496D01*
X28957Y126504D02*
X36043D01*
X28957D02*
Y139496D01*
X144996Y77957D02*
Y85043D01*
X132004Y77957D02*
X144996D01*
X132004D02*
Y85043D01*
X144996D01*
X230957Y47004D02*
X238043D01*
X230957D02*
Y59996D01*
X238043D01*
Y47004D02*
Y59996D01*
X239957Y47004D02*
X247043D01*
X239957D02*
Y59996D01*
X247043D01*
Y47004D02*
Y59996D01*
X318504Y117957D02*
Y125043D01*
X331496D01*
Y117957D02*
Y125043D01*
X318504Y117957D02*
X331496D01*
X262957Y85496D02*
X270043D01*
Y72504D02*
Y85496D01*
X262957Y72504D02*
X270043D01*
X262957D02*
Y85496D01*
X230807Y121496D02*
X237894D01*
Y108504D02*
Y121496D01*
X230807Y108504D02*
X237894D01*
X230807D02*
Y121496D01*
X231106Y154004D02*
X238193D01*
X231106D02*
Y166996D01*
X238193D01*
Y154004D02*
Y166996D01*
X327854Y42941D02*
Y50028D01*
X340846D01*
Y42941D02*
Y50028D01*
X327854Y42941D02*
X340846D01*
X109957Y34004D02*
X117043D01*
X109957D02*
Y46996D01*
X117043D01*
Y34004D02*
Y46996D01*
X6004Y40457D02*
Y47543D01*
X18996D01*
Y40457D02*
Y47543D01*
X6004Y40457D02*
X18996D01*
X33716Y1504D02*
X40803D01*
X33716D02*
Y14496D01*
X40803D01*
Y1504D02*
Y14496D01*
X24716D02*
X31803D01*
Y1504D02*
Y14496D01*
X24716Y1504D02*
X31803D01*
X24716D02*
Y14496D01*
X15717D02*
X22803D01*
Y1504D02*
Y14496D01*
X15717Y1504D02*
X22803D01*
X15717D02*
Y14496D01*
X158415Y315168D02*
Y325798D01*
Y315168D02*
X179085D01*
Y325798D01*
X158415D02*
X179085D01*
X200835Y315174D02*
Y325804D01*
X180165D02*
X200835D01*
X180165Y315174D02*
Y325804D01*
Y315174D02*
X200835D01*
X136665Y315168D02*
Y325798D01*
Y315168D02*
X157335D01*
Y325798D01*
X136665D02*
X157335D01*
X78898Y-15063D02*
Y-1480D01*
X56260Y-15063D02*
X78898D01*
X56260D02*
Y-1480D01*
X78898D01*
X227500Y151854D02*
X242500D01*
X227500Y123354D02*
Y151854D01*
Y123354D02*
X242500D01*
Y151854D01*
X45161Y-15063D02*
Y-1480D01*
X22524Y-15063D02*
X45161D01*
X22524D02*
Y-1480D01*
X45161D01*
X21500Y76134D02*
X29500D01*
Y57634D02*
Y76134D01*
X21500Y57634D02*
Y76134D01*
X24500Y57634D02*
X29500D01*
X24500Y57134D02*
X29500D01*
Y57634D01*
X21500Y57134D02*
Y57634D01*
Y57134D02*
X24500D01*
Y57634D01*
X21500D02*
X24500D01*
X209520Y48842D02*
Y49598D01*
X198008Y48842D02*
X209520D01*
X198020D02*
Y50598D01*
Y54354D01*
X197614D02*
X209520D01*
Y49598D02*
Y54354D01*
X197520Y48842D02*
X198020D01*
X197520D02*
Y50598D01*
X198020D01*
X197520Y54354D02*
X198020D01*
X197520Y50598D02*
Y54354D01*
X280500Y159500D02*
Y163256D01*
X281000D01*
X280500Y159500D02*
X281000D01*
X280500Y157744D02*
Y159500D01*
Y157744D02*
X281000D01*
X292500Y158500D02*
Y163256D01*
X280594D02*
X292500D01*
X281000Y159500D02*
Y163256D01*
Y157744D02*
Y159500D01*
X280988Y157744D02*
X292500D01*
Y158500D01*
X82000Y64500D02*
Y65256D01*
X93512D01*
X93500Y63500D02*
Y65256D01*
Y59744D02*
Y63500D01*
X82000Y59744D02*
X93906D01*
X82000D02*
Y64500D01*
X93500Y65256D02*
X94000D01*
Y63500D02*
Y65256D01*
X93500Y63500D02*
X94000D01*
X93500Y59744D02*
X94000D01*
Y63500D01*
X197520Y62032D02*
X198020D01*
X209520Y56520D02*
Y57276D01*
X197614Y56520D02*
X209520D01*
X198020D02*
Y60276D01*
Y62032D01*
X197614D02*
X209520D01*
Y57276D02*
Y62032D01*
X197520Y56520D02*
X198020D01*
X197520D02*
Y60276D01*
Y62032D01*
X319624Y307306D02*
Y304355D01*
X317657D01*
X316181Y306323D02*
X315197D01*
X314705Y305831D01*
Y304355D01*
X316181D01*
X316673Y304847D01*
X316181Y305339D01*
X314705D01*
X313721Y307306D02*
Y304355D01*
X312245D01*
X311753Y304847D01*
Y305339D01*
Y305831D01*
X312245Y306323D01*
X313721D01*
X310277Y304355D02*
X309293D01*
X308801Y304847D01*
Y305831D01*
X309293Y306323D01*
X310277D01*
X310769Y305831D01*
Y304847D01*
X310277Y304355D01*
X307817Y306323D02*
Y304355D01*
Y305339D01*
X307325Y305831D01*
X306833Y306323D01*
X306341D01*
X304374D02*
X303390D01*
X302898Y305831D01*
Y304355D01*
X304374D01*
X304866Y304847D01*
X304374Y305339D01*
X302898D01*
X301422Y306815D02*
Y306323D01*
X301914D01*
X300930D01*
X301422D01*
Y304847D01*
X300930Y304355D01*
X298962D02*
X297978D01*
X297486Y304847D01*
Y305831D01*
X297978Y306323D01*
X298962D01*
X299454Y305831D01*
Y304847D01*
X298962Y304355D01*
X296502Y306323D02*
Y304355D01*
Y305339D01*
X296010Y305831D01*
X295518Y306323D01*
X295026D01*
X293550Y304355D02*
X292566D01*
X293058D01*
Y306323D01*
X293550D01*
X290598Y304355D02*
X289615D01*
X289123Y304847D01*
Y305831D01*
X289615Y306323D01*
X290598D01*
X291090Y305831D01*
Y304847D01*
X290598Y304355D01*
X283219Y307306D02*
Y304355D01*
X284695D01*
X285187Y304847D01*
Y305831D01*
X284695Y306323D01*
X283219D01*
X280759Y304355D02*
X281743D01*
X282235Y304847D01*
Y305831D01*
X281743Y306323D01*
X280759D01*
X280267Y305831D01*
Y305339D01*
X282235D01*
X276331Y307306D02*
X275347D01*
X275839D01*
Y304355D01*
X276331D01*
X275347D01*
X273871D02*
Y306323D01*
X272396D01*
X271904Y305831D01*
Y304355D01*
X269936Y303371D02*
X269444D01*
X268952Y303863D01*
Y306323D01*
X270428D01*
X270920Y305831D01*
Y304847D01*
X270428Y304355D01*
X268952D01*
X266492D02*
X267476D01*
X267968Y304847D01*
Y305831D01*
X267476Y306323D01*
X266492D01*
X266000Y305831D01*
Y305339D01*
X267968D01*
X265016Y304355D02*
Y306323D01*
X263540D01*
X263048Y305831D01*
Y304355D01*
X262064D02*
X261080D01*
X261572D01*
Y306323D01*
X262064D01*
X258128Y304355D02*
X259112D01*
X259604Y304847D01*
Y305831D01*
X259112Y306323D01*
X258128D01*
X257636Y305831D01*
Y305339D01*
X259604D01*
X256653Y306323D02*
Y304355D01*
Y305339D01*
X256161Y305831D01*
X255669Y306323D01*
X255177D01*
X253701Y304355D02*
X252717D01*
X253209D01*
Y306323D01*
X253701D01*
X250749D02*
X249765D01*
X249273Y305831D01*
Y304355D01*
X250749D01*
X251241Y304847D01*
X250749Y305339D01*
X249273D01*
X245337Y304355D02*
Y306323D01*
X244353Y307306D01*
X243370Y306323D01*
Y304355D01*
Y305831D01*
X245337D01*
X240910Y304355D02*
X241894D01*
X242386Y304847D01*
Y305831D01*
X241894Y306323D01*
X240910D01*
X240418Y305831D01*
Y305339D01*
X242386D01*
X239434Y306323D02*
Y304355D01*
Y305339D01*
X238942Y305831D01*
X238450Y306323D01*
X237958D01*
X235990Y304355D02*
X235006D01*
X234514Y304847D01*
Y305831D01*
X235006Y306323D01*
X235990D01*
X236482Y305831D01*
Y304847D01*
X235990Y304355D01*
X232054D02*
X233038D01*
X233530Y304847D01*
Y305831D01*
X233038Y306323D01*
X232054D01*
X231562Y305831D01*
Y305339D01*
X233530D01*
X230578Y304355D02*
X229102D01*
X228610Y304847D01*
X229102Y305339D01*
X230086D01*
X230578Y305831D01*
X230086Y306323D01*
X228610D01*
X227626Y303371D02*
Y306323D01*
X226151D01*
X225659Y305831D01*
Y304847D01*
X226151Y304355D01*
X227626D01*
X224183Y306323D02*
X223199D01*
X222707Y305831D01*
Y304355D01*
X224183D01*
X224675Y304847D01*
X224183Y305339D01*
X222707D01*
X219755Y306323D02*
X221231D01*
X221723Y305831D01*
Y304847D01*
X221231Y304355D01*
X219755D01*
X218771D02*
X217787D01*
X218279D01*
Y306323D01*
X218771D01*
X215819D02*
X214835D01*
X214343Y305831D01*
Y304355D01*
X215819D01*
X216311Y304847D01*
X215819Y305339D01*
X214343D01*
X213359Y304355D02*
X212375D01*
X212867D01*
Y307306D01*
X213359D01*
X294780Y301363D02*
X296748D01*
Y299887D01*
X295764D01*
X296748D01*
Y298411D01*
X293304Y300379D02*
X292320D01*
X291828Y299887D01*
Y298411D01*
X293304D01*
X293796Y298903D01*
X293304Y299395D01*
X291828D01*
X288877Y300379D02*
X290352D01*
X290844Y299887D01*
Y298903D01*
X290352Y298411D01*
X288877D01*
X287893Y300379D02*
Y298903D01*
X287401Y298411D01*
X285925D01*
Y300379D01*
X284941Y298411D02*
X283957D01*
X284449D01*
Y301363D01*
X284941D01*
X281989Y300871D02*
Y300379D01*
X282481D01*
X281497D01*
X281989D01*
Y298903D01*
X281497Y298411D01*
X279529Y300379D02*
X278545D01*
X278053Y299887D01*
Y298411D01*
X279529D01*
X280021Y298903D01*
X279529Y299395D01*
X278053D01*
X275101Y301363D02*
Y298411D01*
X276577D01*
X277069Y298903D01*
Y299887D01*
X276577Y300379D01*
X275101D01*
X269198Y301363D02*
Y298411D01*
X270674D01*
X271166Y298903D01*
Y299887D01*
X270674Y300379D01*
X269198D01*
X266738Y298411D02*
X267722D01*
X268214Y298903D01*
Y299887D01*
X267722Y300379D01*
X266738D01*
X266246Y299887D01*
Y299395D01*
X268214D01*
X262310Y301363D02*
X261326D01*
X261818D01*
Y298411D01*
X262310D01*
X261326D01*
X259850D02*
Y300379D01*
X258375D01*
X257882Y299887D01*
Y298411D01*
X255915Y297427D02*
X255423D01*
X254931Y297919D01*
Y300379D01*
X256407D01*
X256899Y299887D01*
Y298903D01*
X256407Y298411D01*
X254931D01*
X252471D02*
X253455D01*
X253947Y298903D01*
Y299887D01*
X253455Y300379D01*
X252471D01*
X251979Y299887D01*
Y299395D01*
X253947D01*
X250995Y298411D02*
Y300379D01*
X249519D01*
X249027Y299887D01*
Y298411D01*
X248043D02*
X247059D01*
X247551D01*
Y300379D01*
X248043D01*
X244107Y298411D02*
X245091D01*
X245583Y298903D01*
Y299887D01*
X245091Y300379D01*
X244107D01*
X243615Y299887D01*
Y299395D01*
X245583D01*
X242632Y300379D02*
Y298411D01*
Y299395D01*
X242140Y299887D01*
X241648Y300379D01*
X241156D01*
X239680Y298411D02*
X238696D01*
X239188D01*
Y300379D01*
X239680D01*
X236728D02*
X235744D01*
X235252Y299887D01*
Y298411D01*
X236728D01*
X237220Y298903D01*
X236728Y299395D01*
X235252D01*
X313967Y295420D02*
Y292960D01*
X313475Y292468D01*
X312491D01*
X311999Y292960D01*
Y295420D01*
X311015Y292468D02*
Y294436D01*
X309539D01*
X309047Y293944D01*
Y292468D01*
X308063D02*
X307079D01*
X307571D01*
Y294436D01*
X308063D01*
X305603D02*
X304620Y292468D01*
X303636Y294436D01*
X301176Y292468D02*
X302160D01*
X302652Y292960D01*
Y293944D01*
X302160Y294436D01*
X301176D01*
X300684Y293944D01*
Y293452D01*
X302652D01*
X299700Y294436D02*
Y292468D01*
Y293452D01*
X299208Y293944D01*
X298716Y294436D01*
X298224D01*
X296748Y292468D02*
X295272D01*
X294780Y292960D01*
X295272Y293452D01*
X296256D01*
X296748Y293944D01*
X296256Y294436D01*
X294780D01*
X293796Y292468D02*
X292812D01*
X293304D01*
Y294436D01*
X293796D01*
X289369Y295420D02*
Y292468D01*
X290844D01*
X291336Y292960D01*
Y293944D01*
X290844Y294436D01*
X289369D01*
X287893D02*
X286909D01*
X286417Y293944D01*
Y292468D01*
X287893D01*
X288385Y292960D01*
X287893Y293452D01*
X286417D01*
X283465Y295420D02*
Y292468D01*
X284941D01*
X285433Y292960D01*
Y293944D01*
X284941Y294436D01*
X283465D01*
X277561Y295420D02*
Y292468D01*
X279037D01*
X279529Y292960D01*
Y293944D01*
X279037Y294436D01*
X277561D01*
X275101Y292468D02*
X276085D01*
X276577Y292960D01*
Y293944D01*
X276085Y294436D01*
X275101D01*
X274609Y293944D01*
Y293452D01*
X276577D01*
X273625Y292468D02*
X272642D01*
X273133D01*
Y295420D01*
X273625D01*
X268214D02*
Y293452D01*
X267230Y292468D01*
X266246Y293452D01*
Y295420D01*
X264770Y294436D02*
X263786D01*
X263294Y293944D01*
Y292468D01*
X264770D01*
X265262Y292960D01*
X264770Y293452D01*
X263294D01*
X262310Y292468D02*
X261326D01*
X261818D01*
Y295420D01*
X262310D01*
X259850Y292468D02*
X258866D01*
X259358D01*
Y295420D01*
X259850D01*
X255915Y292468D02*
X256899D01*
X257390Y292960D01*
Y293944D01*
X256899Y294436D01*
X255915D01*
X255423Y293944D01*
Y293452D01*
X257390D01*
X249519Y295420D02*
Y292468D01*
X250995D01*
X251487Y292960D01*
Y293944D01*
X250995Y294436D01*
X249519D01*
X247059Y292468D02*
X248043D01*
X248535Y292960D01*
Y293944D01*
X248043Y294436D01*
X247059D01*
X246567Y293944D01*
Y293452D01*
X248535D01*
X240664Y294928D02*
X241156Y295420D01*
X242140D01*
X242632Y294928D01*
Y292960D01*
X242140Y292468D01*
X241156D01*
X240664Y292960D01*
Y293944D01*
X241648D01*
X239680Y294436D02*
Y292960D01*
X239188Y292468D01*
X237712D01*
Y294436D01*
X236236D02*
X235252D01*
X234760Y293944D01*
Y292468D01*
X236236D01*
X236728Y292960D01*
X236236Y293452D01*
X234760D01*
X233284Y294928D02*
Y294436D01*
X233776D01*
X232792D01*
X233284D01*
Y292960D01*
X232792Y292468D01*
X229840D02*
X230824D01*
X231316Y292960D01*
Y293944D01*
X230824Y294436D01*
X229840D01*
X229348Y293944D01*
Y293452D01*
X231316D01*
X228364Y292468D02*
Y294436D01*
X227872D01*
X227380Y293944D01*
Y292468D01*
Y293944D01*
X226888Y294436D01*
X226396Y293944D01*
Y292468D01*
X224921Y294436D02*
X223937D01*
X223445Y293944D01*
Y292468D01*
X224921D01*
X225413Y292960D01*
X224921Y293452D01*
X223445D01*
X222461Y292468D02*
X221477D01*
X221969D01*
Y295420D01*
X222461D01*
X219509Y294436D02*
X218525D01*
X218033Y293944D01*
Y292468D01*
X219509D01*
X220001Y292960D01*
X219509Y293452D01*
X218033D01*
X20419Y252780D02*
X21075Y253436D01*
X22387D01*
X23043Y252780D01*
Y250156D01*
X22387Y249500D01*
X21075D01*
X20419Y250156D01*
X19108Y249500D02*
X17796D01*
X18452D01*
Y253436D01*
X19108Y252780D01*
X13204Y253436D02*
X14516Y252780D01*
X15828Y251468D01*
Y250156D01*
X15172Y249500D01*
X13860D01*
X13204Y250156D01*
Y250812D01*
X13860Y251468D01*
X15828D01*
X-1000Y221936D02*
Y218656D01*
X-1656Y218000D01*
X-2968D01*
X-3624Y218656D01*
Y221936D01*
X-4936Y218656D02*
X-5592Y218000D01*
X-6904D01*
X-7560Y218656D01*
Y221280D01*
X-6904Y221936D01*
X-5592D01*
X-4936Y221280D01*
Y220624D01*
X-5592Y219968D01*
X-7560D01*
X7193Y265500D02*
Y269436D01*
X5225D01*
X4569Y268780D01*
Y267468D01*
X5225Y266812D01*
X7193D01*
X5881D02*
X4569Y265500D01*
X633D02*
X3257D01*
X633Y268124D01*
Y268780D01*
X1289Y269436D01*
X2601D01*
X3257Y268780D01*
X-679Y265500D02*
X-1991D01*
X-1335D01*
Y269436D01*
X-679Y268780D01*
X23500Y206000D02*
Y209936D01*
X21532D01*
X20876Y209280D01*
Y207968D01*
X21532Y207312D01*
X23500D01*
X22188D02*
X20876Y206000D01*
X16940D02*
X19564D01*
X16940Y208624D01*
Y209280D01*
X17596Y209936D01*
X18908D01*
X19564Y209280D01*
X13005Y206000D02*
X15629D01*
X13005Y208624D01*
Y209280D01*
X13661Y209936D01*
X14973D01*
X15629Y209280D01*
X-12000Y247500D02*
X-8064D01*
Y249468D01*
X-8720Y250124D01*
X-10032D01*
X-10688Y249468D01*
Y247500D01*
Y248812D02*
X-12000Y250124D01*
Y254060D02*
Y251436D01*
X-9376Y254060D01*
X-8720D01*
X-8064Y253404D01*
Y252092D01*
X-8720Y251436D01*
Y255371D02*
X-8064Y256027D01*
Y257339D01*
X-8720Y257995D01*
X-11344D01*
X-12000Y257339D01*
Y256027D01*
X-11344Y255371D01*
X-8720D01*
X23500Y196957D02*
Y200892D01*
X21532D01*
X20876Y200237D01*
Y198925D01*
X21532Y198269D01*
X23500D01*
X22188D02*
X20876Y196957D01*
X16940D02*
X19564D01*
X16940Y199581D01*
Y200237D01*
X17596Y200892D01*
X18908D01*
X19564Y200237D01*
X15629D02*
X14973Y200892D01*
X13661D01*
X13005Y200237D01*
Y199581D01*
X13661Y198925D01*
X14317D01*
X13661D01*
X13005Y198269D01*
Y197613D01*
X13661Y196957D01*
X14973D01*
X15629Y197613D01*
X195376Y309000D02*
X198000D01*
X195376Y311624D01*
Y312280D01*
X196032Y312936D01*
X197344D01*
X198000Y312280D01*
X194064Y312936D02*
Y310312D01*
X192752Y309000D01*
X191440Y310312D01*
Y312936D01*
X190129Y312280D02*
X189473Y312936D01*
X188161D01*
X187505Y312280D01*
Y311624D01*
X188161Y310968D01*
X188817D01*
X188161D01*
X187505Y310312D01*
Y309656D01*
X188161Y309000D01*
X189473D01*
X190129Y309656D01*
X183569Y312936D02*
X186193D01*
Y310968D01*
X184881Y311624D01*
X184225D01*
X183569Y310968D01*
Y309656D01*
X184225Y309000D01*
X185537D01*
X186193Y309656D01*
X174000Y312280D02*
X173344Y312936D01*
X172032D01*
X171376Y312280D01*
Y311624D01*
X172032Y310968D01*
X172688D01*
X172032D01*
X171376Y310312D01*
Y309656D01*
X172032Y309000D01*
X173344D01*
X174000Y309656D01*
X170064Y312936D02*
Y310312D01*
X168752Y309000D01*
X167440Y310312D01*
Y312936D01*
X166129Y312280D02*
X165473Y312936D01*
X164161D01*
X163505Y312280D01*
Y311624D01*
X164161Y310968D01*
X164817D01*
X164161D01*
X163505Y310312D01*
Y309656D01*
X164161Y309000D01*
X165473D01*
X166129Y309656D01*
X153500Y312936D02*
Y310312D01*
X152188Y309000D01*
X150876Y310312D01*
Y312936D01*
X149564D02*
Y309000D01*
X147596D01*
X146940Y309656D01*
Y310312D01*
X147596Y310968D01*
X149564D01*
X147596D01*
X146940Y311624D01*
Y312280D01*
X147596Y312936D01*
X149564D01*
X145628Y309000D02*
Y311624D01*
X144317Y312936D01*
X143005Y311624D01*
Y309000D01*
Y310968D01*
X145628D01*
X141693Y312936D02*
X139069D01*
X140381D01*
Y309000D01*
X265032Y265377D02*
X266344D01*
X267000Y264721D01*
Y262097D01*
X266344Y261441D01*
X265032D01*
X264376Y262097D01*
Y264721D01*
X265032Y265377D01*
X263064D02*
Y261441D01*
X261096D01*
X260440Y262097D01*
Y262753D01*
X261096Y263409D01*
X263064D01*
X261096D01*
X260440Y264065D01*
Y264721D01*
X261096Y265377D01*
X263064D01*
X256505Y264721D02*
X257161Y265377D01*
X258473D01*
X259128Y264721D01*
Y262097D01*
X258473Y261441D01*
X257161D01*
X256505Y262097D01*
X255193Y260785D02*
X252569D01*
X248633Y264721D02*
X249289Y265377D01*
X250601D01*
X251257Y264721D01*
Y264065D01*
X250601Y263409D01*
X249289D01*
X248633Y262753D01*
Y262097D01*
X249289Y261441D01*
X250601D01*
X251257Y262097D01*
X247321Y265377D02*
Y261441D01*
X245353D01*
X244697Y262097D01*
Y264721D01*
X245353Y265377D01*
X247321D01*
X243386Y261441D02*
Y264065D01*
X242074Y265377D01*
X240762Y264065D01*
Y261441D01*
Y263409D01*
X243386D01*
X265032Y273877D02*
X266344D01*
X267000Y273221D01*
Y270597D01*
X266344Y269941D01*
X265032D01*
X264376Y270597D01*
Y273221D01*
X265032Y273877D01*
X263064D02*
Y269941D01*
X261096D01*
X260440Y270597D01*
Y271253D01*
X261096Y271909D01*
X263064D01*
X261096D01*
X260440Y272565D01*
Y273221D01*
X261096Y273877D01*
X263064D01*
X256505Y273221D02*
X257161Y273877D01*
X258473D01*
X259128Y273221D01*
Y270597D01*
X258473Y269941D01*
X257161D01*
X256505Y270597D01*
X255193Y269285D02*
X252569D01*
X248633Y273221D02*
X249289Y273877D01*
X250601D01*
X251257Y273221D01*
Y272565D01*
X250601Y271909D01*
X249289D01*
X248633Y271253D01*
Y270597D01*
X249289Y269941D01*
X250601D01*
X251257Y270597D01*
X244697Y273221D02*
X245353Y273877D01*
X246665D01*
X247321Y273221D01*
Y270597D01*
X246665Y269941D01*
X245353D01*
X244697Y270597D01*
X243386Y273877D02*
Y269941D01*
X240762D01*
X26333Y113780D02*
X26989Y114436D01*
X28301D01*
X28957Y113780D01*
Y111156D01*
X28301Y110500D01*
X26989D01*
X26333Y111156D01*
Y112468D01*
X27645D01*
X25021Y110500D02*
Y114436D01*
X22397Y110500D01*
Y114436D01*
X21085D02*
Y110500D01*
X19117D01*
X18461Y111156D01*
Y113780D01*
X19117Y114436D01*
X21085D01*
X29500Y98280D02*
X28844Y98936D01*
X27532D01*
X26876Y98280D01*
Y97624D01*
X27532Y96968D01*
X28188D01*
X27532D01*
X26876Y96312D01*
Y95656D01*
X27532Y95000D01*
X28844D01*
X29500Y95656D01*
X25564Y98936D02*
Y96312D01*
X24252Y95000D01*
X22940Y96312D01*
Y98936D01*
X21629Y98280D02*
X20973Y98936D01*
X19661D01*
X19005Y98280D01*
Y97624D01*
X19661Y96968D01*
X20317D01*
X19661D01*
X19005Y96312D01*
Y95656D01*
X19661Y95000D01*
X20973D01*
X21629Y95656D01*
X338000Y34500D02*
Y37124D01*
X336688Y38436D01*
X335376Y37124D01*
Y34500D01*
Y36468D01*
X338000D01*
X334064Y38436D02*
Y34500D01*
X332096D01*
X331440Y35156D01*
Y37780D01*
X332096Y38436D01*
X334064D01*
X327505Y37780D02*
X328161Y38436D01*
X329473D01*
X330129Y37780D01*
Y35156D01*
X329473Y34500D01*
X328161D01*
X327505Y35156D01*
X323569Y37780D02*
X324225Y38436D01*
X325537D01*
X326193Y37780D01*
Y37124D01*
X325537Y36468D01*
X324225D01*
X323569Y35812D01*
Y35156D01*
X324225Y34500D01*
X325537D01*
X326193Y35156D01*
X322257Y33844D02*
X319633D01*
X315698Y37780D02*
X316353Y38436D01*
X317665D01*
X318321Y37780D01*
Y37124D01*
X317665Y36468D01*
X316353D01*
X315698Y35812D01*
Y35156D01*
X316353Y34500D01*
X317665D01*
X318321Y35156D01*
X311762Y37780D02*
X312418Y38436D01*
X313730D01*
X314386Y37780D01*
Y35156D01*
X313730Y34500D01*
X312418D01*
X311762Y35156D01*
X310450Y38436D02*
Y34500D01*
X307826D01*
X281000D02*
Y37124D01*
X279688Y38436D01*
X278376Y37124D01*
Y34500D01*
Y36468D01*
X281000D01*
X277064Y38436D02*
Y34500D01*
X275096D01*
X274440Y35156D01*
Y37780D01*
X275096Y38436D01*
X277064D01*
X270505Y37780D02*
X271161Y38436D01*
X272473D01*
X273129Y37780D01*
Y35156D01*
X272473Y34500D01*
X271161D01*
X270505Y35156D01*
X266569Y37780D02*
X267225Y38436D01*
X268537D01*
X269193Y37780D01*
Y37124D01*
X268537Y36468D01*
X267225D01*
X266569Y35812D01*
Y35156D01*
X267225Y34500D01*
X268537D01*
X269193Y35156D01*
X265257Y33844D02*
X262633D01*
X258698Y37780D02*
X259353Y38436D01*
X260665D01*
X261321Y37780D01*
Y37124D01*
X260665Y36468D01*
X259353D01*
X258698Y35812D01*
Y35156D01*
X259353Y34500D01*
X260665D01*
X261321Y35156D01*
X257386Y38436D02*
Y34500D01*
X255418D01*
X254762Y35156D01*
Y37780D01*
X255418Y38436D01*
X257386D01*
X253450Y34500D02*
Y37124D01*
X252138Y38436D01*
X250826Y37124D01*
Y34500D01*
Y36468D01*
X253450D01*
X197376Y35436D02*
X200000D01*
Y33468D01*
X198688Y34124D01*
X198032D01*
X197376Y33468D01*
Y32156D01*
X198032Y31500D01*
X199344D01*
X200000Y32156D01*
X196064Y35436D02*
Y32812D01*
X194752Y31500D01*
X193440Y32812D01*
Y35436D01*
X226500Y80936D02*
X223876D01*
X225188D01*
Y77000D01*
X222564Y80936D02*
X219940Y77000D01*
Y80936D02*
X222564Y77000D01*
X253000D02*
Y80936D01*
X251032D01*
X250376Y80280D01*
Y78968D01*
X251032Y78312D01*
X253000D01*
X251688D02*
X250376Y77000D01*
X249064Y80936D02*
X246440Y77000D01*
Y80936D02*
X249064Y77000D01*
X209500Y63500D02*
Y67436D01*
X207532D01*
X206876Y66780D01*
Y65468D01*
X207532Y64812D01*
X209500D01*
X208188D02*
X206876Y63500D01*
X205564Y67436D02*
X202940Y63500D01*
Y67436D02*
X205564Y63500D01*
X209520Y46936D02*
X206896D01*
X208208D01*
Y43000D01*
X205584Y46936D02*
X202960Y43000D01*
Y46936D02*
X205584Y43000D01*
X78898Y500D02*
Y4436D01*
X76930D01*
X76274Y3780D01*
Y2468D01*
X76930Y1812D01*
X78898D01*
X74962Y500D02*
X73650D01*
X74306D01*
Y4436D01*
X74962Y3780D01*
X71682Y500D02*
X70370D01*
X71026D01*
Y4436D01*
X71682Y3780D01*
X309500Y235936D02*
Y232656D01*
X308844Y232000D01*
X307532D01*
X306876Y232656D01*
Y235936D01*
X302940Y232000D02*
X305564D01*
X302940Y234624D01*
Y235280D01*
X303596Y235936D01*
X304908D01*
X305564Y235280D01*
X339000Y224275D02*
Y228211D01*
X337032D01*
X336376Y227555D01*
Y226243D01*
X337032Y225587D01*
X339000D01*
X337688D02*
X336376Y224275D01*
X335064D02*
X333752D01*
X334408D01*
Y228211D01*
X335064Y227555D01*
X329817Y224275D02*
Y228211D01*
X331785Y226243D01*
X329161D01*
X321000Y209350D02*
Y213286D01*
X319032D01*
X318376Y212630D01*
Y211318D01*
X319032Y210662D01*
X321000D01*
X319688D02*
X318376Y209350D01*
X317064Y212630D02*
X316408Y213286D01*
X315096D01*
X314440Y212630D01*
Y211974D01*
X315096Y211318D01*
X314440Y210662D01*
Y210006D01*
X315096Y209350D01*
X316408D01*
X317064Y210006D01*
Y210662D01*
X316408Y211318D01*
X317064Y211974D01*
Y212630D01*
X316408Y211318D02*
X315096D01*
X313500Y195807D02*
X317436D01*
Y197775D01*
X316780Y198431D01*
X315468D01*
X314812Y197775D01*
Y195807D01*
Y197119D02*
X313500Y198431D01*
Y199743D02*
Y201055D01*
Y200399D01*
X317436D01*
X316780Y199743D01*
X313500Y203023D02*
Y204334D01*
Y203679D01*
X317436D01*
X316780Y203023D01*
X302500Y210850D02*
Y214786D01*
X300532D01*
X299876Y214130D01*
Y212818D01*
X300532Y212162D01*
X302500D01*
X301188D02*
X299876Y210850D01*
X298564Y214786D02*
X295940D01*
Y214130D01*
X298564Y211506D01*
Y210850D01*
X325693Y254500D02*
Y258436D01*
X323725D01*
X323069Y257780D01*
Y256468D01*
X323725Y255812D01*
X325693D01*
X324381D02*
X323069Y254500D01*
X319133D02*
X321757D01*
X319133Y257124D01*
Y257780D01*
X319789Y258436D01*
X321101D01*
X321757Y257780D01*
X308531Y254500D02*
Y258436D01*
X306564D01*
X305908Y257780D01*
Y256468D01*
X306564Y255812D01*
X308531D01*
X307220D02*
X305908Y254500D01*
X304596D02*
X303284D01*
X303940D01*
Y258436D01*
X304596Y257780D01*
X65000Y26500D02*
Y30436D01*
X63032D01*
X62376Y29780D01*
Y28468D01*
X63032Y27812D01*
X65000D01*
X63688D02*
X62376Y26500D01*
X59096D02*
Y30436D01*
X61064Y28468D01*
X58440D01*
X54505Y30436D02*
X55817Y29780D01*
X57129Y28468D01*
Y27156D01*
X56473Y26500D01*
X55161D01*
X54505Y27156D01*
Y27812D01*
X55161Y28468D01*
X57129D01*
X2500Y29333D02*
Y26054D01*
X1844Y25398D01*
X532D01*
X-124Y26054D01*
Y29333D01*
X-3404Y25398D02*
Y29333D01*
X-1436Y27365D01*
X-4060D01*
X41500Y42350D02*
Y46286D01*
X39532D01*
X38876Y45630D01*
Y44318D01*
X39532Y43662D01*
X41500D01*
X40188D02*
X38876Y42350D01*
X37564Y43006D02*
X36908Y42350D01*
X35596D01*
X34940Y43006D01*
Y45630D01*
X35596Y46286D01*
X36908D01*
X37564Y45630D01*
Y44974D01*
X36908Y44318D01*
X34940D01*
X51000Y57941D02*
Y61877D01*
X49032D01*
X48376Y61221D01*
Y59909D01*
X49032Y59253D01*
X51000D01*
X49688D02*
X48376Y57941D01*
X47064D02*
X45752D01*
X46408D01*
Y61877D01*
X47064Y61221D01*
X41161Y57941D02*
X43784D01*
X41161Y60565D01*
Y61221D01*
X41817Y61877D01*
X43128D01*
X43784Y61221D01*
X10376Y67656D02*
Y70280D01*
X11032Y70936D01*
X12344D01*
X13000Y70280D01*
Y67656D01*
X12344Y67000D01*
X11032D01*
X11688Y68312D02*
X10376Y67000D01*
X11032D02*
X10376Y67656D01*
X9064Y67000D02*
X7752D01*
X8408D01*
Y70936D01*
X9064Y70280D01*
X29500Y81936D02*
Y78000D01*
X27532D01*
X26876Y78656D01*
Y81280D01*
X27532Y81936D01*
X29500D01*
X22940Y78000D02*
X25564D01*
X22940Y80624D01*
Y81280D01*
X23596Y81936D01*
X24908D01*
X25564Y81280D01*
X20179Y19780D02*
X20835Y20436D01*
X22147D01*
X22803Y19780D01*
Y17156D01*
X22147Y16500D01*
X20835D01*
X20179Y17156D01*
X18867Y19780D02*
X18212Y20436D01*
X16899D01*
X16244Y19780D01*
Y19124D01*
X16899Y18468D01*
X17556D01*
X16899D01*
X16244Y17812D01*
Y17156D01*
X16899Y16500D01*
X18212D01*
X18867Y17156D01*
X29179Y19780D02*
X29835Y20436D01*
X31147D01*
X31803Y19780D01*
Y17156D01*
X31147Y16500D01*
X29835D01*
X29179Y17156D01*
X25244Y16500D02*
X27867D01*
X25244Y19124D01*
Y19780D01*
X25899Y20436D01*
X27211D01*
X27867Y19780D01*
X45376Y4784D02*
X46032Y5440D01*
X47344D01*
X48000Y4784D01*
Y2160D01*
X47344Y1504D01*
X46032D01*
X45376Y2160D01*
X44064Y1504D02*
X42752D01*
X43408D01*
Y5440D01*
X44064Y4784D01*
X876Y43736D02*
X1532Y44392D01*
X2844D01*
X3500Y43736D01*
Y41113D01*
X2844Y40457D01*
X1532D01*
X876Y41113D01*
X-2404Y40457D02*
Y44392D01*
X-436Y42425D01*
X-3060D01*
X87311Y38936D02*
Y35656D01*
X86655Y35000D01*
X85343D01*
X84687Y35656D01*
Y38936D01*
X83375Y38280D02*
X82719Y38936D01*
X81407D01*
X80752Y38280D01*
Y37624D01*
X81407Y36968D01*
X82063D01*
X81407D01*
X80752Y36312D01*
Y35656D01*
X81407Y35000D01*
X82719D01*
X83375Y35656D01*
X79000Y50457D02*
Y54392D01*
X77032D01*
X76376Y53737D01*
Y52425D01*
X77032Y51769D01*
X79000D01*
X77688D02*
X76376Y50457D01*
X75064D02*
X73752D01*
X74408D01*
Y54392D01*
X75064Y53737D01*
X71785D02*
X71128Y54392D01*
X69817D01*
X69161Y53737D01*
Y53080D01*
X69817Y52425D01*
X70473D01*
X69817D01*
X69161Y51769D01*
Y51113D01*
X69817Y50457D01*
X71128D01*
X71785Y51113D01*
X104768Y68000D02*
Y71936D01*
X102800D01*
X102144Y71280D01*
Y69968D01*
X102800Y69312D01*
X104768D01*
X103456D02*
X102144Y68000D01*
X100832Y71280D02*
X100176Y71936D01*
X98864D01*
X98208Y71280D01*
Y70624D01*
X98864Y69968D01*
X99520D01*
X98864D01*
X98208Y69312D01*
Y68656D01*
X98864Y68000D01*
X100176D01*
X100832Y68656D01*
X114488Y17500D02*
Y21436D01*
X112520D01*
X111864Y20780D01*
Y19468D01*
X112520Y18812D01*
X114488D01*
X110552Y17500D02*
X109240D01*
X109896D01*
Y21436D01*
X110552Y20780D01*
X79500Y63680D02*
Y59744D01*
X77532D01*
X76876Y60400D01*
Y63024D01*
X77532Y63680D01*
X79500D01*
X75564Y59744D02*
X74252D01*
X74908D01*
Y63680D01*
X75564Y63024D01*
X114419Y52280D02*
X115075Y52936D01*
X116387D01*
X117043Y52280D01*
Y49656D01*
X116387Y49000D01*
X115075D01*
X114419Y49656D01*
X110484Y52936D02*
X113108D01*
Y50968D01*
X111796Y51624D01*
X111140D01*
X110484Y50968D01*
Y49656D01*
X111140Y49000D01*
X112452D01*
X113108Y49656D01*
X225500Y127436D02*
Y126780D01*
X224188Y125468D01*
X222876Y126780D01*
Y127436D01*
X224188Y125468D02*
Y123500D01*
X221564D02*
X220252D01*
X220908D01*
Y127436D01*
X221564Y126780D01*
X273000Y152436D02*
Y149156D01*
X272344Y148500D01*
X271032D01*
X270376Y149156D01*
Y152436D01*
X266440D02*
X269064D01*
Y150468D01*
X267752Y151124D01*
X267096D01*
X266440Y150468D01*
Y149156D01*
X267096Y148500D01*
X268408D01*
X269064Y149156D01*
X304402Y166000D02*
Y169936D01*
X302434D01*
X301778Y169280D01*
Y167968D01*
X302434Y167312D01*
X304402D01*
X303090D02*
X301778Y166000D01*
X300466D02*
X299154D01*
X299810D01*
Y169936D01*
X300466Y169280D01*
X297186D02*
X296530Y169936D01*
X295218D01*
X294562Y169280D01*
Y168624D01*
X295218Y167968D01*
X294562Y167312D01*
Y166656D01*
X295218Y166000D01*
X296530D01*
X297186Y166656D01*
Y167312D01*
X296530Y167968D01*
X297186Y168624D01*
Y169280D01*
X296530Y167968D02*
X295218D01*
X257000Y146000D02*
Y149936D01*
X255032D01*
X254376Y149280D01*
Y147968D01*
X255032Y147312D01*
X257000D01*
X255688D02*
X254376Y146000D01*
X253064D02*
X251752D01*
X252408D01*
Y149936D01*
X253064Y149280D01*
X249784Y146656D02*
X249129Y146000D01*
X247817D01*
X247161Y146656D01*
Y149280D01*
X247817Y149936D01*
X249129D01*
X249784Y149280D01*
Y148624D01*
X249129Y147968D01*
X247161D01*
X324000Y99000D02*
Y102936D01*
X322032D01*
X321376Y102280D01*
Y100968D01*
X322032Y100312D01*
X324000D01*
X322688D02*
X321376Y99000D01*
X320064D02*
X318752D01*
X319408D01*
Y102936D01*
X320064Y102280D01*
X314161Y102936D02*
X316785D01*
Y100968D01*
X315473Y101624D01*
X314817D01*
X314161Y100968D01*
Y99656D01*
X314817Y99000D01*
X316128D01*
X316785Y99656D01*
X287189Y168936D02*
Y165000D01*
X285221D01*
X284565Y165656D01*
Y168280D01*
X285221Y168936D01*
X287189D01*
X280629D02*
X283253D01*
Y166968D01*
X281941Y167624D01*
X281285D01*
X280629Y166968D01*
Y165656D01*
X281285Y165000D01*
X282597D01*
X283253Y165656D01*
X323376Y46280D02*
X324032Y46936D01*
X325344D01*
X326000Y46280D01*
Y43656D01*
X325344Y43000D01*
X324032D01*
X323376Y43656D01*
X319440Y46936D02*
X320752Y46280D01*
X322064Y44968D01*
Y43656D01*
X321408Y43000D01*
X320096D01*
X319440Y43656D01*
Y44312D01*
X320096Y44968D01*
X322064D01*
X226376Y157284D02*
X227032Y157940D01*
X228344D01*
X229000Y157284D01*
Y154660D01*
X228344Y154004D01*
X227032D01*
X226376Y154660D01*
X225064Y154004D02*
X223752D01*
X224408D01*
Y157940D01*
X225064Y157284D01*
X219161Y157940D02*
X221784D01*
Y155972D01*
X220473Y156628D01*
X219817D01*
X219161Y155972D01*
Y154660D01*
X219817Y154004D01*
X221129D01*
X221784Y154660D01*
X226376Y111784D02*
X227032Y112440D01*
X228344D01*
X229000Y111784D01*
Y109160D01*
X228344Y108504D01*
X227032D01*
X226376Y109160D01*
X225064Y108504D02*
X223752D01*
X224408D01*
Y112440D01*
X225064Y111784D01*
X221784D02*
X221129Y112440D01*
X219817D01*
X219161Y111784D01*
Y111128D01*
X219817Y110472D01*
X220473D01*
X219817D01*
X219161Y109816D01*
Y109160D01*
X219817Y108504D01*
X221129D01*
X221784Y109160D01*
X267420Y91280D02*
X268075Y91936D01*
X269387D01*
X270043Y91280D01*
Y88656D01*
X269387Y88000D01*
X268075D01*
X267420Y88656D01*
X266108Y91280D02*
X265452Y91936D01*
X264140D01*
X263484Y91280D01*
Y90624D01*
X264140Y89968D01*
X263484Y89312D01*
Y88656D01*
X264140Y88000D01*
X265452D01*
X266108Y88656D01*
Y89312D01*
X265452Y89968D01*
X266108Y90624D01*
Y91280D01*
X265452Y89968D02*
X264140D01*
X328872Y130520D02*
X329528Y131176D01*
X330840D01*
X331496Y130520D01*
Y127896D01*
X330840Y127240D01*
X329528D01*
X328872Y127896D01*
X327560Y131176D02*
X324937D01*
Y130520D01*
X327560Y127896D01*
Y127240D01*
X173000Y84392D02*
Y81113D01*
X172344Y80457D01*
X171032D01*
X170376Y81113D01*
Y84392D01*
X166440D02*
X167752Y83736D01*
X169064Y82425D01*
Y81113D01*
X168408Y80457D01*
X167096D01*
X166440Y81113D01*
Y81769D01*
X167096Y82425D01*
X169064D01*
X228693Y66000D02*
Y69936D01*
X226725D01*
X226069Y69280D01*
Y67968D01*
X226725Y67312D01*
X228693D01*
X227381D02*
X226069Y66000D01*
X224757D02*
X223445D01*
X224101D01*
Y69936D01*
X224757Y69280D01*
X221477Y69936D02*
X218854D01*
Y69280D01*
X221477Y66656D01*
Y66000D01*
X228693Y41500D02*
Y45436D01*
X226725D01*
X226069Y44780D01*
Y43468D01*
X226725Y42812D01*
X228693D01*
X227381D02*
X226069Y41500D01*
X224757D02*
X223445D01*
X224101D01*
Y45436D01*
X224757Y44780D01*
X218854Y45436D02*
X220165Y44780D01*
X221477Y43468D01*
Y42156D01*
X220821Y41500D01*
X219510D01*
X218854Y42156D01*
Y42812D01*
X219510Y43468D01*
X221477D01*
X207500Y23000D02*
Y26936D01*
X205532D01*
X204876Y26280D01*
Y24968D01*
X205532Y24312D01*
X207500D01*
X203564Y26280D02*
X202908Y26936D01*
X201596D01*
X200940Y26280D01*
Y25624D01*
X201596Y24968D01*
X202252D01*
X201596D01*
X200940Y24312D01*
Y23656D01*
X201596Y23000D01*
X202908D01*
X203564Y23656D01*
X195500Y60892D02*
Y56957D01*
X193532D01*
X192876Y57613D01*
Y60237D01*
X193532Y60892D01*
X195500D01*
X189596Y56957D02*
Y60892D01*
X191564Y58925D01*
X188940D01*
X195500Y52936D02*
Y49000D01*
X193532D01*
X192876Y49656D01*
Y52280D01*
X193532Y52936D01*
X195500D01*
X191564Y52280D02*
X190908Y52936D01*
X189596D01*
X188940Y52280D01*
Y51624D01*
X189596Y50968D01*
X190252D01*
X189596D01*
X188940Y50312D01*
Y49656D01*
X189596Y49000D01*
X190908D01*
X191564Y49656D01*
X247376Y65311D02*
X248032Y65967D01*
X249344D01*
X250000Y65311D01*
Y62687D01*
X249344Y62032D01*
X248032D01*
X247376Y62687D01*
X246064Y62032D02*
X244752D01*
X245408D01*
Y65967D01*
X246064Y65311D01*
X242785D02*
X242128Y65967D01*
X240817D01*
X240161Y65311D01*
Y62687D01*
X240817Y62032D01*
X242128D01*
X242785Y62687D01*
Y65311D01*
X235376D02*
X236032Y65967D01*
X237344D01*
X238000Y65311D01*
Y62687D01*
X237344Y62032D01*
X236032D01*
X235376Y62687D01*
X234064D02*
X233408Y62032D01*
X232096D01*
X231440Y62687D01*
Y65311D01*
X232096Y65967D01*
X233408D01*
X234064Y65311D01*
Y64655D01*
X233408Y63999D01*
X231440D01*
X142376Y90280D02*
X143032Y90936D01*
X144344D01*
X145000Y90280D01*
Y87656D01*
X144344Y87000D01*
X143032D01*
X142376Y87656D01*
X141064Y87000D02*
X139752D01*
X140408D01*
Y90936D01*
X141064Y90280D01*
X135817Y87000D02*
Y90936D01*
X137785Y88968D01*
X135161D01*
X10893Y140436D02*
Y137156D01*
X10237Y136500D01*
X8925D01*
X8269Y137156D01*
Y140436D01*
X6957Y139780D02*
X6301Y140436D01*
X4989D01*
X4333Y139780D01*
Y139124D01*
X4989Y138468D01*
X4333Y137812D01*
Y137156D01*
X4989Y136500D01*
X6301D01*
X6957Y137156D01*
Y137812D01*
X6301Y138468D01*
X6957Y139124D01*
Y139780D01*
X6301Y138468D02*
X4989D01*
X15551Y189936D02*
Y186656D01*
X14895Y186000D01*
X13583D01*
X12927Y186656D01*
Y189936D01*
X11615D02*
X8992D01*
Y189280D01*
X11615Y186656D01*
Y186000D01*
X45376Y129780D02*
X46032Y130436D01*
X47344D01*
X48000Y129780D01*
Y127156D01*
X47344Y126500D01*
X46032D01*
X45376Y127156D01*
X44064Y126500D02*
X42752D01*
X43408D01*
Y130436D01*
X44064Y129780D01*
X38161Y126500D02*
X40784D01*
X38161Y129124D01*
Y129780D01*
X38817Y130436D01*
X40128D01*
X40784Y129780D01*
X48876Y179280D02*
X49532Y179936D01*
X50844D01*
X51500Y179280D01*
Y176656D01*
X50844Y176000D01*
X49532D01*
X48876Y176656D01*
X47564Y176000D02*
X46252D01*
X46908D01*
Y179936D01*
X47564Y179280D01*
X44284Y176000D02*
X42973D01*
X43628D01*
Y179936D01*
X44284Y179280D01*
X65000Y21000D02*
Y24936D01*
X63032D01*
X62376Y24280D01*
Y22968D01*
X63032Y22312D01*
X65000D01*
X63688D02*
X62376Y21000D01*
X59096D02*
Y24936D01*
X61064Y22968D01*
X58440D01*
X57129Y24936D02*
X54505D01*
Y24280D01*
X57129Y21656D01*
Y21000D01*
X47500Y-15063D02*
X51436D01*
Y-13095D01*
X50780Y-12439D01*
X49468D01*
X48812Y-13095D01*
Y-15063D01*
X47500Y-11127D02*
Y-9815D01*
Y-10471D01*
X51436D01*
X50780Y-11127D01*
X51436Y-5224D02*
Y-7847D01*
X49468D01*
X50124Y-6536D01*
Y-5880D01*
X49468Y-5224D01*
X48156D01*
X47500Y-5880D01*
Y-7192D01*
X48156Y-7847D01*
D12*
X316012Y230087D02*
G03*
X316012Y230087I-492J0D01*
G01*
X268653Y111728D02*
G03*
X268653Y111728I-492J0D01*
G01*
X16217Y38488D02*
G03*
X16217Y38488I-492J0D01*
G01*
X16043Y64449D02*
G03*
X16043Y64449I-492J0D01*
G01*
X149721Y38217D02*
G03*
X149721Y38217I-492J0D01*
G01*
X20768Y175913D02*
G03*
X20768Y175913I-492J0D01*
G01*
X16043Y126413D02*
G03*
X16043Y126413I-492J0D01*
G01*
X101716Y48087D02*
G03*
X101716Y48087I-492J0D01*
G01*
D13*
X233500Y322498D02*
X230168D01*
X231834D01*
Y317500D01*
X226002Y322498D02*
X227669D01*
X228502Y321665D01*
Y318333D01*
X227669Y317500D01*
X226002D01*
X225169Y318333D01*
Y321665D01*
X226002Y322498D01*
X218505Y317500D02*
Y320832D01*
X216839Y322498D01*
X215173Y320832D01*
Y317500D01*
Y319999D01*
X218505D01*
X213507Y322498D02*
Y317500D01*
X211007D01*
X210174Y318333D01*
Y321665D01*
X211007Y322498D01*
X213507D01*
X208508Y317500D02*
Y322498D01*
X206842Y320832D01*
X205176Y322498D01*
Y317500D01*
D14*
X11394Y37602D02*
G03*
X12772Y36224I1378J0D01*
G01*
X194000Y19500D02*
X199000D01*
X166500Y0D02*
Y10000D01*
X205500Y0D02*
Y10000D01*
X166500Y-17469D02*
Y-11500D01*
Y-17469D02*
X205500D01*
Y-11500D01*
X173000Y19500D02*
X178000D01*
X308531Y216898D02*
Y229102D01*
X312469Y216898D02*
Y229102D01*
X308531Y216898D02*
X312469D01*
X308531Y229102D02*
X312469D01*
X272492Y113992D02*
Y138008D01*
X296508Y113992D02*
Y138008D01*
X272492Y113992D02*
X296508D01*
X272492Y138008D02*
X296508D01*
X9228Y25398D02*
Y37602D01*
X12772Y25398D02*
Y37602D01*
X9228Y25398D02*
X12772D01*
X9228Y37602D02*
X12772D01*
X8268Y63169D02*
X12205D01*
X8268Y60118D02*
Y63169D01*
Y51358D02*
X12205D01*
X8268D02*
Y54409D01*
X25500Y67815D02*
Y68996D01*
Y64272D02*
Y65059D01*
X23925Y67815D02*
X27468D01*
X25500Y65059D02*
X27468Y67815D01*
X23925D02*
X25500Y65059D01*
X23531D02*
X27468D01*
X154051Y37331D02*
Y78669D01*
X172949Y37331D02*
Y78669D01*
X154051Y37331D02*
X172949D01*
X154051Y78669D02*
X172949D01*
X23819Y176996D02*
X26181D01*
X23819Y188807D02*
X26181D01*
X23819Y176996D02*
Y188807D01*
X26181Y176996D02*
Y188807D01*
Y177094D02*
Y188906D01*
X23819Y177094D02*
Y188906D01*
X26181D01*
X23819Y177094D02*
X26181D01*
X19094Y127496D02*
X21457D01*
X19094Y139307D02*
X21457D01*
X19094Y127496D02*
Y139307D01*
X21457Y127496D02*
Y139307D01*
Y127594D02*
Y139406D01*
X19094Y127594D02*
Y139406D01*
X21457D01*
X19094Y127594D02*
X21457D01*
X95319Y47004D02*
X97681D01*
X95319Y35193D02*
X97681D01*
Y47004D01*
X95319Y35193D02*
Y47004D01*
Y35094D02*
Y46905D01*
X97681Y35094D02*
Y46905D01*
X95319Y35094D02*
X97681D01*
X95319Y46905D02*
X97681D01*
X135546Y131281D02*
Y133905D01*
X136201Y134561D01*
X137513D01*
X138169Y133905D01*
Y131281D01*
X137513Y130625D01*
X136201D01*
X136857Y131937D02*
X135546Y130625D01*
X136201D02*
X135546Y131281D01*
X134233Y134561D02*
Y131281D01*
X133578Y130625D01*
X132266D01*
X131610Y131281D01*
Y134561D01*
X127674D02*
X130298D01*
Y130625D01*
X127674D01*
X130298Y132593D02*
X128986D01*
X126362Y134561D02*
X123738D01*
X125050D01*
Y130625D01*
X122426Y134561D02*
X119802D01*
Y133905D01*
X122426Y131281D01*
Y130625D01*
X119802D01*
X118491D02*
Y133249D01*
X117179Y134561D01*
X115867Y133249D01*
Y130625D01*
Y132593D01*
X118491D01*
X114555Y134561D02*
Y130625D01*
X111931D01*
X110619Y132593D02*
X107995D01*
X106683Y130625D02*
X105371D01*
X106027D01*
Y134561D01*
X106683Y133905D01*
X138169Y124013D02*
Y127948D01*
X136201D01*
X135546Y127293D01*
Y125981D01*
X136201Y125325D01*
X138169D01*
X134233Y127948D02*
X131610D01*
X132922D01*
Y124013D01*
X130298Y125981D02*
X127674D01*
X126362Y124013D02*
Y127948D01*
X125050Y126637D01*
X123738Y127948D01*
Y124013D01*
X122426Y127948D02*
X121114D01*
X121770D01*
Y124013D01*
X122426D01*
X121114D01*
X116523Y127293D02*
X117179Y127948D01*
X118491D01*
X119147Y127293D01*
Y126637D01*
X118491Y125981D01*
X117179D01*
X116523Y125325D01*
Y124669D01*
X117179Y124013D01*
X118491D01*
X119147Y124669D01*
X115211Y125981D02*
X112587D01*
X111275Y124013D02*
Y127948D01*
X109307D01*
X108651Y127293D01*
Y125981D01*
X109307Y125325D01*
X111275D01*
X104716Y127293D02*
X105371Y127948D01*
X106683D01*
X107339Y127293D01*
Y124669D01*
X106683Y124013D01*
X105371D01*
X104716Y124669D01*
X103404Y127948D02*
Y124013D01*
X101436D01*
X100780Y124669D01*
Y125325D01*
X101436Y125981D01*
X103404D01*
X101436D01*
X100780Y126637D01*
Y127293D01*
X101436Y127948D01*
X103404D01*
X99468Y125981D02*
X96844D01*
X95532Y127293D02*
X94876Y127948D01*
X93564D01*
X92908Y127293D01*
Y124669D01*
X93564Y124013D01*
X94876D01*
X95532Y124669D01*
Y127293D01*
X91596D02*
X90940Y127948D01*
X89628D01*
X88973Y127293D01*
Y124669D01*
X89628Y124013D01*
X90940D01*
X91596Y124669D01*
Y127293D01*
X87661Y124013D02*
X86349D01*
X87005D01*
Y127948D01*
X87661Y127293D01*
X138169Y121336D02*
Y118712D01*
X136857Y117400D01*
X135546Y118712D01*
Y121336D01*
X131610D02*
X134233D01*
Y117400D01*
X131610D01*
X134233Y119368D02*
X132922D01*
X130298Y117400D02*
Y121336D01*
X128330D01*
X127674Y120680D01*
Y119368D01*
X128330Y118712D01*
X130298D01*
X128986D02*
X127674Y117400D01*
X123738Y120680D02*
X124394Y121336D01*
X125706D01*
X126362Y120680D01*
Y120024D01*
X125706Y119368D01*
X124394D01*
X123738Y118712D01*
Y118056D01*
X124394Y117400D01*
X125706D01*
X126362Y118056D01*
X122426Y121336D02*
X121114D01*
X121770D01*
Y117400D01*
X122426D01*
X121114D01*
X117179Y121336D02*
X118491D01*
X119147Y120680D01*
Y118056D01*
X118491Y117400D01*
X117179D01*
X116523Y118056D01*
Y120680D01*
X117179Y121336D01*
X115211Y117400D02*
Y121336D01*
X112587Y117400D01*
Y121336D01*
X111275Y120024D02*
X110619D01*
Y119368D01*
X111275D01*
Y120024D01*
Y118056D02*
X110619D01*
Y117400D01*
X111275D01*
Y118056D01*
X104060Y120024D02*
X102748Y117400D01*
X101436Y120024D01*
X100124Y117400D02*
X98812D01*
X99468D01*
Y121336D01*
X100124Y120680D01*
X96844Y117400D02*
Y118056D01*
X96188D01*
Y117400D01*
X96844D01*
X90940D02*
X93564D01*
X90940Y120024D01*
Y120680D01*
X91596Y121336D01*
X92908D01*
X93564Y120680D01*
X135546Y114067D02*
X136201Y114723D01*
X137513D01*
X138169Y114067D01*
Y113411D01*
X137513Y112755D01*
X136201D01*
X135546Y112099D01*
Y111443D01*
X136201Y110787D01*
X137513D01*
X138169Y111443D01*
X131610Y114723D02*
X134233D01*
Y110787D01*
X131610D01*
X134233Y112755D02*
X132922D01*
X130298Y110787D02*
Y114723D01*
X128330D01*
X127674Y114067D01*
Y112755D01*
X128330Y112099D01*
X130298D01*
X128986D02*
X127674Y110787D01*
X126362Y114723D02*
X125050D01*
X125706D01*
Y110787D01*
X126362D01*
X125050D01*
X123082D02*
Y113411D01*
X121770Y114723D01*
X120458Y113411D01*
Y110787D01*
Y112755D01*
X123082D01*
X119147Y114723D02*
Y110787D01*
X116523D01*
X111275D02*
Y114723D01*
X108651Y110787D01*
Y114723D01*
X105371D02*
X106683D01*
X107339Y114067D01*
Y111443D01*
X106683Y110787D01*
X105371D01*
X104716Y111443D01*
Y114067D01*
X105371Y114723D01*
X103404Y113411D02*
X102748D01*
Y112755D01*
X103404D01*
Y113411D01*
Y111443D02*
X102748D01*
Y110787D01*
X103404D01*
Y111443D01*
D115*
X15283Y221128D02*
G03*
X15283Y221128I-197J0D01*
G01*
D116*
X277610Y117929D02*
G03*
X277610Y117929I-1181J0D01*
G01*
D117*
X236000Y238000D02*
X242075D01*
X236000Y237925D02*
X242075D01*
X235925Y237850D02*
X242150D01*
X235925Y237775D02*
X242150D01*
X235850Y237700D02*
X242225D01*
X235850Y237625D02*
X242225D01*
X235850Y237550D02*
X242225D01*
X235850Y237475D02*
X242225D01*
X235850Y237400D02*
X242225D01*
X235850Y237325D02*
X242225D01*
X235775Y237250D02*
X242300D01*
X235775Y237175D02*
X242300D01*
X235775Y237100D02*
X242300D01*
X235775Y237025D02*
X242300D01*
X235775Y236950D02*
X242300D01*
X235700Y236875D02*
X242375D01*
X235700Y236800D02*
X242375D01*
X235700Y236725D02*
X242375D01*
X235700Y236650D02*
X242375D01*
X235700Y236575D02*
X242375D01*
X235625Y236500D02*
X242450D01*
X235625Y236425D02*
X242450D01*
X235625Y236350D02*
X242450D01*
X235625Y236275D02*
X242450D01*
X235625Y236200D02*
X242450D01*
X235625Y236125D02*
X242450D01*
X235550Y236050D02*
X242525D01*
X235550Y235975D02*
X242525D01*
X235550Y235900D02*
X242525D01*
X235550Y235825D02*
X242525D01*
X235550Y235750D02*
X242525D01*
X235475Y235675D02*
X242600D01*
X235475Y235600D02*
X242600D01*
X235475Y235525D02*
X242600D01*
X235475Y235450D02*
X242600D01*
X235475Y235375D02*
X242600D01*
X235400Y235300D02*
X242600D01*
X235400Y235225D02*
X242675D01*
X235400Y235150D02*
X242675D01*
X235400Y235075D02*
X242675D01*
X235400Y235000D02*
X242675D01*
X235400Y234925D02*
X242675D01*
X235325Y234850D02*
X242750D01*
X235325Y234775D02*
X242750D01*
X235325Y234700D02*
X242750D01*
X235325Y234625D02*
X242750D01*
X235325Y234550D02*
X242750D01*
X235250Y234475D02*
X242825D01*
X235250Y234400D02*
X242825D01*
X235250Y234325D02*
X242825D01*
X235250Y234250D02*
X242825D01*
X235250Y234175D02*
X242825D01*
X235250Y234100D02*
X242825D01*
X235175Y234025D02*
X242900D01*
X235175Y233950D02*
X242900D01*
X235175Y233875D02*
X242900D01*
X235175Y233800D02*
X242900D01*
X235175Y233725D02*
X242900D01*
X235100Y233650D02*
X242975D01*
X252275Y233575D02*
X252725D01*
X235100D02*
X242975D01*
X225350D02*
X225800D01*
X252200Y233500D02*
X252800D01*
X235100D02*
X242975D01*
X225275D02*
X225875D01*
X252125Y233425D02*
X252875D01*
X235100D02*
X242975D01*
X225200D02*
X225950D01*
X251975Y233350D02*
X252950D01*
X235100D02*
X242975D01*
X225125D02*
X226100D01*
X251900Y233275D02*
X253025D01*
X235025D02*
X243050D01*
X225050D02*
X226175D01*
X251750Y233200D02*
X253100D01*
X235025D02*
X243050D01*
X224975D02*
X226325D01*
X251675Y233125D02*
X253175D01*
X235025D02*
X243050D01*
X224900D02*
X226400D01*
X251525Y233050D02*
X253250D01*
X235025D02*
X243050D01*
X224825D02*
X226550D01*
X251450Y232975D02*
X253325D01*
X235025D02*
X243050D01*
X224750D02*
X226625D01*
X251300Y232900D02*
X253400D01*
X235025D02*
X243050D01*
X224675D02*
X226775D01*
X251225Y232825D02*
X253475D01*
X234950D02*
X243125D01*
X224600D02*
X226850D01*
X251075Y232750D02*
X253550D01*
X234950D02*
X243125D01*
X224525D02*
X227000D01*
X251000Y232675D02*
X253625D01*
X234950D02*
X243125D01*
X224450D02*
X227075D01*
X250925Y232600D02*
X253700D01*
X234950D02*
X243125D01*
X224375D02*
X227150D01*
X250775Y232525D02*
X253775D01*
X234950D02*
X243125D01*
X224300D02*
X227300D01*
X250700Y232450D02*
X253850D01*
X234875D02*
X243200D01*
X224225D02*
X227375D01*
X250550Y232375D02*
X253925D01*
X234875D02*
X243200D01*
X224150D02*
X227525D01*
X250475Y232300D02*
X254000D01*
X234875D02*
X243200D01*
X224075D02*
X227600D01*
X250325Y232225D02*
X254075D01*
X234875D02*
X243200D01*
X224000D02*
X227750D01*
X250250Y232150D02*
X254150D01*
X234800D02*
X243200D01*
X223925D02*
X227825D01*
X250100Y232075D02*
X254225D01*
X234800D02*
X243275D01*
X223850D02*
X227975D01*
X250025Y232000D02*
X254300D01*
X234725D02*
X243350D01*
X223775D02*
X228050D01*
X249875Y231925D02*
X254375D01*
X234650D02*
X243425D01*
X223700D02*
X228200D01*
X249800Y231850D02*
X254450D01*
X234500D02*
X243575D01*
X223625D02*
X228275D01*
X249650Y231775D02*
X254525D01*
X234350D02*
X243725D01*
X223550D02*
X228425D01*
X249575Y231700D02*
X254600D01*
X234125D02*
X243950D01*
X223475D02*
X228500D01*
X249500Y231625D02*
X254675D01*
X233975D02*
X244100D01*
X223400D02*
X228575D01*
X249350Y231550D02*
X254750D01*
X233750D02*
X244250D01*
X223325D02*
X228725D01*
X249275Y231475D02*
X254825D01*
X233600D02*
X244475D01*
X223250D02*
X228800D01*
X249125Y231400D02*
X254900D01*
X233450D02*
X244625D01*
X223175D02*
X228950D01*
X249050Y231325D02*
X254975D01*
X233225D02*
X244850D01*
X223100D02*
X229025D01*
X248900Y231250D02*
X255050D01*
X233075D02*
X245000D01*
X223025D02*
X229175D01*
X248825Y231175D02*
X255125D01*
X232850D02*
X245225D01*
X222950D02*
X229250D01*
X248675Y231100D02*
X255200D01*
X232700D02*
X245375D01*
X222875D02*
X229400D01*
X248600Y231025D02*
X255275D01*
X232475D02*
X245600D01*
X222800D02*
X229475D01*
X248450Y230950D02*
X255350D01*
X232325D02*
X245750D01*
X222725D02*
X229625D01*
X248375Y230875D02*
X255425D01*
X232175D02*
X245900D01*
X222650D02*
X229700D01*
X248300Y230800D02*
X255500D01*
X231950D02*
X246125D01*
X222575D02*
X229775D01*
X248150Y230725D02*
X255575D01*
X231800D02*
X246275D01*
X222500D02*
X229925D01*
X248075Y230650D02*
X255650D01*
X231575D02*
X246500D01*
X222425D02*
X230000D01*
X247925Y230575D02*
X255725D01*
X231425D02*
X246650D01*
X222350D02*
X230150D01*
X247850Y230500D02*
X255800D01*
X231200D02*
X246875D01*
X222275D02*
X230225D01*
X247700Y230425D02*
X255875D01*
X231050D02*
X247025D01*
X222200D02*
X230375D01*
X247625Y230350D02*
X255950D01*
X230825D02*
X247250D01*
X222125D02*
X230450D01*
X222050Y230275D02*
X256025D01*
X221975Y230200D02*
X256100D01*
X221900Y230125D02*
X256175D01*
X221825Y230050D02*
X256250D01*
X221750Y229975D02*
X256325D01*
X221675Y229900D02*
X256400D01*
X221600Y229825D02*
X256475D01*
X221525Y229750D02*
X256550D01*
X221450Y229675D02*
X256625D01*
X221375Y229600D02*
X256700D01*
X221300Y229525D02*
X256775D01*
X221300Y229450D02*
X256775D01*
X221225Y229375D02*
X256850D01*
X221300Y229300D02*
X256775D01*
X221300Y229225D02*
X256775D01*
X221300Y229150D02*
X256775D01*
X221375Y229075D02*
X256700D01*
X221375Y229000D02*
X256700D01*
X221450Y228925D02*
X256625D01*
X221525Y228850D02*
X256550D01*
X221525Y228775D02*
X256550D01*
X221600Y228700D02*
X256475D01*
X221675Y228625D02*
X256400D01*
X221675Y228550D02*
X256400D01*
X221750Y228475D02*
X256325D01*
X221825Y228400D02*
X256250D01*
X221900Y228325D02*
X256175D01*
X221900Y228250D02*
X256175D01*
X221975Y228175D02*
X256100D01*
X222050Y228100D02*
X256025D01*
X222050Y228025D02*
X256025D01*
X222125Y227950D02*
X255950D01*
X222200Y227875D02*
X255875D01*
X222200Y227800D02*
X255875D01*
X222275Y227725D02*
X255800D01*
X222350Y227650D02*
X255725D01*
X222350Y227575D02*
X255725D01*
X222425Y227500D02*
X255650D01*
X222500Y227425D02*
X255575D01*
X222500Y227350D02*
X255575D01*
X222575Y227275D02*
X255500D01*
X222650Y227200D02*
X255425D01*
X222650Y227125D02*
X255425D01*
X222725Y227050D02*
X255350D01*
X222800Y226975D02*
X255275D01*
X222875Y226900D02*
X255200D01*
X222875Y226825D02*
X255200D01*
X222950Y226750D02*
X255125D01*
X223025Y226675D02*
X255050D01*
X223025Y226600D02*
X255050D01*
X223100Y226525D02*
X254975D01*
X223175Y226450D02*
X254900D01*
X223175Y226375D02*
X254900D01*
X223250Y226300D02*
X254825D01*
X223325Y226225D02*
X254750D01*
X223325Y226150D02*
X254750D01*
X223400Y226075D02*
X254675D01*
X223475Y226000D02*
X254600D01*
X223475Y225925D02*
X254600D01*
X223550Y225850D02*
X254525D01*
X223625Y225775D02*
X254450D01*
X223700Y225700D02*
X254375D01*
X223700Y225625D02*
X254375D01*
X223775Y225550D02*
X254300D01*
X223850Y225475D02*
X254225D01*
X223850Y225400D02*
X254225D01*
X223925Y225325D02*
X254150D01*
X224000Y225250D02*
X254075D01*
X224000Y225175D02*
X254075D01*
X224075Y225100D02*
X254000D01*
X224150Y225025D02*
X253925D01*
X224150Y224950D02*
X253925D01*
X224225Y224875D02*
X253850D01*
X224300Y224800D02*
X253775D01*
X224300Y224725D02*
X253775D01*
X224375Y224650D02*
X253700D01*
X224450Y224575D02*
X253625D01*
X224450Y224500D02*
X253625D01*
X224525Y224425D02*
X253550D01*
X224525Y224350D02*
X253550D01*
X224525Y224275D02*
X253550D01*
X224525Y224200D02*
X253550D01*
X224450Y224125D02*
X253625D01*
X224450Y224050D02*
X253625D01*
X224450Y223975D02*
X253625D01*
X224375Y223900D02*
X253700D01*
X224375Y223825D02*
X253700D01*
X224300Y223750D02*
X253775D01*
X224300Y223675D02*
X253775D01*
X224225Y223600D02*
X253850D01*
X224225Y223525D02*
X253850D01*
X224225Y223450D02*
X253850D01*
X224150Y223375D02*
X253925D01*
X224150Y223300D02*
X253925D01*
X224075Y223225D02*
X254000D01*
X224075Y223150D02*
X254000D01*
X224000Y223075D02*
X254075D01*
X224000Y223000D02*
X254075D01*
X224000Y222925D02*
X254075D01*
X223925Y222850D02*
X254150D01*
X223925Y222775D02*
X254150D01*
X223850Y222700D02*
X254225D01*
X223850Y222625D02*
X254225D01*
X223775Y222550D02*
X254300D01*
X223775Y222475D02*
X254300D01*
X223775Y222400D02*
X254300D01*
X223700Y222325D02*
X254375D01*
X223700Y222250D02*
X254375D01*
X223625Y222175D02*
X254450D01*
X223625Y222100D02*
X254450D01*
X223550Y222025D02*
X254525D01*
X239600Y221950D02*
X254525D01*
X223550D02*
X238475D01*
X240125Y221875D02*
X254525D01*
X223550D02*
X237950D01*
X240500Y221800D02*
X254600D01*
X223475D02*
X237575D01*
X240725Y221725D02*
X254600D01*
X223475D02*
X237350D01*
X241025Y221650D02*
X254675D01*
X223400D02*
X237050D01*
X241175Y221575D02*
X254675D01*
X223400D02*
X236900D01*
X241400Y221500D02*
X254750D01*
X223325D02*
X236675D01*
X241550Y221425D02*
X254750D01*
X223325D02*
X236525D01*
X241700Y221350D02*
X254750D01*
X223325D02*
X236375D01*
X241850Y221275D02*
X254825D01*
X223250D02*
X236225D01*
X242000Y221200D02*
X254825D01*
X223250D02*
X236075D01*
X242150Y221125D02*
X254900D01*
X223175D02*
X235925D01*
X242225Y221050D02*
X254900D01*
X223175D02*
X235850D01*
X242375Y220975D02*
X254975D01*
X223100D02*
X235700D01*
X242525Y220900D02*
X254975D01*
X223100D02*
X235550D01*
X242600Y220825D02*
X254975D01*
X223100D02*
X235475D01*
X242675Y220750D02*
X255050D01*
X223025D02*
X235400D01*
X242825Y220675D02*
X255050D01*
X223025D02*
X235250D01*
X242900Y220600D02*
X255125D01*
X222950D02*
X235175D01*
X242975Y220525D02*
X255125D01*
X222950D02*
X235100D01*
X243050Y220450D02*
X255200D01*
X222875D02*
X235025D01*
X243125Y220375D02*
X255200D01*
X222875D02*
X234950D01*
X243275Y220300D02*
X255200D01*
X222875D02*
X234800D01*
X243350Y220225D02*
X255275D01*
X222800D02*
X234725D01*
X243425Y220150D02*
X255350D01*
X222725D02*
X234650D01*
X243500Y220075D02*
X255425D01*
X222650D02*
X234575D01*
X243575Y220000D02*
X255575D01*
X222500D02*
X234500D01*
X243575Y219925D02*
X255950D01*
X222125D02*
X234500D01*
X243650Y219850D02*
X256325D01*
X221750D02*
X234425D01*
X243725Y219775D02*
X256700D01*
X221375D02*
X234350D01*
X243800Y219700D02*
X257150D01*
X220925D02*
X234275D01*
X243875Y219625D02*
X257525D01*
X220550D02*
X234200D01*
X243950Y219550D02*
X257900D01*
X220175D02*
X234125D01*
X243950Y219475D02*
X258350D01*
X219725D02*
X234125D01*
X244025Y219400D02*
X258725D01*
X219350D02*
X234050D01*
X244100Y219325D02*
X259175D01*
X218900D02*
X233975D01*
X244175Y219250D02*
X259550D01*
X218525D02*
X233900D01*
X244175Y219175D02*
X259925D01*
X218150D02*
X233900D01*
X244250Y219100D02*
X260375D01*
X217700D02*
X233825D01*
X244250Y219025D02*
X260750D01*
X217325D02*
X233825D01*
X244325Y218950D02*
X261050D01*
X217025D02*
X233750D01*
X244400Y218875D02*
X261200D01*
X216875D02*
X233675D01*
X244400Y218800D02*
X261200D01*
X216875D02*
X233675D01*
X244475Y218725D02*
X261275D01*
X216800D02*
X233600D01*
X244475Y218650D02*
X261275D01*
X216800D02*
X233600D01*
X244550Y218575D02*
X261275D01*
X216800D02*
X233525D01*
X244550Y218500D02*
X261275D01*
X216800D02*
X233525D01*
X244625Y218425D02*
X261275D01*
X216800D02*
X233450D01*
X244625Y218350D02*
X261275D01*
X216800D02*
X233450D01*
X244700Y218275D02*
X261275D01*
X216800D02*
X233375D01*
X244700Y218200D02*
X261275D01*
X216800D02*
X233375D01*
X244775Y218125D02*
X261275D01*
X216800D02*
X233300D01*
X244775Y218050D02*
X261275D01*
X216800D02*
X233300D01*
X244775Y217975D02*
X261275D01*
X216800D02*
X233300D01*
X244850Y217900D02*
X261275D01*
X216800D02*
X233225D01*
X244850Y217825D02*
X261275D01*
X216800D02*
X233225D01*
X244850Y217750D02*
X261275D01*
X216800D02*
X233225D01*
X244925Y217675D02*
X261275D01*
X216800D02*
X233150D01*
X244925Y217600D02*
X261275D01*
X216800D02*
X233150D01*
X244925Y217525D02*
X261275D01*
X216800D02*
X233150D01*
X245000Y217450D02*
X261275D01*
X216800D02*
X233075D01*
X245000Y217375D02*
X261275D01*
X216800D02*
X233075D01*
X245000Y217300D02*
X261275D01*
X216800D02*
X233075D01*
X245000Y217225D02*
X261275D01*
X216800D02*
X233075D01*
X245075Y217150D02*
X261275D01*
X216800D02*
X233000D01*
X245075Y217075D02*
X261275D01*
X216800D02*
X233000D01*
X245075Y217000D02*
X261275D01*
X216800D02*
X233000D01*
X245075Y216925D02*
X261275D01*
X216800D02*
X233000D01*
X245075Y216850D02*
X261275D01*
X216800D02*
X233000D01*
X245150Y216775D02*
X261275D01*
X216800D02*
X232925D01*
X245150Y216700D02*
X261275D01*
X216800D02*
X232925D01*
X245150Y216625D02*
X261275D01*
X216800D02*
X232925D01*
X245150Y216550D02*
X261275D01*
X216800D02*
X232925D01*
X245150Y216475D02*
X261275D01*
X216800D02*
X232925D01*
X245150Y216400D02*
X261275D01*
X216800D02*
X232925D01*
X245150Y216325D02*
X261275D01*
X216800D02*
X232925D01*
X245150Y216250D02*
X261275D01*
X216800D02*
X232925D01*
X245150Y216175D02*
X261275D01*
X216800D02*
X232925D01*
X245150Y216100D02*
X261275D01*
X216800D02*
X232925D01*
X245225Y216025D02*
X261275D01*
X216800D02*
X232850D01*
X245225Y215950D02*
X261275D01*
X216800D02*
X232850D01*
X245225Y215875D02*
X261275D01*
X216800D02*
X232850D01*
X245225Y215800D02*
X261275D01*
X216800D02*
X232850D01*
X245225Y215725D02*
X261275D01*
X216800D02*
X232850D01*
X245225Y215650D02*
X261275D01*
X216800D02*
X232850D01*
X245150Y215575D02*
X261275D01*
X216800D02*
X232925D01*
X245150Y215500D02*
X261275D01*
X216800D02*
X232925D01*
X245150Y215425D02*
X261275D01*
X216800D02*
X232925D01*
X245150Y215350D02*
X261275D01*
X216800D02*
X232925D01*
X245150Y215275D02*
X261275D01*
X216800D02*
X232925D01*
X245150Y215200D02*
X261275D01*
X216800D02*
X232925D01*
X245150Y215125D02*
X261275D01*
X216800D02*
X232925D01*
X245150Y215050D02*
X261275D01*
X216800D02*
X232925D01*
X245150Y214975D02*
X261275D01*
X216800D02*
X232925D01*
X245150Y214900D02*
X261275D01*
X216800D02*
X232925D01*
X245075Y214825D02*
X261275D01*
X216800D02*
X233000D01*
X245075Y214750D02*
X261275D01*
X216800D02*
X233000D01*
X245075Y214675D02*
X261275D01*
X216800D02*
X233000D01*
X245075Y214600D02*
X261275D01*
X216800D02*
X233000D01*
X245075Y214525D02*
X261275D01*
X216800D02*
X233000D01*
X245000Y214450D02*
X261275D01*
X216800D02*
X233075D01*
X245000Y214375D02*
X261275D01*
X216800D02*
X233075D01*
X245000Y214300D02*
X261275D01*
X216800D02*
X233075D01*
X245000Y214225D02*
X261275D01*
X216800D02*
X233075D01*
X244925Y214150D02*
X261275D01*
X216800D02*
X233150D01*
X244925Y214075D02*
X261275D01*
X216800D02*
X233150D01*
X244925Y214000D02*
X261275D01*
X216800D02*
X233150D01*
X244850Y213925D02*
X261275D01*
X216800D02*
X233225D01*
X244850Y213850D02*
X261275D01*
X216800D02*
X233225D01*
X244850Y213775D02*
X261275D01*
X216800D02*
X233225D01*
X244775Y213700D02*
X261275D01*
X216800D02*
X233300D01*
X244775Y213625D02*
X261275D01*
X216800D02*
X233300D01*
X244775Y213550D02*
X261275D01*
X216800D02*
X233300D01*
X244700Y213475D02*
X261275D01*
X216800D02*
X233375D01*
X244700Y213400D02*
X261275D01*
X216800D02*
X233375D01*
X244625Y213325D02*
X261275D01*
X216800D02*
X233450D01*
X244625Y213250D02*
X261275D01*
X216800D02*
X233450D01*
X244550Y213175D02*
X261275D01*
X216800D02*
X233525D01*
X244550Y213100D02*
X261275D01*
X216800D02*
X233525D01*
X244550Y213025D02*
X261275D01*
X216800D02*
X233525D01*
X244475Y212950D02*
X261200D01*
X216875D02*
X233600D01*
X244475Y212875D02*
X261200D01*
X216875D02*
X233600D01*
X244400Y212800D02*
X261125D01*
X216950D02*
X233675D01*
X244325Y212725D02*
X261050D01*
X217025D02*
X233750D01*
X244325Y212650D02*
X260675D01*
X217400D02*
X233750D01*
X244250Y212575D02*
X260225D01*
X217850D02*
X233825D01*
X244175Y212500D02*
X259850D01*
X218225D02*
X233900D01*
X244175Y212425D02*
X259475D01*
X218600D02*
X233900D01*
X244100Y212350D02*
X259025D01*
X219050D02*
X233975D01*
X244025Y212275D02*
X258650D01*
X219425D02*
X234050D01*
X244025Y212200D02*
X258275D01*
X219800D02*
X234050D01*
X243950Y212125D02*
X257825D01*
X220250D02*
X234125D01*
X243875Y212050D02*
X257450D01*
X220625D02*
X234200D01*
X243800Y211975D02*
X257000D01*
X221075D02*
X234275D01*
X243800Y211900D02*
X256625D01*
X221450D02*
X234275D01*
X243725Y211825D02*
X256250D01*
X221825D02*
X234350D01*
X243650Y211750D02*
X255800D01*
X222275D02*
X234425D01*
X243575Y211675D02*
X255575D01*
X222500D02*
X234500D01*
X243500Y211600D02*
X255500D01*
X222575D02*
X234575D01*
X243425Y211525D02*
X255425D01*
X222650D02*
X234650D01*
X243350Y211450D02*
X255350D01*
X222725D02*
X234725D01*
X243275Y211375D02*
X255350D01*
X222725D02*
X234800D01*
X243200Y211300D02*
X255350D01*
X222725D02*
X234875D01*
X243125Y211225D02*
X255275D01*
X222800D02*
X234950D01*
X243050Y211150D02*
X255275D01*
X222800D02*
X235025D01*
X242975Y211075D02*
X255200D01*
X222875D02*
X235100D01*
X242825Y211000D02*
X255200D01*
X222875D02*
X235250D01*
X242750Y210925D02*
X255200D01*
X222875D02*
X235325D01*
X242675Y210850D02*
X255125D01*
X222950D02*
X235400D01*
X242525Y210775D02*
X255125D01*
X222950D02*
X235550D01*
X242450Y210700D02*
X255050D01*
X223025D02*
X235625D01*
X242375Y210625D02*
X255050D01*
X223025D02*
X235700D01*
X242225Y210550D02*
X255050D01*
X223025D02*
X235850D01*
X242150Y210475D02*
X254975D01*
X223100D02*
X235925D01*
X242075Y210400D02*
X254975D01*
X223100D02*
X236000D01*
X241925Y210325D02*
X254900D01*
X223175D02*
X236150D01*
X241775Y210250D02*
X254900D01*
X223175D02*
X236300D01*
X241700Y210175D02*
X254900D01*
X223175D02*
X236375D01*
X241550Y210100D02*
X254825D01*
X223250D02*
X236525D01*
X241475Y210025D02*
X254825D01*
X223250D02*
X236600D01*
X241475Y209950D02*
X254750D01*
X223325D02*
X236600D01*
X241475Y209875D02*
X254750D01*
X223325D02*
X236600D01*
X241475Y209800D02*
X254750D01*
X223325D02*
X236600D01*
X241475Y209725D02*
X254675D01*
X223400D02*
X236600D01*
X241475Y209650D02*
X254675D01*
X223400D02*
X236600D01*
X241475Y209575D02*
X254600D01*
X223475D02*
X236600D01*
X241550Y209500D02*
X254600D01*
X223475D02*
X236525D01*
X241550Y209425D02*
X254600D01*
X223475D02*
X236525D01*
X241550Y209350D02*
X254525D01*
X223550D02*
X236525D01*
X241625Y209275D02*
X254525D01*
X223550D02*
X236450D01*
X241625Y209200D02*
X254450D01*
X223625D02*
X236450D01*
X241700Y209125D02*
X254450D01*
X223625D02*
X236375D01*
X241700Y209050D02*
X254450D01*
X223625D02*
X236375D01*
X241775Y208975D02*
X254375D01*
X223700D02*
X236300D01*
X241775Y208900D02*
X254375D01*
X223700D02*
X236300D01*
X241775Y208825D02*
X254300D01*
X223775D02*
X236300D01*
X241850Y208750D02*
X254300D01*
X223775D02*
X236225D01*
X241850Y208675D02*
X254300D01*
X223775D02*
X236225D01*
X241925Y208600D02*
X254225D01*
X223850D02*
X236150D01*
X241925Y208525D02*
X254225D01*
X223850D02*
X236150D01*
X241925Y208450D02*
X254150D01*
X223925D02*
X236150D01*
X242000Y208375D02*
X254150D01*
X223925D02*
X236075D01*
X242000Y208300D02*
X254150D01*
X223925D02*
X236075D01*
X242075Y208225D02*
X254075D01*
X224000D02*
X236000D01*
X242075Y208150D02*
X254075D01*
X224000D02*
X236000D01*
X242075Y208075D02*
X254000D01*
X224075D02*
X236000D01*
X242150Y208000D02*
X254000D01*
X224075D02*
X235925D01*
X242150Y207925D02*
X254000D01*
X224075D02*
X235925D01*
X242225Y207850D02*
X253925D01*
X224150D02*
X235850D01*
X242225Y207775D02*
X253925D01*
X224150D02*
X235850D01*
X242300Y207700D02*
X253850D01*
X224225D02*
X235775D01*
X242300Y207625D02*
X253850D01*
X224225D02*
X235775D01*
X242300Y207550D02*
X253850D01*
X224225D02*
X235775D01*
X242375Y207475D02*
X253775D01*
X224300D02*
X235700D01*
X242375Y207400D02*
X253775D01*
X224300D02*
X235700D01*
X242450Y207325D02*
X253700D01*
X224375D02*
X235625D01*
X242450Y207250D02*
X253700D01*
X224375D02*
X235625D01*
X242450Y207175D02*
X253700D01*
X224375D02*
X235625D01*
X242525Y207100D02*
X253700D01*
X224375D02*
X235550D01*
X242525Y207025D02*
X253700D01*
X224375D02*
X235550D01*
X242600Y206950D02*
X253775D01*
X224300D02*
X235475D01*
X242600Y206875D02*
X253775D01*
X224300D02*
X235475D01*
X242675Y206800D02*
X253850D01*
X224225D02*
X235400D01*
X242675Y206725D02*
X253925D01*
X224150D02*
X235400D01*
X242675Y206650D02*
X253925D01*
X224150D02*
X235400D01*
X242750Y206575D02*
X254000D01*
X224075D02*
X235325D01*
X242750Y206500D02*
X254075D01*
X224000D02*
X235325D01*
X242825Y206425D02*
X254150D01*
X223925D02*
X235250D01*
X242825Y206350D02*
X254150D01*
X223925D02*
X235250D01*
X242825Y206275D02*
X254225D01*
X223850D02*
X235250D01*
X242900Y206200D02*
X254300D01*
X223775D02*
X235175D01*
X242900Y206125D02*
X254300D01*
X223775D02*
X235175D01*
X242975Y206050D02*
X254375D01*
X223700D02*
X235100D01*
X242975Y205975D02*
X254450D01*
X223625D02*
X235100D01*
X242975Y205900D02*
X254450D01*
X223625D02*
X235100D01*
X243050Y205825D02*
X254525D01*
X223550D02*
X235025D01*
X243050Y205750D02*
X254600D01*
X223475D02*
X235025D01*
X243125Y205675D02*
X254600D01*
X223475D02*
X234950D01*
X243125Y205600D02*
X254675D01*
X223400D02*
X234950D01*
X243200Y205525D02*
X254750D01*
X223325D02*
X234875D01*
X243200Y205450D02*
X254750D01*
X223325D02*
X234875D01*
X243200Y205375D02*
X254825D01*
X223250D02*
X234875D01*
X243275Y205300D02*
X254900D01*
X223175D02*
X234800D01*
X243275Y205225D02*
X254975D01*
X223100D02*
X234800D01*
X243350Y205150D02*
X254975D01*
X223100D02*
X234725D01*
X243350Y205075D02*
X255050D01*
X223025D02*
X234725D01*
X243350Y205000D02*
X255125D01*
X222950D02*
X234725D01*
X243425Y204925D02*
X255125D01*
X222950D02*
X234650D01*
X243425Y204850D02*
X255200D01*
X222875D02*
X234650D01*
X243500Y204775D02*
X255275D01*
X222800D02*
X234575D01*
X243500Y204700D02*
X255275D01*
X222800D02*
X234575D01*
X243575Y204625D02*
X255350D01*
X222725D02*
X234500D01*
X243575Y204550D02*
X255425D01*
X222650D02*
X234500D01*
X243575Y204475D02*
X255425D01*
X222650D02*
X234500D01*
X243650Y204400D02*
X255500D01*
X222575D02*
X234425D01*
X243650Y204325D02*
X255575D01*
X222500D02*
X234425D01*
X243725Y204250D02*
X255575D01*
X222500D02*
X234350D01*
X243725Y204175D02*
X255650D01*
X222425D02*
X234350D01*
X243725Y204100D02*
X255725D01*
X222350D02*
X234350D01*
X243800Y204025D02*
X255725D01*
X222350D02*
X234275D01*
X243800Y203950D02*
X255800D01*
X222275D02*
X234275D01*
X243875Y203875D02*
X255875D01*
X222200D02*
X234200D01*
X243875Y203800D02*
X255950D01*
X222125D02*
X234200D01*
X243875Y203725D02*
X255950D01*
X222125D02*
X234200D01*
X243950Y203650D02*
X256025D01*
X222050D02*
X234125D01*
X243950Y203575D02*
X256100D01*
X221975D02*
X234125D01*
X244025Y203500D02*
X256100D01*
X221975D02*
X234050D01*
X244025Y203425D02*
X256175D01*
X221900D02*
X234050D01*
X244100Y203350D02*
X256250D01*
X221825D02*
X233975D01*
X244100Y203275D02*
X256250D01*
X221825D02*
X233975D01*
X244100Y203200D02*
X256325D01*
X221750D02*
X233975D01*
X244175Y203125D02*
X256400D01*
X221675D02*
X233900D01*
X244175Y203050D02*
X256400D01*
X221675D02*
X233900D01*
X244250Y202975D02*
X256475D01*
X221600D02*
X233825D01*
X244250Y202900D02*
X256550D01*
X221525D02*
X233825D01*
X244250Y202825D02*
X256550D01*
X221525D02*
X233825D01*
X244325Y202750D02*
X256625D01*
X221450D02*
X233750D01*
X244325Y202675D02*
X256700D01*
X221375D02*
X233750D01*
X244400Y202600D02*
X256775D01*
X221300D02*
X233675D01*
X244400Y202525D02*
X256775D01*
X221300D02*
X233675D01*
X244475Y202450D02*
X256775D01*
X221300D02*
X233600D01*
X244475Y202375D02*
X256850D01*
X221225D02*
X233600D01*
X244475Y202300D02*
X256850D01*
X221225D02*
X233600D01*
X244550Y202225D02*
X256775D01*
X221300D02*
X233525D01*
X244550Y202150D02*
X256775D01*
X221300D02*
X233525D01*
X244625Y202075D02*
X256700D01*
X221375D02*
X233450D01*
X244625Y202000D02*
X256625D01*
X221450D02*
X233450D01*
X244625Y201925D02*
X256550D01*
X221525D02*
X233450D01*
X244700Y201850D02*
X256475D01*
X221600D02*
X233375D01*
X244700Y201775D02*
X256400D01*
X221675D02*
X233375D01*
X244775Y201700D02*
X256325D01*
X221750D02*
X233300D01*
X244775Y201625D02*
X256250D01*
X221825D02*
X233300D01*
X244775Y201550D02*
X256175D01*
X221900D02*
X233300D01*
X244850Y201475D02*
X256100D01*
X221975D02*
X233225D01*
X244850Y201400D02*
X256025D01*
X222050D02*
X233225D01*
X244925Y201325D02*
X255950D01*
X222125D02*
X233150D01*
X244925Y201250D02*
X255875D01*
X222200D02*
X233150D01*
X245000Y201175D02*
X255800D01*
X222275D02*
X233075D01*
X247925Y201100D02*
X255725D01*
X245000D02*
X247775D01*
X230300D02*
X233075D01*
X222350D02*
X230150D01*
X248075Y201025D02*
X255650D01*
X245000D02*
X247550D01*
X230525D02*
X233075D01*
X222425D02*
X230000D01*
X248150Y200950D02*
X255575D01*
X245075D02*
X247400D01*
X230675D02*
X233000D01*
X222500D02*
X229925D01*
X248300Y200875D02*
X255500D01*
X245075D02*
X247250D01*
X230825D02*
X233000D01*
X222575D02*
X229775D01*
X248375Y200800D02*
X255425D01*
X245150D02*
X247100D01*
X230975D02*
X232925D01*
X222650D02*
X229700D01*
X248525Y200725D02*
X255350D01*
X245150D02*
X247025D01*
X231050D02*
X232925D01*
X222725D02*
X229550D01*
X248600Y200650D02*
X255275D01*
X245150D02*
X246875D01*
X231200D02*
X232925D01*
X222800D02*
X229475D01*
X248750Y200575D02*
X255200D01*
X245225D02*
X246725D01*
X231350D02*
X232850D01*
X222875D02*
X229325D01*
X248825Y200500D02*
X255125D01*
X245225D02*
X246575D01*
X231500D02*
X232850D01*
X222950D02*
X229250D01*
X248975Y200425D02*
X255050D01*
X245300D02*
X246425D01*
X231650D02*
X232775D01*
X223025D02*
X229100D01*
X249050Y200350D02*
X254975D01*
X245300D02*
X246275D01*
X231800D02*
X232775D01*
X223100D02*
X229025D01*
X249200Y200275D02*
X254900D01*
X245375D02*
X246125D01*
X231950D02*
X232700D01*
X223175D02*
X228875D01*
X249275Y200200D02*
X254825D01*
X245375D02*
X245975D01*
X232100D02*
X232700D01*
X223250D02*
X228800D01*
X249350Y200125D02*
X254750D01*
X245450D02*
X245900D01*
X232175D02*
X232625D01*
X223325D02*
X228725D01*
X249500Y200050D02*
X254675D01*
X245525D02*
X245675D01*
X232400D02*
X232550D01*
X223400D02*
X228575D01*
X249575Y199975D02*
X254600D01*
X223475D02*
X228500D01*
X249725Y199900D02*
X254525D01*
X223550D02*
X228350D01*
X249800Y199825D02*
X254450D01*
X223625D02*
X228275D01*
X249950Y199750D02*
X254375D01*
X223700D02*
X228125D01*
X250025Y199675D02*
X254300D01*
X223775D02*
X228050D01*
X250175Y199600D02*
X254225D01*
X223850D02*
X227900D01*
X250250Y199525D02*
X254150D01*
X223925D02*
X227825D01*
X250400Y199450D02*
X254075D01*
X224000D02*
X227675D01*
X250475Y199375D02*
X254000D01*
X224075D02*
X227600D01*
X250550Y199300D02*
X253925D01*
X224150D02*
X227525D01*
X250700Y199225D02*
X253850D01*
X224225D02*
X227375D01*
X250775Y199150D02*
X253775D01*
X224300D02*
X227300D01*
X250925Y199075D02*
X253700D01*
X224375D02*
X227150D01*
X251000Y199000D02*
X253625D01*
X224450D02*
X227075D01*
X251150Y198925D02*
X253550D01*
X224525D02*
X226925D01*
X251225Y198850D02*
X253475D01*
X224600D02*
X226850D01*
X251375Y198775D02*
X253400D01*
X224675D02*
X226700D01*
X251450Y198700D02*
X253325D01*
X224750D02*
X226625D01*
X251600Y198625D02*
X253250D01*
X224825D02*
X226475D01*
X251675Y198550D02*
X253175D01*
X224900D02*
X226400D01*
X251750Y198475D02*
X253100D01*
X224975D02*
X226325D01*
X251900Y198400D02*
X253025D01*
X225050D02*
X226175D01*
X251975Y198325D02*
X252950D01*
X225125D02*
X226100D01*
X252125Y198250D02*
X252875D01*
X225200D02*
X225950D01*
X252200Y198175D02*
X252800D01*
X225275D02*
X225875D01*
X252350Y198100D02*
X252725D01*
X225350D02*
X225725D01*
X264575Y193525D02*
X265625D01*
X258500D02*
X259325D01*
X253100D02*
X254150D01*
X246950D02*
X247850D01*
X239000D02*
X240125D01*
X233450D02*
X234500D01*
X221225D02*
X222125D01*
X217325D02*
X218375D01*
X212450D02*
X213425D01*
X264350Y193450D02*
X265925D01*
X260450D02*
X261725D01*
X258200D02*
X259550D01*
X252875D02*
X254375D01*
X248900D02*
X250175D01*
X246725D02*
X248150D01*
X238550D02*
X240500D01*
X233150D02*
X234725D01*
X229250D02*
X230525D01*
X225725D02*
X226925D01*
X223175D02*
X224450D01*
X221000D02*
X222350D01*
X217100D02*
X218675D01*
X212150D02*
X213725D01*
X264125Y193375D02*
X266150D01*
X260450D02*
X261725D01*
X258050D02*
X259775D01*
X252650D02*
X254600D01*
X248900D02*
X250175D01*
X246500D02*
X248300D01*
X238325D02*
X240650D01*
X232925D02*
X234950D01*
X229250D02*
X230525D01*
X225725D02*
X226925D01*
X223175D02*
X224450D01*
X220775D02*
X222575D01*
X216875D02*
X218900D01*
X211925D02*
X213950D01*
X263900Y193300D02*
X266300D01*
X260450D02*
X261725D01*
X257900D02*
X259925D01*
X252500D02*
X254750D01*
X248900D02*
X250175D01*
X246350D02*
X248450D01*
X238100D02*
X240875D01*
X232775D02*
X235175D01*
X229250D02*
X230525D01*
X225725D02*
X226925D01*
X223175D02*
X224450D01*
X220625D02*
X222725D01*
X216650D02*
X219050D01*
X211775D02*
X214100D01*
X263825Y193225D02*
X266450D01*
X260450D02*
X261725D01*
X257750D02*
X260075D01*
X252350D02*
X254900D01*
X248900D02*
X250175D01*
X246275D02*
X248600D01*
X237950D02*
X240950D01*
X232625D02*
X235250D01*
X229250D02*
X230525D01*
X225725D02*
X226925D01*
X223175D02*
X224450D01*
X220550D02*
X222800D01*
X216500D02*
X219275D01*
X211625D02*
X214250D01*
X263675Y193150D02*
X266525D01*
X260450D02*
X261725D01*
X257675D02*
X260150D01*
X252200D02*
X255050D01*
X248900D02*
X250175D01*
X246200D02*
X248675D01*
X237800D02*
X241100D01*
X232550D02*
X235400D01*
X229250D02*
X230525D01*
X225725D02*
X226925D01*
X223175D02*
X224450D01*
X220400D02*
X222950D01*
X216425D02*
X219350D01*
X211550D02*
X214325D01*
X263600Y193075D02*
X266675D01*
X260450D02*
X261725D01*
X257525D02*
X260225D01*
X252125D02*
X255125D01*
X248900D02*
X250175D01*
X246050D02*
X248750D01*
X237650D02*
X241175D01*
X232400D02*
X235475D01*
X229250D02*
X230525D01*
X225725D02*
X226925D01*
X223175D02*
X224450D01*
X220400D02*
X223025D01*
X216275D02*
X219500D01*
X211400D02*
X214400D01*
X263525Y193000D02*
X266750D01*
X260450D02*
X261725D01*
X257450D02*
X260375D01*
X252050D02*
X255200D01*
X248900D02*
X250175D01*
X245975D02*
X248825D01*
X237500D02*
X241325D01*
X232325D02*
X235625D01*
X229250D02*
X230525D01*
X225725D02*
X226925D01*
X223175D02*
X224450D01*
X220400D02*
X223100D01*
X216200D02*
X219575D01*
X211325D02*
X214550D01*
X263375Y192925D02*
X266825D01*
X257375D02*
X261725D01*
X251900D02*
X255275D01*
X245900D02*
X250175D01*
X237425D02*
X241400D01*
X232250D02*
X235700D01*
X229250D02*
X230525D01*
X225725D02*
X226925D01*
X220475D02*
X224450D01*
X216050D02*
X219650D01*
X211250D02*
X214625D01*
X263300Y192850D02*
X266900D01*
X257300D02*
X261725D01*
X251825D02*
X255350D01*
X245825D02*
X250175D01*
X237350D02*
X241475D01*
X232175D02*
X235775D01*
X229250D02*
X230525D01*
X225725D02*
X226925D01*
X220550D02*
X224450D01*
X215975D02*
X219725D01*
X211175D02*
X214700D01*
X263225Y192775D02*
X266975D01*
X257300D02*
X261725D01*
X251825D02*
X255425D01*
X245750D02*
X250175D01*
X237200D02*
X241475D01*
X232100D02*
X235850D01*
X229250D02*
X230525D01*
X225725D02*
X226925D01*
X220625D02*
X224450D01*
X215900D02*
X219800D01*
X211100D02*
X214775D01*
X263225Y192700D02*
X267050D01*
X257225D02*
X261725D01*
X251750D02*
X255500D01*
X245750D02*
X250175D01*
X237200D02*
X241550D01*
X232025D02*
X235850D01*
X229250D02*
X230525D01*
X225725D02*
X226925D01*
X220625D02*
X224450D01*
X215825D02*
X219875D01*
X211025D02*
X214775D01*
X263150Y192625D02*
X267125D01*
X257150D02*
X261725D01*
X251675D02*
X255575D01*
X245675D02*
X250175D01*
X237275D02*
X241625D01*
X231950D02*
X235925D01*
X229250D02*
X230525D01*
X225725D02*
X226925D01*
X220700D02*
X224450D01*
X215750D02*
X219950D01*
X210950D02*
X214850D01*
X263075Y192550D02*
X267125D01*
X257150D02*
X261725D01*
X251600D02*
X255575D01*
X245675D02*
X250175D01*
X237350D02*
X241625D01*
X231950D02*
X236000D01*
X229250D02*
X230525D01*
X225725D02*
X226925D01*
X220775D02*
X224450D01*
X215675D02*
X220025D01*
X210950D02*
X214925D01*
X263000Y192475D02*
X267200D01*
X257075D02*
X261725D01*
X251525D02*
X255650D01*
X245600D02*
X250175D01*
X237350D02*
X241700D01*
X231875D02*
X236075D01*
X229250D02*
X230525D01*
X225725D02*
X226925D01*
X220850D02*
X224450D01*
X215675D02*
X220025D01*
X210875D02*
X215000D01*
X263000Y192400D02*
X267275D01*
X257075D02*
X261725D01*
X251525D02*
X255725D01*
X245525D02*
X250175D01*
X237425D02*
X241700D01*
X231800D02*
X236075D01*
X229250D02*
X230525D01*
X225725D02*
X226925D01*
X220925D02*
X224450D01*
X215750D02*
X220100D01*
X210800D02*
X215000D01*
X262925Y192325D02*
X267275D01*
X257000D02*
X261725D01*
X253925D02*
X255725D01*
X251450D02*
X253325D01*
X245525D02*
X250175D01*
X239900D02*
X241700D01*
X237500D02*
X239150D01*
X231800D02*
X236150D01*
X229250D02*
X230525D01*
X225725D02*
X226925D01*
X221000D02*
X224450D01*
X215825D02*
X220175D01*
X213275D02*
X215075D01*
X210800D02*
X212675D01*
X265400Y192250D02*
X267350D01*
X262925D02*
X264800D01*
X259625D02*
X261725D01*
X257000D02*
X258950D01*
X254150D02*
X255725D01*
X251450D02*
X253100D01*
X248075D02*
X250175D01*
X245525D02*
X247475D01*
X240125D02*
X241775D01*
X237575D02*
X238850D01*
X234275D02*
X236150D01*
X231725D02*
X233675D01*
X229250D02*
X230525D01*
X225725D02*
X226925D01*
X222350D02*
X224450D01*
X221000D02*
X221750D01*
X218225D02*
X220175D01*
X215900D02*
X217475D01*
X213500D02*
X215075D01*
X210725D02*
X212450D01*
X265625Y192175D02*
X267350D01*
X262850D02*
X264575D01*
X259775D02*
X261725D01*
X257000D02*
X258725D01*
X254300D02*
X255800D01*
X251375D02*
X252950D01*
X248300D02*
X250175D01*
X245450D02*
X247250D01*
X240275D02*
X241775D01*
X237650D02*
X238625D01*
X234500D02*
X236225D01*
X231725D02*
X233450D01*
X229250D02*
X230525D01*
X225725D02*
X226925D01*
X222575D02*
X224450D01*
X221075D02*
X221600D01*
X218450D02*
X220250D01*
X215975D02*
X217250D01*
X213575D02*
X215150D01*
X210725D02*
X212300D01*
X265775Y192100D02*
X267425D01*
X262850D02*
X264500D01*
X259925D02*
X261725D01*
X257000D02*
X258575D01*
X254375D02*
X255800D01*
X251375D02*
X252875D01*
X248450D02*
X250175D01*
X245450D02*
X247100D01*
X240425D02*
X241775D01*
X237725D02*
X238475D01*
X234650D02*
X236225D01*
X231650D02*
X233300D01*
X229250D02*
X230525D01*
X225725D02*
X226925D01*
X222725D02*
X224450D01*
X221150D02*
X221450D01*
X218600D02*
X220250D01*
X216050D02*
X217100D01*
X213725D02*
X215150D01*
X210650D02*
X212225D01*
X265925Y192025D02*
X267425D01*
X262850D02*
X264350D01*
X260000D02*
X261725D01*
X256925D02*
X258500D01*
X254450D02*
X255875D01*
X251300D02*
X252800D01*
X248525D02*
X250175D01*
X245450D02*
X247025D01*
X240425D02*
X241775D01*
X237725D02*
X238325D01*
X234725D02*
X236225D01*
X231650D02*
X233150D01*
X229250D02*
X230525D01*
X225725D02*
X226925D01*
X222800D02*
X224450D01*
X221225D02*
X221300D01*
X218750D02*
X220325D01*
X216200D02*
X217025D01*
X213800D02*
X215150D01*
X210650D02*
X212150D01*
X266000Y191950D02*
X267425D01*
X262775D02*
X264275D01*
X260075D02*
X261725D01*
X256925D02*
X258425D01*
X254525D02*
X255875D01*
X251300D02*
X252725D01*
X248600D02*
X250175D01*
X245450D02*
X246950D01*
X240500D02*
X241775D01*
X237800D02*
X238175D01*
X234800D02*
X236300D01*
X231650D02*
X233075D01*
X229250D02*
X230525D01*
X225725D02*
X226925D01*
X222875D02*
X224450D01*
X218825D02*
X220325D01*
X216275D02*
X216875D01*
X213875D02*
X215225D01*
X210650D02*
X212075D01*
X266075Y191875D02*
X267500D01*
X262775D02*
X264200D01*
X260150D02*
X261725D01*
X256925D02*
X258425D01*
X254600D02*
X255950D01*
X251300D02*
X252650D01*
X248675D02*
X250175D01*
X245375D02*
X246875D01*
X240500D02*
X241775D01*
X237875D02*
X238100D01*
X234875D02*
X236300D01*
X231575D02*
X233000D01*
X229250D02*
X230525D01*
X225725D02*
X226925D01*
X222950D02*
X224450D01*
X218900D02*
X220325D01*
X216350D02*
X216800D01*
X213875D02*
X215225D01*
X210575D02*
X212000D01*
X266075Y191800D02*
X267500D01*
X262775D02*
X264125D01*
X260225D02*
X261725D01*
X256925D02*
X258350D01*
X254675D02*
X255950D01*
X251225D02*
X252650D01*
X248750D02*
X250175D01*
X245375D02*
X246875D01*
X240500D02*
X241850D01*
X234950D02*
X236300D01*
X231575D02*
X233000D01*
X229250D02*
X230525D01*
X225725D02*
X226925D01*
X223025D02*
X224450D01*
X218975D02*
X220400D01*
X216425D02*
X216725D01*
X213950D02*
X215225D01*
X210575D02*
X211925D01*
X266150Y191725D02*
X267500D01*
X262775D02*
X264125D01*
X260225D02*
X261725D01*
X256925D02*
X258275D01*
X254675D02*
X255950D01*
X251225D02*
X252575D01*
X248750D02*
X250175D01*
X245375D02*
X246800D01*
X240575D02*
X241850D01*
X234950D02*
X236300D01*
X231575D02*
X232925D01*
X229250D02*
X230525D01*
X225725D02*
X226925D01*
X223025D02*
X224450D01*
X218975D02*
X220400D01*
X216500D02*
X216650D01*
X214025D02*
X215300D01*
X210575D02*
X211925D01*
X266150Y191650D02*
X267500D01*
X262700D02*
X264050D01*
X260225D02*
X261725D01*
X256925D02*
X258275D01*
X254750D02*
X255950D01*
X251225D02*
X252575D01*
X248825D02*
X250175D01*
X245375D02*
X246800D01*
X240500D02*
X241850D01*
X235025D02*
X236375D01*
X231575D02*
X232925D01*
X229250D02*
X230525D01*
X225725D02*
X226925D01*
X223100D02*
X224450D01*
X219050D02*
X220400D01*
X214025D02*
X215300D01*
X210500D02*
X211850D01*
X266225Y191575D02*
X267500D01*
X262700D02*
X264050D01*
X260300D02*
X261725D01*
X256925D02*
X258275D01*
X254750D02*
X256025D01*
X251225D02*
X252500D01*
X248825D02*
X250175D01*
X245375D02*
X246725D01*
X240500D02*
X241775D01*
X235025D02*
X236375D01*
X231575D02*
X232850D01*
X229250D02*
X230525D01*
X225725D02*
X226925D01*
X223100D02*
X224450D01*
X219125D02*
X220475D01*
X214100D02*
X215300D01*
X210500D02*
X211850D01*
X266225Y191500D02*
X267575D01*
X262700D02*
X263975D01*
X260300D02*
X261725D01*
X256925D02*
X258200D01*
X254750D02*
X256025D01*
X251225D02*
X252500D01*
X248825D02*
X250175D01*
X245375D02*
X246725D01*
X240500D02*
X241775D01*
X235100D02*
X236375D01*
X231500D02*
X232850D01*
X229250D02*
X230525D01*
X225725D02*
X226925D01*
X223100D02*
X224450D01*
X219125D02*
X220475D01*
X214100D02*
X215300D01*
X210500D02*
X211850D01*
X266225Y191425D02*
X267575D01*
X262700D02*
X263975D01*
X260300D02*
X261725D01*
X256850D02*
X258200D01*
X254825D02*
X256025D01*
X251150D02*
X252500D01*
X248900D02*
X250175D01*
X245375D02*
X246725D01*
X240425D02*
X241775D01*
X235100D02*
X236375D01*
X231500D02*
X232850D01*
X229250D02*
X230525D01*
X225725D02*
X226925D01*
X223175D02*
X224450D01*
X219125D02*
X220475D01*
X214100D02*
X215375D01*
X210500D02*
X211775D01*
X266300Y191350D02*
X267575D01*
X262700D02*
X263975D01*
X260375D02*
X261725D01*
X256850D02*
X258200D01*
X254825D02*
X256025D01*
X251150D02*
X252425D01*
X248900D02*
X250175D01*
X245375D02*
X246650D01*
X240350D02*
X241775D01*
X235100D02*
X236375D01*
X231500D02*
X232775D01*
X229250D02*
X230525D01*
X225725D02*
X226925D01*
X223175D02*
X224450D01*
X219200D02*
X220475D01*
X214100D02*
X215375D01*
X210500D02*
X211775D01*
X266300Y191275D02*
X267575D01*
X262700D02*
X263975D01*
X260375D02*
X261725D01*
X256850D02*
X258200D01*
X254825D02*
X256100D01*
X251150D02*
X252425D01*
X248900D02*
X250175D01*
X245375D02*
X246650D01*
X240200D02*
X241775D01*
X235100D02*
X236375D01*
X231500D02*
X232775D01*
X229250D02*
X230525D01*
X225725D02*
X226925D01*
X223175D02*
X224450D01*
X219200D02*
X220550D01*
X214175D02*
X215375D01*
X210500D02*
X211775D01*
X266300Y191200D02*
X267575D01*
X262700D02*
X263975D01*
X260375D02*
X261725D01*
X256850D02*
X258200D01*
X254825D02*
X256100D01*
X251150D02*
X252425D01*
X248900D02*
X250175D01*
X245375D02*
X246650D01*
X239975D02*
X241775D01*
X235100D02*
X236450D01*
X231500D02*
X232775D01*
X229250D02*
X230525D01*
X225725D02*
X226925D01*
X223175D02*
X224450D01*
X219200D02*
X220550D01*
X214175D02*
X215375D01*
X210500D02*
X211775D01*
X266300Y191125D02*
X267575D01*
X262625D02*
X263900D01*
X260375D02*
X261725D01*
X256850D02*
X258125D01*
X254825D02*
X256100D01*
X251150D02*
X252425D01*
X248900D02*
X250175D01*
X245375D02*
X246650D01*
X239300D02*
X241700D01*
X235175D02*
X236450D01*
X231500D02*
X232775D01*
X229250D02*
X230525D01*
X225725D02*
X226925D01*
X223175D02*
X224450D01*
X219275D02*
X220550D01*
X214175D02*
X215375D01*
X210500D02*
X211775D01*
X266300Y191050D02*
X267575D01*
X262625D02*
X263900D01*
X260375D02*
X261725D01*
X256850D02*
X258125D01*
X251150D02*
X256100D01*
X248900D02*
X250175D01*
X245375D02*
X246650D01*
X238475D02*
X241700D01*
X235175D02*
X236450D01*
X231500D02*
X232775D01*
X229250D02*
X230525D01*
X225725D02*
X226925D01*
X223175D02*
X224450D01*
X219275D02*
X220550D01*
X210500D02*
X215375D01*
X266300Y190975D02*
X267575D01*
X262625D02*
X263900D01*
X260375D02*
X261725D01*
X256850D02*
X258125D01*
X251150D02*
X256100D01*
X248900D02*
X250175D01*
X245375D02*
X246650D01*
X238175D02*
X241700D01*
X235175D02*
X236450D01*
X231500D02*
X232775D01*
X229250D02*
X230525D01*
X225725D02*
X226925D01*
X223175D02*
X224450D01*
X219275D02*
X220550D01*
X210500D02*
X215375D01*
X266300Y190900D02*
X267575D01*
X262625D02*
X263900D01*
X260375D02*
X261725D01*
X256850D02*
X258125D01*
X251150D02*
X256100D01*
X248900D02*
X250175D01*
X245375D02*
X246650D01*
X237950D02*
X241625D01*
X235175D02*
X236450D01*
X231500D02*
X232775D01*
X229250D02*
X230525D01*
X225725D02*
X226925D01*
X223175D02*
X224450D01*
X219275D02*
X220550D01*
X210500D02*
X215375D01*
X266300Y190825D02*
X267575D01*
X262625D02*
X263900D01*
X260375D02*
X261725D01*
X256850D02*
X258125D01*
X251150D02*
X256100D01*
X248900D02*
X250175D01*
X245375D02*
X246650D01*
X237875D02*
X241625D01*
X235175D02*
X236450D01*
X231500D02*
X232775D01*
X229250D02*
X230525D01*
X225725D02*
X226925D01*
X223175D02*
X224450D01*
X219275D02*
X220550D01*
X210500D02*
X215450D01*
X266300Y190750D02*
X267575D01*
X262625D02*
X263900D01*
X260375D02*
X261725D01*
X256850D02*
X258125D01*
X251150D02*
X256100D01*
X248900D02*
X250175D01*
X245375D02*
X246650D01*
X237725D02*
X241550D01*
X235175D02*
X236450D01*
X231500D02*
X232775D01*
X229250D02*
X230525D01*
X225725D02*
X226925D01*
X223175D02*
X224450D01*
X219275D02*
X220550D01*
X210500D02*
X215450D01*
X266300Y190675D02*
X267575D01*
X262625D02*
X263900D01*
X260375D02*
X261725D01*
X256850D02*
X258125D01*
X251150D02*
X256100D01*
X248900D02*
X250175D01*
X245375D02*
X246650D01*
X237650D02*
X241475D01*
X235175D02*
X236450D01*
X231500D02*
X232775D01*
X229250D02*
X230525D01*
X225725D02*
X226925D01*
X223175D02*
X224450D01*
X219275D02*
X220550D01*
X210500D02*
X215450D01*
X266300Y190600D02*
X267575D01*
X262625D02*
X263900D01*
X260375D02*
X261725D01*
X256850D02*
X258125D01*
X251150D02*
X256100D01*
X248900D02*
X250175D01*
X245375D02*
X246650D01*
X237575D02*
X241475D01*
X235175D02*
X236450D01*
X231500D02*
X232775D01*
X229250D02*
X230525D01*
X225725D02*
X226925D01*
X223175D02*
X224450D01*
X219275D02*
X220550D01*
X210500D02*
X215450D01*
X266375Y190525D02*
X267575D01*
X262625D02*
X263900D01*
X260375D02*
X261725D01*
X256850D02*
X258125D01*
X251150D02*
X256100D01*
X248900D02*
X250175D01*
X245375D02*
X246650D01*
X237425D02*
X241400D01*
X235175D02*
X236450D01*
X231500D02*
X232775D01*
X229250D02*
X230525D01*
X225725D02*
X226925D01*
X223175D02*
X224450D01*
X219275D02*
X220550D01*
X210500D02*
X215450D01*
X266375Y190450D02*
X267575D01*
X262625D02*
X263900D01*
X260375D02*
X261725D01*
X256850D02*
X258125D01*
X251150D02*
X256100D01*
X248900D02*
X250175D01*
X245375D02*
X246650D01*
X237425D02*
X241325D01*
X235175D02*
X236450D01*
X231500D02*
X232775D01*
X229250D02*
X230525D01*
X225725D02*
X226925D01*
X223175D02*
X224450D01*
X219275D02*
X220550D01*
X210500D02*
X215450D01*
X266300Y190375D02*
X267575D01*
X262625D02*
X263900D01*
X260375D02*
X261725D01*
X256850D02*
X258125D01*
X251150D02*
X256100D01*
X248900D02*
X250175D01*
X245375D02*
X246650D01*
X237350D02*
X241175D01*
X235175D02*
X236450D01*
X231500D02*
X232775D01*
X229250D02*
X230525D01*
X225725D02*
X226925D01*
X223175D02*
X224450D01*
X219275D02*
X220550D01*
X210500D02*
X215450D01*
X266300Y190300D02*
X267575D01*
X262625D02*
X263900D01*
X260375D02*
X261725D01*
X256850D02*
X258125D01*
X251150D02*
X256100D01*
X248900D02*
X250175D01*
X245375D02*
X246650D01*
X237275D02*
X241100D01*
X235175D02*
X236450D01*
X231500D02*
X232775D01*
X229250D02*
X230525D01*
X225725D02*
X226925D01*
X223175D02*
X224450D01*
X219275D02*
X220550D01*
X210500D02*
X215450D01*
X266300Y190225D02*
X267575D01*
X262625D02*
X263900D01*
X260375D02*
X261725D01*
X256850D02*
X258125D01*
X251150D02*
X256100D01*
X248900D02*
X250175D01*
X245375D02*
X246650D01*
X237275D02*
X240950D01*
X235175D02*
X236450D01*
X231500D02*
X232775D01*
X229250D02*
X230525D01*
X225725D02*
X226925D01*
X223175D02*
X224450D01*
X219275D02*
X220550D01*
X210500D02*
X215450D01*
X266300Y190150D02*
X267575D01*
X262625D02*
X263900D01*
X260375D02*
X261725D01*
X256850D02*
X258125D01*
X251150D02*
X256100D01*
X248900D02*
X250175D01*
X245375D02*
X246650D01*
X237200D02*
X240800D01*
X235175D02*
X236450D01*
X231500D02*
X232775D01*
X229250D02*
X230525D01*
X225725D02*
X226925D01*
X223175D02*
X224450D01*
X219275D02*
X220550D01*
X210500D02*
X215450D01*
X266300Y190075D02*
X267575D01*
X262625D02*
X263900D01*
X260375D02*
X261725D01*
X256850D02*
X258125D01*
X251150D02*
X256100D01*
X248900D02*
X250175D01*
X245375D02*
X246650D01*
X237200D02*
X240575D01*
X235175D02*
X236450D01*
X231500D02*
X232775D01*
X229250D02*
X230525D01*
X225725D02*
X226925D01*
X223175D02*
X224450D01*
X219275D02*
X220550D01*
X210500D02*
X215450D01*
X266300Y190000D02*
X267575D01*
X262625D02*
X263900D01*
X260375D02*
X261725D01*
X256850D02*
X258125D01*
X251150D02*
X256100D01*
X248900D02*
X250175D01*
X245375D02*
X246650D01*
X237200D02*
X240275D01*
X235175D02*
X236450D01*
X231500D02*
X232775D01*
X229250D02*
X230525D01*
X225725D02*
X226925D01*
X223175D02*
X224450D01*
X219275D02*
X220550D01*
X210500D02*
X215375D01*
X266300Y189925D02*
X267575D01*
X262625D02*
X263900D01*
X260375D02*
X261725D01*
X256850D02*
X258125D01*
X254825D02*
X256100D01*
X248900D02*
X250175D01*
X245375D02*
X246650D01*
X237125D02*
X239525D01*
X235175D02*
X236450D01*
X231500D02*
X232775D01*
X229250D02*
X230525D01*
X225725D02*
X227000D01*
X223175D02*
X224450D01*
X219275D02*
X220550D01*
X214175D02*
X215375D01*
X266300Y189850D02*
X267575D01*
X262625D02*
X263900D01*
X260375D02*
X261725D01*
X256850D02*
X258125D01*
X254825D02*
X256100D01*
X248900D02*
X250175D01*
X245375D02*
X246650D01*
X237125D02*
X238850D01*
X235175D02*
X236450D01*
X231500D02*
X232775D01*
X229250D02*
X230525D01*
X225725D02*
X227000D01*
X223175D02*
X224450D01*
X219275D02*
X220550D01*
X214175D02*
X215375D01*
X266300Y189775D02*
X267575D01*
X262700D02*
X263975D01*
X260375D02*
X261725D01*
X256850D02*
X258200D01*
X254825D02*
X256100D01*
X248900D02*
X250175D01*
X245375D02*
X246650D01*
X237125D02*
X238625D01*
X235100D02*
X236450D01*
X231500D02*
X232775D01*
X229250D02*
X230525D01*
X225725D02*
X227000D01*
X223175D02*
X224450D01*
X219200D02*
X220550D01*
X214175D02*
X215375D01*
X266300Y189700D02*
X267575D01*
X262700D02*
X263975D01*
X260375D02*
X261725D01*
X256850D02*
X258200D01*
X254825D02*
X256100D01*
X248900D02*
X250175D01*
X245375D02*
X246650D01*
X237125D02*
X238475D01*
X235100D02*
X236375D01*
X231500D02*
X232775D01*
X229250D02*
X230525D01*
X225725D02*
X227000D01*
X223175D02*
X224450D01*
X219200D02*
X220550D01*
X214175D02*
X215375D01*
X266300Y189625D02*
X267575D01*
X262700D02*
X263975D01*
X260375D02*
X261725D01*
X256850D02*
X258200D01*
X254825D02*
X256100D01*
X248900D02*
X250175D01*
X245375D02*
X246650D01*
X237050D02*
X238400D01*
X235100D02*
X236375D01*
X231500D02*
X232775D01*
X229250D02*
X230525D01*
X225725D02*
X227000D01*
X223175D02*
X224450D01*
X219200D02*
X220475D01*
X214100D02*
X215375D01*
X266225Y189550D02*
X267575D01*
X262700D02*
X263975D01*
X260300D02*
X261725D01*
X256850D02*
X258200D01*
X254750D02*
X256025D01*
X248900D02*
X250175D01*
X245375D02*
X246650D01*
X237050D02*
X238400D01*
X235100D02*
X236375D01*
X231500D02*
X232850D01*
X229175D02*
X230525D01*
X225725D02*
X227000D01*
X223175D02*
X224450D01*
X219125D02*
X220475D01*
X214100D02*
X215375D01*
X266225Y189475D02*
X267575D01*
X262700D02*
X263975D01*
X260300D02*
X261725D01*
X256850D02*
X258200D01*
X254750D02*
X256025D01*
X248900D02*
X250175D01*
X245375D02*
X246650D01*
X237050D02*
X238325D01*
X235100D02*
X236375D01*
X231500D02*
X232850D01*
X229175D02*
X230525D01*
X225725D02*
X227000D01*
X223175D02*
X224450D01*
X219125D02*
X220475D01*
X214100D02*
X215375D01*
X266225Y189400D02*
X267500D01*
X262700D02*
X264050D01*
X260300D02*
X261725D01*
X256925D02*
X258275D01*
X254750D02*
X256025D01*
X248900D02*
X250175D01*
X245375D02*
X246650D01*
X237050D02*
X238325D01*
X235025D02*
X236375D01*
X231575D02*
X232850D01*
X229175D02*
X230525D01*
X225725D02*
X227075D01*
X223175D02*
X224450D01*
X219125D02*
X220475D01*
X214025D02*
X215300D01*
X266150Y189325D02*
X267500D01*
X262700D02*
X264050D01*
X260300D02*
X261725D01*
X256925D02*
X258275D01*
X254675D02*
X255950D01*
X248900D02*
X250175D01*
X245375D02*
X246650D01*
X241250D02*
X241400D01*
X237050D02*
X238325D01*
X235025D02*
X236375D01*
X231575D02*
X232925D01*
X229100D02*
X230525D01*
X225725D02*
X227075D01*
X223175D02*
X224450D01*
X219050D02*
X220400D01*
X214025D02*
X215300D01*
X266150Y189250D02*
X267500D01*
X262775D02*
X264125D01*
X260225D02*
X261725D01*
X256925D02*
X258275D01*
X254675D02*
X255950D01*
X248900D02*
X250175D01*
X245375D02*
X246650D01*
X241175D02*
X241475D01*
X237050D02*
X238325D01*
X234950D02*
X236300D01*
X231575D02*
X232925D01*
X229100D02*
X230525D01*
X225725D02*
X227150D01*
X223175D02*
X224450D01*
X218975D02*
X220400D01*
X216500D02*
X216650D01*
X213950D02*
X215300D01*
X266075Y189175D02*
X267500D01*
X262775D02*
X264125D01*
X260225D02*
X261725D01*
X256925D02*
X258350D01*
X254600D02*
X255950D01*
X252125D02*
X252200D01*
X248900D02*
X250175D01*
X245375D02*
X246650D01*
X241100D02*
X241550D01*
X237050D02*
X238325D01*
X234950D02*
X236300D01*
X231575D02*
X233000D01*
X229025D02*
X230450D01*
X225725D02*
X227150D01*
X223175D02*
X224450D01*
X218975D02*
X220400D01*
X216425D02*
X216725D01*
X213950D02*
X215300D01*
X211475D02*
X211550D01*
X266075Y189100D02*
X267500D01*
X262775D02*
X264200D01*
X260150D02*
X261725D01*
X256925D02*
X258350D01*
X254600D02*
X255950D01*
X252050D02*
X252275D01*
X248900D02*
X250175D01*
X245375D02*
X246650D01*
X240950D02*
X241625D01*
X237050D02*
X238400D01*
X234875D02*
X236300D01*
X231575D02*
X233000D01*
X228950D02*
X230450D01*
X225725D02*
X227225D01*
X223175D02*
X224450D01*
X218900D02*
X220400D01*
X216350D02*
X216800D01*
X213875D02*
X215225D01*
X211400D02*
X211625D01*
X266000Y189025D02*
X267425D01*
X262775D02*
X264275D01*
X260075D02*
X261725D01*
X256925D02*
X258425D01*
X254525D02*
X255875D01*
X251975D02*
X252350D01*
X248900D02*
X250175D01*
X245375D02*
X246650D01*
X240875D02*
X241700D01*
X237050D02*
X238400D01*
X234800D02*
X236300D01*
X231650D02*
X233075D01*
X228950D02*
X230450D01*
X225725D02*
X227300D01*
X223175D02*
X224450D01*
X218825D02*
X220325D01*
X216275D02*
X216875D01*
X213800D02*
X215225D01*
X211250D02*
X211700D01*
X265925Y188950D02*
X267425D01*
X262850D02*
X264350D01*
X260000D02*
X261725D01*
X256925D02*
X258500D01*
X254450D02*
X255875D01*
X251900D02*
X252500D01*
X248900D02*
X250175D01*
X245375D02*
X246650D01*
X240725D02*
X241775D01*
X237125D02*
X238475D01*
X234725D02*
X236225D01*
X231650D02*
X233150D01*
X228875D02*
X230450D01*
X225725D02*
X227375D01*
X223175D02*
X224450D01*
X218750D02*
X220325D01*
X216200D02*
X217025D01*
X213725D02*
X215225D01*
X211175D02*
X211775D01*
X265775Y188875D02*
X267425D01*
X262850D02*
X264425D01*
X259925D02*
X261725D01*
X257000D02*
X258575D01*
X254300D02*
X255875D01*
X251750D02*
X252575D01*
X248900D02*
X250175D01*
X245375D02*
X246650D01*
X240650D02*
X241850D01*
X237125D02*
X238550D01*
X234650D02*
X236225D01*
X231650D02*
X233300D01*
X228725D02*
X230450D01*
X225725D02*
X227450D01*
X223175D02*
X224450D01*
X218600D02*
X220250D01*
X216125D02*
X217100D01*
X213650D02*
X215150D01*
X211100D02*
X211925D01*
X265700Y188800D02*
X267350D01*
X262850D02*
X264575D01*
X259775D02*
X261725D01*
X257000D02*
X258725D01*
X254225D02*
X255800D01*
X251675D02*
X252725D01*
X248900D02*
X250175D01*
X245375D02*
X246650D01*
X240500D02*
X241925D01*
X237125D02*
X238625D01*
X234500D02*
X236225D01*
X231725D02*
X233450D01*
X228650D02*
X230375D01*
X225725D02*
X227600D01*
X223175D02*
X224450D01*
X218450D02*
X220250D01*
X215975D02*
X217250D01*
X213575D02*
X215150D01*
X211025D02*
X212075D01*
X265475Y188725D02*
X267350D01*
X262925D02*
X264800D01*
X259625D02*
X261725D01*
X257000D02*
X258875D01*
X254075D02*
X255800D01*
X251600D02*
X252875D01*
X248900D02*
X250175D01*
X245375D02*
X246650D01*
X240275D02*
X242000D01*
X237125D02*
X238850D01*
X234275D02*
X236150D01*
X231725D02*
X233600D01*
X228425D02*
X230375D01*
X225725D02*
X227750D01*
X223175D02*
X224450D01*
X218225D02*
X220175D01*
X215900D02*
X217475D01*
X213425D02*
X215075D01*
X210950D02*
X212225D01*
X262925Y188650D02*
X267275D01*
X257000D02*
X261725D01*
X253850D02*
X255725D01*
X251525D02*
X253100D01*
X248900D02*
X250175D01*
X245375D02*
X246650D01*
X239975D02*
X242075D01*
X237200D02*
X239000D01*
X231800D02*
X236150D01*
X225725D02*
X230375D01*
X223175D02*
X224450D01*
X215825D02*
X220175D01*
X213125D02*
X215075D01*
X210800D02*
X212450D01*
X263000Y188575D02*
X267275D01*
X257075D02*
X261725D01*
X251450D02*
X255725D01*
X248900D02*
X250175D01*
X245375D02*
X246650D01*
X237200D02*
X242150D01*
X231800D02*
X236075D01*
X225725D02*
X230300D01*
X223175D02*
X224450D01*
X215750D02*
X220100D01*
X210725D02*
X215000D01*
X263000Y188500D02*
X267200D01*
X257075D02*
X261725D01*
X251375D02*
X255650D01*
X248900D02*
X250175D01*
X245375D02*
X246650D01*
X237200D02*
X242225D01*
X231875D02*
X236075D01*
X225725D02*
X230300D01*
X223175D02*
X224450D01*
X215675D02*
X220100D01*
X210650D02*
X215000D01*
X263075Y188425D02*
X267125D01*
X257150D02*
X261725D01*
X251300D02*
X255650D01*
X248900D02*
X250175D01*
X245375D02*
X246650D01*
X237275D02*
X242150D01*
X231950D02*
X236000D01*
X225725D02*
X230225D01*
X223175D02*
X224450D01*
X215675D02*
X220025D01*
X210575D02*
X214925D01*
X263150Y188350D02*
X267125D01*
X257150D02*
X261725D01*
X251300D02*
X255575D01*
X248900D02*
X250175D01*
X245375D02*
X246650D01*
X237350D02*
X242075D01*
X231950D02*
X235925D01*
X225725D02*
X230225D01*
X223175D02*
X224450D01*
X215750D02*
X219950D01*
X210575D02*
X214850D01*
X263225Y188275D02*
X267050D01*
X257225D02*
X261725D01*
X251375D02*
X255500D01*
X248900D02*
X250175D01*
X245375D02*
X246650D01*
X237350D02*
X241925D01*
X232025D02*
X235850D01*
X225725D02*
X230150D01*
X223175D02*
X224450D01*
X215825D02*
X219875D01*
X210650D02*
X214850D01*
X263225Y188200D02*
X266975D01*
X257300D02*
X261725D01*
X251450D02*
X255425D01*
X248900D02*
X250175D01*
X245375D02*
X246650D01*
X237425D02*
X241850D01*
X232100D02*
X235850D01*
X225725D02*
X230075D01*
X223175D02*
X224450D01*
X215900D02*
X219800D01*
X210800D02*
X214775D01*
X263300Y188125D02*
X266900D01*
X257300D02*
X261725D01*
X251525D02*
X255350D01*
X248900D02*
X250175D01*
X245375D02*
X246650D01*
X237500D02*
X241775D01*
X232175D02*
X235775D01*
X225725D02*
X230075D01*
X223175D02*
X224450D01*
X215975D02*
X219725D01*
X210875D02*
X214700D01*
X263375Y188050D02*
X266825D01*
X257375D02*
X261725D01*
X251600D02*
X255275D01*
X248900D02*
X250175D01*
X245375D02*
X246650D01*
X237575D02*
X241700D01*
X232250D02*
X235700D01*
X227000D02*
X230000D01*
X225725D02*
X226925D01*
X223175D02*
X224450D01*
X216050D02*
X219650D01*
X210950D02*
X214625D01*
X263450Y187975D02*
X266750D01*
X260450D02*
X261725D01*
X257450D02*
X260300D01*
X251675D02*
X255200D01*
X248900D02*
X250175D01*
X245375D02*
X246650D01*
X237650D02*
X241550D01*
X232325D02*
X235625D01*
X227075D02*
X229925D01*
X225725D02*
X226925D01*
X223175D02*
X224450D01*
X216200D02*
X219575D01*
X211025D02*
X214550D01*
X263600Y187900D02*
X266675D01*
X260450D02*
X261725D01*
X257525D02*
X260225D01*
X251825D02*
X255125D01*
X248900D02*
X250175D01*
X245375D02*
X246650D01*
X237725D02*
X241400D01*
X232400D02*
X235475D01*
X227150D02*
X229850D01*
X225725D02*
X226925D01*
X223175D02*
X224450D01*
X216275D02*
X219500D01*
X211100D02*
X214400D01*
X263675Y187825D02*
X266525D01*
X260450D02*
X261725D01*
X257675D02*
X260150D01*
X251900D02*
X254975D01*
X248900D02*
X250175D01*
X245375D02*
X246650D01*
X237875D02*
X241250D01*
X232550D02*
X235400D01*
X227225D02*
X229700D01*
X225725D02*
X226925D01*
X223175D02*
X224450D01*
X216425D02*
X219350D01*
X211250D02*
X214325D01*
X263825Y187750D02*
X266450D01*
X260450D02*
X261725D01*
X257750D02*
X260000D01*
X252050D02*
X254900D01*
X248900D02*
X250175D01*
X245375D02*
X246650D01*
X238025D02*
X241100D01*
X232625D02*
X235250D01*
X227300D02*
X229625D01*
X225725D02*
X226925D01*
X223175D02*
X224450D01*
X216500D02*
X219275D01*
X211400D02*
X214250D01*
X263900Y187675D02*
X266300D01*
X260450D02*
X261725D01*
X257825D02*
X259925D01*
X252200D02*
X254750D01*
X248900D02*
X250175D01*
X245375D02*
X246650D01*
X238175D02*
X240950D01*
X232775D02*
X235175D01*
X227450D02*
X229475D01*
X225725D02*
X226925D01*
X223175D02*
X224450D01*
X216650D02*
X219125D01*
X211475D02*
X214100D01*
X264125Y187600D02*
X266150D01*
X260450D02*
X261725D01*
X257975D02*
X259775D01*
X252350D02*
X254600D01*
X248900D02*
X250175D01*
X245375D02*
X246650D01*
X238325D02*
X240725D01*
X232925D02*
X234950D01*
X227525D02*
X229325D01*
X225725D02*
X226925D01*
X223175D02*
X224450D01*
X216875D02*
X218900D01*
X211700D02*
X213875D01*
X264350Y187525D02*
X265925D01*
X260450D02*
X261725D01*
X258200D02*
X259550D01*
X252575D02*
X254375D01*
X248900D02*
X250175D01*
X245375D02*
X246650D01*
X238550D02*
X240500D01*
X233150D02*
X234800D01*
X227750D02*
X229175D01*
X225725D02*
X226925D01*
X223175D02*
X224450D01*
X217025D02*
X218675D01*
X211925D02*
X213650D01*
X264650Y187450D02*
X265550D01*
X260450D02*
X261725D01*
X258500D02*
X259325D01*
X252950D02*
X254000D01*
X238925D02*
X240050D01*
X233525D02*
X234425D01*
X227975D02*
X228950D01*
X217325D02*
X218375D01*
X212225D02*
X213350D01*
X260450Y187375D02*
X261725D01*
X260450Y187300D02*
X261725D01*
X260450Y187225D02*
X261725D01*
X260450Y187150D02*
X261725D01*
X260450Y187075D02*
X261725D01*
X260450Y187000D02*
X261725D01*
X260450Y186925D02*
X261725D01*
X260450Y186850D02*
X261725D01*
X260450Y186775D02*
X261725D01*
X260450Y186700D02*
X261725D01*
X260450Y186625D02*
X261725D01*
X260450Y186550D02*
X261725D01*
X260450Y186475D02*
X261725D01*
X241100D02*
X242375D01*
X260450Y186400D02*
X261725D01*
X241100D02*
X242375D01*
X260450Y186325D02*
X261725D01*
X241100D02*
X242375D01*
X260450Y186250D02*
X261725D01*
X241100D02*
X242375D01*
X260450Y186175D02*
X261725D01*
X241100D02*
X242375D01*
X260450Y186100D02*
X261725D01*
X241100D02*
X242375D01*
X260450Y186025D02*
X261725D01*
X241100D02*
X242375D01*
X260450Y185950D02*
X261725D01*
X241100D02*
X242375D01*
X260450Y185875D02*
X261725D01*
X241100D02*
X242375D01*
X260450Y185800D02*
X261725D01*
X241100D02*
X242375D01*
X260450Y185725D02*
X261725D01*
X241100D02*
X242375D01*
X260450Y185650D02*
X261725D01*
X241100D02*
X242375D01*
X260450Y185575D02*
X261725D01*
X241100D02*
X242375D01*
X260450Y185500D02*
X261725D01*
X241100D02*
X242375D01*
X260450Y185425D02*
X261725D01*
X241100D02*
X242375D01*
X260450Y185350D02*
X261725D01*
X241100D02*
X242375D01*
X260450Y185275D02*
X261725D01*
X241100D02*
X242375D01*
X260450Y185200D02*
X261725D01*
X241100D02*
X242375D01*
X260450Y185125D02*
X261725D01*
X241100D02*
X242375D01*
X260450Y185050D02*
X261725D01*
X241100D02*
X242375D01*
X260450Y184975D02*
X261725D01*
X241100D02*
X242375D01*
X260450Y184900D02*
X261725D01*
X241100D02*
X242375D01*
X260450Y184825D02*
X261725D01*
X241100D02*
X242375D01*
X260450Y184750D02*
X261725D01*
X241100D02*
X242375D01*
X260450Y184675D02*
X261725D01*
X241100D02*
X242375D01*
X260450Y184600D02*
X261725D01*
X241100D02*
X242375D01*
X260450Y184525D02*
X261725D01*
X241100D02*
X242375D01*
X260450Y184450D02*
X261725D01*
X241100D02*
X242375D01*
X260450Y184375D02*
X261725D01*
X241100D02*
X242375D01*
X260450Y184300D02*
X261725D01*
X241100D02*
X242375D01*
X260450Y184225D02*
X261725D01*
X241100D02*
X242375D01*
X260450Y184150D02*
X261725D01*
X258650D02*
X259100D01*
X253325D02*
X254000D01*
X246950D02*
X247400D01*
X243725D02*
X244100D01*
X241100D02*
X242375D01*
X229250D02*
X229925D01*
X222950D02*
X223325D01*
X219200D02*
X219650D01*
X260450Y184075D02*
X261725D01*
X258275D02*
X259550D01*
X252725D02*
X254600D01*
X248750D02*
X250025D01*
X246575D02*
X247850D01*
X243350D02*
X244550D01*
X241100D02*
X242375D01*
X239225D02*
X240575D01*
X235850D02*
X236750D01*
X232025D02*
X233375D01*
X228725D02*
X230525D01*
X224675D02*
X225950D01*
X222575D02*
X223775D01*
X218750D02*
X220100D01*
X260450Y184000D02*
X261725D01*
X258050D02*
X259775D01*
X252500D02*
X254825D01*
X248750D02*
X250025D01*
X246425D02*
X248075D01*
X243125D02*
X244700D01*
X241100D02*
X242375D01*
X239225D02*
X240575D01*
X235775D02*
X236825D01*
X232100D02*
X233450D01*
X228425D02*
X230750D01*
X224675D02*
X225950D01*
X222350D02*
X224000D01*
X218450D02*
X220325D01*
X260450Y183925D02*
X261725D01*
X257900D02*
X259925D01*
X252275D02*
X255050D01*
X248750D02*
X250025D01*
X246275D02*
X248225D01*
X242975D02*
X244925D01*
X241100D02*
X242375D01*
X239150D02*
X240500D01*
X235775D02*
X236825D01*
X232100D02*
X233450D01*
X228200D02*
X230975D01*
X224675D02*
X225950D01*
X222200D02*
X224150D01*
X218300D02*
X220475D01*
X260450Y183850D02*
X261725D01*
X257825D02*
X260000D01*
X252125D02*
X255200D01*
X248750D02*
X250025D01*
X246125D02*
X248300D01*
X242825D02*
X245000D01*
X241100D02*
X242375D01*
X239150D02*
X240500D01*
X235775D02*
X236825D01*
X232100D02*
X233450D01*
X228050D02*
X231125D01*
X224675D02*
X225950D01*
X222050D02*
X224300D01*
X218150D02*
X220625D01*
X260450Y183775D02*
X261725D01*
X257675D02*
X260150D01*
X251975D02*
X255275D01*
X248750D02*
X250025D01*
X245975D02*
X248450D01*
X242675D02*
X245150D01*
X241100D02*
X242375D01*
X239150D02*
X240500D01*
X235700D02*
X236900D01*
X232175D02*
X233450D01*
X227975D02*
X231275D01*
X224675D02*
X225950D01*
X221975D02*
X224375D01*
X218000D02*
X220775D01*
X260450Y183700D02*
X261725D01*
X257600D02*
X260225D01*
X251900D02*
X255425D01*
X248750D02*
X250025D01*
X245900D02*
X248525D01*
X242600D02*
X245225D01*
X241100D02*
X242375D01*
X239150D02*
X240425D01*
X235700D02*
X236900D01*
X232175D02*
X233525D01*
X227825D02*
X231350D01*
X224675D02*
X225950D01*
X221825D02*
X224450D01*
X217925D02*
X220850D01*
X260450Y183625D02*
X261725D01*
X257525D02*
X260300D01*
X251825D02*
X255500D01*
X248750D02*
X250025D01*
X245900D02*
X248600D01*
X242525D02*
X245300D01*
X241100D02*
X242375D01*
X239075D02*
X240425D01*
X235700D02*
X236900D01*
X232175D02*
X233525D01*
X227750D02*
X231425D01*
X224675D02*
X225950D01*
X221900D02*
X224525D01*
X217850D02*
X220925D01*
X260450Y183550D02*
X261725D01*
X257450D02*
X260375D01*
X251750D02*
X255575D01*
X248750D02*
X250025D01*
X245975D02*
X248675D01*
X242450D02*
X245375D01*
X241100D02*
X242375D01*
X239075D02*
X240425D01*
X235625D02*
X236975D01*
X232250D02*
X233525D01*
X227675D02*
X231500D01*
X224675D02*
X225950D01*
X221900D02*
X224600D01*
X217700D02*
X221075D01*
X257375Y183475D02*
X261725D01*
X251675D02*
X255650D01*
X246050D02*
X250025D01*
X241100D02*
X245450D01*
X239075D02*
X240350D01*
X235625D02*
X236975D01*
X232250D02*
X233600D01*
X227600D02*
X231575D01*
X221975D02*
X225950D01*
X217625D02*
X221150D01*
X257300Y183400D02*
X261725D01*
X251600D02*
X255725D01*
X246125D02*
X250025D01*
X241100D02*
X245525D01*
X239000D02*
X240350D01*
X235625D02*
X236975D01*
X232250D02*
X233600D01*
X227525D02*
X231650D01*
X222050D02*
X225950D01*
X217550D02*
X221150D01*
X257225Y183325D02*
X261725D01*
X251525D02*
X255725D01*
X246200D02*
X250025D01*
X241100D02*
X245600D01*
X239000D02*
X240350D01*
X235625D02*
X237050D01*
X232250D02*
X233600D01*
X227450D02*
X231725D01*
X222125D02*
X225950D01*
X217550D02*
X221225D01*
X257225Y183250D02*
X261725D01*
X251525D02*
X255800D01*
X246200D02*
X250025D01*
X241100D02*
X245600D01*
X239000D02*
X240275D01*
X235550D02*
X237050D01*
X232325D02*
X233600D01*
X227450D02*
X231725D01*
X222200D02*
X225950D01*
X217475D02*
X221300D01*
X257150Y183175D02*
X261725D01*
X251450D02*
X255725D01*
X246275D02*
X250025D01*
X241100D02*
X245675D01*
X239000D02*
X240275D01*
X235550D02*
X237050D01*
X232325D02*
X233675D01*
X227375D02*
X231650D01*
X222275D02*
X225950D01*
X217400D02*
X221375D01*
X257075Y183100D02*
X261725D01*
X251375D02*
X255650D01*
X246350D02*
X250025D01*
X241100D02*
X245675D01*
X238925D02*
X240275D01*
X235550D02*
X237125D01*
X232325D02*
X233675D01*
X227375D02*
X231575D01*
X222275D02*
X225950D01*
X217325D02*
X221450D01*
X257075Y183025D02*
X261725D01*
X251375D02*
X255500D01*
X246425D02*
X250025D01*
X241100D02*
X245750D01*
X238925D02*
X240200D01*
X235475D02*
X237125D01*
X232400D02*
X233675D01*
X227300D02*
X231500D01*
X222350D02*
X225950D01*
X217325D02*
X221450D01*
X257000Y182950D02*
X261725D01*
X253925D02*
X255425D01*
X251375D02*
X253475D01*
X246500D02*
X250025D01*
X241100D02*
X245750D01*
X238925D02*
X240200D01*
X235475D02*
X237125D01*
X232400D02*
X233675D01*
X229925D02*
X231350D01*
X227300D02*
X229400D01*
X222425D02*
X225950D01*
X219575D02*
X221525D01*
X217250D02*
X219200D01*
X259475Y182875D02*
X261725D01*
X257000D02*
X259025D01*
X254375D02*
X255350D01*
X251300D02*
X253025D01*
X247775D02*
X250025D01*
X246575D02*
X247400D01*
X243725D02*
X245825D01*
X241100D02*
X243350D01*
X238850D02*
X240200D01*
X235475D02*
X237200D01*
X232400D02*
X233750D01*
X230300D02*
X231275D01*
X227300D02*
X228950D01*
X223775D02*
X225950D01*
X222500D02*
X223325D01*
X219875D02*
X221525D01*
X217250D02*
X218975D01*
X259700Y182800D02*
X261725D01*
X257000D02*
X258800D01*
X254450D02*
X255200D01*
X251300D02*
X252800D01*
X248075D02*
X250025D01*
X246575D02*
X247175D01*
X244025D02*
X245825D01*
X241100D02*
X243050D01*
X238850D02*
X240200D01*
X235400D02*
X237200D01*
X232475D02*
X233750D01*
X230450D02*
X231200D01*
X227225D02*
X228725D01*
X224000D02*
X225950D01*
X222575D02*
X223100D01*
X220025D02*
X221525D01*
X217175D02*
X218825D01*
X259850Y182725D02*
X261725D01*
X256925D02*
X258650D01*
X254600D02*
X255125D01*
X251300D02*
X252725D01*
X248225D02*
X250025D01*
X246650D02*
X247025D01*
X244175D02*
X245825D01*
X241100D02*
X242900D01*
X238850D02*
X240125D01*
X235400D02*
X237200D01*
X232475D02*
X233750D01*
X230525D02*
X231050D01*
X227225D02*
X228650D01*
X224150D02*
X225950D01*
X222650D02*
X223025D01*
X220100D02*
X221600D01*
X217175D02*
X218675D01*
X260000Y182650D02*
X261725D01*
X256925D02*
X258575D01*
X254675D02*
X255050D01*
X251300D02*
X252650D01*
X248300D02*
X250025D01*
X246725D02*
X246950D01*
X244250D02*
X245825D01*
X241100D02*
X242825D01*
X238850D02*
X240125D01*
X235400D02*
X237275D01*
X232475D02*
X233825D01*
X230600D02*
X230975D01*
X227225D02*
X228575D01*
X224225D02*
X225950D01*
X222650D02*
X222875D01*
X220250D02*
X221600D01*
X217100D02*
X218600D01*
X260075Y182575D02*
X261725D01*
X256925D02*
X258500D01*
X254750D02*
X254900D01*
X251300D02*
X252575D01*
X248375D02*
X250025D01*
X244325D02*
X245900D01*
X241100D02*
X242750D01*
X238775D02*
X240125D01*
X235325D02*
X237275D01*
X232550D02*
X233825D01*
X230675D02*
X230900D01*
X227225D02*
X228500D01*
X224300D02*
X225950D01*
X220325D02*
X221675D01*
X217100D02*
X218525D01*
X260150Y182500D02*
X261725D01*
X256925D02*
X258425D01*
X251225D02*
X252575D01*
X248450D02*
X250025D01*
X244400D02*
X245900D01*
X241100D02*
X242675D01*
X238775D02*
X240050D01*
X235325D02*
X237275D01*
X232550D02*
X233825D01*
X227225D02*
X228500D01*
X224375D02*
X225950D01*
X220325D02*
X221675D01*
X217100D02*
X218450D01*
X260225Y182425D02*
X261725D01*
X256925D02*
X258350D01*
X251225D02*
X252500D01*
X248525D02*
X250025D01*
X244475D02*
X245900D01*
X241100D02*
X242600D01*
X238775D02*
X240050D01*
X235325D02*
X237350D01*
X232550D02*
X233825D01*
X227225D02*
X228500D01*
X224450D02*
X225950D01*
X220400D02*
X221675D01*
X217025D02*
X218450D01*
X260225Y182350D02*
X261725D01*
X256925D02*
X258275D01*
X251225D02*
X252500D01*
X248525D02*
X250025D01*
X244475D02*
X245900D01*
X241100D02*
X242600D01*
X238775D02*
X240050D01*
X235250D02*
X237350D01*
X232625D02*
X233900D01*
X227225D02*
X228425D01*
X224525D02*
X225950D01*
X220475D02*
X221750D01*
X217025D02*
X218375D01*
X260300Y182275D02*
X261725D01*
X256850D02*
X258275D01*
X251225D02*
X252500D01*
X248600D02*
X250025D01*
X244550D02*
X245900D01*
X241100D02*
X242525D01*
X238700D02*
X239975D01*
X235250D02*
X237350D01*
X232625D02*
X233900D01*
X227150D02*
X228425D01*
X224525D02*
X225950D01*
X220475D02*
X221750D01*
X217025D02*
X218375D01*
X260300Y182200D02*
X261725D01*
X256850D02*
X258275D01*
X251225D02*
X252500D01*
X248600D02*
X250025D01*
X244550D02*
X245900D01*
X241100D02*
X242525D01*
X238700D02*
X239975D01*
X235250D02*
X237425D01*
X232625D02*
X233900D01*
X227150D02*
X228425D01*
X224600D02*
X225950D01*
X220550D02*
X221750D01*
X216950D02*
X218300D01*
X260375Y182125D02*
X261725D01*
X256850D02*
X258200D01*
X251225D02*
X252500D01*
X248675D02*
X250025D01*
X244550D02*
X245900D01*
X241100D02*
X242525D01*
X238700D02*
X239975D01*
X235175D02*
X237425D01*
X232700D02*
X233900D01*
X227150D02*
X228425D01*
X224600D02*
X225950D01*
X220550D02*
X221750D01*
X216950D02*
X218300D01*
X260375Y182050D02*
X261725D01*
X256850D02*
X258200D01*
X251225D02*
X252500D01*
X248675D02*
X250025D01*
X244625D02*
X245900D01*
X241100D02*
X242450D01*
X238625D02*
X239900D01*
X236375D02*
X237425D01*
X235175D02*
X236300D01*
X232700D02*
X233975D01*
X227150D02*
X228425D01*
X224600D02*
X225950D01*
X220550D02*
X221825D01*
X216950D02*
X218300D01*
X260375Y181975D02*
X261725D01*
X256850D02*
X258200D01*
X251225D02*
X252500D01*
X248675D02*
X250025D01*
X244625D02*
X245900D01*
X241100D02*
X242450D01*
X238625D02*
X239900D01*
X236375D02*
X237500D01*
X235175D02*
X236225D01*
X232700D02*
X233975D01*
X227150D02*
X228425D01*
X224600D02*
X225950D01*
X220550D02*
X221825D01*
X216950D02*
X218225D01*
X260375Y181900D02*
X261725D01*
X256850D02*
X258125D01*
X251225D02*
X252500D01*
X248675D02*
X250025D01*
X244625D02*
X245900D01*
X241100D02*
X242450D01*
X238625D02*
X239900D01*
X236375D02*
X237500D01*
X235100D02*
X236225D01*
X232775D02*
X233975D01*
X227150D02*
X228425D01*
X224675D02*
X225950D01*
X220625D02*
X221825D01*
X216950D02*
X218225D01*
X260375Y181825D02*
X261725D01*
X256850D02*
X258125D01*
X251225D02*
X252500D01*
X248675D02*
X250025D01*
X244625D02*
X245900D01*
X241100D02*
X242450D01*
X238625D02*
X239825D01*
X236375D02*
X237500D01*
X235100D02*
X236225D01*
X232775D02*
X234050D01*
X227150D02*
X228425D01*
X224675D02*
X225950D01*
X220625D02*
X221825D01*
X216950D02*
X218225D01*
X260375Y181750D02*
X261725D01*
X256850D02*
X258125D01*
X251225D02*
X252500D01*
X248750D02*
X250025D01*
X244625D02*
X245975D01*
X241100D02*
X242450D01*
X238550D02*
X239825D01*
X236450D02*
X237500D01*
X235100D02*
X236150D01*
X232775D02*
X234050D01*
X227150D02*
X228425D01*
X224675D02*
X225950D01*
X220625D02*
X221825D01*
X216950D02*
X218225D01*
X260450Y181675D02*
X261725D01*
X256850D02*
X258125D01*
X251225D02*
X252500D01*
X248750D02*
X250025D01*
X244625D02*
X245975D01*
X241100D02*
X242450D01*
X238550D02*
X239825D01*
X236450D02*
X237575D01*
X235025D02*
X236150D01*
X232775D02*
X234050D01*
X227150D02*
X228425D01*
X224675D02*
X225950D01*
X220625D02*
X221825D01*
X216950D02*
X218225D01*
X260450Y181600D02*
X261725D01*
X256850D02*
X258125D01*
X251225D02*
X254675D01*
X248750D02*
X250025D01*
X244625D02*
X245975D01*
X241100D02*
X242450D01*
X238550D02*
X239750D01*
X236450D02*
X237575D01*
X235025D02*
X236150D01*
X232850D02*
X234050D01*
X227150D02*
X230600D01*
X224675D02*
X225950D01*
X216950D02*
X221900D01*
X260450Y181525D02*
X261725D01*
X256850D02*
X258125D01*
X251225D02*
X254975D01*
X248750D02*
X250025D01*
X244700D02*
X245975D01*
X241100D02*
X242450D01*
X238550D02*
X239750D01*
X236525D02*
X237575D01*
X235025D02*
X236150D01*
X232850D02*
X234125D01*
X227150D02*
X230900D01*
X224675D02*
X225950D01*
X216950D02*
X221900D01*
X260450Y181450D02*
X261725D01*
X256850D02*
X258125D01*
X251225D02*
X255125D01*
X248750D02*
X250025D01*
X244700D02*
X245975D01*
X241100D02*
X242375D01*
X238475D02*
X239750D01*
X236525D02*
X237650D01*
X234950D02*
X236075D01*
X232850D02*
X234125D01*
X227150D02*
X231050D01*
X224675D02*
X225950D01*
X216950D02*
X221900D01*
X260450Y181375D02*
X261725D01*
X256850D02*
X258125D01*
X251225D02*
X255275D01*
X248750D02*
X250025D01*
X244700D02*
X245975D01*
X241100D02*
X242375D01*
X238475D02*
X239675D01*
X236525D02*
X237650D01*
X234950D02*
X236075D01*
X232925D02*
X234125D01*
X227150D02*
X231200D01*
X224675D02*
X225950D01*
X216950D02*
X221900D01*
X260450Y181300D02*
X261725D01*
X256850D02*
X258125D01*
X251225D02*
X255425D01*
X248750D02*
X250025D01*
X244700D02*
X245975D01*
X241100D02*
X242375D01*
X238475D02*
X239675D01*
X236600D02*
X237650D01*
X234950D02*
X236075D01*
X232925D02*
X234125D01*
X227150D02*
X231350D01*
X224675D02*
X225950D01*
X216950D02*
X221900D01*
X260450Y181225D02*
X261725D01*
X256850D02*
X258125D01*
X251225D02*
X255500D01*
X248750D02*
X250025D01*
X244700D02*
X245975D01*
X241100D02*
X242375D01*
X238400D02*
X239675D01*
X236600D02*
X237725D01*
X234875D02*
X236000D01*
X232925D02*
X234200D01*
X227150D02*
X231425D01*
X224675D02*
X225950D01*
X216950D02*
X221900D01*
X260450Y181150D02*
X261725D01*
X256850D02*
X258125D01*
X251225D02*
X255575D01*
X248750D02*
X250025D01*
X244700D02*
X245975D01*
X241100D02*
X242375D01*
X238400D02*
X239600D01*
X236600D02*
X237725D01*
X234875D02*
X236000D01*
X233000D02*
X234200D01*
X227150D02*
X231500D01*
X224675D02*
X225950D01*
X216950D02*
X221900D01*
X260450Y181075D02*
X261725D01*
X256850D02*
X258125D01*
X251225D02*
X255650D01*
X248750D02*
X250025D01*
X244700D02*
X245975D01*
X241100D02*
X242375D01*
X238400D02*
X239600D01*
X236600D02*
X237725D01*
X234875D02*
X236000D01*
X233000D02*
X234200D01*
X227150D02*
X231575D01*
X224675D02*
X225950D01*
X216950D02*
X221900D01*
X260450Y181000D02*
X261725D01*
X256850D02*
X258125D01*
X251225D02*
X255725D01*
X248750D02*
X250025D01*
X244700D02*
X245975D01*
X241100D02*
X242375D01*
X238400D02*
X239600D01*
X236675D02*
X237800D01*
X234875D02*
X235925D01*
X233000D02*
X234275D01*
X227150D02*
X231650D01*
X224675D02*
X225950D01*
X216950D02*
X221900D01*
X260450Y180925D02*
X261725D01*
X256850D02*
X258125D01*
X251225D02*
X255800D01*
X248750D02*
X250025D01*
X244700D02*
X245975D01*
X241100D02*
X242375D01*
X238325D02*
X239600D01*
X236675D02*
X237800D01*
X234800D02*
X235925D01*
X233075D02*
X234275D01*
X227150D02*
X231725D01*
X224675D02*
X225950D01*
X216950D02*
X221900D01*
X260450Y180850D02*
X261725D01*
X256850D02*
X258125D01*
X251225D02*
X255800D01*
X248750D02*
X250025D01*
X244700D02*
X245975D01*
X241100D02*
X242375D01*
X238325D02*
X239525D01*
X236675D02*
X237800D01*
X234800D02*
X235925D01*
X233075D02*
X234275D01*
X227150D02*
X231800D01*
X224675D02*
X225950D01*
X216950D02*
X221900D01*
X260450Y180775D02*
X261725D01*
X256850D02*
X258125D01*
X251225D02*
X255875D01*
X248750D02*
X250025D01*
X244700D02*
X245975D01*
X241100D02*
X242375D01*
X238325D02*
X239525D01*
X236750D02*
X237875D01*
X234800D02*
X235925D01*
X233075D02*
X234275D01*
X227150D02*
X231800D01*
X224675D02*
X225950D01*
X216950D02*
X221900D01*
X260450Y180700D02*
X261725D01*
X256850D02*
X258125D01*
X251225D02*
X255875D01*
X248750D02*
X250025D01*
X244700D02*
X245975D01*
X241100D02*
X242450D01*
X238325D02*
X239525D01*
X236750D02*
X237875D01*
X234725D02*
X235850D01*
X233150D02*
X234350D01*
X227150D02*
X231875D01*
X224675D02*
X225950D01*
X216950D02*
X221900D01*
X260450Y180625D02*
X261725D01*
X256850D02*
X258125D01*
X251225D02*
X255950D01*
X248750D02*
X250025D01*
X244625D02*
X245975D01*
X241100D02*
X242450D01*
X238250D02*
X239450D01*
X236750D02*
X237875D01*
X234725D02*
X235850D01*
X233150D02*
X234350D01*
X227150D02*
X231875D01*
X224675D02*
X225950D01*
X216950D02*
X221900D01*
X260450Y180550D02*
X261725D01*
X256850D02*
X258125D01*
X254300D02*
X255950D01*
X251225D02*
X252500D01*
X248750D02*
X250025D01*
X244625D02*
X245975D01*
X241100D02*
X242450D01*
X238250D02*
X239450D01*
X236825D02*
X237950D01*
X234725D02*
X235850D01*
X233150D02*
X234350D01*
X230225D02*
X231950D01*
X227150D02*
X228425D01*
X224675D02*
X225950D01*
X220625D02*
X221825D01*
X260450Y180475D02*
X261725D01*
X256850D02*
X258125D01*
X254450D02*
X256025D01*
X251225D02*
X252500D01*
X248750D02*
X250025D01*
X244625D02*
X245975D01*
X241100D02*
X242450D01*
X238250D02*
X239450D01*
X236825D02*
X237950D01*
X234650D02*
X235775D01*
X233225D02*
X234350D01*
X230450D02*
X231950D01*
X227150D02*
X228425D01*
X224675D02*
X225950D01*
X220625D02*
X221825D01*
X260450Y180400D02*
X261725D01*
X256850D02*
X258125D01*
X254675D02*
X256025D01*
X251225D02*
X252500D01*
X248750D02*
X250025D01*
X244625D02*
X245900D01*
X241100D02*
X242450D01*
X238175D02*
X239375D01*
X236825D02*
X237950D01*
X234650D02*
X235775D01*
X233225D02*
X234425D01*
X230600D02*
X231950D01*
X227150D02*
X228425D01*
X224675D02*
X225950D01*
X220625D02*
X221825D01*
X260450Y180325D02*
X261725D01*
X256850D02*
X258125D01*
X254675D02*
X256025D01*
X251225D02*
X252500D01*
X248750D02*
X250025D01*
X244625D02*
X245900D01*
X241100D02*
X242450D01*
X238175D02*
X239375D01*
X236825D02*
X238025D01*
X234650D02*
X235775D01*
X233225D02*
X234425D01*
X230675D02*
X231950D01*
X227150D02*
X228425D01*
X224675D02*
X225950D01*
X220625D02*
X221825D01*
X260450Y180250D02*
X261725D01*
X256850D02*
X258125D01*
X254750D02*
X256025D01*
X251225D02*
X252500D01*
X248750D02*
X250025D01*
X244625D02*
X245900D01*
X241100D02*
X242450D01*
X238175D02*
X239375D01*
X236900D02*
X238025D01*
X234575D02*
X235775D01*
X233300D02*
X234425D01*
X230750D02*
X232025D01*
X227150D02*
X228425D01*
X224675D02*
X225950D01*
X220550D02*
X221825D01*
X260450Y180175D02*
X261725D01*
X256850D02*
X258125D01*
X254825D02*
X256100D01*
X251225D02*
X252500D01*
X248750D02*
X250025D01*
X244625D02*
X245900D01*
X241100D02*
X242450D01*
X238175D02*
X239300D01*
X236900D02*
X238025D01*
X234575D02*
X235700D01*
X233300D02*
X234500D01*
X230750D02*
X232025D01*
X227150D02*
X228425D01*
X224675D02*
X225950D01*
X220550D02*
X221825D01*
X260450Y180100D02*
X261725D01*
X256850D02*
X258125D01*
X254825D02*
X256100D01*
X251225D02*
X252500D01*
X248750D02*
X250025D01*
X244625D02*
X245900D01*
X241100D02*
X242525D01*
X236900D02*
X239300D01*
X234575D02*
X235700D01*
X233300D02*
X234500D01*
X230825D02*
X232025D01*
X227150D02*
X228425D01*
X224675D02*
X225950D01*
X220550D02*
X221825D01*
X260450Y180025D02*
X261725D01*
X256850D02*
X258125D01*
X254900D02*
X256100D01*
X251225D02*
X252500D01*
X248750D02*
X250025D01*
X244550D02*
X245900D01*
X241100D02*
X242525D01*
X236975D02*
X239300D01*
X233375D02*
X235700D01*
X230825D02*
X232025D01*
X227150D02*
X228425D01*
X224675D02*
X225950D01*
X220550D02*
X221825D01*
X260450Y179950D02*
X261725D01*
X256850D02*
X258125D01*
X254900D02*
X256100D01*
X251225D02*
X252500D01*
X248750D02*
X250025D01*
X244550D02*
X245900D01*
X241100D02*
X242525D01*
X236975D02*
X239225D01*
X233375D02*
X235625D01*
X230825D02*
X232025D01*
X227150D02*
X228425D01*
X224675D02*
X225950D01*
X220475D02*
X221750D01*
X260450Y179875D02*
X261725D01*
X256850D02*
X258125D01*
X254900D02*
X256100D01*
X251225D02*
X252500D01*
X248750D02*
X250025D01*
X244550D02*
X245900D01*
X241100D02*
X242525D01*
X236975D02*
X239225D01*
X233375D02*
X235625D01*
X230825D02*
X232025D01*
X227150D02*
X228500D01*
X224675D02*
X225950D01*
X220475D02*
X221750D01*
X260450Y179800D02*
X261725D01*
X256850D02*
X258125D01*
X254825D02*
X256100D01*
X251225D02*
X252575D01*
X248750D02*
X250025D01*
X244475D02*
X245900D01*
X241100D02*
X242600D01*
X237050D02*
X239225D01*
X233375D02*
X235625D01*
X230825D02*
X232025D01*
X227150D02*
X228500D01*
X224675D02*
X225950D01*
X220400D02*
X221750D01*
X260450Y179725D02*
X261725D01*
X256850D02*
X258125D01*
X254825D02*
X256100D01*
X251225D02*
X252575D01*
X248750D02*
X250025D01*
X244475D02*
X245900D01*
X241100D02*
X242675D01*
X237050D02*
X239150D01*
X233450D02*
X235550D01*
X230825D02*
X232025D01*
X227150D02*
X228500D01*
X224675D02*
X225950D01*
X220325D02*
X221675D01*
X217850D02*
X218075D01*
X260450Y179650D02*
X261725D01*
X256850D02*
X258125D01*
X254825D02*
X256100D01*
X251225D02*
X252575D01*
X248750D02*
X250025D01*
X244400D02*
X245900D01*
X241100D02*
X242675D01*
X237050D02*
X239150D01*
X233450D02*
X235550D01*
X230750D02*
X232025D01*
X227150D02*
X228500D01*
X224675D02*
X225950D01*
X220325D02*
X221675D01*
X217775D02*
X218150D01*
X260450Y179575D02*
X261725D01*
X256850D02*
X258125D01*
X254750D02*
X256100D01*
X251225D02*
X252650D01*
X248750D02*
X250025D01*
X244325D02*
X245900D01*
X241100D02*
X242750D01*
X237050D02*
X239150D01*
X233450D02*
X235550D01*
X230750D02*
X232025D01*
X227150D02*
X228575D01*
X224675D02*
X225950D01*
X220250D02*
X221675D01*
X217700D02*
X218225D01*
X260450Y179500D02*
X261725D01*
X256850D02*
X258125D01*
X254750D02*
X256025D01*
X251225D02*
X252650D01*
X248750D02*
X250025D01*
X244250D02*
X245825D01*
X241100D02*
X242825D01*
X237125D02*
X239075D01*
X233525D02*
X235550D01*
X230675D02*
X232025D01*
X227150D02*
X228575D01*
X224675D02*
X225950D01*
X220175D02*
X221675D01*
X217550D02*
X218300D01*
X260450Y179425D02*
X261725D01*
X256850D02*
X258125D01*
X254600D02*
X256025D01*
X251225D02*
X252725D01*
X248750D02*
X250025D01*
X244175D02*
X245825D01*
X241100D02*
X242975D01*
X237125D02*
X239075D01*
X233525D02*
X235475D01*
X230600D02*
X232025D01*
X227150D02*
X228650D01*
X224675D02*
X225950D01*
X220025D02*
X221600D01*
X217475D02*
X218450D01*
X260450Y179350D02*
X261725D01*
X256850D02*
X258125D01*
X254525D02*
X256025D01*
X251225D02*
X252800D01*
X248750D02*
X250025D01*
X243950D02*
X245825D01*
X241100D02*
X243125D01*
X237125D02*
X239075D01*
X233525D02*
X235475D01*
X230450D02*
X231950D01*
X227150D02*
X228800D01*
X224675D02*
X225950D01*
X219875D02*
X221600D01*
X217400D02*
X218600D01*
X260450Y179275D02*
X261725D01*
X256850D02*
X258125D01*
X254300D02*
X256025D01*
X251225D02*
X253025D01*
X248750D02*
X250025D01*
X241100D02*
X245750D01*
X237200D02*
X239075D01*
X233600D02*
X235475D01*
X230300D02*
X231950D01*
X227150D02*
X228950D01*
X224675D02*
X225950D01*
X219725D02*
X221525D01*
X217325D02*
X218825D01*
X260450Y179200D02*
X261725D01*
X256850D02*
X258125D01*
X251225D02*
X255950D01*
X248750D02*
X250025D01*
X241100D02*
X245750D01*
X237200D02*
X239000D01*
X233600D02*
X235400D01*
X227150D02*
X231950D01*
X224675D02*
X225950D01*
X217250D02*
X221450D01*
X260450Y179125D02*
X261725D01*
X256850D02*
X258125D01*
X251225D02*
X255950D01*
X248750D02*
X250025D01*
X241100D02*
X245750D01*
X237200D02*
X239000D01*
X233600D02*
X235400D01*
X227150D02*
X231875D01*
X224675D02*
X225950D01*
X217175D02*
X221450D01*
X260450Y179050D02*
X261725D01*
X256850D02*
X258125D01*
X251225D02*
X255950D01*
X248750D02*
X250025D01*
X241100D02*
X245675D01*
X237275D02*
X239000D01*
X233675D02*
X235400D01*
X227150D02*
X231875D01*
X224675D02*
X225950D01*
X217025D02*
X221375D01*
X260450Y178975D02*
X261725D01*
X256850D02*
X258125D01*
X251225D02*
X255875D01*
X248750D02*
X250025D01*
X241100D02*
X245675D01*
X237275D02*
X238925D01*
X233675D02*
X235325D01*
X227150D02*
X231800D01*
X224675D02*
X225950D01*
X217025D02*
X221375D01*
X260450Y178900D02*
X261725D01*
X256850D02*
X258125D01*
X251225D02*
X255800D01*
X248750D02*
X250025D01*
X241100D02*
X245600D01*
X237275D02*
X238925D01*
X233675D02*
X235325D01*
X227150D02*
X231800D01*
X224675D02*
X225950D01*
X217100D02*
X221300D01*
X260450Y178825D02*
X261725D01*
X256850D02*
X258125D01*
X251225D02*
X255800D01*
X248750D02*
X250025D01*
X241100D02*
X245525D01*
X237275D02*
X238925D01*
X233750D02*
X235325D01*
X227150D02*
X231725D01*
X224675D02*
X225950D01*
X217175D02*
X221225D01*
X260450Y178750D02*
X261725D01*
X256850D02*
X258125D01*
X251225D02*
X255725D01*
X248750D02*
X250025D01*
X241100D02*
X245525D01*
X237350D02*
X238850D01*
X233750D02*
X235325D01*
X227150D02*
X231650D01*
X224675D02*
X225950D01*
X217250D02*
X221150D01*
X260450Y178675D02*
X261725D01*
X256850D02*
X258125D01*
X251225D02*
X255650D01*
X248750D02*
X250025D01*
X241100D02*
X245450D01*
X237350D02*
X238850D01*
X233750D02*
X235250D01*
X227150D02*
X231650D01*
X224675D02*
X225950D01*
X217325D02*
X221075D01*
X260450Y178600D02*
X261725D01*
X256850D02*
X258125D01*
X251225D02*
X255575D01*
X248750D02*
X250025D01*
X242450D02*
X245375D01*
X241100D02*
X242375D01*
X237350D02*
X238850D01*
X233825D02*
X235250D01*
X227150D02*
X231575D01*
X224675D02*
X225950D01*
X217400D02*
X221000D01*
X260450Y178525D02*
X261725D01*
X256850D02*
X258125D01*
X251225D02*
X255500D01*
X248750D02*
X250025D01*
X242525D02*
X245300D01*
X241100D02*
X242375D01*
X237425D02*
X238775D01*
X233825D02*
X235250D01*
X228500D02*
X231500D01*
X227150D02*
X228425D01*
X224675D02*
X225950D01*
X217550D02*
X220925D01*
X260450Y178450D02*
X261725D01*
X256850D02*
X258125D01*
X252575D02*
X255425D01*
X251225D02*
X252500D01*
X248750D02*
X250025D01*
X242600D02*
X245225D01*
X241100D02*
X242375D01*
X237425D02*
X238775D01*
X233825D02*
X235175D01*
X228500D02*
X231350D01*
X227150D02*
X228425D01*
X224675D02*
X225950D01*
X217625D02*
X220850D01*
X260450Y178375D02*
X261725D01*
X256850D02*
X258125D01*
X252650D02*
X255350D01*
X251225D02*
X252500D01*
X248750D02*
X250025D01*
X242675D02*
X245075D01*
X241100D02*
X242375D01*
X237425D02*
X238775D01*
X233900D02*
X235175D01*
X228575D02*
X231275D01*
X227150D02*
X228425D01*
X224675D02*
X225950D01*
X217775D02*
X220700D01*
X260450Y178300D02*
X261725D01*
X256850D02*
X258125D01*
X252725D02*
X255200D01*
X251225D02*
X252500D01*
X248750D02*
X250025D01*
X242825D02*
X245000D01*
X241100D02*
X242375D01*
X237500D02*
X238700D01*
X233900D02*
X235175D01*
X228650D02*
X231200D01*
X227150D02*
X228425D01*
X224675D02*
X225950D01*
X217925D02*
X220550D01*
X260450Y178225D02*
X261725D01*
X256850D02*
X258125D01*
X252875D02*
X255050D01*
X251225D02*
X252500D01*
X248750D02*
X250025D01*
X242975D02*
X244850D01*
X241100D02*
X242375D01*
X237500D02*
X238700D01*
X233900D02*
X235100D01*
X228800D02*
X230975D01*
X227150D02*
X228425D01*
X224675D02*
X225950D01*
X218075D02*
X220400D01*
X260450Y178150D02*
X261725D01*
X256850D02*
X258125D01*
X252950D02*
X254900D01*
X251225D02*
X252500D01*
X248750D02*
X250025D01*
X243125D02*
X244700D01*
X241100D02*
X242375D01*
X237500D02*
X238700D01*
X233900D02*
X235100D01*
X228950D02*
X230825D01*
X227150D02*
X228425D01*
X224675D02*
X225950D01*
X218300D02*
X220250D01*
X260450Y178075D02*
X261650D01*
X256850D02*
X258125D01*
X253250D02*
X254600D01*
X251225D02*
X252500D01*
X248750D02*
X249950D01*
X243350D02*
X244475D01*
X241100D02*
X242375D01*
X237500D02*
X238625D01*
X233975D02*
X235100D01*
X229175D02*
X230525D01*
X227150D02*
X228425D01*
X224675D02*
X225950D01*
X218525D02*
X219950D01*
D118*
X202831Y51598D02*
X204209Y50614D01*
Y51598D01*
X202831Y50713D02*
Y51598D01*
Y52484D01*
X204209Y51598D02*
Y52583D01*
X202831Y51598D02*
X204209Y52583D01*
X285811Y160500D02*
X287189Y161484D01*
Y160500D02*
Y161484D01*
X285811Y160500D02*
Y161386D01*
Y159614D02*
Y160500D01*
X287189Y159516D02*
Y160500D01*
X285811D02*
X287189Y159516D01*
X87311Y63484D02*
X88689Y62500D01*
X87311D02*
Y63484D01*
X88689Y62500D02*
Y63386D01*
Y61614D02*
Y62500D01*
X87311Y61516D02*
Y62500D01*
Y61516D02*
X88689Y62500D01*
X202831Y59276D02*
X204209Y60260D01*
Y59276D02*
Y60260D01*
X202831Y59276D02*
Y60161D01*
Y58390D02*
Y59276D01*
X204209Y58291D02*
Y59276D01*
X202831D02*
X204209Y58291D01*
D119*
X78319Y18174D02*
X75695D01*
X77007D01*
Y14239D01*
X72415Y18174D02*
X73727D01*
X74383Y17518D01*
Y14895D01*
X73727Y14239D01*
X72415D01*
X71759Y14895D01*
Y17518D01*
X72415Y18174D01*
X78319Y6681D02*
Y9305D01*
X77007Y10617D01*
X75695Y9305D01*
Y6681D01*
Y8649D01*
X78319D01*
X74383Y10617D02*
Y6681D01*
X72415D01*
X71759Y7337D01*
Y9961D01*
X72415Y10617D01*
X74383D01*
X70447Y6681D02*
Y10617D01*
X69135Y9305D01*
X67824Y10617D01*
Y6681D01*
D120*
X90713Y103250D02*
D03*
M02*
