G04*
G04 #@! TF.GenerationSoftware,Altium Limited,Altium Designer,19.0.15 (446)*
G04*
G04 Layer_Physical_Order=1*
G04 Layer_Color=255*
%FSLAX25Y25*%
%MOIN*%
G70*
G01*
G75*
%ADD13C,0.01000*%
%ADD15C,0.02000*%
%ADD17R,0.03937X0.03543*%
%ADD18R,0.05315X0.04528*%
%ADD19R,0.04528X0.05315*%
%ADD20R,0.05512X0.05118*%
%ADD21R,0.11811X0.08268*%
%ADD22R,0.06299X0.03150*%
%ADD23R,0.08268X0.11811*%
%ADD24R,0.03150X0.06299*%
%ADD25O,0.06299X0.01378*%
%ADD36C,0.06000*%
%ADD49C,0.01500*%
%ADD50C,0.03000*%
%ADD51C,0.25591*%
%ADD52C,0.05200*%
%ADD53C,0.03543*%
%ADD54C,0.23622*%
%ADD55O,0.02953X0.05906*%
%ADD56C,0.05906*%
%ADD57R,0.05906X0.05906*%
%ADD58C,0.15984*%
%ADD59C,0.06732*%
%ADD60C,0.61024*%
%ADD61C,0.17717*%
%ADD62C,0.19685*%
%ADD63C,0.18504*%
%ADD64C,0.02000*%
D13*
X37800Y236500D02*
X66500D01*
X27000Y225700D02*
X37800Y236500D01*
X65500Y274000D02*
X74000D01*
X64197Y272697D02*
X65500Y274000D01*
X64197Y271303D02*
Y272697D01*
X67500Y-6500D02*
Y0D01*
X93625Y297625D02*
X106000Y310000D01*
X93625Y291625D02*
X109500Y307500D01*
X218000Y275000D02*
Y308000D01*
X216000Y310000D02*
X218000Y308000D01*
X106000Y310000D02*
X216000Y310000D01*
X109500Y307500D02*
X213000Y307500D01*
X215000Y305500D01*
X217516Y263484D02*
X234500D01*
X215000Y266000D02*
X217516Y263484D01*
X215000Y266000D02*
Y305500D01*
X220500Y272500D02*
X234650D01*
X218000Y275000D02*
X220500Y272500D01*
X95000Y109750D02*
Y147500D01*
X89898Y97398D02*
X92500Y100000D01*
X82024Y97398D02*
X89898D01*
X92500Y100000D02*
Y145500D01*
X99500Y109750D02*
Y148500D01*
X98000Y150000D02*
X99500Y148500D01*
X93000Y150000D02*
X98000D01*
X75500Y162500D02*
X92500Y145500D01*
X75500Y162500D02*
Y237500D01*
X90000Y168500D02*
Y171398D01*
X88236Y173161D02*
X90000Y171398D01*
X64197Y255000D02*
Y263583D01*
X69118Y255000D02*
Y263583D01*
X33000Y253500D02*
X34500Y252000D01*
X33000Y253500D02*
Y270500D01*
X34500Y252000D02*
X83000D01*
X212579Y4209D02*
Y16421D01*
X136500Y90000D02*
X220000Y90000D01*
X134221Y92279D02*
X136500Y90000D01*
X82024Y92279D02*
X134221D01*
X112500Y106000D02*
X118000Y100500D01*
X116000Y97500D02*
X212500Y97500D01*
X110000Y103500D02*
X116000Y97500D01*
X118000Y100500D02*
X207000Y100500D01*
X15000Y272500D02*
X31000D01*
X33000Y270500D01*
X69118Y263583D02*
Y271185D01*
X64197Y263583D02*
Y271303D01*
X286075Y112075D02*
Y118000D01*
Y100000D02*
X299500D01*
X251043D02*
X286075D01*
X60055Y64236D02*
Y81965D01*
X51445Y64236D02*
X60055D01*
X20445D02*
X29055D01*
X289224Y89500D02*
Y95000D01*
X286886Y87161D02*
X289224Y89500D01*
X279661Y87161D02*
X286886D01*
X277500Y85000D02*
X279661Y87161D01*
X277500Y39000D02*
Y85000D01*
Y39000D02*
X280000Y36500D01*
X286500D01*
X295150Y55000D02*
Y61429D01*
X288850Y77571D02*
Y80650D01*
X286988Y82512D02*
X288850Y80650D01*
X282925Y82512D02*
X286988D01*
X288850Y61429D02*
Y77571D01*
X302000Y36500D02*
Y97500D01*
X299500Y100000D02*
X302000Y97500D01*
X295150Y61429D02*
Y77571D01*
X30000Y240555D02*
X39945D01*
X97500Y222500D02*
X131500D01*
X228055Y30000D02*
Y92945D01*
X226000Y95000D02*
X228055Y92945D01*
X114000Y95000D02*
X226000D01*
X105500Y103500D02*
X114000Y95000D01*
X105500Y103500D02*
Y175500D01*
X102720Y178279D02*
X105500Y175500D01*
X82024Y178279D02*
X102720D01*
X0Y0D02*
X1000Y-1000D01*
X220000Y278610D02*
X220390Y279000D01*
X245390Y301500D02*
Y325000D01*
X242890Y327500D02*
X245390Y325000D01*
X110000Y327500D02*
X242890D01*
X107500Y325000D02*
X110000Y327500D01*
X105500Y331000D02*
X276500D01*
X102500Y328000D02*
X105500Y331000D01*
X102500Y317642D02*
Y328000D01*
X107500Y315500D02*
Y325000D01*
X102500Y310500D02*
X107500Y315500D01*
X99858Y315000D02*
X102500Y317642D01*
X45000Y315000D02*
X99858Y315000D01*
X54000Y310500D02*
X102500D01*
X212500Y21500D02*
Y72650D01*
X206000Y15000D02*
X212500Y21500D01*
X160000Y15000D02*
X206000D01*
X234350Y72650D02*
Y98000D01*
X157500Y12500D02*
X160000Y15000D01*
X157500Y-12342D02*
Y12500D01*
X155000Y-14842D02*
X157500Y-12342D01*
X65000Y-14842D02*
X155000D01*
X62657Y-12500D02*
X65000Y-14842D01*
X62657Y-12500D02*
Y-6500D01*
X55000Y25000D02*
X59000Y21000D01*
Y-4000D02*
Y21000D01*
X56500Y-6500D02*
X59000Y-4000D01*
X145000Y5500D02*
Y20000D01*
X142000Y2500D02*
X145000Y5500D01*
X70000Y2500D02*
X142000Y2500D01*
X67500Y0D02*
X70000Y2500D01*
X150000Y-4500D02*
Y17500D01*
X148000Y-6500D02*
X150000Y-4500D01*
X72500Y-6500D02*
X148000D01*
X38764D02*
X56500D01*
X201500Y83500D02*
X202000D01*
X197500D02*
X201500D01*
X195000Y81000D02*
X197500Y83500D01*
X195000Y25167D02*
Y81000D01*
X202539Y80000D02*
X207500D01*
X192333Y22500D02*
X195000Y25167D01*
X200000Y77461D02*
X202539Y80000D01*
X200000Y23000D02*
Y77461D01*
X197000Y20000D02*
X200000Y23000D01*
X152500Y20000D02*
X197000D01*
X150000Y17500D02*
X152500Y20000D01*
X147500Y22500D02*
X192333D01*
X189000Y30000D02*
Y61000D01*
X185000Y65000D02*
X189000Y61000D01*
X145000Y20000D02*
X147500Y22500D01*
X136500Y87161D02*
X214500D01*
X134250Y84911D02*
X136500Y87161D01*
X277000Y216941D02*
X289464D01*
X292500Y175000D02*
Y213905D01*
X289464Y216941D02*
X292500Y213905D01*
X245445Y280945D02*
Y292500D01*
X243500Y279000D02*
X245445Y280945D01*
X220390Y279000D02*
X243500D01*
X220000Y278610D02*
Y279000D01*
X266445Y226941D02*
X277000D01*
X293559D01*
X245000Y186740D02*
X266500D01*
X243500Y42500D02*
X255000D01*
X241000Y45000D02*
X243500Y42500D01*
X241000Y45000D02*
Y79000D01*
X243500Y90500D02*
X279776D01*
X241000Y88000D02*
X243500Y90500D01*
X241000Y79000D02*
Y88000D01*
X292000Y107000D02*
Y118000D01*
X290000Y105000D02*
X292000Y107000D01*
X256000Y105000D02*
X290000D01*
X283957Y109957D02*
X286075Y112075D01*
X237000Y205500D02*
X263559D01*
X224000Y218500D02*
X237000Y205500D01*
X100000Y218500D02*
X224000D01*
X236390Y234890D02*
X264000D01*
X224000Y222500D02*
X236390Y234890D01*
X131500Y222500D02*
X224000Y222500D01*
X221500Y227500D02*
X258000Y264000D01*
X95000Y227500D02*
X221500D01*
X258000Y264000D02*
X305000D01*
X216500Y230000D02*
X232730Y246230D01*
X101858Y230000D02*
X216500D01*
X288500Y296945D02*
X304945D01*
X288461D02*
X288500D01*
X245000Y192000D02*
X269500D01*
X212000Y233000D02*
X234500Y255500D01*
X102000Y233000D02*
X212000D01*
X302063Y145555D02*
Y145610D01*
X264890D02*
X302063D01*
X214500Y196000D02*
X264890Y145610D01*
X256000Y109957D02*
X283957D01*
X82358Y249500D02*
X101858Y230000D01*
X66500Y249500D02*
X82358D01*
X83000Y252000D02*
X102000Y233000D01*
X59945Y216500D02*
Y224945D01*
X267485Y294485D02*
Y320625D01*
X265500Y292500D02*
X267485Y294485D01*
X245445Y292500D02*
X265500D01*
X276500Y331000D02*
X279500Y328000D01*
X272500Y301500D02*
Y321000D01*
X214500Y79000D02*
Y87161D01*
X21000Y247500D02*
Y257390D01*
X3917Y267461D02*
X20961D01*
X308500Y331000D02*
X311961Y327539D01*
X282500Y331000D02*
X308500D01*
X279500Y328000D02*
X282500Y331000D01*
X279500Y296945D02*
Y328000D01*
X311961Y311083D02*
Y327539D01*
X354500Y131000D02*
Y156000D01*
X351709Y158791D02*
X354500Y156000D01*
X325000Y158791D02*
X351709D01*
X351079Y127579D02*
X354500Y131000D01*
X333291Y127579D02*
X351079D01*
X325000Y147500D02*
Y158791D01*
X323055Y145555D02*
X325000Y147500D01*
X311000Y145555D02*
X323055D01*
X302063D02*
X302067Y145551D01*
Y134933D02*
Y145551D01*
X219500Y30000D02*
X228055D01*
X217500Y28000D02*
X219500Y30000D01*
X217500Y4209D02*
Y28000D01*
X245390Y301500D02*
X254658D01*
X245390D02*
X245811Y301921D01*
X55055Y-2445D02*
Y13445D01*
X312500Y72000D02*
Y125000D01*
X310000Y127500D02*
X312500Y125000D01*
X262500Y127500D02*
X310000D01*
X314984Y69516D02*
X321000D01*
X312500Y72000D02*
X314984Y69516D01*
X331000Y54750D02*
Y59516D01*
X328805Y52555D02*
X331000Y54750D01*
X310945Y52555D02*
X328805D01*
X308500Y55000D02*
X310945Y52555D01*
X308500Y55000D02*
Y121500D01*
X128500Y215000D02*
X147500D01*
X97487Y215987D02*
X100000Y218500D01*
X257500Y197500D02*
X267559D01*
X277000Y206941D01*
X266500Y36500D02*
Y62500D01*
X264000Y34000D02*
X266500Y36500D01*
X250000Y34000D02*
X264000D01*
X260000Y130000D02*
Y145000D01*
Y130000D02*
X262500Y127500D01*
X252500Y126000D02*
Y149000D01*
Y126000D02*
X255000Y123500D01*
X306500D01*
X308500Y121500D01*
X242500Y98500D02*
Y159500D01*
Y98500D02*
X246000Y95000D01*
X289224D01*
X247543Y103500D02*
Y153457D01*
Y103500D02*
X251043Y100000D01*
X251000Y168500D02*
X255000Y172500D01*
X290000D01*
X292500Y175000D01*
X263500Y168500D02*
X295000D01*
X259000Y164000D02*
X263500Y168500D01*
X295000D02*
X297500Y171000D01*
Y223000D01*
X293559Y226941D02*
X297500Y223000D01*
X134250Y54250D02*
Y84911D01*
X177772Y67228D02*
Y82500D01*
Y67228D02*
X186000Y59000D01*
Y40000D02*
Y59000D01*
X0Y186740D02*
Y187000D01*
Y137240D02*
Y186740D01*
X32500Y122500D02*
X40000D01*
X42500Y120000D01*
Y110000D02*
Y120000D01*
Y110000D02*
X45000Y107500D01*
X57500D01*
X59976Y105024D01*
Y99957D02*
Y105024D01*
X60000Y185980D02*
Y193000D01*
X59976Y185957D02*
X60000Y185980D01*
X-3500Y164500D02*
Y173000D01*
X82024Y94839D02*
X108423D01*
X266445Y208386D02*
Y216941D01*
X263559Y205500D02*
X266445Y208386D01*
X220000Y90000D02*
X222500Y87500D01*
Y37500D02*
Y87500D01*
X92457Y80118D02*
Y84602D01*
X89898Y87161D02*
X92457Y84602D01*
X82024Y87161D02*
X89898D01*
X-9500Y16000D02*
X-8500D01*
X-8500Y16000D01*
X52500Y16000D02*
X55055Y13445D01*
X-8500Y16000D02*
X52500Y16000D01*
X94339Y180839D02*
X128500Y215000D01*
X75500Y92000D02*
Y146500D01*
Y92000D02*
X77780Y89720D01*
X82024D01*
X5000Y119500D02*
Y245000D01*
X82000Y99980D02*
Y105500D01*
Y99980D02*
X82024Y99957D01*
X5000Y245000D02*
X7500Y247500D01*
X21000D01*
X59945Y112500D02*
Y121500D01*
Y130500D02*
Y142445D01*
X52602Y84602D02*
X59976D01*
X40000Y72000D02*
X52602Y84602D01*
X23000Y72000D02*
X40000D01*
X20445Y69445D02*
X23000Y72000D01*
X20445Y64236D02*
Y69445D01*
X59976Y82043D02*
X60055Y81965D01*
X69500Y130500D02*
X72500Y127500D01*
Y98000D02*
Y127500D01*
X69339Y94839D02*
X72500Y98000D01*
X59945Y130500D02*
X69500D01*
X59976Y94839D02*
X69339D01*
X70000Y100457D02*
Y118839D01*
X67339Y121500D02*
X70000Y118839D01*
X59945Y121500D02*
X67339D01*
X66941Y97398D02*
X70000Y100457D01*
X59976Y97398D02*
X66941D01*
X82024Y173161D02*
X88236D01*
X264000Y234890D02*
X266445Y232445D01*
Y226941D02*
Y232445D01*
X59945Y200000D02*
Y207500D01*
X92500Y225000D02*
X95000Y227500D01*
X92500Y186000D02*
Y225000D01*
X89898Y183398D02*
X92500Y186000D01*
X82024Y183398D02*
X89898D01*
X72500Y184000D02*
Y214000D01*
X59976Y180839D02*
X69339D01*
X72500Y184000D01*
X70000Y216500D02*
X72500Y214000D01*
X59945Y216500D02*
X70000D01*
Y185898D02*
Y205000D01*
X67500Y207500D02*
X70000Y205000D01*
X59945Y207500D02*
X67500D01*
Y183398D02*
X70000Y185898D01*
X59976Y183398D02*
X67500D01*
X102500Y170000D02*
Y174000D01*
X100779Y175721D02*
X102500Y174000D01*
X82024Y175721D02*
X100779D01*
X82024Y180839D02*
X94339D01*
X307000Y266000D02*
Y294890D01*
X305000Y264000D02*
X307000Y266000D01*
X304945Y296945D02*
X307000Y294890D01*
X20445Y153500D02*
X29055D01*
X53602Y170602D02*
X59976D01*
X44500Y161500D02*
X53602Y170602D01*
X31500Y161500D02*
X44500D01*
X29055Y159055D02*
X31500Y161500D01*
X29055Y153500D02*
Y159055D01*
X51445Y153500D02*
X60055D01*
X59976Y168043D02*
X60055Y167965D01*
Y153500D02*
Y167965D01*
X82024Y185957D02*
Y244976D01*
X79500Y247500D02*
X82024Y244976D01*
X30000Y247500D02*
X79500D01*
X304500Y132500D02*
X333291D01*
X302067Y134933D02*
X304500Y132500D01*
X315000Y173945D02*
X324000D01*
X327000Y216941D02*
X347000D01*
X324000Y213941D02*
X327000Y216941D01*
X324000Y173945D02*
Y213941D01*
X266445Y216941D02*
X277000D01*
X307039Y299039D02*
Y311083D01*
X304945Y296945D02*
X307039Y299039D01*
X30000Y247500D02*
Y260000D01*
X27461Y262539D02*
X30000Y260000D01*
X3917Y262539D02*
X27461D01*
D15*
X74039Y255000D02*
Y263583D01*
D17*
X295150Y77571D02*
D03*
Y61429D02*
D03*
X288850D02*
D03*
Y77571D02*
D03*
D18*
X30000Y247445D02*
D03*
Y240555D02*
D03*
X21000Y247500D02*
D03*
Y240610D02*
D03*
X288500Y296945D02*
D03*
Y290055D02*
D03*
X279500Y296945D02*
D03*
Y290055D02*
D03*
X302118Y145555D02*
D03*
Y152445D02*
D03*
X311000Y145555D02*
D03*
Y152445D02*
D03*
X324000Y173945D02*
D03*
Y167055D02*
D03*
X315000D02*
D03*
Y173945D02*
D03*
D19*
X228055Y30000D02*
D03*
X234945D02*
D03*
X228110Y21000D02*
D03*
X235000D02*
D03*
X245445Y292500D02*
D03*
X238555D02*
D03*
X245390Y301500D02*
D03*
X238500D02*
D03*
X266445Y216941D02*
D03*
X259555D02*
D03*
X266445Y226941D02*
D03*
X259555D02*
D03*
X13555Y153500D02*
D03*
X20445D02*
D03*
X29055D02*
D03*
X35945D02*
D03*
X66945D02*
D03*
X60055D02*
D03*
X51445D02*
D03*
X44555D02*
D03*
X59945Y216500D02*
D03*
X53055D02*
D03*
X59945Y207500D02*
D03*
X53055D02*
D03*
X13555Y64236D02*
D03*
X20445D02*
D03*
X29055D02*
D03*
X35945D02*
D03*
X66945D02*
D03*
X60055D02*
D03*
X51445D02*
D03*
X44555D02*
D03*
X59945Y130500D02*
D03*
X53055D02*
D03*
X59945Y121500D02*
D03*
X53055D02*
D03*
D20*
X46457Y180150D02*
D03*
Y173850D02*
D03*
X37457Y94150D02*
D03*
Y87850D02*
D03*
X37457Y173850D02*
D03*
Y180150D02*
D03*
X46457Y87850D02*
D03*
Y94150D02*
D03*
D21*
X113500Y259961D02*
D03*
Y294803D02*
D03*
X-7500Y277500D02*
D03*
Y247579D02*
D03*
X344709Y117539D02*
D03*
Y147461D02*
D03*
D22*
X102083Y279842D02*
D03*
Y274921D02*
D03*
Y270000D02*
D03*
X102083Y284764D02*
D03*
X3917Y257618D02*
D03*
Y262539D02*
D03*
Y267461D02*
D03*
X333291Y137421D02*
D03*
Y132500D02*
D03*
Y127579D02*
D03*
D23*
X292079Y322500D02*
D03*
X322000D02*
D03*
X232461Y-7209D02*
D03*
X202539D02*
D03*
X89000Y275000D02*
D03*
X44315D02*
D03*
D24*
X311961Y311083D02*
D03*
X307039D02*
D03*
X302118D02*
D03*
X212579Y4209D02*
D03*
X217500D02*
D03*
X222421D02*
D03*
X64197Y263583D02*
D03*
X69118Y263583D02*
D03*
X74039D02*
D03*
X78961D02*
D03*
X59276Y263484D02*
D03*
X54354D02*
D03*
D25*
X59976Y185957D02*
D03*
Y183398D02*
D03*
Y180839D02*
D03*
Y178279D02*
D03*
Y175721D02*
D03*
Y173161D02*
D03*
Y170602D02*
D03*
Y168043D02*
D03*
X82024Y185957D02*
D03*
Y183398D02*
D03*
Y180839D02*
D03*
Y178279D02*
D03*
Y175721D02*
D03*
Y173161D02*
D03*
Y170602D02*
D03*
Y168043D02*
D03*
X59976Y99957D02*
D03*
Y97398D02*
D03*
Y94839D02*
D03*
Y92279D02*
D03*
Y89720D02*
D03*
Y87161D02*
D03*
Y84602D02*
D03*
Y82043D02*
D03*
X82024Y99957D02*
D03*
Y97398D02*
D03*
Y94839D02*
D03*
Y92279D02*
D03*
Y89720D02*
D03*
Y87161D02*
D03*
Y84602D02*
D03*
Y82043D02*
D03*
D36*
X173750Y320483D02*
D03*
X163750D02*
D03*
X185500Y320489D02*
D03*
X195500D02*
D03*
X152000Y320483D02*
D03*
X142000D02*
D03*
D49*
X4217Y257318D02*
X11800D01*
X3917Y257618D02*
X4217Y257318D01*
X302067Y152500D02*
X302122Y152445D01*
X238500Y284000D02*
Y301500D01*
X21000Y240610D02*
X30000D01*
X66945Y64236D02*
X75161D01*
X44555Y52555D02*
Y64236D01*
X35945D02*
X44555D01*
X290417Y311083D02*
X302118D01*
X333291Y137421D02*
Y155000D01*
X222421Y4209D02*
Y13000D01*
X13087Y80500D02*
Y97000D01*
Y80500D02*
X16043Y77543D01*
X20890Y240500D02*
X21000Y240610D01*
X78961Y263583D02*
X84917D01*
X40000Y130500D02*
X53055D01*
Y121500D02*
Y130500D01*
X16043Y77543D02*
X37457D01*
X13555Y75055D02*
X16043Y77543D01*
X13555Y64236D02*
Y75055D01*
X37457Y94150D02*
Y109957D01*
Y94150D02*
X37457Y94150D01*
X46457D01*
X37457Y77543D02*
Y87850D01*
X37457Y87850D01*
X46457D01*
X54441Y89720D02*
X59976D01*
X52571Y87850D02*
X54441Y89720D01*
X46457Y87850D02*
X52571D01*
X46457Y94150D02*
X52350D01*
X54220Y92279D01*
X59976D01*
X53055Y207500D02*
Y216500D01*
X40000D02*
X53055D01*
X44555Y145000D02*
Y153500D01*
X16000Y165000D02*
X37457D01*
X13555Y162555D02*
X16000Y165000D01*
X13555Y153500D02*
Y162555D01*
X35945Y153500D02*
X44555D01*
X66945D02*
X75000D01*
X37457Y165000D02*
Y173850D01*
Y180150D02*
Y192500D01*
Y173850D02*
X37457Y173850D01*
X46457D01*
X37457Y180150D02*
X37457Y180150D01*
X46457D01*
X55221Y178279D02*
X59976D01*
X53350Y180150D02*
X55221Y178279D01*
X46457Y180150D02*
X53350D01*
X46457Y173850D02*
X53350D01*
X55221Y175721D01*
X59976D01*
X234945Y30000D02*
Y40000D01*
Y30000D02*
X235000Y29945D01*
Y21000D02*
Y29945D01*
X302067Y152500D02*
Y164122D01*
X305000Y167055D01*
X302122Y152445D02*
X311000D01*
X305000Y167055D02*
X315000D01*
X324000D02*
X335000D01*
X247500Y216941D02*
X259555D01*
Y226941D01*
X311961Y311083D02*
X312000Y311043D01*
X270000Y290055D02*
X279500D01*
X288461D01*
D50*
X102083Y270000D02*
X112500D01*
X54354Y263484D02*
X59276D01*
X47500D02*
X54354D01*
X85000Y284764D02*
X102083D01*
X102083Y279842D02*
X113134D01*
X127500Y294209D01*
X102083Y274921D02*
X112421D01*
X127500Y294209D02*
Y305000D01*
X5000Y89000D02*
X5000Y72264D01*
X5000Y49000D01*
X8929Y45071D02*
X65000D01*
X5000Y49000D02*
X8929Y45071D01*
X72500D02*
X74929D01*
X69929D02*
X72500D01*
X67500D02*
X69929D01*
X65000D02*
X67500D01*
D51*
X120323Y157500D02*
D03*
X192965Y199437D02*
D03*
Y115563D02*
D03*
D52*
X13087Y97000D02*
D03*
X234500Y263484D02*
D03*
X234650Y272500D02*
D03*
X205500Y34000D02*
D03*
X302000Y36500D02*
D03*
X286500D02*
D03*
X241000Y79000D02*
D03*
X214500D02*
D03*
X13087Y112850D02*
D03*
D53*
X194661Y5531D02*
D03*
X177339D02*
D03*
D54*
X337500Y300000D02*
D03*
Y10000D02*
D03*
X0Y0D02*
D03*
Y315000D02*
D03*
X72933Y296693D02*
D03*
X302067Y18307D02*
D03*
X264567D02*
D03*
X35433Y296693D02*
D03*
D55*
X72500Y-6500D02*
D03*
X67579D02*
D03*
X62657D02*
D03*
X262657Y321000D02*
D03*
X267579D02*
D03*
X272500D02*
D03*
X38764Y-6500D02*
D03*
X33843D02*
D03*
X28921D02*
D03*
D56*
X321000Y79516D02*
D03*
X331000D02*
D03*
X321000Y69516D02*
D03*
X331000D02*
D03*
X321000Y59516D02*
D03*
D57*
X331000D02*
D03*
D58*
X282000Y274500D02*
D03*
X342000D02*
D03*
X282000Y189500D02*
D03*
X342000D02*
D03*
D59*
X277000Y256941D02*
D03*
Y246941D02*
D03*
Y236941D02*
D03*
Y226941D02*
D03*
Y216941D02*
D03*
Y206941D02*
D03*
X347000Y216941D02*
D03*
Y226941D02*
D03*
Y236941D02*
D03*
Y246941D02*
D03*
D60*
X168750Y157500D02*
D03*
D61*
X204183Y281713D02*
D03*
Y250217D02*
D03*
X133317D02*
D03*
Y281713D02*
D03*
D62*
X39646Y27244D02*
D03*
D63*
X130984D02*
D03*
D64*
X27000Y225700D02*
D03*
X74000Y274000D02*
D03*
X93625Y291625D02*
D03*
Y297625D02*
D03*
X99500Y109750D02*
D03*
X87500Y130724D02*
D03*
X95000Y109750D02*
D03*
X110000Y103500D02*
D03*
X112500Y106000D02*
D03*
X93000Y150000D02*
D03*
X95000Y147500D02*
D03*
X90000Y168500D02*
D03*
X64197Y255000D02*
D03*
X69118D02*
D03*
X207000Y100500D02*
D03*
X15000Y272500D02*
D03*
X66500Y236500D02*
D03*
Y249500D02*
D03*
X69118Y271303D02*
D03*
X64197Y271303D02*
D03*
X286075Y118000D02*
D03*
Y100000D02*
D03*
X292000Y118000D02*
D03*
X15500Y252500D02*
D03*
X11800Y257318D02*
D03*
X0Y221200D02*
D03*
X755Y200500D02*
D03*
X-2945Y267461D02*
D03*
X75161Y64236D02*
D03*
X295150Y55000D02*
D03*
X282925Y82512D02*
D03*
X74039Y255000D02*
D03*
X39945Y240555D02*
D03*
X85000Y284764D02*
D03*
X112421Y274921D02*
D03*
X112500Y270000D02*
D03*
X127500Y305000D02*
D03*
X212500Y72650D02*
D03*
X234350D02*
D03*
Y98000D02*
D03*
X220500Y110500D02*
D03*
X212500Y97500D02*
D03*
X201500Y83500D02*
D03*
X207500Y80000D02*
D03*
X223500Y105000D02*
D03*
X322445Y234945D02*
D03*
X305555Y187500D02*
D03*
X317445Y199055D02*
D03*
X305480Y213000D02*
D03*
X331067Y249500D02*
D03*
X290000D02*
D03*
X220000Y279000D02*
D03*
X238500Y284000D02*
D03*
X245000Y186740D02*
D03*
X266500D02*
D03*
X245000Y192000D02*
D03*
X269500D02*
D03*
X234500Y255500D02*
D03*
X232730Y246230D02*
D03*
X214500Y196000D02*
D03*
X256000Y105000D02*
D03*
Y109957D02*
D03*
X59945Y224945D02*
D03*
X44555Y52555D02*
D03*
X272500Y301500D02*
D03*
X21000Y257390D02*
D03*
X20961Y267461D02*
D03*
X290417Y311083D02*
D03*
X333291Y155000D02*
D03*
X325000Y158791D02*
D03*
X222421Y13000D02*
D03*
X228000Y21000D02*
D03*
X212500Y16063D02*
D03*
X254658Y301500D02*
D03*
X55055Y-2445D02*
D03*
X55000Y25000D02*
D03*
X205500Y42500D02*
D03*
X131339Y222500D02*
D03*
X147500Y215000D02*
D03*
X34500Y52555D02*
D03*
X3000Y44000D02*
D03*
X5213Y67000D02*
D03*
Y69516D02*
D03*
X257500Y197500D02*
D03*
X279776Y90500D02*
D03*
X84917Y263583D02*
D03*
X47500Y263484D02*
D03*
X19260Y-1000D02*
D03*
X45000Y11150D02*
D03*
X128000Y81500D02*
D03*
X575Y44000D02*
D03*
X5213Y72264D02*
D03*
X-500Y35240D02*
D03*
X-3000D02*
D03*
X-5500D02*
D03*
X93550Y27200D02*
D03*
X65000Y45071D02*
D03*
X67500D02*
D03*
X69929D02*
D03*
X72500D02*
D03*
X74929D02*
D03*
X5000Y89000D02*
D03*
X75161Y54000D02*
D03*
X250000Y34000D02*
D03*
X266500Y62500D02*
D03*
X255000Y42500D02*
D03*
X260000Y145000D02*
D03*
X252500Y149000D02*
D03*
X305555Y93000D02*
D03*
X347500Y46484D02*
D03*
X242500Y159500D02*
D03*
X289224Y95000D02*
D03*
X247543Y153457D02*
D03*
X251000Y168500D02*
D03*
X259000Y164000D02*
D03*
X234350Y104000D02*
D03*
X234650Y171500D02*
D03*
X328150Y112850D02*
D03*
X214500Y87161D02*
D03*
X134250Y54250D02*
D03*
X138500Y56721D02*
D03*
X177772Y82500D02*
D03*
X186000Y40000D02*
D03*
X189000Y30000D02*
D03*
X185000Y65000D02*
D03*
X243500D02*
D03*
X169720Y30000D02*
D03*
X0Y186740D02*
D03*
Y137240D02*
D03*
X9000Y133500D02*
D03*
X32500Y122500D02*
D03*
X60000Y193000D02*
D03*
X10000Y183000D02*
D03*
X75500Y237500D02*
D03*
X-3500Y173000D02*
D03*
Y164500D02*
D03*
X75500Y146500D02*
D03*
X108423Y94839D02*
D03*
X92457Y80118D02*
D03*
X222500Y37500D02*
D03*
X-9500Y16000D02*
D03*
X54000Y310500D02*
D03*
X97487Y215987D02*
D03*
X45000Y315000D02*
D03*
X5000Y119500D02*
D03*
X82000Y105500D02*
D03*
X59945Y112500D02*
D03*
Y142445D02*
D03*
X40000Y130500D02*
D03*
X37457Y109957D02*
D03*
Y77543D02*
D03*
X40000Y216500D02*
D03*
X97500Y222500D02*
D03*
X59945Y200000D02*
D03*
X102500Y170000D02*
D03*
X44555Y145000D02*
D03*
X75000Y153500D02*
D03*
X37457Y165000D02*
D03*
Y192500D02*
D03*
X75000Y7000D02*
D03*
X234945Y40000D02*
D03*
X320079Y127579D02*
D03*
X305000Y167055D02*
D03*
X335000D02*
D03*
X247500Y216941D02*
D03*
X270000Y290055D02*
D03*
M02*
