G04*
G04 #@! TF.GenerationSoftware,Altium Limited,Altium Designer,19.0.15 (446)*
G04*
G04 Layer_Physical_Order=2*
G04 Layer_Color=32768*
%FSLAX25Y25*%
%MOIN*%
G70*
G01*
G75*
%ADD65C,0.04000*%
%ADD66C,0.17386*%
%ADD67C,0.08000*%
%ADD68C,0.07543*%
G04:AMPARAMS|DCode=69|XSize=100mil|YSize=100mil|CornerRadius=0mil|HoleSize=0mil|Usage=FLASHONLY|Rotation=0.000|XOffset=0mil|YOffset=0mil|HoleType=Round|Shape=Relief|Width=10mil|Gap=10mil|Entries=4|*
%AMTHD69*
7,0,0,0.10000,0.08000,0.01000,45*
%
%ADD69THD69*%
G04:AMPARAMS|DCode=70|XSize=178.11mil|YSize=178.11mil|CornerRadius=0mil|HoleSize=0mil|Usage=FLASHONLY|Rotation=0.000|XOffset=0mil|YOffset=0mil|HoleType=Round|Shape=Relief|Width=10mil|Gap=10mil|Entries=4|*
%AMTHD70*
7,0,0,0.17811,0.15811,0.01000,45*
%
%ADD70THD70*%
%ADD71C,0.05969*%
G04:AMPARAMS|DCode=72|XSize=95.433mil|YSize=95.433mil|CornerRadius=0mil|HoleSize=0mil|Usage=FLASHONLY|Rotation=0.000|XOffset=0mil|YOffset=0mil|HoleType=Round|Shape=Relief|Width=10mil|Gap=10mil|Entries=4|*
%AMTHD72*
7,0,0,0.09543,0.07543,0.01000,45*
%
%ADD72THD72*%
%ADD73C,0.14000*%
%ADD74C,0.65024*%
%ADD75C,0.13449*%
G04:AMPARAMS|DCode=76|XSize=154.488mil|YSize=154.488mil|CornerRadius=0mil|HoleSize=0mil|Usage=FLASHONLY|Rotation=0.000|XOffset=0mil|YOffset=0mil|HoleType=Round|Shape=Relief|Width=10mil|Gap=10mil|Entries=4|*
%AMTHD76*
7,0,0,0.15449,0.13449,0.01000,45*
%
%ADD76THD76*%
%ADD77C,0.05181*%
G04:AMPARAMS|DCode=78|XSize=71.811mil|YSize=71.811mil|CornerRadius=0mil|HoleSize=0mil|Usage=FLASHONLY|Rotation=0.000|XOffset=0mil|YOffset=0mil|HoleType=Round|Shape=Relief|Width=10mil|Gap=10mil|Entries=4|*
%AMTHD78*
7,0,0,0.07181,0.05181,0.01000,45*
%
%ADD78THD78*%
G36*
X197293Y236575D02*
X140207D01*
Y295630D01*
X197293D01*
Y236575D01*
D02*
G37*
D65*
Y295630D01*
X140207Y236575D02*
X197293D01*
X140207D02*
Y295630D01*
X197293D01*
X329480Y333991D02*
X330783Y333990D01*
X96659Y333991D02*
X329480D01*
X96659Y322500D02*
Y333991D01*
X96630Y322207D02*
X96659Y322500D01*
X96406Y321666D02*
X96630Y322207D01*
X95992Y321252D02*
X96406Y321666D01*
X95450Y321027D02*
X95992Y321252D01*
X95157Y320999D02*
X95450Y321027D01*
X-18498Y320999D02*
X95157D01*
X-18498Y7559D02*
Y320999D01*
Y7559D02*
X-18498Y6279D01*
X-18247Y3732D01*
X-17747Y1221D01*
X-17004Y-1228D01*
X-16024Y-3593D01*
X-14817Y-5851D01*
X-13394Y-7979D01*
X-11770Y-9957D01*
X-9960Y-11767D01*
X-7981Y-13391D01*
X-5852Y-14813D01*
X-3594Y-16019D01*
X-1229Y-16998D01*
X1221Y-17741D01*
X3731Y-18240D01*
X6279Y-18491D01*
X7559Y-18491D01*
X240841D01*
Y-7000D01*
X240870Y-6707D01*
X241094Y-6166D01*
X241508Y-5752D01*
X242050Y-5527D01*
X242342Y-5499D01*
X355998D01*
X355998Y307457D01*
Y308760D01*
X355743Y311353D02*
X355998Y308760D01*
X355235Y313910D02*
X355743Y311353D01*
X354479Y316404D02*
X355235Y313910D01*
X353482Y318811D02*
X354479Y316404D01*
X352254Y321110D02*
X353482Y318811D01*
X350806Y323277D02*
X352254Y321110D01*
X349153Y325292D02*
X350806Y323277D01*
X347311Y327135D02*
X349153Y325292D01*
X345297Y328789D02*
X347311Y327135D01*
X343131Y330238D02*
X345297Y328789D01*
X340833Y331467D02*
X343131Y330238D01*
X338426Y332466D02*
X340833Y331467D01*
X335932Y333223D02*
X338426Y332466D01*
X333376Y333733D02*
X335932Y333223D01*
X330783Y333990D02*
X333376Y333733D01*
D66*
X120323Y157500D02*
D03*
X192965Y199437D02*
D03*
Y115563D02*
D03*
D67*
X13087Y97000D02*
D03*
X173750Y320483D02*
D03*
X185500Y320489D02*
D03*
X152000Y320483D02*
D03*
X234500Y263484D02*
D03*
X234650Y272500D02*
D03*
X277000Y256941D02*
D03*
Y246941D02*
D03*
Y226941D02*
D03*
Y216941D02*
D03*
Y206941D02*
D03*
X347000Y216941D02*
D03*
Y226941D02*
D03*
Y236941D02*
D03*
Y246941D02*
D03*
X205500Y34000D02*
D03*
X302000Y36500D02*
D03*
X286500D02*
D03*
X241000Y79000D02*
D03*
X214500D02*
D03*
D68*
X194661Y5531D02*
D03*
X177339D02*
D03*
X331000Y79516D02*
D03*
X321000Y69516D02*
D03*
X331000D02*
D03*
X321000Y59516D02*
D03*
X331000D02*
D03*
D69*
X163750Y320483D02*
D03*
X195500Y320489D02*
D03*
X142000Y320483D02*
D03*
X277000Y236941D02*
D03*
X13087Y112850D02*
D03*
D70*
X337500Y300000D02*
D03*
Y10000D02*
D03*
X0Y0D02*
D03*
Y315000D02*
D03*
D71*
X72500Y-6500D02*
D03*
X67579D02*
D03*
X62657D02*
D03*
X262657Y321000D02*
D03*
X267579D02*
D03*
X272500D02*
D03*
X38764Y-6500D02*
D03*
X33843D02*
D03*
X28921D02*
D03*
D72*
X321000Y79516D02*
D03*
D73*
X282000Y274500D02*
D03*
X342000D02*
D03*
X282000Y189500D02*
D03*
X342000D02*
D03*
D74*
X168750Y157500D02*
D03*
D75*
X204183Y281713D02*
D03*
Y250217D02*
D03*
X133317D02*
D03*
Y281713D02*
D03*
X39646Y27244D02*
D03*
X130984D02*
D03*
D76*
X72933Y296693D02*
D03*
X302067Y18307D02*
D03*
X264567D02*
D03*
X35433Y296693D02*
D03*
D77*
X27000Y225700D02*
D03*
X74000Y274000D02*
D03*
X93625Y291625D02*
D03*
Y297625D02*
D03*
X99500Y109750D02*
D03*
X87500Y130724D02*
D03*
X95000Y109750D02*
D03*
X110000Y103500D02*
D03*
X112500Y106000D02*
D03*
X93000Y150000D02*
D03*
X95000Y147500D02*
D03*
X90000Y168500D02*
D03*
X64197Y255000D02*
D03*
X69118D02*
D03*
X207000Y100500D02*
D03*
X15000Y272500D02*
D03*
X66500Y236500D02*
D03*
Y249500D02*
D03*
X69118Y271303D02*
D03*
X64197Y271303D02*
D03*
X286075Y118000D02*
D03*
Y100000D02*
D03*
X292000Y118000D02*
D03*
X11800Y257318D02*
D03*
X755Y200500D02*
D03*
X-2945Y267461D02*
D03*
X75161Y64236D02*
D03*
X282925Y82512D02*
D03*
X74039Y255000D02*
D03*
X112421Y274921D02*
D03*
X112500Y270000D02*
D03*
X127500Y305000D02*
D03*
X212500Y72650D02*
D03*
X234350D02*
D03*
Y98000D02*
D03*
X220500Y110500D02*
D03*
X212500Y97500D02*
D03*
X201500Y83500D02*
D03*
X207500Y80000D02*
D03*
X223500Y105000D02*
D03*
X305555Y187500D02*
D03*
X305480Y213000D02*
D03*
X331067Y249500D02*
D03*
X290000D02*
D03*
X220000Y279000D02*
D03*
X245000Y186740D02*
D03*
X266500D02*
D03*
X245000Y192000D02*
D03*
X269500D02*
D03*
X234500Y255500D02*
D03*
X232730Y246230D02*
D03*
X214500Y196000D02*
D03*
X256000Y105000D02*
D03*
Y109957D02*
D03*
X59945Y224945D02*
D03*
X272500Y301500D02*
D03*
X21000Y257390D02*
D03*
X20961Y267461D02*
D03*
X290417Y311083D02*
D03*
X333291Y155000D02*
D03*
X325000Y158791D02*
D03*
X222421Y13000D02*
D03*
X228000Y21000D02*
D03*
X212500Y16063D02*
D03*
X254658Y301500D02*
D03*
X55055Y-2445D02*
D03*
X55000Y25000D02*
D03*
X205500Y42500D02*
D03*
X131339Y222500D02*
D03*
X147500Y215000D02*
D03*
X5213Y67000D02*
D03*
Y69516D02*
D03*
X257500Y197500D02*
D03*
X279776Y90500D02*
D03*
X84917Y263583D02*
D03*
X45000Y11150D02*
D03*
X5213Y72264D02*
D03*
X-500Y35240D02*
D03*
X-3000D02*
D03*
X-5500D02*
D03*
X65000Y45071D02*
D03*
X67500D02*
D03*
X69929D02*
D03*
X72500D02*
D03*
X74929D02*
D03*
X5000Y89000D02*
D03*
X250000Y34000D02*
D03*
X266500Y62500D02*
D03*
X255000Y42500D02*
D03*
X260000Y145000D02*
D03*
X252500Y149000D02*
D03*
X305555Y93000D02*
D03*
X242500Y159500D02*
D03*
X289224Y95000D02*
D03*
X247543Y153457D02*
D03*
X251000Y168500D02*
D03*
X259000Y164000D02*
D03*
X214500Y87161D02*
D03*
X134250Y54250D02*
D03*
X177772Y82500D02*
D03*
X186000Y40000D02*
D03*
X189000Y30000D02*
D03*
X185000Y65000D02*
D03*
X0Y186740D02*
D03*
Y137240D02*
D03*
X32500Y122500D02*
D03*
X60000Y193000D02*
D03*
X75500Y237500D02*
D03*
X-3500Y173000D02*
D03*
Y164500D02*
D03*
X75500Y146500D02*
D03*
X108423Y94839D02*
D03*
X92457Y80118D02*
D03*
X222500Y37500D02*
D03*
X-9500Y16000D02*
D03*
X54000Y310500D02*
D03*
X97487Y215987D02*
D03*
X45000Y315000D02*
D03*
X5000Y119500D02*
D03*
X82000Y105500D02*
D03*
X59945Y112500D02*
D03*
Y142445D02*
D03*
X40000Y130500D02*
D03*
X37457Y77543D02*
D03*
X40000Y216500D02*
D03*
X97500Y222500D02*
D03*
X59945Y200000D02*
D03*
X102500Y170000D02*
D03*
X75000Y153500D02*
D03*
X37457Y165000D02*
D03*
X320079Y127579D02*
D03*
X335000Y167055D02*
D03*
X247500Y216941D02*
D03*
D78*
X15500Y252500D02*
D03*
X0Y221200D02*
D03*
X295150Y55000D02*
D03*
X39945Y240555D02*
D03*
X85000Y284764D02*
D03*
X322445Y234945D02*
D03*
X317445Y199055D02*
D03*
X238500Y284000D02*
D03*
X44555Y52555D02*
D03*
X34500D02*
D03*
X3000Y44000D02*
D03*
X47500Y263484D02*
D03*
X19260Y-1000D02*
D03*
X128000Y81500D02*
D03*
X575Y44000D02*
D03*
X93550Y27200D02*
D03*
X75161Y54000D02*
D03*
X347500Y46484D02*
D03*
X234350Y104000D02*
D03*
X234650Y171500D02*
D03*
X328150Y112850D02*
D03*
X138500Y56721D02*
D03*
X243500Y65000D02*
D03*
X169720Y30000D02*
D03*
X9000Y133500D02*
D03*
X10000Y183000D02*
D03*
X37457Y109957D02*
D03*
X44555Y145000D02*
D03*
X37457Y192500D02*
D03*
X75000Y7000D02*
D03*
X234945Y40000D02*
D03*
X305000Y167055D02*
D03*
X270000Y290055D02*
D03*
M02*
