G04*
G04 #@! TF.GenerationSoftware,Altium Limited,Altium Designer,19.0.15 (446)*
G04*
G04 Layer_Color=8388736*
%FSLAX25Y25*%
%MOIN*%
G70*
G01*
G75*
%ADD26R,0.04737X0.04343*%
%ADD27R,0.06115X0.05328*%
%ADD28R,0.05328X0.06115*%
%ADD29R,0.06312X0.05918*%
%ADD30R,0.12611X0.09068*%
%ADD31R,0.07099X0.03950*%
%ADD32R,0.09068X0.12611*%
%ADD33R,0.03950X0.07099*%
%ADD34O,0.07099X0.02178*%
%ADD35C,0.26391*%
%ADD36C,0.06000*%
%ADD37C,0.04343*%
%ADD38C,0.06800*%
%ADD39C,0.24422*%
%ADD40O,0.03753X0.06706*%
%ADD41C,0.06706*%
%ADD42R,0.06706X0.06706*%
%ADD43C,0.16784*%
%ADD44C,0.07532*%
%ADD45C,0.61824*%
%ADD46C,0.18517*%
%ADD47C,0.20485*%
%ADD48C,0.19304*%
D26*
X295150Y77571D02*
D03*
Y61429D02*
D03*
X288850D02*
D03*
Y77571D02*
D03*
D27*
X30000Y247445D02*
D03*
Y240555D02*
D03*
X21000Y247500D02*
D03*
Y240610D02*
D03*
X288500Y296945D02*
D03*
Y290055D02*
D03*
X279500Y296945D02*
D03*
Y290055D02*
D03*
X302118Y145555D02*
D03*
Y152445D02*
D03*
X311000Y145555D02*
D03*
Y152445D02*
D03*
X324000Y173945D02*
D03*
Y167055D02*
D03*
X315000D02*
D03*
Y173945D02*
D03*
D28*
X228055Y30000D02*
D03*
X234945D02*
D03*
X228110Y21000D02*
D03*
X235000D02*
D03*
X245445Y292500D02*
D03*
X238555D02*
D03*
X245390Y301500D02*
D03*
X238500D02*
D03*
X266445Y216941D02*
D03*
X259555D02*
D03*
X266445Y226941D02*
D03*
X259555D02*
D03*
X13555Y153500D02*
D03*
X20445D02*
D03*
X29055D02*
D03*
X35945D02*
D03*
X66945D02*
D03*
X60055D02*
D03*
X51445D02*
D03*
X44555D02*
D03*
X59945Y216500D02*
D03*
X53055D02*
D03*
X59945Y207500D02*
D03*
X53055D02*
D03*
X13555Y64236D02*
D03*
X20445D02*
D03*
X29055D02*
D03*
X35945D02*
D03*
X66945D02*
D03*
X60055D02*
D03*
X51445D02*
D03*
X44555D02*
D03*
X59945Y130500D02*
D03*
X53055D02*
D03*
X59945Y121500D02*
D03*
X53055D02*
D03*
D29*
X46457Y180150D02*
D03*
Y173850D02*
D03*
X37457Y94150D02*
D03*
Y87850D02*
D03*
X37457Y173850D02*
D03*
Y180150D02*
D03*
X46457Y87850D02*
D03*
Y94150D02*
D03*
D30*
X113500Y259961D02*
D03*
Y294803D02*
D03*
X-7500Y277500D02*
D03*
Y247579D02*
D03*
X344709Y117539D02*
D03*
Y147461D02*
D03*
D31*
X102083Y279842D02*
D03*
Y274921D02*
D03*
Y270000D02*
D03*
X102083Y284764D02*
D03*
X3917Y257618D02*
D03*
Y262539D02*
D03*
Y267461D02*
D03*
X333291Y137421D02*
D03*
Y132500D02*
D03*
Y127579D02*
D03*
D32*
X292079Y322500D02*
D03*
X322000D02*
D03*
X232461Y-7209D02*
D03*
X202539D02*
D03*
X89000Y275000D02*
D03*
X44315D02*
D03*
D33*
X311961Y311083D02*
D03*
X307039D02*
D03*
X302118D02*
D03*
X212579Y4209D02*
D03*
X217500D02*
D03*
X222421D02*
D03*
X64197Y263583D02*
D03*
X69118Y263583D02*
D03*
X74039D02*
D03*
X78961D02*
D03*
X59276Y263484D02*
D03*
X54354D02*
D03*
D34*
X59976Y185957D02*
D03*
Y183398D02*
D03*
Y180839D02*
D03*
Y178279D02*
D03*
Y175721D02*
D03*
Y173161D02*
D03*
Y170602D02*
D03*
Y168043D02*
D03*
X82024Y185957D02*
D03*
Y183398D02*
D03*
Y180839D02*
D03*
Y178279D02*
D03*
Y175721D02*
D03*
Y173161D02*
D03*
Y170602D02*
D03*
Y168043D02*
D03*
X59976Y99957D02*
D03*
Y97398D02*
D03*
Y94839D02*
D03*
Y92279D02*
D03*
Y89720D02*
D03*
Y87161D02*
D03*
Y84602D02*
D03*
Y82043D02*
D03*
X82024Y99957D02*
D03*
Y97398D02*
D03*
Y94839D02*
D03*
Y92279D02*
D03*
Y89720D02*
D03*
Y87161D02*
D03*
Y84602D02*
D03*
Y82043D02*
D03*
D35*
X120323Y157500D02*
D03*
X192965Y199437D02*
D03*
Y115563D02*
D03*
D36*
X13087Y97000D02*
D03*
X234500Y263484D02*
D03*
X234650Y272500D02*
D03*
X205500Y34000D02*
D03*
X302000Y36500D02*
D03*
X286500D02*
D03*
X241000Y79000D02*
D03*
X214500D02*
D03*
X13087Y112850D02*
D03*
D37*
X194661Y5531D02*
D03*
X177339D02*
D03*
D38*
X173750Y320483D02*
D03*
X163750D02*
D03*
X185500Y320489D02*
D03*
X195500D02*
D03*
X152000Y320483D02*
D03*
X142000D02*
D03*
D39*
X337500Y300000D02*
D03*
Y10000D02*
D03*
X0Y0D02*
D03*
Y315000D02*
D03*
X72933Y296693D02*
D03*
X302067Y18307D02*
D03*
X264567D02*
D03*
X35433Y296693D02*
D03*
D40*
X72500Y-6500D02*
D03*
X67579D02*
D03*
X62657D02*
D03*
X262657Y321000D02*
D03*
X267579D02*
D03*
X272500D02*
D03*
X38764Y-6500D02*
D03*
X33843D02*
D03*
X28921D02*
D03*
D41*
X321000Y79516D02*
D03*
X331000D02*
D03*
X321000Y69516D02*
D03*
X331000D02*
D03*
X321000Y59516D02*
D03*
D42*
X331000D02*
D03*
D43*
X282000Y274500D02*
D03*
X342000D02*
D03*
X282000Y189500D02*
D03*
X342000D02*
D03*
D44*
X277000Y256941D02*
D03*
Y246941D02*
D03*
Y236941D02*
D03*
Y226941D02*
D03*
Y216941D02*
D03*
Y206941D02*
D03*
X347000Y216941D02*
D03*
Y226941D02*
D03*
Y236941D02*
D03*
Y246941D02*
D03*
D45*
X168750Y157500D02*
D03*
D46*
X204183Y281713D02*
D03*
Y250217D02*
D03*
X133317D02*
D03*
Y281713D02*
D03*
D47*
X39646Y27244D02*
D03*
D48*
X130984D02*
D03*
M02*
