M48
;Layer_Color=9474304
;FILE_FORMAT=2:5
INCH,LZ
;TYPE=PLATED
T1F00S00C0.01181
T2F00S00C0.01968
T3F00S00C0.03543
T4F00S00C0.04000
T5F00S00C0.09449
T6F00S00C0.10000
T7F00S00C0.11811
;TYPE=NON_PLATED
T8F00S00C0.03543
T9F00S00C0.09449
T10F00S00C0.13386
T11F00S00C0.61024
%
T01
X001926Y-0001
X0055055Y-0002445
X03475Y0046484
X032815Y011285
X0320079Y0127579
X0333291Y0155
X0305555Y0093
X0289224Y0095
X0286075Y01
X0279776Y00905
X0282925Y0082512
X02665Y00625
X02435Y0065
X023435Y007265
X02125
X02075Y008
X02015Y00835
X02145Y0087161
X02125Y00975
X0207Y01005
X02235Y0105
X02205Y01105
X023435Y0104
Y0098
X0256Y0105
Y0109957
X0286075Y0118
X0292
X026Y0145
X02525Y0149
X0247543Y0153457
X0255Y00425
X025Y0034
X0234945Y004
X02225Y00375
X02055Y00425
X0186Y004
X0189Y003
X016972
X0185Y0065
X0177772Y00825
X02125Y0016063
X0222421Y0013
X0228Y0021
X029515Y0055
X01385Y0056721
X013425Y005425
X0128Y00815
X0108423Y0094839
X011Y01035
X01125Y0106
X00995Y010975
X0095
X0082Y01055
X0059945Y01125
X0037457Y0109957
X00325Y01225
X004Y01305
X0044555Y0145
X0059945Y0142445
X00755Y01465
X0075Y01535
X0093Y015
X0095Y01475
X00875Y0130724
X0092457Y0080118
X0075161Y0064236
Y0054
X0074929Y0045071
X00725
X0069929
X00675
X0065
X0044555Y0052555
X00345
X0037457Y0077543
X0005213Y0072264
Y0069516
Y0067
X0005Y0089
X0005Y01195
X0009Y01335
X0Y013724
X0000575Y0044
X0003
X-00005Y003524
X-0003
X-00055
X-00095Y0016
X0045Y001115
X0055Y0025
X0075Y0007
X009355Y00272
X009Y01685
X01025Y017
X0097487Y0215987
X00975Y02225
X0131339Y02225
X01125Y027
X0112421Y0274921
X0093625Y0291625
Y0297625
X0085Y0284764
X0084917Y0263583
X0074039Y0255
X0069118
X0064197
X00665Y02495
Y02365
X00755Y02375
X0059945Y0224945
Y02
X006Y0193
X0037457Y01925
X004Y02165
X0027Y02257
X0039945Y0240555
X00475Y0263484
X0064197Y0271303
X0069118Y0271303
X0074Y0274
X0054Y03105
X0020961Y0267461
X0021Y025739
X00118Y0257318
X00155Y02525
X0015Y02725
X-0002945Y0267461
X0Y02212
X0000755Y02005
X0Y018674
X001Y0183
X-00035Y0173
Y01645
X0037457Y0165
X01275Y0305
X01475Y0215
X02145Y0196
X0245Y0192
Y018674
X02665
X02695Y0192
X02575Y01975
X02475Y0216941
X023273Y024623
X02345Y02555
X02385Y0284
X022Y0279
X0254658Y03015
X02725
X027Y0290055
X0290417Y0311083
X029Y02495
X0259Y0164
X0251Y01685
X02425Y01595
X023465Y01715
X0305Y0167055
X0305555Y01875
X0317445Y0199055
X030548Y0213
X0322445Y0234945
X0331067Y02495
X0335Y0167055
X0325Y0158791
X0045Y0315
T02
X0028921Y-00065
X0033843
X0038764
X0062657
X0067579
X00725
X0262657Y0321
X0267579
X02725
T03
X0321Y0059516
X0331
Y0069516
X0321
Y0079516
X0331
T04
X0302Y00365
X02865
X02055Y0034
X02145Y0079
X0241
X0013087Y0097
Y011285
X0277Y0206941
Y0216941
Y0226941
Y0236941
Y0246941
Y0256941
X02345Y0263484
X023465Y02725
X0347Y0246941
Y0236941
Y0226941
Y0216941
X01955Y0320489
X01855
X017375Y0320483
X016375
X0152Y0320483
X0142
T05
X0302067Y0018307
X0264567
X0072933Y0296693
X0035433
T06
X0282Y01895
Y02745
X0342
Y01895
T07
X0Y0
X03375Y001
Y03
X0Y0315
T08
X0177339Y0005531
X0194661
T09
X0039646Y0027244
X0130984
X0133317Y0250217
Y0281713
X0204183
Y0250217
T10
X0192965Y0115563
X0120323Y01575
X0192965Y0199437
T11
X016875Y01575
M30
