M48
;Layer_Color=9474304
;FILE_FORMAT=2:5
INCH,LZ
;TYPE=PLATED
T1F00S00C0.01181
T2F00S00C0.03000
T3F00S00C0.04000
T4F00S00C0.07874
T5F00S00C0.25000
T6F00S00C0.98425
;TYPE=NON_PLATED
T7F00S00C0.05000
T8F00S00C0.09843
%
T01
X0341134Y0085504
X0168563Y0076772
Y0124272
X0145Y0106484
X012048Y0103429
X0107973Y0102437
X0108063Y0091772
X0065063Y0096772
X0054063Y0126437
X0044473Y0129593
X0052028Y0137437
X0050472Y0041437
X0064973Y0048937
X0007945Y0179
X-0007Y0167055
X0005472Y0248937
X00075Y0255079
X0041339
X0048528Y0244492
X0032644Y0227461
X0030419Y0227461
X0028063Y0227461
Y0224937
X0030419
X0032644
Y0222437
X0030419
X0028063
Y0219937
X0030419
X0032644
X0032563Y0217437
X0030419
X0028063
X0052028Y0200382
X0058563Y0193937
X0076027Y0176772
X0101073Y0159254
X0044473Y0146437
X0064063Y0225437
X0066563
X0069063
X0071563
X0074063
X0076473
X01305Y02175
X0165
X0177835
X01075Y0263809
X0216335Y0261772
X0218563
X0220948
Y0259272
X0218563
X0216335
X0247585Y0236854
X0254335Y0225705
Y0217437
X0290685Y0216055
X0290835Y0237854
X032Y0272
X0267358Y0287407
X0220948Y0196272
Y0193937
Y0191772
X0218563
Y0193937
X0216335Y0193937
Y0191772
Y0196272
X0218563
X0318685Y017961
X03375
X030385Y0307437
Y0330315
X032Y03375
X0267335Y0316945
X02725Y04025
X0045472Y0307957
X0033547Y0302705
X00125Y03285
X0022973Y0376937
T02
X0329527Y0063779
Y0095276
X0041339Y0047244
X0009843
X0281496Y0383465
X0312992
X-0006693Y0366929
Y0335433
T03
X0195473Y0383205
X0205472
X0216335
X0226335
X0111335
X0101335
T04
X0293307Y035315
X0029528
T05
X0193Y01395
X0144Y0183
T06
X0161417Y0325591
T07
X0366929Y0063779
Y0091339
X0037402Y0009843
X0009842
X0285433Y0420866
X0312992
X-0044095Y0366929
Y033937
T08
X0341732Y0129724
X-0018898
X0341732Y0300984
X-0018898
M30
