M48
;Layer_Color=9474304
;FILE_FORMAT=2:5
INCH,LZ
;TYPE=PLATED
T1F00S00C0.01181
T2F00S00C0.03543
T3F00S00C0.04000
T4F00S00C0.09449
T5F00S00C0.11811
;TYPE=NON_PLATED
T6F00S00C0.03543
%
T01
X0050941Y-0013
X0044937Y-0006
X0047929Y0005223
X0052Y0005055
X0056177
X0055Y00175
X0038996Y00265
X00175Y0025
Y00325
X00605Y0001
X0063
Y-00015
X00605
X0071118Y-0013118
X0079902
X00895Y00025
X0092
Y0005
X00895
X00975Y0001
Y-00015
X01
Y0001
X0105441Y0015
X0109Y0027466
X0116138
X012Y00175
X013Y0017
X0129Y0005
X01265
Y00025
X0129
X01345Y0001
Y-00015
X0137
Y0001
X0145Y-0011655
X0114Y-001
X0097378Y0025
X01375Y00265
X01725Y00215
X01715Y0001
Y-00015
X0174
Y0001
X0166Y00025
Y0005
X01635
X02005Y0005
Y00025
X0203
Y0005
X02085Y0001
X0211Y0001
Y-00015
X02085
Y0014
X0195882Y0025
X02155Y0016
X02265Y00115
X024Y0015
Y0005
Y00025
X02375
Y0005
X0256Y0008
X02735Y0004791
X0276
Y0002291
X02735
X0276Y002
X02685
X02655Y0024441
Y0029559
X02725Y0029559
X0280441Y0027
X0285559
X0294Y0032
X02985Y0015
X0309Y0007
X03115
Y00045
X0309
X03175Y00215
X03225Y00175
X02415Y0024342
Y0029658
X0236Y00365
X0248701Y00535
X0255784Y0055378
X0255441Y0062878
X0257075Y007322
X0261882Y0083
X0266441Y0078535
X0267Y0100108
X0275661Y01015
X0261606Y0108
Y01105
X0259
Y0108
X0246941Y00925
X0241Y0138
Y0142
X0231Y0142
X02345Y0138
X0227299Y0172
X0235098Y01805
X023865Y01825
X022298Y0184
X0259941Y0183
X02635Y01885
X0266
X0266476Y01784
X0277Y01785
X0276971Y0181
X027225Y0183559
X02945Y01875
X02955Y01745
X0298
X03005
Y0172
X0298
X02955
Y0169437
X0298
X03005Y01695
X0291441Y0159136
X0285097Y0163752
X0294461Y0139461
X02875Y0130878
X0292559Y01185
X029759Y0088933
X0290941Y00775
X02875Y007
X0294098Y0062961
X0293Y0055378
X0300762Y0039
X0214642Y0054658
X0250846Y0169
X0212Y01795
X02015Y0184
X01965Y01875
X01935Y019
X0186658Y0190878
X0181342
X0185825Y0163752
X0181Y0130878
X0168161Y01025
X01605
X0155382Y0083
X0154441Y0078535
X0150575Y007322
X0148941Y0062878
X0149284Y0055378
X013Y00631
X0116138Y0054658
X0100996
Y0046
Y00435
X0094996Y0037059
X0097378Y00675
X0105441Y0061
X008Y0055378
X0074559Y007
X0078Y00775
X00875
X008465Y0088933
X0061721Y01025
X0074559Y0130878
X00785Y0164636
X00875Y01675
X0072661Y0175
X00705Y0189
X0060559
X0148Y0190819
X0140441Y00925
X0191091Y0088933
X0184441Y00775
X0181Y007
X01865Y0055378
X01995Y0054658
X0202
Y0046
X01995
Y00435
X0202
X01935Y0037059
X01585Y0035583
X0134Y0035484
Y0040799
X0059996Y0035583
X02085Y00615
X00425Y0062878
X0042843Y0055378
X0044134Y007322
X0048Y0078535
X0048941Y0083
X0034Y00925
X0054059Y01025
X0035496Y0040799
Y0035484
X0022494Y00475
X0029953Y0181917
X00475Y0181976
Y0189
Y01965
X0047524Y0204024
X00365Y0224785
X0029323Y0220323
X002Y022006
Y0224785
X00245Y02295
X000365Y0232
X-000265
X0015Y020811
X0021721Y02585
X0018Y0279295
X002Y0294374
X0021Y03025
X00375Y0309616
X0042925Y03095
X0039283Y03142
X00425Y0292
X00405Y0288075
X00375
Y0278626
X00405
X0040541Y02524
X-0009657Y0270823
X-0010059Y028487
X-000125Y029375
X007Y0287595
X0072421Y0297524
X00675Y0315
X0064886Y03125
X007Y032815
X0076945Y0322
X0089Y031115
X012Y0309071
X01265Y0297825
X0119Y0274
X0145Y02795
X0152744Y0280508
X0153244Y0271063
X0160221Y0270905
X016028Y0265846
X0167244Y0270965
X0168244Y0281405
X0174626Y0281528
X0174744Y0284405
X0189471Y0277949
X01895Y0263
X0174685Y0262906
X01725Y0245
X01895Y0236157
X0198843Y0236
X0211Y02335
X02135Y0237
Y022
X0211Y0218
X02075Y02145
X0202Y02125
X0181114Y0215
X0181059Y022262
X0173221Y0215
Y02125
X0173356Y01965
X0156Y0195677
X0153541
X0151
X0146Y0209266
X0151Y02345
X01155Y02239
X01055Y022518
X00925Y0234803
X0074559Y0227
X007Y0222
X0064886Y02155
X0075221Y02115
X0076Y01945
X0060559Y0204024
X006Y022774
Y0235
Y02425
X0062Y02545
X006213Y0261394
X0067543Y02675
X00675Y02525
X00805Y0264
X0089Y025935
X01065Y0200878
X01185Y02005
Y0198
X0121
Y02005
X01585Y0307
Y03095
X0161
Y0307
X01725Y0313
X0177Y03245
X0151556Y032793
X0193441Y0308874
X0198441Y0307299
X0204311Y0317846
X0214547Y0314953
X022Y0317846
Y03225
X0223Y03155
Y0311
X02235Y0303618
X0230441Y02985
X0248701Y0299085
X0249158Y028375
X023865Y0276945
Y027163
X0228102Y02775
X0224421Y02455
X0219303
X0231842
X0235Y0234803
X02445Y0217941
X0251691Y0217838
Y0222956
X02575Y02305
X027Y022587
X0272689
Y0223059
X027
X02625Y02175
X0261606Y020811
X0264106Y020811
X0259Y020811
X02565Y020811
X0254Y020811
Y0198779
X02565
X0259
X02615
X0264
X02635Y0191106
X0266
X0277Y02015
X027972
Y02055
X0277Y0205437
X029Y0206425
Y02105
Y0196437
X0286283Y01945
X0296Y01915
X0298441
X03475Y0191106
Y0215
X0277815Y0239815
X02715Y0239
X02805Y0253961
X0279177Y0272
X0274118Y0270878
X0274Y0268
X02815Y0281441
X0288524Y02815
X0288465Y0286559
X02955Y0281343
X0300762Y0276
X03116Y02884
X03165Y02905
X031815Y03135
X0323Y03165
X0313032Y0318
X0312Y03115
X03055Y03065
X0295Y03075
X02925Y0304
X0285Y0305
X0287Y0307
X02905Y03175
X0296
X0302795Y0316
X02655Y0299085
X02195Y0223
X0224199Y0210337
X0227299
X0230399
Y0207237
X0227299
X0224199
X0235098Y0201248
X0242Y01965
T02
X-00025Y0195339
X00075
Y0205339
X-00025
Y0215339
X00075
T03
X0129Y00265
X0309024Y0030878
X0319024
X0329024
X0339024
X03225Y-00075
X0306283Y-0012697
X0296283Y-00125
X0286283
X0294Y0044
X0309024Y0040878
X0319024
X0329024
X0339024
Y0050878
Y0060878
X0329024
Y0050878
X0319024
Y0060878
X0309024
Y0050878
Y0070878
X0319024
X0329024
X0339024
Y0080878
Y0090878
Y0100878
Y0110878
Y0120878
Y0130878
X0329024
Y0140878
Y0150878
Y0160878
X0339024
Y0170878
X0329024
Y0180878
X0339024
Y0190878
X0329024
X0319024
Y0180878
Y0170878
Y0160878
X0309024
Y0170878
Y0180878
Y0190878
Y0150878
X0319024
Y0140878
Y0130878
X0309024
Y0140878
Y0120878
X0319024
X0329024
Y0110878
Y0100878
Y0090878
Y0080878
X0319024
Y0090878
Y0100878
Y0110878
X0309024
Y0100878
Y0090878
Y0080878
X02705Y00415
X02605
X02425Y0044
X0339024Y0140878
Y0150878
X02Y01395
X00935
X-00125
X0017Y0325598
X0027
X0037Y0325402
X01715Y03275
X0132405Y0236
X023348Y01945
X0309024Y0200878
Y0210878
Y0220878
Y0230878
X0319024
X0329024
X0339024
Y0240878
X0329024
Y0250878
X0339024
Y0260878
Y0270878
Y0280878
X0329024
Y0270878
Y0260878
X0319024
Y0250878
Y0240878
X0309024
Y0250878
Y0260878
Y0270878
Y0280878
X0319024
Y0270878
Y0220878
X0329024
X0339024
Y0210878
X0329024
Y0200878
X0339024
X0319024
Y0210878
T04
X0077421Y0040787
X0175925
X0002579Y0248543
X0250846Y0248543
T05
X0Y0
X03375Y001
X-0Y0315
X03375Y03
T06
X0246339Y0309616
X0263661
M30
