G04*
G04 #@! TF.GenerationSoftware,Altium Limited,Altium Designer,18.1.9 (240)*
G04*
G04 Layer_Color=8421504*
%FSLAX25Y25*%
%MOIN*%
G70*
G01*
G75*
%ADD13R,0.05118X0.01181*%
%ADD14R,0.08661X0.07087*%
%ADD15R,0.06299X0.03150*%
%ADD16R,0.06299X0.03937*%
%ADD17R,0.31496X0.25591*%
%ADD18R,1.96850X0.19685*%
%ADD19R,1.96850X0.27559*%
D13*
X296205Y230008D02*
D03*
Y228039D02*
D03*
Y226071D02*
D03*
Y224102D02*
D03*
Y200480D02*
D03*
Y202449D02*
D03*
Y204417D02*
D03*
Y206386D02*
D03*
Y208354D02*
D03*
Y210323D02*
D03*
Y212291D02*
D03*
Y214260D02*
D03*
Y216228D02*
D03*
Y218197D02*
D03*
Y220165D02*
D03*
Y222134D02*
D03*
D14*
X309000Y237488D02*
D03*
Y193000D02*
D03*
D15*
X149421Y201716D02*
D03*
Y197386D02*
D03*
X176976D02*
D03*
Y201716D02*
D03*
D16*
X133673Y199551D02*
D03*
X192724D02*
D03*
D17*
X224685Y199551D02*
D03*
X101949D02*
D03*
X31772D02*
D03*
X31094Y13551D02*
D03*
X101272D02*
D03*
X224008D02*
D03*
D18*
X162667Y232783D02*
D03*
Y347583D02*
D03*
X161990Y161583D02*
D03*
Y46783D02*
D03*
D19*
X162770Y302083D02*
D03*
X162092Y116083D02*
D03*
M02*
