G04*
G04 #@! TF.GenerationSoftware,Altium Limited,Altium Designer,18.1.9 (240)*
G04*
G04 Layer_Color=16711935*
%FSLAX25Y25*%
%MOIN*%
G70*
G01*
G75*
%ADD27C,0.10642*%
%ADD28C,0.45800*%
%ADD41R,0.03950X0.07099*%
%ADD42R,0.09068X0.12611*%
%ADD43R,0.07099X0.03950*%
%ADD44R,0.12611X0.09068*%
D27*
X267717Y10043D02*
D03*
X59055Y10043D02*
D03*
X279527Y380122D02*
D03*
X47244D02*
D03*
D28*
X242535Y105663D02*
D03*
X163323D02*
D03*
X84114D02*
D03*
X242533Y291663D02*
D03*
X163323D02*
D03*
X84112D02*
D03*
D41*
X292882Y149791D02*
D03*
X278118Y149791D02*
D03*
X283039D02*
D03*
X287961D02*
D03*
X38539Y228917D02*
D03*
X43461D02*
D03*
X86461Y228917D02*
D03*
X81539D02*
D03*
X76618D02*
D03*
D42*
X302921Y161209D02*
D03*
X268079D02*
D03*
X53500Y217500D02*
D03*
X28500Y217500D02*
D03*
X66579Y217500D02*
D03*
X96500D02*
D03*
D43*
X306209Y210882D02*
D03*
X306209Y196118D02*
D03*
Y201039D02*
D03*
Y205961D02*
D03*
X262057Y205961D02*
D03*
X262057Y210882D02*
D03*
Y215803D02*
D03*
Y220724D02*
D03*
X261959Y201039D02*
D03*
Y196118D02*
D03*
Y191197D02*
D03*
Y186276D02*
D03*
D44*
X294791Y220921D02*
D03*
Y186079D02*
D03*
X273474Y230764D02*
D03*
Y176236D02*
D03*
M02*
