G04*
G04 #@! TF.GenerationSoftware,Altium Limited,Altium Designer,18.1.9 (240)*
G04*
G04 Layer_Physical_Order=2*
G04 Layer_Color=16711680*
%FSLAX25Y25*%
%MOIN*%
G70*
G01*
G75*
%ADD11C,0.01000*%
%ADD31C,0.01500*%
%ADD32C,0.09843*%
%ADD33C,0.45000*%
%ADD34C,0.02000*%
%ADD35R,0.03150X0.06299*%
%ADD36R,0.08268X0.11811*%
%ADD37R,0.06299X0.03150*%
%ADD38R,0.11811X0.08268*%
%ADD39C,0.02000*%
%ADD40C,0.01200*%
G36*
X285000Y146500D02*
X276000D01*
Y153000D01*
X285000D01*
Y146500D01*
D02*
G37*
G36*
X40410Y202500D02*
X85000D01*
Y197500D01*
Y145000D01*
X211000D01*
Y210500D01*
X218500D01*
Y137500D01*
X39370D01*
X39370Y27136D01*
X239500Y27136D01*
Y27136D01*
X291000D01*
Y153500D01*
X295000D01*
Y26500D01*
Y20000D01*
X239500D01*
Y16136D01*
Y2701D01*
X84000D01*
Y15847D01*
X84289Y16136D01*
X16224D01*
X16224Y27136D01*
X16224D01*
X16224Y145000D01*
X39370Y145000D01*
Y145000D01*
X68500D01*
Y197500D01*
X40410D01*
Y197500D01*
X36500Y197500D01*
X36500Y232500D01*
X40410D01*
X40410Y202500D01*
D02*
G37*
G36*
X265500Y268636D02*
X250000D01*
Y128636D01*
X265500D01*
Y82636D01*
X61224D01*
Y128636D01*
X225000D01*
Y268636D01*
X50000D01*
Y225500D01*
X41500D01*
Y314636D01*
X265500D01*
Y268636D01*
D02*
G37*
D11*
X40449Y199551D02*
X50224D01*
X38539Y201461D02*
X40449Y199551D01*
X38539Y201461D02*
Y228917D01*
X239500Y22500D02*
X290264D01*
X292882Y25118D01*
Y140791D01*
D31*
X149421Y187921D02*
Y191333D01*
X146658Y185158D02*
X149421Y187921D01*
X107658Y185158D02*
X146658D01*
X323500Y152500D02*
Y194000D01*
X320791Y149791D02*
X323500Y152500D01*
X292882Y149791D02*
X320791D01*
X192724Y191136D02*
Y225276D01*
X189083Y228917D02*
X192724Y225276D01*
X86461Y228917D02*
X189083D01*
X313500Y230000D02*
X321000D01*
X311000D02*
X313500D01*
X308500D02*
X311000D01*
X323500Y198236D02*
Y227500D01*
X321000Y230000D02*
X323500Y227500D01*
X254000Y192500D02*
Y195000D01*
Y190000D02*
Y192500D01*
Y188000D02*
Y190000D01*
X321382Y196118D02*
X323500Y198236D01*
X291000Y178500D02*
X316500D01*
X287961Y175461D02*
X291000Y178500D01*
X287961Y149791D02*
Y175461D01*
X316500Y178500D02*
X319500Y181500D01*
X306248Y201000D02*
X316500D01*
X306209Y201039D02*
X306248Y201000D01*
X319500Y181500D02*
Y189500D01*
X261959Y191197D02*
X272303D01*
X254000Y188000D02*
X255724Y186276D01*
X261959D01*
X321382Y196118D02*
X323500Y194000D01*
X306209Y196118D02*
X321382D01*
X76618Y216197D02*
Y228917D01*
Y216197D02*
X107658Y185158D01*
X108813Y191187D02*
X133673D01*
X81539Y218461D02*
X108813Y191187D01*
X81539Y218461D02*
Y228917D01*
X306209Y210882D02*
X314961D01*
X306209Y205961D02*
X314961D01*
X262057Y205961D02*
X269961D01*
X261959Y196118D02*
X282500D01*
X262057Y210882D02*
X274882D01*
X262057Y215803D02*
X282303D01*
X262057Y220724D02*
X282500D01*
D32*
X267717Y10043D02*
D03*
X59055Y10043D02*
D03*
X279527Y380122D02*
D03*
X47244D02*
D03*
D33*
X242535Y105663D02*
D03*
X163323D02*
D03*
X84114D02*
D03*
X242533Y291663D02*
D03*
X163323D02*
D03*
X84112D02*
D03*
D34*
X308500Y230000D02*
D03*
X311000D02*
D03*
X313500D02*
D03*
X316500Y201000D02*
D03*
X319500Y189500D02*
D03*
X314000Y223500D02*
D03*
Y221150D02*
D03*
Y219000D02*
D03*
X272303Y191197D02*
D03*
X254000Y190000D02*
D03*
Y192500D02*
D03*
Y195000D02*
D03*
X314961Y210882D02*
D03*
X314961Y205961D02*
D03*
X269961Y205961D02*
D03*
X282500Y196118D02*
D03*
X274882Y210882D02*
D03*
X282303Y215803D02*
D03*
X282500Y220724D02*
D03*
X217224Y209136D02*
D03*
Y206636D02*
D03*
Y204136D02*
D03*
X214724Y209136D02*
D03*
Y206636D02*
D03*
Y204136D02*
D03*
X212224Y209136D02*
D03*
Y204136D02*
D03*
X194000Y13201D02*
D03*
X196500D02*
D03*
X199000D02*
D03*
X201500D02*
D03*
X204000D02*
D03*
X206500D02*
D03*
X70224Y199551D02*
D03*
X131000Y13201D02*
D03*
X128500D02*
D03*
X126000D02*
D03*
X123500D02*
D03*
X121000D02*
D03*
X118500D02*
D03*
X212224Y206636D02*
D03*
X192724Y191136D02*
D03*
X149421Y191333D02*
D03*
X133673Y191187D02*
D03*
X63224Y20136D02*
D03*
X60724D02*
D03*
X58224D02*
D03*
X55724D02*
D03*
X53224D02*
D03*
X50724D02*
D03*
X82724Y199551D02*
D03*
X80224D02*
D03*
X77724D02*
D03*
X75224D02*
D03*
X72724D02*
D03*
X62724D02*
D03*
X60224D02*
D03*
X57724D02*
D03*
X55224D02*
D03*
X52724D02*
D03*
X50224D02*
D03*
D35*
X292882Y149791D02*
D03*
X278118Y149791D02*
D03*
X283039D02*
D03*
X287961D02*
D03*
X38539Y228917D02*
D03*
X43461D02*
D03*
X86461Y228917D02*
D03*
X81539D02*
D03*
X76618D02*
D03*
D36*
X302921Y161209D02*
D03*
X268079D02*
D03*
X53500Y217500D02*
D03*
X28500Y217500D02*
D03*
X66579Y217500D02*
D03*
X96500D02*
D03*
D37*
X306209Y210882D02*
D03*
X306209Y196118D02*
D03*
Y201039D02*
D03*
Y205961D02*
D03*
X262057Y205961D02*
D03*
X262057Y210882D02*
D03*
Y215803D02*
D03*
Y220724D02*
D03*
X261959Y201039D02*
D03*
Y196118D02*
D03*
Y191197D02*
D03*
Y186276D02*
D03*
D38*
X294791Y220921D02*
D03*
Y186079D02*
D03*
X273474Y230764D02*
D03*
Y176236D02*
D03*
D39*
X314000Y221150D02*
Y223500D01*
Y219000D02*
Y221150D01*
Y217500D02*
Y219000D01*
X285500Y194000D02*
X294500D01*
X283039Y191539D02*
X285500Y194000D01*
X283039Y149791D02*
Y191539D01*
X311500Y215000D02*
X314000Y217500D01*
X300500Y215000D02*
X311500D01*
X297500Y212000D02*
X300500Y215000D01*
X297500Y197000D02*
Y212000D01*
X294500Y194000D02*
X297500Y197000D01*
D40*
X261959Y196118D02*
Y201039D01*
M02*
