G04*
G04 #@! TF.GenerationSoftware,Altium Limited,Altium Designer,18.1.9 (240)*
G04*
G04 Layer_Color=8388736*
%FSLAX25Y25*%
%MOIN*%
G70*
G01*
G75*
%ADD20R,0.05512X0.01575*%
%ADD21R,0.09461X0.07887*%
%ADD22R,0.07099X0.03950*%
%ADD23R,0.07099X0.04737*%
%ADD24R,0.32296X0.26391*%
%ADD25R,1.97650X0.20485*%
%ADD26R,1.97650X0.28359*%
%ADD27C,0.10642*%
%ADD28C,0.45800*%
D20*
X296205Y230008D02*
D03*
Y228039D02*
D03*
Y226071D02*
D03*
Y224102D02*
D03*
Y200480D02*
D03*
Y202449D02*
D03*
Y204417D02*
D03*
Y206386D02*
D03*
Y208354D02*
D03*
Y210323D02*
D03*
Y212291D02*
D03*
Y214260D02*
D03*
Y216228D02*
D03*
Y218197D02*
D03*
Y220165D02*
D03*
Y222134D02*
D03*
D21*
X309000Y237488D02*
D03*
Y193000D02*
D03*
D22*
X149421Y201716D02*
D03*
Y197386D02*
D03*
X176976D02*
D03*
Y201716D02*
D03*
D23*
X133673Y199551D02*
D03*
X192724D02*
D03*
D24*
X224685Y199551D02*
D03*
X101949D02*
D03*
X31772D02*
D03*
X31094Y13551D02*
D03*
X101272D02*
D03*
X224008D02*
D03*
D25*
X162667Y232783D02*
D03*
Y347583D02*
D03*
X161990Y161583D02*
D03*
Y46783D02*
D03*
D26*
X162770Y302083D02*
D03*
X162092Y116083D02*
D03*
D27*
X267717Y10043D02*
D03*
X59055Y10043D02*
D03*
X279527Y380122D02*
D03*
X47244D02*
D03*
D28*
X242535Y105663D02*
D03*
X163323D02*
D03*
X84114D02*
D03*
X242533Y291663D02*
D03*
X163323D02*
D03*
X84112D02*
D03*
M02*
